<svg xmlns="http://www.w3.org/2000/svg" width="619.346" height="372.933" viewBox="0 0 619.346 372.933">
  <g id="Data_report-pana_1_" data-name="Data report-pana (1)" transform="translate(-36.214 -47.393)">
    <g id="freepik--background-complete--inject-4" transform="translate(36.213 47.393)">
      <rect id="Rectángulo_28488" data-name="Rectángulo 28488" width="5.139" height="38.449" transform="translate(393.716 235.375) rotate(-90)" fill="#e0e0e0"/>
      <path id="Trazado_111573" data-name="Trazado 111573" d="M472.507,299.42a12.279,12.279,0,0,1,0,4.81,11.833,11.833,0,0,1,0-4.81Z" transform="translate(-73.552 -68.974)" fill="#fafafa"/>
      <path id="Trazado_111574" data-name="Trazado 111574" d="M471.588,299.31a12.279,12.279,0,0,1,0,4.81,12.279,12.279,0,0,1,0-4.81Z" transform="translate(-73.474 -68.964)" fill="#fafafa"/>
      <path id="Trazado_111575" data-name="Trazado 111575" d="M505.568,299.42a11.833,11.833,0,0,1,0,4.81A12.279,12.279,0,0,1,505.568,299.42Z" transform="translate(-76.383 -68.974)" fill="#fafafa"/>
      <ellipse id="Elipse_4372" data-name="Elipse 4372" cx="0.238" cy="2.405" rx="0.238" ry="2.405" transform="translate(428.115 230.346)" fill="#fafafa"/>
      <path id="Trazado_111576" data-name="Trazado 111576" d="M497.338,302.144c0,.128-4.4.238-9.829.238s-9.839-.11-9.839-.238a98.01,98.01,0,0,1,9.839-.247,97.718,97.718,0,0,1,9.829.247Z" transform="translate(-74.015 -69.183)" fill="#fafafa"/>
      <rect id="Rectángulo_28489" data-name="Rectángulo 28489" width="10.268" height="38.449" transform="translate(393.551 263.629) rotate(-90)" fill="#e0e0e0"/>
      <path id="Trazado_111577" data-name="Trazado 111577" d="M505.559,331.942a.914.914,0,0,1-.21.119c-.137.073-.357.174-.64.293a10.97,10.97,0,0,1-2.606.75,6.748,6.748,0,0,1-4.224-.6,5.587,5.587,0,0,1-2.012-1.829,4.243,4.243,0,0,1-.7-2.963,3.09,3.09,0,0,1,.713-1.527,1.984,1.984,0,0,1,1.618-.731,2.313,2.313,0,0,1,1.628.914,3.173,3.173,0,0,1,.75,1.746,4.691,4.691,0,0,1-1.326,3.657,5.888,5.888,0,0,1-3.658,1.829,9.9,9.9,0,0,1-4.3-.53,7.946,7.946,0,0,1-3.776-2.542,4.106,4.106,0,0,1-.914-2.213,2.88,2.88,0,0,1,.823-2.313,1.829,1.829,0,0,1,1.2-.521,2.158,2.158,0,0,1,1.262.347,3.328,3.328,0,0,1,1.408,2.076,4.837,4.837,0,0,1-1.509,4.526,7.589,7.589,0,0,1-4.334,1.765,10.762,10.762,0,0,1-4.49-.448,6.2,6.2,0,0,1-3.411-2.652,4.572,4.572,0,0,1-.43-4.078,2.14,2.14,0,0,1,1.573-1.326,2.432,2.432,0,0,1,1.938.466,3.219,3.219,0,0,1,.914,3.456,6.008,6.008,0,0,1-1.939,2.743,8.814,8.814,0,0,1-5.276,2.048,8.467,8.467,0,0,1-4.17-.914,8.229,8.229,0,0,1-2.185-1.618,5.257,5.257,0,0,1-.457-.53c-.1-.128-.146-.192-.137-.2a9.783,9.783,0,0,0,2.862,2.185,8.366,8.366,0,0,0,4.078.841,8.467,8.467,0,0,0,5.066-2.039,5.633,5.633,0,0,0,1.829-2.569,2.825,2.825,0,0,0-.8-3.036,2.057,2.057,0,0,0-1.609-.384,1.719,1.719,0,0,0-1.262,1.088,4.124,4.124,0,0,0,.421,3.658,5.724,5.724,0,0,0,3.182,2.441,10.058,10.058,0,0,0,4.288.411,7.05,7.05,0,0,0,4.051-1.646,4.362,4.362,0,0,0,1.372-4.06,2.862,2.862,0,0,0-1.2-1.774,1.472,1.472,0,0,0-1.874.119,2.377,2.377,0,0,0-.677,1.92,3.657,3.657,0,0,0,.777,1.966,7.48,7.48,0,0,0,3.52,2.368,9.427,9.427,0,0,0,4.087.521,5.422,5.422,0,0,0,3.438-1.646,4.3,4.3,0,0,0,1.234-3.31,2.46,2.46,0,0,0-1.993-2.3,1.673,1.673,0,0,0-1.335.6,2.853,2.853,0,0,0-.64,1.353,3.923,3.923,0,0,0,.622,2.743A5.34,5.34,0,0,0,498,332.335a6.61,6.61,0,0,0,4.069.649,12.124,12.124,0,0,0,2.6-.649A5.8,5.8,0,0,1,505.559,331.942Z" transform="translate(-73.074 -71.202)" fill="#fafafa"/>
      <rect id="Rectángulo_28490" data-name="Rectángulo 28490" width="17.821" height="35.011" transform="translate(396.98 253.342) rotate(-90)" fill="#ebebeb"/>
      <path id="Trazado_111578" data-name="Trazado 111578" d="M476.705,305.64a75.264,75.264,0,0,1,.247,8.623,75.263,75.263,0,0,1-.247,8.622,79.353,79.353,0,0,1-.238-8.622,79.354,79.354,0,0,1,.238-8.622Z" transform="translate(-73.909 -69.506)" fill="#e0e0e0"/>
      <path id="Trazado_111579" data-name="Trazado 111579" d="M479.614,305.39a77.4,77.4,0,0,1,.238,8.513,77.508,77.508,0,0,1-.238,8.522,73.514,73.514,0,0,1-.247-8.522,73.416,73.416,0,0,1,.247-8.513Z" transform="translate(-74.158 -69.485)" fill="#e0e0e0"/>
      <path id="Trazado_111580" data-name="Trazado 111580" d="M504.305,304.77a81.331,81.331,0,0,1,.247,8.961,81.369,81.369,0,0,1-.247,8.97,85.864,85.864,0,0,1-.238-8.97,85.747,85.747,0,0,1,.238-8.961Z" transform="translate(-76.273 -69.432)" fill="#e0e0e0"/>
      <path id="Trazado_111581" data-name="Trazado 111581" d="M500.895,305a77.268,77.268,0,0,1,.247,8.732,77.351,77.351,0,0,1-.247,8.741,78.8,78.8,0,0,1-.238-8.741A78.693,78.693,0,0,1,500.895,305Z" transform="translate(-75.981 -69.451)" fill="#e0e0e0"/>
      <rect id="Rectángulo_28491" data-name="Rectángulo 28491" width="236.036" height="156.568" transform="translate(188.522 32.613)" fill="#e0e0e0"/>
      <path id="Trazado_111582" data-name="Trazado 111582" d="M36.22,91.781A39.995,39.995,0,1,1,76.854,131.31,39.995,39.995,0,0,1,36.22,91.781Zm59.1-.914a19.562,19.562,0,1,1,0-.046Z" transform="translate(-36.214 -47.73)" fill="#f5f5f5"/>
      <path id="Trazado_111583" data-name="Trazado 111583" d="M36.219,91.748A40.141,40.141,0,0,1,75.537,50.93l.338,20.957a19.2,19.2,0,0,0,.613,38.4l.338,20.967a40.132,40.132,0,0,1-40.607-39.51Z" transform="translate(-36.213 -47.696)" fill="#e0e0e0"/>
      <path id="Trazado_111584" data-name="Trazado 111584" d="M75.32,47.4c25.8-.421,46.377,19.6,46.788,45.517l-24.414.393C97.5,80.92,88.075,73.121,75.75,73.322Z" transform="translate(-39.562 -47.393)" fill="#ebebeb"/>
      <path id="Trazado_111585" data-name="Trazado 111585" d="M245.244,445.943c-1.024-.914-3.319-3.658-1.545-6.922.64-1.189,2.021-1.774,3.264-2.3a13.142,13.142,0,0,0,3.593-1.829c1.938-1.655,2.478-4.407,3.767-6.611a8.257,8.257,0,0,1,7.169-4.3c3.347.155,6.135,2.88,7.406,6s1.308,6.583,1.335,9.948c0,1.829-.073,3.959-1.436,5.212s-3.155,1.17-4.864,1.125l-18.287-.567" transform="translate(-53.924 -79.639)" fill="#f5f5f5"/>
      <path id="Trazado_111586" data-name="Trazado 111586" d="M279.206,393h-48.1l8.659,51.662a5.77,5.77,0,0,0,4.106,4.572l.174.046a2.7,2.7,0,0,1,.43.11,6.654,6.654,0,0,0,.978.119v.046h21.68a6.118,6.118,0,0,0,1.17-.119,5.788,5.788,0,0,0,4.864-5.047l4.179-35.6.192-1.417h0l1.655-14.09Zm-9.08,32.917H265.2l.494-14.987h5.715Zm1.765-14.987h4.727L274.9,425.917h-4.243Zm-14.1,31.61-.265-13.021h7.1l-.43,13.03Zm-7.69-13.03h6.913l.3,13.03h-6.19Zm.539,13.03h-5.788c-.558-3.52-1.271-8.092-2.048-13.03h6.821Zm-.814-16.623-1.17-14.987h7.955l.347,14.987Zm7.58,0-.347-14.987h8.156l-.5,14.987Zm-.43-18.589-.32-13.88H265.8l-.457,13.88Zm-.475,0h-8.12l-1.079-13.88h8.879Zm-8.6,0h-8.6c-.3-1.911-.594-3.731-.85-5.358-.914-5.614-1.234-7.726-1.426-8.522h9.793Zm.274,3.6,1.17,14.987h-7.1c-.247-1.518-.485-3.054-.732-4.572-.549-3.539-1.106-7.077-1.637-10.387Zm-6.4,14.987h-4.645l-2.515-14.987h4.791c.741,4.636,1.527,9.793,2.35,14.987Zm.558,3.593c.713,4.508,1.408,8.952,2.048,13.03h-4.462l-2.185-13.03Zm22.32,13.03.439-13.03h4.746l-1.116,13.03Zm1.17-35.212.466-13.88h6.629l-1.189,13.88Zm-29.26-13.88c.192,1.006,1.07,6.465,2.24,13.88h-4.828l-2.322-13.88Zm36.319,49.093h-3.712l1.152-13.021h4.133Zm4.133-35.212h-4.864l1.189-13.88h5.285Z" transform="translate(-52.902 -76.987)" fill="#e0e0e0"/>
      <rect id="Rectángulo_28492" data-name="Rectángulo 28492" width="10.36" height="41.366" transform="translate(563.981 57.008)" fill="#e0e0e0"/>
      <rect id="Rectángulo_28493" data-name="Rectángulo 28493" width="10.36" height="32.341" transform="translate(579.214 66.033)" fill="#e0e0e0"/>
      <rect id="Rectángulo_28494" data-name="Rectángulo 28494" width="10.36" height="24.953" transform="translate(594.676 73.421)" fill="#e0e0e0"/>
      <rect id="Rectángulo_28495" data-name="Rectángulo 28495" width="10.36" height="14.822" transform="translate(608.986 83.562)" fill="#e0e0e0"/>
      <path id="Trazado_111587" data-name="Trazado 111587" d="M689.715,210.358a35.825,35.825,0,0,0-50.373,1.7,35.322,35.322,0,0,0,1.71,50.08,35.834,35.834,0,0,0,50.382-1.71,35.313,35.313,0,0,0-1.719-50.071Zm-11.887,37.489a17.135,17.135,0,0,1-24.085.814,16.9,16.9,0,0,1-.823-23.947,17.154,17.154,0,0,1,24.094-.814,16.889,16.889,0,0,1,.823,23.911Z" transform="translate(-87.038 -60.532)" fill="#f5f5f5"/>
      <path id="Trazado_111588" data-name="Trazado 111588" d="M639.343,212.059a35.825,35.825,0,0,1,50.373-1.7l-12.692,13.487a17.154,17.154,0,0,0-24.094.814,16.9,16.9,0,0,0,.823,23.947l-12.7,13.514a35.322,35.322,0,0,1-1.71-50.062Z" transform="translate(-87.039 -60.532)" fill="#ebebeb"/>
      <path id="Trazado_111589" data-name="Trazado 111589" d="M692.374,204.91c17.592,16.34,19.7,42.9,3.264,60.348L677.79,249.8c7.864-8.357,9.564-19.522,1.152-27.34Z" transform="translate(-91.151 -60.881)" fill="#fafafa"/>
      <rect id="Rectángulo_28496" data-name="Rectángulo 28496" width="100.992" height="28.446" rx="3.23" transform="translate(118.124 208.428)" fill="#e0e0e0"/>
      <ellipse id="Elipse_4373" data-name="Elipse 4373" cx="6.154" cy="6.181" rx="6.154" ry="6.181" transform="translate(128.457 217.353)" fill="#f5f5f5"/>
      <path id="Trazado_111590" data-name="Trazado 111590" d="M186.563,289.56a25.456,25.456,0,0,1-3.31,3.575c-.274.274-.549.53-.814.786l-.165.165-.155-.165a17.191,17.191,0,0,1-2.469-2.807,17.767,17.767,0,0,1,2.8,2.478h-.329l.8-.8a25.266,25.266,0,0,1,3.639-3.237Z" transform="translate(-48.496 -68.129)" fill="#e0e0e0"/>
      <path id="Trazado_111591" data-name="Trazado 111591" d="M259.33,288.5c0,.128-13.56.238-30.275.238s-30.275-.11-30.275-.238,13.551-.238,30.275-.238S259.33,288.361,259.33,288.5Z" transform="translate(-50.134 -68.018)" fill="#fafafa"/>
      <path id="Trazado_111592" data-name="Trazado 111592" d="M259.6,294.128c0,.137-13.56.238-30.275.238s-30.275-.1-30.275-.238,13.551-.238,30.275-.238S259.6,293.991,259.6,294.128Z" transform="translate(-50.157 -68.5)" fill="#fafafa"/>
      <path id="Trazado_111593" data-name="Trazado 111593" d="M613.9,298.25,612.05,441.806h82.6v-141.6Z" transform="translate(-85.522 -68.873)" fill="#f5f5f5"/>
      <path id="Trazado_111594" data-name="Trazado 111594" d="M662.672,299.43l-.732,142.477h36.977v-141.6Z" transform="translate(-89.794 -68.975)" fill="#e0e0e0"/>
      <path id="Trazado_111595" data-name="Trazado 111595" d="M616.91,301.08v29.36h39.126V302.47Z" transform="translate(-85.938 -69.116)" fill="#e0e0e0"/>
      <path id="Trazado_111596" data-name="Trazado 111596" d="M631.66,309.873v4.343h11.969V309.48Z" transform="translate(-87.201 -69.835)" fill="#f5f5f5"/>
      <rect id="Rectángulo_28497" data-name="Rectángulo 28497" width="12.362" height="1.774" transform="translate(544.459 248.021)" fill="#f5f5f5"/>
      <path id="Trazado_111597" data-name="Trazado 111597" d="M616.91,413.61v29.36h39.126V415Z" transform="translate(-85.938 -78.752)" fill="#e0e0e0"/>
      <path id="Trazado_111598" data-name="Trazado 111598" d="M631.66,422.4v4.343h11.969V422.01Z" transform="translate(-87.201 -79.471)" fill="#f5f5f5"/>
      <rect id="Rectángulo_28498" data-name="Rectángulo 28498" width="12.362" height="1.774" transform="translate(544.459 350.915)" fill="#f5f5f5"/>
      <path id="Trazado_111599" data-name="Trazado 111599" d="M616.91,337.28v29.36h39.126V338.67Z" transform="translate(-85.938 -72.216)" fill="#e0e0e0"/>
      <path id="Trazado_111600" data-name="Trazado 111600" d="M631.66,346.073v4.343h11.969V345.68Z" transform="translate(-87.201 -72.935)" fill="#f5f5f5"/>
      <rect id="Rectángulo_28499" data-name="Rectángulo 28499" width="12.362" height="1.774" transform="translate(544.459 281.121)" fill="#f5f5f5"/>
      <rect id="Rectángulo_28500" data-name="Rectángulo 28500" width="39.126" height="29.36" transform="translate(530.46 300.222)" fill="#e0e0e0"/>
      <path id="Trazado_111601" data-name="Trazado 111601" d="M631.39,390.166v4.078h11.256V389.8Z" transform="translate(-87.178 -76.713)" fill="#f5f5f5"/>
      <rect id="Rectángulo_28501" data-name="Rectángulo 28501" width="11.622" height="1.664" transform="translate(544.212 320.96)" fill="#f5f5f5"/>
    </g>
    <g id="freepik--Floor--inject-4" transform="translate(43.534 418.844)">
      <path id="Trazado_111602" data-name="Trazado 111602" d="M649.131,453.868c0,.137-135.427.238-302.437.238S44.22,454,44.22,453.868s135.4-.238,302.474-.238S649.131,453.74,649.131,453.868Z" transform="translate(-44.22 -453.63)" fill="#263238"/>
    </g>
    <g id="freepik--Screens--inject-4" transform="translate(77.439 71.996)">
      <rect id="Rectángulo_28502" data-name="Rectángulo 28502" width="244.439" height="160.335" transform="translate(133.151 11.933)" fill="#fafafa"/>
      <path id="Trazado_111603" data-name="Trazado 111603" d="M471.342,247.658c0-1.545-.073-62.543-.192-160.335l.192.192H226.921l.238-.238V247.613l-.219-.219,244.439.219-244.439.219h-.219V87.04h.256l244.421.055h.192v.183C471.415,185.115,471.342,246.1,471.342,247.658Z" transform="translate(-93.752 -75.391)" fill="#263238"/>
      <path id="Trazado_111604" data-name="Trazado 111604" d="M308.606,184.18l24.039.338c-.183,12.8-10.972,23.252-24.039,23.252h-.146Z" transform="translate(-100.751 -83.709)" fill="#455a64"/>
      <path id="Trazado_111605" data-name="Trazado 111605" d="M349.157,218.085a2.945,2.945,0,0,1-.521,0h-1.463l-5.377.064h-.046l-.046-.055c-2.149-2.7-4.91-6.19-7.928-9.994l-6.4-8.147.128.055-7.077-.064-1.993.046a3.291,3.291,0,0,1-.7,0,4.286,4.286,0,0,1,.7-.046h1.975l7.077-.064h.073v.055l6.4,8.129,7.864,10.058-.11-.055,5.376.064h1.463A2.377,2.377,0,0,1,349.157,218.085Z" transform="translate(-101.545 -85.053)" fill="#263238"/>
      <path id="Trazado_111606" data-name="Trazado 111606" d="M360.073,222.8c0,.1-3.484.183-7.781.183s-7.781-.082-7.781-.183,3.484-.183,7.781-.183S360.073,222.7,360.073,222.8Z" transform="translate(-103.838 -87)" fill="#263238"/>
      <path id="Trazado_111607" data-name="Trazado 111607" d="M360.073,225.983c0,.1-3.484.183-7.781.183s-7.781-.082-7.781-.183,3.484-.183,7.781-.183A73.169,73.169,0,0,1,360.073,225.983Z" transform="translate(-103.838 -87.273)" fill="#263238"/>
      <path id="Trazado_111608" data-name="Trazado 111608" d="M302.208,178.232l-.338,23.591c-13.057-.183-23.71-10.771-23.71-23.591s10.854-23.582,24.048-23.582,24.048,10.643,24.048,23.582Z" transform="translate(-98.157 -81.18)" fill="#6595bf"/>
      <path id="Trazado_111609" data-name="Trazado 111609" d="M292.157,170.621a1.721,1.721,0,0,1-.411.091l-1.2.192-4.316.613h-.073l-.055-.055-5.761-5.605c-2.743-2.743-5.258-5.184-7.05-6.986l-2.1-2.149a6.267,6.267,0,0,1-.741-.823,5.868,5.868,0,0,1,.841.722l2.185,2.057c1.829,1.756,4.352,4.2,7.123,6.913l5.715,5.651h-.128l4.343-.475,1.2-.11a1.18,1.18,0,0,1,.43-.037Z" transform="translate(-97.497 -81.287)" fill="#263238"/>
      <path id="Trazado_111610" data-name="Trazado 111610" d="M262.333,154.763c0,.1-3.484.183-7.781.183s-7.772-.082-7.772-.183,3.475-.183,7.772-.183S262.333,154.662,262.333,154.763Z" transform="translate(-95.47 -81.174)" fill="#263238"/>
      <path id="Trazado_111611" data-name="Trazado 111611" d="M262.333,157.913c0,.1-3.484.183-7.781.183s-7.772-.082-7.772-.183,3.475-.183,7.772-.183S262.333,157.812,262.333,157.913Z" transform="translate(-95.47 -81.444)" fill="#263238"/>
      <path id="Trazado_111612" data-name="Trazado 111612" d="M394.751,128.11l-.091-14.63a18.745,18.745,0,0,0-12.1,4.718,17.373,17.373,0,0,0-5.825,15.179,20.22,20.22,0,0,0,.347,2.13.119.119,0,0,0,0,.055h0l17.656-3.978Z" transform="translate(-106.587 -77.655)" fill="#6595bf"/>
      <g id="Grupo_59990" data-name="Grupo 59990" transform="translate(270.025 35.825)" opacity="0.3">
        <path id="Trazado_111613" data-name="Trazado 111613" d="M394.751,128.11l-.091-14.63a18.745,18.745,0,0,0-12.1,4.718,17.373,17.373,0,0,0-5.825,15.179,20.22,20.22,0,0,0,.347,2.13.119.119,0,0,0,0,.055h0l17.656-3.978Z" transform="translate(-376.612 -113.48)" fill="#fff"/>
      </g>
      <path id="Trazado_111614" data-name="Trazado 111614" d="M414.831,123.611a17.373,17.373,0,0,0-14.255-9.976l-.558-.055H398.5l.1,14.63v3.438l17.73,3.831h0a16.979,16.979,0,0,0,.393-3.795,18.937,18.937,0,0,0-1.893-8.074Z" transform="translate(-108.461 -77.664)" fill="#6595bf"/>
      <g id="Grupo_59991" data-name="Grupo 59991" transform="translate(290.039 35.917)" opacity="0.3">
        <path id="Trazado_111615" data-name="Trazado 111615" d="M414.831,123.611a17.373,17.373,0,0,0-14.255-9.976l-.558-.055H398.5l.1,14.63v3.438l17.73,3.831h0a16.979,16.979,0,0,0,.393-3.795,18.937,18.937,0,0,0-1.893-8.074Z" transform="translate(-398.5 -113.58)"/>
      </g>
      <path id="Trazado_111616" data-name="Trazado 111616" d="M395.836,135.25l-17.666,3.978a18.1,18.1,0,0,0,35.35-.119l-17.666-3.859" transform="translate(-106.721 -79.519)" fill="#6595bf"/>
      <path id="Trazado_111617" data-name="Trazado 111617" d="M468.85,132.347c0,.128-9.144.238-20.39.238s-20.4-.11-20.4-.238,9.144-.247,20.4-.247S468.85,132.21,468.85,132.347Z" transform="translate(-110.993 -79.249)" fill="#263238"/>
      <path id="Trazado_111618" data-name="Trazado 111618" d="M468.85,127.258c0,.128-9.144.238-20.39.238s-20.4-.11-20.4-.238,9.144-.238,20.4-.238S468.85,127.13,468.85,127.258Z" transform="translate(-110.993 -78.814)" fill="#263238"/>
      <path id="Trazado_111619" data-name="Trazado 111619" d="M468.85,122.178c0,.128-9.144.238-20.39.238s-20.4-.11-20.4-.238,9.144-.238,20.4-.238S468.85,122.041,468.85,122.178Z" transform="translate(-110.993 -78.379)" fill="#263238"/>
      <path id="Trazado_111620" data-name="Trazado 111620" d="M468.85,137.077c0,.128-9.144.238-20.39.238s-20.4-.11-20.4-.238,9.144-.247,20.4-.247S468.85,136.985,468.85,137.077Z" transform="translate(-110.993 -79.654)" fill="#263238"/>
      <path id="Trazado_111621" data-name="Trazado 111621" d="M456.236,142.218c0,.137-6.273.238-14.008.238s-14.008-.1-14.008-.238,6.273-.238,14.008-.238S456.236,142.09,456.236,142.218Z" transform="translate(-111.006 -80.095)" fill="#263238"/>
      <rect id="Rectángulo_28503" data-name="Rectángulo 28503" width="4.197" height="46.916" transform="translate(274.302 95.78)" fill="#6595bf"/>
      <rect id="Rectángulo_28504" data-name="Rectángulo 28504" width="4.197" height="30.979" transform="translate(282.413 111.709)" fill="#6595bf"/>
      <rect id="Rectángulo_28505" data-name="Rectángulo 28505" width="4.197" height="41.32" transform="translate(290.523 101.605)" fill="#6595bf"/>
      <rect id="Rectángulo_28506" data-name="Rectángulo 28506" width="4.197" height="45.106" transform="translate(298.634 97.591)" fill="#6595bf"/>
      <rect id="Rectángulo_28507" data-name="Rectángulo 28507" width="4.197" height="30.028" transform="translate(306.735 112.66)" fill="#6595bf"/>
      <rect id="Rectángulo_28508" data-name="Rectángulo 28508" width="4.197" height="24.139" transform="translate(314.845 118.548)" fill="#6595bf"/>
      <rect id="Rectángulo_28509" data-name="Rectángulo 28509" width="4.197" height="42.098" transform="translate(322.956 100.59)" fill="#6595bf"/>
      <rect id="Rectángulo_28510" data-name="Rectángulo 28510" width="4.197" height="34.508" transform="translate(331.066 108.179)" fill="#6595bf"/>
      <rect id="Rectángulo_28511" data-name="Rectángulo 28511" width="4.197" height="40.571" transform="translate(339.177 102.117)" fill="#6595bf"/>
      <rect id="Rectángulo_28512" data-name="Rectángulo 28512" width="4.197" height="27.641" transform="translate(347.287 115.046)" fill="#6595bf"/>
      <rect id="Rectángulo_28513" data-name="Rectángulo 28513" width="4.197" height="32.899" transform="translate(355.398 109.789)" fill="#6595bf"/>
      <path id="Trazado_111622" data-name="Trazado 111622" d="M468.115,233.914c0,.091-19.924.174-44.5.174s-44.5-.082-44.5-.174,19.924-.174,44.5-.174S468.115,233.813,468.115,233.914Z" transform="translate(-106.801 -87.953)" fill="#263238"/>
      <path id="Trazado_111623" data-name="Trazado 111623" d="M387.256,237.984a29.616,29.616,0,0,1-6.236,0A28.072,28.072,0,0,1,387.256,237.984Z" transform="translate(-106.965 -88.301)" fill="#263238"/>
      <path id="Trazado_111624" data-name="Trazado 111624" d="M398.452,238.154a40.041,40.041,0,0,1-7.452,0,40.041,40.041,0,0,1,7.452,0Z" transform="translate(-107.819 -88.316)" fill="#263238"/>
      <path id="Trazado_111625" data-name="Trazado 111625" d="M408.1,238.154a40.04,40.04,0,0,1-7.452,0A40.043,40.043,0,0,1,408.1,238.154Z" transform="translate(-108.646 -88.316)" fill="#263238"/>
      <path id="Trazado_111626" data-name="Trazado 111626" d="M417.742,238.154a40.041,40.041,0,0,1-7.452,0,40.041,40.041,0,0,1,7.452,0Z" transform="translate(-109.471 -88.316)" fill="#263238"/>
      <path id="Trazado_111627" data-name="Trazado 111627" d="M427.392,238.154a40.04,40.04,0,0,1-7.452,0A40.043,40.043,0,0,1,427.392,238.154Z" transform="translate(-110.297 -88.316)" fill="#263238"/>
      <path id="Trazado_111628" data-name="Trazado 111628" d="M437.032,238.154a40.041,40.041,0,0,1-7.452,0,40.041,40.041,0,0,1,7.452,0Z" transform="translate(-111.123 -88.316)" fill="#263238"/>
      <path id="Trazado_111629" data-name="Trazado 111629" d="M446.682,238.154a40.04,40.04,0,0,1-7.452,0A40.043,40.043,0,0,1,446.682,238.154Z" transform="translate(-111.949 -88.316)" fill="#263238"/>
      <path id="Trazado_111630" data-name="Trazado 111630" d="M456.3,238.154a40.04,40.04,0,0,1-7.452,0A40.043,40.043,0,0,1,456.3,238.154Z" transform="translate(-112.773 -88.316)" fill="#263238"/>
      <path id="Trazado_111631" data-name="Trazado 111631" d="M465.972,238.154a40.04,40.04,0,0,1-7.452,0A40.043,40.043,0,0,1,465.972,238.154Z" transform="translate(-113.601 -88.316)" fill="#263238"/>
      <path id="Trazado_111632" data-name="Trazado 111632" d="M475.622,238.154a40.042,40.042,0,0,1-7.452,0,40.042,40.042,0,0,1,7.452,0Z" transform="translate(-114.427 -88.316)" fill="#263238"/>
      <g id="Grupo_59992" data-name="Grupo 59992" transform="translate(282.413 111.709)" opacity="0.3">
        <rect id="Rectángulo_28514" data-name="Rectángulo 28514" width="4.197" height="30.979" fill="#fff"/>
      </g>
      <g id="Grupo_59993" data-name="Grupo 59993" transform="translate(298.634 97.591)" opacity="0.3">
        <rect id="Rectángulo_28515" data-name="Rectángulo 28515" width="4.197" height="45.106" fill="#fff"/>
      </g>
      <g id="Grupo_59994" data-name="Grupo 59994" transform="translate(314.845 118.548)" opacity="0.3">
        <rect id="Rectángulo_28516" data-name="Rectángulo 28516" width="4.197" height="24.139" fill="#fff"/>
      </g>
      <g id="Grupo_59995" data-name="Grupo 59995" transform="translate(331.066 108.179)" opacity="0.3">
        <rect id="Rectángulo_28517" data-name="Rectángulo 28517" width="4.197" height="34.508" fill="#fff"/>
      </g>
      <g id="Grupo_59996" data-name="Grupo 59996" transform="translate(347.287 115.046)" opacity="0.3">
        <rect id="Rectángulo_28518" data-name="Rectángulo 28518" width="4.197" height="27.641" fill="#fff"/>
      </g>
      <path id="Trazado_111633" data-name="Trazado 111633" d="M258.641,119.932a4.051,4.051,0,1,1-4.042-4.042A4.051,4.051,0,0,1,258.641,119.932Z" transform="translate(-95.792 -77.861)" fill="#6595bf"/>
      <path id="Trazado_111634" data-name="Trazado 111634" d="M329.727,116.8c0,.137-13.633.238-30.449.238s-30.449-.1-30.449-.238,13.624-.238,30.449-.238S329.727,116.67,329.727,116.8Z" transform="translate(-97.358 -77.919)" fill="#6595bf"/>
      <path id="Trazado_111635" data-name="Trazado 111635" d="M293.317,122.148a3.373,3.373,0,0,1-.914.091l-2.569.082c-2.176,0-5.175.064-8.485.064s-6.318,0-8.485-.064l-2.579-.082a3.447,3.447,0,0,1-.914-.091,3.977,3.977,0,0,1,.914-.091c.613,0,1.49-.055,2.579-.073,2.167,0,5.166-.073,8.485-.073s6.309,0,8.485.073c1.088,0,1.966.046,2.569.073a3.886,3.886,0,0,1,.914.091Z" transform="translate(-97.404 -78.377)" fill="#6595bf"/>
      <rect id="Rectángulo_28519" data-name="Rectángulo 28519" width="127.93" height="146.007" transform="translate(0.238 26.453)" fill="#fafafa"/>
      <path id="Trazado_111636" data-name="Trazado 111636" d="M209.477,249.208v-10.6c0-6.894,0-16.98-.055-29.79,0-25.6-.064-62.077-.1-105.61l.21.21H81.611l.238-.238v146l-.2-.2,92.644.137,25.95.055h.082l-25.9.055-92.918.1h-.2V103H209.687v.21c-.046,43.588-.082,80.108-.11,105.747,0,12.8-.046,22.859-.055,29.735v9.848A3.535,3.535,0,0,1,209.477,249.208Z" transform="translate(-81.3 -76.758)" fill="#263238"/>
      <path id="Trazado_111637" data-name="Trazado 111637" d="M199.961,184.451c0,.091-1.417-.713-4.115-1.564a26.517,26.517,0,0,0-11.8-.914,25.931,25.931,0,0,0-7.781,2.505,36.226,36.226,0,0,0-7.653,5.486c-2.505,2.213-5,4.727-7.873,7.05a27.139,27.139,0,0,1-10.058,5.431,14.959,14.959,0,0,1-5.861.357,19.321,19.321,0,0,1-5.441-1.673,95.832,95.832,0,0,1-9.144-5.422,28.107,28.107,0,0,0-8.559-3.831,25.3,25.3,0,0,0-8.147-.631,26.151,26.151,0,0,0-11.247,3.657c-2.414,1.472-3.548,2.579-3.657,2.505a4.572,4.572,0,0,1,.814-.8,20.114,20.114,0,0,1,2.615-1.993,25.712,25.712,0,0,1,19.741-3.456,29.031,29.031,0,0,1,8.815,3.859,95.006,95.006,0,0,0,9.052,5.322,15.462,15.462,0,0,0,10.726,1.262,26.672,26.672,0,0,0,9.839-5.194c2.835-2.277,5.331-4.773,7.882-6.995a36.767,36.767,0,0,1,7.854-5.541,26,26,0,0,1,20.016-1.3,20.215,20.215,0,0,1,3.017,1.3,5.9,5.9,0,0,1,.96.585Z" transform="translate(-82.784 -83.45)" fill="#6595bf"/>
      <rect id="Rectángulo_28520" data-name="Rectángulo 28520" width="10.872" height="29.415" transform="translate(35.45 120.615)" fill="#6595bf"/>
      <rect id="Rectángulo_28521" data-name="Rectángulo 28521" width="10.872" height="29.415" transform="translate(81.608 120.615)" fill="#6595bf"/>
      <rect id="Rectángulo_28522" data-name="Rectángulo 28522" width="10.872" height="46.688" transform="translate(96.987 103.333)" fill="#6595bf"/>
      <rect id="Rectángulo_28523" data-name="Rectángulo 28523" width="10.872" height="9.903" transform="translate(21.378 140.767)" fill="#6595bf"/>
      <rect id="Rectángulo_28524" data-name="Rectángulo 28524" width="10.881" height="16.13" transform="translate(50.839 133.891)" fill="#6595bf"/>
      <rect id="Rectángulo_28525" data-name="Rectángulo 28525" width="10.872" height="19.833" transform="translate(66.219 130.188)" fill="#6595bf"/>
      <path id="Trazado_111638" data-name="Trazado 111638" d="M131.349,242.129c0,.238-2.633.439-5.879.439s-5.879-.2-5.879-.439,2.633-.439,5.879-.439S131.349,241.882,131.349,242.129Z" transform="translate(-84.579 -88.633)" fill="#263238"/>
      <path id="Trazado_111639" data-name="Trazado 111639" d="M116.549,242.129c0,.238-2.633.439-5.879.439s-5.879-.2-5.879-.439,2.633-.439,5.879-.439S116.549,241.882,116.549,242.129Z" transform="translate(-83.311 -88.633)" fill="#263238"/>
      <path id="Trazado_111640" data-name="Trazado 111640" d="M200.366,242.129c0,.238-2.972.439-6.638.439s-6.647-.2-6.647-.439,2.972-.439,6.647-.439S200.366,241.882,200.366,242.129Z" transform="translate(-90.358 -88.633)" fill="#263238"/>
      <ellipse id="Elipse_4374" data-name="Elipse 4374" cx="6.638" cy="0.439" rx="6.638" ry="0.439" transform="translate(80.574 153.057)" fill="#263238"/>
      <path id="Trazado_111641" data-name="Trazado 111641" d="M164.519,242.129c0,.238-2.633.439-5.879.439s-5.879-.2-5.879-.439,2.633-.439,5.879-.439S164.519,241.882,164.519,242.129Z" transform="translate(-87.419 -88.633)" fill="#263238"/>
      <path id="Trazado_111642" data-name="Trazado 111642" d="M147.13,242.129c0,.238-2.624.439-5.87.439s-5.879-.2-5.879-.439,2.633-.439,5.879-.439S147.13,241.882,147.13,242.129Z" transform="translate(-85.931 -88.633)" fill="#263238"/>
      <rect id="Rectángulo_28526" data-name="Rectángulo 28526" width="88.886" height="36.913" transform="translate(21.122 47.739)" fill="#e0e0e0"/>
      <path id="Trazado_111643" data-name="Trazado 111643" d="M123.822,138.872a4.151,4.151,0,1,1-4.151-4.142,4.151,4.151,0,0,1,4.151,4.142Z" transform="translate(-84.23 -79.475)" fill="#263238"/>
      <rect id="Rectángulo_28527" data-name="Rectángulo 28527" width="28.876" height="1.6" transform="translate(43.734 56.536)" fill="#263238"/>
      <rect id="Rectángulo_28528" data-name="Rectángulo 28528" width="56.17" height="1.6" transform="translate(43.734 60.184)" fill="#fff"/>
      <path id="Trazado_111644" data-name="Trazado 111644" d="M123.822,152.812a4.142,4.142,0,1,1-1.216-2.932A4.151,4.151,0,0,1,123.822,152.812Z" transform="translate(-84.23 -80.668)" fill="#6595bf"/>
      <rect id="Rectángulo_28529" data-name="Rectángulo 28529" width="14.74" height="1.6" transform="translate(43.734 69.282)" fill="#6595bf"/>
      <rect id="Rectángulo_28530" data-name="Rectángulo 28530" width="56.17" height="1.6" transform="translate(43.734 72.921)" fill="#fff"/>
      <rect id="Rectángulo_28531" data-name="Rectángulo 28531" width="140.484" height="160.335" transform="translate(389.577 0.238)" fill="#fafafa"/>
      <path id="Trazado_111645" data-name="Trazado 111645" d="M647.829,234.873v-11.64c0-7.571,0-18.644-.055-32.707,0-28.117-.064-68.176-.1-115.988l.21.21H507.409l.247-.238c0,59.114,0,114.242-.046,160.335l-.2-.2,101.907.1,28.483.055h.082l-28.455.155-102.035.1h-.2V74.3H648.131v.21c0,47.867-.082,87.972-.11,116.125,0,14.054,0,25.109-.055,32.67v10.808A3.338,3.338,0,0,0,647.829,234.873Z" transform="translate(-117.768 -74.3)" fill="#263238"/>
      <rect id="Rectángulo_28532" data-name="Rectángulo 28532" width="113.803" height="91.3" transform="translate(400.824 13.057)" fill="#e0e0e0"/>
      <rect id="Rectángulo_28533" data-name="Rectángulo 28533" width="3.731" height="1.079" transform="translate(408.77 88.127)" fill="#263238"/>
      <rect id="Rectángulo_28534" data-name="Rectángulo 28534" width="4.773" height="1.079" transform="translate(417.228 93.878)" fill="#263238"/>
      <rect id="Rectángulo_28535" data-name="Rectángulo 28535" width="4.773" height="1.079" transform="translate(433.851 93.878)" fill="#263238"/>
      <rect id="Rectángulo_28536" data-name="Rectángulo 28536" width="4.773" height="1.079" transform="translate(450.483 93.878)" fill="#263238"/>
      <rect id="Rectángulo_28537" data-name="Rectángulo 28537" width="4.773" height="1.079" transform="translate(467.107 93.878)" fill="#263238"/>
      <rect id="Rectángulo_28538" data-name="Rectángulo 28538" width="4.773" height="1.079" transform="translate(483.739 93.878)" fill="#263238"/>
      <rect id="Rectángulo_28539" data-name="Rectángulo 28539" width="4.773" height="1.079" transform="translate(500.362 93.878)" fill="#263238"/>
      <rect id="Rectángulo_28540" data-name="Rectángulo 28540" width="3.731" height="1.079" transform="translate(408.77 73.744)" fill="#263238"/>
      <rect id="Rectángulo_28541" data-name="Rectángulo 28541" width="3.731" height="1.079" transform="translate(408.77 46.697)" fill="#263238"/>
      <rect id="Rectángulo_28542" data-name="Rectángulo 28542" width="3.731" height="1.079" transform="translate(408.77 33.1)" fill="#263238"/>
      <rect id="Rectángulo_28543" data-name="Rectángulo 28543" width="3.731" height="1.079" transform="translate(408.962 60.22)" fill="#263238"/>
      <path id="Trazado_111646" data-name="Trazado 111646" d="M625.1,165.8a2.282,2.282,0,0,1-.4,0h-5.742l-16.614.082-54.862.064H534.31v-.238c0-18.287.064-34.463.082-46.039,0-5.761.055-10.387.073-13.6V101.5a1.232,1.232,0,0,1,0-.32,1.232,1.232,0,0,1,0,.32v4.572c0,3.209.046,7.836.073,13.6,0,11.576,0,27.715.082,46.039l-.238-.229h12.993l54.862.073,16.614.073,4.572.046h1.17Z" transform="translate(-120.091 -76.602)" fill="#263238"/>
      <path id="Trazado_111647" data-name="Trazado 111647" d="M626.51,140.728c0,.128-19.7.238-43.99.238s-44-.11-44-.238,19.7-.238,44-.238S626.51,140.6,626.51,140.728Z" transform="translate(-120.451 -79.968)" fill="#263238"/>
      <path id="Trazado_111648" data-name="Trazado 111648" d="M626.51,125.978c0,.137-19.7.238-43.99.238s-44-.1-44-.238,19.7-.238,44-.238S626.51,125.8,626.51,125.978Z" transform="translate(-120.451 -78.705)" fill="#263238"/>
      <path id="Trazado_111649" data-name="Trazado 111649" d="M626.51,111.058c0,.137-19.7.238-43.99.238s-44-.1-44-.238,19.7-.238,44-.238S626.51,110.93,626.51,111.058Z" transform="translate(-120.451 -77.427)" fill="#263238"/>
      <path id="Trazado_111650" data-name="Trazado 111650" d="M626.51,155.518c0,.137-19.7.238-43.99.238s-44-.1-44-.238,19.7-.238,44-.238S626.51,155.39,626.51,155.518Z" transform="translate(-120.451 -81.234)" fill="#263238"/>
      <path id="Trazado_111651" data-name="Trazado 111651" d="M539.51,162.989V150.984l7.48-11.613,5.084,3.9,10.415-16.184,6.145,4.325,8.549-14.932,6.949,5.66,10.415-19.805,11.247,22.137,9.08-11.073,10.689-3.063v52.659Z" transform="translate(-120.536 -76.7)" fill="#455a64"/>
      <path id="Trazado_111652" data-name="Trazado 111652" d="M626.595,106.4h-2.917l-8.229.064.11-.055-8.778,11.494-.055.073H584.707l.192-.11c-2.9,4.819-6.017,10.058-9.244,15.4l-9.089,15.1-.174.293-.21-.274c-4.334-5.98-8.357-11.512-11.887-16.395h.293l-10.927,17.007-3.045,4.672-.814,1.216c-.183.274-.293.411-.293.411s.073-.155.247-.439l.759-1.253,2.963-4.727,10.744-17.016.155-.247.165.238,11.933,16.376h-.384l9.071-15.105,9.263-15.389.064-.11h22.137l-.146.073,8.86-11.42v-.055h.064l8.229.064h2.725Z" transform="translate(-120.536 -77.033)" fill="#6595bf"/>
      <path id="Trazado_111653" data-name="Trazado 111653" d="M559.571,138.534a.85.85,0,1,1-.85-.814A.832.832,0,0,1,559.571,138.534Z" transform="translate(-122.108 -79.731)" fill="#6595bf"/>
      <path id="Trazado_111654" data-name="Trazado 111654" d="M587.321,122.755a.85.85,0,1,1-.841-.8.832.832,0,0,1,.841.8Z" transform="translate(-124.484 -78.38)" fill="#6595bf"/>
      <path id="Trazado_111655" data-name="Trazado 111655" d="M608.9,118.924a.85.85,0,1,1-.85-.814.832.832,0,0,1,.85.814Z" transform="translate(-126.332 -78.051)" fill="#6595bf"/>
      <path id="Trazado_111656" data-name="Trazado 111656" d="M628.465,203.248c0,.137-24.011.238-53.628.238s-53.637-.1-53.637-.238,24.011-.238,53.637-.238S628.465,203.12,628.465,203.248Z" transform="translate(-118.968 -85.321)" fill="#263238"/>
      <path id="Trazado_111657" data-name="Trazado 111657" d="M628.465,209.588c0,.137-24.011.238-53.628.238s-53.637-.1-53.637-.238,24.011-.238,53.637-.238S628.465,209.46,628.465,209.588Z" transform="translate(-118.968 -85.864)" fill="#263238"/>
      <path id="Trazado_111658" data-name="Trazado 111658" d="M628.465,215.978c0,.128-24.011.238-53.628.238s-53.637-.11-53.637-.238,24.011-.238,53.637-.238S628.465,215.8,628.465,215.978Z" transform="translate(-118.968 -86.411)" fill="#263238"/>
      <path id="Trazado_111659" data-name="Trazado 111659" d="M628.465,222.278c0,.128-24.011.238-53.628.238s-53.637-.11-53.637-.238,24.011-.238,53.637-.238S628.465,222.141,628.465,222.278Z" transform="translate(-118.968 -86.951)" fill="#263238"/>
    </g>
    <g id="freepik--character-2--inject-4" transform="translate(481.172 169.946)">
      <path id="Trazado_111660" data-name="Trazado 111660" d="M591.385,216.778c2.935-4.928,3.795-11.494,4.572-17.181.347-2.679.969-6.483-.914-8.165s-2.195-4.572-4.508-5.953a7.114,7.114,0,0,0-7.644.064" transform="translate(-527.984 -181.678)" fill="#263238"/>
      <path id="Trazado_111661" data-name="Trazado 111661" d="M581.768,234.486h0a7.919,7.919,0,0,1-8.522-7.589c-.164-4.316-.311-8.668-.311-8.668s-6.529-.613-7-7.077-.256-21.387-.256-21.387h0a22.521,22.521,0,0,1,22.768,1.463l-.4,22.75V226.22C588,230.326,585.865,234.175,581.768,234.486Z" transform="translate(-526.505 -181.931)" fill="#ffbe9d"/>
      <path id="Trazado_111662" data-name="Trazado 111662" d="M571.855,202.753a3.31,3.31,0,0,1,4.416-.969,3.767,3.767,0,0,1,1.253,4.7,4.965,4.965,0,0,1-3.173,2.4,2.5,2.5,0,0,0-1.948,2.679c.192,1.618,2.889,2.231,4.105,3.575,1.893,2.085,6.053,2.972,8.86,3.3s2.414.347,4.014-1.911a8.605,8.605,0,0,0,1.573-5.248l.3-14.3a20.478,20.478,0,0,0-.329-5.13,6.876,6.876,0,0,0-2.743-4.243c-1.573-1.033-3.566-1.125-5.349-1.7-2.24-.722-4.142-2.213-6.236-3.283s-4.663-1.71-6.766-.658c-1.509.759-2.524,2.268-4,3.1-2.085,1.189-4.928.914-5.943,4a5.111,5.111,0,0,0,0,3.283c1.417,4.188,6.593,5.87,10.323,4.06.073.713-.622,2.286.119,4.526.238.713.329,1.829,1.445,1.829" transform="translate(-525.992 -181.423)" fill="#263238"/>
      <path id="Trazado_111663" data-name="Trazado 111663" d="M574.269,208.866a1.138,1.138,0,0,0,.814.311,1.518,1.518,0,0,0,1.207-1.481,1.619,1.619,0,0,0-1.107-1.609c-.539-.192-.914-.091-.914-.165s.357-.293,1.024-.155a1.984,1.984,0,0,1,1.015.585,1.9,1.9,0,0,1,.476,1.372,1.774,1.774,0,0,1-1.682,1.829.969.969,0,0,1-.722-.357C574.241,208.984,574.241,208.875,574.269,208.866Z" transform="translate(-527.244 -183.504)" fill="#eb996e"/>
      <path id="Trazado_111664" data-name="Trazado 111664" d="M581.63,187.713a2.027,2.027,0,0,1,.539-.549,4.444,4.444,0,0,1,1.966-.759,5.651,5.651,0,0,1,3.091.466,7.077,7.077,0,0,1,2.853,2.551,14.5,14.5,0,0,1,2.012,6.547,17.267,17.267,0,0,1,.174,2.825,15.806,15.806,0,0,1-.512-2.743,15.545,15.545,0,0,0-2.066-6.327,6.886,6.886,0,0,0-2.643-2.414,5.221,5.221,0,0,0-5.413.439Z" transform="translate(-527.876 -181.845)" fill="#455a64"/>
      <path id="Trazado_111665" data-name="Trazado 111665" d="M561.543,194.207a.632.632,0,0,1-.247,0,1.957,1.957,0,0,1-.64-.293,2.37,2.37,0,0,1-.75-.841,2.14,2.14,0,0,1-.2-1.5,2.459,2.459,0,0,1,1.042-1.509,3.529,3.529,0,0,1,2.048-.4,2.8,2.8,0,0,0,1.948-.494,13.716,13.716,0,0,0,1.582-1.7,8.01,8.01,0,0,1,4.032-2.323,8.623,8.623,0,0,1,3.786-.091,7.315,7.315,0,0,1,2.386.914,2.917,2.917,0,0,1,.741.567,11.43,11.43,0,0,0-3.182-1.152,8.6,8.6,0,0,0-3.657.174,7.772,7.772,0,0,0-3.776,2.222A13.563,13.563,0,0,1,565,189.535a2.688,2.688,0,0,1-1.115.5,5.266,5.266,0,0,1-1.125.055,3.173,3.173,0,0,0-1.829.293,2.122,2.122,0,0,0-.914,1.262,2.075,2.075,0,0,0,.731,2.112,5.379,5.379,0,0,0,.8.448Z" transform="translate(-525.994 -181.72)" fill="#455a64"/>
      <path id="Trazado_111666" data-name="Trazado 111666" d="M580.088,212.855c0-.046.32-.165.85-.521a5.348,5.348,0,0,0,1.765-1.993,4.891,4.891,0,0,0,.293-3.786,4.836,4.836,0,0,0-1.17-1.948,9.427,9.427,0,0,0-2.021-1.472c-.759-.439-1.527-.85-2.222-1.326a7.378,7.378,0,0,1-1.829-1.692,7.808,7.808,0,0,1-1.518-3.822,7.141,7.141,0,0,1,.219-2.743,3.077,3.077,0,0,1,.256-.7c.073-.165.119-.238.128-.229a9.767,9.767,0,0,0-.265,3.657,7.726,7.726,0,0,0,1.527,3.6,7.406,7.406,0,0,0,1.7,1.573c.677.448,1.436.85,2.2,1.3a9.5,9.5,0,0,1,2.121,1.564,5.258,5.258,0,0,1,1.253,2.13,5.185,5.185,0,0,1-.421,4.087A5.121,5.121,0,0,1,581,212.489a2.514,2.514,0,0,1-.914.366Z" transform="translate(-527.239 -182.382)" fill="#455a64"/>
      <path id="Trazado_111667" data-name="Trazado 111667" d="M591.468,203.311a2.806,2.806,0,0,1-.832.192,12.728,12.728,0,0,1-2.332.064,14.328,14.328,0,0,1-7.205-2.478,11.429,11.429,0,0,1-4.737-5.953,4.956,4.956,0,0,1-.091-2.341,1.829,1.829,0,0,1,.32-.8,5.779,5.779,0,0,0,.1,3.045,11.685,11.685,0,0,0,4.672,5.651,15.169,15.169,0,0,0,6.968,2.533C590.252,203.439,591.458,203.219,591.468,203.311Z" transform="translate(-527.409 -182.329)" fill="#455a64"/>
      <path id="Trazado_111668" data-name="Trazado 111668" d="M593.906,199.151a11.439,11.439,0,0,1,8.915-4.042,8.216,8.216,0,0,1,7.47,5.788c.622,2.469-.137,5.038-.448,7.553s0,5.486,2.039,6.958c1.244.914,2.844,1.061,4.334,1.426s3.072,1.106,3.584,2.551c.585,1.655-.613,3.529-2.222,4.234a8.229,8.229,0,0,1-5.175.073,4.325,4.325,0,0,1-1.92,5.175,5.715,5.715,0,0,1-5.742-.238,8.577,8.577,0,0,1-3.5-4.755c-1.107,1.948-4.014,2.359-5.879,1.116a6.145,6.145,0,0,1-2.378-5.907,11.43,11.43,0,0,1,2.981-5.907,14.821,14.821,0,0,0,2.076-2.652,3.356,3.356,0,0,0,.128-3.228,1.939,1.939,0,0,0-2.871-.576" transform="translate(-528.841 -182.595)" fill="#263238"/>
      <path id="Trazado_111669" data-name="Trazado 111669" d="M597.819,206.162a2.231,2.231,0,0,1-1.938,0,4.654,4.654,0,0,1-2.816-3.657,4.792,4.792,0,0,1,.3-2.624,4.965,4.965,0,0,1,1.244-1.756,3.136,3.136,0,0,1,1.7-.914,14.753,14.753,0,0,0-1.463,1.189,4.792,4.792,0,0,0-1.317,4.069,4.572,4.572,0,0,0,2.478,3.438,4.718,4.718,0,0,0,1.81.256Z" transform="translate(-528.849 -182.775)" fill="#6595bf"/>
      <path id="Trazado_111670" data-name="Trazado 111670" d="M572.731,220.418a3.045,3.045,0,0,1-1.481-.146,7.992,7.992,0,0,1-5.23-4.627,3.008,3.008,0,0,1-.329-1.445,10.567,10.567,0,0,1,.631,1.308,9.191,9.191,0,0,0,2.094,2.743A9.382,9.382,0,0,0,571.35,220,9.272,9.272,0,0,1,572.731,220.418Z" transform="translate(-526.511 -184.23)" fill="#eb996e"/>
      <path id="Trazado_111671" data-name="Trazado 111671" d="M600.028,224.661h-.32a3.046,3.046,0,0,1-.841-.375,4.572,4.572,0,0,1-1.829-2.789,5.887,5.887,0,0,1-.082-2.35,9.278,9.278,0,0,1,.859-2.542c.814-1.71,2.094-3.328,3.045-5.2a9.143,9.143,0,0,0,.914-2.88,5.568,5.568,0,0,0-3.593-6,5.925,5.925,0,0,0-3.2-.192c-.759.155-1.143.366-1.161.329s.082-.073.265-.183a4.875,4.875,0,0,1,.85-.329,5.751,5.751,0,0,1,6.94,3.465,6.044,6.044,0,0,1,.366,2.963,9.712,9.712,0,0,1-1,3.036c-.987,1.938-2.277,3.539-3.081,5.184a6.913,6.913,0,0,0-.841,4.627,4.572,4.572,0,0,0,1.609,2.743,7.089,7.089,0,0,0,1.1.494Z" transform="translate(-528.919 -183.179)" fill="#455a64"/>
      <path id="Trazado_111672" data-name="Trazado 111672" d="M609.778,229.338a1.937,1.937,0,0,1-.4,0,4.571,4.571,0,0,1-1.152-.2,6.519,6.519,0,0,1-3.374-2.624,9.985,9.985,0,0,1-1.445-6.163,61.208,61.208,0,0,1,1.243-7.653,18.187,18.187,0,0,0,.274-3.941,10.249,10.249,0,0,0-.832-3.529,6.4,6.4,0,0,0-4.572-3.785,9.336,9.336,0,0,0-4.16,0c-.978.219-1.49.439-1.509.393s.119-.082.357-.192a9.622,9.622,0,0,1,1.106-.384,9.061,9.061,0,0,1,4.279-.155,6.794,6.794,0,0,1,2.743,1.225,7.04,7.04,0,0,1,2.13,2.743,10.333,10.333,0,0,1,.914,3.657,17.374,17.374,0,0,1-.265,4.042,70.515,70.515,0,0,0-1.28,7.6,9.811,9.811,0,0,0,1.3,5.953,6.455,6.455,0,0,0,3.145,2.633,10.057,10.057,0,0,0,1.5.384Z" transform="translate(-528.922 -183.092)" fill="#455a64"/>
      <path id="Trazado_111673" data-name="Trazado 111673" d="M612.111,264.17,598.35,274.9l5.77,9.491,16.587-12.216Z" transform="translate(-529.308 -188.508)" fill="#ffbe9d"/>
      <path id="Trazado_111674" data-name="Trazado 111674" d="M570,223.825s.073-1.152-2.935-1.317a30.752,30.752,0,0,0-3.338-.11,7.626,7.626,0,0,1-1.436-2.743,8.419,8.419,0,0,1,.64-2.835l3.045-.274-.823-2.066-2.149.146-6.044.731-2.4,10.57-16.514,30.814a7.964,7.964,0,0,0,3.155,11.585h0c4.27,2.066,9.985-2.313,11.567-6.785l9.144-34.28,3.219-2.505,4.572-.841" transform="translate(-524.029 -184.254)" fill="#ffbe9d"/>
      <path id="Trazado_111675" data-name="Trazado 111675" d="M532,434.965l22.448-129.292h0c.055-.192.1-.375.146-.558h0c3.831-15.169,9.729-20.025,9.729-20.025l34.389,2.158c2.926,5.258,3.3,17.867,3.3,17.867.4,1.545-7.269,126.842-7.269,126.842L583.2,431.6l-6.236-118.539L543.494,435.467Z" transform="translate(-523.626 -190.3)" fill="#ffbe9d"/>
      <path id="Trazado_111676" data-name="Trazado 111676" d="M530.917,450.171l.046-1.161,11.832.338-.1,3.85h-.732c-3.255.082-16.559.192-18.717-.475C520.85,452,530.917,450.171,530.917,450.171Z" transform="translate(-522.845 -204.336)" fill="#6595bf"/>
      <g id="Grupo_59997" data-name="Grupo 59997" transform="translate(15.579 245.628)" opacity="0.6">
        <path id="Trazado_111677" data-name="Trazado 111677" d="M539.88,453.086a3.822,3.822,0,0,1,1.573-2.3,4.215,4.215,0,0,1,2.743-.722l-.091,3.063Z" transform="translate(-539.88 -450.053)" fill="#fff"/>
      </g>
      <g id="Grupo_59998" data-name="Grupo 59998" transform="translate(0 246.896)" opacity="0.6">
        <path id="Trazado_111678" data-name="Trazado 111678" d="M525.986,451.44s-3.529.841-3.109,1.39,13.871.914,19.814.576v-.247l-15.7-.293S526.644,451.486,525.986,451.44Z" transform="translate(-522.842 -451.44)" fill="#fff"/>
      </g>
      <path id="Trazado_111679" data-name="Trazado 111679" d="M542.868,453.273h-2.926c-1.829,0-4.316,0-7.077-.073s-5.258-.183-7.068-.293l-2.14-.137h.009l2.14.091c1.829.082,4.307.183,7.068.256s5.258.091,7.068.11h2.926Z" transform="translate(-522.845 -204.658)" fill="#263238"/>
      <path id="Trazado_111680" data-name="Trazado 111680" d="M527.269,453.027a2.743,2.743,0,0,0-1.079-1.737,1.481,1.481,0,0,1,.832.713,1.371,1.371,0,0,1,.247,1.024Z" transform="translate(-523.129 -204.531)" fill="#263238"/>
      <path id="Trazado_111681" data-name="Trazado 111681" d="M531.174,451.413a2.367,2.367,0,0,1-.357-.43c-.165-.256-.274-.475-.238-.494s.192.174.357.43S531.21,451.4,531.174,451.413Z" transform="translate(-523.504 -204.463)" fill="#263238"/>
      <path id="Trazado_111682" data-name="Trazado 111682" d="M532.222,450.94a2.085,2.085,0,0,1-.411-.274c-.2-.174-.338-.338-.311-.366a1.116,1.116,0,0,1,.411.274C532.112,450.766,532.249,450.94,532.222,450.94Z" transform="translate(-523.583 -204.447)" fill="#263238"/>
      <path id="Trazado_111683" data-name="Trazado 111683" d="M532.885,449.892a1.5,1.5,0,0,1-.613.064,1.454,1.454,0,0,1-.613-.082,1.408,1.408,0,0,1,.613-.055A1.59,1.59,0,0,1,532.885,449.892Z" transform="translate(-523.597 -204.404)" fill="#263238"/>
      <path id="Trazado_111684" data-name="Trazado 111684" d="M533.1,449.11a1.189,1.189,0,0,1-.686.174,1.262,1.262,0,0,1-.713-.11,4.244,4.244,0,0,1,.7,0A3.832,3.832,0,0,1,533.1,449.11Z" transform="translate(-523.6 -204.345)" fill="#263238"/>
      <path id="Trazado_111685" data-name="Trazado 111685" d="M530.614,450.357a2.634,2.634,0,0,1-.75,0,5.481,5.481,0,0,1-.8-.183,2.744,2.744,0,0,1-.457-.192.393.393,0,0,1-.183-.229.265.265,0,0,1,.128-.274,1.445,1.445,0,0,1,1.7.421,1.2,1.2,0,0,1,.238.475q0,.192,0,.192a1.909,1.909,0,0,0-.32-.613,1.427,1.427,0,0,0-.64-.4,1.244,1.244,0,0,0-.914,0c-.119.073-.073.21.055.283a2.166,2.166,0,0,0,.421.183,5.578,5.578,0,0,0,.777.21C530.331,450.32,530.614,450.329,530.614,450.357Z" transform="translate(-523.319 -204.366)" fill="#263238"/>
      <path id="Trazado_111686" data-name="Trazado 111686" d="M530.6,450.354a.658.658,0,0,1-.073-.494,1.115,1.115,0,0,1,.219-.512.8.8,0,0,1,.64-.338.283.283,0,0,1,.229.329.75.75,0,0,1-.137.311,2.492,2.492,0,0,1-.375.421,1.189,1.189,0,0,1-.439.274s.155-.128.366-.338a2.041,2.041,0,0,0,.329-.421c.11-.146.192-.411,0-.448a.7.7,0,0,0-.5.293,1,1,0,0,0-.229.448,2.058,2.058,0,0,0-.027.475Z" transform="translate(-523.498 -204.336)" fill="#263238"/>
      <path id="Trazado_111687" data-name="Trazado 111687" d="M544.175,449.99h-.914a4.16,4.16,0,0,0-1.92.677,3.6,3.6,0,0,0-1.234,1.536c-.192.457-.219.777-.247.768a.567.567,0,0,1,0-.219,2.676,2.676,0,0,1,.146-.585,3.375,3.375,0,0,1,1.244-1.6,3.822,3.822,0,0,1,2-.667,3.061,3.061,0,0,1,.64,0,.6.6,0,0,1,.283.092Z" transform="translate(-524.298 -204.411)" fill="#263238"/>
      <path id="Trazado_111688" data-name="Trazado 111688" d="M537.977,452.153a6.908,6.908,0,0,1-1.728.119,7.734,7.734,0,0,1-1.719-.174c0-.046.777,0,1.719,0A12.628,12.628,0,0,1,537.977,452.153Z" transform="translate(-523.843 -204.599)" fill="#263238"/>
      <path id="Trazado_111689" data-name="Trazado 111689" d="M540.787,452.23s-.064.146-.146.311-.137.3-.174.3-.055-.174,0-.366S540.759,452.2,540.787,452.23Z" transform="translate(-524.348 -204.611)" fill="#263238"/>
      <path id="Trazado_111690" data-name="Trazado 111690" d="M541.767,451.149a.713.713,0,0,1-.183.247c-.128.11-.247.183-.274.155s.055-.137.174-.247S541.739,451.122,541.767,451.149Z" transform="translate(-524.423 -204.519)" fill="#263238"/>
      <path id="Trazado_111691" data-name="Trazado 111691" d="M543.117,450.673a.878.878,0,0,0-.338.082c-.174.082-.3.137-.329.11s.073-.174.283-.238S543.135,450.646,543.117,450.673Z" transform="translate(-524.521 -204.473)" fill="#263238"/>
      <path id="Trazado_111692" data-name="Trazado 111692" d="M544.127,450.468a.29.29,0,0,1-.155.119.441.441,0,0,1-.2,0,.251.251,0,0,1,.155-.119C544.026,450.44,544.108,450.431,544.127,450.468Z" transform="translate(-524.634 -204.459)" fill="#263238"/>
      <path id="Trazado_111693" data-name="Trazado 111693" d="M594.87,228.68a22.667,22.667,0,0,1,9.144,3.584c10.872,7.05,29.059,21.945,27.55,28.867-1.317,5.87-15.544,13.012-15.544,13.012l-9.144-11.082,5.642-3.228L598.646,250.6Z" transform="translate(-529.01 -185.469)" fill="#263238"/>
      <path id="Trazado_111694" data-name="Trazado 111694" d="M596.055,251.067l-.448,1.646-1.6,7.644-.375,11.2c8.229,10.625,8.376,19.568,8.376,19.568l-41.668,4.864c0-8.229,3.008-18.6,3.008-18.6,2.4-4.087,2.3-16.322,1.829-16.77-2.6-2.579-3.228-4.471-1.152-7.772,0,0-12.92,13.569-14.246,14.785-4.572,4.188-8.961,3.017-10.972,1.2-5.706-5.093.146-11.658.146-11.658l21.762-24.935a10.854,10.854,0,0,1,5.651-3.447,46.939,46.939,0,0,1,4.663-.823l14.529.119a24.619,24.619,0,0,1,4.325.53,10.378,10.378,0,0,1,6.346,7.864C597.5,242.728,596.055,251.067,596.055,251.067Z" transform="translate(-523.995 -185.409)" fill="#263238"/>
      <path id="Trazado_111695" data-name="Trazado 111695" d="M601.873,242.3a5.558,5.558,0,0,1,.091,1.207c0,.777,0,1.911-.082,3.3a86.486,86.486,0,0,1-1.435,10.762c-.265,1.417-.558,2.789-.859,4.06v-.046c-.128,3.237-.256,6.035-.366,8.028-.064.914-.11,1.7-.146,2.323a3.505,3.505,0,0,1-.11.841,3.236,3.236,0,0,1-.046-.841V269.6c0-1.993.1-4.8.2-8.037v-.046c.283-1.253.567-2.624.832-4.042.8-4.151,1.326-7.946,1.573-10.707.119-1.381.183-2.5.229-3.273a6.406,6.406,0,0,1,.119-1.2Z" transform="translate(-529.356 -186.636)" fill="#455a64"/>
      <path id="Trazado_111696" data-name="Trazado 111696" d="M602.3,254.55a174.336,174.336,0,0,1,14.95,10.342,84.449,84.449,0,0,1-7.608-4.974,87.268,87.268,0,0,1-7.342-5.367Z" transform="translate(-529.646 -187.685)" fill="#455a64"/>
      <path id="Trazado_111697" data-name="Trazado 111697" d="M571.915,236.69a1.069,1.069,0,0,1,.219.165,4.347,4.347,0,0,1,.512.567A6.319,6.319,0,0,1,573.781,240a8.522,8.522,0,0,1-.238,4.179,17.072,17.072,0,0,1-2.341,4.572,16.136,16.136,0,0,1-1.719,2.021c-.6.613-1.253,1.116-1.829,1.637-1.152,1.033-2.14,2.012-2.963,2.853s-1.472,1.527-1.92,2-.7.75-.732.722a4.5,4.5,0,0,1,.594-.841c.4-.512,1.015-1.244,1.829-2.121s1.765-1.829,2.917-2.935c.576-.539,1.207-1.052,1.829-1.646a16.082,16.082,0,0,0,1.664-1.975,17.508,17.508,0,0,0,2.3-4.389,8.539,8.539,0,0,0,.329-3.987,7.471,7.471,0,0,0-1.591-3.4Z" transform="translate(-526.198 -186.155)" fill="#455a64"/>
      <path id="Trazado_111698" data-name="Trazado 111698" d="M567.54,276.456l.485-5.6h28.419l-.155,4.371Z" transform="translate(-526.669 -189.081)" fill="#455a64"/>
      <path id="Trazado_111699" data-name="Trazado 111699" d="M540.652,258.71a18.143,18.143,0,0,0-1.582,1.646,7.562,7.562,0,0,0,.4,9.921,21.876,21.876,0,0,0,1.71,1.518,1.161,1.161,0,0,1-.585-.247,6.472,6.472,0,0,1-1.362-1.033,7.507,7.507,0,0,1-.421-10.378,6.265,6.265,0,0,1,1.271-1.143C540.451,258.774,540.652,258.682,540.652,258.71Z" transform="translate(-524.049 -188.04)" fill="#455a64"/>
      <path id="Trazado_111700" data-name="Trazado 111700" d="M599.5,445.64l3.228,7.5-14.429-.174-.3-7.644Z" transform="translate(-528.421 -204.02)" fill="#6595bf"/>
      <path id="Trazado_111701" data-name="Trazado 111701" d="M588.22,452.241a13.125,13.125,0,0,0,2.012.1h4.883l4.864-.1a14.088,14.088,0,0,0,2.021-.11,14.315,14.315,0,0,0-2.021-.091h-4.874l-4.874.091a17.14,17.14,0,0,0-2.012.11Z" transform="translate(-528.44 -204.595)" fill="#263238"/>
      <path id="Trazado_111702" data-name="Trazado 111702" d="M594.776,445.49a9.921,9.921,0,0,0-.055,3.036,10.187,10.187,0,0,0,.393,3.017,9.921,9.921,0,0,0,.055-3.036A10.187,10.187,0,0,0,594.776,445.49Z" transform="translate(-528.989 -204.035)" fill="#263238"/>
      <path id="Trazado_111703" data-name="Trazado 111703" d="M602.722,453.866l-14.411-.485-.091-1.372,13.78.119.732,1.573" transform="translate(-528.44 -204.593)" fill="#fff" opacity="0.6"/>
      <path id="Trazado_111704" data-name="Trazado 111704" d="M600.157,287.984c10.854,34.243-3.136,75.811.219,115.714.329,3.923,1.92,8.6-1.746,10.835a5.981,5.981,0,0,1-3.31.814c-2.926-.1-5.377-1.618-7.992-2.661a23.774,23.774,0,0,0-15.727-.613c-3.456,1.079-6.894,2.99-10.479,2.45-4.764-.722-7.845-5.431-12.225-7.425-4.106-1.829-8.842-1.17-13.35-1.28h-.137a10.113,10.113,0,0,1-9.345-12.8c6.556-23.993,28.272-101.916,37.891-116.125l28.766-1.253C595.357,278.84,598.758,283.622,600.157,287.984Z" transform="translate(-523.087 -189.491)" fill="#6595bf"/>
      <path id="Trazado_111705" data-name="Trazado 111705" d="M594.893,306.77a12.8,12.8,0,0,1-1.564,1.966,46.474,46.474,0,0,1-4.243,4.343,28.391,28.391,0,0,1-5.011,3.438,11.331,11.331,0,0,1-2.286,1.061c-.1-.165,3.42-1.829,6.977-4.864,1.774-1.536,3.228-3.1,4.316-4.206a12.943,12.943,0,0,1,1.81-1.737Z" transform="translate(-527.889 -192.156)" fill="#263238"/>
      <g id="Grupo_59999" data-name="Grupo 59999" transform="translate(37.371 127.534)" opacity="0.1">
        <path id="Trazado_111706" data-name="Trazado 111706" d="M580.654,320.9a122.424,122.424,0,0,0-4.791,73.3c.512,2.094,1.042,4.471-.155,6.273-1.536,2.323-5.276,2.167-7.388.338s-2.953-4.691-3.484-7.434c-3.95-20.427,3.2-40.964,10.918-60.284" transform="translate(-563.712 -320.9)"/>
      </g>
    </g>
    <g id="freepik--character-1--inject-4" transform="translate(253.419 211.754)">
      <rect id="Rectángulo_28544" data-name="Rectángulo 28544" width="54.487" height="2.652" transform="translate(64.527 97.265)" fill="#263238"/>
      <path id="Trazado_111707" data-name="Trazado 111707" d="M334.134,332.834,323.92,294.54h42.536l9.253,38.294Z" transform="translate(-278.055 -232.917)" fill="#263238"/>
      <path id="Trazado_111708" data-name="Trazado 111708" d="M373.383,330.1h-38L326.54,296.47h38.193Z" transform="translate(-278.28 -233.083)" fill="#f5f5f5"/>
      <path id="Trazado_111709" data-name="Trazado 111709" d="M327.171,298.893h38.193l-.649-2.423H326.54Z" transform="translate(-278.28 -233.083)" fill="#ebebeb"/>
      <path id="Trazado_111710" data-name="Trazado 111710" d="M331.74,297.761a.421.421,0,1,0,.421-.421A.421.421,0,0,0,331.74,297.761Z" transform="translate(-278.725 -233.157)" fill="#fafafa"/>
      <path id="Trazado_111711" data-name="Trazado 111711" d="M330.17,297.761a.421.421,0,1,0,.421-.421A.421.421,0,0,0,330.17,297.761Z" transform="translate(-278.59 -233.157)" fill="#fafafa"/>
      <path id="Trazado_111712" data-name="Trazado 111712" d="M328.6,297.761a.391.391,0,1,0,.421-.421A.421.421,0,0,0,328.6,297.761Z" transform="translate(-278.456 -233.157)" fill="#fafafa"/>
      <path id="Trazado_111713" data-name="Trazado 111713" d="M358,314.659l4.188,4.791a5.916,5.916,0,0,0,2.551-4.819c0-3.347-3.072-6.09-6.775-6.071s-6.748,2.743-6.73,6.126Z" transform="translate(-280.394 -234.118)" fill="#6595bf"/>
      <path id="Trazado_111714" data-name="Trazado 111714" d="M357.415,316.063a9.363,9.363,0,0,1,1.2,1.2c.75.8,1.829,1.975,3.091,3.4l.146.165-.183.128a7.2,7.2,0,0,1-7.05.695,6.949,6.949,0,0,1-2.908-2.332,5.953,5.953,0,0,1-1.07-3.145V316h5.02a10.918,10.918,0,0,1,1.765.082,12.477,12.477,0,0,1-1.829.146c-1.152.055-2.743.11-4.736.165l.2-.219a5.742,5.742,0,0,0,1.042,2.9,6.483,6.483,0,0,0,2.743,2.158,6.931,6.931,0,0,0,6.629-.576v.293c-1.216-1.417-2.213-2.615-2.908-3.465A12.139,12.139,0,0,1,357.415,316.063Z" transform="translate(-280.343 -234.754)" fill="#263238"/>
      <path id="Trazado_111715" data-name="Trazado 111715" d="M355.06,311.245a.393.393,0,0,0,.384.384.384.384,0,0,0,.375-.384.379.379,0,0,0-.759,0Z" transform="translate(-280.722 -234.316)" fill="#263238"/>
      <path id="Trazado_111716" data-name="Trazado 111716" d="M346.83,308.264a21.25,21.25,0,0,1,4.526-.256h.695l.073.064A18.1,18.1,0,0,1,354.739,311a18.441,18.441,0,0,1-2.953-2.588l.174.064h-.6a22.121,22.121,0,0,1-4.526-.21Z" transform="translate(-280.017 -234.068)" fill="#263238"/>
      <path id="Trazado_111717" data-name="Trazado 111717" d="M337.338,312.864a11.829,11.829,0,0,1-.439-1.765c-.256-1.161-.613-2.853-1.033-4.928l-.046-.229h.238l9.455-.082c-.055,0,.448.375.238.2h0v.439l.082.448c.055.3.119.594.174.914.11.585.21,1.161.32,1.728.21,1.125.4,2.2.594,3.228l.046.256h-.256c-2.844,0-5.23-.046-6.894-.073l-1.911-.055a2.679,2.679,0,0,1-.649-.055,4.122,4.122,0,0,1,.732-.055l1.957-.064c1.673-.046,4-.1,6.766-.128l-.21.256-.549-3.255c-.11-.558-.219-1.134-.329-1.719-.055-.293-.119-.594-.174-.914l-.082-.448-.046-.229v-.2h0c-.21-.174.283.238.229.2h-9.491l.192-.229c.357,2,.631,3.658.823,4.864S337.356,312.837,337.338,312.864Z" transform="translate(-279.074 -233.887)" fill="#263238"/>
      <path id="Trazado_111718" data-name="Trazado 111718" d="M354.45,319.574a.379.379,0,1,0,.375-.384.375.375,0,0,0-.375.384Z" transform="translate(-280.669 -235.028)" fill="#263238"/>
      <path id="Trazado_111719" data-name="Trazado 111719" d="M347.35,319.613a12.324,12.324,0,0,1,3.438-.256,12.116,12.116,0,0,1,3.429.229,12.5,12.5,0,0,1-3.429.247,12.8,12.8,0,0,1-3.438-.219Z" transform="translate(-280.061 -235.039)" fill="#263238"/>
      <path id="Trazado_111720" data-name="Trazado 111720" d="M337.37,322.41a8.412,8.412,0,0,1-.411-1.262c-.247-.841-.6-2.085-1.033-3.657l-.055-.219h.229c2.579-.046,6.007-.082,9.756-.091l.229.174h0v.32l.082.329.165.64c.11.43.219.85.32,1.262.21.823.411,1.628.6,2.4l.073.274h-.283c-2.889,0-5.358,0-7.077-.073l-1.993-.055a3.163,3.163,0,0,1-.686-.055,5.32,5.32,0,0,1,.768-.064l2.039-.064c1.728-.055,4.133-.1,6.949-.128l-.219.274c-.2-.768-.411-1.564-.622-2.387l-.329-1.262-.165-.649-.082-.32-.046-.165v-.146h0c-.055,0,.439.338.229.183h-9.747l.165-.229c.366,1.5.64,2.743.832,3.593a9.1,9.1,0,0,1,.311,1.381Z" transform="translate(-279.078 -234.856)" fill="#263238"/>
      <path id="Trazado_111721" data-name="Trazado 111721" d="M338.3,308.384a11.484,11.484,0,0,1,3.228-.247,10.79,10.79,0,0,1,3.237.229,11.529,11.529,0,0,1-3.237.247,10.754,10.754,0,0,1-3.228-.229Z" transform="translate(-279.286 -234.079)" fill="#263238"/>
      <path id="Trazado_111722" data-name="Trazado 111722" d="M338.38,309.544a11.715,11.715,0,0,1,3.255-.247,11.494,11.494,0,0,1,3.255.219,21.944,21.944,0,0,1-6.51,0Z" transform="translate(-279.293 -234.178)" fill="#263238"/>
      <path id="Trazado_111723" data-name="Trazado 111723" d="M338.59,310.663a10.369,10.369,0,0,1,3.145-.256,10.909,10.909,0,0,1,3.136.229,10.277,10.277,0,0,1-3.136.256,10.973,10.973,0,0,1-3.145-.229Z" transform="translate(-279.311 -234.274)" fill="#263238"/>
      <path id="Trazado_111724" data-name="Trazado 111724" d="M338.51,319.514a10.4,10.4,0,0,1,3.081-.247,9.82,9.82,0,0,1,3.081.229,10.5,10.5,0,0,1-3.081.247,9.821,9.821,0,0,1-3.081-.229Z" transform="translate(-279.304 -235.032)" fill="#263238"/>
      <path id="Trazado_111725" data-name="Trazado 111725" d="M338.92,320.8a14.7,14.7,0,0,1,5.267,0A14.7,14.7,0,0,1,338.92,320.8Z" transform="translate(-279.34 -235.146)" fill="#263238"/>
      <path id="Trazado_111726" data-name="Trazado 111726" d="M273.76,336.29v5.02h3.292V443H283.8V341.31h35.816V443h6.748V341.31H481.743V442.97H488.5V341.31h2.917v-5.02Z" transform="translate(-273.76 -236.492)" fill="#263238"/>
      <path id="Trazado_111727" data-name="Trazado 111727" d="M433.8,377.7a50.291,50.291,0,0,0,8.778,0,52.765,52.765,0,0,0-8.778,0Z" transform="translate(-287.464 -240.023)" fill="#263238"/>
      <ellipse id="Elipse_4375" data-name="Elipse 4375" cx="0.238" cy="0.119" rx="0.238" ry="0.119" transform="translate(82.175 138.485)" fill="#455a64"/>
      <path id="Trazado_111728" data-name="Trazado 111728" d="M407.334,276.236l-25.2-25.6-.549-2.743c-.1-.5-.21-1.07-.311-1.719a6.876,6.876,0,0,1,.046-2.249,10.059,10.059,0,0,1,.777-2.688c.421-.741-.256-1.637-.96-1.326s-1.92,2.313-2.185,5.084-2.624-.914-3.5-2.231-3.8-5.276-4.416-5.322c-.914-.073-1.116.914-.21,2.194s3.383,5.395,2.688,5.825h0a3.292,3.292,0,0,0-3.484,1.728c-.64,1.216-1.344,2.953-.768,3.749a45.445,45.445,0,0,0,4.023,4.261l.841.722s21.808,31.6,26.563,32.634c2.953.631,48.654,4.426,48.654,4.426l3.447-12.591Z" transform="translate(-281.919 -228.028)" fill="#b78876"/>
      <path id="Trazado_111729" data-name="Trazado 111729" d="M369,251.416l2.332,2.24a2.88,2.88,0,0,0,.914.649.969.969,0,0,0,1.024-.165.987.987,0,0,0,.137-.914,2.744,2.744,0,0,0-.539-.823L370.6,249.66" transform="translate(-281.915 -229.074)" fill="#b78876"/>
      <path id="Trazado_111730" data-name="Trazado 111730" d="M370.6,249.65c.055-.046.485.384,1.152,1.125.375.421.759.85,1.152,1.308a4.214,4.214,0,0,1,.649.869,1.243,1.243,0,0,1-.064,1.289,1.143,1.143,0,0,1-1.28.293,2.587,2.587,0,0,1-.914-.64l-1.216-1.244c-.686-.713-1.088-1.18-1.042-1.234a5.54,5.54,0,0,1,1.271,1l1.289,1.161a2.2,2.2,0,0,0,.768.521.7.7,0,0,0,.75-.146.8.8,0,0,0,0-.8,4.484,4.484,0,0,0-.558-.8c-.375-.466-.731-.914-1.079-1.372a5.3,5.3,0,0,1-.878-1.335Z" transform="translate(-281.918 -229.073)" fill="#aa6550"/>
      <path id="Trazado_111731" data-name="Trazado 111731" d="M370.85,249.634l2.332,2.24a2.743,2.743,0,0,0,.914.64.914.914,0,0,0,1.024-.165.969.969,0,0,0,.137-.914,2.888,2.888,0,0,0-.539-.832l-2.268-2.743" transform="translate(-282.074 -228.92)" fill="#b78876"/>
      <path id="Trazado_111732" data-name="Trazado 111732" d="M372.414,247.86a7.155,7.155,0,0,1,1.152,1.134l1.152,1.3a4.216,4.216,0,0,1,.649.869,1.262,1.262,0,0,1-.064,1.3,1.143,1.143,0,0,1-1.28.293,2.589,2.589,0,0,1-.914-.64l-1.207-1.244a5.65,5.65,0,0,1-1.042-1.234,5.633,5.633,0,0,1,1.271.988l1.289,1.17a2.2,2.2,0,0,0,.768.521.7.7,0,0,0,.75-.146.814.814,0,0,0,0-.8,4.059,4.059,0,0,0-.567-.786L373.3,249.2A5.077,5.077,0,0,1,372.414,247.86Z" transform="translate(-282.075 -228.92)" fill="#aa6550"/>
      <path id="Trazado_111733" data-name="Trazado 111733" d="M372.84,248.172l2.332,2.24a2.532,2.532,0,0,0,.914.64.832.832,0,0,0,1.152-1.1,2.743,2.743,0,0,0-.539-.832c-.75-.914-1.509-1.829-2.258-2.743" transform="translate(-282.244 -228.794)" fill="#b78876"/>
      <path id="Trazado_111734" data-name="Trazado 111734" d="M374.406,246.4a5.961,5.961,0,0,1,1.152,1.125l1.152,1.308a4.2,4.2,0,0,1,.64.869,1.216,1.216,0,0,1-.064,1.3,1.125,1.125,0,0,1-1.271.293,2.588,2.588,0,0,1-.914-.64l-1.2-1.244a5.414,5.414,0,0,1-1.033-1.234,5.486,5.486,0,0,1,1.271.988l1.289,1.17a2.259,2.259,0,0,0,.759.521.7.7,0,0,0,.75-.146.768.768,0,0,0,0-.8,4.429,4.429,0,0,0-.558-.786l-1.07-1.372a5.075,5.075,0,0,1-.905-1.344Z" transform="translate(-282.247 -228.795)" fill="#aa6550"/>
      <path id="Trazado_111735" data-name="Trazado 111735" d="M376.87,252.224c0-.082.576-.192,1.417.064l-.265.229a3.986,3.986,0,0,1-.064-1.6,4.069,4.069,0,0,1,.914-1.948c.357-.421.658-.585.695-.539a8.276,8.276,0,0,0-1.1,2.56,4.821,4.821,0,0,0,0,1.445l.046.366-.311-.137C377.419,252.352,376.861,252.315,376.87,252.224Z" transform="translate(-282.589 -228.968)" fill="#aa6550"/>
      <path id="Trazado_111736" data-name="Trazado 111736" d="M444.862,237.476l.11,35.084-13.716.649-.549-8.4s-6.6,1-7.982-3.968c-.914-3.173-.658-27.678-.658-27.678Z" transform="translate(-286.457 -227.662)" fill="#b78876"/>
      <path id="Trazado_111737" data-name="Trazado 111737" d="M418.365,236.1c1.015,2.1,5.843,5.934,5.843,5.934l2.185,5.843c1.893-1.481,4.435-1.4,4.919,1.929.347,2.414-2.643,2.9-2.643,2.9,1.737,2.963,2.917,5.358,5.486,8.174,2.743,3.054,4.279,3.356,7.26,3.411H444.7s6.711-5.614,5.386-20.39-14.648-10.488-17.821-14.145C427.125,223.73,414.982,229.106,418.365,236.1Z" transform="translate(-286.092 -227.147)" fill="#263238"/>
      <path id="Trazado_111738" data-name="Trazado 111738" d="M449.365,256.8a4.672,4.672,0,0,1-1.618-.073,8.412,8.412,0,0,1-3.923-2.012,21.378,21.378,0,0,1-3.959-5.239c-1.28-2.094-2.679-4.526-5.029-6.154s-5.175-1.911-7.58-2.4a14.356,14.356,0,0,1-6.117-2.332,6.556,6.556,0,0,1-2.45-3.658,3.658,3.658,0,0,1-.064-1.618,5.047,5.047,0,0,0,.137,1.6,6.547,6.547,0,0,0,2.46,3.548,14.383,14.383,0,0,0,6.071,2.258c2.4.485,5.212.8,7.653,2.423s3.795,4.124,5.066,6.218a21.69,21.69,0,0,0,3.9,5.23,8.531,8.531,0,0,0,3.84,2.039,6.605,6.605,0,0,0,1.189.146Z" transform="translate(-286.159 -227.674)" fill="#455a64"/>
      <path id="Trazado_111739" data-name="Trazado 111739" d="M450.156,244.584l-.7-.219a11.826,11.826,0,0,0-2.066-.457,4.572,4.572,0,0,0-3.164.713,2.6,2.6,0,0,0-1.106,1.664,2.322,2.322,0,0,0,.64,2.094,1.829,1.829,0,0,0,1.106.439,2.249,2.249,0,0,0,1.216-.338,3.722,3.722,0,0,0,1.655-2.112,5.221,5.221,0,0,0-4.416-6.858,9.254,9.254,0,0,0-3.392.439,24.119,24.119,0,0,1-3.52.85,14.155,14.155,0,0,1-3.731,0,12.4,12.4,0,0,1-3.6-1,4.334,4.334,0,0,1-2.46-2.6,3.411,3.411,0,0,1,.832-3.319,2.926,2.926,0,0,1,3.219-.466,2.432,2.432,0,0,1,1.189,1.116,2.744,2.744,0,0,1,.256,1.573,3.594,3.594,0,0,1-1.6,2.505,5.167,5.167,0,0,1-2.743.759,8.029,8.029,0,0,1-2.56-.393,9.254,9.254,0,0,1-3.767-2.323,9.537,9.537,0,0,1-1.92-2.743,10,10,0,0,1-.686-2.012c-.082-.475-.11-.732-.11-.732s.055.247.146.722a10.551,10.551,0,0,0,.713,1.984,9.382,9.382,0,0,0,1.929,2.743,9.025,9.025,0,0,0,3.731,2.268,7.809,7.809,0,0,0,2.524.384,5.038,5.038,0,0,0,2.615-.741,3.411,3.411,0,0,0,1.518-2.4,2.35,2.35,0,0,0-1.344-2.514,2.743,2.743,0,0,0-3.017.448,3.219,3.219,0,0,0-.786,3.127,4.188,4.188,0,0,0,2.368,2.478,11.96,11.96,0,0,0,3.575.942,13.808,13.808,0,0,0,3.657,0,23.411,23.411,0,0,0,3.493-.832,9.244,9.244,0,0,1,3.475-.448,5.4,5.4,0,0,1,4.572,7.1,3.9,3.9,0,0,1-1.737,2.185,2.4,2.4,0,0,1-1.289.347,1.893,1.893,0,0,1-1.2-.475,2.469,2.469,0,0,1-.667-2.213,2.743,2.743,0,0,1,1.161-1.737,4.718,4.718,0,0,1,3.237-.695,10.222,10.222,0,0,1,2.066.494C449.918,244.483,450.156,244.584,450.156,244.584Z" transform="translate(-286.173 -227.491)" fill="#455a64"/>
      <path id="Trazado_111740" data-name="Trazado 111740" d="M433.58,442.293l-4.462-5.733,10.689-8.44,6.629,8.321-.631.567c-2.816,2.487-14.52,12.481-16.962,13.441C426.119,451.519,433.58,442.293,433.58,442.293Z" transform="translate(-286.988 -244.356)" fill="#6595bf"/>
      <g id="Grupo_60000" data-name="Grupo 60000" transform="translate(141.261 191.866)" opacity="0.4">
        <path id="Trazado_111741" data-name="Trazado 111741" d="M430.06,447.715s-2.46,3.438-1.646,3.658,13.012-9.436,18.022-14.164l-.21-.229L432.09,448.355S430.7,447.248,430.06,447.715Z" transform="translate(-428.25 -436.98)" fill="#fff"/>
      </g>
      <path id="Trazado_111742" data-name="Trazado 111742" d="M446.393,436.82a1.049,1.049,0,0,1-.165.165l-.5.448-1.874,1.618c-1.6,1.353-3.822,3.2-6.327,5.185s-4.81,3.731-6.492,4.965l-2.012,1.463-.549.384-.2.119.183-.146.53-.411,1.975-1.5c1.664-1.262,3.959-3.017,6.465-5s4.736-3.813,6.346-5.148l1.911-1.573.521-.43Z" transform="translate(-286.991 -245.101)" fill="#263238"/>
      <path id="Trazado_111743" data-name="Trazado 111743" d="M432.381,449.5a5.584,5.584,0,0,0-1.1-.64,5.328,5.328,0,0,0-1.244-.219,2.2,2.2,0,0,1,2.341.859Z" transform="translate(-287.142 -246.105)" fill="#263238"/>
      <path id="Trazado_111744" data-name="Trazado 111744" d="M434.551,445.067c0,.046-.311,0-.668-.137s-.622-.256-.6-.3.311,0,.658.146a1.563,1.563,0,0,1,.613.293Z" transform="translate(-287.419 -245.768)" fill="#263238"/>
      <path id="Trazado_111745" data-name="Trazado 111745" d="M435.113,443.849c0,.046-.265.073-.576.055s-.567-.073-.567-.119.256-.073.576-.046a1.243,1.243,0,0,1,.567.11Z" transform="translate(-287.479 -245.692)" fill="#263238"/>
      <path id="Trazado_111746" data-name="Trazado 111746" d="M434.836,442.29a2.934,2.934,0,0,1-.5.512c-.311.247-.576.421-.6.384s.2-.265.5-.512S434.809,442.253,434.836,442.29Z" transform="translate(-287.458 -245.569)" fill="#263238"/>
      <path id="Trazado_111747" data-name="Trazado 111747" d="M434.419,441.35a2.03,2.03,0,0,1-1.189,1.1,5.932,5.932,0,0,1,.6-.549C434.163,441.6,434.382,441.322,434.419,441.35Z" transform="translate(-287.415 -245.488)" fill="#263238"/>
      <path id="Trazado_111748" data-name="Trazado 111748" d="M433.22,444.388a2.368,2.368,0,0,1-.686.539,5.419,5.419,0,0,1-.859.411,2.352,2.352,0,0,1-.558.165.531.531,0,0,1-.338-.082.338.338,0,0,1-.11-.357,1.6,1.6,0,0,1,1.829-.86,1.519,1.519,0,0,1,.585.274c.119.1.174.165.165.174a2.3,2.3,0,0,0-.777-.338,1.536,1.536,0,0,0-.914.082,1.372,1.372,0,0,0-.777.7.222.222,0,0,0,.283.238,3.546,3.546,0,0,0,.512-.137,7.986,7.986,0,0,0,.859-.375C432.946,444.571,433.2,444.361,433.22,444.388Z" transform="translate(-287.195 -245.729)" fill="#263238"/>
      <path id="Trazado_111749" data-name="Trazado 111749" d="M433.237,444.422a.987.987,0,0,1-.457-.411,1.471,1.471,0,0,1-.21-.658.914.914,0,0,1,.293-.8.347.347,0,0,1,.466.146.989.989,0,0,1,.128.4,2.746,2.746,0,0,1,0,.668,1.271,1.271,0,0,1-.174.594,4.507,4.507,0,0,1,.055-.6,2.651,2.651,0,0,0,0-.64c0-.219-.165-.53-.357-.421a.768.768,0,0,0-.219.649,1.418,1.418,0,0,0,.155.594,3.278,3.278,0,0,0,.32.475Z" transform="translate(-287.358 -245.589)" fill="#263238"/>
      <path id="Trazado_111750" data-name="Trazado 111750" d="M445.115,433.81a4.86,4.86,0,0,0-.759.649,4.3,4.3,0,0,0-1.042,4.444,9.8,9.8,0,0,0,.4.914c-.027,0-.073-.064-.174-.21a4.392,4.392,0,0,1-.338-.668,4.3,4.3,0,0,1-.174-2.45,4.133,4.133,0,0,1,1.244-2.121,3.573,3.573,0,0,1,.594-.448.812.812,0,0,1,.247-.11Z" transform="translate(-288.246 -244.843)" fill="#263238"/>
      <path id="Trazado_111751" data-name="Trazado 111751" d="M440.27,429.9a25.028,25.028,0,0,1,1.829,2.121c.969,1.207,1.728,2.2,1.7,2.231a23.219,23.219,0,0,1-1.829-2.121,21.143,21.143,0,0,1-1.7-2.231Z" transform="translate(-288.018 -244.508)" fill="#263238"/>
      <path id="Trazado_111752" data-name="Trazado 111752" d="M441.161,440.5a7.315,7.315,0,0,1-1.436,1.39A7.8,7.8,0,0,1,438.07,443s.7-.549,1.554-1.244S441.133,440.463,441.161,440.5Z" transform="translate(-287.83 -245.416)" fill="#263238"/>
      <path id="Trazado_111753" data-name="Trazado 111753" d="M443.733,438.68c.046,0,.064.192.119.411s.128.393.091.421-.192-.128-.256-.384S443.7,438.671,443.733,438.68Z" transform="translate(-288.309 -245.26)" fill="#263238"/>
      <path id="Trazado_111754" data-name="Trazado 111754" d="M443.744,436.93c.046,0,.064.165,0,.366s-.073.357-.119.357-.064-.174-.046-.375S443.7,436.921,443.744,436.93Z" transform="translate(-288.301 -245.11)" fill="#263238"/>
      <path id="Trazado_111755" data-name="Trazado 111755" d="M444.555,435.459s-.119.155-.229.329-.165.357-.21.347-.073-.219.064-.439S444.546,435.413,444.555,435.459Z" transform="translate(-288.344 -244.983)" fill="#263238"/>
      <path id="Trazado_111756" data-name="Trazado 111756" d="M445.281,434.53v.229a.186.186,0,0,1-.183.155c-.037-.018,0-.128,0-.238A.169.169,0,0,1,445.281,434.53Z" transform="translate(-288.43 -244.904)" fill="#263238"/>
      <g id="Grupo_60001" data-name="Grupo 60001" transform="translate(144.818 187.952)" opacity="0.3">
        <path id="Trazado_111757" data-name="Trazado 111757" d="M443.954,433.441l-10.817,8.266-1-1.308,11.366-7.7Z" transform="translate(-432.14 -432.7)"/>
      </g>
      <path id="Trazado_111758" data-name="Trazado 111758" d="M379.457,449.234v-7.269l13.624-.055.082,10.643-.85.055c-3.758.229-19.12.869-21.634.119C367.891,451.886,379.457,449.234,379.457,449.234Z" transform="translate(-282.022 -245.537)" fill="#6595bf"/>
      <g id="Grupo_60002" data-name="Grupo 60002" transform="translate(88.192 205.197)" opacity="0.4">
        <path id="Trazado_111759" data-name="Trazado 111759" d="M373.8,451.56s-4.06,1.18-3.548,1.829,16.066.6,22.923,0v-.3l-18.141.229S374.59,451.587,373.8,451.56Z" transform="translate(-370.211 -451.56)" fill="#fff"/>
      </g>
      <path id="Trazado_111760" data-name="Trazado 111760" d="M393.374,453.207h-.914l-2.469.119c-2.094.082-4.983.165-8.174.183s-6.09,0-8.184-.1l-2.469-.091h2.478c2.085,0,4.983.064,8.174.055s6.081-.082,8.165-.137l2.478-.064h.914Z" transform="translate(-282.022 -246.501)" fill="#263238"/>
      <path id="Trazado_111761" data-name="Trazado 111761" d="M375.347,453.5a5.685,5.685,0,0,0-.475-1.18,5.266,5.266,0,0,0-.841-.914,2.21,2.21,0,0,1,1.317,2.094Z" transform="translate(-282.346 -246.35)" fill="#263238"/>
      <path id="Trazado_111762" data-name="Trazado 111762" d="M379.782,451.345a2.989,2.989,0,0,1-.43-.521c-.2-.311-.329-.585-.293-.6s.229.2.43.521S379.818,451.326,379.782,451.345Z" transform="translate(-282.776 -246.248)" fill="#263238"/>
      <path id="Trazado_111763" data-name="Trazado 111763" d="M380.979,450.738a2.122,2.122,0,0,1-.485-.32c-.238-.21-.4-.4-.375-.439s.247.11.485.32S381.007,450.7,380.979,450.738Z" transform="translate(-282.867 -246.227)" fill="#263238"/>
      <path id="Trazado_111764" data-name="Trazado 111764" d="M381.677,449.392a1.49,1.49,0,0,1-.7.091,1.537,1.537,0,0,1-.713-.073,1.638,1.638,0,0,1,.7-.091,1.7,1.7,0,0,1,.713.073Z" transform="translate(-282.879 -246.17)" fill="#263238"/>
      <path id="Trazado_111765" data-name="Trazado 111765" d="M381.919,448.41a1.435,1.435,0,0,1-.8.229,1.372,1.372,0,0,1-.814-.1,4.24,4.24,0,0,1,.8-.064,4.645,4.645,0,0,1,.8-.064Z" transform="translate(-282.884 -246.093)" fill="#263238"/>
      <path id="Trazado_111766" data-name="Trazado 111766" d="M379.1,450.047a2.633,2.633,0,0,1-.914,0,4.79,4.79,0,0,1-.914-.2,2.45,2.45,0,0,1-.53-.21.512.512,0,0,1-.219-.274.338.338,0,0,1,.137-.347,1.6,1.6,0,0,1,1.984.457,1.527,1.527,0,0,1,.283.585.521.521,0,0,1,0,.238,2.451,2.451,0,0,0-.4-.75,1.618,1.618,0,0,0-.75-.485,1.335,1.335,0,0,0-1.042.082c-.137.1-.082.265.073.357a2.149,2.149,0,0,0,.494.2,5.483,5.483,0,0,0,.914.238C378.787,450.02,379.1,450.02,379.1,450.047Z" transform="translate(-282.559 -246.13)" fill="#263238"/>
      <path id="Trazado_111767" data-name="Trazado 111767" d="M379.079,450.042a.915.915,0,0,1-.1-.6,1.417,1.417,0,0,1,.238-.64.914.914,0,0,1,.722-.448.338.338,0,0,1,.274.4,1.006,1.006,0,0,1-.146.393,2.607,2.607,0,0,1-.411.53c-.274.265-.485.375-.5.357s.174-.155.421-.439a3.212,3.212,0,0,0,.366-.521c.119-.192.192-.521,0-.558s-.439.192-.567.366a1.407,1.407,0,0,0-.247.576,5.547,5.547,0,0,0-.046.585Z" transform="translate(-282.769 -246.088)" fill="#263238"/>
      <path id="Trazado_111768" data-name="Trazado 111768" d="M394.758,449.116h-1.006a4.463,4.463,0,0,0-2.185.914,4.324,4.324,0,0,0-1.362,1.948,9.411,9.411,0,0,0-.256.978.714.714,0,0,1,0-.274,3.231,3.231,0,0,1,.137-.741,4.344,4.344,0,0,1,1.372-2.039,4.178,4.178,0,0,1,2.286-.914,3.152,3.152,0,0,1,.75,0A.659.659,0,0,1,394.758,449.116Z" transform="translate(-283.708 -246.141)" fill="#263238"/>
      <path id="Trazado_111769" data-name="Trazado 111769" d="M393.637,442.94a23.135,23.135,0,0,1,.137,2.8,25.713,25.713,0,0,1,0,2.8,22.146,22.146,0,0,1-.128-2.8,24.521,24.521,0,0,1-.009-2.8Z" transform="translate(-284.022 -245.625)" fill="#263238"/>
      <path id="Trazado_111770" data-name="Trazado 111770" d="M387.628,452a7.872,7.872,0,0,1-1.984.2,8.177,8.177,0,0,1-1.993-.146c0-.046.914,0,1.993,0S387.628,452,387.628,452Z" transform="translate(-283.17 -246.401)" fill="#263238"/>
      <path id="Trazado_111771" data-name="Trazado 111771" d="M390.964,452s-.064.192-.155.393-.146.384-.192.384-.064-.219,0-.448A.467.467,0,0,1,390.964,452Z" transform="translate(-283.763 -246.401)" fill="#263238"/>
      <path id="Trazado_111772" data-name="Trazado 111772" d="M392.011,450.619a.859.859,0,0,1-.192.311c-.137.137-.283.238-.32.21s.055-.183.2-.32S391.956,450.583,392.011,450.619Z" transform="translate(-283.841 -246.282)" fill="#263238"/>
      <path id="Trazado_111773" data-name="Trazado 111773" d="M393.557,449.993a.853.853,0,0,0-.393.119c-.2.119-.338.183-.375.146s.073-.219.329-.3S393.576,449.938,393.557,449.993Z" transform="translate(-283.952 -246.222)" fill="#263238"/>
      <path id="Trazado_111774" data-name="Trazado 111774" d="M394.711,449.678c0,.046-.064.119-.174.165s-.219.046-.238,0,.064-.11.174-.155S394.693,449.641,394.711,449.678Z" transform="translate(-284.082 -246.199)" fill="#263238"/>
      <g id="Grupo_60003" data-name="Grupo 60003" transform="translate(97.426 200.717)" opacity="0.3">
        <path id="Trazado_111775" data-name="Trazado 111775" d="M394.044,448.37l-13.734.018.009-1.646,13.67-.082Z" transform="translate(-380.31 -446.66)"/>
      </g>
      <path id="Trazado_111776" data-name="Trazado 111776" d="M412.8,312.079l-5.486,16.459c-1.472,4.435-5.349,5.194-10.058,5.194H367v-6.8l27.724-3.959,6.6-16.879Z" transform="translate(-281.744 -233.906)" fill="#b78876"/>
      <path id="Trazado_111777" data-name="Trazado 111777" d="M361.91,326.732l-2.4-1.134s-2.6-5.02-3.191-4.819-.777,1.673.265,3.987l-3.191-.914s-6.94,3.2-6.629,3.658a1.6,1.6,0,0,0,2.387.686c1.509-.777,3.484-1.682,3.484-1.682l3.74,1.07-4.819.613-4.572,4.124a2.222,2.222,0,0,0,2.743-.073l11.887,2.505,3.657.2v-6.8Z" transform="translate(-280.01 -235.164)" fill="#b78876"/>
      <path id="Trazado_111778" data-name="Trazado 111778" d="M350.07,333.066a7.785,7.785,0,0,0,.695-.777,3.32,3.32,0,0,1,.86-.658,3.593,3.593,0,0,1,1.271-.338,16.659,16.659,0,0,0,3.529-.6,17.924,17.924,0,0,0-3.575.238,3.557,3.557,0,0,0-1.4.411,2.98,2.98,0,0,0-.914.786,2.268,2.268,0,0,0-.466.942Z" transform="translate(-280.294 -236.012)" fill="#aa6550"/>
      <path id="Trazado_111779" data-name="Trazado 111779" d="M352.085,333.722c.046,0,.082-.247.411-.32s.869-.119,1.426-.174a12.591,12.591,0,0,0,2.066-.21,4.142,4.142,0,0,0-2.1-.165,6.345,6.345,0,0,0-1.481.311.594.594,0,0,0-.357.366C352,333.658,352.057,333.722,352.085,333.722Z" transform="translate(-280.462 -236.192)" fill="#aa6550"/>
      <path id="Trazado_111780" data-name="Trazado 111780" d="M418.294,305.6l-2.332,7.909L401.15,306.77c.539-1.655,2.99-9.025,7.672-20.72a20.116,20.116,0,0,1,15.352-12.381,87.9,87.9,0,0,1,14.182-1.39c8.312.091,20.537,5.285,22.173,13.423,1.262,6.218.046,17.19.046,30.522l-1.042,25.5-42.564,1.436Z" transform="translate(-284.668 -231.011)" fill="#6595bf"/>
      <g id="Grupo_60004" data-name="Grupo 60004" transform="translate(144.315 78.87)" opacity="0.3">
        <path id="Trazado_111781" data-name="Trazado 111781" d="M463.136,313.876c-5.175,1.061-10.5,0-15.773-.32-3.2-.192-6.748-.539-9.281,1.426-2,1.564-2.807,4.188-3.392,6.657-2.2,9.436-2.606,15.755-3.1,25.429l25.6,1.554Z" transform="translate(-431.59 -313.403)"/>
      </g>
      <path id="Trazado_111782" data-name="Trazado 111782" d="M418.71,278.489a5.608,5.608,0,0,1,3.584,2.323,8.229,8.229,0,0,1,1.463,4.435,27.431,27.431,0,0,1-.448,5.834,98.822,98.822,0,0,1-2.377,10.433c-.348,1.28-.64,2.332-.86,3.136a6.737,6.737,0,0,0-.274,1.161,6.463,6.463,0,0,0,.412-1.125c.238-.732.576-1.783.969-3.1a79.552,79.552,0,0,0,2.5-10.451,26.745,26.745,0,0,0,.421-5.916,8.412,8.412,0,0,0-1.591-4.572,5.852,5.852,0,0,0-2.615-1.966,5,5,0,0,0-.869-.2C418.82,278.48,418.71,278.471,418.71,278.489Z" transform="translate(-286.172 -231.542)" fill="#263238"/>
      <path id="Trazado_111783" data-name="Trazado 111783" d="M401.66,307.83a14.868,14.868,0,0,0,2.085,1.2c1.317.686,3.155,1.591,5.221,2.524s3.968,1.71,5.358,2.24a12.8,12.8,0,0,0,2.277.768,17.43,17.43,0,0,0-2.185-1.006c-1.353-.594-3.237-1.408-5.294-2.341s-3.913-1.829-5.258-2.423a16.091,16.091,0,0,0-2.2-.96Z" transform="translate(-284.712 -234.055)" fill="#263238"/>
      <path id="Trazado_111784" data-name="Trazado 111784" d="M393.5,351.92a15.169,15.169,0,0,0-6.19,20.317l37.059,63.6,17.09-10.323L412.692,368.1l20.82-13.615" transform="translate(-283.336 -237.831)" fill="#263238"/>
      <path id="Trazado_111785" data-name="Trazado 111785" d="M437.437,348.47,386.58,350.3a15.169,15.169,0,0,0-14.63,15.4l2.112,72.628h21.387l-.713-68.669,42.7-1.125Z" transform="translate(-282.168 -237.535)" fill="#263238"/>
      <path id="Trazado_111786" data-name="Trazado 111786" d="M396.87,374.27a3.53,3.53,0,0,1,.064.677q0,.732.082,1.92c.064,1.673.128,4.1.192,7.1.128,5.989.21,14.264.256,23.4s.091,17.373.119,23.4c0,2.963,0,5.367.046,7.1v1.929a3.575,3.575,0,0,1,0,.677,3.659,3.659,0,0,1-.064-.677c0-.485-.046-1.125-.082-1.929-.064-1.673-.128-4.1-.192-7.086-.128-5.989-.21-14.264-.256-23.408s-.091-17.373-.119-23.4v-9.025A3.485,3.485,0,0,1,396.87,374.27Z" transform="translate(-284.302 -239.745)" fill="#455a64"/>
      <path id="Trazado_111787" data-name="Trazado 111787" d="M461.568,298.07H446.179a11.21,11.21,0,0,0-11.21,11.21v53.646h-30.7a7.763,7.763,0,0,0-7.763,7.763h70.178a6.4,6.4,0,0,0,6.135-6.4V309.28a11.21,11.21,0,0,0-11.256-11.21Z" transform="translate(-284.271 -233.22)" fill="#455a64"/>
      <path id="Trazado_111788" data-name="Trazado 111788" d="M443.438,300c.128,0,.238,15.773.238,35.231s-.11,35.231-.238,35.231-.238-15.773-.238-35.231S443.31,300,443.438,300Z" transform="translate(-288.269 -233.385)" fill="#263238"/>
      <path id="Trazado_111789" data-name="Trazado 111789" d="M439.085,433.867V377.56h-5v56.307c-3.054,6.017-10.232,10.058-18.973,13.423h44.585C450.67,443.614,442.441,440.789,439.085,433.867Z" transform="translate(-285.864 -240.026)" fill="#455a64"/>
    </g>
    <g id="freepik--Plant--inject-4" transform="translate(101.962 264.727)">
      <path id="Trazado_111790" data-name="Trazado 111790" d="M132.016,418.651l.146-.329.448-.96a25.266,25.266,0,0,0,1.317-3.822,33.777,33.777,0,0,0-.119-14.767,79.965,79.965,0,0,0-2.743-9.921c-1.161-3.52-2.505-7.251-3.657-11.292a43.744,43.744,0,0,1-1.774-12.984c.165-4.572,1.527-9.144,3.017-13.716s3.036-9.034,3.5-13.533a20.61,20.61,0,0,0-2.487-12.5c-1.975-3.658-4.462-6.766-6.327-9.994a34.747,34.747,0,0,1-3.813-9.61,35.89,35.89,0,0,1-.238-14.886,27.432,27.432,0,0,1,1.554-5.258,2.569,2.569,0,0,1-.091.347c-.082.247-.183.576-.32,1.006a39.472,39.472,0,0,0-.914,3.932,36.172,36.172,0,0,0,.366,14.758,34.49,34.49,0,0,0,3.822,9.491c1.829,3.191,4.362,6.3,6.4,9.994a20.975,20.975,0,0,1,2.56,12.746c-.466,4.572-2.021,9.071-3.511,13.633s-2.835,9.144-3.008,13.615a43.734,43.734,0,0,0,1.737,12.856c1.088,4.014,2.414,7.754,3.566,11.283a77.66,77.66,0,0,1,2.688,9.976,33.411,33.411,0,0,1,0,14.877,22.218,22.218,0,0,1-1.454,3.813c-.21.393-.366.7-.494.914a1.335,1.335,0,0,1-.174.329Z" transform="translate(-109.019 -285.08)" fill="#263238"/>
      <path id="Trazado_111791" data-name="Trazado 111791" d="M126.511,319.259s-3.785-12.1,3-19.2a.421.421,0,0,1,.722.21C130.59,302.279,131.047,308.369,126.511,319.259Z" transform="translate(-109.604 -286.351)" fill="#6595bf"/>
      <path id="Trazado_111792" data-name="Trazado 111792" d="M128.86,304.5a11.247,11.247,0,0,1-.256,2.231c-.256,1.536-.549,3.347-.914,5.34s-.6,3.8-.841,5.34a12.892,12.892,0,0,1-.4,2.2,9.281,9.281,0,0,1,.064-2.249c.128-1.381.366-3.283.713-5.367s.7-3.968,1.006-5.331A9.3,9.3,0,0,1,128.86,304.5Z" transform="translate(-109.685 -286.743)" fill="#263238"/>
      <path id="Trazado_111793" data-name="Trazado 111793" d="M131.47,350.832s2.313-12.463,11.631-15.544a.411.411,0,0,1,.53.521C143.019,337.766,140.577,343.325,131.47,350.832Z" transform="translate(-110.119 -289.377)" fill="#6595bf"/>
      <path id="Trazado_111794" data-name="Trazado 111794" d="M140.552,338.8a10.863,10.863,0,0,1-1.271,1.829l-3.255,4.316-3.246,4.316a11.423,11.423,0,0,1-1.39,1.765,9.445,9.445,0,0,1,1.116-1.957c.759-1.161,1.829-2.743,3.136-4.416s2.487-3.173,3.374-4.234a9.554,9.554,0,0,1,1.536-1.618Z" transform="translate(-110.112 -289.68)" fill="#263238"/>
      <path id="Trazado_111795" data-name="Trazado 111795" d="M128.7,384.77s-1.4-12.6,6.611-18.287a.421.421,0,0,1,.667.347C135.952,368.887,135.239,374.95,128.7,384.77Z" transform="translate(-109.874 -292.044)" fill="#6595bf"/>
      <path id="Trazado_111796" data-name="Trazado 111796" d="M133.828,370.7a11.073,11.073,0,0,1-.677,2.14l-1.829,5.075c-.695,1.9-1.317,3.658-1.829,5.084a12.681,12.681,0,0,1-.814,2.085,9.144,9.144,0,0,1,.494-2.195c.384-1.335.988-3.155,1.719-5.139s1.454-3.758,2-5.029a9.592,9.592,0,0,1,.933-2.021Z" transform="translate(-109.88 -292.412)" fill="#263238"/>
      <path id="Trazado_111797" data-name="Trazado 111797" d="M136.387,419.206s-.914-12.646,7.26-18.013a.411.411,0,0,1,.649.366C144.2,403.589,143.263,409.614,136.387,419.206Z" transform="translate(-110.537 -295.016)" fill="#6595bf"/>
      <path id="Trazado_111798" data-name="Trazado 111798" d="M142.011,405.31a11.4,11.4,0,0,1-.759,2.121c-.585,1.445-1.28,3.136-2.039,5s-1.454,3.566-2.039,5.011a11.54,11.54,0,0,1-.914,2.057,9.957,9.957,0,0,1,.576-2.176c.43-1.317,1.1-3.109,1.911-5.066s1.582-3.712,2.176-4.965a9.838,9.838,0,0,1,1.088-1.984Z" transform="translate(-110.529 -295.375)" fill="#263238"/>
      <path id="Trazado_111799" data-name="Trazado 111799" d="M119.586,307.94s-11.238-5.9-11.466-15.681a.421.421,0,0,1,.658-.366C110.452,293.045,115.078,297.032,119.586,307.94Z" transform="translate(-108.12 -285.657)" fill="#6595bf"/>
      <path id="Trazado_111800" data-name="Trazado 111800" d="M110.68,296a11.163,11.163,0,0,1,1.4,1.765l3.164,4.38,3.182,4.371a11.6,11.6,0,0,1,1.28,1.829,9.015,9.015,0,0,1-1.545-1.637c-.914-1.061-2.066-2.579-3.3-4.3s-2.3-3.3-3.054-4.471A9.939,9.939,0,0,1,110.68,296Z" transform="translate(-108.339 -286.015)" fill="#263238"/>
      <path id="Trazado_111801" data-name="Trazado 111801" d="M132.7,336.426s-11.576-5.175-12.39-14.959a.411.411,0,0,1,.631-.393C122.678,322.125,127.533,325.81,132.7,336.426Z" transform="translate(-109.163 -288.157)" fill="#6595bf"/>
      <path id="Trazado_111802" data-name="Trazado 111802" d="M123.08,325a11.386,11.386,0,0,1,1.5,1.664l3.429,4.188c1.289,1.554,2.451,2.963,3.438,4.17a12.15,12.15,0,0,1,1.39,1.756,9.4,9.4,0,0,1-1.637-1.536c-.914-1.006-2.222-2.451-3.557-4.1s-2.505-3.155-3.328-4.27A10.058,10.058,0,0,1,123.08,325Z" transform="translate(-109.401 -288.498)" fill="#263238"/>
      <path id="Trazado_111803" data-name="Trazado 111803" d="M126.082,367.779s-7.946-9.884-4.215-18.964a.411.411,0,0,1,.741-.064C123.677,350.479,126.329,355.974,126.082,367.779Z" transform="translate(-109.211 -290.515)" fill="#6595bf"/>
      <path id="Trazado_111804" data-name="Trazado 111804" d="M122.82,353.24a11.257,11.257,0,0,1,.576,2.176c.338,1.518.722,3.31,1.152,5.285s.823,3.749,1.161,5.276a12.105,12.105,0,0,1,.439,2.2,8.677,8.677,0,0,1-.759-2.121c-.393-1.335-.86-3.191-1.308-5.267s-.8-3.95-1.015-5.312a10.058,10.058,0,0,1-.247-2.24Z" transform="translate(-109.378 -290.916)" fill="#263238"/>
      <path id="Trazado_111805" data-name="Trazado 111805" d="M134.044,405.428s-11.484-5.386-12.134-15.169a.421.421,0,0,1,.64-.384C124.269,390.953,129.069,394.72,134.044,405.428Z" transform="translate(-109.3 -294.048)" fill="#6595bf"/>
      <path id="Trazado_111806" data-name="Trazado 111806" d="M124.62,393.87a11.633,11.633,0,0,1,1.472,1.7l3.365,4.234c1.253,1.582,2.4,3.008,3.365,4.224a13.027,13.027,0,0,1,1.362,1.829,9.877,9.877,0,0,1-1.618-1.573c-.914-1.024-2.176-2.487-3.484-4.151s-2.451-3.191-3.255-4.325a9.95,9.95,0,0,1-1.207-1.938Z" transform="translate(-109.532 -294.396)" fill="#263238"/>
      <path id="Trazado_111807" data-name="Trazado 111807" d="M158.147,352.36v1.1q-.055,1.134-.137,3.072c-.146,2.743-.357,6.474-.6,10.972h0c-.823,4.572-3.155,9.665-6.3,14.63-2.3,3.657-4.709,6.949-6.794,10.058a70.069,70.069,0,0,0-5.093,8.431,35.192,35.192,0,0,0-2.387,6.181c-.2.759-.357,1.344-.439,1.746a3.4,3.4,0,0,1-.174.613,2.973,2.973,0,0,1,.073-.631c.064-.411.183-1.006.357-1.774a32.723,32.723,0,0,1,2.268-6.282,66.248,66.248,0,0,1,5.029-8.522c2.066-3.1,4.471-6.4,6.757-10.058,3.127-4.91,5.486-9.921,6.3-14.438h0c.311-4.508.576-8.229.768-10.972.1-1.28.183-2.3.247-3.063a7.615,7.615,0,0,1,.082-.8,1.061,1.061,0,0,1,.046-.256Z" transform="translate(-110.526 -290.841)" fill="#263238"/>
      <path id="Trazado_111808" data-name="Trazado 111808" d="M152.483,382.07s4.864-11.7-1.253-19.376a.411.411,0,0,0-.732.137C150,364.788,148.954,370.814,152.483,382.07Z" transform="translate(-111.702 -291.711)" fill="#6595bf"/>
      <path id="Trazado_111809" data-name="Trazado 111809" d="M151.756,367.17a10.388,10.388,0,0,1,.384,2.213c.174,1.381.366,3.283.512,5.395s.229,4.032.219,5.413a10,10,0,0,1-.128,2.249,11.632,11.632,0,0,1-.2-2.231c-.11-1.554-.229-3.383-.366-5.395s-.265-3.84-.375-5.395a10.487,10.487,0,0,1-.046-2.249Z" transform="translate(-111.853 -292.109)" fill="#263238"/>
      <g id="Grupo_60005" data-name="Grupo 60005" transform="translate(38.255 70.812)" opacity="0.3">
        <path id="Trazado_111810" data-name="Trazado 111810" d="M152.483,382.07s4.864-11.7-1.253-19.376a.411.411,0,0,0-.732.137C150,364.788,148.954,370.814,152.483,382.07Z" transform="translate(-149.957 -362.524)"/>
      </g>
      <path id="Trazado_111811" data-name="Trazado 111811" d="M135.9,412.949s3.9-12.061-2.825-19.2a.421.421,0,0,0-.722.2C132.011,395.933,131.453,402.013,135.9,412.949Z" transform="translate(-110.175 -294.373)" fill="#6595bf"/>
      <path id="Trazado_111812" data-name="Trazado 111812" d="M133.919,398.17a9.782,9.782,0,0,1,.567,2.176c.283,1.353.631,3.237.914,5.331s.549,4,.658,5.376a9.144,9.144,0,0,1,0,2.249,12.673,12.673,0,0,1-.375-2.213c-.229-1.536-.5-3.347-.8-5.34s-.576-3.813-.814-5.349a11.089,11.089,0,0,1-.155-2.231Z" transform="translate(-110.328 -294.764)" fill="#263238"/>
      <g id="Grupo_60006" data-name="Grupo 60006" transform="translate(21.951 99.237)" opacity="0.3">
        <path id="Trazado_111813" data-name="Trazado 111813" d="M135.9,412.949s3.9-12.061-2.825-19.2a.421.421,0,0,0-.722.2C132.011,395.933,131.453,402.013,135.9,412.949Z" transform="translate(-132.126 -393.611)"/>
      </g>
      <path id="Trazado_111814" data-name="Trazado 111814" d="M159.5,366.62s10.387-7.269,9.336-17.026a.421.421,0,0,0-.695-.274C166.632,350.683,162.563,355.227,159.5,366.62Z" transform="translate(-112.519 -290.572)" fill="#6595bf"/>
      <g id="Grupo_60007" data-name="Grupo 60007" transform="translate(46.981 58.645)" opacity="0.3">
        <path id="Trazado_111815" data-name="Trazado 111815" d="M159.5,366.62s10.387-7.269,9.336-17.026a.421.421,0,0,0-.695-.274C166.632,350.683,162.563,355.227,159.5,366.62Z" transform="translate(-159.5 -349.217)"/>
      </g>
      <path id="Trazado_111816" data-name="Trazado 111816" d="M166.969,353.61a10.351,10.351,0,0,1-.869,2.076c-.585,1.253-1.445,2.972-2.451,4.828s-1.975,3.52-2.743,4.691a8.761,8.761,0,0,1-1.317,1.829,13.464,13.464,0,0,1,1.033-1.993c.75-1.362,1.618-2.963,2.588-4.736s1.829-3.383,2.579-4.755A10.779,10.779,0,0,1,166.969,353.61Z" transform="translate(-112.527 -290.948)" fill="#263238"/>
      <path id="Trazado_111817" data-name="Trazado 111817" d="M140.83,400.58s12.527-1.957,15.883-11.174a.421.421,0,0,0-.5-.558C154.253,389.416,148.593,391.729,140.83,400.58Z" transform="translate(-110.92 -293.964)" fill="#6595bf"/>
      <g id="Grupo_60008" data-name="Grupo 60008" transform="translate(29.91 94.869)" opacity="0.3">
        <path id="Trazado_111818" data-name="Trazado 111818" d="M140.83,400.58s12.527-1.957,15.883-11.174a.421.421,0,0,0-.5-.558C154.253,389.416,148.593,391.729,140.83,400.58Z" transform="translate(-140.83 -388.834)"/>
      </g>
      <path id="Trazado_111819" data-name="Trazado 111819" d="M153.428,392.13a10.057,10.057,0,0,1-1.692,1.49c-1.079.86-2.606,2.021-4.334,3.246s-3.319,2.286-4.5,3.017a8.952,8.952,0,0,1-1.993,1.052,11.245,11.245,0,0,1,1.829-1.335l4.407-3.118,4.407-3.136a11.653,11.653,0,0,1,1.874-1.216Z" transform="translate(-110.927 -294.247)" fill="#263238"/>
      <path id="Trazado_111820" data-name="Trazado 111820" d="M127.417,426.9l-3.657,24.6h22.777l-2.953-24.6Z" transform="translate(-109.459 -297.224)" fill="#455a64"/>
      <path id="Trazado_111821" data-name="Trazado 111821" d="M144.717,435.205a86.864,86.864,0,0,1-9.144.238,86.864,86.864,0,0,1-9.144-.238,89.892,89.892,0,0,1,9.144-.238,89.884,89.884,0,0,1,9.144.238Z" transform="translate(-109.687 -297.912)" fill="#263238"/>
      <path id="Trazado_111822" data-name="Trazado 111822" d="M145.153,437.348a92.923,92.923,0,0,1-9.491.238,92.657,92.657,0,0,1-9.482-.238c0-.128,4.243-.238,9.482-.238S145.153,437.22,145.153,437.348Z" transform="translate(-109.666 -298.098)" fill="#263238"/>
    </g>
  </g>
</svg>
