<svg xmlns="http://www.w3.org/2000/svg" width="400" height="362.641" viewBox="0 0 400 362.641">
  <g id="Grupo_60195" data-name="Grupo 60195" transform="translate(-935 -508.076)">
    <g id="Grupo_60101" data-name="Grupo 60101" transform="translate(720.697 -4323.794)">
      <rect id="Rectángulo_4912" data-name="Rectángulo 4912" width="400" height="317.767" rx="21" transform="translate(214.303 4876.745)" fill="#dfecf9" opacity="0.3"/>
      <g id="Grupo_59779" data-name="Grupo 59779">
        <circle id="Elipse_4133" data-name="Elipse 4133" cx="48" cy="48" r="48" transform="translate(366.303 4831.87)" fill="#d9a171"/>
        <g id="payment-method" transform="translate(380.303 4845.847)">
          <path id="Trazado_110066" data-name="Trazado 110066" d="M107.34,372.017v10.639c6.06.267,4.311,1.338,14.855,6.079a9.979,9.979,0,0,0,7.763-.132l.007,0,20.714-7.417c.674-.31,4.074-2.157,2.733-5.6-1.568-3.669-5.6-2.138-5.941-2.028l-10.814,2.99" transform="translate(-92.936 -322.077)" fill="#eac092"/>
          <g id="Grupo_59776" data-name="Grupo 59776" transform="translate(14.404 42.949)">
            <path id="Trazado_110067" data-name="Trazado 110067" d="M119.576,331.363l12.043,3.816a3.956,3.956,0,0,0,4.888-2.723h0c.6-2.1-.622-4.29-3.03-5.184l-10.684-3.626a9.081,9.081,0,0,0-7.712-3.725c-3.429,0-6.386,2.772-7.74,5.2v4.845" transform="translate(-107.341 -319.921)" fill="#fedbab"/>
          </g>
          <path id="Trazado_110068" data-name="Trazado 110068" d="M154.092,386.54a1.321,1.321,0,0,1-.262-.027,1.3,1.3,0,0,1-.252-.077,1.35,1.35,0,0,1-.231-.124,1.3,1.3,0,0,1-.37-.37,1.242,1.242,0,0,1-.123-.232,1.26,1.26,0,0,1-.076-.251,1.289,1.289,0,0,1,0-.523,1.3,1.3,0,0,1,.076-.252,1.361,1.361,0,0,1,.29-.435,1.286,1.286,0,0,1,.2-.166,1.363,1.363,0,0,1,.231-.123,1.3,1.3,0,0,1,.252-.076,1.322,1.322,0,0,1,.523,0,1.26,1.26,0,0,1,.251.076,1.323,1.323,0,0,1,.232.123,1.3,1.3,0,0,1,.37.37,1.361,1.361,0,0,1,.123.231,1.4,1.4,0,0,1,.076.252,1.289,1.289,0,0,1,0,.523,1.353,1.353,0,0,1-.076.251,1.325,1.325,0,0,1-.123.232,1.3,1.3,0,0,1-.37.37,1.322,1.322,0,0,1-.232.124,1.26,1.26,0,0,1-.251.077A1.321,1.321,0,0,1,154.092,386.54Z" transform="translate(-132.253 -332.328)"/>
          <rect id="Rectángulo_27808" data-name="Rectángulo 27808" width="5.083" height="14.417" transform="translate(9.321 47.976)" fill="#eaecf0"/>
          <rect id="Rectángulo_27809" data-name="Rectángulo 27809" width="7.979" height="16.918" transform="translate(1.342 47.976)" fill="#3688c8"/>
          <path id="Trazado_110069" data-name="Trazado 110069" d="M61.725,321.336l-.016-.04c-1.235-2.89-4.132-3.958-7.56-2.787L44.8,321.094a6.128,6.128,0,0,0-3.795-3.737l-.036-.013-10.276-3.488a10.6,10.6,0,0,0-8.551-3.934c-3.506,0-6.607,2.4-8.381,5.026H1.342A1.342,1.342,0,0,0,0,316.29v16.918a1.342,1.342,0,0,0,1.342,1.342H9.32a1.342,1.342,0,0,0,1.342-1.342v-1.159H14.4a1.342,1.342,0,0,0,1.342-1.342v-.386a9.514,9.514,0,0,1,4.9,1.759,81.214,81.214,0,0,0,8.062,4.116l.059.025a12.045,12.045,0,0,0,4.317.814,10.7,10.7,0,0,0,4.446-.952l20.664-7.4c.037-.013.073-.028.108-.044C60.277,327.732,63.22,325.171,61.725,321.336ZM7.978,331.866H2.684V317.632H7.978Zm5.083-2.5h-2.4V317.632h2.4Zm44.168-3.187-20.654,7.4-.061.023-.054.023a8.7,8.7,0,0,1-6.683.114,77.735,77.735,0,0,1-7.791-3.98,12.077,12.077,0,0,0-6.242-2.123V316.824c1.272-2.085,3.739-4.219,6.4-4.219a7.743,7.743,0,0,1,6.569,3.086,1.342,1.342,0,0,0,.712.568l10.664,3.62c1.7.639,2.6,2.1,2.19,3.552a2.615,2.615,0,0,1-3.212,1.8l-12.022-3.81a1.342,1.342,0,1,0-.811,2.558L38.276,327.8l.038.012a5.267,5.267,0,0,0,4.028-.468,5.263,5.263,0,0,0,2.517-3.179q.046-.163.082-.326l10.075-2.791c1.455-.5,3.365-.676,4.216,1.283C60.113,324.63,57.825,325.9,57.23,326.179Z" transform="translate(0 -268.314)"/>
          <path id="Trazado_110070" data-name="Trazado 110070" d="M66.59,21.941,54.671,10.023,39.729,24.966,65.263,50.5l14.1-14.1" transform="translate(-34.398 -8.658)" fill="#26cfad"/>
          <path id="Trazado_110071" data-name="Trazado 110071" d="M149.42,113.96h0l0-.008a6.307,6.307,0,1,0,6.738,6.451" transform="translate(-124.285 -98.641)" fill="#ffd36c"/>
          <path id="Trazado_110072" data-name="Trazado 110072" d="M218.357,42.768V32.129c-6.06-.267-4.311-1.338-14.855-6.079a9.979,9.979,0,0,0-7.763.132l-.007,0-6.249,2.238,6.448,6.448" transform="translate(-164.057 -21.905)" fill="#eac092"/>
          <g id="Grupo_59777" data-name="Grupo 59777" transform="translate(5.331 1.365)">
            <path id="Trazado_110073" data-name="Trazado 110073" d="M39.729,88.694l5.066-5.066a7.172,7.172,0,0,1,0,10.132Z" transform="translate(-39.729 -73.751)" fill="#00b192"/>
            <path id="Trazado_110074" data-name="Trazado 110074" d="M192.264,260.4a7.172,7.172,0,0,1,10.132,0l-5.066,5.066Z" transform="translate(-171.796 -224.985)" fill="#00b192"/>
            <path id="Trazado_110075" data-name="Trazado 110075" d="M113.333,15.089l5.066-5.066,5.066,5.066A7.172,7.172,0,0,1,113.333,15.089Z" transform="translate(-103.456 -10.023)" fill="#00b192"/>
            <path id="Trazado_110076" data-name="Trazado 110076" d="M288.436,182.048a7.173,7.173,0,0,0,1.666,7.516l4.224-4.224" transform="translate(-254.692 -158.965)" fill="#00b192"/>
          </g>
          <g id="Grupo_59778" data-name="Grupo 59778" transform="translate(24.984 12.444)">
            <path id="Trazado_110077" data-name="Trazado 110077" d="M203.271,96.553l-12.043-3.816a3.956,3.956,0,0,0-4.887,2.723h0c-.6,2.1.622,4.29,3.03,5.184l10.688,3.627h0A9.081,9.081,0,0,0,207.766,108c3.429,0,6.386-2.772,7.74-5.2V97.952" transform="translate(-186.19 -92.585)" fill="#fedbab"/>
          </g>
          <path id="Trazado_110078" data-name="Trazado 110078" d="M340.592,126.181a1.323,1.323,0,0,1-.262-.027,1.355,1.355,0,0,1-.251-.076,1.324,1.324,0,0,1-.232-.123,1.3,1.3,0,0,1-.37-.37,1.328,1.328,0,0,1-.123-.232,1.264,1.264,0,0,1-.076-.251,1.291,1.291,0,0,1,0-.523,1.3,1.3,0,0,1,.076-.252,1.365,1.365,0,0,1,.123-.231,1.3,1.3,0,0,1,.37-.37,1.325,1.325,0,0,1,.232-.123,1.261,1.261,0,0,1,.251-.076,1.337,1.337,0,0,1,.776.076,1.362,1.362,0,0,1,.231.123,1.342,1.342,0,0,1,.494.6,1.3,1.3,0,0,1,.078.252,1.355,1.355,0,0,1,0,.523,1.267,1.267,0,0,1-.078.251,1.24,1.24,0,0,1-.123.232,1.3,1.3,0,0,1-.37.37,1.361,1.361,0,0,1-.231.123,1.42,1.42,0,0,1-.251.076A1.346,1.346,0,0,1,340.592,126.181Z" transform="translate(-293.727 -106.906)"/>
          <rect id="Rectángulo_27810" data-name="Rectángulo 27810" width="5.083" height="14.417" transform="translate(54.3 8.411)" fill="#eaecf0"/>
          <rect id="Rectángulo_27811" data-name="Rectángulo 27811" width="7.979" height="16.918" transform="translate(59.383 5.91)" fill="#3688c8"/>
          <path id="Trazado_110079" data-name="Trazado 110079" d="M93.068,4.568H85.09A1.342,1.342,0,0,0,83.748,5.91V7.068H80.007A1.342,1.342,0,0,0,78.665,8.41V8.8a9.514,9.514,0,0,1-4.9-1.759A81.2,81.2,0,0,0,65.7,2.921L65.643,2.9a11.416,11.416,0,0,0-8.762.138l-5.4,1.933L46.929.416a1.342,1.342,0,0,0-1.9,0L30.089,15.359a1.331,1.331,0,0,0,0,1.9L55.623,42.791a1.45,1.45,0,0,0,1.9,0L71.163,29.149c.355.031.723.047,1.1.047,3.506,0,6.607-2.4,8.381-5.026H93.068a1.342,1.342,0,0,0,1.342-1.342V5.91A1.342,1.342,0,0,0,93.068,4.568ZM49.384,17.013A5.941,5.941,0,0,0,53.4,21.761l.036.013,2.683.911a4.965,4.965,0,1,1-6.74-5.672Zm2.684-5.24a5.26,5.26,0,0,0-2.186,2.309,7.648,7.648,0,1,0,8.794,9.468l4.531,1.538a8.567,8.567,0,0,0,1.421,6.8l-3.064,3.064a8.527,8.527,0,0,0-9.982,0L37.927,21.3a8.528,8.528,0,0,0,0-9.983l3.062-3.062a8.528,8.528,0,0,0,9.983,0l2.9,2.9A5.3,5.3,0,0,0,52.068,11.773ZM66.561,29.955a5.869,5.869,0,0,1-.857-2.791,10.433,10.433,0,0,0,2.367,1.281ZM45.98,3.263l3.058,3.058a5.85,5.85,0,0,1-6.117,0Zm-9.986,9.987a5.851,5.851,0,0,1,0,6.117l-3.058-3.059ZM56.572,39.944l-3.058-3.058a5.842,5.842,0,0,1,6.116,0Zm15.7-13.432a9.767,9.767,0,0,1-1.4-.1h-.005a7.686,7.686,0,0,1-4.971-2.72c-.027-.04-.144-.193-.161-.218a1.337,1.337,0,0,0-.74-.615L54.322,19.238c-1.7-.639-2.6-2.1-2.19-3.551v-.006a2.614,2.614,0,0,1,3.211-1.8l12.022,3.81a1.342,1.342,0,1,0,.811-2.558L58.616,12.1l-.083-.083,0,0-4.95-4.95,4.255-1.524.046-.018.014-.006.054-.023a8.7,8.7,0,0,1,6.682-.114,77.728,77.728,0,0,1,7.791,3.98,12.076,12.076,0,0,0,6.242,2.123V22.293C77.393,24.378,74.926,26.512,72.267,26.512Zm9.082-16.76h2.4V21.486h-2.4ZM91.727,21.486H86.432V7.252h5.295Z" transform="translate(-25.707 0)"/>
        </g>
      </g>
    </g>
    <g id="Grupo_60075" data-name="Grupo 60075" transform="translate(10928.8 6713.158)">
      <rect id="Rectángulo_28436" data-name="Rectángulo 28436" width="301.558" height="46.32" transform="translate(-9944.8 -6028.967)" fill="#dfecf9"/>
      <rect id="Rectángulo_28438" data-name="Rectángulo 28438" width="301.558" height="46.32" transform="translate(-9944.8 -5936.26)" fill="#dfecf9"/>
      <rect id="Rectángulo_28437" data-name="Rectángulo 28437" width="301.558" height="46.32" transform="translate(-9944.8 -5982.613)" fill="#e8e8e8"/>
      <path id="Trazado_111560" data-name="Trazado 111560" d="M0,0H301.559V42.566H0Z" transform="translate(-9944.8 -6071.4)" fill="#6595bf"/>
      <path id="Trazado_113447" data-name="Trazado 113447" d="M70.595,4.2v8.429a4.315,4.315,0,0,1-1.314,3.322,5.066,5.066,0,0,1-3.59,1.222,5.123,5.123,0,0,1-3.56-1.187,4.242,4.242,0,0,1-1.345-3.261V4.2h2.637v8.446a2.438,2.438,0,0,0,.6,1.833,2.311,2.311,0,0,0,1.666.576q2.224,0,2.259-2.338V4.2ZM74.928,7.49l.079,1.1A3.32,3.32,0,0,1,77.74,7.314a2.759,2.759,0,0,1,2.25.888,4.142,4.142,0,0,1,.756,2.654V17h-2.54V10.9a1.654,1.654,0,0,0-.352-1.176,1.572,1.572,0,0,0-1.169-.366,1.747,1.747,0,0,0-1.608.916V17h-2.54V7.49ZM85.352,17H82.8V7.49h2.549Zm-2.7-11.971a1.251,1.251,0,0,1,.382-.94,1.648,1.648,0,0,1,2.079,0,1.244,1.244,0,0,1,.387.94,1.247,1.247,0,0,1-.391.949,1.629,1.629,0,0,1-2.065,0A1.247,1.247,0,0,1,82.653,5.029Zm4.395,7.146a5.731,5.731,0,0,1,1-3.542,3.237,3.237,0,0,1,2.729-1.318,2.913,2.913,0,0,1,2.294,1.037V3.5h2.549V17H93.323L93.2,15.989a2.989,2.989,0,0,1-2.443,1.187,3.228,3.228,0,0,1-2.694-1.323A5.916,5.916,0,0,1,87.048,12.175Zm2.54.181a3.775,3.775,0,0,0,.466,2.057,1.516,1.516,0,0,0,1.354.715,1.7,1.7,0,0,0,1.661-1V10.36a1.675,1.675,0,0,0-1.644-1Q89.588,9.362,89.588,12.356ZM103.1,17a2.821,2.821,0,0,1-.255-.853,3.073,3.073,0,0,1-2.4,1.028,3.376,3.376,0,0,1-2.316-.809,2.6,2.6,0,0,1-.918-2.039,2.687,2.687,0,0,1,1.121-2.32,5.529,5.529,0,0,1,3.239-.817h1.169v-.545a1.567,1.567,0,0,0-.338-1.055,1.331,1.331,0,0,0-1.068-.4,1.513,1.513,0,0,0-1.006.308,1.045,1.045,0,0,0-.365.844h-2.54a2.551,2.551,0,0,1,.51-1.529,3.37,3.37,0,0,1,1.441-1.1,5.253,5.253,0,0,1,2.092-.4,4.15,4.15,0,0,1,2.791.883,3.09,3.09,0,0,1,1.033,2.483V14.8a4.546,4.546,0,0,0,.378,2.048V17ZM101,15.233a2.188,2.188,0,0,0,1.037-.25,1.645,1.645,0,0,0,.7-.672V12.676h-.949q-1.907,0-2.03,1.318l-.009.149a1.017,1.017,0,0,0,.334.782A1.3,1.3,0,0,0,101,15.233Zm5.845-3.059a5.731,5.731,0,0,1,1-3.542,3.237,3.237,0,0,1,2.729-1.318,2.913,2.913,0,0,1,2.294,1.037V3.5h2.549V17h-2.294l-.123-1.011a2.989,2.989,0,0,1-2.443,1.187,3.228,3.228,0,0,1-2.694-1.323A5.916,5.916,0,0,1,106.841,12.175Zm2.54.181a3.775,3.775,0,0,0,.466,2.057,1.516,1.516,0,0,0,1.354.715,1.7,1.7,0,0,0,1.661-1V10.36a1.675,1.675,0,0,0-1.644-1Q109.381,9.362,109.381,12.356Zm12.375,4.82a4.668,4.668,0,0,1-3.406-1.283,4.561,4.561,0,0,1-1.314-3.419v-.246a5.745,5.745,0,0,1,.554-2.562,4.064,4.064,0,0,1,1.569-1.74,4.4,4.4,0,0,1,2.316-.611,3.947,3.947,0,0,1,3.072,1.23,5,5,0,0,1,1.121,3.489v1.037h-6.056a2.36,2.36,0,0,0,.743,1.494,2.245,2.245,0,0,0,1.569.563,2.742,2.742,0,0,0,2.294-1.063l1.248,1.4a3.813,3.813,0,0,1-1.547,1.261A5.075,5.075,0,0,1,121.756,17.176Zm-.29-7.813a1.587,1.587,0,0,0-1.226.512,2.651,2.651,0,0,0-.6,1.466h3.533v-.2a1.891,1.891,0,0,0-.457-1.311A1.638,1.638,0,0,0,121.466,9.362Zm10.793,5.01a.818.818,0,0,0-.461-.734,5.241,5.241,0,0,0-1.481-.479q-3.393-.712-3.393-2.883a2.613,2.613,0,0,1,1.05-2.114,4.237,4.237,0,0,1,2.747-.848,4.56,4.56,0,0,1,2.9.853,2.687,2.687,0,0,1,1.085,2.215h-2.54a1.229,1.229,0,0,0-.352-.9,1.488,1.488,0,0,0-1.1-.356,1.52,1.52,0,0,0-.993.29.916.916,0,0,0-.352.738.783.783,0,0,0,.4.681,4.114,4.114,0,0,0,1.349.448,11.019,11.019,0,0,1,1.6.426,2.628,2.628,0,0,1,2.013,2.558,2.481,2.481,0,0,1-1.116,2.1,4.815,4.815,0,0,1-2.883.8,5.029,5.029,0,0,1-2.123-.426,3.561,3.561,0,0,1-1.455-1.169,2.716,2.716,0,0,1-.527-1.6h2.408a1.326,1.326,0,0,0,.5,1.037,1.987,1.987,0,0,0,1.248.36,1.839,1.839,0,0,0,1.1-.277A.861.861,0,0,0,132.259,14.372ZM146.356,17a2.821,2.821,0,0,1-.255-.853,3.073,3.073,0,0,1-2.4,1.028,3.376,3.376,0,0,1-2.316-.809,2.6,2.6,0,0,1-.918-2.039,2.687,2.687,0,0,1,1.121-2.32,5.529,5.529,0,0,1,3.239-.817H146v-.545a1.567,1.567,0,0,0-.338-1.055,1.331,1.331,0,0,0-1.068-.4,1.513,1.513,0,0,0-1.006.308,1.045,1.045,0,0,0-.365.844h-2.54a2.551,2.551,0,0,1,.51-1.529,3.37,3.37,0,0,1,1.441-1.1,5.253,5.253,0,0,1,2.092-.4,4.15,4.15,0,0,1,2.791.883,3.09,3.09,0,0,1,1.033,2.483V14.8a4.546,4.546,0,0,0,.378,2.048V17Zm-2.1-1.767a2.188,2.188,0,0,0,1.037-.25,1.645,1.645,0,0,0,.7-.672V12.676h-.949q-1.907,0-2.03,1.318l-.009.149a1.017,1.017,0,0,0,.334.782A1.3,1.3,0,0,0,144.256,15.233ZM158.538,13.9,160.3,7.49h2.654L159.751,17h-2.426l-3.208-9.51h2.654Zm9.8,3.278a4.668,4.668,0,0,1-3.406-1.283,4.561,4.561,0,0,1-1.314-3.419v-.246a5.745,5.745,0,0,1,.554-2.562,4.064,4.064,0,0,1,1.569-1.74,4.4,4.4,0,0,1,2.316-.611,3.947,3.947,0,0,1,3.072,1.23,5,5,0,0,1,1.121,3.489v1.037h-6.056a2.36,2.36,0,0,0,.743,1.494,2.245,2.245,0,0,0,1.569.563,2.742,2.742,0,0,0,2.294-1.063l1.248,1.4a3.813,3.813,0,0,1-1.547,1.261A5.075,5.075,0,0,1,168.338,17.176Zm-.29-7.813a1.587,1.587,0,0,0-1.226.512,2.651,2.651,0,0,0-.6,1.466h3.533v-.2a1.891,1.891,0,0,0-.457-1.311A1.638,1.638,0,0,0,168.048,9.362Zm7.98-1.872.079,1.1a3.32,3.32,0,0,1,2.733-1.274,2.759,2.759,0,0,1,2.25.888,4.142,4.142,0,0,1,.756,2.654V17h-2.54V10.9a1.654,1.654,0,0,0-.352-1.176,1.572,1.572,0,0,0-1.169-.366,1.747,1.747,0,0,0-1.608.916V17h-2.54V7.49Zm7.348,4.685a5.731,5.731,0,0,1,1-3.542A3.237,3.237,0,0,1,187.1,7.314,2.913,2.913,0,0,1,189.4,8.352V3.5h2.549V17h-2.294l-.123-1.011a2.989,2.989,0,0,1-2.443,1.187,3.228,3.228,0,0,1-2.694-1.323A5.916,5.916,0,0,1,183.376,12.175Zm2.54.181a3.775,3.775,0,0,0,.466,2.057,1.516,1.516,0,0,0,1.354.715,1.7,1.7,0,0,0,1.661-1V10.36a1.675,1.675,0,0,0-1.644-1Q185.916,9.362,185.916,12.356Zm12.375,4.82a4.668,4.668,0,0,1-3.406-1.283,4.561,4.561,0,0,1-1.314-3.419v-.246a5.745,5.745,0,0,1,.554-2.562,4.064,4.064,0,0,1,1.569-1.74,4.4,4.4,0,0,1,2.316-.611,3.947,3.947,0,0,1,3.072,1.23,5,5,0,0,1,1.121,3.489v1.037h-6.056a2.36,2.36,0,0,0,.743,1.494,2.245,2.245,0,0,0,1.569.563,2.742,2.742,0,0,0,2.294-1.063l1.248,1.4a3.813,3.813,0,0,1-1.547,1.261A5.075,5.075,0,0,1,198.291,17.176ZM198,9.362a1.587,1.587,0,0,0-1.226.512,2.651,2.651,0,0,0-.6,1.466h3.533v-.2a1.891,1.891,0,0,0-.457-1.311A1.638,1.638,0,0,0,198,9.362Zm10.986.51a6.9,6.9,0,0,0-.914-.07,1.86,1.86,0,0,0-1.89.976V17h-2.54V7.49h2.4l.07,1.134a2.354,2.354,0,0,1,2.118-1.31,2.662,2.662,0,0,1,.791.114Z" transform="translate(-9935 -6063.833)" fill="#fff"/>
      <path id="Trazado_113448" data-name="Trazado 113448" d="M56.95,11.806a13.589,13.589,0,0,1,.532-3.814,11.081,11.081,0,0,1,1.586-3.322A6.749,6.749,0,0,1,61.256,2.56l.334,1.072a7,7,0,0,0-2.1,3.006,13.031,13.031,0,0,0-.9,4.526l-.009.747A13.1,13.1,0,0,0,59.815,17.8a7.033,7.033,0,0,0,1.775,2.338l-.334.993a6.966,6.966,0,0,1-2.232-2.18A12.217,12.217,0,0,1,56.95,11.806Zm10.872-1.67H71.39v1.538H67.822v4.043H66.187V11.674H62.619V10.136h3.568V6.4h1.635Zm9.3,1.758a13.6,13.6,0,0,1-.514,3.757,11.11,11.11,0,0,1-1.573,3.318,6.893,6.893,0,0,1-2.219,2.162l-.343-.993a7.066,7.066,0,0,0,2.175-3.221,13.935,13.935,0,0,0,.839-4.847v-.281A14.469,14.469,0,0,0,75.1,8.356a11.583,11.583,0,0,0-1.077-2.843,6.567,6.567,0,0,0-1.551-1.96l.343-.993A6.866,6.866,0,0,1,75.024,4.7,11.134,11.134,0,0,1,76.6,8.018,13.909,13.909,0,0,1,77.121,11.894ZM86.147,17H84.459V4.2h1.688Zm4.368-9.51.053,1.2a3.465,3.465,0,0,1,2.848-1.371q3.015,0,3.041,3.4V17H94.831V10.707a2.189,2.189,0,0,0-.47-1.521,1.884,1.884,0,0,0-1.437-.492,2.347,2.347,0,0,0-1.389.422,2.865,2.865,0,0,0-.932,1.107V17H88.977V7.49Zm11.531,7.3,2.355-7.3h1.661L102.653,17h-1.239L97.968,7.49h1.661Zm9.413,2.382a4.155,4.155,0,0,1-3.146-1.27,4.714,4.714,0,0,1-1.213-3.4v-.3a5.707,5.707,0,0,1,.541-2.527,4.217,4.217,0,0,1,1.512-1.74,3.8,3.8,0,0,1,2.1-.628,3.562,3.562,0,0,1,2.883,1.222,5.289,5.289,0,0,1,1.028,3.5v.677h-6.442a3.38,3.38,0,0,0,.822,2.272,2.583,2.583,0,0,0,2,.866,2.832,2.832,0,0,0,1.459-.352,3.666,3.666,0,0,0,1.046-.932l.993.773A3.993,3.993,0,0,1,111.459,17.176Zm-.2-8.525a2.169,2.169,0,0,0-1.652.716,3.482,3.482,0,0,0-.826,2.008h4.764v-.123a3.1,3.1,0,0,0-.668-1.92A2.042,2.042,0,0,0,111.257,8.65Zm7.33-1.16.053,1.2a3.465,3.465,0,0,1,2.848-1.371q3.015,0,3.041,3.4V17H122.9V10.707a2.189,2.189,0,0,0-.47-1.521A1.884,1.884,0,0,0,121,8.694a2.347,2.347,0,0,0-1.389.422,2.865,2.865,0,0,0-.932,1.107V17h-1.626V7.49Zm10.6-2.3v2.3h1.775V8.747h-1.775v5.9a1.32,1.32,0,0,0,.237.858,1,1,0,0,0,.809.286,3.937,3.937,0,0,0,.773-.105V17a4.742,4.742,0,0,1-1.248.175,2.025,2.025,0,0,1-1.644-.659,2.832,2.832,0,0,1-.554-1.872v-5.9H125.83V7.49h1.731v-2.3ZM138.732,17a3.416,3.416,0,0,1-.229-1,3.628,3.628,0,0,1-2.707,1.178,3.357,3.357,0,0,1-2.307-.8,2.573,2.573,0,0,1-.9-2.017,2.688,2.688,0,0,1,1.129-2.307,5.325,5.325,0,0,1,3.177-.822h1.582v-.747a1.826,1.826,0,0,0-.51-1.358,2.049,2.049,0,0,0-1.5-.505,2.371,2.371,0,0,0-1.459.439,1.3,1.3,0,0,0-.589,1.063h-1.635a2.244,2.244,0,0,1,.505-1.375,3.449,3.449,0,0,1,1.371-1.05,4.613,4.613,0,0,1,1.9-.387,3.759,3.759,0,0,1,2.575.822A2.964,2.964,0,0,1,140.1,10.4v4.377a5.351,5.351,0,0,0,.334,2.083V17Zm-2.7-1.239a2.858,2.858,0,0,0,1.45-.4,2.392,2.392,0,0,0,.993-1.028V12.386H137.2q-2.988,0-2.988,1.749a1.48,1.48,0,0,0,.51,1.2A1.959,1.959,0,0,0,136.034,15.761Zm11.215-6.812a4.873,4.873,0,0,0-.8-.062,2.143,2.143,0,0,0-2.171,1.362V17h-1.626V7.49h1.582l.026,1.1a2.532,2.532,0,0,1,2.268-1.274,1.661,1.661,0,0,1,.721.123ZM150.509,17h-1.626V7.49h1.626ZM148.751,4.968a.971.971,0,0,1,.242-.668.907.907,0,0,1,.716-.272.922.922,0,0,1,.721.272.96.96,0,0,1,.246.668.929.929,0,0,1-.246.659.938.938,0,0,1-.721.264.924.924,0,0,1-.716-.264A.938.938,0,0,1,148.751,4.968Zm3.929,7.189a5.617,5.617,0,0,1,.549-2.514,4.1,4.1,0,0,1,1.529-1.723A4.163,4.163,0,0,1,157,7.314a4.01,4.01,0,0,1,3.142,1.345,5.174,5.174,0,0,1,1.2,3.577v.114a5.666,5.666,0,0,1-.532,2.492,4.038,4.038,0,0,1-1.521,1.718,4.211,4.211,0,0,1-2.272.615,4,4,0,0,1-3.133-1.345,5.147,5.147,0,0,1-1.2-3.56Zm1.635.193a4.068,4.068,0,0,0,.734,2.54,2.487,2.487,0,0,0,3.933-.013,4.449,4.449,0,0,0,.729-2.72,4.061,4.061,0,0,0-.743-2.536A2.361,2.361,0,0,0,157,8.65a2.335,2.335,0,0,0-1.942.958A4.416,4.416,0,0,0,154.315,12.351ZM169.6,17h-1.626V7.49H169.6ZM167.841,4.968a.971.971,0,0,1,.242-.668.907.907,0,0,1,.716-.272.922.922,0,0,1,.721.272.96.96,0,0,1,.246.668.929.929,0,0,1-.246.659.938.938,0,0,1-.721.264.924.924,0,0,1-.716-.264A.938.938,0,0,1,167.841,4.968Zm5.9,2.522.053,1.2a3.465,3.465,0,0,1,2.848-1.371q3.015,0,3.041,3.4V17h-1.626V10.707a2.189,2.189,0,0,0-.47-1.521,1.884,1.884,0,0,0-1.437-.492,2.347,2.347,0,0,0-1.389.422,2.865,2.865,0,0,0-.932,1.107V17H172.2V7.49ZM183.9,17h-1.626V7.49H183.9ZM182.141,4.968a.971.971,0,0,1,.242-.668.907.907,0,0,1,.716-.272.922.922,0,0,1,.721.272.96.96,0,0,1,.246.668.929.929,0,0,1-.246.659.938.938,0,0,1-.721.264.924.924,0,0,1-.716-.264A.938.938,0,0,1,182.141,4.968Zm8.174,10.881a2.342,2.342,0,0,0,1.521-.527A1.855,1.855,0,0,0,192.556,14h1.538a2.949,2.949,0,0,1-.562,1.556,3.7,3.7,0,0,1-1.384,1.178,3.994,3.994,0,0,1-1.833.439,3.918,3.918,0,0,1-3.089-1.3,5.163,5.163,0,0,1-1.147-3.546v-.272a5.725,5.725,0,0,1,.51-2.47,3.883,3.883,0,0,1,1.463-1.679,4.157,4.157,0,0,1,2.254-.6,3.814,3.814,0,0,1,2.659.958,3.424,3.424,0,0,1,1.129,2.487h-1.538a2.241,2.241,0,0,0-.7-1.516,2.174,2.174,0,0,0-1.551-.593,2.276,2.276,0,0,0-1.92.892,4.19,4.19,0,0,0-.681,2.58v.308a4.106,4.106,0,0,0,.677,2.531A2.287,2.287,0,0,0,190.315,15.849ZM197.689,17h-1.626V7.49h1.626ZM195.931,4.968a.971.971,0,0,1,.242-.668.907.907,0,0,1,.716-.272.922.922,0,0,1,.721.272.96.96,0,0,1,.246.668.929.929,0,0,1-.246.659.938.938,0,0,1-.721.264.924.924,0,0,1-.716-.264A.938.938,0,0,1,195.931,4.968ZM206.162,17a3.416,3.416,0,0,1-.229-1,3.628,3.628,0,0,1-2.707,1.178,3.357,3.357,0,0,1-2.307-.8,2.573,2.573,0,0,1-.9-2.017,2.688,2.688,0,0,1,1.129-2.307,5.325,5.325,0,0,1,3.177-.822h1.582v-.747a1.826,1.826,0,0,0-.51-1.358,2.049,2.049,0,0,0-1.5-.505,2.371,2.371,0,0,0-1.459.439,1.3,1.3,0,0,0-.589,1.063h-1.635a2.244,2.244,0,0,1,.505-1.375,3.449,3.449,0,0,1,1.371-1.05,4.613,4.613,0,0,1,1.9-.387,3.759,3.759,0,0,1,2.575.822,2.964,2.964,0,0,1,.967,2.263v4.377a5.351,5.351,0,0,0,.334,2.083V17Zm-2.7-1.239a2.858,2.858,0,0,0,1.45-.4,2.392,2.392,0,0,0,.993-1.028V12.386h-1.274q-2.988,0-2.988,1.749a1.48,1.48,0,0,0,.51,1.2A1.959,1.959,0,0,0,203.463,15.761ZM211.848,17h-1.626V3.5h1.626Zm-146,41.806a13.589,13.589,0,0,1,.532-3.814,11.081,11.081,0,0,1,1.586-3.322,6.749,6.749,0,0,1,2.188-2.109l.334,1.072a7,7,0,0,0-2.1,3.006,13.031,13.031,0,0,0-.9,4.526l-.009.747A13.1,13.1,0,0,0,68.714,64.8a7.033,7.033,0,0,0,1.775,2.338l-.334.993a6.966,6.966,0,0,1-2.232-2.18A12.217,12.217,0,0,1,65.849,58.806Zm9.6.422H71.157V57.9h4.289Zm5.335-.334a13.6,13.6,0,0,1-.514,3.757,11.11,11.11,0,0,1-1.573,3.318,6.893,6.893,0,0,1-2.219,2.162l-.343-.993a7.066,7.066,0,0,0,2.175-3.221,13.935,13.935,0,0,0,.839-4.847v-.281a14.469,14.469,0,0,0-.387-3.432,11.583,11.583,0,0,0-1.077-2.843,6.567,6.567,0,0,0-1.551-1.96l.343-.993a6.866,6.866,0,0,1,2.21,2.145,11.134,11.134,0,0,1,1.573,3.313A13.909,13.909,0,0,1,80.781,58.894ZM89.808,64H88.12V51.2h1.688Zm4.368-9.51.053,1.2a3.465,3.465,0,0,1,2.848-1.371q3.015,0,3.041,3.4V64H98.491V57.707a2.189,2.189,0,0,0-.47-1.521,1.884,1.884,0,0,0-1.437-.492,2.347,2.347,0,0,0-1.389.422,2.865,2.865,0,0,0-.932,1.107V64H92.638V54.49Zm11.531,7.3,2.355-7.3h1.661L106.313,64h-1.239l-3.445-9.51h1.661Zm9.413,2.382a4.155,4.155,0,0,1-3.146-1.27,4.714,4.714,0,0,1-1.213-3.4v-.3a5.707,5.707,0,0,1,.541-2.527,4.217,4.217,0,0,1,1.512-1.74,3.8,3.8,0,0,1,2.1-.628,3.562,3.562,0,0,1,2.883,1.222,5.289,5.289,0,0,1,1.028,3.5v.677h-6.442a3.38,3.38,0,0,0,.822,2.272,2.583,2.583,0,0,0,2,.866,2.832,2.832,0,0,0,1.459-.352,3.666,3.666,0,0,0,1.046-.932l.993.773A3.993,3.993,0,0,1,115.12,64.176Zm-.2-8.525a2.169,2.169,0,0,0-1.652.716,3.482,3.482,0,0,0-.826,2.008H117.2v-.123a3.1,3.1,0,0,0-.668-1.92A2.042,2.042,0,0,0,114.918,55.65Zm7.33-1.16.053,1.2a3.465,3.465,0,0,1,2.848-1.371q3.015,0,3.041,3.4V64h-1.626V57.707a2.189,2.189,0,0,0-.47-1.521,1.884,1.884,0,0,0-1.437-.492,2.347,2.347,0,0,0-1.389.422,2.865,2.865,0,0,0-.932,1.107V64H120.71V54.49Zm10.6-2.3v2.3h1.775v1.257h-1.775v5.9a1.32,1.32,0,0,0,.237.858,1,1,0,0,0,.809.286,3.937,3.937,0,0,0,.773-.105V64a4.742,4.742,0,0,1-1.248.175,2.025,2.025,0,0,1-1.644-.659,2.832,2.832,0,0,1-.554-1.872v-5.9H129.49V54.49h1.731v-2.3ZM142.393,64a3.416,3.416,0,0,1-.229-1,3.628,3.628,0,0,1-2.707,1.178,3.357,3.357,0,0,1-2.307-.8,2.573,2.573,0,0,1-.9-2.017,2.688,2.688,0,0,1,1.129-2.307,5.325,5.325,0,0,1,3.177-.822h1.582v-.747a1.826,1.826,0,0,0-.51-1.358,2.049,2.049,0,0,0-1.5-.505,2.371,2.371,0,0,0-1.459.439,1.3,1.3,0,0,0-.589,1.063h-1.635a2.244,2.244,0,0,1,.505-1.375,3.449,3.449,0,0,1,1.371-1.05,4.613,4.613,0,0,1,1.9-.387,3.759,3.759,0,0,1,2.575.822,2.964,2.964,0,0,1,.967,2.263v4.377a5.351,5.351,0,0,0,.334,2.083V64Zm-2.7-1.239a2.858,2.858,0,0,0,1.45-.4,2.392,2.392,0,0,0,.993-1.028V59.386h-1.274q-2.988,0-2.988,1.749a1.48,1.48,0,0,0,.51,1.2A1.959,1.959,0,0,0,139.694,62.761Zm11.215-6.812a4.873,4.873,0,0,0-.8-.062,2.143,2.143,0,0,0-2.171,1.362V64h-1.626V54.49h1.582l.026,1.1a2.532,2.532,0,0,1,2.268-1.274,1.661,1.661,0,0,1,.721.123ZM154.17,64h-1.626V54.49h1.626Zm-1.758-12.032a.971.971,0,0,1,.242-.668.907.907,0,0,1,.716-.272.922.922,0,0,1,.721.272.96.96,0,0,1,.246.668.929.929,0,0,1-.246.659.938.938,0,0,1-.721.264.924.924,0,0,1-.716-.264A.938.938,0,0,1,152.412,51.968Zm3.929,7.189a5.617,5.617,0,0,1,.549-2.514,4.1,4.1,0,0,1,1.529-1.723,4.163,4.163,0,0,1,2.237-.606,4.01,4.01,0,0,1,3.142,1.345,5.174,5.174,0,0,1,1.2,3.577v.114a5.666,5.666,0,0,1-.532,2.492,4.038,4.038,0,0,1-1.521,1.718,4.211,4.211,0,0,1-2.272.615,4,4,0,0,1-3.133-1.345,5.147,5.147,0,0,1-1.2-3.56Zm1.635.193a4.068,4.068,0,0,0,.734,2.54,2.487,2.487,0,0,0,3.933-.013,4.449,4.449,0,0,0,.729-2.72,4.061,4.061,0,0,0-.743-2.536,2.361,2.361,0,0,0-1.973-.971,2.335,2.335,0,0,0-1.942.958A4.416,4.416,0,0,0,157.976,59.351ZM172.038,64V55.747h-1.5V54.49h1.5v-.809a3.3,3.3,0,0,1,.91-2.479,3.528,3.528,0,0,1,2.571-.888,7.741,7.741,0,0,1,2.487.536l-.272,1.371a5.633,5.633,0,0,0-2.092-.439,2.047,2.047,0,0,0-1.507.47,1.938,1.938,0,0,0-.461,1.411v.826h1.942v1.257h-1.942V64Zm6.776,0H177.18V54.49h1.635ZM183,54.49l.053,1.2a3.465,3.465,0,0,1,2.848-1.371q3.015,0,3.041,3.4V64h-1.626V57.707a2.189,2.189,0,0,0-.47-1.521,1.884,1.884,0,0,0-1.437-.492,2.347,2.347,0,0,0-1.389.422,2.865,2.865,0,0,0-.932,1.107V64H181.46V54.49ZM197.263,64a3.416,3.416,0,0,1-.229-1,3.628,3.628,0,0,1-2.707,1.178,3.357,3.357,0,0,1-2.307-.8,2.573,2.573,0,0,1-.9-2.017,2.688,2.688,0,0,1,1.129-2.307,5.325,5.325,0,0,1,3.177-.822h1.582v-.747a1.826,1.826,0,0,0-.51-1.358,2.049,2.049,0,0,0-1.5-.505,2.371,2.371,0,0,0-1.459.439,1.3,1.3,0,0,0-.589,1.063h-1.635a2.244,2.244,0,0,1,.505-1.375,3.449,3.449,0,0,1,1.371-1.05,4.613,4.613,0,0,1,1.9-.387,3.759,3.759,0,0,1,2.575.822,2.964,2.964,0,0,1,.967,2.263v4.377a5.351,5.351,0,0,0,.334,2.083V64Zm-2.7-1.239a2.858,2.858,0,0,0,1.45-.4,2.392,2.392,0,0,0,.993-1.028V59.386h-1.274q-2.988,0-2.988,1.749a1.48,1.48,0,0,0,.51,1.2A1.959,1.959,0,0,0,194.564,62.761ZM202.949,64h-1.626V50.5h1.626ZM42.386,105.806a13.589,13.589,0,0,1,.532-3.814A11.081,11.081,0,0,1,44.5,98.669a6.749,6.749,0,0,1,2.188-2.109l.334,1.072a7,7,0,0,0-2.1,3.006,13.031,13.031,0,0,0-.9,4.526l-.009.747a13.1,13.1,0,0,0,1.239,5.889,7.033,7.033,0,0,0,1.775,2.338l-.334.993a6.966,6.966,0,0,1-2.232-2.18A12.217,12.217,0,0,1,42.386,105.806Zm13.649-1.96h-7.33v-1.415h7.33Zm0,3.647h-7.33v-1.406h7.33Zm6.2-1.6a13.6,13.6,0,0,1-.514,3.757,11.11,11.11,0,0,1-1.573,3.318,6.893,6.893,0,0,1-2.219,2.162l-.343-.993a7.066,7.066,0,0,0,2.175-3.221,13.935,13.935,0,0,0,.839-4.847v-.281a14.469,14.469,0,0,0-.387-3.432,11.583,11.583,0,0,0-1.077-2.843,6.567,6.567,0,0,0-1.551-1.96l.343-.993a6.866,6.866,0,0,1,2.21,2.145,11.134,11.134,0,0,1,1.573,3.313A13.909,13.909,0,0,1,62.232,105.894ZM78.457,98.2v8.7a4.082,4.082,0,0,1-1.138,2.962,4.586,4.586,0,0,1-3.063,1.292l-.448.018a4.79,4.79,0,0,1-3.349-1.134,4.055,4.055,0,0,1-1.266-3.12V98.2h1.67v8.666a2.669,2.669,0,0,0,2.944,2.927A2.959,2.959,0,0,0,76,109.031a2.921,2.921,0,0,0,.76-2.153V98.2ZM82.4,101.49l.053,1.2a3.465,3.465,0,0,1,2.848-1.371q3.015,0,3.041,3.4V111H86.718v-6.293a2.189,2.189,0,0,0-.47-1.521,1.884,1.884,0,0,0-1.437-.492,2.347,2.347,0,0,0-1.389.422,2.865,2.865,0,0,0-.932,1.107V111H80.865v-9.51ZM92.563,111H90.937v-9.51h1.626ZM90.805,98.968a.971.971,0,0,1,.242-.668.907.907,0,0,1,.716-.272.922.922,0,0,1,.721.272.96.96,0,0,1,.246.668.929.929,0,0,1-.246.659.938.938,0,0,1-.721.264.924.924,0,0,1-.716-.264A.938.938,0,0,1,90.805,98.968Zm3.964,7.2a5.571,5.571,0,0,1,1.037-3.52,3.529,3.529,0,0,1,5.361-.189V97.5h1.626V111H101.3l-.079-1.02a3.311,3.311,0,0,1-2.716,1.2,3.248,3.248,0,0,1-2.694-1.354,5.634,5.634,0,0,1-1.042-3.533Zm1.626.185a4.218,4.218,0,0,0,.668,2.531,2.159,2.159,0,0,0,1.846.914,2.372,2.372,0,0,0,2.259-1.389v-4.368a2.39,2.39,0,0,0-2.241-1.345,2.17,2.17,0,0,0-1.863.923A4.644,4.644,0,0,0,96.4,106.351ZM111.187,111a3.416,3.416,0,0,1-.229-1,3.628,3.628,0,0,1-2.707,1.178,3.357,3.357,0,0,1-2.307-.8,2.573,2.573,0,0,1-.9-2.017,2.688,2.688,0,0,1,1.129-2.307,5.325,5.325,0,0,1,3.177-.822h1.582v-.747a1.826,1.826,0,0,0-.51-1.358,2.049,2.049,0,0,0-1.5-.505,2.371,2.371,0,0,0-1.459.439,1.3,1.3,0,0,0-.589,1.063h-1.635a2.244,2.244,0,0,1,.505-1.375,3.449,3.449,0,0,1,1.371-1.05,4.613,4.613,0,0,1,1.9-.387,3.759,3.759,0,0,1,2.575.822,2.964,2.964,0,0,1,.967,2.263v4.377a5.351,5.351,0,0,0,.334,2.083V111Zm-2.7-1.239a2.858,2.858,0,0,0,1.45-.4,2.392,2.392,0,0,0,.993-1.028v-1.951h-1.274q-2.988,0-2.988,1.749a1.48,1.48,0,0,0,.51,1.2A1.959,1.959,0,0,0,108.489,109.761Zm6.223-3.595a5.571,5.571,0,0,1,1.037-3.52,3.529,3.529,0,0,1,5.361-.189V97.5h1.626V111h-1.494l-.079-1.02a3.311,3.311,0,0,1-2.716,1.2,3.248,3.248,0,0,1-2.694-1.354,5.634,5.634,0,0,1-1.042-3.533Zm1.626.185a4.218,4.218,0,0,0,.668,2.531,2.159,2.159,0,0,0,1.846.914,2.372,2.372,0,0,0,2.259-1.389v-4.368a2.39,2.39,0,0,0-2.241-1.345,2.17,2.17,0,0,0-1.863.923A4.644,4.644,0,0,0,116.337,106.351Zm12.867,4.825a4.155,4.155,0,0,1-3.146-1.27,4.714,4.714,0,0,1-1.213-3.4v-.3a5.707,5.707,0,0,1,.541-2.527,4.217,4.217,0,0,1,1.512-1.74,3.8,3.8,0,0,1,2.1-.628,3.562,3.562,0,0,1,2.883,1.222,5.289,5.289,0,0,1,1.028,3.5v.677h-6.442a3.38,3.38,0,0,0,.822,2.272,2.583,2.583,0,0,0,2,.866,2.832,2.832,0,0,0,1.459-.352,3.666,3.666,0,0,0,1.046-.932l.993.773A3.993,3.993,0,0,1,129.2,111.176Zm-.2-8.525a2.169,2.169,0,0,0-1.652.716,3.482,3.482,0,0,0-.826,2.008h4.764v-.123a3.1,3.1,0,0,0-.668-1.92A2.042,2.042,0,0,0,129,102.65Zm11.329,5.827a1.2,1.2,0,0,0-.5-1.024,4.78,4.78,0,0,0-1.731-.628,8.186,8.186,0,0,1-1.96-.633,2.788,2.788,0,0,1-1.072-.879,2.1,2.1,0,0,1-.347-1.213,2.467,2.467,0,0,1,.989-1.978,3.861,3.861,0,0,1,2.527-.809,3.974,3.974,0,0,1,2.624.835,2.652,2.652,0,0,1,1.006,2.136h-1.635a1.468,1.468,0,0,0-.567-1.151,2.124,2.124,0,0,0-1.428-.483,2.223,2.223,0,0,0-1.389.387,1.217,1.217,0,0,0-.5,1.011.986.986,0,0,0,.466.888,5.731,5.731,0,0,0,1.683.571,8.77,8.77,0,0,1,1.973.65,2.878,2.878,0,0,1,1.121.91,2.237,2.237,0,0,1,.365,1.3,2.434,2.434,0,0,1-1.02,2.043,4.277,4.277,0,0,1-2.646.769,4.789,4.789,0,0,1-2.021-.4,3.288,3.288,0,0,1-1.375-1.129,2.722,2.722,0,0,1-.5-1.569h1.626a1.683,1.683,0,0,0,.655,1.3,2.54,2.54,0,0,0,1.613.479,2.622,2.622,0,0,0,1.481-.374A1.148,1.148,0,0,0,140.332,108.478ZM154.4,111a3.416,3.416,0,0,1-.229-1,3.628,3.628,0,0,1-2.707,1.178,3.357,3.357,0,0,1-2.307-.8,2.573,2.573,0,0,1-.9-2.017,2.688,2.688,0,0,1,1.129-2.307,5.325,5.325,0,0,1,3.177-.822h1.582v-.747a1.826,1.826,0,0,0-.51-1.358,2.049,2.049,0,0,0-1.5-.505,2.371,2.371,0,0,0-1.459.439,1.3,1.3,0,0,0-.589,1.063h-1.635a2.244,2.244,0,0,1,.505-1.375,3.449,3.449,0,0,1,1.371-1.05,4.613,4.613,0,0,1,1.9-.387,3.759,3.759,0,0,1,2.575.822,2.964,2.964,0,0,1,.967,2.263v4.377a5.351,5.351,0,0,0,.334,2.083V111Zm-2.7-1.239a2.858,2.858,0,0,0,1.45-.4,2.392,2.392,0,0,0,.993-1.028v-1.951h-1.274q-2.988,0-2.988,1.749a1.48,1.48,0,0,0,.51,1.2A1.959,1.959,0,0,0,151.7,109.761Zm19.107-3.41a5.694,5.694,0,0,1-.993,3.5,3.183,3.183,0,0,1-2.689,1.327,3.488,3.488,0,0,1-2.725-1.1v4.579h-1.626V101.49h1.485l.079,1.055a3.35,3.35,0,0,1,2.76-1.23,3.243,3.243,0,0,1,2.711,1.292,5.756,5.756,0,0,1,1,3.595Zm-1.626-.185a4.2,4.2,0,0,0-.686-2.54,2.208,2.208,0,0,0-1.881-.932A2.39,2.39,0,0,0,164.4,104v4.544a2.4,2.4,0,0,0,2.232,1.3,2.2,2.2,0,0,0,1.859-.927A4.587,4.587,0,0,0,169.186,106.166Zm8.288-3.217a4.873,4.873,0,0,0-.8-.062,2.143,2.143,0,0,0-2.171,1.362V111h-1.626v-9.51h1.582l.026,1.1a2.532,2.532,0,0,1,2.268-1.274,1.661,1.661,0,0,1,.721.123Zm.888,3.208a5.617,5.617,0,0,1,.549-2.514,4.1,4.1,0,0,1,1.529-1.723,4.163,4.163,0,0,1,2.237-.606,4.01,4.01,0,0,1,3.142,1.345,5.174,5.174,0,0,1,1.2,3.577v.114a5.666,5.666,0,0,1-.532,2.492,4.038,4.038,0,0,1-1.521,1.718,4.211,4.211,0,0,1-2.272.615,4,4,0,0,1-3.133-1.345,5.147,5.147,0,0,1-1.2-3.56Zm1.635.193a4.068,4.068,0,0,0,.734,2.54,2.487,2.487,0,0,0,3.933-.013,4.449,4.449,0,0,0,.729-2.72,4.061,4.061,0,0,0-.743-2.536,2.361,2.361,0,0,0-1.973-.971,2.335,2.335,0,0,0-1.942.958A4.416,4.416,0,0,0,180,106.351Zm8.666-.185a5.571,5.571,0,0,1,1.037-3.52,3.529,3.529,0,0,1,5.361-.189V97.5h1.626V111h-1.494l-.079-1.02a3.311,3.311,0,0,1-2.716,1.2,3.248,3.248,0,0,1-2.694-1.354,5.634,5.634,0,0,1-1.042-3.533Zm1.626.185a4.218,4.218,0,0,0,.668,2.531,2.159,2.159,0,0,0,1.846.914,2.372,2.372,0,0,0,2.259-1.389v-4.368a2.39,2.39,0,0,0-2.241-1.345,2.17,2.17,0,0,0-1.863.923A4.644,4.644,0,0,0,190.289,106.351Zm14.792,3.709a3.454,3.454,0,0,1-2.786,1.116,2.956,2.956,0,0,1-2.316-.883,3.823,3.823,0,0,1-.8-2.615V101.49H200.8v6.144q0,2.162,1.758,2.162a2.434,2.434,0,0,0,2.479-1.389V101.49h1.626V111h-1.547Zm7.866-.211a2.342,2.342,0,0,0,1.521-.527,1.855,1.855,0,0,0,.721-1.318h1.538a2.949,2.949,0,0,1-.562,1.556,3.7,3.7,0,0,1-1.384,1.178,3.994,3.994,0,0,1-1.833.439,3.918,3.918,0,0,1-3.089-1.3,5.163,5.163,0,0,1-1.147-3.546v-.272a5.725,5.725,0,0,1,.51-2.47,3.883,3.883,0,0,1,1.463-1.679,4.157,4.157,0,0,1,2.254-.6,3.814,3.814,0,0,1,2.659.958,3.424,3.424,0,0,1,1.129,2.487h-1.538a2.241,2.241,0,0,0-.7-1.516,2.174,2.174,0,0,0-1.551-.593,2.276,2.276,0,0,0-1.92.892,4.19,4.19,0,0,0-.681,2.58v.308a4.106,4.106,0,0,0,.677,2.531A2.287,2.287,0,0,0,212.947,109.849ZM220.321,111h-1.626v-9.51h1.626Zm-1.758-12.032a.971.971,0,0,1,.242-.668.907.907,0,0,1,.716-.272.922.922,0,0,1,.721.272.96.96,0,0,1,.246.668.929.929,0,0,1-.246.659.938.938,0,0,1-.721.264.924.924,0,0,1-.716-.264A.938.938,0,0,1,218.563,98.968Zm8.956,3.981a4.873,4.873,0,0,0-.8-.062,2.143,2.143,0,0,0-2.171,1.362V111h-1.626v-9.51H224.5l.026,1.1a2.532,2.532,0,0,1,2.268-1.274,1.661,1.661,0,0,1,.721.123Z" transform="translate(-9935 -6018.467)" fill="#00223d"/>
    </g>
  </g>
</svg>
