<svg xmlns="http://www.w3.org/2000/svg" width="505" height="367.482" viewBox="0 0 505 367.482">
  <g id="Coronavirus_Delivery_Preventions-pana" data-name="Coronavirus Delivery Preventions-pana" transform="translate(-100.59 -38)">
    <g id="freepik--background-complete--inject-37" transform="translate(100.59 45.376)">
      <rect id="Rectángulo_28829" data-name="Rectángulo 28829" width="108.12" height="194.226" transform="translate(353.997 5.298)" fill="#ebebeb"/>
      <rect id="Rectángulo_28830" data-name="Rectángulo 28830" width="98.359" height="182.802" transform="translate(358.318 10.936)" fill="#fafafa"/>
      <path id="Trazado_113123" data-name="Trazado 113123" d="M663.36,248.608l-4.57-1.755V49.34h4.57Z" transform="translate(-196.674 -47.328)" fill="#e0e0e0"/>
      <rect id="Rectángulo_28831" data-name="Rectángulo 28831" width="100.495" height="1.945" transform="translate(358.318 63.522)" fill="#e0e0e0"/>
      <rect id="Rectángulo_28832" data-name="Rectángulo 28832" width="100.495" height="1.945" transform="translate(358.318 107.052)" fill="#e0e0e0"/>
      <rect id="Rectángulo_28833" data-name="Rectángulo 28833" width="100.495" height="1.945" transform="translate(358.318 150.589)" fill="#e0e0e0"/>
      <rect id="Rectángulo_28834" data-name="Rectángulo 28834" width="134.429" height="4.967" transform="translate(405.01 198.92) rotate(-90)" fill="#e0e0e0"/>
      <rect id="Rectángulo_28835" data-name="Rectángulo 28835" width="2.252" height="53.563" transform="translate(387.853 10.936)" fill="#e0e0e0"/>
      <rect id="Rectángulo_28836" data-name="Rectángulo 28836" width="2.252" height="53.563" transform="translate(396.673 10.936)" fill="#e0e0e0"/>
      <rect id="Rectángulo_28837" data-name="Rectángulo 28837" width="2.252" height="53.563" transform="translate(416.095 10.936)" fill="#e0e0e0"/>
      <rect id="Rectángulo_28838" data-name="Rectángulo 28838" width="2.252" height="53.563" transform="translate(435.509 10.936)" fill="#e0e0e0"/>
      <rect id="Rectángulo_28839" data-name="Rectángulo 28839" width="4.57" height="198.722" transform="translate(362.228 2.012)" fill="#e0e0e0"/>
      <rect id="Rectángulo_28840" data-name="Rectángulo 28840" width="117.259" height="5.298" transform="translate(349.427)" fill="#e0e0e0"/>
      <rect id="Rectángulo_28841" data-name="Rectángulo 28841" width="123.601" height="4.934" transform="translate(346.182 201.925)" fill="#e0e0e0"/>
      <path id="Trazado_113124" data-name="Trazado 113124" d="M634.685,287.92l7.666,2.4H518.75l7.815-2.4Z" transform="translate(-172.568 -88.395)" fill="#e0e0e0"/>
      <rect id="Rectángulo_28842" data-name="Rectángulo 28842" width="33.413" height="8.842" transform="translate(14.289 247.202)" fill="#ebebeb"/>
      <path id="Trazado_113125" data-name="Trazado 113125" d="M78.17,365.554a1.235,1.235,0,0,1,0-.157V363.2c0-1.523,0-3.717-.058-6.482l.1.1-33.446.1.166-.166h0v8.833l-.166-.166,23.81.074,7.029.05h.083l-6.987.041-23.934.074H44.6V356.72h0c.339-.348.091-.1.174-.174l33.4.066h.108v.108c0,2.79,0,4.967-.058,6.54v2.152C78.228,365.52,78.178,365.562,78.17,365.554Z" transform="translate(-44.6 -100.205)" fill="#e0e0e0"/>
      <path id="Trazado_113126" data-name="Trazado 113126" d="M86.9,67.669V65.318c0-1.523,0-3.717-.058-6.482l.1.1L53.534,59l.166-.166h0v8.833l-.174-.166,23.818.075,7.029.05h.075l-6.987.041-23.934.075H53.36v-8.9h0l.174-.174,33.4.066H87v.108c0,2.79,0,4.967-.058,6.54v2.152C86.947,67.644,86.905,67.677,86.9,67.669Z" transform="translate(-46.108 -48.934)" fill="#e0e0e0"/>
      <path id="Trazado_113127" data-name="Trazado 113127" d="M703.47,348.991a1.219,1.219,0,0,1,0-.157V346.64c0-1.532,0-3.725-.058-6.491l.1.108-33.413.066c.083-.075-.166.166.174-.174h0v8.825l-.166-.166,23.81.074,7.029.05H701l-7.012.174-23.925.075H669.9v-9.016h0l.166-.166,33.413.066h.108v.1c0,2.8-.05,5.009-.058,6.548v2.152C703.528,348.982,703.478,348.991,703.47,348.991Z" transform="translate(-198.586 -97.36)" fill="#e0e0e0"/>
      <path id="Trazado_113128" data-name="Trazado 113128" d="M166.03,129.807a1.233,1.233,0,0,1,0-.157v-2.194c0-1.532,0-3.717-.05-6.49l.1.108-33.413.066.174-.174h0v8.825l-.166-.166,23.81.075,7.029.05h.083l-7,.05-23.925.075h-.166v-8.908h0l.174-.166,33.413.066h.108v.1c0,2.8-.05,4.967-.058,6.548v2.152a.712.712,0,0,1-.116.141Z" transform="translate(-59.732 -59.629)" fill="#e0e0e0"/>
      <path id="Trazado_113129" data-name="Trazado 113129" d="M174.308,119.122a1.3,1.3,0,0,1,0-.166c0-.124,0-.281,0-.464v-1.78c0-1.548,0-3.734-.066-6.424l.124.116-20.076.05c-.149.157.207-.207.174-.166h0v8.817l-.166-.157,14.364.075,4.181.05h1.532a1.847,1.847,0,0,1-.364,0h-1.093l-4.139.05-14.471.075h-.157v-8.891h0c-.041,0,.323-.323.166-.174l20.076.05h.124v.124c0,2.724-.05,4.967-.066,6.5v1.747a4.965,4.965,0,0,1-.141.571Z" transform="translate(-71.373 -57.786)" fill="#e0e0e0"/>
      <path id="Trazado_113130" data-name="Trazado 113130" d="M697.909,126.288a.751.751,0,0,1,0-.166v-2.194c0-1.523,0-3.717-.058-6.482l.108.1-33.413.075c.075-.083-.174.166.166-.174h0v8.825l-.166-.166,23.81.075h7.1l-6.987.05-23.925.075h-.166v-8.991h0l.174-.174,33.413.066h.042v.108c0,2.79,0,4.967-.058,6.548v2.268A.507.507,0,0,0,697.909,126.288Z" transform="translate(-197.636 -58.999)" fill="#e0e0e0"/>
      <path id="Trazado_113131" data-name="Trazado 113131" d="M706.136,115.587a.744.744,0,0,1,0-.166v-2.244c0-1.548,0-3.742-.066-6.433l.124.124-20.134.017c-.149.149.207-.207.166-.174h0v8.825l-.157-.166,14.364.083H705.7a2.368,2.368,0,0,1,.406,0,1.657,1.657,0,0,1-.364,0h-5.232l-14.471.083h-.166v-8.991h0s.323-.323.174-.166l20.076.041h.124v.116c0,2.724-.05,4.967-.066,6.507v1.747a5.125,5.125,0,0,1-.041.795Z" transform="translate(-201.335 -57.139)" fill="#e0e0e0"/>
      <rect id="Rectángulo_28843" data-name="Rectángulo 28843" width="33.413" height="8.842" transform="translate(14.123 131.764)" fill="#e0e0e0"/>
      <rect id="Rectángulo_28844" data-name="Rectángulo 28844" width="33.413" height="8.842" transform="translate(38.148 113.608)" fill="#ebebeb"/>
      <path id="Trazado_113132" data-name="Trazado 113132" d="M107.029,204.168a.555.555,0,0,1,0-.166v-2.194c0-1.523,0-3.717-.058-6.482l.108.1-33.413.066.166-.166h0v8.825l-.166-.174,23.81.083h7.1l-6.987.05-23.925.075H73.5v-8.991h0l.174-.174,33.413.066h.1v.108c0,2.79,0,5.009-.058,6.548v2.152a.952.952,0,0,1-.1.273Z" transform="translate(-49.575 -72.404)" fill="#e0e0e0"/>
      <rect id="Rectángulo_28845" data-name="Rectángulo 28845" width="33.413" height="8.842" transform="translate(327.434 255.936)" fill="#e0e0e0"/>
      <rect id="Rectángulo_28846" data-name="Rectángulo 28846" width="33.413" height="8.842" transform="translate(349.309 237.781)" fill="#ebebeb"/>
      <path id="Trazado_113133" data-name="Trazado 113133" d="M524.327,354.189v-2.359c0-1.523,0-3.717-.058-6.482l.1.1-33.4.075c.075-.083-.174.166.166-.174h0v8.825l-.174-.166,23.818.074,7.029.041h.074l-6.987.05-23.934.074h-.166v-8.883h0l.174-.174,33.4.066h.108v.108c0,2.79,0,5.009-.058,6.548v2.152C524.418,354.181,524.335,354.189,524.327,354.189Z" transform="translate(-154.478 -98.253)" fill="#e0e0e0"/>
      <path id="Trazado_113134" data-name="Trazado 113134" d="M200.6,293.6a1.473,1.473,0,0,1,0-.166v-2.194c0-1.523,0-3.717-.05-6.482l.1.1-33.413.066c.074-.074-.166.174.174-.166h0v8.825l-.166-.174,23.809.083,7.029.041h2.4a.832.832,0,0,1,.174,0h-2.492l-7,.05-23.925.074H167v-8.883h0c.339-.339.091-.1.166-.174l33.413.066h.108v.108c0,2.79-.05,4.967-.058,6.548v2.152a.951.951,0,0,1-.025.124Z" transform="translate(-74.742 -87.821)" fill="#e0e0e0"/>
      <path id="Trazado_113135" data-name="Trazado 113135" d="M208.869,282.9v-2.409c0-1.548,0-3.742-.066-6.433l.124.124-20.076.05.174-.174h0v8.825l-.166-.166,14.364.083,4.181.041h1.532a2.753,2.753,0,0,1-.364,0h-1.093l-4.139.041-14.471.074h-.157v-8.991h0l.166-.166h20.2v.124c0,2.724-.05,4.967-.066,6.507v1.747a5.124,5.124,0,0,1-.141.72Z" transform="translate(-79.82 -85.965)" fill="#e0e0e0"/>
    </g>
    <g id="freepik--Floor--inject-37" transform="translate(145.075 396.062)">
      <path id="Trazado_113136" data-name="Trazado 113136" d="M490.135,470.725c0,.116-101.29.215-226.207.215s-226.228-.1-226.228-.215,101.263-.215,226.228-.215S490.135,470.6,490.135,470.725Z" transform="translate(-37.7 -470.51)" fill="#263238"/>
    </g>
    <g id="freepik--Character--inject-37" transform="translate(420.268 84.187)">
      <path id="Trazado_113137" data-name="Trazado 113137" d="M662.521,433.6l5.315,21.119L676.86,470.2a2.235,2.235,0,0,1-.935,3.129h0a2.235,2.235,0,0,1-2.037,0c-4.057-2.186-18.925-10.307-19.223-11.872-.356-1.813-7.095-21.9-7.095-21.9Z" transform="translate(-514.42 -152.282)" fill="#dcb898"/>
      <g id="Grupo_60092" data-name="Grupo 60092" transform="translate(139.847 307.727)" opacity="0.6">
        <path id="Trazado_113138" data-name="Trazado 113138" d="M677.317,478.82,655.66,465.5l.248.886a3.362,3.362,0,0,0,1.349,1.888c1.763,1.2,6.714,4.4,17.956,10.531a2.227,2.227,0,0,0,2.1,0Z" transform="translate(-655.66 -465.5)" fill="#fff"/>
      </g>
      <g id="Grupo_60093" data-name="Grupo 60093" transform="translate(140.627 299.712)" opacity="0.6">
        <path id="Trazado_113139" data-name="Trazado 113139" d="M658.264,455.869a1.349,1.349,0,0,1,.828,1.606,1.291,1.291,0,0,1-1.573.828,1.424,1.424,0,0,1-.869-1.7,1.35,1.35,0,0,1,1.739-.687" transform="translate(-656.602 -455.818)" fill="#fff"/>
      </g>
      <path id="Trazado_113140" data-name="Trazado 113140" d="M672.983,471.408a7.044,7.044,0,0,1,1.391-2.144,6.624,6.624,0,0,1,2.293-1.126c0-.058-.306-.149-.828-.083a3.568,3.568,0,0,0-2.848,2.533C672.842,471.085,672.9,471.408,672.983,471.408Z" transform="translate(-518.78 -158.209)" fill="#263238"/>
      <path id="Trazado_113141" data-name="Trazado 113141" d="M675.705,474.513c.124.058.613-.828,1.606-1.416a17.71,17.71,0,0,1,1.979-.828,2.484,2.484,0,0,0-2.227.431C675.945,473.4,675.581,474.513,675.705,474.513Z" transform="translate(-519.259 -158.921)" fill="#263238"/>
      <path id="Trazado_113142" data-name="Trazado 113142" d="M668.4,467.871a11.491,11.491,0,0,1,5.249-3.941A6.093,6.093,0,0,0,668.4,467.871Z" transform="translate(-518.006 -157.503)" fill="#263238"/>
      <path id="Trazado_113143" data-name="Trazado 113143" d="M665.8,460.7c.091.108,1.118-.7,2.608-1.167s2.79-.439,2.8-.58a4.192,4.192,0,0,0-2.947.124A4.33,4.33,0,0,0,665.8,460.7Z" transform="translate(-517.558 -156.613)" fill="#263238"/>
      <path id="Trazado_113144" data-name="Trazado 113144" d="M663.719,453.268a10.765,10.765,0,0,1,2.691-1.283,11.07,11.07,0,0,1,2.972-.074c0-.05-.281-.248-.828-.4a4.818,4.818,0,0,0-4.247,1.018C663.86,452.912,663.677,453.226,663.719,453.268Z" transform="translate(-517.199 -155.342)" fill="#263238"/>
      <path id="Trazado_113145" data-name="Trazado 113145" d="M665.735,449.836a2.035,2.035,0,0,0-.19-.828,5.92,5.92,0,0,0-1.209-1.9,2.541,2.541,0,0,0-1.366-.878.911.911,0,0,0-.927.464,1.515,1.515,0,0,0-.066,1.043,3.146,3.146,0,0,0,3.444,2.07,3.634,3.634,0,0,0,2.947-2.8,1.25,1.25,0,0,0-.224-1.035.828.828,0,0,0-1.01-.2,3.121,3.121,0,0,0-1.184,1.093,6.459,6.459,0,0,0-.977,2.028,2.044,2.044,0,0,0-.124.828,9.935,9.935,0,0,1,1.374-2.641,2.93,2.93,0,0,1,1.051-.935.48.48,0,0,1,.555.108.877.877,0,0,1,.108.687,3.312,3.312,0,0,1-2.591,2.4A2.732,2.732,0,0,1,662.4,447.6a1.06,1.06,0,0,1,0-.72.488.488,0,0,1,.505-.265,2.251,2.251,0,0,1,1.175.72A8.535,8.535,0,0,1,665.735,449.836Z" transform="translate(-516.889 -154.361)" fill="#263238"/>
      <path id="Trazado_113146" data-name="Trazado 113146" d="M576.262,437.511l1.176,17.733s-17.65,5.861-17.758,9.164l34.5.248-.7-27.717Z" transform="translate(-499.292 -152.857)" fill="#dcb898"/>
      <g id="Grupo_60094" data-name="Grupo 60094" transform="translate(87.178 300.574)" opacity="0.6">
        <path id="Trazado_113147" data-name="Trazado 113147" d="M593.663,456.86a1.415,1.415,0,0,1,1.018,1.581,1.358,1.358,0,0,1-1.556,1.027,1.49,1.49,0,0,1-1.068-1.656,1.4,1.4,0,0,1,1.73-.886" transform="translate(-592.04 -456.86)" fill="#fff"/>
      </g>
      <g id="Grupo_60095" data-name="Grupo 60095" transform="translate(60.198 309.002)" opacity="0.6">
        <path id="Trazado_113148" data-name="Trazado 113148" d="M594.138,469.838l-.066-2.8-33.338.927a2.359,2.359,0,0,0-1.283,1.871Z" transform="translate(-559.45 -467.04)" fill="#fff"/>
      </g>
      <path id="Trazado_113149" data-name="Trazado 113149" d="M580.45,458.823c0,.174.828.224,1.656.737s1.308,1.209,1.465,1.142-.132-1.035-1.159-1.656S580.408,458.674,580.45,458.823Z" transform="translate(-502.866 -156.593)" fill="#263238"/>
      <path id="Trazado_113150" data-name="Trazado 113150" d="M576.14,460.785c0,.166.7.43,1.292,1.126s.786,1.44.952,1.432.248-.969-.505-1.821S576.14,460.628,576.14,460.785Z" transform="translate(-502.125 -156.949)" fill="#263238"/>
      <path id="Trazado_113151" data-name="Trazado 113151" d="M573.523,465.513c.149,0,.356-.828-.1-1.73s-1.258-1.25-1.325-1.109.43.621.828,1.374S573.349,465.5,573.523,465.513Z" transform="translate(-501.428 -157.281)" fill="#263238"/>
      <path id="Trazado_113152" data-name="Trazado 113152" d="M580.669,453.8c.075.157.828-.1,1.8-.066s1.705.315,1.788.166-.654-.72-1.772-.753S580.577,453.68,580.669,453.8Z" transform="translate(-502.903 -155.647)" fill="#263238"/>
      <g id="Grupo_60096" data-name="Grupo 60096" transform="translate(77.211 287.809)" opacity="0.3">
        <path id="Trazado_113153" data-name="Trazado 113153" d="M580,441.8l.207,3.162,16.938-.671-.066-2.848Z" transform="translate(-580 -441.44)"/>
      </g>
      <path id="Trazado_113154" data-name="Trazado 113154" d="M580.46,449.014a3.311,3.311,0,0,0,1.73-.066,7.992,7.992,0,0,0,1.788-.6,7.394,7.394,0,0,0,.977-.563,1.871,1.871,0,0,0,.505-.422.729.729,0,0,0,.05-.894.927.927,0,0,0-.745-.364,2.335,2.335,0,0,0-.646.108,6.409,6.409,0,0,0-1.06.406,5.9,5.9,0,0,0-1.565,1.093c-.778.762-1.027,1.4-.969,1.432s.447-.488,1.242-1.126a6.981,6.981,0,0,1,1.515-.911,6.885,6.885,0,0,1,.985-.339c.356-.1.671-.116.77.041s0,.091,0,.2a1.891,1.891,0,0,1-.373.306,9.43,9.43,0,0,1-2.55,1.242,12.427,12.427,0,0,0-1.656.464Z" transform="translate(-502.868 -154.433)" fill="#263238"/>
      <path id="Trazado_113155" data-name="Trazado 113155" d="M580.241,448.776a2.8,2.8,0,0,0,.406-1.656,5.67,5.67,0,0,0-.3-1.888,6.011,6.011,0,0,0-.472-1.035,1.424,1.424,0,0,0-1.126-.828.828.828,0,0,0-.7.5,2.234,2.234,0,0,0-.157.637,3.593,3.593,0,0,0,0,1.159,3.908,3.908,0,0,0,.787,1.763c.7.878,1.416,1.051,1.424.993a12.532,12.532,0,0,1-1.051-1.225,3.965,3.965,0,0,1-.6-1.606,3.625,3.625,0,0,1,0-.993c0-.373.174-.671.315-.637a1.224,1.224,0,0,1,.621.546,6.759,6.759,0,0,1,.455.919,6.507,6.507,0,0,1,.389,1.714C580.308,448.114,580.142,448.751,580.241,448.776Z" transform="translate(-502.418 -153.964)" fill="#263238"/>
      <path id="Trazado_113156" data-name="Trazado 113156" d="M578.822,250.727l52.553-.4,25.4,166.816-21.814,2.765L607.011,282.749l-8.37,137.65-.025.414L575.03,420.4Z" transform="translate(-501.934 -120.735)" fill="#263238"/>
      <path id="Trazado_113157" data-name="Trazado 113157" d="M611.337,282.267a10.761,10.761,0,0,0-.132-2.028c-.124-1.258-.257-2.98-.315-4.893s0-3.651,0-4.9a10.76,10.76,0,0,0,0-2.045,8.494,8.494,0,0,0-.315,2.02,40.878,40.878,0,0,0,.3,9.852A7.681,7.681,0,0,0,611.337,282.267Z" transform="translate(-508.023 -123.846)" fill="#455a64"/>
      <path id="Trazado_113158" data-name="Trazado 113158" d="M605.926,268.976a.474.474,0,0,0-.306-.116,1.333,1.333,0,0,0-.828.257,1.458,1.458,0,1,0,2,2.1,1.54,1.54,0,0,0,.215-1.358,1.35,1.35,0,0,0-.538-.729c-.182-.116-.306-.116-.315-.1a1.477,1.477,0,0,1,.555.911,1.25,1.25,0,0,1-.232,1.027,1.151,1.151,0,0,1-1.937-.662,1.283,1.283,0,0,1,.439-.952A1.515,1.515,0,0,1,605.926,268.976Z" transform="translate(-506.943 -123.925)" fill="#455a64"/>
      <path id="Trazado_113159" data-name="Trazado 113159" d="M622.56,264.919a3.2,3.2,0,0,0,.48.439,8.726,8.726,0,0,0,1.5.944,12.153,12.153,0,0,0,2.484.927,13.65,13.65,0,0,0,3.2.406,14.189,14.189,0,0,0,3.2-.4,12.141,12.141,0,0,0,2.484-.935,8.779,8.779,0,0,0,1.5-.936c.323-.257.5-.414.48-.439s-.778.5-2.111,1.1a13.789,13.789,0,0,1-2.426.828,13.593,13.593,0,0,1-6.217,0,12.549,12.549,0,0,1-2.426-.828C623.338,265.416,622.61,264.853,622.56,264.919Z" transform="translate(-510.115 -123.246)" fill="#455a64"/>
      <path id="Trazado_113160" data-name="Trazado 113160" d="M583.26,268.641a3.635,3.635,0,0,0,1.441.306,10.141,10.141,0,0,0,6.739-1.929A3.642,3.642,0,0,0,592.5,266a13.643,13.643,0,0,1-9.239,2.641Z" transform="translate(-503.35 -123.433)" fill="#455a64"/>
      <path id="Trazado_113161" data-name="Trazado 113161" d="M658.114,422.745a2.306,2.306,0,0,1-.149-.356c-.075-.24-.182-.613-.3-1.1-.232-.977-.546-2.426-.927-4.3-.745-3.75-1.772-9.181-3-15.912-2.484-13.453-5.712-32.055-9.314-52.611s-6.888-39.142-9.256-52.628c-1.217-6.714-2.2-12.153-2.881-15.936-.356-1.863-.629-3.311-.828-4.33-.1-.48-.174-.828-.224-1.126l-.091-.381a2.746,2.746,0,0,0,.041.389c.041.257.108.654.182,1.134.174,1.01.414,2.484.737,4.338.646,3.792,1.581,9.239,2.74,15.961l9.107,52.652c3.593,20.556,6.913,39.15,9.438,52.595,1.258,6.722,2.326,12.153,3.129,15.887S657.956,422.811,658.114,422.745Z" transform="translate(-511.594 -124.82)" fill="#455a64"/>
      <path id="Trazado_113162" data-name="Trazado 113162" d="M582.765,420.525v-5.853c0-1.854,0-4.2.075-6.871s.058-5.729.149-9.107c.132-6.739.389-14.761.778-23.661s.977-18.685,1.73-28.934,1.656-20.018,2.608-28.884,1.888-16.831,2.765-23.52c.414-3.311.828-6.358,1.2-9.016s.687-4.967.96-6.8.464-3.311.6-4.3c.066-.48.116-.828.149-1.126a3.223,3.223,0,0,0,0-.381,1.555,1.555,0,0,1-.075.381c-.075.257-.116.637-.19,1.109-.166,1-.4,2.442-.687,4.288s-.654,4.139-1.035,6.789-.828,5.671-1.267,9.016c-.911,6.681-1.888,14.645-2.856,23.511s-1.863,18.627-2.641,28.893-1.308,20.043-1.7,28.975-.6,16.93-.687,23.677c-.066,3.369-.066,6.416-.091,9.107s0,4.967,0,6.871v5.464A.353.353,0,0,0,582.765,420.525Z" transform="translate(-503.228 -124.479)" fill="#455a64"/>
      <path id="Trazado_113163" data-name="Trazado 113163" d="M516.189,172.875l32.842,9.587,18.4-10.862,13.958,16.557-26.036,11.276a13.569,13.569,0,0,1-11.59-.381L511.47,182.495Z" transform="translate(-490.993 -107.183)" fill="#ffbe9d"/>
      <path id="Trazado_113164" data-name="Trazado 113164" d="M504.474,167.642l-4.065-2.111L489.1,159.644a1.051,1.051,0,0,0-1.308,1.49L495,167.062l-3.047,1.142a2.591,2.591,0,0,0-1.383,1.25l-1.6,3.187s-1.838.2-2.02,1.383,1.192,1.606,1.192,1.606l-.348,1.391a2.351,2.351,0,0,0,.339,1.888h0c1.747.72,3.138-2.947,3.138-2.947l1.871.2,2.037,4.139c2.591.629,1.366-3.46,1.366-3.46l1.142.29c1.142.281,1.739,1.093,3.518,2a18.917,18.917,0,0,0,5.265,1.234l2.583,1.9,7.865-10.754Z" transform="translate(-486.771 -105.113)" fill="#fafafa"/>
      <path id="Trazado_113165" data-name="Trazado 113165" d="M504.439,167.628l.224.041.637.182,2.484.737,9.173,2.8.19.058-.124.157-7.79,10.762-.116.157-.149-.116-2.591-1.9h.1a18.618,18.618,0,0,1-5.1-1.126,15.869,15.869,0,0,1-2.351-1.424,4.81,4.81,0,0,0-1.167-.621c-.422-.116-.894-.224-1.341-.339l.248-.265a6.872,6.872,0,0,1,.281,2.351,1.705,1.705,0,0,1-.563,1.192,1.656,1.656,0,0,1-1.333.182h-.091l-.05-.1c-.646-1.308-1.341-2.7-2.045-4.139l.174.124-1.656-.174h-.232l.224-.132a9.171,9.171,0,0,1-1,1.863,2.74,2.74,0,0,1-1.73,1.3h-.3a1.245,1.245,0,0,1-.29-.075h-.108s-.182-.149-.1-.075h0l-.075-.116-.124-.248a2.657,2.657,0,0,1-.224-1.068,4.424,4.424,0,0,1,.182-1.035l.24-.969.157.265a2.012,2.012,0,0,1-1.118-.753,1.531,1.531,0,0,1-.166-1.349,1.813,1.813,0,0,1,.927-.944,3.907,3.907,0,0,1,1.209-.356l-.166.116,1.01-2.012.5-.985a2.965,2.965,0,0,1,.654-.952,2.715,2.715,0,0,1,.985-.6l1-.381,1.962-.745-.058.339-7.194-5.952h0a1.225,1.225,0,0,1,.174-1.424,1.209,1.209,0,0,1,1.341-.3h0l11.209,5.919,3.038,1.656.786.439a1.292,1.292,0,0,1,.265.166,2.43,2.43,0,0,1-.281-.124l-.828-.389-3.1-1.556L489,159.9h0a.886.886,0,0,0-.977.224.9.9,0,0,0-.116,1.035v-.05l7.227,5.911.257.215-.315.116-1.954.753-1,.381a2.484,2.484,0,0,0-.828.522,2.665,2.665,0,0,0-.571.828l-.5.985-1.01,2.012-.05.1h-.116c-.7.1-1.54.4-1.78,1.027a1.142,1.142,0,0,0,.116.969,1.656,1.656,0,0,0,.869.58l.207.058-.05.2-.24.969a3.536,3.536,0,0,0-.166.927,2.22,2.22,0,0,0,.182.894l.108.2.058.1h0c.091.066-.116-.1-.091-.083h.05a1.518,1.518,0,0,0,.207.05h.207a2.376,2.376,0,0,0,1.424-1.118,8.653,8.653,0,0,0,.944-1.772l.066-.157h.389l1.656.174h.124l.05.1c.7,1.416,1.391,2.806,2.037,4.139l-.141-.108a1.25,1.25,0,0,0,.977-.108,1.316,1.316,0,0,0,.4-.9,6.226,6.226,0,0,0-.265-2.177l-.091-.356.348.091c.464.116.894.215,1.374.348a5.018,5.018,0,0,1,1.267.679,15.84,15.84,0,0,0,2.293,1.391,18.3,18.3,0,0,0,4.967,1.109h.091l2.583,1.912-.265.041c2.989-4.065,5.663-7.691,7.865-10.7l.075.224-9.107-2.931-2.434-.828-.629-.215Z" transform="translate(-486.735 -105.099)" fill="#263238"/>
      <path id="Trazado_113166" data-name="Trazado 113166" d="M496.816,178.417c0,.041-.9-.116-2.434-.339s-3.7-.505-6.25-.72h.041a1.424,1.424,0,0,1-1.316-1.979,2.74,2.74,0,0,1,2.177-1.532c.977-.157,1.871-.207,2.749-.364s1.722-.315,2.484-.522,1.54-.422,2.227-.654a2.335,2.335,0,0,0,.869-.447.6.6,0,0,0,.174-.7,2.21,2.21,0,0,0-.521-.637l-.555-.563c-.348-.356-.646-.646-.9-.878-.513-.455-.828-.646-.828-.679a2.964,2.964,0,0,1,.944.555,11.73,11.73,0,0,1,.96.828l.579.538a2.285,2.285,0,0,1,.613.712.919.919,0,0,1-.232,1.068,2.542,2.542,0,0,1-.977.546c-.7.248-1.44.488-2.244.7s-1.656.4-2.533.546-1.838.224-2.74.373a2.31,2.31,0,0,0-1.863,1.258,1.018,1.018,0,0,0,.869,1.432h0c2.566.248,4.735.579,6.259.878.762.149,1.366.281,1.772.389a2.169,2.169,0,0,1,.679.19Z" transform="translate(-486.737 -106.633)" fill="#263238"/>
      <path id="Trazado_113167" data-name="Trazado 113167" d="M497.788,173.442a3.949,3.949,0,0,1-2.169.29,6.283,6.283,0,0,1-1.142-.149l.2-.116c-.248.563-.447.919-.522.894s0-.43.174-1.018l.041-.132h.157l1.118.075A10.455,10.455,0,0,1,497.788,173.442Z" transform="translate(-488.007 -107.461)" fill="#263238"/>
      <path id="Trazado_113168" data-name="Trazado 113168" d="M583.71,157.07,562.55,173.3l14.835,19.538,18.1-10.274Z" transform="translate(-499.786 -104.682)" fill="#dcb898"/>
      <path id="Trazado_113169" data-name="Trazado 113169" d="M586.038,155.733h0c3.063-1.879,13.652-4.206,13.652-4.206l20.482-2.227,17.766,8.155-7.285,30.573,6.391,57.645-60.973,3.311Z" transform="translate(-502.113 -103.345)" fill="#dcb898"/>
      <rect id="Rectángulo_28847" data-name="Rectángulo 28847" width="10.506" height="2.831" transform="translate(108.231 77.961)" fill="#fafafa"/>
      <path id="Trazado_113170" data-name="Trazado 113170" d="M627.987,190.813H617.44V187.94h10.547Zm-10.506,0h10.464V187.99H617.481Z" transform="translate(-509.234 -109.996)" fill="#263238"/>
      <path id="Trazado_113171" data-name="Trazado 113171" d="M584.926,176.486a25.09,25.09,0,0,1-.306-4.694,26.726,26.726,0,0,1,.132-4.7,25.267,25.267,0,0,1,.306,4.694,26.6,26.6,0,0,1-.132,4.7Z" transform="translate(-503.576 -106.407)" fill="#263238"/>
      <path id="Trazado_113172" data-name="Trazado 113172" d="M625.319,112.2l-2.244,31.749a9.934,9.934,0,0,1-9.868,9.2h0A9.934,9.934,0,0,1,603.33,142.6c.2-3.022.373-5.489.373-5.489s-7.683-1.2-7.774-8.883c-.058-4.437.712-14.513,1.366-22.22a10.067,10.067,0,0,1,10.042-9.222h4.644A14.223,14.223,0,0,1,625.319,112.2Z" transform="translate(-505.531 -94.306)" fill="#ffbe9d"/>
      <path id="Trazado_113173" data-name="Trazado 113173" d="M605.307,144.768a17.849,17.849,0,0,0,10.017-2.848s-2.368,5.53-10.034,4.843Z" transform="translate(-507.142 -102.075)" fill="#eb996e"/>
      <path id="Trazado_113174" data-name="Trazado 113174" d="M599.47,119.444a1.093,1.093,0,0,0,1.051,1.109,1.043,1.043,0,0,0,1.134-.985,1.1,1.1,0,0,0-1.06-1.109,1.043,1.043,0,0,0-1.126.985Z" transform="translate(-506.141 -98.036)" fill="#263238"/>
      <path id="Trazado_113175" data-name="Trazado 113175" d="M599.176,116.991c.132.149.969-.472,2.144-.464s2.045.588,2.177.447-.075-.323-.455-.6a3.03,3.03,0,0,0-1.739-.538,2.848,2.848,0,0,0-1.714.555C599.234,116.668,599.11,116.933,599.176,116.991Z" transform="translate(-506.087 -97.585)" fill="#263238"/>
      <path id="Trazado_113176" data-name="Trazado 113176" d="M613.18,119.453a1.093,1.093,0,0,0,1.06,1.1,1.043,1.043,0,0,0,1.126-.985,1.1,1.1,0,0,0-1.051-1.109,1.052,1.052,0,0,0-1.134.993Z" transform="translate(-508.5 -98.036)" fill="#263238"/>
      <path id="Trazado_113177" data-name="Trazado 113177" d="M613.2,117.261c.132.141.969-.472,2.144-.472s2.045.6,2.177.455-.074-.323-.455-.6a2.972,2.972,0,0,0-1.738-.53,2.906,2.906,0,0,0-1.714.546C613.254,116.938,613.13,117.194,613.2,117.261Z" transform="translate(-508.5 -97.632)" fill="#263238"/>
      <path id="Trazado_113178" data-name="Trazado 113178" d="M607.534,125.675a7.865,7.865,0,0,0-1.912-.339c-.306,0-.588-.091-.638-.3a1.474,1.474,0,0,1,.2-.894c.281-.729.58-1.5.894-2.293a40.076,40.076,0,0,0,2-6.01,39.03,39.03,0,0,0-2.484,5.8c-.3.828-.588,1.581-.828,2.31a1.722,1.722,0,0,0-.157,1.184.778.778,0,0,0,.5.447,2.028,2.028,0,0,0,.513.066,7.038,7.038,0,0,0,1.912.033Z" transform="translate(-507.018 -97.585)" fill="#263238"/>
      <path id="Trazado_113179" data-name="Trazado 113179" d="M612.829,112.367c.116.323,1.292.174,2.682.339s2.484.546,2.691.257c.083-.141-.116-.439-.571-.753a4.686,4.686,0,0,0-4.09-.447C613.036,111.961,612.779,112.218,612.829,112.367Z" transform="translate(-508.439 -96.836)" fill="#263238"/>
      <path id="Trazado_113180" data-name="Trazado 113180" d="M599.184,114.18c.207.273,1.027,0,2,0s1.8.174,2-.108c.083-.132-.05-.4-.406-.654a2.9,2.9,0,0,0-3.22.1C599.209,113.774,599.093,114.056,599.184,114.18Z" transform="translate(-506.086 -97.093)" fill="#263238"/>
      <path id="Trazado_113181" data-name="Trazado 113181" d="M628.238,122.329c.132-.058,5.282-1.565,5.116,3.692s-5.414,4-5.414,3.85S628.238,122.329,628.238,122.329Z" transform="translate(-511.041 -98.661)" fill="#ffbe9d"/>
      <path id="Trazado_113182" data-name="Trazado 113182" d="M630,128.284a1.7,1.7,0,0,0,.248.141.878.878,0,0,0,.679,0,2.26,2.26,0,0,0,1.118-2,3.063,3.063,0,0,0-.215-1.316,1.068,1.068,0,0,0-.671-.729.464.464,0,0,0-.546.232c-.075.149-.041.257-.075.265s-.108-.091-.058-.315a.571.571,0,0,1,.215-.315.7.7,0,0,1,.513-.124,1.291,1.291,0,0,1,.927.828,3.079,3.079,0,0,1,.273,1.482A2.376,2.376,0,0,1,631,128.657a.96.96,0,0,1-.828-.166C630,128.409,629.938,128.293,630,128.284Z" transform="translate(-511.391 -99.011)" fill="#eb996e"/>
      <path id="Trazado_113183" data-name="Trazado 113183" d="M626.811,117.568a2.757,2.757,0,0,0-2.525,1.3c-.348.753-.422,1.6-.762,2.351a1.855,1.855,0,0,1-1.912,1.242,1.656,1.656,0,0,1-1.093-1.2,4.337,4.337,0,0,1,0-1.7c.306-2.484.828-4.884.927-7.351a12.592,12.592,0,0,0-1.556-7.145,6.888,6.888,0,0,0-6.143-3.461c-1.656.132-3.129.985-4.752,1.217a6.449,6.449,0,0,1-5.331-1.78,10.8,10.8,0,0,0-.993-.72,3.022,3.022,0,0,1,.546-1.656c3.22-2.98,9.015-3.808,13.246-2.74a15.332,15.332,0,0,1,10.059,8.055c1.83,3.982,1.292,9.529.281,13.552" transform="translate(-506.691 -94.081)" fill="#263238"/>
      <path id="Trazado_113184" data-name="Trazado 113184" d="M597.47,104.3s20.159-6.482,28.884,10.961a32.886,32.886,0,0,0,1.3-6.706c0-1.565-.935-10.87-10.506-13.8C617.148,94.792,602.719,89.253,597.47,104.3Z" transform="translate(-505.796 -93.79)" fill="#dcb898"/>
      <path id="Trazado_113185" data-name="Trazado 113185" d="M614.994,106.253a4.388,4.388,0,0,1-6.979.637,2.591,2.591,0,0,1-4.893-.257,5.853,5.853,0,0,1-1.962,1.432,2,2,0,0,1-2.235-.472,1.945,1.945,0,0,1,.141-2.31,4.694,4.694,0,0,1,2.037-1.374,14.786,14.786,0,0,1,7.608-1.159,10.249,10.249,0,0,1,6.673,3.634" transform="translate(-505.993 -95.316)" fill="#263238"/>
      <g id="Grupo_60097" data-name="Grupo 60097" transform="translate(91.674)" opacity="0.4">
        <path id="Trazado_113186" data-name="Trazado 113186" d="M597.47,104.3a9.4,9.4,0,0,1,6.416-2.906,25.321,25.321,0,0,1,22.468,13.867,32.886,32.886,0,0,0,1.3-6.706c0-1.565-.935-10.87-10.506-13.8C617.148,94.792,602.719,89.253,597.47,104.3Z" transform="translate(-597.47 -93.79)"/>
      </g>
      <path id="Trazado_113187" data-name="Trazado 113187" d="M623.476,113.313a38.016,38.016,0,0,0-11.747-11.251c-4.628-2.9-12.294-5.8-17.576-7.161A11.54,11.54,0,0,0,589.3,94.4a4.4,4.4,0,0,0-3.6,2.972c-.5,1.987,3.03,5.058,4.694,6.267a53.859,53.859,0,0,0,5.042,2.98s-.041-3.692,5.87-4.454C609.344,101.1,623.476,113.313,623.476,113.313Z" transform="translate(-503.762 -93.882)" fill="#dcb898"/>
      <path id="Trazado_113188" data-name="Trazado 113188" d="M610.165,98.451a19.04,19.04,0,0,0-5.8-1.979,7.714,7.714,0,0,1,1.581-.952,15,15,0,0,1,4.537,1.532Z" transform="translate(-506.984 -94.088)" fill="#e0e0e0"/>
      <path id="Trazado_113189" data-name="Trazado 113189" d="M628.42,122.6a9.311,9.311,0,0,1-1.093.828c-.828.613-1.705,1.242-2.641,1.937a27.464,27.464,0,0,1-3.866,2.591,23.477,23.477,0,0,1,3.609-2.939C626.449,123.474,628.287,122.422,628.42,122.6Z" transform="translate(-509.816 -98.745)" fill="#ebebeb"/>
      <path id="Trazado_113190" data-name="Trazado 113190" d="M629.133,131.859a16.019,16.019,0,0,1-7.053,5.977c-.058-.116,1.747-1.142,3.692-2.8S629.034,131.777,629.133,131.859Z" transform="translate(-510.032 -100.342)" fill="#ebebeb"/>
      <path id="Trazado_113191" data-name="Trazado 113191" d="M595.561,128.75a16.938,16.938,0,0,0,2.624.563c3.808-.207,5.141-1.49,11.358-.166a8.609,8.609,0,0,0,3.055.091,25.9,25.9,0,0,1,3.717-.265l1.2,8.279s-7.376,6.449-14.016,5.729C594.907,142.07,593.9,132.053,595.561,128.75Z" transform="translate(-505.352 -99.774)" fill="#fafafa"/>
      <path id="Trazado_113192" data-name="Trazado 113192" d="M595.565,128.746s-.075.215-.224.6a8.783,8.783,0,0,0-.356,1.8,13.106,13.106,0,0,0,1.2,6.623,9.387,9.387,0,0,0,2.939,3.56,9.521,9.521,0,0,0,5.017,1.656,13.909,13.909,0,0,0,5.8-1.151,27.832,27.832,0,0,0,5.572-3.088c.679-.488,1.341-.977,1.954-1.507v.083c-.422-2.914-.828-5.7-1.192-8.279l.075.066a33.82,33.82,0,0,0-4.388.331,8.642,8.642,0,0,1-2.078-.108c-.662-.124-1.291-.273-1.921-.364a20.059,20.059,0,0,0-3.543-.3,19.389,19.389,0,0,0-3.03.331c-.911.157-1.73.29-2.484.348a5.242,5.242,0,0,1-1.01,0,3.491,3.491,0,0,1-.828-.166c-.985-.232-1.5-.406-1.5-.406a10.042,10.042,0,0,0,5.8.1,17.261,17.261,0,0,1,6.623-.066c.629.083,1.275.232,1.929.356a8.734,8.734,0,0,0,2.037.1,32.439,32.439,0,0,1,4.4-.339h.075V129c.381,2.6.778,5.389,1.2,8.279h0c-.629.53-1.292,1.027-1.97,1.515a28.4,28.4,0,0,1-5.613,3.1,14.024,14.024,0,0,1-5.845,1.151,9.107,9.107,0,0,1-8.08-5.3,13.032,13.032,0,0,1-1.151-6.664,8.514,8.514,0,0,1,.389-1.813A3.789,3.789,0,0,1,595.565,128.746Z" transform="translate(-505.356 -99.77)" fill="#263238"/>
      <path id="Trazado_113193" data-name="Trazado 113193" d="M596.54,134.569a20.308,20.308,0,0,0,18.437-.339,13.453,13.453,0,0,1-3.924,3.543,12.9,12.9,0,0,1-5.977.969,10.646,10.646,0,0,1-4.76-.762,10.952,10.952,0,0,1-3.568-3.436" transform="translate(-505.636 -100.751)" fill="#e0e0e0"/>
      <path id="Trazado_113194" data-name="Trazado 113194" d="M614.29,132.11a10.837,10.837,0,0,1-2.384.621,37.7,37.7,0,0,1-5.9.679,38.908,38.908,0,0,1-5.936-.257,11.209,11.209,0,0,1-2.417-.455,19.2,19.2,0,0,1,2.484.149,51.114,51.114,0,0,0,11.756-.414A18.851,18.851,0,0,1,614.29,132.11Z" transform="translate(-505.827 -100.386)" fill="#e0e0e0"/>
      <path id="Trazado_113195" data-name="Trazado 113195" d="M616.459,136.279a6.54,6.54,0,0,1-1.656,1.656,13.958,13.958,0,0,1-10.58,2.931,6.9,6.9,0,0,1-2.244-.58c0-.066.878.157,2.285.273a15.224,15.224,0,0,0,10.348-2.864C615.8,136.876,616.41,136.23,616.459,136.279Z" transform="translate(-506.573 -101.103)" fill="#e0e0e0"/>
      <path id="Trazado_113196" data-name="Trazado 113196" d="M615.643,134a2.592,2.592,0,0,1-.662.43,14.605,14.605,0,0,1-1.945.9,19.585,19.585,0,0,1-3.063.9,21.408,21.408,0,0,1-3.875.431,22.112,22.112,0,0,1-3.9-.306,18.682,18.682,0,0,1-3.08-.828,14,14,0,0,1-1.979-.828,2.484,2.484,0,0,1-.671-.406c0-.066,1.035.43,2.74.952a22.7,22.7,0,0,0,3.055.712,21.6,21.6,0,0,0,10.663-.952C614.617,134.437,615.6,133.907,615.643,134Z" transform="translate(-505.624 -100.709)" fill="#263238"/>
      <path id="Trazado_113197" data-name="Trazado 113197" d="M610.134,133.91a21.45,21.45,0,0,1-9.794-.406c0-.124,2.194.24,4.893.339S610.125,133.77,610.134,133.91Z" transform="translate(-506.29 -100.622)" fill="#263238"/>
      <path id="Trazado_113198" data-name="Trazado 113198" d="M501.75,244.7V177.57h93.375V244.7l-49.49.414Z" transform="translate(-489.32 -108.211)" fill="#dcb898"/>
      <g id="Grupo_60098" data-name="Grupo 60098" transform="translate(12.43 69.359)" opacity="0.4">
        <rect id="Rectángulo_28848" data-name="Rectángulo 28848" width="93.384" height="67.132"/>
      </g>
      <path id="Trazado_113199" data-name="Trazado 113199" d="M545.635,245.116,501.75,244.7V177.57h43.745Z" transform="translate(-489.32 -108.211)" fill="#dcb898"/>
      <rect id="Rectángulo_28849" data-name="Rectángulo 28849" width="5.82" height="11.648" transform="translate(30.271 69.359)" fill="#263238"/>
      <rect id="Rectángulo_28850" data-name="Rectángulo 28850" width="11.59" height="11.59" transform="translate(15.543 121.672)" fill="#fafafa"/>
      <path id="Trazado_113200" data-name="Trazado 113200" d="M517.12,252.38H505.48V240.79h11.64Zm-11.59,0h11.549V240.79H505.53Z" transform="translate(-489.962 -119.093)" fill="#263238"/>
      <path id="Trazado_113201" data-name="Trazado 113201" d="M635.316,195.789l1.929,15.622L608.27,228.606l4.5,9.934,32.933-13.3c3.99-2.028,7.4-5.025,7.12-9.512l-1.581-21.864Z" transform="translate(-507.655 -111.015)" fill="#ffbe9d"/>
      <path id="Trazado_113202" data-name="Trazado 113202" d="M648.4,159.15a15.73,15.73,0,0,1,5.282,9.413c1.109,6.052,4.876,22.973,4.876,22.973l-19.869,2.351v-4.653c0-.066-1.854-8.726-1.854-8.726l3.7-11.946Z" transform="translate(-512.571 -105.04)" fill="#dcb898"/>
      <path id="Trazado_113203" data-name="Trazado 113203" d="M657.837,195.558a8.617,8.617,0,0,1-1.358.24l-3.717.513c-3.138.414-7.451.96-12.286,1.532l-1.656.2H638.6v-.232c-.331-4.429-.7-8.361-.96-11.193-.132-1.358-.24-2.484-.323-3.311a7.459,7.459,0,0,1-.075-1.225,6.624,6.624,0,0,1,.232,1.209c.124.778.273,1.912.455,3.311.339,2.823.762,6.764,1.1,11.2l-.24-.2,1.656-.2c4.8-.579,9.107-1.076,12.3-1.407l3.734-.381a8.132,8.132,0,0,1,1.358-.058Z" transform="translate(-512.642 -108.987)" fill="#263238"/>
      <path id="Trazado_113204" data-name="Trazado 113204" d="M646.969,160.47c0,.066-.72.373-1.821,1.051a15.862,15.862,0,0,0-6.391,7.567c-.488,1.2-.662,2-.737,1.979a6.558,6.558,0,0,1,.447-2.086A14.157,14.157,0,0,1,645,161.256,6.375,6.375,0,0,1,646.969,160.47Z" transform="translate(-512.776 -105.268)" fill="#263238"/>
      <path id="Trazado_113205" data-name="Trazado 113205" d="M602.851,234.78l-4.255,1.945-1.821-.7-9.289-.579-5.8,1.283-.166.331c0,3.154,5.969,1.912,7.8,2.409s.166,4.4.166,4.4-8.212,10.7-9.645,13.246c-.712,1.283-.48,1.987-.066,2.376a1.233,1.233,0,0,0,1.548.05l3.03-2.144s8.345.488,8.916.207a8.775,8.775,0,0,0,2.028-2.152,63.439,63.439,0,0,1,13.188-9.719Z" transform="translate(-502.684 -118.059)" fill="#fafafa"/>
      <path id="Trazado_113206" data-name="Trazado 113206" d="M602.8,234.78s0,.05.108.166a3.438,3.438,0,0,1,.3.546l1.134,2.136c1,1.912,2.442,4.644,4.23,8.039l.058.124-.124.066a63.746,63.746,0,0,0-13.138,9.8h0a8.849,8.849,0,0,1-1.945,2.128.977.977,0,0,1-.414.149h-2.6c-2-.05-4.048-.141-6.151-.257l.132-.041-1.945,1.333-.993.712a1.54,1.54,0,0,1-1.341.273,1.366,1.366,0,0,1-.96-1.01,2.252,2.252,0,0,1,.166-1.349,13.578,13.578,0,0,1,1.358-2.186c2.881-4.139,5.853-8.03,8.626-11.673v.041a10.473,10.473,0,0,0,.538-1.73,3.825,3.825,0,0,0,.066-1.7.96.96,0,0,0-.414-.6,1.987,1.987,0,0,0-.77-.182c-.571-.058-1.159-.05-1.73-.058a17.211,17.211,0,0,1-3.4-.232,3.659,3.659,0,0,1-1.556-.687,2.086,2.086,0,0,1-.687-1.54h0v-.041l.166-.331v-.074h.083l5.8-1.258h.05l9.28.629h0l1.821.72h-.066l3.2-1.407.828-.356.265-.1-.281.149-.828.4-3.121,1.482H598.5l-1.83-.687h0l-9.289-.53h.041l-5.8,1.308.116-.091-.166.331v-.083a1.722,1.722,0,0,0,.571,1.258,3.146,3.146,0,0,0,1.4.6,16.674,16.674,0,0,0,3.311.215c.579,0,1.159,0,1.763.05a2.425,2.425,0,0,1,.944.232,1.391,1.391,0,0,1,.6.828,4.215,4.215,0,0,1-.05,1.9,11.086,11.086,0,0,1-.563,1.8h0c-2.765,3.651-5.729,7.525-8.6,11.665a14.074,14.074,0,0,0-1.275,2.119,1.9,1.9,0,0,0-.149,1.093.969.969,0,0,0,.662.7,1.117,1.117,0,0,0,.977-.215l1-.712,1.97-1.391.058-.041h.075c2.095.116,4.139.215,6.134.273h2.542a.6.6,0,0,0,.257-.091,8.666,8.666,0,0,0,1.83-2.012h0a63.226,63.226,0,0,1,13.246-9.727l-.058.19-4.048-8.039c-.464-.936-.828-1.656-1.093-2.194l-.281-.58Z" transform="translate(-502.637 -118.059)" fill="#263238"/>
      <path id="Trazado_113207" data-name="Trazado 113207" d="M593.235,253.41a43.748,43.748,0,0,1-3.833,3.709c-1.084,1-2.078,1.9-2.8,2.533a6.621,6.621,0,0,1-1.234.977A28.153,28.153,0,0,1,589.1,256.8,26.394,26.394,0,0,1,593.235,253.41Z" transform="translate(-503.714 -121.265)" fill="#263238"/>
      <path id="Trazado_113208" data-name="Trazado 113208" d="M596.825,255.91a12.154,12.154,0,0,1-2.409,2.914,14.29,14.29,0,0,1-2.856,2.484,19.629,19.629,0,0,1,2.55-2.782,25.71,25.71,0,0,1,2.715-2.616Z" transform="translate(-504.779 -121.696)" fill="#263238"/>
    </g>
    <g id="freepik--Plant--inject-37" transform="translate(123.421 269.058)">
      <path id="Trazado_113209" data-name="Trazado 113209" d="M120.5,436.591c.7-2.691-1.068-5.4-3.047-7.351s-4.346-3.7-5.373-6.284c-1.656-4.189.571-9.6-2.277-13.1-1.656-2.053-4.677-2.74-6.159-4.967a11.275,11.275,0,0,1-1.341-3.916A39.738,39.738,0,0,0,92.37,382.44a34.6,34.6,0,0,0,3.883,17.865c1.159,2.194,2.575,4.33,2.955,6.78.621,3.974-1.606,8.072-.629,11.979,1.118,4.47,6.143,7.451,6.375,12.054.207,3.891-3.187,7.3-2.931,11.185a10.522,10.522,0,0,0,1.73,4.611c3.005,4.967,7.451,8.436,14.074,8.328l8.2.281Z" transform="translate(-92.32 -328.347)" fill="#dcb898"/>
      <g id="Grupo_60099" data-name="Grupo 60099" transform="translate(0 54.093)" opacity="0.3">
        <path id="Trazado_113210" data-name="Trazado 113210" d="M120.5,436.591c.7-2.691-1.068-5.4-3.047-7.351s-4.346-3.7-5.373-6.284c-1.656-4.189.571-9.6-2.277-13.1-1.656-2.053-4.677-2.74-6.159-4.967a11.275,11.275,0,0,1-1.341-3.916A39.738,39.738,0,0,0,92.37,382.44a34.6,34.6,0,0,0,3.883,17.865c1.159,2.194,2.575,4.33,2.955,6.78.621,3.974-1.606,8.072-.629,11.979,1.118,4.47,6.143,7.451,6.375,12.054.207,3.891-3.187,7.3-2.931,11.185a10.522,10.522,0,0,0,1.73,4.611c3.005,4.967,7.451,8.436,14.074,8.328l8.2.281Z" transform="translate(-92.32 -382.44)"/>
      </g>
      <path id="Trazado_113211" data-name="Trazado 113211" d="M134.267,449.907a6.623,6.623,0,0,0,2.26,0,14.071,14.071,0,0,0,2.666-.671,11.367,11.367,0,0,0,3.311-1.8,4.553,4.553,0,0,0,1.349-1.8,8.435,8.435,0,0,0,.389-2.484,22.667,22.667,0,0,1,.19-2.649,7.451,7.451,0,0,1,1-2.641c.969-1.7,2.575-3.311,3.088-5.6a19.554,19.554,0,0,0-.224-7.186c-.381-2.467-.745-5.141.19-7.7s2.682-4.884,3.576-7.774.48-6.052.671-9.148a12.128,12.128,0,0,1,1.068-4.553c.662-1.449,1.581-2.823,2.3-4.346,1.457-3.088,1.714-6.623,2.111-10.017q.281-2.6.588-5.24a24.993,24.993,0,0,1,.911-5.24,44.808,44.808,0,0,1,1.962-5.075,17.016,17.016,0,0,0,.952-2.649,27.543,27.543,0,0,0,.265-2.823,33.373,33.373,0,0,0-.224-5.671c-.224-1.9-.563-3.767-.762-5.663v-.331l-.041-.373-.339.166a12.649,12.649,0,0,0-4.413,3.725,20.158,20.158,0,0,0-2.707,4.967c-1.366,3.527-1.863,7.219-2.55,10.762a29.577,29.577,0,0,1-3.369,9.934c-.9,1.457-1.987,2.79-2.939,4.214a11.59,11.59,0,0,0-2.037,4.669c-.48,3.469,1.432,6.515,1.035,9.587a10.82,10.82,0,0,1-1.5,4.255c-.745,1.308-1.656,2.484-2.484,3.742a24.193,24.193,0,0,0-2.2,3.783,11.9,11.9,0,0,0-1,4.139c-.207,2.765.19,5.389,0,7.865a18.081,18.081,0,0,1-2.02,6.739c-.993,2.012-2.095,3.841-3.022,5.6-.464.886-.886,1.747-1.242,2.616a13.493,13.493,0,0,0-.72,2.591,16.5,16.5,0,0,0-.058,4.677,11.88,11.88,0,0,0,2.343,5.969,6.451,6.451,0,0,0,.671.72,3.419,3.419,0,0,0,.538.455c.3.223.464.323.464.323a10.761,10.761,0,0,1-1.589-1.565,11.83,11.83,0,0,1-2.219-5.928,16.433,16.433,0,0,1,.1-4.611,13.005,13.005,0,0,1,.729-2.533,27.079,27.079,0,0,1,1.25-2.575c.927-1.755,2.045-3.568,3.055-5.6a18.3,18.3,0,0,0,2.095-6.855c.215-2.533-.166-5.166.041-7.865a11.59,11.59,0,0,1,.993-3.965,22.6,22.6,0,0,1,2.177-3.709c.828-1.217,1.714-2.434,2.484-3.767A11.077,11.077,0,0,0,145,396.567c.4-3.27-1.5-6.341-1.01-9.562a11.185,11.185,0,0,1,1.97-4.47c.935-1.4,2.028-2.732,2.947-4.23a29.688,29.688,0,0,0,3.452-10.075c.687-3.535,1.192-7.194,2.533-10.646a19.488,19.488,0,0,1,2.641-4.86,12.145,12.145,0,0,1,4.222-3.576l-.373-.207v.331c.207,1.921.555,3.8.77,5.663a32.468,32.468,0,0,1,.166,5.563,26.317,26.317,0,0,1-.248,2.74,16.825,16.825,0,0,1-.919,2.55,46.539,46.539,0,0,0-1.979,5.133,25.969,25.969,0,0,0-.919,5.331c-.2,1.763-.389,3.51-.588,5.24-.389,3.444-.646,6.888-2.045,9.868-.7,1.482-1.614,2.856-2.293,4.355a12.667,12.667,0,0,0-1.1,4.719c-.174,3.162.232,6.259-.621,9.057s-2.641,5.116-3.543,7.765-.563,5.439-.174,7.89.828,4.868.265,7.045-2.037,3.8-3.022,5.547a7.45,7.45,0,0,0-1.01,2.74,21.735,21.735,0,0,0-.174,2.682,8.088,8.088,0,0,1-.356,2.384,4.371,4.371,0,0,1-1.267,1.722,11.366,11.366,0,0,1-3.187,1.813,14.248,14.248,0,0,1-2.624.712,10.084,10.084,0,0,1-1.656.157Z" transform="translate(-98.834 -322.498)" fill="#263238"/>
      <path id="Trazado_113212" data-name="Trazado 113212" d="M161.04,354.38a.728.728,0,0,0-.083.248c-.05.19-.108.439-.182.737-.157.646-.348,1.614-.662,2.84s-1.06,2.583-1.656,4.28-1.333,3.626-1.954,5.8-1.176,4.611-1.755,7.211a30.2,30.2,0,0,1-2.624,8.005c-.671,1.333-1.432,2.682-2.028,4.139a19.115,19.115,0,0,0-1.184,4.7,93.277,93.277,0,0,1-1.763,9.934c-1.656,6.722-3.212,13.113-4.636,18.942l-3.883,15.448c-1.085,4.371-1.962,7.923-2.575,10.423l-.679,2.848c-.066.3-.116.538-.157.737a1.259,1.259,0,0,0,0,.257.592.592,0,0,1,.091-.24,5.051,5.051,0,0,0,.215-.729c.182-.687.439-1.656.77-2.815.654-2.484,1.59-6.035,2.732-10.39s2.484-9.62,4-15.415,3.013-12.228,4.677-18.95a92.657,92.657,0,0,0,1.763-9.934,18.892,18.892,0,0,1,1.134-4.586c.579-1.44,1.325-2.782,2-4.139a30.231,30.231,0,0,0,2.616-8.13c.563-2.608,1.093-5.033,1.656-7.211a55.312,55.312,0,0,1,1.863-5.8c.629-1.656,1.325-3.071,1.656-4.33s.439-2.21.571-2.873c.05-.3.091-.546.132-.745A1.01,1.01,0,0,0,161.04,354.38Z" transform="translate(-99.703 -323.517)" fill="#263238"/>
      <path id="Trazado_113213" data-name="Trazado 113213" d="M130.715,444.55c5.356-3.179,6.888-12.84,4.661-18.652s-6.151-11.127-6.747-17.327c-.464-4.769,1.093-9.653,0-14.314-1.5-6.284-7.633-11.16-7.567-17.617,0-3.626,2.1-7.037,1.945-10.663-.207-4.437-3.618-7.964-5.729-11.88-3.229-5.985-3.444-13.072-4.545-19.786s-3.667-13.908-9.62-17.211c-.878,5.7-2.384,9.612-1.912,17.336.174,2.773,3.394,8.08,3.833,14.165.265,3.634.447,7.269.662,10.911s.447,7.136,1.714,10.448c.977,2.542,2.542,4.843,3.262,7.451,1.358,4.926-.43,10.266.671,15.258.927,4.23,3.858,7.873,4.454,12.161.828,6.027-3.063,12.286-1.068,18.039.993,2.848,3.311,5.141,4.007,8.088.513,2.285-.05,4.7.422,7,.753,3.7,7.807,6.573,11.59,6.341" transform="translate(-93.834 -317.1)" fill="#dcb898"/>
      <path id="Trazado_113214" data-name="Trazado 113214" d="M105.288,323.94a1.59,1.59,0,0,0,0,.323,9.424,9.424,0,0,0,.116.936c.124.828.265,2.028.546,3.593s1.109,3.311,1.755,5.48,1.358,4.586,1.962,7.335,1.126,5.8,1.656,9.057a36.938,36.938,0,0,0,2.749,10.241c.753,1.714,1.59,3.427,2.227,5.249a23.66,23.66,0,0,1,1.126,5.8A118.678,118.678,0,0,0,119,384.424c1.656,8.453,3.2,16.5,4.619,23.818s2.848,13.875,3.99,19.405,2.078,9.934,2.732,13.072c.323,1.515.579,2.707.762,3.552.091.381.166.687.215.919a1.167,1.167,0,0,0,.091.306,1.29,1.29,0,0,0,0-.315c-.041-.24-.1-.546-.166-.936-.157-.828-.381-2.045-.671-3.568-.613-3.129-1.49-7.6-2.566-13.105s-2.417-12.12-3.874-19.422l-4.578-23.818a117.71,117.71,0,0,1-1.581-12.418,23.711,23.711,0,0,0-1.167-5.894c-.654-1.871-1.507-3.585-2.26-5.282a38.214,38.214,0,0,1-2.757-10.125c-.58-3.262-1.085-6.317-1.722-9.065s-1.333-5.216-2.045-7.343-1.515-3.9-1.838-5.431-.48-2.757-.637-3.568c-.075-.389-.124-.7-.174-.927A1.5,1.5,0,0,0,105.288,323.94Z" transform="translate(-94.551 -318.277)" fill="#263238"/>
    </g>
    <g id="freepik--Doorbell--inject-37" transform="translate(383.804 121.871)">
      <rect id="Rectángulo_28851" data-name="Rectángulo 28851" width="26.608" height="37.295" transform="translate(0)" fill="#455a64"/>
      <rect id="Rectángulo_28852" data-name="Rectángulo 28852" width="26.608" height="4.321" transform="translate(0)" fill="#263238"/>
      <rect id="Rectángulo_28853" data-name="Rectángulo 28853" width="26.608" height="4.321" transform="translate(0 32.974)" fill="#263238"/>
      <rect id="Rectángulo_28854" data-name="Rectángulo 28854" width="16.168" height="8.428" transform="translate(5.191 6.979)" fill="#263238"/>
      <path id="Trazado_113215" data-name="Trazado 113215" d="M461.718,152c-.041,0-.041-.339-.2-.9a3.825,3.825,0,0,0-1.4-2,3.615,3.615,0,1,0-.008,5.8,3.866,3.866,0,0,0,1.391-1.987c.157-.571.157-.911.2-.911s0,.083,0,.248a2.79,2.79,0,0,1-.075.7,3.775,3.775,0,0,1-1.366,2.186,3.907,3.907,0,0,1-3.75.613,3.973,3.973,0,1,1,3.75-6.888,3.767,3.767,0,0,1,1.366,2.194,2.723,2.723,0,0,1,.075.7C461.743,151.92,461.734,152,461.718,152Z" transform="translate(-444.614 -140.81)" fill="#455a64"/>
      <path id="Trazado_113216" data-name="Trazado 113216" d="M450.948,161.709a.629.629,0,1,1-.629-.629.629.629,0,0,1,.629.629Z" transform="translate(-443.895 -143.057)" fill="#263238"/>
      <path id="Trazado_113217" data-name="Trazado 113217" d="M456.678,161.709a.629.629,0,1,1-.629-.629.629.629,0,0,1,.629.629Z" transform="translate(-444.881 -143.057)" fill="#263238"/>
      <path id="Trazado_113218" data-name="Trazado 113218" d="M462.408,161.707a.621.621,0,0,1-.621.621.629.629,0,1,1,.621-.621Z" transform="translate(-445.868 -143.056)" fill="#263238"/>
      <circle id="Elipse_4396" data-name="Elipse 4396" cx="0.629" cy="0.629" r="0.629" transform="translate(5.795 22.038)" fill="#263238"/>
      <path id="Trazado_113219" data-name="Trazado 113219" d="M456.678,166.559a.629.629,0,1,1-.629-.629.629.629,0,0,1,.629.629Z" transform="translate(-444.881 -143.892)" fill="#263238"/>
      <circle id="Elipse_4397" data-name="Elipse 4397" cx="0.629" cy="0.629" r="0.629" transform="translate(15.291 22.038)" fill="#263238"/>
      <circle id="Elipse_4398" data-name="Elipse 4398" cx="0.629" cy="0.629" r="0.629" transform="translate(5.795 26.061)" fill="#263238"/>
      <path id="Trazado_113220" data-name="Trazado 113220" d="M456.678,171.419a.629.629,0,1,1-.629-.629.629.629,0,0,1,.629.629Z" transform="translate(-444.881 -144.729)" fill="#263238"/>
      <circle id="Elipse_4399" data-name="Elipse 4399" cx="0.629" cy="0.629" r="0.629" transform="translate(15.291 26.061)" fill="#263238"/>
      <circle id="Elipse_4400" data-name="Elipse 4400" cx="2.277" cy="2.277" r="2.277" transform="translate(18.577 20.39)" fill="#dcb898"/>
    </g>
    <g id="freepik--Door--inject-37" transform="translate(193.823 38)">
      <rect id="Rectángulo_28855" data-name="Rectángulo 28855" width="15.398" height="358.252" transform="translate(163.224 0.017)" fill="#263238"/>
      <rect id="Rectángulo_28856" data-name="Rectángulo 28856" width="153.33" height="343.143" transform="translate(9.895 15.133)" fill="#455a64"/>
      <rect id="Rectángulo_28857" data-name="Rectángulo 28857" width="14.19" height="358.252" transform="translate(0.002 0.017)" fill="#263238"/>
      <rect id="Rectángulo_28858" data-name="Rectángulo 28858" width="178.621" height="15.117" transform="translate(0.002 0.017)" fill="#263238"/>
      <path id="Trazado_113221" data-name="Trazado 113221" d="M425.886,38a5.463,5.463,0,0,1-.571.6l-1.656,1.523-5.522,4.967c-2.136,1.962-4.048,3.767-5.356,5.141a17.307,17.307,0,0,0-1.465,1.656A4.639,4.639,0,0,0,411,52.4c-.041.124-.066.2-.083.2s0-.075,0-.224a2.408,2.408,0,0,1,.257-.571,12.261,12.261,0,0,1,1.383-1.8,73.87,73.87,0,0,1,5.29-5.257c2.152-1.962,4.139-3.684,5.613-4.9.729-.613,1.333-1.093,1.755-1.424a3.741,3.741,0,0,1,.671-.414Z" transform="translate(-247.239 -38)" fill="#455a64"/>
      <path id="Trazado_113222" data-name="Trazado 113222" d="M227.4,53.451c-.083.075-3.311-3.311-7.252-7.567s-7.02-7.782-6.938-7.865,3.311,3.311,7.252,7.567S227.49,53.368,227.4,53.451Z" transform="translate(-213.208 -38.003)" fill="#455a64"/>
      <rect id="Rectángulo_28859" data-name="Rectángulo 28859" width="10.315" height="45.831" rx="5.158" transform="translate(18.215 171.27)" fill="#263238"/>
      <path id="Trazado_113223" data-name="Trazado 113223" d="M243.274,286.269a1.747,1.747,0,1,0-2.484,1.548v2.061a.778.778,0,0,0,.778.778h0a.778.778,0,0,0,.786-.778v-2.02A1.747,1.747,0,0,0,243.274,286.269Z" transform="translate(-217.782 -80.428)" fill="#455a64"/>
      <rect id="Rectángulo_28860" data-name="Rectángulo 28860" width="28.404" height="5.48" rx="2.74" transform="translate(23.24 186.701)" fill="#263238"/>
      <path id="Trazado_113224" data-name="Trazado 113224" d="M251.487,269.1a3.626,3.626,0,0,1-.869.074l-2.351.1a20.907,20.907,0,0,1-3.51-.116,8.055,8.055,0,0,1-2.045-.513,3.668,3.668,0,0,1-1.78-1.474,2.624,2.624,0,0,1-.108-2.326,1.9,1.9,0,0,1,.778-.828,4.824,4.824,0,0,1,.969-.406,10.868,10.868,0,0,1,3.51-.414c.993,0,1.8.05,2.351.083a3.86,3.86,0,0,1,.828.091,26.813,26.813,0,0,1-3.212.124,11.639,11.639,0,0,0-3.386.488,2.235,2.235,0,0,0-1.49,1.068,2.194,2.194,0,0,0,.108,1.937,3.22,3.22,0,0,0,1.548,1.325,7.377,7.377,0,0,0,1.929.505,24.278,24.278,0,0,0,3.452.215A18.087,18.087,0,0,1,251.487,269.1Z" transform="translate(-217.924 -76.762)" fill="#455a64"/>
      <path id="Trazado_113225" data-name="Trazado 113225" d="M303.158,137.371v-4.115c0-2.666,0-6.548-.05-11.474,0-9.843-.058-23.826-.1-40.458l.19.19H257.667l.215-.215v56.047l-.182-.182,32.982.091,9.231.05h.033l-9.189.05-33.115.091h-.182V81.01h45.955v.19c0,16.682-.074,30.714-.1,40.566,0,4.9,0,8.775-.05,11.433v3.775A1.467,1.467,0,0,1,303.158,137.371Z" transform="translate(-220.825 -45.403)" fill="#263238"/>
      <path id="Trazado_113226" data-name="Trazado 113226" d="M297.074,131.783a1.21,1.21,0,0,1,0-.215c0-.157,0-.356,0-.6v-2.343c0-2.053,0-5.025-.05-8.784,0-7.525-.058-18.213-.1-30.78l.2.19H265.772c-.05,0,.406-.406.215-.207h0v42.693l-.174-.182,22.742.1h6.375l-6.3.05-22.857.091h-.182V89.074h0l.224-.224h31.542v.2c-.041,12.658-.075,23.354-.1,30.913,0,3.734,0,6.689-.05,8.734v2.889C297.074,131.717,297.074,131.783,297.074,131.783Z" transform="translate(-222.225 -46.753)" fill="#263238"/>
      <path id="Trazado_113227" data-name="Trazado 113227" d="M303.16,270.169v-7.823c0-5.083,0-12.476-.058-21.765,0-18.577-.058-44.7-.091-75.162l.2.207H257.677l.215-.215c0,40.806,0,77.82-.058,104.783l-.157-.149,33.247.083h9.14l-9.032.041-33.347.083h-.149v-.083c0-26.972,0-63.978-.066-104.783v-.215h45.922v.207c-.041,30.474-.075,56.684-.1,75.336,0,9.28-.041,16.657-.05,21.723v7.277A.852.852,0,0,1,303.16,270.169Z" transform="translate(-220.827 -59.89)" fill="#263238"/>
      <path id="Trazado_113228" data-name="Trazado 113228" d="M297.055,265.721v-7c0-4.528,0-11.1-.058-19.331,0-16.458-.058-39.564-.1-66.188l.215.207H265.7l.215-.215c0,36.989-.058,70.187-.074,92.523l-.141-.141,23,.074h6.242l-6.159.041-23.081.074h-.149v-.041c0-22.352-.041-55.533-.075-92.523V173h31.782v.207c-.041,26.682-.075,49.838-.1,66.329,0,8.212-.041,14.769-.058,19.281v6.474A1.241,1.241,0,0,1,297.055,265.721Z" transform="translate(-222.206 -61.238)" fill="#263238"/>
      <path id="Trazado_113229" data-name="Trazado 113229" d="M303.16,430.433V422.61c0-5.083,0-12.476-.058-21.765,0-18.577-.058-44.746-.091-75.162l.2.207H257.677l.215-.215c0,40.806,0,77.82-.058,104.783l-.157-.157,33.247.091h9.14l-9.032.041-33.347.083h-.149v-.157c0-26.972,0-63.978-.066-104.783v-.215h45.922v.207c-.041,30.474-.075,56.684-.1,75.336,0,9.28-.041,16.657-.05,21.723V429.9A1.443,1.443,0,0,1,303.16,430.433Z" transform="translate(-220.827 -87.464)" fill="#263238"/>
      <path id="Trazado_113230" data-name="Trazado 113230" d="M297.055,425.967v-7c0-4.528,0-11.1-.058-19.331,0-16.458-.058-39.564-.1-66.188l.215.207H265.7l.215-.215c0,36.989-.058,70.187-.074,92.523l-.141-.141,23,.074h6.242l-6.159.041-23.081.075h-.149v-.141c0-22.352-.041-55.533-.075-92.523v-.215h31.782v.207c-.041,26.682-.075,49.838-.1,66.329,0,8.212-.041,14.769-.058,19.281v6.474A2.886,2.886,0,0,1,297.055,425.967Z" transform="translate(-222.206 -88.801)" fill="#263238"/>
      <path id="Trazado_113231" data-name="Trazado 113231" d="M264.96,140.68a30.559,30.559,0,0,1-3.891,3.452,32.032,32.032,0,0,1-4.139,3.1,65.071,65.071,0,0,1,8.03-6.557Z" transform="translate(-220.734 -55.674)" fill="#263238"/>
      <path id="Trazado_113232" data-name="Trazado 113232" d="M311.451,146.827a18.329,18.329,0,0,1-3.99-2.707A19.224,19.224,0,0,1,304,140.759c.091-.091,1.656,1.358,3.734,3.022S311.5,146.753,311.451,146.827Z" transform="translate(-228.836 -55.687)" fill="#263238"/>
      <path id="Trazado_113233" data-name="Trazado 113233" d="M310.368,83a22.561,22.561,0,0,1-3.436,2.765,22.252,22.252,0,0,1-3.692,2.417,22.634,22.634,0,0,1,3.436-2.765A22.917,22.917,0,0,1,310.368,83Z" transform="translate(-228.705 -45.746)" fill="#263238"/>
      <path id="Trazado_113234" data-name="Trazado 113234" d="M264.428,87.224a15.8,15.8,0,0,1-3.767-2.119,15.465,15.465,0,0,1-3.311-2.765,37.959,37.959,0,0,1,3.568,2.409,36.159,36.159,0,0,1,3.51,2.475Z" transform="translate(-220.806 -45.632)" fill="#263238"/>
      <path id="Trazado_113235" data-name="Trazado 113235" d="M264.209,171.855a15.291,15.291,0,0,1-6.449-7.285c.116-.058,1.159,1.879,2.956,3.883S264.284,171.747,264.209,171.855Z" transform="translate(-220.877 -59.786)" fill="#263238"/>
      <path id="Trazado_113236" data-name="Trazado 113236" d="M310.6,165.35a47.064,47.064,0,0,1-6.739,5.919,23.944,23.944,0,0,1,3.229-3.121A23.123,23.123,0,0,1,310.6,165.35Z" transform="translate(-228.812 -59.921)" fill="#263238"/>
      <path id="Trazado_113237" data-name="Trazado 113237" d="M264.232,285.54c.066.108-1.44,1.2-3.154,2.724s-3,2.889-3.088,2.806a12.476,12.476,0,0,1,2.8-3.129,13.179,13.179,0,0,1,3.444-2.4Z" transform="translate(-220.916 -80.609)" fill="#263238"/>
      <path id="Trazado_113238" data-name="Trazado 113238" d="M309.867,290.7a37.871,37.871,0,0,1-6.027-5.563A20.2,20.2,0,0,1,307,287.764,19.95,19.95,0,0,1,309.867,290.7Z" transform="translate(-228.809 -80.54)" fill="#263238"/>
      <path id="Trazado_113239" data-name="Trazado 113239" d="M264.935,333.413a32.793,32.793,0,0,1-3.825-3.667,33.775,33.775,0,0,1-3.51-3.965,32.8,32.8,0,0,1,3.825,3.667,31.316,31.316,0,0,1,3.51,3.965Z" transform="translate(-220.849 -87.536)" fill="#263238"/>
      <path id="Trazado_113240" data-name="Trazado 113240" d="M310.969,325.383a30.954,30.954,0,0,1-3.485,3.651,29.3,29.3,0,0,1-3.783,3.311,59.6,59.6,0,0,1,7.269-7Z" transform="translate(-228.785 -87.462)" fill="#263238"/>
      <path id="Trazado_113241" data-name="Trazado 113241" d="M263.451,444.62a41.278,41.278,0,0,1-5.671,6.267A41.277,41.277,0,0,1,263.451,444.62Z" transform="translate(-220.88 -107.992)" fill="#263238"/>
      <path id="Trazado_113242" data-name="Trazado 113242" d="M310.39,451.013a17.185,17.185,0,0,1-3.535-2.782,17.535,17.535,0,0,1-3.005-3.311,37.834,37.834,0,0,1,3.312,3.03A36.994,36.994,0,0,1,310.39,451.013Z" transform="translate(-228.81 -108.044)" fill="#263238"/>
      <path id="Trazado_113243" data-name="Trazado 113243" d="M376.326,137.371v-4.115c0-2.666,0-6.548-.05-11.474,0-9.843-.058-23.826-.1-40.458l.19.19H330.876l.215-.215v56.047l-.182-.182,32.991.091,9.222.05h.075l-9.189.05-33.115.091h-.182V81.01h45.914v.19c-.041,16.682-.075,30.714-.1,40.566,0,4.9-.041,8.775-.05,11.433v3.775a1.466,1.466,0,0,1-.149.4Z" transform="translate(-233.434 -45.403)" fill="#263238"/>
      <path id="Trazado_113244" data-name="Trazado 113244" d="M370.224,131.783a1.21,1.21,0,0,1,0-.215c0-.157,0-.356,0-.6v-2.343c0-2.053,0-5.025-.05-8.784,0-7.525-.058-18.213-.1-30.78l.2.19H338.922c-.05,0,.406-.406.215-.207h0v42.693l-.174-.182,22.742.1h6.375l-6.3.05-22.857.091h-.182V89.074h0l.224-.224h31.451v.2c-.041,12.658-.074,23.354-.1,30.913,0,3.734,0,6.689-.05,8.734v2.889A.756.756,0,0,0,370.224,131.783Z" transform="translate(-234.816 -46.753)" fill="#263238"/>
      <path id="Trazado_113245" data-name="Trazado 113245" d="M376.3,270.169v-7.823c0-5.083,0-12.476-.058-21.765,0-18.577-.058-44.7-.091-75.162l.2.207H330.815l.215-.215c0,40.806-.041,77.82-.058,104.783l-.157-.149,33.247.083h11.516l-2.434.041-9.032.041-33.347.083h-.149v-.124c0-26.972-.041-63.978-.066-104.783v-.215h45.922v.207c-.041,30.474-.075,56.684-.1,75.336,0,9.28-.041,16.657-.05,21.723v7.277A2.588,2.588,0,0,1,376.3,270.169Z" transform="translate(-233.406 -59.89)" fill="#263238"/>
      <path id="Trazado_113246" data-name="Trazado 113246" d="M370.2,265.721v-7c0-4.528,0-11.1-.058-19.331,0-16.458-.058-39.564-.1-66.188l.215.207H338.854l.215-.215c0,36.989-.058,70.187-.074,92.523l-.141-.141,23,.074h6.242l-6.151.041-23.089.074H338.7v-.041c0-22.352-.041-55.533-.074-92.523V173H370.4v.207c0,26.682-.074,49.838-.1,66.329,0,8.212,0,14.769-.058,19.281v6.474A1.817,1.817,0,0,1,370.2,265.721Z" transform="translate(-234.797 -61.238)" fill="#263238"/>
      <path id="Trazado_113247" data-name="Trazado 113247" d="M376.319,430.433V422.61c0-5.083,0-12.476-.058-21.765,0-18.577-.058-44.746-.091-75.162l.2.207H330.836l.215-.215c0,40.806-.041,77.82-.058,104.783l-.157-.157,33.247.091h9.181l-9.032.041-33.347.083h-.149v-.157c0-26.972-.041-63.978-.066-104.783v-.215h45.922v.207c-.041,30.474-.074,56.684-.1,75.336,0,9.28-.041,16.657-.05,21.723V429.9A1.032,1.032,0,0,1,376.319,430.433Z" transform="translate(-233.427 -87.464)" fill="#263238"/>
      <path id="Trazado_113248" data-name="Trazado 113248" d="M370.2,425.967v-7c0-4.528,0-11.1-.058-19.331,0-16.458-.058-39.564-.1-66.188l.215.207H338.854l.215-.215c0,36.989-.058,70.187-.074,92.523l-.141-.141,23,.074h6.242l-6.151.041-23.089.075H338.7v-.141c0-22.352-.041-55.533-.074-92.523v-.215H370.4v.207c0,26.682-.074,49.838-.1,66.329,0,8.212,0,14.769-.058,19.281v6.474A4.279,4.279,0,0,1,370.2,425.967Z" transform="translate(-234.797 -88.801)" fill="#263238"/>
      <path id="Trazado_113249" data-name="Trazado 113249" d="M338.11,140.68a30.56,30.56,0,0,1-3.891,3.452,32.03,32.03,0,0,1-4.139,3.1,65.064,65.064,0,0,1,8.03-6.557Z" transform="translate(-233.325 -55.674)" fill="#263238"/>
      <path id="Trazado_113250" data-name="Trazado 113250" d="M384.581,146.827a18.329,18.329,0,0,1-3.99-2.707,19.224,19.224,0,0,1-3.461-3.361c.091-.091,1.656,1.358,3.734,3.022S384.647,146.753,384.581,146.827Z" transform="translate(-241.424 -55.687)" fill="#263238"/>
      <path id="Trazado_113251" data-name="Trazado 113251" d="M383.518,83a22.56,22.56,0,0,1-3.436,2.765,22.253,22.253,0,0,1-3.692,2.417,23.182,23.182,0,0,1,3.436-2.765A22.915,22.915,0,0,1,383.518,83Z" transform="translate(-241.297 -45.746)" fill="#263238"/>
      <path id="Trazado_113252" data-name="Trazado 113252" d="M337.578,87.224a15.8,15.8,0,0,1-3.767-2.119A15.464,15.464,0,0,1,330.5,82.34a37.957,37.957,0,0,1,3.568,2.409,36.155,36.155,0,0,1,3.51,2.475Z" transform="translate(-233.398 -45.632)" fill="#263238"/>
      <path id="Trazado_113253" data-name="Trazado 113253" d="M337.359,171.855a15.291,15.291,0,0,1-6.449-7.285c.116-.058,1.159,1.879,2.955,3.883S337.434,171.747,337.359,171.855Z" transform="translate(-233.468 -59.786)" fill="#263238"/>
      <path id="Trazado_113254" data-name="Trazado 113254" d="M383.731,165.35A47.6,47.6,0,0,1,377,171.269a23.946,23.946,0,0,1,3.229-3.121,23.125,23.125,0,0,1,3.5-2.8Z" transform="translate(-241.402 -59.921)" fill="#263238"/>
      <path id="Trazado_113255" data-name="Trazado 113255" d="M337.382,285.54c.066.108-1.44,1.2-3.154,2.724s-3,2.889-3.088,2.806a12.476,12.476,0,0,1,2.8-3.129,13.179,13.179,0,0,1,3.444-2.4Z" transform="translate(-233.508 -80.609)" fill="#263238"/>
      <path id="Trazado_113256" data-name="Trazado 113256" d="M383.017,290.7a37.866,37.866,0,0,1-6.027-5.563,20.2,20.2,0,0,1,3.162,2.624A19.95,19.95,0,0,1,383.017,290.7Z" transform="translate(-241.4 -80.54)" fill="#263238"/>
      <path id="Trazado_113257" data-name="Trazado 113257" d="M338.085,333.413a32.8,32.8,0,0,1-3.825-3.667,33.767,33.767,0,0,1-3.51-3.965,32.049,32.049,0,0,1,3.825,3.667A31.312,31.312,0,0,1,338.085,333.413Z" transform="translate(-233.441 -87.536)" fill="#263238"/>
      <path id="Trazado_113258" data-name="Trazado 113258" d="M384.119,325.383a30.15,30.15,0,0,1-3.485,3.651,29.3,29.3,0,0,1-3.783,3.312,59.61,59.61,0,0,1,7.269-7Z" transform="translate(-241.376 -87.462)" fill="#263238"/>
      <path id="Trazado_113259" data-name="Trazado 113259" d="M336.6,444.62a41.28,41.28,0,0,1-5.671,6.267,20.56,20.56,0,0,1,2.674-3.311A21.433,21.433,0,0,1,336.6,444.62Z" transform="translate(-233.472 -107.992)" fill="#263238"/>
      <path id="Trazado_113260" data-name="Trazado 113260" d="M383.54,451.013a17.186,17.186,0,0,1-3.535-2.782A17.535,17.535,0,0,1,377,444.92a37.842,37.842,0,0,1,3.311,3.03A36.994,36.994,0,0,1,383.54,451.013Z" transform="translate(-241.402 -108.044)" fill="#263238"/>
    </g>
    <g id="freepik--Box--inject-37" transform="translate(324.462 323.275)">
      <rect id="Rectángulo_28861" data-name="Rectángulo 28861" width="101.546" height="73.001" transform="translate(0)" fill="#dcb898"/>
      <path id="Trazado_113261" data-name="Trazado 113261" d="M402.347,382.59c.141,0,0,15.415,0,15.415H394.83V382.59Z" transform="translate(-375.11 -382.59)" fill="#263238"/>
      <g id="Grupo_60100" data-name="Grupo 60100" transform="translate(50.773)" opacity="0.4">
        <rect id="Rectángulo_28862" data-name="Rectángulo 28862" width="50.773" height="73.001" transform="translate(50.773 73.001) rotate(180)"/>
      </g>
      <rect id="Rectángulo_28863" data-name="Rectángulo 28863" width="13.594" height="9.62" transform="translate(3.096 58.712)" fill="#fafafa"/>
      <path id="Trazado_113262" data-name="Trazado 113262" d="M388.355,463.141H374.72V453.48h13.635Zm-13.594,0h13.552v-9.62H374.761Z" transform="translate(-371.649 -394.792)" fill="#263238"/>
      <rect id="Rectángulo_28864" data-name="Rectángulo 28864" width="6.797" height="9.62" transform="translate(19.198 58.712)" fill="#fafafa"/>
      <path id="Trazado_113263" data-name="Trazado 113263" d="M401.008,463.141H394.17V453.48h6.838Zm-6.789,0h6.747v-9.62H394.22Z" transform="translate(-374.997 -394.792)" fill="#263238"/>
    </g>
  </g>
</svg>
