<svg xmlns="http://www.w3.org/2000/svg" width="363.5" height="154.661" viewBox="0 0 363.5 154.661">
  <g id="Grupo_60194" data-name="Grupo 60194" transform="translate(-326 -11110.715)">
    <rect id="Rectángulo_28933" data-name="Rectángulo 28933" width="363.5" height="71.767" rx="10" transform="translate(326 11110.715)" fill="#dfecf9" opacity="0.5"/>
    <rect id="Rectángulo_28934" data-name="Rectángulo 28934" width="363.5" height="71.767" rx="10" transform="translate(326 11193.609)" fill="#dfecf9" opacity="0.5"/>
    <g id="Grupo_60151" data-name="Grupo 60151" transform="translate(-166 9535.098)">
      <path id="Trazado_113447" data-name="Trazado 113447" d="M2.7,10.547,1.93,15H.461L2.438,3.625l3.8.008a3.713,3.713,0,0,1,2.711.934,2.937,2.937,0,0,1,.82,2.48,3.541,3.541,0,0,1-1.3,2.57,4.718,4.718,0,0,1-3.059.938ZM2.914,9.32l2.531.008a3.079,3.079,0,0,0,1.961-.6,2.407,2.407,0,0,0,.9-1.672,1.886,1.886,0,0,0-.4-1.559,2.005,2.005,0,0,0-1.523-.629l-2.7-.008ZM15.2,15a1.894,1.894,0,0,1-.055-.445l.023-.445A3.465,3.465,0,0,1,12.7,15.156a2.526,2.526,0,0,1-1.816-.707,2.14,2.14,0,0,1-.637-1.73,2.6,2.6,0,0,1,1.176-2.1A5.005,5.005,0,0,1,14.3,9.867l1.477.008.094-.672A1.545,1.545,0,0,0,15.582,8a1.414,1.414,0,0,0-1.113-.457,2.181,2.181,0,0,0-1.285.355,1.513,1.513,0,0,0-.684.98l-1.422.008a2.266,2.266,0,0,1,.578-1.316,3.363,3.363,0,0,1,1.3-.891,4.215,4.215,0,0,1,1.648-.3,2.8,2.8,0,0,1,2.055.8,2.484,2.484,0,0,1,.617,2.043l-.687,4.188-.039.6a2.949,2.949,0,0,0,.094.852L16.633,15Zm-2.219-1.094a2.466,2.466,0,0,0,1.285-.324,3.254,3.254,0,0,0,1.043-.941l.3-1.742-1.07-.008a4.054,4.054,0,0,0-2.047.422,1.554,1.554,0,0,0-.8,1.2,1.21,1.21,0,0,0,.277.988A1.321,1.321,0,0,0,12.977,13.906Zm5.984-3.148a6.889,6.889,0,0,1,.746-2.4,3.9,3.9,0,0,1,1.359-1.508,3.151,3.151,0,0,1,1.754-.465,2.6,2.6,0,0,1,2.219,1.109l.281-.945h1.3L25.211,14.82A4.113,4.113,0,0,1,23.9,17.41a3.7,3.7,0,0,1-2.68.926,3.8,3.8,0,0,1-1.645-.406,3.127,3.127,0,0,1-1.238-1.07l.8-.867a2.536,2.536,0,0,0,3.73.6,2.9,2.9,0,0,0,.926-1.687l.156-.75a3.2,3.2,0,0,1-2.414,1,2.486,2.486,0,0,1-1.371-.426,2.589,2.589,0,0,1-.9-1.164,4.759,4.759,0,0,1-.352-1.7A8.733,8.733,0,0,1,18.961,10.758Zm1.367.8a2.974,2.974,0,0,0,.387,1.728,1.461,1.461,0,0,0,1.238.644,2.561,2.561,0,0,0,2.18-1.241L24.8,8.811a1.776,1.776,0,0,0-1.7-1.2,2.194,2.194,0,0,0-1.887.936,4.878,4.878,0,0,0-.871,2.614Zm11.7-5.167a3.047,3.047,0,0,1,1.82.578A3.285,3.285,0,0,1,34.973,8.52a4.8,4.8,0,0,1,.246,2.16l-.016.172a5.685,5.685,0,0,1-.734,2.23,4.309,4.309,0,0,1-1.516,1.551,3.7,3.7,0,0,1-2.039.523,3.052,3.052,0,0,1-1.816-.578,3.21,3.21,0,0,1-1.113-1.531,4.931,4.931,0,0,1-.25-2.133,5.76,5.76,0,0,1,.711-2.359,4.409,4.409,0,0,1,1.527-1.621A3.652,3.652,0,0,1,32.031,6.391Zm-2.875,4.531a4.8,4.8,0,0,0,0,1.023,2.507,2.507,0,0,0,.551,1.469,1.653,1.653,0,0,0,1.262.57,2.253,2.253,0,0,0,1.3-.348,2.919,2.919,0,0,0,1-1.121,4.721,4.721,0,0,0,.523-1.664,7.494,7.494,0,0,0,.023-1.211,2.6,2.6,0,0,0-.57-1.492,1.69,1.69,0,0,0-1.266-.578,2.3,2.3,0,0,0-1.859.859,4.245,4.245,0,0,0-.945,2.313ZM47.711,8.641H41.383L41.6,7.383h6.336Zm-.562,3.242H40.82l.219-1.25h6.336Z" transform="translate(600 1602)" fill="#12263f"/>
      <path id="Trazado_113446" data-name="Trazado 113446" d="M25.278,15.616,30.76,4.492h1.967L25.751,18h-1.54L21.474,4.492H23.3Zm9.7-2.9L34.063,18H32.319L34.666,4.492l4.509.009A4.409,4.409,0,0,1,42.394,5.61a3.487,3.487,0,0,1,.974,2.946,4.206,4.206,0,0,1-1.545,3.052,5.6,5.6,0,0,1-3.632,1.113Zm.25-1.457,3.006.009a3.656,3.656,0,0,0,2.329-.714,2.858,2.858,0,0,0,1.067-1.985,2.239,2.239,0,0,0-.473-1.851,2.382,2.382,0,0,0-1.809-.747l-3.2-.009Zm10.335,7.4-1.5-.487.368-.778,1.5.611.276-1.881h.812l-.379,1.86,1.64-.584.1.86-1.7.492.8,1.488-.693.476-.709-1.569-1.2,1.515-.617-.53ZM53,18h-1.67L53.072,7.962h1.67ZM54.38,4.3a.919.919,0,0,1,.71.255.955.955,0,0,1,.283.719.99.99,0,0,1-.993,1.011.925.925,0,0,1-.714-.25.908.908,0,0,1-.269-.705,1.052,1.052,0,0,1,.278-.724A.981.981,0,0,1,54.38,4.3Zm5.947-.009a2.327,2.327,0,0,1,1.786.821A2.687,2.687,0,0,1,62.7,7.09l-.056.714a3.172,3.172,0,0,1-.979,2.032,2.686,2.686,0,0,1-2,.751,2.3,2.3,0,0,1-1.8-.816,2.659,2.659,0,0,1-.6-1.967l.056-.594a3.226,3.226,0,0,1,.969-2.138A2.792,2.792,0,0,1,60.327,4.288ZM58.518,7.819a1.8,1.8,0,0,0,.274,1.195,1.107,1.107,0,0,0,.914.46,1.44,1.44,0,0,0,1.1-.451A2.068,2.068,0,0,0,61.375,7.8l.083-.725a1.816,1.816,0,0,0-.241-1.181A1.07,1.07,0,0,0,60.29,5.4a1.458,1.458,0,0,0-1.113.456A2.076,2.076,0,0,0,58.6,7.084ZM65.383,11.9a2.33,2.33,0,0,1,1.809.83,2.686,2.686,0,0,1,.584,1.962l-.056.622a3.254,3.254,0,0,1-.96,2.12,2.682,2.682,0,0,1-2.027.775,2.312,2.312,0,0,1-1.8-.807,2.66,2.66,0,0,1-.608-1.985l.056-.631a3.248,3.248,0,0,1,.946-2.1A2.754,2.754,0,0,1,65.383,11.9Zm-1.8,3.531a1.856,1.856,0,0,0,.264,1.195,1.091,1.091,0,0,0,.923.47,1.426,1.426,0,0,0,1.109-.456,2.118,2.118,0,0,0,.561-1.227l.083-.735a1.8,1.8,0,0,0-.241-1.172,1.07,1.07,0,0,0-.928-.493,1.451,1.451,0,0,0-1.123.456,2.1,2.1,0,0,0-.566,1.218ZM58.8,16.961l-.918-.668L66.051,5.828l.918.659ZM7.114,44H5.426L7.411,32.607l-3.59,1.262.288-1.633,5.01-1.809h.3ZM16.6,38.962H12.189l.25-1.4h4.407Zm1.772-.408A17.562,17.562,0,0,1,19.5,34.379a12.937,12.937,0,0,1,2.036-3.465,8.366,8.366,0,0,1,2.69-2.166l.25,1.15a9.628,9.628,0,0,0-2.5,2.834,14.584,14.584,0,0,0-1.61,4.156,19.991,19.991,0,0,0-.547,4.745,10.509,10.509,0,0,0,.5,3.382,5.337,5.337,0,0,0,1.433,2.305l-.417,1.039a6.7,6.7,0,0,1-2.37-3.182,12.273,12.273,0,0,1-.747-4.824,14.666,14.666,0,0,1,.13-1.7ZM29.129,44H27.441l1.985-11.393-3.59,1.262.288-1.633,5.01-1.809h.3ZM40.3,36.754h3.655l-.288,1.624H40.021l-.742,4.268H37.59l.742-4.268H34.677l.288-1.624h3.646l.687-3.943h1.688ZM51.274,44H49.6l1.744-10.038h1.67Zm1.382-13.7a.919.919,0,0,1,.71.255.955.955,0,0,1,.283.719.99.99,0,0,1-.993,1.011.925.925,0,0,1-.714-.25.908.908,0,0,1-.269-.705,1.052,1.052,0,0,1,.278-.724A.981.981,0,0,1,52.657,30.3Zm5.947-.009a2.327,2.327,0,0,1,1.786.821,2.687,2.687,0,0,1,.589,1.981l-.056.714a3.172,3.172,0,0,1-.979,2.032,2.686,2.686,0,0,1-2,.751,2.3,2.3,0,0,1-1.8-.816,2.659,2.659,0,0,1-.6-1.967l.056-.594a3.226,3.226,0,0,1,.969-2.138A2.792,2.792,0,0,1,58.6,30.288Zm-1.809,3.531a1.8,1.8,0,0,0,.274,1.195,1.107,1.107,0,0,0,.914.46,1.44,1.44,0,0,0,1.1-.451,2.068,2.068,0,0,0,.571-1.223l.083-.725a1.816,1.816,0,0,0-.241-1.181,1.07,1.07,0,0,0-.928-.493,1.458,1.458,0,0,0-1.113.456,2.076,2.076,0,0,0-.575,1.227ZM63.66,37.9a2.33,2.33,0,0,1,1.809.83,2.686,2.686,0,0,1,.584,1.962L66,41.31a3.254,3.254,0,0,1-.96,2.12,2.682,2.682,0,0,1-2.027.775,2.312,2.312,0,0,1-1.8-.807,2.66,2.66,0,0,1-.608-1.985l.056-.631a3.248,3.248,0,0,1,.946-2.1A2.754,2.754,0,0,1,63.66,37.9Zm-1.8,3.531a1.856,1.856,0,0,0,.264,1.195,1.091,1.091,0,0,0,.923.47,1.426,1.426,0,0,0,1.109-.456,2.118,2.118,0,0,0,.561-1.227l.083-.735a1.8,1.8,0,0,0-.241-1.172,1.07,1.07,0,0,0-.928-.493,1.451,1.451,0,0,0-1.123.456,2.1,2.1,0,0,0-.566,1.218Zm-4.787,1.535-.918-.668,8.173-10.465.918.659ZM72.4,38.573a17.215,17.215,0,0,1-1.178,4.281,12.873,12.873,0,0,1-2.046,3.4,8.506,8.506,0,0,1-2.639,2.111l-.26-1.067q3.182-2.394,4.249-7.691a19.99,19.99,0,0,0,.408-4.11Q70.887,31.522,69,29.8l.436-1.039A6.15,6.15,0,0,1,71.2,30.682a9.078,9.078,0,0,1,1.058,2.792,14.3,14.3,0,0,1,.3,3.3,15.846,15.846,0,0,1-.139,1.7Zm8.792-3.511H78.62l.146-.817h2.57Zm2.424-2.922-.141.741a2.308,2.308,0,0,1,1.8-.844,1.452,1.452,0,0,1,1.223.574,2.228,2.228,0,0,1,.292,1.553L86.147,38h-.979l.644-3.849a2.051,2.051,0,0,0,.005-.492.809.809,0,0,0-.893-.773,1.844,1.844,0,0,0-1.548.941L82.652,38h-.979l1.017-5.855Z" transform="translate(656.5 1587)" fill="#12263f"/>
      <line id="Línea_866" data-name="Línea 866" x1="93" transform="translate(654.5 1611.402)" fill="none" stroke="#707070" stroke-width="2"/>
    </g>
    <g id="Grupo_60152" data-name="Grupo 60152" transform="translate(-259 9621.635)">
      <path id="Trazado_113449" data-name="Trazado 113449" d="M2.7,10.547,1.93,15H.461L2.438,3.625l3.8.008a3.713,3.713,0,0,1,2.711.934,2.937,2.937,0,0,1,.82,2.48,3.541,3.541,0,0,1-1.3,2.57,4.718,4.718,0,0,1-3.059.938ZM2.914,9.32l2.531.008a3.079,3.079,0,0,0,1.961-.6,2.407,2.407,0,0,0,.9-1.672,1.886,1.886,0,0,0-.4-1.559,2.005,2.005,0,0,0-1.523-.629l-2.7-.008ZM15.2,15a1.894,1.894,0,0,1-.055-.445l.023-.445A3.465,3.465,0,0,1,12.7,15.156a2.526,2.526,0,0,1-1.816-.707,2.14,2.14,0,0,1-.637-1.73,2.6,2.6,0,0,1,1.176-2.1A5.005,5.005,0,0,1,14.3,9.867l1.477.008.094-.672A1.545,1.545,0,0,0,15.582,8a1.414,1.414,0,0,0-1.113-.457,2.181,2.181,0,0,0-1.285.355,1.513,1.513,0,0,0-.684.98l-1.422.008a2.266,2.266,0,0,1,.578-1.316,3.363,3.363,0,0,1,1.3-.891,4.215,4.215,0,0,1,1.648-.3,2.8,2.8,0,0,1,2.055.8,2.484,2.484,0,0,1,.617,2.043l-.687,4.188-.039.6a2.949,2.949,0,0,0,.094.852L16.633,15Zm-2.219-1.094a2.466,2.466,0,0,0,1.285-.324,3.254,3.254,0,0,0,1.043-.941l.3-1.742-1.07-.008a4.054,4.054,0,0,0-2.047.422,1.554,1.554,0,0,0-.8,1.2,1.21,1.21,0,0,0,.277.988A1.321,1.321,0,0,0,12.977,13.906Zm5.984-3.148a6.889,6.889,0,0,1,.746-2.4,3.9,3.9,0,0,1,1.359-1.508,3.151,3.151,0,0,1,1.754-.465,2.6,2.6,0,0,1,2.219,1.109l.281-.945h1.3L25.211,14.82A4.113,4.113,0,0,1,23.9,17.41a3.7,3.7,0,0,1-2.68.926,3.8,3.8,0,0,1-1.645-.406,3.127,3.127,0,0,1-1.238-1.07l.8-.867a2.536,2.536,0,0,0,3.73.6,2.9,2.9,0,0,0,.926-1.687l.156-.75a3.2,3.2,0,0,1-2.414,1,2.486,2.486,0,0,1-1.371-.426,2.589,2.589,0,0,1-.9-1.164,4.759,4.759,0,0,1-.352-1.7A8.733,8.733,0,0,1,18.961,10.758Zm1.367.8a2.974,2.974,0,0,0,.387,1.728,1.461,1.461,0,0,0,1.238.644,2.561,2.561,0,0,0,2.18-1.241L24.8,8.811a1.776,1.776,0,0,0-1.7-1.2,2.194,2.194,0,0,0-1.887.936,4.878,4.878,0,0,0-.871,2.614Zm11.7-5.167a3.047,3.047,0,0,1,1.82.578A3.285,3.285,0,0,1,34.973,8.52a4.8,4.8,0,0,1,.246,2.16l-.016.172a5.685,5.685,0,0,1-.734,2.23,4.309,4.309,0,0,1-1.516,1.551,3.7,3.7,0,0,1-2.039.523,3.052,3.052,0,0,1-1.816-.578,3.21,3.21,0,0,1-1.113-1.531,4.931,4.931,0,0,1-.25-2.133,5.76,5.76,0,0,1,.711-2.359,4.409,4.409,0,0,1,1.527-1.621A3.652,3.652,0,0,1,32.031,6.391Zm-2.875,4.531a4.8,4.8,0,0,0,0,1.023,2.507,2.507,0,0,0,.551,1.469,1.653,1.653,0,0,0,1.262.57,2.253,2.253,0,0,0,1.3-.348,2.919,2.919,0,0,0,1-1.121,4.721,4.721,0,0,0,.523-1.664,7.494,7.494,0,0,0,.023-1.211,2.6,2.6,0,0,0-.57-1.492,1.69,1.69,0,0,0-1.266-.578,2.3,2.3,0,0,0-1.859.859,4.245,4.245,0,0,0-.945,2.313ZM47.711,8.641H41.383L41.6,7.383h6.336Zm-.562,3.242H40.82l.219-1.25h6.336ZM256.32,8.641h-6.328l.219-1.258h6.336Zm-.562,3.242H249.43l.219-1.25h6.336Zm13.625-5.359a2.818,2.818,0,0,1-.605,1.535,4.041,4.041,0,0,1-1.457,1.129,2.674,2.674,0,0,1,1.09,1.129,2.891,2.891,0,0,1,.293,1.543,3.315,3.315,0,0,1-1.234,2.418,4,4,0,0,1-2.7.879,3.21,3.21,0,0,1-2.336-.914,2.733,2.733,0,0,1-.742-2.25,3.041,3.041,0,0,1,.688-1.707A4.306,4.306,0,0,1,264.023,9.1a2.586,2.586,0,0,1-.9-1.062,2.7,2.7,0,0,1-.23-1.375,3.3,3.3,0,0,1,1.133-2.336,3.577,3.577,0,0,1,2.516-.859,2.908,2.908,0,0,1,2.156.883A2.7,2.7,0,0,1,269.383,6.523Zm-2.078,5.3a1.943,1.943,0,0,0-.375-1.473,1.716,1.716,0,0,0-1.359-.621,2.309,2.309,0,0,0-1.656.613,2.486,2.486,0,0,0-.8,1.621,1.838,1.838,0,0,0,.379,1.453,1.719,1.719,0,0,0,1.34.563,2.323,2.323,0,0,0,1.672-.574A2.381,2.381,0,0,0,267.3,11.828Zm.656-5.281a1.791,1.791,0,0,0-.324-1.328,1.462,1.462,0,0,0-1.168-.57,2,2,0,0,0-1.477.559,2.334,2.334,0,0,0-.7,1.48,1.76,1.76,0,0,0,.332,1.336,1.46,1.46,0,0,0,1.176.539,2,2,0,0,0,1.457-.551A2.285,2.285,0,0,0,267.961,6.547Zm5.156,2.063.938.008a2.769,2.769,0,0,0,1.738-.543A2.058,2.058,0,0,0,276.6,6.6a1.814,1.814,0,0,0-.336-1.426,1.613,1.613,0,0,0-1.273-.535,2.175,2.175,0,0,0-1.512.52,2.294,2.294,0,0,0-.762,1.441l-1.4.008a3.241,3.241,0,0,1,1.2-2.285,3.8,3.8,0,0,1,2.543-.863,3.04,3.04,0,0,1,2.246.895,2.838,2.838,0,0,1,.707,2.277A2.631,2.631,0,0,1,277.4,8.1a4.111,4.111,0,0,1-1.516,1.1,2.248,2.248,0,0,1,1.156.988,2.757,2.757,0,0,1,.32,1.582,3.491,3.491,0,0,1-1.223,2.477,3.844,3.844,0,0,1-2.668.906,3.234,3.234,0,0,1-2.328-.906,2.874,2.874,0,0,1-.8-2.258L271.75,12a1.9,1.9,0,0,0,.422,1.41,1.8,1.8,0,0,0,1.359.566,2.273,2.273,0,0,0,1.664-.57,2.38,2.38,0,0,0,.758-1.609,1.741,1.741,0,0,0-.422-1.449,2.127,2.127,0,0,0-1.516-.551l-1.086-.008Zm13.008-5L286,4.836h-.273a4.137,4.137,0,0,0-2.672.969,6,6,0,0,0-1.719,2.766,3.294,3.294,0,0,1,2.484-1.031,2.57,2.57,0,0,1,1.539.5,2.765,2.765,0,0,1,.941,1.328,4.352,4.352,0,0,1,.207,1.871,4.554,4.554,0,0,1-1.238,2.848,3.4,3.4,0,0,1-2.66,1.074,2.775,2.775,0,0,1-2.078-.93,3.927,3.927,0,0,1-.93-2.406,9.108,9.108,0,0,1,.2-2.219,8.049,8.049,0,0,1,2.129-4.453,5.575,5.575,0,0,1,4.043-1.539Zm-2.609,5.125a2.386,2.386,0,0,0-1.422.438,3.076,3.076,0,0,0-1.023,1.156l-.055.523-.016.633a4,4,0,0,0,.2,1.242,1.9,1.9,0,0,0,.578.914,1.413,1.413,0,0,0,.9.32,2,2,0,0,0,1.621-.7A3.357,3.357,0,0,0,285.1,11.3a3.372,3.372,0,0,0-.086-1.289,1.894,1.894,0,0,0-.543-.926A1.441,1.441,0,0,0,283.516,8.734Zm5.227,4.625a.846.846,0,0,1,.633.234.807.807,0,0,1,.242.625.844.844,0,0,1-.258.621.929.929,0,0,1-.625.254.788.788,0,0,1-.859-.828.874.874,0,0,1,.867-.906Zm11.2-6.836a2.818,2.818,0,0,1-.605,1.535,4.041,4.041,0,0,1-1.457,1.129,2.674,2.674,0,0,1,1.09,1.129,2.891,2.891,0,0,1,.293,1.543,3.315,3.315,0,0,1-1.234,2.418,4,4,0,0,1-2.7.879,3.21,3.21,0,0,1-2.336-.914,2.733,2.733,0,0,1-.742-2.25,3.041,3.041,0,0,1,.688-1.707A4.306,4.306,0,0,1,294.578,9.1a2.586,2.586,0,0,1-.9-1.062,2.7,2.7,0,0,1-.23-1.375,3.3,3.3,0,0,1,1.133-2.336,3.577,3.577,0,0,1,2.516-.859,2.908,2.908,0,0,1,2.156.883A2.7,2.7,0,0,1,299.938,6.523Zm-2.078,5.3a1.943,1.943,0,0,0-.375-1.473,1.716,1.716,0,0,0-1.359-.621,2.309,2.309,0,0,0-1.656.613,2.486,2.486,0,0,0-.8,1.621,1.838,1.838,0,0,0,.379,1.453,1.719,1.719,0,0,0,1.34.563,2.323,2.323,0,0,0,1.672-.574A2.381,2.381,0,0,0,297.859,11.828Zm.656-5.281a1.791,1.791,0,0,0-.324-1.328,1.462,1.462,0,0,0-1.168-.57,2,2,0,0,0-1.477.559,2.334,2.334,0,0,0-.7,1.48,1.76,1.76,0,0,0,.332,1.336,1.46,1.46,0,0,0,1.176.539,2,2,0,0,0,1.457-.551A2.285,2.285,0,0,0,298.516,6.547ZM305.141,15h-1.422l1.672-9.594-3.023,1.063.242-1.375,4.219-1.523h.25ZM318.172,4.516,311.992,15h-1.547l6.148-10.187h-5.937l.188-1.187h7.469Zm1.125,8.844a.846.846,0,0,1,.633.234.807.807,0,0,1,.242.625.844.844,0,0,1-.258.621.929.929,0,0,1-.625.254.788.788,0,0,1-.859-.828.874.874,0,0,1,.867-.906Zm9.578-2.18h1.531l-.211,1.18h-1.523L328.211,15h-1.422l.461-2.641h-5.031l.164-.93,6.25-7.8h1.547Zm-4.8,0h3.375l1.016-5.594-.227.328Zm14.359-7.57-.125,1.227h-.273a4.137,4.137,0,0,0-2.672.969,6,6,0,0,0-1.719,2.766,3.294,3.294,0,0,1,2.484-1.031,2.57,2.57,0,0,1,1.539.5,2.765,2.765,0,0,1,.941,1.328,4.352,4.352,0,0,1,.207,1.871,4.554,4.554,0,0,1-1.238,2.848,3.4,3.4,0,0,1-2.66,1.074,2.775,2.775,0,0,1-2.078-.93,3.927,3.927,0,0,1-.93-2.406,9.108,9.108,0,0,1,.2-2.219,8.049,8.049,0,0,1,2.129-4.453,5.575,5.575,0,0,1,4.043-1.539Zm-2.609,5.125a2.386,2.386,0,0,0-1.422.438,3.076,3.076,0,0,0-1.023,1.156l-.055.523-.016.633a4,4,0,0,0,.2,1.242,1.9,1.9,0,0,0,.578.914,1.413,1.413,0,0,0,.9.32,2,2,0,0,0,1.621-.7,3.357,3.357,0,0,0,.809-1.953,3.372,3.372,0,0,0-.086-1.289,1.894,1.894,0,0,0-.543-.926A1.441,1.441,0,0,0,335.828,8.734ZM344.492,15H343.07l1.672-9.594-3.023,1.063.242-1.375L346.18,3.57h.25Z" transform="translate(590 1601)" fill="#12263f"/>
      <path id="Trazado_113448" data-name="Trazado 113448" d="M20.221,18h-8.6l.2-1.308,4.982-4.843.909-.9a5.324,5.324,0,0,0,1.735-2.895,2.146,2.146,0,0,0-.4-1.665,1.877,1.877,0,0,0-1.466-.682,2.764,2.764,0,0,0-2.032.71,3.26,3.26,0,0,0-.993,2.046L12.9,8.472a4.7,4.7,0,0,1,.765-2.2,4.264,4.264,0,0,1,1.7-1.475,4.878,4.878,0,0,1,2.287-.487,3.748,3.748,0,0,1,2.667,1.016,3.01,3.01,0,0,1,.849,2.537,6.466,6.466,0,0,1-2.05,3.748l-.854.863L13.922,16.6h6.522Zm3.154-1.948a1,1,0,0,1,.751.278.959.959,0,0,1,.288.742,1,1,0,0,1-.306.738,1.1,1.1,0,0,1-.742.3.935.935,0,0,1-1.021-.983,1.038,1.038,0,0,1,1.03-1.076ZM28.831,11.2l1.716-6.708h6.735l-.25,1.586H31.744L30.7,9.771a4.133,4.133,0,0,1,2.208-.584,3.032,3.032,0,0,1,2.579,1.266,4.589,4.589,0,0,1,.733,3.177,5.075,5.075,0,0,1-1.475,3.34,4.336,4.336,0,0,1-3.238,1.225A3.533,3.533,0,0,1,28.9,17.156a3.927,3.927,0,0,1-1.048-2.718h1.568a2.691,2.691,0,0,0,.631,1.726,2.04,2.04,0,0,0,1.531.631,2.5,2.5,0,0,0,2-.844,3.9,3.9,0,0,0,.96-2.31,2.967,2.967,0,0,0-.436-2.064,1.984,1.984,0,0,0-1.661-.849,2.846,2.846,0,0,0-1.2.2,4.462,4.462,0,0,0-1.044.64Zm12.793,6.986a3.049,3.049,0,0,1-2.561-1.211,5.374,5.374,0,0,1-.779-3.382q.019-.687.1-1.354l.334-2.254a8.363,8.363,0,0,1,1.7-4.3,4.059,4.059,0,0,1,3.3-1.373A3.085,3.085,0,0,1,46.3,5.49a5.256,5.256,0,0,1,.784,3.326q-.028.7-.111,1.364l-.325,2.18a8.862,8.862,0,0,1-1.735,4.462A4.034,4.034,0,0,1,41.624,18.186Zm3.72-8.312a14.36,14.36,0,0,0,.121-1.744q-.046-2.356-1.828-2.421a2.438,2.438,0,0,0-2.1.96,6.657,6.657,0,0,0-1.118,3.159l-.4,2.69a13.685,13.685,0,0,0-.121,1.753q.046,2.458,1.818,2.523a2.383,2.383,0,0,0,2.036-.909A6.447,6.447,0,0,0,44.9,12.823ZM56.505,18H47.9l.2-1.308,4.982-4.843.909-.9a5.324,5.324,0,0,0,1.735-2.895,2.146,2.146,0,0,0-.4-1.665,1.877,1.877,0,0,0-1.466-.682,2.764,2.764,0,0,0-2.032.71,3.26,3.26,0,0,0-.993,2.046l-1.661.009a4.7,4.7,0,0,1,.765-2.2,4.264,4.264,0,0,1,1.7-1.475,4.878,4.878,0,0,1,2.287-.487A3.748,3.748,0,0,1,56.6,5.323a3.01,3.01,0,0,1,.849,2.537,6.466,6.466,0,0,1-2.05,3.748l-.854.863L50.206,16.6h6.522Zm3.154-1.948a1,1,0,0,1,.751.278.959.959,0,0,1,.288.742,1,1,0,0,1-.306.738,1.1,1.1,0,0,1-.742.3.935.935,0,0,1-1.021-.983,1.038,1.038,0,0,1,1.03-1.076ZM65.114,11.2l1.716-6.708h6.735l-.25,1.586H68.028L66.988,9.771A4.133,4.133,0,0,1,69.2,9.187a3.032,3.032,0,0,1,2.579,1.266,4.589,4.589,0,0,1,.733,3.177,5.075,5.075,0,0,1-1.475,3.34A4.336,4.336,0,0,1,67.8,18.195a3.533,3.533,0,0,1-2.607-1.039,3.927,3.927,0,0,1-1.048-2.718h1.568a2.691,2.691,0,0,0,.631,1.726,2.04,2.04,0,0,0,1.531.631,2.5,2.5,0,0,0,2-.844,3.9,3.9,0,0,0,.96-2.31,2.967,2.967,0,0,0-.436-2.064,1.984,1.984,0,0,0-1.661-.849,2.846,2.846,0,0,0-1.2.2,4.462,4.462,0,0,0-1.044.64Zm16.05.863a4.816,4.816,0,0,1-1.457,1.081,3.411,3.411,0,0,1-1.531.339,2.98,2.98,0,0,1-1.823-.6,3.322,3.322,0,0,1-1.1-1.6,5.318,5.318,0,0,1-.237-2.227A6,6,0,0,1,75.765,6.6a4.6,4.6,0,0,1,1.647-1.721,4.036,4.036,0,0,1,2.24-.571,3.184,3.184,0,0,1,2.533,1.169,5,5,0,0,1,.993,3.034,12.633,12.633,0,0,1-.232,2.468A9.364,9.364,0,0,1,80.529,16.2a6.559,6.559,0,0,1-4.634,1.814h-.417l.148-1.457h.343a5.042,5.042,0,0,0,3.27-1.116A6.669,6.669,0,0,0,81.164,12.063Zm-2.635,0a2.68,2.68,0,0,0,1.624-.478,4.042,4.042,0,0,0,1.28-1.387l.074-.677.028-.751A4.348,4.348,0,0,0,81,6.552a1.677,1.677,0,0,0-1.424-.816,2.375,2.375,0,0,0-1.962.886,4.015,4.015,0,0,0-.942,2.333,4.487,4.487,0,0,0,.019,1.15,2.925,2.925,0,0,0,.334,1.03A1.677,1.677,0,0,0,78.53,12.063ZM92.835,4.474,92.687,5.93h-.325a4.913,4.913,0,0,0-3.173,1.15,7.13,7.13,0,0,0-2.041,3.284A3.912,3.912,0,0,1,90.1,9.14a3.052,3.052,0,0,1,1.828.589,3.284,3.284,0,0,1,1.118,1.577,5.169,5.169,0,0,1,.246,2.222,5.408,5.408,0,0,1-1.47,3.382,4.04,4.04,0,0,1-3.159,1.276,3.3,3.3,0,0,1-2.468-1.1,4.663,4.663,0,0,1-1.1-2.857,10.815,10.815,0,0,1,.232-2.635A9.558,9.558,0,0,1,87.849,6.3a6.62,6.62,0,0,1,4.8-1.828Zm-3.1,6.086a2.833,2.833,0,0,0-1.688.52,3.653,3.653,0,0,0-1.215,1.373l-.065.622-.019.751a4.747,4.747,0,0,0,.232,1.475,2.256,2.256,0,0,0,.687,1.085,1.678,1.678,0,0,0,1.067.38,2.372,2.372,0,0,0,1.925-.835,3.987,3.987,0,0,0,.96-2.319,4,4,0,0,0-.1-1.531,2.249,2.249,0,0,0-.645-1.1A1.711,1.711,0,0,0,89.737,10.56Zm6.207,5.492a1,1,0,0,1,.751.278.959.959,0,0,1,.288.742,1,1,0,0,1-.306.738,1.1,1.1,0,0,1-.742.3.935.935,0,0,1-1.021-.983,1.038,1.038,0,0,1,1.03-1.076Zm11.374-2.588h1.818l-.25,1.4h-1.809L106.529,18H104.84l.547-3.136H99.413l.195-1.1,7.422-9.268h1.837Zm-5.7,0h4.008l1.206-6.643-.269.39ZM111.844,11.2l1.716-6.708H120.3l-.25,1.586h-5.288l-1.039,3.692a4.133,4.133,0,0,1,2.208-.584,3.032,3.032,0,0,1,2.579,1.266,4.589,4.589,0,0,1,.733,3.177,5.075,5.075,0,0,1-1.475,3.34,4.336,4.336,0,0,1-3.238,1.225,3.533,3.533,0,0,1-2.607-1.039,3.927,3.927,0,0,1-1.048-2.718h1.568a2.691,2.691,0,0,0,.631,1.726,2.04,2.04,0,0,0,1.531.631,2.5,2.5,0,0,0,2-.844,3.9,3.9,0,0,0,.96-2.31,2.967,2.967,0,0,0-.436-2.064,1.984,1.984,0,0,0-1.661-.849,2.846,2.846,0,0,0-1.2.2,4.462,4.462,0,0,0-1.044.64Zm19.046-5.65L123.552,18h-1.837l7.3-12.1h-7.051l.223-1.41h8.869Zm1.892,13.106-1.5-.487.368-.778,1.5.611.276-1.881h.812l-.379,1.86,1.64-.584.1.86-1.7.492.8,1.488-.693.476-.709-1.569-1.2,1.515-.617-.53ZM146.922,18h-8.6l.2-1.308,4.982-4.843.909-.9a5.324,5.324,0,0,0,1.735-2.895,2.146,2.146,0,0,0-.4-1.665,1.877,1.877,0,0,0-1.466-.682,2.764,2.764,0,0,0-2.032.71,3.26,3.26,0,0,0-.993,2.046l-1.661.009a4.7,4.7,0,0,1,.765-2.2,4.264,4.264,0,0,1,1.7-1.475,4.878,4.878,0,0,1,2.287-.487,3.748,3.748,0,0,1,2.667,1.016,3.01,3.01,0,0,1,.849,2.537,6.466,6.466,0,0,1-2.05,3.748l-.854.863L140.622,16.6h6.522Zm6.012.186a3.049,3.049,0,0,1-2.561-1.211,5.374,5.374,0,0,1-.779-3.382q.019-.687.1-1.354l.334-2.254a8.363,8.363,0,0,1,1.7-4.3,4.059,4.059,0,0,1,3.3-1.373A3.085,3.085,0,0,1,157.6,5.49a5.256,5.256,0,0,1,.784,3.326q-.028.7-.111,1.364l-.325,2.18a8.862,8.862,0,0,1-1.735,4.462A4.034,4.034,0,0,1,152.933,18.186Zm3.72-8.312a14.36,14.36,0,0,0,.121-1.744q-.046-2.356-1.828-2.421a2.438,2.438,0,0,0-2.1.96,6.657,6.657,0,0,0-1.118,3.159l-.4,2.69a13.685,13.685,0,0,0-.121,1.753q.046,2.458,1.818,2.523a2.383,2.383,0,0,0,2.036-.909,6.447,6.447,0,0,0,1.146-3.062Zm7.218-5.585a2.327,2.327,0,0,1,1.786.821,2.687,2.687,0,0,1,.589,1.981l-.056.714a3.172,3.172,0,0,1-.979,2.032,2.686,2.686,0,0,1-2,.751,2.3,2.3,0,0,1-1.8-.816,2.659,2.659,0,0,1-.6-1.967l.056-.594a3.226,3.226,0,0,1,.969-2.138A2.792,2.792,0,0,1,163.871,4.288Zm-1.809,3.531a1.8,1.8,0,0,0,.274,1.195,1.107,1.107,0,0,0,.914.46,1.44,1.44,0,0,0,1.1-.451A2.068,2.068,0,0,0,164.92,7.8L165,7.075a1.816,1.816,0,0,0-.241-1.181,1.07,1.07,0,0,0-.928-.493,1.458,1.458,0,0,0-1.113.456,2.076,2.076,0,0,0-.575,1.227Zm6.865,4.077a2.33,2.33,0,0,1,1.809.83,2.686,2.686,0,0,1,.584,1.962l-.056.622a3.254,3.254,0,0,1-.96,2.12,2.682,2.682,0,0,1-2.027.775,2.312,2.312,0,0,1-1.8-.807,2.66,2.66,0,0,1-.608-1.985l.056-.631a3.248,3.248,0,0,1,.946-2.1A2.754,2.754,0,0,1,168.928,11.9Zm-1.8,3.531a1.856,1.856,0,0,0,.264,1.195,1.091,1.091,0,0,0,.923.47,1.426,1.426,0,0,0,1.109-.456,2.118,2.118,0,0,0,.561-1.227l.083-.735a1.8,1.8,0,0,0-.241-1.172,1.07,1.07,0,0,0-.928-.493,1.451,1.451,0,0,0-1.123.456,2.1,2.1,0,0,0-.566,1.218Zm-4.787,1.535-.918-.668L169.6,5.828l.918.659ZM51.053,44H49.365L51.35,32.607l-3.59,1.262.288-1.633,5.01-1.809h.3Zm9.481-5.038H56.128l.25-1.4h4.407Zm1.772-.408a17.562,17.562,0,0,1,1.136-4.175,12.937,12.937,0,0,1,2.036-3.465,8.366,8.366,0,0,1,2.69-2.166l.25,1.15a9.628,9.628,0,0,0-2.5,2.834,14.584,14.584,0,0,0-1.61,4.156,19.991,19.991,0,0,0-.547,4.745,10.509,10.509,0,0,0,.5,3.382,5.337,5.337,0,0,0,1.433,2.305l-.417,1.039a6.7,6.7,0,0,1-2.37-3.182,12.273,12.273,0,0,1-.747-4.824,14.667,14.667,0,0,1,.13-1.7ZM73.068,44H71.38l1.985-11.393-3.59,1.262.288-1.633,5.01-1.809h.3Zm11.17-7.246h3.655l-.288,1.624H83.96l-.742,4.268H81.529l.742-4.268H78.616l.288-1.624H82.55l.687-3.943h1.688ZM97.264,44h-8.6l.2-1.308,4.982-4.843.909-.9a5.324,5.324,0,0,0,1.735-2.895,2.146,2.146,0,0,0-.4-1.665,1.876,1.876,0,0,0-1.466-.682,2.764,2.764,0,0,0-2.032.71,3.26,3.26,0,0,0-.993,2.046l-1.661.009a4.7,4.7,0,0,1,.765-2.2,4.264,4.264,0,0,1,1.7-1.475,4.878,4.878,0,0,1,2.287-.487,3.748,3.748,0,0,1,2.667,1.016,3.01,3.01,0,0,1,.849,2.537,6.466,6.466,0,0,1-2.05,3.748l-.854.863L90.964,42.6h6.522Zm6.012.186a3.049,3.049,0,0,1-2.561-1.211,5.374,5.374,0,0,1-.779-3.382q.019-.687.1-1.354l.334-2.254a8.363,8.363,0,0,1,1.7-4.3,4.059,4.059,0,0,1,3.3-1.373,3.085,3.085,0,0,1,2.574,1.183,5.255,5.255,0,0,1,.784,3.326q-.028.7-.111,1.364l-.325,2.18a8.862,8.862,0,0,1-1.735,4.462A4.034,4.034,0,0,1,103.275,44.186ZM107,35.873a14.36,14.36,0,0,0,.121-1.744q-.046-2.356-1.828-2.421a2.438,2.438,0,0,0-2.1.96,6.657,6.657,0,0,0-1.118,3.159l-.4,2.69a13.685,13.685,0,0,0-.121,1.753q.046,2.458,1.818,2.523a2.383,2.383,0,0,0,2.036-.909,6.447,6.447,0,0,0,1.146-3.062Zm7.218-5.585a2.327,2.327,0,0,1,1.786.821,2.687,2.687,0,0,1,.589,1.981l-.056.714a3.172,3.172,0,0,1-.979,2.032,2.686,2.686,0,0,1-2,.751,2.3,2.3,0,0,1-1.8-.816,2.659,2.659,0,0,1-.6-1.967l.056-.594a3.226,3.226,0,0,1,.969-2.138A2.792,2.792,0,0,1,114.213,30.288ZM112.4,33.819a1.8,1.8,0,0,0,.274,1.195,1.107,1.107,0,0,0,.914.46,1.44,1.44,0,0,0,1.1-.451,2.068,2.068,0,0,0,.571-1.223l.083-.725a1.816,1.816,0,0,0-.241-1.181,1.07,1.07,0,0,0-.928-.493,1.458,1.458,0,0,0-1.113.456,2.076,2.076,0,0,0-.575,1.227Zm6.865,4.077a2.33,2.33,0,0,1,1.809.83,2.686,2.686,0,0,1,.584,1.962l-.056.622a3.254,3.254,0,0,1-.96,2.12,2.682,2.682,0,0,1-2.027.775,2.312,2.312,0,0,1-1.8-.807,2.66,2.66,0,0,1-.608-1.985l.056-.631a3.248,3.248,0,0,1,.946-2.1A2.754,2.754,0,0,1,119.269,37.9Zm-1.8,3.531a1.856,1.856,0,0,0,.264,1.195,1.091,1.091,0,0,0,.923.47,1.426,1.426,0,0,0,1.109-.456,2.118,2.118,0,0,0,.561-1.227l.083-.735a1.8,1.8,0,0,0-.241-1.172,1.07,1.07,0,0,0-.928-.493,1.451,1.451,0,0,0-1.123.456,2.1,2.1,0,0,0-.566,1.218Zm-4.787,1.535-.918-.668,8.173-10.465.918.659Zm15.326-4.388a17.215,17.215,0,0,1-1.178,4.281,12.873,12.873,0,0,1-2.046,3.4,8.506,8.506,0,0,1-2.639,2.111l-.26-1.067q3.182-2.394,4.249-7.691a19.99,19.99,0,0,0,.408-4.11q-.046-3.98-1.93-5.706l.436-1.039a6.15,6.15,0,0,1,1.758,1.925,9.078,9.078,0,0,1,1.058,2.792,14.3,14.3,0,0,1,.3,3.3,15.846,15.846,0,0,1-.139,1.7Zm4.134-3.511h-2.57l.146-.817h2.57Zm1.5-1.028,1-3.912h3.929l-.146.925h-3.085l-.606,2.154a2.411,2.411,0,0,1,1.288-.341,1.768,1.768,0,0,1,1.5.739,2.677,2.677,0,0,1,.428,1.853,2.96,2.96,0,0,1-.86,1.948,2.529,2.529,0,0,1-1.889.714,2.061,2.061,0,0,1-1.521-.606,2.291,2.291,0,0,1-.611-1.586h.915a1.569,1.569,0,0,0,.368,1.007,1.19,1.19,0,0,0,.893.368,1.457,1.457,0,0,0,1.166-.492,2.274,2.274,0,0,0,.56-1.347,1.731,1.731,0,0,0-.254-1.2,1.157,1.157,0,0,0-.969-.5,1.66,1.66,0,0,0-.7.119,2.6,2.6,0,0,0-.609.373Z" transform="translate(648.5 1586)" fill="#12263f"/>
      <path id="Trazado_113445" data-name="Trazado 113445" d="M174,0H0" transform="translate(651.5 1610.402)" fill="none" stroke="#707070" stroke-width="2"/>
    </g>
  </g>
</svg>
