<svg xmlns="http://www.w3.org/2000/svg" xmlns:xlink="http://www.w3.org/1999/xlink" width="400.592" height="395.166" viewBox="0 0 400.592 395.166">
  <defs>
    <clipPath id="clip-path">
      <path id="Trazado_112368" data-name="Trazado 112368" d="M254.075,397.672a16.432,16.432,0,1,1-4.193-22.863,16.431,16.431,0,0,1,4.193,22.863Z" transform="translate(-224.121 -371.902)" fill="#eaccb2" stroke="#263238" stroke-linecap="round" stroke-linejoin="round" stroke-width="1"/>
    </clipPath>
    <clipPath id="clip-path-2">
      <path id="Trazado_112400" data-name="Trazado 112400" d="M417.833,93.039l-12.6,123L397.476,291.7,289.146,280.6l-21.079-2.159-13.5-1.383L266.532,160.29l8.394-81.89Z" transform="translate(-254.57 -78.4)" fill="#fff" stroke="#263238" stroke-linecap="round" stroke-linejoin="round" stroke-width="1"/>
    </clipPath>
    <clipPath id="clip-path-3">
      <circle id="Elipse_4387" data-name="Elipse 4387" cx="26.128" cy="26.128" r="26.128" transform="matrix(0.768, -0.64, 0.64, 0.768, 0, 33.45)" fill="#eaccb2" stroke="#263238" stroke-miterlimit="10" stroke-width="1"/>
    </clipPath>
    <clipPath id="clip-path-4">
      <path id="Trazado_112425" data-name="Trazado 112425" d="M390.94,201.157l-2.962,6.708-79.571,106.1-8.858-5.656,12-15.093,71.471-89.651,6.307-4.005A2.257,2.257,0,0,1,390.94,201.157Z" transform="translate(-299.55 -199.56)" fill="#eaccb2" stroke="#263238" stroke-linecap="round" stroke-linejoin="round" stroke-width="1"/>
    </clipPath>
    <clipPath id="clip-path-5">
      <path id="Trazado_112429" data-name="Trazado 112429" d="M332.488,292.458s-8.92,17.627-17.431,30.1l-6.1,1.579S294.951,338.051,286.4,345a19.162,19.162,0,0,1-4.175-3.506s12.132-23.3,25.557-38.046a16.95,16.95,0,0,1,4.4,2.337,21.8,21.8,0,0,1,4.6,4.407l14.96-18.822Z" transform="translate(-282.23 -291.37)" fill="#eaccb2" stroke="#263238" stroke-linecap="round" stroke-linejoin="round" stroke-width="1"/>
    </clipPath>
    <clipPath id="clip-path-6">
      <path id="Trazado_112463" data-name="Trazado 112463" d="M272.973,251.366,152.938,301.882l-12.373,5.21-23.318-55.405L63.1,123.026,195.507,67.3Z" transform="translate(-63.1 -67.3)" fill="#fff" stroke="#263238" stroke-linecap="round" stroke-linejoin="round" stroke-width="1"/>
    </clipPath>
  </defs>
  <g id="Financial_data-bro" data-name="Financial data-bro" transform="translate(-25.042 -29.116)">
    <g id="freepik--background-simple--inject-81" transform="translate(25.042 29.116)">
      <path id="Trazado_112358" data-name="Trazado 112358" d="M66.892,152.2s-24.87,64.228,10.08,128.9,106.939,98.839,164.556,128.054,117.447,14.986,145.877-32.863-10.562-82.006-10.615-150.239S387,139.752,350.028,82.107,222.412,11.7,153.867,54.454,66.892,152.2,66.892,152.2Z" transform="translate(-28.634 -29.116)" fill="#fff" opacity="0.7"/>
      <path id="Trazado_112359" data-name="Trazado 112359" d="M206.314,51.2C316.928,41.383,317.151,103.764,367,161.926s60.526,84.522,41.73,151.568-82.122,119.6-160.471,89.821S125.03,402.128,75.611,375.661,7.815,298.124,44.023,237.92,69.884,63.346,206.314,51.2Z" transform="translate(-25.042 -31.389)" fill="#eaccb2"/>
      <path id="Trazado_112360" data-name="Trazado 112360" d="M206.314,51.2C316.928,41.383,317.151,103.764,367,161.926s60.526,84.522,41.73,151.568-82.122,119.6-160.471,89.821S125.03,402.128,75.611,375.661,7.815,298.124,44.023,237.92,69.884,63.346,206.314,51.2Z" transform="translate(-25.042 -31.389)" fill="#fff" opacity="0.7"/>
    </g>
    <g id="freepik--Graphics--inject-81" transform="translate(27.524 52.09)">
      <rect id="Rectángulo_28650" data-name="Rectángulo 28650" width="27.68" height="27.68" rx="5.09" transform="matrix(0.979, -0.206, 0.206, 0.979, 181.263, 5.703)" fill="none" stroke="#263238" stroke-linecap="round" stroke-linejoin="round" stroke-width="1"/>
      <line id="Línea_782" data-name="Línea 782" x2="2.319" y2="11.044" transform="translate(196.506 10.865)" fill="none" stroke="#263238" stroke-linecap="round" stroke-linejoin="round" stroke-width="1"/>
      <line id="Línea_783" data-name="Línea 783" x1="11.044" y2="2.328" transform="translate(192.144 15.218)" fill="none" stroke="#263238" stroke-linecap="round" stroke-linejoin="round" stroke-width="1"/>
      <rect id="Rectángulo_28651" data-name="Rectángulo 28651" width="27.68" height="27.68" rx="5.09" transform="matrix(0.979, -0.206, 0.206, 0.979, 364.729, 200.297)" fill="none" stroke="#263238" stroke-linecap="round" stroke-linejoin="round" stroke-width="1"/>
      <line id="Línea_784" data-name="Línea 784" x1="6.164" y2="9.456" transform="translate(378.056 206.242)" fill="none" stroke="#263238" stroke-linecap="round" stroke-linejoin="round" stroke-width="1"/>
      <line id="Línea_785" data-name="Línea 785" x1="9.456" y1="6.173" transform="translate(376.406 207.883)" fill="none" stroke="#263238" stroke-linecap="round" stroke-linejoin="round" stroke-width="1"/>
      <rect id="Rectángulo_28652" data-name="Rectángulo 28652" width="27.73" height="27.73" rx="5.099" transform="matrix(0.998, 0.06, -0.06, 0.998, 118.507, 312.616)" fill="none" stroke="#263238" stroke-linecap="round" stroke-linejoin="round" stroke-width="1.002"/>
      <line id="Línea_786" data-name="Línea 786" x1="11.276" y1="0.651" transform="translate(126.507 325.964)" fill="none" stroke="#263238" stroke-linecap="round" stroke-linejoin="round" stroke-width="1"/>
      <rect id="Rectángulo_28653" data-name="Rectángulo 28653" width="27.68" height="27.68" rx="5.09" transform="translate(8.705 177.263) rotate(18.33)" fill="none" stroke="#263238" stroke-linecap="round" stroke-linejoin="round" stroke-width="1"/>
      <line id="Línea_787" data-name="Línea 787" x1="14.121" y2="7.092" transform="translate(10.433 191.211)" fill="none" stroke="#263238" stroke-linecap="round" stroke-linejoin="round" stroke-width="1"/>
      <path id="Trazado_112361" data-name="Trazado 112361" d="M45.817,265.865a1.963,1.963,0,1,1-1.149-1.013A1.971,1.971,0,0,1,45.817,265.865Z" transform="translate(-29.362 -77.527)" fill="none" stroke="#263238" stroke-linecap="round" stroke-linejoin="round" stroke-width="1"/>
      <path id="Trazado_112362" data-name="Trazado 112362" d="M52.1,278.325a1.963,1.963,0,1,1-1.149-1.013A1.971,1.971,0,0,1,52.1,278.325Z" transform="translate(-30.04 -78.872)" fill="none" stroke="#263238" stroke-linecap="round" stroke-linejoin="round" stroke-width="1"/>
    </g>
    <g id="freepik--Coins--inject-81" transform="translate(179.16 319.722)">
      <path id="Trazado_112363" data-name="Trazado 112363" d="M254.075,397.672a16.432,16.432,0,1,1-4.193-22.863,16.431,16.431,0,0,1,4.193,22.863Z" transform="translate(-200.65 -356.726)" fill="#eaccb2"/>
      <g id="Grupo_60037" data-name="Grupo 60037" transform="translate(23.471 15.176)" clip-path="url(#clip-path)">
        <path id="Trazado_112364" data-name="Trazado 112364" d="M252.25,396.5a13.827,13.827,0,1,1-3.515-19.242A13.827,13.827,0,0,1,252.25,396.5Z" transform="translate(-224.437 -372.216)" fill="rgba(0,0,0,0.7)" opacity="0.3"/>
        <path id="Trazado_112365" data-name="Trazado 112365" d="M252.25,396.5a13.827,13.827,0,1,1-3.515-19.242A13.827,13.827,0,0,1,252.25,396.5Z" transform="translate(-224.437 -372.216)" fill="none" stroke="#263238" stroke-linecap="round" stroke-linejoin="round" stroke-width="1"/>
        <path id="Trazado_112366" data-name="Trazado 112366" d="M245.351,382.454l.669-.954,1.659,1.142-.669.963c1.24,1.293,1.213,2.908,0,4.656l-.285.41-1.918-1.329.375-.535c.633-.892.508-1.525-.134-1.971s-1.258-.357-1.9.571-.714,1.784-.1,3.854c.74,2.48.607,3.889-.41,5.352-1.213,1.784-2.748,2.355-4.389,1.659l-.651.937-1.632-1.133.651-.946c-1.258-1.3-1.213-2.935,0-4.692l.607-.892,1.918,1.329-.7,1.008c-.642.892-.464,1.534.178,1.989s1.285.393,1.927-.535.723-1.838.1-3.854c-.758-2.453-.616-3.88.41-5.352C242.211,382.4,243.719,381.785,245.351,382.454Z" transform="translate(-225.37 -372.938)" fill="#eaccb2" stroke="#263238" stroke-linecap="round" stroke-linejoin="round" stroke-width="1"/>
        <path id="Trazado_112367" data-name="Trazado 112367" d="M235.975,375.087a22.141,22.141,0,0,1-10.829,19.045,16.423,16.423,0,0,1,10.7-21.463A21.6,21.6,0,0,1,235.975,375.087Z" transform="translate(-224.12 -371.985)" fill="rgba(0,0,0,0.7)" opacity="0.2"/>
      </g>
      <path id="Trazado_112369" data-name="Trazado 112369" d="M254.075,397.672a16.432,16.432,0,1,1-4.193-22.863,16.431,16.431,0,0,1,4.193,22.863Z" transform="translate(-200.65 -356.726)" fill="none" stroke="#263238" stroke-linecap="round" stroke-linejoin="round" stroke-width="1"/>
      <circle id="Elipse_4381" data-name="Elipse 4381" cx="16.44" cy="16.44" r="16.44" transform="translate(0 1.33)" fill="#eaccb2" stroke="#263238" stroke-linecap="round" stroke-linejoin="round" stroke-width="1"/>
      <circle id="Elipse_4382" data-name="Elipse 4382" cx="13.827" cy="13.827" r="13.827" transform="translate(2.614 3.944)" fill="rgba(0,0,0,0.7)" opacity="0.3"/>
      <circle id="Elipse_4383" data-name="Elipse 4383" cx="13.827" cy="13.827" r="13.827" transform="translate(2.614 3.944)" fill="none" stroke="#263238" stroke-linecap="round" stroke-linejoin="round" stroke-width="1"/>
      <path id="Trazado_112370" data-name="Trazado 112370" d="M214.784,366.04v-1.16H216.8v1.16c1.784.366,2.676,1.7,2.676,3.836v.464h-2.337v-.651c0-1.124-.446-1.552-1.231-1.552s-1.231.428-1.231,1.552.446,1.9,2.105,3.229c2.016,1.615,2.676,2.846,2.676,4.639,0,2.132-.892,3.506-2.676,3.863v1.142h-2.016v-1.142c-1.784-.357-2.676-1.731-2.676-3.863v-1.07h2.328v1.231c0,1.124.491,1.525,1.276,1.525s1.285-.4,1.285-1.525-.446-1.927-2.114-3.229c-2.016-1.6-2.676-2.846-2.676-4.648C212.179,367.77,213.053,366.423,214.784,366.04Z" transform="translate(-199.352 -355.967)" fill="#eaccb2" stroke="#263238" stroke-linecap="round" stroke-linejoin="round" stroke-width="1"/>
      <circle id="Elipse_4384" data-name="Elipse 4384" cx="16.44" cy="16.44" r="16.44" transform="translate(72.155 27.685) rotate(-57.35)" fill="#eaccb2" stroke="#263238" stroke-linecap="round" stroke-linejoin="round" stroke-width="1"/>
      <path id="Trazado_112371" data-name="Trazado 112371" d="M312.611,369.275a13.809,13.809,0,1,1-9.618-4.413A13.827,13.827,0,0,1,312.611,369.275Z" transform="translate(-207.617 -355.964)" fill="rgba(0,0,0,0.7)" opacity="0.3"/>
      <path id="Trazado_112372" data-name="Trazado 112372" d="M312.611,369.275a13.809,13.809,0,1,1-9.618-4.413A13.827,13.827,0,0,1,312.611,369.275Z" transform="translate(-207.617 -355.964)" fill="none" stroke="#263238" stroke-linecap="round" stroke-linejoin="round" stroke-width="1"/>
      <path id="Trazado_112373" data-name="Trazado 112373" d="M297.364,374.536l-.794-.892,1.472-1.374.794.892c1.534-.892,3.1-.553,4.549,1.008l.339.357-1.7,1.588-.446-.473c-.767-.821-1.383-.83-1.954-.294s-.616,1.151.143,1.971,1.632,1.088,3.747.937c2.578-.2,3.925.232,5.147,1.552,1.445,1.561,1.7,3.185.669,4.639l.776.839-1.481,1.374-.776-.839c-1.543.946-3.131.553-4.576-1.008l-.74-.785,1.713-1.588.839.892c.767.821,1.4.785,1.98.25s.66-1.169-.107-1.989-1.641-1.106-3.738-.892c-2.569.205-3.934-.241-5.147-1.561C296.632,377.569,296.356,375.99,297.364,374.536Z" transform="translate(-208.471 -356.765)" fill="#eaccb2" stroke="#263238" stroke-linecap="round" stroke-linejoin="round" stroke-width="1"/>
    </g>
    <g id="freepik--right-hand--inject-81" transform="translate(229.792 73.08)">
      <path id="Trazado_112374" data-name="Trazado 112374" d="M295.891,300.25s-.071,34.112,0,36.1,2.676,13.97,2.676,13.97l-8.287,15.272,7.136,5.745,13.871-13.631s11.811,7.288,13.969,17.725,15.013,18.037,28.349,46.94,28.546-64.665,28.546-64.665L341,305.9Z" transform="translate(-258.425 -102.349)" fill="rgba(0,0,0,0.7)" opacity="0.2"/>
      <path id="Trazado_112375" data-name="Trazado 112375" d="M417.833,93.039l-12.6,123L397.476,291.7,289.146,280.6l-21.079-2.159-13.5-1.383L266.532,160.29l8.394-81.89Z" transform="translate(-254.57 -78.4)" fill="#fff"/>
      <g id="Grupo_60039" data-name="Grupo 60039" transform="translate(0 0)" clip-path="url(#clip-path-2)">
        <path id="Trazado_112376" data-name="Trazado 112376" d="M383.314,99.233l-61.685-6.325A2.107,2.107,0,1,0,321.2,97.1l61.685,6.325a2.107,2.107,0,1,0,.428-4.193Z" transform="translate(-261.558 -79.965)" fill="#263238"/>
        <path id="Trazado_112377" data-name="Trazado 112377" d="M368.907,107.466,338.069,104.3a1.054,1.054,0,1,0-.214,2.1l30.838,3.167a1.062,1.062,0,0,0,1.16-.946,1.044,1.044,0,0,0-.946-1.151Z" transform="translate(-263.458 -81.195)" fill="#263238"/>
        <path id="Trazado_112378" data-name="Trazado 112378" d="M398.573,208.368,298.449,198.109a1.032,1.032,0,1,0-.214,2.052L398.359,210.5a1.071,1.071,0,0,0,.214-2.132Z" transform="translate(-259.181 -91.322)" fill="#263238"/>
        <path id="Trazado_112379" data-name="Trazado 112379" d="M395.767,216.616,279.31,204.689a1.057,1.057,0,0,0-.259,2.1l116.421,11.927a1.054,1.054,0,1,0,.214-2.1Z" transform="translate(-257.116 -92.032)" fill="#263238"/>
        <path id="Trazado_112380" data-name="Trazado 112380" d="M362.262,221.73l-83.853-8.59a1.054,1.054,0,1,0-.223,2.1l83.853,8.59a1.054,1.054,0,0,0,.223-2.1Z" transform="translate(-257.018 -92.944)" fill="#263238"/>
        <rect id="Rectángulo_28654" data-name="Rectángulo 28654" width="33.416" height="117.983" transform="translate(16.698 161.566) rotate(-84.15)" fill="#bfbfbf" stroke="#263238" stroke-miterlimit="10" stroke-width="1"/>
        <circle id="Elipse_4385" data-name="Elipse 4385" cx="26.128" cy="26.128" r="26.128" transform="matrix(0.768, -0.64, 0.64, 0.768, 20.403, 66.434)" fill="#eaccb2"/>
        <g id="Grupo_60038" data-name="Grupo 60038" transform="translate(20.403 32.985)" clip-path="url(#clip-path-3)">
          <circle id="Elipse_4386" data-name="Elipse 4386" cx="26.128" cy="26.128" r="26.128" transform="matrix(0.768, -0.64, 0.64, 0.768, 0, 33.45)" fill="#fff" opacity="0.5"/>
        </g>
        <circle id="Elipse_4388" data-name="Elipse 4388" cx="26.128" cy="26.128" r="26.128" transform="matrix(0.768, -0.64, 0.64, 0.768, 20.403, 66.434)" fill="none" stroke="#263238" stroke-miterlimit="10" stroke-width="1"/>
        <path id="Trazado_112381" data-name="Trazado 112381" d="M319.54,154.7l21.73,10.928a24.977,24.977,0,0,0-2.872-26.28Z" transform="translate(-261.584 -84.98)" fill="#fff"/>
        <path id="Trazado_112382" data-name="Trazado 112382" d="M319.7,152.571l18.2-14.808a24.907,24.907,0,0,0-10.16-7.243l-3.309,9.01Z" transform="translate(-261.601 -84.026)" fill="#eaccb2"/>
        <path id="Trazado_112383" data-name="Trazado 112383" d="M321.734,128.88,319.54,150.4l7.4-20.348A24.8,24.8,0,0,0,321.734,128.88Z" transform="translate(-261.584 -83.849)" fill="#757575"/>
        <path id="Trazado_112384" data-name="Trazado 112384" d="M315.3,153.354l2.524-24.585a24.977,24.977,0,0,0-25.022,34.79Z" transform="translate(-258.476 -83.828)" fill="#999"/>
        <path id="Trazado_112385" data-name="Trazado 112385" d="M313.429,181.531a24.977,24.977,0,0,0,24.647-13.247L315.962,157.16,293.42,167.4a24.977,24.977,0,0,0,20.009,14.13Z" transform="translate(-258.764 -86.902)" fill="#bfbfbf"/>
        <rect id="Rectángulo_28655" data-name="Rectángulo 28655" width="4.112" height="4.112" rx="0.63" transform="translate(95.599 52.468) rotate(5.85)" fill="#eaccb2" stroke="#263238" stroke-miterlimit="10" stroke-width="1"/>
        <path id="Trazado_112386" data-name="Trazado 112386" d="M407.448,143.5l-38.412-3.934a.473.473,0,0,1,.1-.892l38.412,3.863a.473.473,0,0,1-.1.937Z" transform="translate(-266.897 -84.906)" fill="#263238"/>
        <path id="Trazado_112387" data-name="Trazado 112387" d="M403.436,145.394l-34.647-3.568a.473.473,0,0,1-.419-.517.464.464,0,0,1,.517-.419l34.647,3.568a.473.473,0,0,1-.1.937Z" transform="translate(-266.854 -85.145)" fill="#263238"/>
        <rect id="Rectángulo_28656" data-name="Rectángulo 28656" width="4.112" height="4.112" rx="0.63" transform="translate(94.661 61.629) rotate(5.85)" fill="#757575" stroke="#263238" stroke-linecap="round" stroke-linejoin="round" stroke-width="1"/>
        <path id="Trazado_112388" data-name="Trazado 112388" d="M406.383,153.761l-38.43-3.934a.473.473,0,0,1,.1-.937l38.4,3.934a.482.482,0,0,1,.428.517A.473.473,0,0,1,406.383,153.761Z" transform="translate(-266.769 -86.009)" fill="#263238"/>
        <path id="Trazado_112389" data-name="Trazado 112389" d="M402.376,155.674l-34.638-3.568a.475.475,0,1,1,.089-.946l34.647,3.568a.475.475,0,0,1-.1.946Z" transform="translate(-266.74 -86.254)" fill="#263238"/>
        <rect id="Rectángulo_28657" data-name="Rectángulo 28657" width="4.112" height="4.112" rx="0.63" transform="translate(93.723 70.798) rotate(5.85)" fill="#999" stroke="#263238" stroke-linecap="round" stroke-linejoin="round" stroke-width="1"/>
        <path id="Trazado_112390" data-name="Trazado 112390" d="M405.3,164.038,366.944,160.1a.473.473,0,1,1,.1-.937l38.4,3.934a.475.475,0,0,1-.1.946Z" transform="translate(-266.65 -87.117)" fill="#263238"/>
        <path id="Trazado_112391" data-name="Trazado 112391" d="M401.326,165.944l-34.647-3.568a.473.473,0,0,1-.419-.517.482.482,0,0,1,.517-.428L401.424,165a.475.475,0,1,1-.1.946Z" transform="translate(-266.627 -87.363)" fill="#263238"/>
        <rect id="Rectángulo_28658" data-name="Rectángulo 28658" width="4.112" height="4.112" rx="0.63" transform="translate(92.785 79.967) rotate(5.85)" fill="#bfbfbf" stroke="#263238" stroke-miterlimit="10" stroke-width="1"/>
        <path id="Trazado_112392" data-name="Trazado 112392" d="M404.3,174.309l-38.4-3.934a.473.473,0,0,1-.428-.517.482.482,0,0,1,.517-.428l38.412,3.943a.473.473,0,1,1-.1.937Z" transform="translate(-266.541 -88.227)" fill="#263238"/>
        <path id="Trazado_112393" data-name="Trazado 112393" d="M400.281,176.215l-34.647-3.568a.473.473,0,0,1,.1-.937l34.647,3.568a.473.473,0,1,1-.1.892Z" transform="translate(-266.518 -88.473)" fill="#263238"/>
        <rect id="Rectángulo_28659" data-name="Rectángulo 28659" width="4.112" height="4.112" rx="0.63" transform="translate(91.847 89.128) rotate(5.85)" fill="#fff" stroke="#263238" stroke-linecap="round" stroke-linejoin="round" stroke-width="1"/>
        <path id="Trazado_112394" data-name="Trazado 112394" d="M403.238,184.586l-38.412-3.934a.473.473,0,0,1,.1-.892l38.385,3.889a.473.473,0,1,1-.1.892Z" transform="translate(-266.442 -89.342)" fill="#263238"/>
        <path id="Trazado_112395" data-name="Trazado 112395" d="M399.221,186.454l-34.647-3.568a.473.473,0,1,1,.1-.937l34.638,3.568a.473.473,0,1,1-.089.937Z" transform="translate(-266.395 -89.577)" fill="#263238"/>
        <rect id="Rectángulo_28660" data-name="Rectángulo 28660" width="2.203" height="12.605" transform="translate(121.896 162.61) rotate(-174.15)" fill="#757575" stroke="#263238" stroke-linecap="round" stroke-linejoin="round" stroke-width="1"/>
        <rect id="Rectángulo_28661" data-name="Rectángulo 28661" width="2.203" height="5.932" transform="translate(122.096 160.714) rotate(-174.15)" fill="#eaccb2" stroke="#263238" stroke-miterlimit="10" stroke-width="1"/>
        <rect id="Rectángulo_28662" data-name="Rectángulo 28662" width="2.203" height="12.605" transform="translate(127.166 159.946) rotate(-174.15)" fill="#757575" stroke="#263238" stroke-linecap="round" stroke-linejoin="round" stroke-width="1"/>
        <rect id="Rectángulo_28663" data-name="Rectángulo 28663" width="5.932" height="2.203" transform="translate(125.302 156.394) rotate(-84.15)" fill="#eaccb2" stroke="#263238" stroke-miterlimit="10" stroke-width="1"/>
        <rect id="Rectángulo_28664" data-name="Rectángulo 28664" width="2.203" height="12.605" transform="translate(131.85 162.846) rotate(-174.15)" fill="#757575" stroke="#263238" stroke-linecap="round" stroke-linejoin="round" stroke-width="1"/>
        <rect id="Rectángulo_28665" data-name="Rectángulo 28665" width="2.203" height="5.932" transform="translate(132.332 158.14) rotate(-174.15)" fill="#eaccb2" stroke="#263238" stroke-miterlimit="10" stroke-width="1"/>
        <rect id="Rectángulo_28666" data-name="Rectángulo 28666" width="2.203" height="12.605" transform="translate(117.215 159.629) rotate(-174.15)" fill="#757575" stroke="#263238" stroke-linecap="round" stroke-linejoin="round" stroke-width="1"/>
        <rect id="Rectángulo_28667" data-name="Rectángulo 28667" width="2.203" height="5.932" transform="translate(117.414 157.723) rotate(-174.15)" fill="#eaccb2" stroke="#263238" stroke-miterlimit="10" stroke-width="1"/>
        <rect id="Rectángulo_28668" data-name="Rectángulo 28668" width="2.203" height="12.605" transform="translate(111.903 162.819) rotate(-174.15)" fill="#757575" stroke="#263238" stroke-linecap="round" stroke-linejoin="round" stroke-width="1"/>
        <rect id="Rectángulo_28669" data-name="Rectángulo 28669" width="2.203" height="5.932" transform="translate(112.043 161.412) rotate(-174.15)" fill="#eaccb2" stroke="#263238" stroke-miterlimit="10" stroke-width="1"/>
        <rect id="Rectángulo_28670" data-name="Rectángulo 28670" width="2.203" height="12.605" transform="translate(107.295 159.076) rotate(-174.15)" fill="#757575" stroke="#263238" stroke-linecap="round" stroke-linejoin="round" stroke-width="1"/>
        <rect id="Rectángulo_28671" data-name="Rectángulo 28671" width="2.203" height="5.932" transform="translate(107.344 158.621) rotate(-174.15)" fill="#eaccb2" stroke="#263238" stroke-miterlimit="10" stroke-width="1"/>
        <rect id="Rectángulo_28672" data-name="Rectángulo 28672" width="2.203" height="12.605" transform="translate(101.684 165.13) rotate(-174.15)" fill="#757575" stroke="#263238" stroke-linecap="round" stroke-linejoin="round" stroke-width="1"/>
        <rect id="Rectángulo_28673" data-name="Rectángulo 28673" width="2.203" height="5.932" transform="translate(101.723 164.665) rotate(-174.15)" fill="#eaccb2" stroke="#263238" stroke-miterlimit="10" stroke-width="1"/>
        <rect id="Rectángulo_28674" data-name="Rectángulo 28674" width="2.203" height="12.605" transform="translate(97.559 156.719) rotate(-174.15)" fill="#757575" stroke="#263238" stroke-linecap="round" stroke-linejoin="round" stroke-width="1"/>
        <rect id="Rectángulo_28675" data-name="Rectángulo 28675" width="2.203" height="5.932" transform="translate(97.758 154.833) rotate(-174.15)" fill="#eaccb2" stroke="#263238" stroke-miterlimit="10" stroke-width="1"/>
        <rect id="Rectángulo_28676" data-name="Rectángulo 28676" width="2.203" height="12.605" transform="translate(92.688 155.495) rotate(-174.15)" fill="#757575" stroke="#263238" stroke-linecap="round" stroke-linejoin="round" stroke-width="1"/>
        <rect id="Rectángulo_28677" data-name="Rectángulo 28677" width="2.203" height="5.932" transform="translate(93.18 150.754) rotate(-174.15)" fill="#eaccb2" stroke="#263238" stroke-miterlimit="10" stroke-width="1"/>
        <rect id="Rectángulo_28678" data-name="Rectángulo 28678" width="2.203" height="12.605" transform="translate(86.959 162.854) rotate(-174.15)" fill="#757575" stroke="#263238" stroke-linecap="round" stroke-linejoin="round" stroke-width="1"/>
        <rect id="Rectángulo_28679" data-name="Rectángulo 28679" width="2.203" height="5.932" transform="translate(87.492 157.651) rotate(-174.15)" fill="#eaccb2" stroke="#263238" stroke-miterlimit="10" stroke-width="1"/>
        <rect id="Rectángulo_28680" data-name="Rectángulo 28680" width="2.203" height="12.605" transform="translate(82.585 156.828) rotate(-174.15)" fill="#757575" stroke="#263238" stroke-linecap="round" stroke-linejoin="round" stroke-width="1"/>
        <rect id="Rectángulo_28681" data-name="Rectángulo 28681" width="2.203" height="5.932" transform="translate(82.826 154.47) rotate(-174.15)" fill="#eaccb2" stroke="#263238" stroke-miterlimit="10" stroke-width="1"/>
        <rect id="Rectángulo_28682" data-name="Rectángulo 28682" width="2.203" height="12.605" transform="translate(77.3 159.61) rotate(-174.15)" fill="#757575" stroke="#263238" stroke-linecap="round" stroke-linejoin="round" stroke-width="1"/>
        <rect id="Rectángulo_28683" data-name="Rectángulo 28683" width="2.203" height="5.932" transform="translate(77.508 157.705) rotate(-174.15)" fill="#eaccb2" stroke="#263238" stroke-miterlimit="10" stroke-width="1"/>
        <rect id="Rectángulo_28684" data-name="Rectángulo 28684" width="2.203" height="12.605" transform="translate(71.79 164.73) rotate(-174.15)" fill="#757575" stroke="#263238" stroke-linecap="round" stroke-linejoin="round" stroke-width="1"/>
        <rect id="Rectángulo_28685" data-name="Rectángulo 28685" width="2.203" height="5.932" transform="translate(71.806 164.72) rotate(-174.15)" fill="#eaccb2" stroke="#263238" stroke-miterlimit="10" stroke-width="1"/>
        <rect id="Rectángulo_28686" data-name="Rectángulo 28686" width="2.203" height="12.605" transform="translate(67.678 156.276) rotate(-174.15)" fill="#757575" stroke="#263238" stroke-linecap="round" stroke-linejoin="round" stroke-width="1"/>
        <rect id="Rectángulo_28687" data-name="Rectángulo 28687" width="2.203" height="5.932" transform="translate(67.819 154.85) rotate(-174.15)" fill="#eaccb2" stroke="#263238" stroke-miterlimit="10" stroke-width="1"/>
        <rect id="Rectángulo_28688" data-name="Rectángulo 28688" width="2.203" height="12.605" transform="translate(63.296 150.267) rotate(-174.15)" fill="#757575" stroke="#263238" stroke-linecap="round" stroke-linejoin="round" stroke-width="1"/>
        <rect id="Rectángulo_28689" data-name="Rectángulo 28689" width="2.203" height="5.932" transform="translate(63.454 148.842) rotate(-174.15)" fill="#eaccb2" stroke="#263238" stroke-miterlimit="10" stroke-width="1"/>
        <rect id="Rectángulo_28690" data-name="Rectángulo 28690" width="2.203" height="12.605" transform="translate(57.683 156.393) rotate(-174.15)" fill="#757575" stroke="#263238" stroke-linecap="round" stroke-linejoin="round" stroke-width="1"/>
        <rect id="Rectángulo_28691" data-name="Rectángulo 28691" width="2.203" height="5.932" transform="translate(58.166 151.678) rotate(-174.15)" fill="#eaccb2" stroke="#263238" stroke-miterlimit="10" stroke-width="1"/>
        <rect id="Rectángulo_28692" data-name="Rectángulo 28692" width="2.203" height="12.605" transform="translate(52.026 162.972) rotate(-174.15)" fill="#757575" stroke="#263238" stroke-linecap="round" stroke-linejoin="round" stroke-width="1"/>
        <rect id="Rectángulo_28693" data-name="Rectángulo 28693" width="2.203" height="5.932" transform="translate(52.601 157.297) rotate(-174.15)" fill="#eaccb2" stroke="#263238" stroke-miterlimit="10" stroke-width="1"/>
        <rect id="Rectángulo_28694" data-name="Rectángulo 28694" width="2.203" height="12.605" transform="translate(47.814 155.378) rotate(-174.15)" fill="#757575" stroke="#263238" stroke-linecap="round" stroke-linejoin="round" stroke-width="1"/>
        <rect id="Rectángulo_28695" data-name="Rectángulo 28695" width="2.203" height="5.932" transform="translate(48.004 153.5) rotate(-174.15)" fill="#eaccb2" stroke="#263238" stroke-miterlimit="10" stroke-width="1"/>
        <rect id="Rectángulo_28696" data-name="Rectángulo 28696" width="2.203" height="12.605" transform="translate(43.091 152.795) rotate(-174.15)" fill="#757575" stroke="#263238" stroke-linecap="round" stroke-linejoin="round" stroke-width="1"/>
        <rect id="Rectángulo_28697" data-name="Rectángulo 28697" width="2.203" height="5.932" transform="translate(43.625 147.591) rotate(-174.15)" fill="#eaccb2" stroke="#263238" stroke-miterlimit="10" stroke-width="1"/>
        <rect id="Rectángulo_28698" data-name="Rectángulo 28698" width="2.203" height="12.605" transform="translate(37.746 156.202) rotate(-174.15)" fill="#757575" stroke="#263238" stroke-linecap="round" stroke-linejoin="round" stroke-width="1"/>
        <rect id="Rectángulo_28699" data-name="Rectángulo 28699" width="2.203" height="5.932" transform="translate(37.754 156.191) rotate(-174.15)" fill="#eaccb2" stroke="#263238" stroke-miterlimit="10" stroke-width="1"/>
        <rect id="Rectángulo_28700" data-name="Rectángulo 28700" width="2.203" height="12.605" transform="translate(33.214 151.771) rotate(-174.15)" fill="#757575" stroke="#263238" stroke-linecap="round" stroke-linejoin="round" stroke-width="1"/>
        <rect id="Rectángulo_28701" data-name="Rectángulo 28701" width="2.203" height="5.932" transform="translate(33.313 150.836) rotate(-174.15)" fill="#eaccb2" stroke="#263238" stroke-miterlimit="10" stroke-width="1"/>
        <rect id="Rectángulo_28702" data-name="Rectángulo 28702" width="2.203" height="12.605" transform="translate(28.107 152.958) rotate(-174.15)" fill="#757575" stroke="#263238" stroke-linecap="round" stroke-linejoin="round" stroke-width="1"/>
        <rect id="Rectángulo_28703" data-name="Rectángulo 28703" width="2.203" height="5.932" transform="translate(28.156 152.485) rotate(-174.15)" fill="#eaccb2" stroke="#263238" stroke-miterlimit="10" stroke-width="1"/>
        <rect id="Rectángulo_28704" data-name="Rectángulo 28704" width="2.203" height="12.605" transform="translate(23.336 150.837) rotate(-174.15)" fill="#757575" stroke="#263238" stroke-linecap="round" stroke-linejoin="round" stroke-width="1"/>
        <rect id="Rectángulo_28705" data-name="Rectángulo 28705" width="2.203" height="5.932" transform="translate(23.969 144.709) rotate(-174.15)" fill="#eaccb2" stroke="#263238" stroke-miterlimit="10" stroke-width="1"/>
        <path id="Trazado_112396" data-name="Trazado 112396" d="M391.594,276.437,291.479,266.169a1.062,1.062,0,0,0-1.16.946,1.044,1.044,0,0,0,.937,1.151L391.38,278.506a1.04,1.04,0,1,0,.214-2.07Z" transform="translate(-258.428 -98.669)" fill="#263238"/>
        <path id="Trazado_112397" data-name="Trazado 112397" d="M388.769,284.685l-116.43-11.936a1.062,1.062,0,0,0-1.16.946,1.044,1.044,0,0,0,.946,1.151l116.421,11.936a1.062,1.062,0,0,0,1.151-.946,1.044,1.044,0,0,0-.928-1.151Z" transform="translate(-256.362 -99.379)" fill="#263238"/>
        <path id="Trazado_112398" data-name="Trazado 112398" d="M338.988,288.162l-67.519-6.922a1.054,1.054,0,1,0-.214,2.1l67.519,6.922a1.054,1.054,0,1,0,.214-2.1Z" transform="translate(-256.269 -100.296)" fill="#263238"/>
        <path id="Trazado_112399" data-name="Trazado 112399" d="M398.779,208.817c-3.452-.277-4.648,5.227-4.648,5.227s-5.459-7.136-4.594-23.978c0,0-2.676-7.458-9.813-2.953s-14.549,20.374-12.783,37.68l-13.862-46.11c-4.8,1.017-14.549,7.466-11.98,38.608l-15.165-16.057a5.711,5.711,0,0,0-6.423,2.31c-2.319,3.631-1.213,29.634.7,39.357s-2.971,29.259-2.971,29.259-5.227-22.123-14.683-27.725L266.55,170.2,254.57,286.969l13.5,1.383L289.744,277.8c-.125,4.88-.241,9.367-.6,12.712l108.331,11.1,7.752-75.664C402.6,216.515,400.081,208.915,398.779,208.817Z" transform="translate(-254.57 -88.31)" fill="rgba(0,0,0,0.7)" opacity="0.2"/>
      </g>
      <path id="Trazado_112401" data-name="Trazado 112401" d="M417.833,93.039l-12.6,123L397.476,291.7,289.146,280.6l-21.079-2.159-13.5-1.383L266.532,160.29l8.394-81.89Z" transform="translate(-254.57 -78.4)" fill="none" stroke="#263238" stroke-linecap="round" stroke-linejoin="round" stroke-width="1"/>
      <path id="Trazado_112402" data-name="Trazado 112402" d="M420.19,420.623,356.854,431.4s-11.026-58.563-17.6-67.8-5.352-13.024-8.564-19.242c-1.927-3.756-11.6-10.758-19.17-17.672h0c-.66-.6-1.3-1.2-1.918-1.784-.268-.241-.517-.5-.767-.74-1.008-1-1.945-1.971-2.774-2.926q-.455-.508-.892-1.017a14.451,14.451,0,0,1-3.069-5.433,1.384,1.384,0,0,1-.054-.277,2.3,2.3,0,0,1-.054-.33c-.169-1.383-.348-2.962-.526-4.674a8.822,8.822,0,0,0-.116-1.053l-.054-.428c-.152-1.427-.321-2.944-.517-4.5s-.41-3.327-.66-5.031c-.08-.589-.161-1.178-.259-1.784h0c-.1-.66-.205-1.32-.312-1.989L299.237,293a2.027,2.027,0,0,0-.053-.268l-.375-1.98a.891.891,0,0,1-.045-.223c-.125-.58-.241-1.151-.375-1.731-.277-1.293-.589-2.56-.892-3.791a47.038,47.038,0,0,0-2.364-6.78c-4.567-10.2,1.374-6.512-2.2-32.747,0,0,2.632-6.084,10.134-1.222a20.114,20.114,0,0,1,1.677,1.222h0a21.091,21.091,0,0,1,3.987,4.264,24.64,24.64,0,0,1,3.443,7.136,30.874,30.874,0,0,1,1.017,12.756s5.638,19.322,8.608,23.72,15.254-20.865,14.46-23.809a39.777,39.777,0,0,1-.633-4c-.054-.437-.107-.892-.17-1.392s-.116-1-.169-1.525a5.956,5.956,0,0,0-.1-.776v-.312c-.107-1.008-.232-2.078-.348-3.185a6.993,6.993,0,0,0-.1-.892c-.054-.526-.107-1.07-.161-1.606a2.249,2.249,0,0,1,0-.268c0-.3-.071-.616-.1-.892-.071-.624-.134-1.258-.2-1.891s-.107-1.088-.161-1.632c-.107-1.026-.205-2.052-.3-3.042-.071-.74-.143-1.472-.205-2.186a1.67,1.67,0,0,0-.045-.473c-.375-3.925-.669-7.136-.776-8.528,0,0-8.92-13.22-9.813-19.447s-.839-12.783,2.9-15.45c8.849-6.3,6.244,3.854,10.223,8.028s10.036,11.088,13.479,13.238c3.176,2.016,6.012,9.813,6.414,10.99-.455-1.713-5-18.555-5.094-21.944-.116-3.568-2.846-22.444,1.784-29.215s10.8-1.516,11.374-.178.74,19.625,2.373,24.71,8.466,26.289,8.466,26.289.285-20.624,1.784-29.857,5.549-16.449,9.474-16.86,7.556,3.916,7.556,3.916-1.552,14.719-1.106,18.118-.642,15.673,1.222,22.3c0,0-.214-17.582,2.516-19.83s5.076-3.327,6.61-1.784,1.864,11.927,3.425,18.189,1.365,14.772,2.391,24.54,5.067,23.327,4.264,31.079-3.274,26.976-5.263,38.26-7.065,26.761-7.065,26.761,2.31,8.251,1.864,15.611S420.19,420.623,420.19,420.623Z" transform="translate(-258.711 -89.342)" fill="#fff"/>
      <path id="Trazado_112403" data-name="Trazado 112403" d="M373.314,210.42c1.213,3.764,5.272,16.36,7.288,22.649,0,0-8.849,6.5-8.635,12.551s-1.615,18.26-5.593,17.9-3.568-25.736-4.915-30.009c.812,1.838,1.329,3.327,1.436,3.622-.294-1.1-5.022-18.572-5.12-22.034,0-.812-.187-2.435-.375-4.532h0s8.8-8.43,15.263-3.274h0A23.528,23.528,0,0,0,373.314,210.42Z" transform="translate(-265.671 -92.134)" fill="#eaccb2" opacity="0.4"/>
      <path id="Trazado_112404" data-name="Trazado 112404" d="M402.571,217.241c-4.121,3.907-10.339,10.812-11.124,17.475,0,0,2.293,18.608,1.311,26.762l-8.028-25.165s.285-20.624,1.784-29.857a4.509,4.509,0,0,1,.134-.758,36.691,36.691,0,0,1,16.164-3.987,71.092,71.092,0,0,0-.348,9.875,53.878,53.878,0,0,1,.107,5.656Z" transform="translate(-268.621 -91.711)" fill="#eaccb2" opacity="0.4"/>
      <path id="Trazado_112405" data-name="Trazado 112405" d="M408.737,215.447h0c-.1.062-.339.259-.687.553a10.5,10.5,0,0,1,.7-1.16Z" transform="translate(-271.138 -93.129)" fill="#eaccb2" opacity="0.4"/>
      <path id="Trazado_112406" data-name="Trazado 112406" d="M410.522,266.713s-5.3-19.875-5.352-35.878c-.045-5.923.642-11.32,2.56-14.969h0a10.5,10.5,0,0,1,.7-1.16v.571a14.853,14.853,0,0,1,3.158-2.087c-1.49,2.319-3.2,6.86-1.222,14.273C413.475,238.979,410.763,253.1,410.522,266.713Z" transform="translate(-270.827 -92.951)" fill="#eaccb2" opacity="0.4"/>
      <path id="Trazado_112407" data-name="Trazado 112407" d="M325.873,308.925s1.418,18.938-13.8,25.718h0c-.66-.6-1.3-1.2-1.918-1.784-.268-.241-.517-.5-.767-.74-1.008-1-1.945-1.971-2.774-2.926-.312-.348-.589-.687-.892-1.017a14.45,14.45,0,0,1-3.069-5.433,1.382,1.382,0,0,1-.054-.276,2.3,2.3,0,0,1-.054-.33c-.169-1.383-.348-2.962-.526-4.674a8.815,8.815,0,0,0-.116-1.053l-.053-.428c-.152-1.427-.321-2.944-.517-4.5s-.41-3.327-.66-5.031c-.089-.589-.17-1.186-.259-1.784h0c-.1-.66-.205-1.32-.312-1.989l-.312-1.731a2.023,2.023,0,0,0-.053-.268l-.375-1.98a.891.891,0,0,1-.045-.223c-.125-.58-.241-1.151-.375-1.731-.285-1.285-.6-2.551-.892-3.791,6.021-5.789,19.919-2.159,13.193-15.584,0,0,3.39-11.49-5.95-23.943h0c6.387,5.147,9.661,14.2,8.448,24.085,0,0,5.638,19.322,8.608,23.72s15.254-20.865,14.46-23.809a39.78,39.78,0,0,1-.633-4c-.054-.437-.107-.892-.169-1.392s-.116-1-.169-1.525a5.958,5.958,0,0,0-.1-.776v-.312q-.161-1.525-.348-3.185a7,7,0,0,0-.1-.892c-.054-.526-.107-1.07-.161-1.606a2.25,2.25,0,0,1,0-.268c0-.3-.071-.616-.1-.892-.071-.624-.134-1.258-.2-1.891s-.107-1.088-.161-1.632c-.107-1.026-.205-2.052-.3-3.042-.071-.74-.134-1.481-.205-2.186a1.67,1.67,0,0,0-.045-.473c.241,1.169,4.764,22.7,7.35,27.716C344.071,286.2,332.8,313.385,325.873,308.925Z" transform="translate(-259.264 -97.286)" fill="#eaccb2" opacity="0.4"/>
      <path id="Trazado_112408" data-name="Trazado 112408" d="M418.093,332.742c-1.989,11.293-7.065,26.762-7.065,26.762s2.31,8.251,1.864,15.611c-.125,1.98,1.106,6.985,2.944,13.229-.535-1.374-6.244-16.11-6.128-21.249.116-5.4-1.418-6.887-4.46-13.515s-7.591-5.9-7.591-5.9-1.784,16.53-5.923,5.664-4.951-23.506,5.513-67.394c0,0,1.579,5.5.259,21.855s2.587,21.3,2.587,21.3A152.745,152.745,0,0,0,414,296.686s-1.356,19.081-2.56,27.77,4.291-10.071,8.127-21.659c3.568-10.874,3.738-15.013,2.364-22.756,1.017,5.45,1.784,10.7,1.392,14.46C422.553,302.216,420.082,321.458,418.093,332.742Z" transform="translate(-269.067 -100.167)" fill="#eaccb2" opacity="0.4"/>
      <path id="Trazado_112409" data-name="Trazado 112409" d="M341.4,380.36c3.086,4.906,10.642,11.391,15.165,29.331s1.668,37.573,1.668,37.573Z" transform="translate(-263.943 -110.997)" fill="#eaccb2" opacity="0.4"/>
      <path id="Trazado_112410" data-name="Trazado 112410" d="M312.18,264.422s-15.8,8.028-17.047,21.409c-4.567-10.2,1.374-6.512-2.2-32.747,0,0,2.632-6.084,10.134-1.222a20.11,20.11,0,0,1,1.677,1.222h0a21.089,21.089,0,0,1,3.987,4.264Z" transform="translate(-258.711 -96.922)" fill="rgba(0,0,0,0.7)" opacity="0.2"/>
      <path id="Trazado_112411" data-name="Trazado 112411" d="M356.853,431.394s-11.026-58.563-17.6-67.8-5.352-13.024-8.564-19.242-27.591-21.347-28.67-30.187-2.319-25.753-6.887-35.958,1.374-6.512-2.212-32.747c0,0,2.676-6.084,10.143-1.222s11.445,14.585,10.134,25.352c0,0,5.638,19.3,8.617,23.711s15.236-20.865,14.442-23.818-3.149-28.064-3.515-32.649c0,0-8.92-13.229-9.813-19.456s-.839-12.783,2.9-15.441c8.849-6.3,6.244,3.854,10.223,8.028s10.036,11.079,13.47,13.238,6.432,11.177,6.432,11.177-5.04-18.5-5.138-22.078-2.846-22.444,1.784-29.206,10.812-1.525,11.383-.187.74,19.625,2.382,24.71l8.448,26.289s.294-20.624,1.838-29.857,5.549-16.449,9.474-16.86,7.556,3.916,7.556,3.916-1.552,14.719-1.115,18.118-.633,15.664,1.231,22.3c0,0-.214-17.582,2.516-19.83s5.076-3.327,6.61-1.784,1.864,11.927,3.425,18.189,1.365,14.772,2.391,24.54,5.067,23.327,4.264,31.07-3.274,26.984-5.272,38.278-7.047,26.762-7.047,26.762,2.3,8.251,1.855,15.611,17.645,56.351,17.645,56.351" transform="translate(-258.71 -89.337)" fill="none" stroke="#263238" stroke-linecap="round" stroke-linejoin="round" stroke-width="1"/>
      <path id="Trazado_112412" data-name="Trazado 112412" d="M384.72,240.45c1.847,4.335,6.4,22.64,8.028,25.174a8.689,8.689,0,0,0,3.479,3.3" transform="translate(-268.62 -95.893)" fill="none" stroke="#263238" stroke-linecap="round" stroke-linejoin="round" stroke-width="1"/>
      <path id="Trazado_112413" data-name="Trazado 112413" d="M406,237.75s-.392,3.756,1.632,15.709,3.015,17.047,4.148,19.714" transform="translate(-270.913 -95.602)" fill="none" stroke="#263238" stroke-linecap="round" stroke-linejoin="round" stroke-width="1"/>
      <path id="Trazado_112414" data-name="Trazado 112414" d="M363.58,241c2.471,7.288,3.871,18.9,5.281,22.4s2.676,4.219,2.676,4.219" transform="translate(-266.338 -95.953)" fill="none" stroke="#263238" stroke-linecap="round" stroke-linejoin="round" stroke-width="1"/>
      <path id="Trazado_112415" data-name="Trazado 112415" d="M368.07,260.58a11.088,11.088,0,0,1,3.425,4.326" transform="translate(-266.822 -98.066)" fill="none" stroke="#263238" stroke-linecap="round" stroke-linejoin="round" stroke-width="1"/>
      <path id="Trazado_112416" data-name="Trazado 112416" d="M325.31,307.06s1.347,9.661,7.4,8.921" transform="translate(-262.206 -103.084)" fill="none" stroke="#263238" stroke-linecap="round" stroke-linejoin="round" stroke-width="1"/>
      <path id="Trazado_112417" data-name="Trazado 112417" d="M341.379,280.36s1.57,11.49-1,16.36" transform="translate(-263.833 -100.202)" fill="none" stroke="#263238" stroke-linecap="round" stroke-linejoin="round" stroke-width="1"/>
      <path id="Trazado_112418" data-name="Trazado 112418" d="M395,280.48s4.068,2.489,1.347,9.813-7.458,36.779-7.458,36.779" transform="translate(-269.07 -100.215)" fill="none" stroke="#263238" stroke-linecap="round" stroke-linejoin="round" stroke-width="1"/>
      <path id="Trazado_112419" data-name="Trazado 112419" d="M414.607,289.12c1.7,6.6,1.855,6.771-.892,14.879s-7.234,27.975-7.234,27.975" transform="translate(-270.969 -101.147)" fill="none" stroke="#263238" stroke-linecap="round" stroke-linejoin="round" stroke-width="1"/>
      <path id="Trazado_112420" data-name="Trazado 112420" d="M413.558,367.913s-2.676-5.352-.464-9.813" transform="translate(-271.588 -108.594)" fill="none" stroke="#263238" stroke-linecap="round" stroke-linejoin="round" stroke-width="1"/>
      <path id="Trazado_112421" data-name="Trazado 112421" d="M344.86,385.86s6.726,9.447,9.652,20.018" transform="translate(-264.317 -111.59)" fill="none" stroke="#263238" stroke-linecap="round" stroke-linejoin="round" stroke-width="1"/>
      <path id="Trazado_112422" data-name="Trazado 112422" d="M400.34,199.984l1.82-1.793.821-.241-.054.892-1.668,2.132Z" transform="translate(-270.306 -91.305)" fill="#757575" stroke="#263238" stroke-linecap="round" stroke-linejoin="round" stroke-width="1"/>
      <path id="Trazado_112423" data-name="Trazado 112423" d="M390.94,201.157l-2.962,6.708-79.571,106.1-8.858-5.656,12-15.093,71.471-89.651,6.307-4.005A2.257,2.257,0,0,1,390.94,201.157Z" transform="translate(-259.426 -91.479)" fill="#eaccb2"/>
      <g id="Grupo_60040" data-name="Grupo 60040" transform="translate(40.124 108.081)" clip-path="url(#clip-path-4)">
        <path id="Trazado_112424" data-name="Trazado 112424" d="M390.94,201.155l-2.962,6.708-79.571,106.1-8.858-5.656,12-15.093c5.531-.571,6.458,2.676,6.458,2.676l68.554-89.473c-.678-2.409-3.568-2.872-3.568-2.872l6.307-4.005A2.257,2.257,0,0,1,390.94,201.155Z" transform="translate(-299.55 -199.558)" fill="rgba(0,0,0,0.7)" opacity="0.3"/>
      </g>
      <path id="Trazado_112426" data-name="Trazado 112426" d="M390.94,201.157l-2.962,6.708-79.571,106.1-8.858-5.656,12-15.093,71.471-89.651,6.307-4.005A2.257,2.257,0,0,1,390.94,201.157Z" transform="translate(-259.426 -91.479)" fill="none" stroke="#263238" stroke-linecap="round" stroke-linejoin="round" stroke-width="1"/>
      <path id="Trazado_112427" data-name="Trazado 112427" d="M332.488,292.458s-8.92,17.627-17.431,30.1l-6.1,1.579S294.951,338.051,286.4,345a19.162,19.162,0,0,1-4.175-3.506s12.132-23.3,25.557-38.046a16.95,16.95,0,0,1,4.4,2.337,21.8,21.8,0,0,1,4.6,4.407l14.96-18.822Z" transform="translate(-257.556 -101.39)" fill="#eaccb2"/>
      <g id="Grupo_60041" data-name="Grupo 60041" transform="translate(24.674 189.98)" clip-path="url(#clip-path-5)">
        <path id="Trazado_112428" data-name="Trazado 112428" d="M332.993,292.454s-8.921,17.627-17.431,30.1l-6.1,1.579S295.456,338.047,286.91,345l.232-3.782c9.268-14.157,21.043-29.6,25.548-35.432a21.8,21.8,0,0,1,4.6,4.407l-8.314,11.1,4.764-.892,18.51-29.063Z" transform="translate(-282.735 -291.366)" fill="rgba(0,0,0,0.7)" opacity="0.3"/>
      </g>
      <path id="Trazado_112430" data-name="Trazado 112430" d="M332.488,292.458s-8.92,17.627-17.431,30.1l-6.1,1.579S294.951,338.051,286.4,345a19.162,19.162,0,0,1-4.175-3.506s12.132-23.3,25.557-38.046a16.95,16.95,0,0,1,4.4,2.337,21.8,21.8,0,0,1,4.6,4.407l14.96-18.822Z" transform="translate(-257.556 -101.39)" fill="none" stroke="#263238" stroke-linecap="round" stroke-linejoin="round" stroke-width="1"/>
      <path id="Trazado_112431" data-name="Trazado 112431" d="M367.477,263.44l-24.853,24.085-3.97,3.854c2.721-6.994,1.4-17.841,1.231-19.117h0v-.3a39.781,39.781,0,0,1-.633-4c-.054-.437-.107-.892-.169-1.392s-.116-1-.17-1.525a5.963,5.963,0,0,0-.1-.776v-.312c-.107-1.008-.232-2.078-.348-3.185a7,7,0,0,0-.1-.892c-.053-.526-.107-1.07-.161-1.606a2.25,2.25,0,0,1,0-.268c0-.3-.071-.615-.1-.892-.071-.624-.134-1.258-.2-1.891s-.107-1.088-.161-1.632c-.107-1.026-.205-2.052-.3-3.042-.071-.74-.143-1.472-.205-2.186a1.67,1.67,0,0,0-.045-.473c-.375-3.925-.669-7.136-.776-8.528,0,0-8.92-13.22-9.813-19.447s-.839-12.783,2.9-15.45c8.849-6.3,6.244,3.854,10.223,8.028s10.036,11.088,13.479,13.238,6.325,11.106,6.325,11.106c2.471,7.279,3.871,18.894,5.281,22.39S367.477,263.44,367.477,263.44Z" transform="translate(-262.296 -91.792)" fill="#fff"/>
      <path id="Trazado_112432" data-name="Trazado 112432" d="M368.07,260.58a11.088,11.088,0,0,1,3.425,4.326" transform="translate(-266.822 -98.066)" fill="none" stroke="#263238" stroke-linecap="round" stroke-linejoin="round" stroke-width="1"/>
      <path id="Trazado_112433" data-name="Trazado 112433" d="M339.589,212.453c3.943,4.21,10,11.044,13.443,13.22-.482-.241-6.824-3.327-10.366.107-3.684,3.568-6.351,13.515-6.351,13.515s-8.921-13.22-9.813-19.447-.839-12.783,2.9-15.45C338.215,198.1,335.628,208.287,339.589,212.453Z" transform="translate(-262.284 -91.785)" fill="#eaccb2" opacity="0.4"/>
      <path id="Trazado_112434" data-name="Trazado 112434" d="M343.964,293.044l-3.97,3.854c2.721-6.994,1.4-17.841,1.231-19.117h0a1.348,1.348,0,0,0,0-.3,39.769,39.769,0,0,1-.633-4c-.054-.437-.107-.892-.169-1.392s-.116-1-.169-1.525a5.963,5.963,0,0,0-.1-.776v-.312q-.161-1.525-.348-3.185a7,7,0,0,0-.1-.892c-.053-.526-.107-1.07-.161-1.606a2.263,2.263,0,0,1,0-.268c0-.3-.071-.616-.1-.892-.071-.624-.134-1.258-.2-1.891s-.107-1.088-.161-1.632c-.107-1.026-.205-2.052-.3-3.042-.071-.74-.134-1.481-.205-2.186a1.669,1.669,0,0,0-.045-.473c.241,1.169,4.764,22.7,7.351,27.716C346.765,282.946,345.855,287.834,343.964,293.044Z" transform="translate(-263.635 -97.292)" fill="#eaccb2" opacity="0.4"/>
      <path id="Trazado_112435" data-name="Trazado 112435" d="M367.467,263.435s-1.258-.723-2.676-4.219-2.81-15.111-5.281-22.4c0,0-3.024-8.92-6.467-11.115s-9.509-9.028-13.47-13.238S338.2,198.1,329.35,204.435c-3.738,2.676-3.818,9.224-2.9,15.441s9.813,19.456,9.813,19.456c.366,4.585,2.721,29.705,3.515,32.649" transform="translate(-262.277 -91.787)" fill="none" stroke="#263238" stroke-linecap="round" stroke-linejoin="round" stroke-width="1"/>
      <path id="Trazado_112436" data-name="Trazado 112436" d="M341.379,280.36s1.57,11.49-1,16.36" transform="translate(-263.833 -100.202)" fill="none" stroke="#263238" stroke-linecap="round" stroke-linejoin="round" stroke-width="1"/>
    </g>
    <g id="freepik--left-hand--inject-81" transform="translate(34.665 63.178)">
      <path id="Trazado_112437" data-name="Trazado 112437" d="M161.683,294.223s5.647,26.226-6.583,45.3-21.65,24.166-25.869,29.857-20.8,37.511-20.8,37.511L89.07,349.557l19.357-70.927Z" transform="translate(-41.577 -90.113)" fill="rgba(0,0,0,0.7)" opacity="0.2"/>
      <path id="Trazado_112438" data-name="Trazado 112438" d="M272.973,251.366,152.938,301.882l-12.373,5.21-23.318-55.405L63.1,123.026,195.507,67.3Z" transform="translate(-38.774 -67.3)" fill="#fff"/>
      <g id="Grupo_60042" data-name="Grupo 60042" transform="translate(24.326)" clip-path="url(#clip-path-6)">
        <path id="Trazado_112439" data-name="Trazado 112439" d="M166.107,94.13l-57.154,24.085a2.109,2.109,0,1,0,1.632,3.889L167.731,98.01A2.105,2.105,0,1,0,166.1,94.13Z" transform="translate(-67.91 -70.178)" fill="#263238"/>
        <path id="Trazado_112440" data-name="Trazado 112440" d="M157.4,109.827l-28.546,12.025a1.055,1.055,0,0,0,.821,1.945l28.546-12.034a1.053,1.053,0,1,0-.821-1.936Z" transform="translate(-70.128 -71.879)" fill="#263238"/>
        <path id="Trazado_112441" data-name="Trazado 112441" d="M205,192s1.2,9.465-2.319,10.945c-3.22,1.356-7.458-3.72-11.16-2.168s-.785,14.986-4.353,16.485-7.868-4.014-10.954-2.676-1.213,8.207-4.389,9.545c-2.623,1.1-6.369-4.389-9.367-5.593a2.275,2.275,0,0,0-1.784-.089c-3.14,1.32-1.579,15.745-4.291,16.878a5.1,5.1,0,0,1-2.409.4,17,17,0,0,0-3.06-.294,3.925,3.925,0,0,0-1.142.294c-2.31.972-2,8.564-4.112,9.456s-4.2-.214-6.458.732-2.221,4.9-5.593,6.316l1.427,3.381L217.2,221.036" transform="translate(-70.712 -80.761)" fill="#bfbfbf" stroke="#263238" stroke-miterlimit="10" stroke-width="1"/>
        <path id="Trazado_112442" data-name="Trazado 112442" d="M116.56,218.92,133.2,258.447l86.029-36.2" transform="translate(-68.871 -83.667)" fill="none" stroke="#263238" stroke-linecap="round" stroke-linejoin="round" stroke-width="1"/>
        <path id="Trazado_112443" data-name="Trazado 112443" d="M211.611,209.216s-.41-.5-1.017-1.1c-1.062-1.026-2.748-2.328-4.032-1.784s-1.365,2.6-1.338,4.835c0,2.676.268,5.62-1.1,6.191-1.16.491-2.194-.241-3.265-1.044-1.222-.892-2.471-1.909-3.979-1.276-2.533,1.07-1.784,4.371-2.676,7.2a5.468,5.468,0,0,1-3.345,3.568c-2.186.892-4.407,0-6.5-1.409-3.568-2.409-6.708-6.316-8.76-5.45-3.274,1.383.33,10.232-3.185,11.713-1.963.83-6.03-5.352-9.982-10.7-3.122-4.219-6.173-7.895-8.028-7.136-4.237,1.784,2.748,22.952-.33,24.246l-.1.045a3.283,3.283,0,0,1-3.06-.294c-1.106-.624-2.016-1.525-3.238-1.008-2.275.963-.946,9.259-3.443,10.312s-4.005-.473-6.824.714c-2.382,1.008-3.8,6.78-3.8,6.78l1.427,3.381L217.2,222.418" transform="translate(-70.712 -82.295)" fill="#757575" stroke="#263238" stroke-linecap="round" stroke-linejoin="round" stroke-width="1"/>
        <path id="Trazado_112444" data-name="Trazado 112444" d="M198.017,241.2l-28.546,12.025a1.055,1.055,0,1,0,.821,1.945l28.546-12.025a1.055,1.055,0,1,0-.821-1.945Z" transform="translate(-74.513 -86.064)" fill="#263238"/>
        <rect id="Rectángulo_28706" data-name="Rectángulo 28706" width="4.112" height="4.112" rx="0.63" transform="translate(142.864 109.173) rotate(-22.82)" fill="#bfbfbf" stroke="#263238" stroke-miterlimit="10" stroke-width="1"/>
        <path id="Trazado_112445" data-name="Trazado 112445" d="M242.208,182.79,230.79,187.6a.491.491,0,0,1-.624-.259.473.473,0,0,1,.25-.616l11.427-4.808a.474.474,0,0,1,.366.874Z" transform="translate(-81.131 -79.669)" fill="#263238"/>
        <path id="Trazado_112446" data-name="Trazado 112446" d="M239.62,186.56l-7.939,3.336a.474.474,0,0,1-.366-.874l7.939-3.336a.473.473,0,0,1,.616.25A.482.482,0,0,1,239.62,186.56Z" transform="translate(-81.228 -80.076)" fill="#263238"/>
        <rect id="Rectángulo_28707" data-name="Rectángulo 28707" width="4.112" height="4.112" rx="0.63" transform="translate(146.44 117.665) rotate(-22.82)" fill="#757575" stroke="#263238" stroke-linecap="round" stroke-linejoin="round" stroke-width="1"/>
        <path id="Trazado_112447" data-name="Trazado 112447" d="M246.208,192.307l-11.418,4.8a.482.482,0,0,1-.366-.892l11.418-4.808a.482.482,0,1,1,.366.892Z" transform="translate(-81.562 -80.693)" fill="#263238"/>
        <path id="Trazado_112448" data-name="Trazado 112448" d="M243.619,196.069l-7.93,3.345a.484.484,0,1,1-.375-.892l7.939-3.336a.482.482,0,1,1,.366.892Z" transform="translate(-81.659 -81.101)" fill="#263238"/>
        <path id="Trazado_112449" data-name="Trazado 112449" d="M253.205,231.647l-92.773,39.036a1.055,1.055,0,1,0,.821,1.945l92.773-39.045a1.053,1.053,0,1,0-.821-1.936Z" transform="translate(-73.537 -85.03)" fill="#263238"/>
        <path id="Trazado_112450" data-name="Trazado 112450" d="M254.672,239.476,146.8,284.872a1.053,1.053,0,1,0,.821,1.936l107.867-45.4a1.053,1.053,0,1,0-.812-1.936Z" transform="translate(-72.06 -85.874)" fill="#263238"/>
        <path id="Trazado_112451" data-name="Trazado 112451" d="M257.963,247.307,150.1,292.7a1.053,1.053,0,1,0,.821,1.936l107.849-45.4a1.053,1.053,0,1,0-.821-1.936Z" transform="translate(-72.417 -86.72)" fill="#263238"/>
        <path id="Trazado_112452" data-name="Trazado 112452" d="M261.259,255.132,153.393,300.492a1.053,1.053,0,1,0,.812,1.936l107.867-45.4a1.053,1.053,0,1,0-.812-1.936Z" transform="translate(-72.769 -87.56)" fill="#263238"/>
        <path id="Trazado_112453" data-name="Trazado 112453" d="M219.246,284.34l-62.559,26.333a1.053,1.053,0,1,0,.821,1.936l62.559-26.324a1.055,1.055,0,0,0-.821-1.945Z" transform="translate(-73.128 -90.72)" fill="#263238"/>
        <path id="Trazado_112454" data-name="Trazado 112454" d="M179.641,131.7s1.2,9.474-2.319,10.954c-3.22,1.356-7.466-3.72-11.16-2.168s-.785,14.978-4.353,16.485-7.877-4.014-10.954-2.721-1.213,8.207-4.389,9.536c-2.623,1.106-6.369-4.38-9.367-5.584a2.275,2.275,0,0,0-1.784-.089c-3.14,1.32-1.579,15.736-4.291,16.878a4.978,4.978,0,0,1-2.409.392,18,18,0,0,0-3.06-.285,3.854,3.854,0,0,0-1.142.294c-2.31.972-2,8.564-4.112,9.447s-4.2-.205-6.458.74-2.221,4.9-5.593,6.316l1.427,3.381,82.2-34.576" transform="translate(-67.974 -74.252)" fill="#bfbfbf" stroke="#263238" stroke-miterlimit="10" stroke-width="1"/>
        <path id="Trazado_112455" data-name="Trazado 112455" d="M184.994,145.85s.749,4.585-1.062,5.352c-1.508.633-2.435-.25-4.023-.3a5.227,5.227,0,0,0-2.257.437c-1.454.607-1.784,2.569-2.061,4.674-.321,2.6-.482,5.415-2.382,6.244a5.851,5.851,0,0,1-4.246-.285c-2.364-.821-4.844-2.123-7.243-1.115a5.77,5.77,0,0,0-2.6,3.31c-1.49,3.684-1.954,9.019-3.568,9.7-2.293.972-6.494-2.971-8.528-2.114s-1.2,4.389-2.855,5.085-2.6-1.356-5.5-.134-1.49,5.522-5.593,7.252-5.905-1.454-9.866.214-3.247,4.683-6.048,5.861-3.979-.892-5.977,0-2.48,4.005-2.507,4.2l1.1,2.6,82.158-34.6" transform="translate(-68.019 -75.779)" fill="#eaccb2" stroke="#263238" stroke-miterlimit="10" stroke-width="1"/>
        <path id="Trazado_112456" data-name="Trazado 112456" d="M91.2,158.66l16.637,39.527,86.02-36.208" transform="translate(-66.133 -77.162)" fill="none" stroke="#263238" stroke-linecap="round" stroke-linejoin="round" stroke-width="1"/>
        <path id="Trazado_112457" data-name="Trazado 112457" d="M172.367,180.25l-28.546,12.025a1.054,1.054,0,0,0,.812,1.945l28.546-12.025a1.055,1.055,0,1,0-.821-1.945Z" transform="translate(-71.744 -79.484)" fill="#263238"/>
        <rect id="Rectángulo_28708" data-name="Rectángulo 28708" width="4.112" height="4.112" rx="0.63" transform="translate(118.794 51.985) rotate(-22.82)" fill="#bfbfbf" stroke="#263238" stroke-miterlimit="10" stroke-width="1"/>
        <path id="Trazado_112458" data-name="Trazado 112458" d="M215.228,118.68l-11.418,4.808a.491.491,0,0,1-.624-.259.473.473,0,0,1,.259-.616l11.418-4.808a.473.473,0,0,1,.616.259.464.464,0,0,1-.25.616Z" transform="translate(-78.218 -72.748)" fill="#263238"/>
        <path id="Trazado_112459" data-name="Trazado 112459" d="M212.639,122.447l-7.939,3.336a.482.482,0,1,1-.366-.892l7.939-3.345a.473.473,0,0,1,.616.25.482.482,0,0,1-.25.651Z" transform="translate(-78.314 -73.152)" fill="#263238"/>
        <rect id="Rectángulo_28709" data-name="Rectángulo 28709" width="4.112" height="4.112" rx="0.63" transform="translate(122.379 60.477) rotate(-22.82)" fill="#eaccb2" stroke="#263238" stroke-miterlimit="10" stroke-width="1"/>
        <path id="Trazado_112460" data-name="Trazado 112460" d="M219.229,128.2l-11.418,4.808a.473.473,0,0,1-.616-.259.464.464,0,0,1,.25-.616l11.418-4.808a.482.482,0,1,1,.366.892Z" transform="translate(-78.651 -73.776)" fill="#263238"/>
        <path id="Trazado_112461" data-name="Trazado 112461" d="M216.639,131.968l-7.93,3.336a.484.484,0,1,1-.375-.892l7.939-3.336a.482.482,0,1,1,.366.892Z" transform="translate(-78.746 -74.181)" fill="#263238"/>
        <path id="Trazado_112462" data-name="Trazado 112462" d="M159.491,319.174l-12.373,5.21L123.8,268.978a13.728,13.728,0,0,0,3.9-7.645c1.392-7.422.41-31.284,18.992-33.746s2.908,39.322,3.764,47.279C151.239,282.127,161.828,303.206,159.491,319.174Z" transform="translate(-69.653 -84.592)" fill="rgba(0,0,0,0.7)" opacity="0.2"/>
      </g>
      <path id="Trazado_112464" data-name="Trazado 112464" d="M272.973,251.366,152.938,301.882l-12.373,5.21-23.318-55.405L63.1,123.026,195.507,67.3Z" transform="translate(-38.774 -67.3)" fill="none" stroke="#263238" stroke-linecap="round" stroke-linejoin="round" stroke-width="1"/>
      <path id="Trazado_112465" data-name="Trazado 112465" d="M142.519,276.069c2.087-7.136,10.223-29.991,9.152-40.1a10.161,10.161,0,0,0-.571-2.462c-2.855-7.547-14.523-6.815-19.01-.562-4.915,6.878-8.921,19.259-9.277,26.761a23.327,23.327,0,0,1-3.568,10.58h0a26.7,26.7,0,0,1-2.364,3.354l-26.6-63.113a35.994,35.994,0,0,0-6.967,7.77,12.863,12.863,0,0,0-2.052,5.415c-.544,6.226-7.591,31.837-10.49,42.542-.062.232-.125.455-.178.669-2.819,10.366,4.621,48.866,2.489,60.053s-3.443,10.928-3.756,18.876c-.223,5.8-8.519,23.425-17.841,41.525-5.352,10.375-10.99,20.883-15.655,29.438l68.081-2.828c1.177-8.269,2.391-17,3.5-25.459a94.3,94.3,0,0,1,2.034-10.446h0c1.5-6.066,3.327-11.552,4.46-14.763a137.163,137.163,0,0,0,3.568-14.353c7.921-8.385,18.3-21.561,21.311-30.481v-.062a11.1,11.1,0,0,0,.678-5.78,26.451,26.451,0,0,1-.544-4.871h0C138.567,298.085,140.771,282,142.519,276.069Z" transform="translate(-35.83 -82.762)" fill="#fff"/>
      <path id="Trazado_112466" data-name="Trazado 112466" d="M125.014,270.348c-2.114,4.237-4.656,8.35-6.244,13.1s-3.363,5.424-8.127,9.143-8.243-2.409-8.243-2.409,6.307-6.548,4.21-10.2-9.946-12.721-9.482-17.725-4.755-16.226-4.755-16.226,11.891-6.985,9.581-15.165c-1.258-4.46-7.484-9.215-12.854-12.6a35.994,35.994,0,0,1,6.967-7.77l26.619,63.175A26.694,26.694,0,0,0,125.014,270.348Z" transform="translate(-41.581 -82.758)" fill="#eaccb2" opacity="0.4"/>
      <path id="Trazado_112467" data-name="Trazado 112467" d="M78.023,315.821c.161.535,4.032,13.318.767,18.644s-6.619,12.391-5.022,19.625c1.267,5.78-9.438,26.654-20.348,40.053,9.3-18.1,17.591-35.727,17.841-41.525.312-7.948,1.624-7.707,3.756-18.876s-5.352-49.687-2.489-60.053c.054-.214.116-.437.178-.669,2.078,11.748,6.913,35.147,8.243,42.667C82.581,325.285,78.165,316.222,78.023,315.821Z" transform="translate(-37.729 -89.507)" fill="#eaccb2" opacity="0.4"/>
      <path id="Trazado_112468" data-name="Trazado 112468" d="M108.44,399.3c7.912-34.067,34.54-60.187,38.144-67.751-3.006,8.921-13.381,22.1-21.311,30.481a137.163,137.163,0,0,1-3.568,14.353c-1.115,3.211-2.944,8.7-4.46,14.763h0C109.546,400.273,108.44,399.3,108.44,399.3Z" transform="translate(-43.668 -95.826)" fill="#eaccb2" opacity="0.4"/>
      <path id="Trazado_112469" data-name="Trazado 112469" d="M153.938,278.8c-1.784,5.932-3.952,22.016-3.613,31.677-1.4-6.066-4.094-13.773-4.541-24.5-.758-18.2,9.554-11.632,5.986-20.633s-13.845,2.525-8.8-16.449c3.684-13.854,14.184-13.729,19.572-12.649a10.164,10.164,0,0,1,.571,2.462C164.16,248.806,156.025,271.661,153.938,278.8Z" transform="translate(-47.248 -85.49)" fill="#eaccb2" opacity="0.4"/>
      <path id="Trazado_112470" data-name="Trazado 112470" d="M47.44,398.042c8.528-15.6,16.833-31.65,22.8-48.956.714-2.489-.241-5.736.482-8.225,8.082-22.471-1.088-45.869.419-68.893,1.276-9.072,4.175-18.2,7.127-27.359,1.365-6.61,1.873-14.014,4.059-20.669,2.248-5.013,4.46-10.838,9.251-13.381,9.1,20.847,18.162,41.793,26.619,63.175,3.827-2.212,4.46-7.136,5.085-11.284,2.052-9.929,4.13-19.027,7.886-27.386,3.818-6.717,13.541-9.581,19.509-4.094a9.349,9.349,0,0,1,2.73,6.45c-1.16,11.525-4.781,23.193-8.43,33.969-1.436,4.978-2.9,9.143-3.515,14.085.062,1.641.1,2.453.17,4.095-2.114,8.287-.17,15.584-.651,23.809-1.847,14.835-13.72,25.165-22.3,36.182-2.123,8.287-4.237,16.574-7.136,24.9-3.568,12.489-4.71,24.8-5.932,36.8" transform="translate(-37.083 -82.765)" fill="none" stroke="#263238" stroke-linecap="round" stroke-linejoin="round" stroke-width="1"/>
      <path id="Trazado_112471" data-name="Trazado 112471" d="M125.074,281.35a55.226,55.226,0,0,0-3.925,9.741c-1.115,4.371-6.762,3.747-9.679,6.458" transform="translate(-43.995 -90.407)" fill="none" stroke="#263238" stroke-linecap="round" stroke-linejoin="round" stroke-width="1"/>
      <path id="Trazado_112472" data-name="Trazado 112472" d="M102.84,272.72s7.681,2.676,12.159,6.2a23.248,23.248,0,0,0,7.779,4.344" transform="translate(-43.064 -89.475)" fill="none" stroke="#263238" stroke-linecap="round" stroke-linejoin="round" stroke-width="1"/>
      <path id="Trazado_112473" data-name="Trazado 112473" d="M97.35,250.518s6.244,1.74,10.794-.446a40.652,40.652,0,0,1,1.169-6.592" transform="translate(-42.471 -86.319)" fill="none" stroke="#263238" stroke-linecap="round" stroke-linejoin="round" stroke-width="1"/>
      <path id="Trazado_112474" data-name="Trazado 112474" d="M111.11,251.88s.062.892,3.22.892" transform="translate(-43.956 -87.225)" fill="none" stroke="#263238" stroke-linecap="round" stroke-linejoin="round" stroke-width="1"/>
      <path id="Trazado_112475" data-name="Trazado 112475" d="M126.131,365.72a42.336,42.336,0,0,0-9.741,15.415" transform="translate(-44.526 -99.514)" fill="none" stroke="#263238" stroke-linecap="round" stroke-linejoin="round" stroke-width="1"/>
      <path id="Trazado_112476" data-name="Trazado 112476" d="M74.359,275.92c-.285,5.352,5.995,24.335,7.895,33.773s2.623,16.11,2.623,16.11" transform="translate(-39.988 -89.821)" fill="none" stroke="#263238" stroke-linecap="round" stroke-linejoin="round" stroke-width="1"/>
    </g>
  </g>
</svg>
