<svg xmlns="http://www.w3.org/2000/svg" width="454.36" height="450.447" viewBox="0 0 454.36 450.447">
  <g id="Financial_data-pana" data-name="Financial data-pana" transform="translate(-24.27 -39.12)">
    <g id="freepik--background-complete--inject-82">
      <path id="Trazado_112477" data-name="Trazado 112477" d="M73.15,237.57a2.069,2.069,0,0,1,0-.23v-3.2c0-2.22,0-5.41-.09-9.44l.15.15L24.5,225l.25-.25h0V237.6l-.24-.24,34.67.11,10.24.07h.11l-10.18.07-34.84.11h-.24V224.63h0l.25-.25,48.65.1h.16v.15c0,4.07-.06,7.29-.08,9.53v3.14A.332.332,0,0,1,73.15,237.57Z" fill="#e0e0e0"/>
      <path id="Trazado_112478" data-name="Trazado 112478" d="M79.75,224.7a1.41,1.41,0,0,1,0-.25v-3.26c0-2.26-.06-5.44-.1-9.36l.18.18-29.23.07c-.22.22.3-.31.25-.25h0v12.85l-.23-.24,20.91.12,6.09.06h2.23a3.283,3.283,0,0,1-.53,0H77.73l-6,.06-21.07.12h-.24V211.71h0l.25-.25,29.23.07h.18v.18c0,4-.07,7.19-.1,9.47v2.54A1.786,1.786,0,0,1,79.75,224.7Z" fill="#e0e0e0"/>
      <rect id="Rectángulo_28710" data-name="Rectángulo 28710" width="48.65" height="12.87" transform="translate(51.01 393.24)" fill="#ebebeb"/>
      <path id="Trazado_112479" data-name="Trazado 112479" d="M79.09,419.67a1.35,1.35,0,0,1,0-.24v-3.19c0-2.22,0-5.41-.08-9.44l.15.15-48.65.1c.11-.11-.25.24.24-.25h0v12.85l-.24-.24,34.67.11,10.23.07h.12l-10.18.07-34.84.11h-.25V406.82h0l.25-.25,48.65.1h.15v.15c0,4.06-.06,7.29-.08,9.53v3.13a1.66,1.66,0,0,1-.14.19Z" fill="#e0e0e0"/>
      <rect id="Rectángulo_28711" data-name="Rectángulo 28711" width="48.65" height="12.87" transform="translate(429.98 358.04)" fill="#ebebeb"/>
      <path id="Trazado_112480" data-name="Trazado 112480" d="M458.06,384.46a2.065,2.065,0,0,1,0-.23v-3.19c0-2.23-.05-5.42-.09-9.45l.15.15-48.65.1.25-.25h0v12.86l-.24-.24,34.67.11,10.24.07h.11l-10.18.07-34.84.11h-.24V371.6h0c.5-.49.14-.13.25-.25l48.65.1h.15v.15c0,4.07-.06,7.29-.08,9.54v3.13C458.21,384.44,458.07,384.47,458.06,384.46Z" fill="#e0e0e0"/>
      <path id="Trazado_112481" data-name="Trazado 112481" d="M457.79,61.13a1.172,1.172,0,0,1,0-.23V57.7c0-2.22-.05-5.41-.08-9.44l.15.15-48.65.1c.11-.11-.25.24.24-.25h0V61.13l-.24-.24,34.67.11,10.23.07h.11L444,61.26l-34.84.11h-.25V48.28h0l.25-.25,48.65.1h.15v.15c0,4.06-.06,7.29-.08,9.53v3.14a1.386,1.386,0,0,1-.09.18Z" fill="#e0e0e0"/>
      <path id="Trazado_112482" data-name="Trazado 112482" d="M437.43,74a1,1,0,0,1,0-.23v-3.2c0-2.22-.05-5.41-.08-9.44l.15.15-48.65.1c.11-.11-.25.25.24-.25h0V74l-.24-.24,34.67.11,10.23.07h.11L423.69,74l-34.84.11h-.25V61.19h0l.25-.25,48.65.1h.15v.15c0,4.07-.06,7.29-.08,9.53v3.14a1.228,1.228,0,0,1-.14.14Z" fill="#e0e0e0"/>
      <path id="Trazado_112483" data-name="Trazado 112483" d="M265.57,335.55v-3.43c0-2.22,0-5.41-.08-9.44l.15.15-48.65.1.25-.25h0v12.9l-.24-.24,34.67.11,10.23.07h.12l-10.18.07L217,335.7h-.24v-13h0l.25-.25,48.65.1h.15v.15c0,4.06-.06,7.29-.08,9.53v3.14A.533.533,0,0,0,265.57,335.55Z" fill="#e0e0e0"/>
      <path id="Trazado_112484" data-name="Trazado 112484" d="M272.17,322.68a1.407,1.407,0,0,1,0-.25v-3.26c0-2.26-.06-5.44-.1-9.36l.18.18-29.23.07c-.23.22.3-.31.24-.25h0v12.85l-.23-.24,20.91.11,6.09.07h2.23a3.283,3.283,0,0,1-.53,0h-1.6l-6,.06-21.07.11h-.24V309.68h0l.25-.25,29.23.07h.18v.18c0,4-.08,7.19-.1,9.47v2.54A1.966,1.966,0,0,1,272.17,322.68Z" fill="#e0e0e0"/>
      <path id="Trazado_112485" data-name="Trazado 112485" d="M191.45,434.65v33.21H293.58V434.65Z" fill="#f5f5f5"/>
      <path id="Trazado_112486" data-name="Trazado 112486" d="M187.16,425.37v9.28H297.15v-9.28H187.16Z" fill="#e0e0e0"/>
      <path id="Trazado_112487" data-name="Trazado 112487" d="M242.16,467.86h51.42V434.65h3.57v-9.28H240.02v8.42Z" fill="#e0e0e0"/>
      <rect id="Rectángulo_28712" data-name="Rectángulo 28712" width="20.71" height="5" transform="translate(205.73 440.01)" fill="#e0e0e0"/>
      <rect id="Rectángulo_28713" data-name="Rectángulo 28713" width="26.6" height="10.56" transform="translate(203.07 451.26)" fill="#fff"/>
      <path id="Trazado_112488" data-name="Trazado 112488" d="M207.16,392.2v33.21H309.29V392.2Z" fill="#f5f5f5"/>
      <path id="Trazado_112489" data-name="Trazado 112489" d="M202.88,382.92v9.28H312.87v-9.28H202.88Z" fill="#e0e0e0"/>
      <path id="Trazado_112490" data-name="Trazado 112490" d="M257.87,425.41h51.42V392.2h3.58v-9.28H255.73v8.42Z" fill="#e0e0e0"/>
      <rect id="Rectángulo_28714" data-name="Rectángulo 28714" width="20.71" height="5" transform="translate(221.45 397.56)" fill="#e0e0e0"/>
      <rect id="Rectángulo_28715" data-name="Rectángulo 28715" width="26.6" height="10.56" transform="translate(218.78 408.81)" fill="#fff"/>
    </g>
    <g id="freepik--Floor--inject-82">
      <path id="Trazado_112491" data-name="Trazado 112491" d="M465.4,466.76c0,.14-96.45.26-215.39.26S34.6,466.9,34.6,466.76s96.4-.26,215.4-.26S465.4,466.62,465.4,466.76Z" fill="#263238"/>
    </g>
    <g id="freepik--Plant--inject-82">
      <path id="Trazado_112492" data-name="Trazado 112492" d="M188,381.77a20.45,20.45,0,0,0-33.52,8l2.42,9.38c.92-3.19,2.9-6.28,5.95-7.6s6.86-.59,10.11.6,6.44,2.76,9.9,3,7.35-1.42,8.38-4.73C192.17,387.33,190.3,384,188,381.77Z" fill="#a66d58"/>
      <g id="Grupo_60043" data-name="Grupo 60043" opacity="0.3">
        <path id="Trazado_112493" data-name="Trazado 112493" d="M188,381.77a20.45,20.45,0,0,0-33.52,8l2.42,9.38c.92-3.19,2.9-6.28,5.95-7.6s6.86-.59,10.11.6,6.44,2.76,9.9,3,7.35-1.42,8.38-4.73C192.17,387.33,190.3,384,188,381.77Z"/>
      </g>
      <path id="Trazado_112494" data-name="Trazado 112494" d="M129.51,413.06c-5.07-4.81-4.82-13.19-2.29-19.7s8-11.52,14.2-14.81a45,45,0,0,1,39.2-1.27,18.61,18.61,0,0,0-15,8.83c-2.78,4.61-3.39,10.21-5.69,15.07a23.73,23.73,0,0,1-30.38,11.88" fill="#a66d58"/>
      <path id="Trazado_112495" data-name="Trazado 112495" d="M127.07,384.15c-5.61-6.62-6.35-17.25-5.53-25.88s2.83-17.33,1.47-25.9c-.81-5.08-2.78-9.92-3.44-15s.27-10.86,4.22-14.15c4.54-3.78,11.69-2.89,16.41.66s7.46,9.13,9.46,14.69c4.39,12.21,6,25.75,2.4,38.22s-12.08,23.62-24.5,27.38" fill="#a66d58"/>
      <path id="Trazado_112496" data-name="Trazado 112496" d="M124.38,438.47a4.411,4.411,0,0,1,0-.76c0-.5,0-1.24,0-2.19.07-1.9.25-4.65.68-8a107.6,107.6,0,0,1,2.15-11.74,54.53,54.53,0,0,1,5.36-13.59,56.6,56.6,0,0,1,8.76-11.71,55.1,55.1,0,0,1,9.18-7.63,45.649,45.649,0,0,1,3.92-2.39c1.17-.68,2.24-1.14,3.1-1.55l2-.85a5.844,5.844,0,0,1,.72-.27,4.081,4.081,0,0,1-.68.35l-2,.93c-.84.44-1.86,1-3,1.62a39.139,39.139,0,0,0-3.87,2.43A57.84,57.84,0,0,0,133,402.39c-5.16,9-6.57,18.51-7.6,25.15-.46,3.36-.69,6.1-.82,8,0,.91-.1,1.64-.13,2.18a4.12,4.12,0,0,1-.07.75Z" fill="#263238"/>
      <path id="Trazado_112497" data-name="Trazado 112497" d="M76,358c-10.38,6.26-10.35,12-8.62,17.33s8.11,9.12,13.39,7.11c3-1.14,5.14-3.74,7-6.34s3.58-5.4,6.17-7.27a9.09,9.09,0,0,1,6.19-1.77Z" fill="#a66d58"/>
      <path id="Trazado_112498" data-name="Trazado 112498" d="M100.13,367.1l2.75,1A6,6,0,0,0,100.13,367.1Z" fill="#a66d58"/>
      <path id="Trazado_112499" data-name="Trazado 112499" d="M106.27,369.94,96.1,366.12l4.09.48a6.36,6.36,0,0,1,3,1.13Z"/>
      <g id="Grupo_60044" data-name="Grupo 60044" opacity="0.3">
        <path id="Trazado_112500" data-name="Trazado 112500" d="M76,358c-10.38,6.26-10.35,12-8.62,17.33s8.11,9.12,13.39,7.11c3-1.14,5.14-3.74,7-6.34s3.58-5.4,6.17-7.27a9.09,9.09,0,0,1,6.19-1.77Z"/>
      </g>
      <path id="Trazado_112501" data-name="Trazado 112501" d="M68.24,364.9c2.71-3.75,9.41-4.83,13.64-3s7.34,5.58,10.11,9.28,5.48,7.61,9.32,10.19,9.22,3.51,13,.91a11.22,11.22,0,0,0,4.43-7.67,25.86,25.86,0,0,0-.61-9c-.92-4.35-2.41-8.89-5.89-11.66-3.89-3.08-9.27-3.23-14.22-3.06-5.69.18-11.46.61-16.79,2.58s-10.78,6.22-13,11.44" fill="#a66d58"/>
      <path id="Trazado_112502" data-name="Trazado 112502" d="M115.76,430.16a.72.72,0,0,1,0-.23v-.67c0-.62,0-1.48-.09-2.57-.06-2.28-.16-5.5-.27-9.47s-.29-8.76-.58-14-.68-11.08-1.48-17.12a56.058,56.058,0,0,0-1.72-8.7,45.82,45.82,0,0,0-3.18-7.61,43.909,43.909,0,0,0-4-6.3,39.941,39.941,0,0,0-4.38-4.8,32,32,0,0,0-7.76-5.3c-.51-.23-.95-.46-1.35-.62l-1-.39-.62-.25A.72.72,0,0,1,89,352l.22.06.64.21,1,.35c.41.15.86.37,1.37.59a31,31,0,0,1,7.91,5.21,40.618,40.618,0,0,1,4.47,4.82,43.351,43.351,0,0,1,4.08,6.33,44.4,44.4,0,0,1,3.24,7.68,54.119,54.119,0,0,1,1.75,8.76c.8,6.07,1.18,11.88,1.45,17.17s.4,10,.48,14,.11,7.24.12,9.47v3.25a2.072,2.072,0,0,1,.03.26Z" fill="#263238"/>
      <path id="Trazado_112503" data-name="Trazado 112503" d="M119.49,434.85a30,30,0,0,1-1.14-4.46,46.879,46.879,0,0,1-.47-12.52,82.73,82.73,0,0,1,4-18.16c2.13-6.68,5-13.82,7.49-21.49a97.006,97.006,0,0,0,3-11.37,101.829,101.829,0,0,0,1.4-10.85,158.761,158.761,0,0,0,.33-18.55c-.18-5.28-.46-9.56-.63-12.51-.09-1.45-.16-2.59-.2-3.4v-.89a1.13,1.13,0,0,1,0-.3,1.4,1.4,0,0,1,0,.3,3.424,3.424,0,0,0,.09.88c.07.81.17,2,.29,3.4.23,2.95.56,7.22.78,12.51a153.423,153.423,0,0,1-.23,18.6,100.325,100.325,0,0,1-1.45,10.9,97.309,97.309,0,0,1-3,11.42c-2.47,7.7-5.38,14.83-7.52,21.48a85.281,85.281,0,0,0-4,18.06,48.48,48.48,0,0,0,.33,12.46c.26,1.45.49,2.58.69,3.33.09.36.16.64.21.86a1.18,1.18,0,0,1,.03.3Z" fill="#263238"/>
      <path id="Trazado_112504" data-name="Trazado 112504" d="M145.21,439.54H96.49l-1.11-9.38h49.83Z" fill="#455a64"/>
      <path id="Trazado_112505" data-name="Trazado 112505" d="M101.72,438.47l6.09,28.13h26.48l5.7-28.13Z" fill="#455a64"/>
      <path id="Trazado_112506" data-name="Trazado 112506" d="M145.21,439.54c0,.13-10.71.2-23.92.16s-23.92-.17-23.92-.3,10.71-.2,23.92-.16S145.21,439.41,145.21,439.54Z" fill="#455a64"/>
      <path id="Trazado_112507" data-name="Trazado 112507" d="M136.85,453.42a20.661,20.661,0,0,0-4.29-2.46,15.1,15.1,0,0,0-5.22-1,18.25,18.25,0,0,0-6.41,1.17c-2.22.75-4.3,1.63-6.32,2.11a15,15,0,0,1-5.45.16,11.22,11.22,0,0,1-3.51-1.11,7,7,0,0,1-.85-.53c-.18-.14-.27-.22-.26-.23s.42.24,1.19.6a12.26,12.26,0,0,0,3.47,1,15.37,15.37,0,0,0,5.32-.26c2-.48,4-1.37,6.26-2.13a18.25,18.25,0,0,1,6.57-1.16,14.94,14.94,0,0,1,5.33,1.17,13.588,13.588,0,0,1,3.18,1.85,9.737,9.737,0,0,1,.76.65C136.78,453.32,136.86,453.41,136.85,453.42Z" fill="#263238"/>
      <path id="Trazado_112508" data-name="Trazado 112508" d="M136.48,455.3a21.281,21.281,0,0,0-4.12-2.42,13.879,13.879,0,0,0-5-1,18.2,18.2,0,0,0-6.21,1.12c-2.14.71-4.16,1.55-6.08,2.06a15.51,15.51,0,0,1-5.24.59,8.69,8.69,0,0,1-3.44-.92,5.449,5.449,0,0,1-.82-.52c-.18-.13-.27-.21-.26-.22s.41.23,1.16.58a9.371,9.371,0,0,0,3.38.75,15.83,15.83,0,0,0,5.11-.67c1.88-.53,3.88-1.37,6-2.1a18.1,18.1,0,0,1,6.36-1.1,13.869,13.869,0,0,1,5.15,1.16,14.419,14.419,0,0,1,3,1.84,8.334,8.334,0,0,1,.73.64C136.42,455.2,136.49,455.29,136.48,455.3Z" fill="#fff"/>
      <path id="Trazado_112509" data-name="Trazado 112509" d="M137.33,451.56a22.827,22.827,0,0,0-4.4-2.6,16.29,16.29,0,0,0-5.35-1.28,17.25,17.25,0,0,0-6.62,1.16,59.081,59.081,0,0,1-6.54,2.14,16.83,16.83,0,0,1-5.63,0,12.62,12.62,0,0,1-3.62-1.15,6.251,6.251,0,0,1-.88-.54c-.19-.15-.29-.23-.28-.24s.43.25,1.24.62a14,14,0,0,0,3.59,1,17.1,17.1,0,0,0,5.5-.1,67.168,67.168,0,0,0,6.47-2.16,17.18,17.18,0,0,1,6.8-1.15,16,16,0,0,1,5.45,1.41,15.839,15.839,0,0,1,3.25,2,10.182,10.182,0,0,1,.78.67C137.26,451.46,137.35,451.55,137.33,451.56Z" fill="#fff"/>
      <path id="Trazado_112510" data-name="Trazado 112510" d="M145.64,439.58c0,.13-11,.23-24.47.23s-24.48-.1-24.48-.23,11-.23,24.48-.23S145.64,439.45,145.64,439.58Z" fill="#263238"/>
    </g>
    <g id="freepik--Board--inject-82">
      <rect id="Rectángulo_28716" data-name="Rectángulo 28716" width="272.16" height="238.9" transform="translate(67.14 45.74)" fill="#fafafa"/>
      <path id="Trazado_112511" data-name="Trazado 112511" d="M339.3,284.63c0-1.85-.09-95.12-.22-238.89l.22.22L67.17,46h0l.26-.26V284.63l-.23-.23,272.16.23-272.16.23h-.23V45.48H339.61v.22C339.39,189.52,339.3,282.78,339.3,284.63Z" fill="#263238"/>
      <path id="Trazado_112512" data-name="Trazado 112512" d="M217.27,284.21a1.561,1.561,0,0,1-.06.35,4.73,4.73,0,0,1-.36.94,7.74,7.74,0,0,1-2.38,2.83,11.8,11.8,0,0,1-5,2.16,37.227,37.227,0,0,1-6.68.48,33.459,33.459,0,0,1-6.69-.41,13.08,13.08,0,0,1-5.09-2,13.871,13.871,0,0,1-2.75-2.46,4.72,4.72,0,0,1-.8-1.09,10.9,10.9,0,0,1,1,.95,16.071,16.071,0,0,0,2.8,2.3,13.38,13.38,0,0,0,5,1.85,35.581,35.581,0,0,0,6.6.36,40,40,0,0,0,6.59-.43,11.93,11.93,0,0,0,4.91-2,8.29,8.29,0,0,0,2.42-2.63A8.683,8.683,0,0,1,217.27,284.21Z" fill="#263238"/>
      <rect id="Rectángulo_28717" data-name="Rectángulo 28717" width="307.33" height="9.34" transform="translate(49.56 39.15)" fill="#455a64"/>
      <path id="Trazado_112513" data-name="Trazado 112513" d="M356.91,48.51H49.53V39.12H356.91Zm-307.33,0H356.86V39.17H49.58Z" fill="#263238"/>
      <rect id="Rectángulo_28718" data-name="Rectángulo 28718" width="215.19" height="99.48" transform="translate(94.79 87.06)" fill="#fafafa"/>
      <path id="Trazado_112514" data-name="Trazado 112514" d="M310,186.54v-6.95c0-4.54,0-11.22-.06-19.82,0-17.18-.07-42-.12-72.71l.22.22-215.17.08h0l.31-.3v99.48l-.29-.29,154.5.14,44.63.08h.2l-44.57.08-154.69.14H94.5V86.61h.32L310,86.84h.22v.22c-.05,30.74-.09,55.63-.11,72.85,0,8.57,0,15.24-.06,19.77v5.13C310.05,185.94,310,186.54,310,186.54Z" fill="#263238"/>
      <path id="Trazado_112515" data-name="Trazado 112515" d="M109.93,155.78v3.14h-.32v-2.86h-.74v-.28Z" fill="#263238"/>
      <path id="Trazado_112516" data-name="Trazado 112516" d="M110.68,157.35c0-1,.53-1.6,1.25-1.6s1.26.6,1.26,1.6-.53,1.59-1.26,1.59S110.68,158.35,110.68,157.35Zm2.18,0c0-.84-.38-1.31-.93-1.31s-.92.47-.92,1.31.38,1.3.92,1.3S112.86,158.18,112.86,157.35Z" fill="#263238"/>
      <path id="Trazado_112517" data-name="Trazado 112517" d="M111.2,139.1v.29H109v-.23l1.31-1.28c.35-.35.42-.56.42-.78a.7.7,0,0,0-.74-.58,1,1,0,0,0-.85.35l-.23-.2a1.39,1.39,0,0,1,1.11-.45c.64,0,1,.32,1,.85a1.27,1.27,0,0,1-.52,1l-1.06,1Z" fill="#263238"/>
      <path id="Trazado_112518" data-name="Trazado 112518" d="M111.59,137.82c0-1,.53-1.6,1.26-1.6s1.25.6,1.25,1.6-.53,1.59-1.25,1.59S111.59,138.82,111.59,137.82Zm2.18,0c0-.84-.38-1.3-.92-1.3s-.93.46-.93,1.3.38,1.3.93,1.3S113.77,138.66,113.77,137.82Z" fill="#263238"/>
      <path id="Trazado_112519" data-name="Trazado 112519" d="M111.14,119c0,.52-.39.93-1.14.93a1.6,1.6,0,0,1-1.13-.41l.15-.25a1.39,1.39,0,0,0,1,.36c.52,0,.8-.24.8-.63s-.26-.63-.84-.63h-.23v-.24l.87-1.09H109v-.28h2V117l-.89,1.11C110.8,118.1,111.14,118.45,111.14,119Z" fill="#263238"/>
      <path id="Trazado_112520" data-name="Trazado 112520" d="M111.59,118.29c0-1,.53-1.6,1.26-1.6s1.25.6,1.25,1.6-.53,1.6-1.25,1.6S111.59,119.29,111.59,118.29Zm2.18,0c0-.84-.38-1.3-.92-1.3s-.93.46-.93,1.3.38,1.3.93,1.3S113.77,119.13,113.77,118.29Z" fill="#263238"/>
      <path id="Trazado_112521" data-name="Trazado 112521" d="M123.79,167.65c0-1,.53-1.6,1.26-1.6s1.25.6,1.25,1.6-.53,1.6-1.25,1.6S123.79,168.65,123.79,167.65Zm2.18,0c0-.84-.38-1.3-.92-1.3s-.93.46-.93,1.3.38,1.3.93,1.3.95-.46.95-1.3Z" fill="#263238"/>
      <path id="Trazado_112522" data-name="Trazado 112522" d="M147,166.08v3.14h-.32v-2.85H146v-.29Z" fill="#263238"/>
      <path id="Trazado_112523" data-name="Trazado 112523" d="M171.55,168.93v.29h-2.21V169l1.31-1.28c.35-.35.42-.56.42-.77,0-.37-.26-.59-.73-.59a1.05,1.05,0,0,0-.86.35l-.23-.2a1.39,1.39,0,0,1,1.11-.45c.64,0,1,.33,1,.85a1.28,1.28,0,0,1-.51,1l-1.07,1.05Z" fill="#263238"/>
      <path id="Trazado_112524" data-name="Trazado 112524" d="M194.71,168.32c0,.52-.38.93-1.14.93a1.6,1.6,0,0,1-1.13-.41l.16-.25a1.36,1.36,0,0,0,1,.36c.52,0,.81-.24.81-.63s-.27-.62-.85-.62h-.23v-.24l.87-1.09h-1.6v-.29h2v.23l-.89,1.12C194.37,167.46,194.71,167.82,194.71,168.32Z" fill="#263238"/>
      <path id="Trazado_112525" data-name="Trazado 112525" d="M218.53,168.4h-.63v.82h-.32v-.82h-1.77v-.24l1.66-2.08h.36l-1.61,2h1.37v-.73h.31v.73h.63Z" fill="#263238"/>
      <path id="Trazado_112526" data-name="Trazado 112526" d="M241.22,168.3c0,.53-.37.95-1.14.95a1.6,1.6,0,0,1-1.12-.41l.15-.25a1.36,1.36,0,0,0,1,.36c.53,0,.81-.26.81-.64s-.25-.65-1-.65h-.67l.17-1.58h1.72v.29H239.7l-.11,1H240C240.86,167.37,241.22,167.74,241.22,168.3Z" fill="#263238"/>
      <path id="Trazado_112527" data-name="Trazado 112527" d="M264.68,168.28a1,1,0,0,1-1.07,1c-.84,0-1.29-.58-1.29-1.57a1.493,1.493,0,0,1,2.18-1.46l-.13.26a1.17,1.17,0,0,0-.61-.14c-.68,0-1.11.43-1.11,1.28a2.438,2.438,0,0,0,0,.26,1.1,1.1,0,0,1,2.03.37Zm-.32,0c0-.41-.3-.68-.79-.68a.73.73,0,0,0-.81.69c0,.35.29.67.83.67a.68.68,0,0,0,.77-.67Z" fill="#263238"/>
      <path id="Trazado_112528" data-name="Trazado 112528" d="M287.77,166.08v.23l-1.32,2.91h-.35l1.29-2.85h-1.61V167h-.32v-.87Z" fill="#263238"/>
      <path id="Trazado_112529" data-name="Trazado 112529" d="M287.93,157.5c0,.17-36.35.3-81.19.3s-81.19-.13-81.19-.3,36.34-.31,81.19-.31S287.93,157.33,287.93,157.5Z" fill="#263238"/>
      <path id="Trazado_112530" data-name="Trazado 112530" d="M287.93,137.87c0,.17-36.35.3-81.19.3s-81.19-.13-81.19-.3,36.34-.31,81.19-.31S287.93,137.7,287.93,137.87Z" fill="#263238"/>
      <path id="Trazado_112531" data-name="Trazado 112531" d="M287.93,118.24c0,.17-36.35.3-81.19.3s-81.19-.13-81.19-.3,36.34-.31,81.19-.31S287.93,118.07,287.93,118.24Z" fill="#263238"/>
      <path id="Trazado_112532" data-name="Trazado 112532" d="M125.55,157.21a1,1,0,1,1-1-1A1,1,0,0,1,125.55,157.21Z" fill="#a66d58"/>
      <path id="Trazado_112533" data-name="Trazado 112533" d="M148.89,157.21a1,1,0,1,1-1-1A1,1,0,0,1,148.89,157.21Z" fill="#a66d58"/>
      <path id="Trazado_112534" data-name="Trazado 112534" d="M172.24,157.21a1,1,0,1,1-1-1A1,1,0,0,1,172.24,157.21Z" fill="#a66d58"/>
      <path id="Trazado_112535" data-name="Trazado 112535" d="M195.59,157.21a1,1,0,1,1-1-1A1,1,0,0,1,195.59,157.21Z" fill="#a66d58"/>
      <path id="Trazado_112536" data-name="Trazado 112536" d="M218.94,157.21a1,1,0,1,1-.31-.725,1,1,0,0,1,.31.725Z" fill="#a66d58"/>
      <path id="Trazado_112537" data-name="Trazado 112537" d="M265.63,157.21a1,1,0,1,1-1-1A1,1,0,0,1,265.63,157.21Z" fill="#a66d58"/>
      <path id="Trazado_112538" data-name="Trazado 112538" d="M242.28,157.21a1,1,0,1,1-1-1A1,1,0,0,1,242.28,157.21Z" fill="#a66d58"/>
      <path id="Trazado_112539" data-name="Trazado 112539" d="M289,157.21a1,1,0,1,1-.31-.725A1,1,0,0,1,289,157.21Z" fill="#a66d58"/>
      <path id="Trazado_112540" data-name="Trazado 112540" d="M136.19,157.5a.68.68,0,0,1-.69.68.67.67,0,0,1-.68-.68.68.68,0,0,1,.68-.69A.69.69,0,0,1,136.19,157.5Z" fill="#e0e0e0"/>
      <path id="Trazado_112541" data-name="Trazado 112541" d="M159.62,157.5a.67.67,0,0,1-.68.68.68.68,0,0,1-.69-.68.69.69,0,0,1,.69-.69.68.68,0,0,1,.68.69Z" fill="#e0e0e0"/>
      <circle id="Elipse_4389" data-name="Elipse 4389" cx="0.68" cy="0.68" r="0.68" transform="translate(181.69 156.82)" fill="#e0e0e0"/>
      <path id="Trazado_112542" data-name="Trazado 112542" d="M206.49,157.5a.69.69,0,1,1-.316-.666.69.69,0,0,1,.316.666Z" fill="#e0e0e0"/>
      <path id="Trazado_112543" data-name="Trazado 112543" d="M229.93,157.5a.68.68,0,0,1-.69.68.67.67,0,0,1-.68-.68.68.68,0,0,1,.68-.69.69.69,0,0,1,.69.69Z" fill="#e0e0e0"/>
      <path id="Trazado_112544" data-name="Trazado 112544" d="M253.36,157.5a.69.69,0,1,1-.316-.666A.69.69,0,0,1,253.36,157.5Z" fill="#e0e0e0"/>
      <circle id="Elipse_4390" data-name="Elipse 4390" cx="0.68" cy="0.68" r="0.68" transform="translate(275.43 156.82)" fill="#e0e0e0"/>
      <path id="Trazado_112545" data-name="Trazado 112545" d="M150.41,148.82a2.56,2.56,0,1,1-2.56-2.56,2.56,2.56,0,0,1,2.56,2.56Z" fill="#a66d58"/>
      <path id="Trazado_112546" data-name="Trazado 112546" d="M170.78,136.8a2.56,2.56,0,1,1-2.56-2.56A2.56,2.56,0,0,1,170.78,136.8Z" fill="#a66d58"/>
      <path id="Trazado_112547" data-name="Trazado 112547" d="M196.06,137.87a2.56,2.56,0,1,1-2.56-2.56A2.56,2.56,0,0,1,196.06,137.87Z" fill="#a66d58"/>
      <path id="Trazado_112548" data-name="Trazado 112548" d="M220.74,116a2.55,2.55,0,1,1-.743-1.81,2.56,2.56,0,0,1,.743,1.81Z" fill="#a66d58"/>
      <path id="Trazado_112549" data-name="Trazado 112549" d="M243.8,129.91a2.56,2.56,0,1,1-2.56-2.55,2.56,2.56,0,0,1,2.56,2.55Z" fill="#a66d58"/>
      <path id="Trazado_112550" data-name="Trazado 112550" d="M267.14,133.61a2.56,2.56,0,1,1-2.55-2.55,2.56,2.56,0,0,1,2.55,2.55Z" fill="#a66d58"/>
      <path id="Trazado_112551" data-name="Trazado 112551" d="M289,148.82a4.577,4.577,0,0,1-.6,0,14.063,14.063,0,0,1-1.75-.23,13.26,13.26,0,0,1-6.07-2.89,12.64,12.64,0,0,1-3-3.88,28.67,28.67,0,0,0-3.13-4.84,10.36,10.36,0,0,0-5.28-3.68,6.7,6.7,0,0,0-3.49.13,9.36,9.36,0,0,0-3.24,1.83c-2,1.66-3.45,4-5.38,6.17a10.66,10.66,0,0,1-3.51,2.72,7.05,7.05,0,0,1-4.61.38,5.76,5.76,0,0,1-3.51-3.22,22.661,22.661,0,0,1-1.51-4.66,26.5,26.5,0,0,0-1.39-4.73,3.68,3.68,0,0,0-1.49-1.79,4.8,4.8,0,0,0-2.36-.46,38.85,38.85,0,0,0-5.14.91,15.08,15.08,0,0,1-2.7.3,6,6,0,0,1-2.76-.53,5.6,5.6,0,0,1-2.18-1.83,13.291,13.291,0,0,1-1.34-2.49c-.74-1.72-1.23-3.54-1.9-5.28a12.69,12.69,0,0,0-1.24-2.47,4.56,4.56,0,0,0-2-1.69c-.21-.06-.42-.14-.63-.19l-.68-.06a2.46,2.46,0,0,0-1.25.25,5.2,5.2,0,0,0-1.87,2,24.25,24.25,0,0,0-2.16,5.36c-.56,1.89-1,3.81-1.48,5.76-.75,3.22-1.41,6.43-2.24,9.57-.42,1.57-.87,3.13-1.44,4.64a12,12,0,0,1-2.42,4.21,3.41,3.41,0,0,1-2.31,1,4.74,4.74,0,0,1-2.36-.72,11.16,11.16,0,0,1-3.31-3.36,40.38,40.38,0,0,1-4-8.13c-1.12-2.69-2.38-5.36-4.47-7.19a8.37,8.37,0,0,0-7.51-1.83,12.81,12.81,0,0,0-3.57,1.57,25.06,25.06,0,0,0-3.12,2.26,41.39,41.39,0,0,0-5.2,5.23h0a56.691,56.691,0,0,1-7.71,6.41,37.3,37.3,0,0,1-7.9,4.27,17.22,17.22,0,0,1-7.73,1.29,26.781,26.781,0,0,1-6.44-1.56,59.592,59.592,0,0,1-8.36-3.82c-.93-.51-1.63-.91-2.09-1.2s-.69-.45-.69-.45l.73.39,2.11,1.13a65.122,65.122,0,0,0,8.39,3.7,27.311,27.311,0,0,0,6.38,1.48,17,17,0,0,0,7.56-1.32,37.15,37.15,0,0,0,7.79-4.28,55.26,55.26,0,0,0,7.61-6.38h0a42.521,42.521,0,0,1,5.25-5.33,25.6,25.6,0,0,1,3.18-2.31,13.32,13.32,0,0,1,3.71-1.64,8.91,8.91,0,0,1,8,1.93c2.21,1.93,3.5,4.68,4.63,7.39a40.13,40.13,0,0,0,4,8,10.79,10.79,0,0,0,3.13,3.18,4.18,4.18,0,0,0,2.07.63,2.76,2.76,0,0,0,1.88-.86,11.72,11.72,0,0,0,2.28-4,46.924,46.924,0,0,0,1.41-4.58c.82-3.12,1.49-6.33,2.23-9.56.46-2,.93-3.89,1.49-5.79a24,24,0,0,1,2.24-5.51,5.73,5.73,0,0,1,2.11-2.18,3.09,3.09,0,0,1,1.55-.32l.76.08c.25.06.49.15.74.22a5.07,5.07,0,0,1,2.3,1.91,12.89,12.89,0,0,1,1.3,2.6c.68,1.78,1.17,3.59,1.89,5.26s1.62,3.34,3.23,4a9.234,9.234,0,0,0,5.11.19,39.25,39.25,0,0,1,5.22-.9,5.29,5.29,0,0,1,2.64.53,4.25,4.25,0,0,1,1.73,2.05,26.791,26.791,0,0,1,1.41,4.84A22.4,22.4,0,0,0,246,141a5.27,5.27,0,0,0,3.19,3,6.65,6.65,0,0,0,4.27-.34,10.27,10.27,0,0,0,3.35-2.6c1.9-2.09,3.39-4.47,5.45-6.18a9.88,9.88,0,0,1,3.4-1.9,7.17,7.17,0,0,1,3.7-.11,10.66,10.66,0,0,1,5.45,3.85,27.681,27.681,0,0,1,3.12,4.92,12.48,12.48,0,0,0,2.89,3.83,13.4,13.4,0,0,0,5.94,2.95,16.9,16.9,0,0,0,1.72.29Z" fill="#a66d58"/>
      <path id="Trazado_112552" data-name="Trazado 112552" d="M150.66,104.79c0,.17-9.07.3-20.25.3s-20.24-.13-20.24-.3,9.06-.31,20.24-.31S150.66,104.62,150.66,104.79Z" fill="#263238"/>
      <path id="Trazado_112553" data-name="Trazado 112553" d="M131.48,203.59A27.45,27.45,0,1,0,158.93,231a27.45,27.45,0,0,0-27.45-27.41Zm.41,43.9a16.86,16.86,0,1,1,16.87-16.863,16.86,16.86,0,0,1-16.87,16.863Z" fill="#263238"/>
      <path id="Trazado_112554" data-name="Trazado 112554" d="M131.9,203.6v10.17a16.86,16.86,0,0,1,16.86,16.86,16.61,16.61,0,0,1-.8,5.11l9.95,2.7a27.43,27.43,0,0,0-26-34.84Z" fill="#a66d58"/>
      <path id="Trazado_112555" data-name="Trazado 112555" d="M115,230.63a16.86,16.86,0,0,1,10-15.4l-4.219-9.481A27.45,27.45,0,0,0,104,231v1.15h11A12.836,12.836,0,0,0,115,230.63Z" fill="#455a64"/>
      <path id="Trazado_112556" data-name="Trazado 112556" d="M131.89,247.49a16.74,16.74,0,0,1-3.56-.38c-.43,2.44-1.23,7.18-1.86,10.92a27.45,27.45,0,0,0,31.44-19.59l-9.95-2.7A16.87,16.87,0,0,1,131.89,247.49Z" fill="#a66d58"/>
      <g id="Grupo_60045" data-name="Grupo 60045" opacity="0.3">
        <path id="Trazado_112557" data-name="Trazado 112557" d="M131.89,247.49a16.74,16.74,0,0,1-3.56-.38c-.43,2.44-1.23,7.18-1.86,10.92a27.45,27.45,0,0,0,31.44-19.59l-9.95-2.7A16.87,16.87,0,0,1,131.89,247.49Z"/>
      </g>
      <path id="Trazado_112558" data-name="Trazado 112558" d="M128.25,232h-1v1.31h-1.41V232h-3.36v-1l2.94-4h1.51l-2.72,3.76h1.67v-1.17h1.37v1.17h1Z" fill="#263238"/>
      <path id="Trazado_112559" data-name="Trazado 112559" d="M128.68,230.18c0-2.05,1.14-3.22,2.67-3.22s2.68,1.17,2.68,3.22-1.14,3.23-2.68,3.23S128.68,232.24,128.68,230.18Zm3.89,0c0-1.41-.5-2-1.22-2s-1.21.59-1.21,2,.5,2,1.21,2,1.22-.58,1.22-2Z" fill="#263238"/>
      <path id="Trazado_112560" data-name="Trazado 112560" d="M134.62,228.71a1.55,1.55,0,1,1,.389,1.208,1.55,1.55,0,0,1-.389-1.208Zm2.2,0c0-.67-.26-1-.65-1s-.65.33-.65,1,.27,1,.65,1,.65-.33.65-1Zm3.07-1.65H141l-4.26,6.24h-1.06Zm-1,4.59a.667.667,0,1,1-.03,0Zm2.19,0c0-.66-.25-1-.65-1s-.65.33-.65,1,.27,1,.65,1,.62-.34.62-1Z" fill="#263238"/>
      <path id="Trazado_112561" data-name="Trazado 112561" d="M154.19,265.42c0,.14-10.17.26-22.71.26s-22.71-.12-22.71-.26,10.17-.26,22.71-.26S154.19,265.27,154.19,265.42Z" fill="#263238"/>
      <path id="Trazado_112562" data-name="Trazado 112562" d="M144.08,269.59c0,.14-5.64.26-12.6.26s-12.6-.12-12.6-.26,5.64-.26,12.6-.26S144.08,269.44,144.08,269.59Z" fill="#263238"/>
      <path id="Trazado_112563" data-name="Trazado 112563" d="M206.19,203a27.45,27.45,0,1,0,27.45,27.45A27.45,27.45,0,0,0,206.19,203Zm.41,43.9a6.994,6.994,0,1,0,0-.03Z" fill="#263238"/>
      <path id="Trazado_112564" data-name="Trazado 112564" d="M206.61,203v10.17A16.86,16.86,0,0,1,223.47,230a16.61,16.61,0,0,1-.8,5.11l10,2.7a27.43,27.43,0,0,0-26-34.84Z" fill="#a66d58"/>
      <path id="Trazado_112565" data-name="Trazado 112565" d="M189.74,230a16.86,16.86,0,0,1,10-15.4l-4.219-9.481a27.45,27.45,0,0,0-16.78,25.29v1.15h11C189.77,231.06,189.74,230.54,189.74,230Z" fill="#263238"/>
      <path id="Trazado_112566" data-name="Trazado 112566" d="M206.6,246.87a16.74,16.74,0,0,1-3.56-.38c-.43,2.44-1.23,7.18-1.86,10.92a27.45,27.45,0,0,0,31.44-19.59l-10-2.7a16.87,16.87,0,0,1-16.02,11.75Z" fill="#a66d58"/>
      <g id="Grupo_60046" data-name="Grupo 60046" opacity="0.3">
        <path id="Trazado_112567" data-name="Trazado 112567" d="M206.6,246.87a16.74,16.74,0,0,1-3.56-.38c-.43,2.44-1.23,7.18-1.86,10.92a27.45,27.45,0,0,0,31.44-19.59l-10-2.7a16.87,16.87,0,0,1-16.02,11.75Z"/>
      </g>
      <path id="Trazado_112568" data-name="Trazado 112568" d="M201.91,231.51v1.17H197.2v-.93l2.4-2.28c.55-.52.65-.84.65-1.14,0-.5-.34-.78-1-.78a1.53,1.53,0,0,0-1.29.62l-1.05-.67a2.89,2.89,0,0,1,2.48-1.16c1.39,0,2.32.71,2.32,1.84a2.48,2.48,0,0,1-1.05,2l-1.43,1.36Z" fill="#263238"/>
      <path id="Trazado_112569" data-name="Trazado 112569" d="M202.49,229.56c0-2.05,1.14-3.22,2.67-3.22s2.68,1.17,2.68,3.22-1.14,3.23-2.68,3.23S202.49,231.62,202.49,229.56Zm3.89,0c0-1.41-.5-2-1.22-2s-1.21.59-1.21,2,.5,2,1.21,2S206.38,231,206.38,229.56Z" fill="#263238"/>
      <path id="Trazado_112570" data-name="Trazado 112570" d="M208.43,228.09a1.55,1.55,0,1,1,.389,1.208A1.55,1.55,0,0,1,208.43,228.09Zm2.2,0c0-.66-.26-1-.65-1s-.65.33-.65,1,.27,1,.65,1,.65-.33.65-1Zm3.07-1.65h1.06l-4.26,6.24h-1.06Zm-1,4.59a1.348,1.348,0,1,1-.03-.03Zm2.19,0c0-.66-.25-1-.65-1s-.65.33-.65,1,.27,1,.65,1,.62-.34.62-1.03Z" fill="#263238"/>
      <path id="Trazado_112571" data-name="Trazado 112571" d="M228.9,266.41c0,.15-10.17.26-22.71.26s-22.71-.11-22.71-.26,10.16-.26,22.71-.26S228.9,266.27,228.9,266.41Z" fill="#263238"/>
      <path id="Trazado_112572" data-name="Trazado 112572" d="M218.79,270.58c0,.15-5.64.27-12.6.27s-12.6-.12-12.6-.27,5.64-.26,12.6-.26S218.79,270.44,218.79,270.58Z" fill="#263238"/>
      <path id="Trazado_112573" data-name="Trazado 112573" d="M273.44,201.92a27.45,27.45,0,1,0,27.44,27.447,27.45,27.45,0,0,0-27.44-27.447Zm.41,43.89A16.86,16.86,0,1,1,290.71,229,16.86,16.86,0,0,1,273.85,245.81Z" fill="#263238"/>
      <path id="Trazado_112574" data-name="Trazado 112574" d="M273.86,201.93v10.16a16.87,16.87,0,0,1,16.07,22l9.95,2.7a27.46,27.46,0,0,0-26-34.83Z" fill="#a66d58"/>
      <path id="Trazado_112575" data-name="Trazado 112575" d="M257,229a16.88,16.88,0,0,1,10-15.4l-4.22-9.48A27.46,27.46,0,0,0,246,229.37v1.15h11Z" fill="#263238"/>
      <path id="Trazado_112576" data-name="Trazado 112576" d="M273.85,245.81a16.831,16.831,0,0,1-3.57-.38c-.42,2.45-1.22,7.19-1.85,10.92a27.45,27.45,0,0,0,31.44-19.59l-9.95-2.7A16.86,16.86,0,0,1,273.85,245.81Z" fill="#263238"/>
      <path id="Trazado_112577" data-name="Trazado 112577" d="M266.9,225.39v6.24h-1.44v-5.08h-1.25v-1.16Z" fill="#263238"/>
      <path id="Trazado_112578" data-name="Trazado 112578" d="M268,228.51c0-2.06,1.14-3.23,2.67-3.23s2.67,1.17,2.67,3.23-1.13,3.22-2.67,3.22S268,230.57,268,228.51Zm3.89,0c0-1.42-.5-2-1.22-2s-1.21.59-1.21,2,.5,2,1.21,2,1.21-.59,1.21-2Z" fill="#263238"/>
      <path id="Trazado_112579" data-name="Trazado 112579" d="M273.93,227a1.55,1.55,0,1,1,.389,1.208A1.55,1.55,0,0,1,273.93,227Zm2.2,0c0-.67-.26-1-.65-1s-.65.33-.65,1,.27,1,.65,1S276.13,227.71,276.13,227Zm3.06-1.65h1.07L276,231.63h-1.06Zm-1,4.59a1.051,1.051,0,1,1-.02.06Zm2.19,0c0-.66-.26-1-.65-1s-.65.32-.65,1,.27,1,.65,1,.63-.3.63-.94Z" fill="#263238"/>
      <path id="Trazado_112580" data-name="Trazado 112580" d="M296.15,264.15c0,.15-10.17.26-22.71.26s-22.72-.11-22.72-.26,10.17-.26,22.72-.26S296.15,264,296.15,264.15Z" fill="#263238"/>
      <path id="Trazado_112581" data-name="Trazado 112581" d="M286,268.32c0,.15-5.64.26-12.59.26s-12.6-.11-12.6-.26,5.64-.26,12.6-.26S286,268.18,286,268.32Z" fill="#263238"/>
    </g>
    <g id="freepik--Character--inject-82">
      <path id="Trazado_112582" data-name="Trazado 112582" d="M354.31,453.38l1.73-8-20.78-2.3-1.27,11.69,7.23,4.58Z" fill="#ffcdb0"/>
      <path id="Trazado_112583" data-name="Trazado 112583" d="M425.02,431.21l-2.81,34.48-15.82-2.29-1.07-33.86Z" fill="#ffcdb0"/>
      <path id="Trazado_112584" data-name="Trazado 112584" d="M406.34,456.59s10.62,8.57,16.53,2.27l1.18,3.35,4.65,23.6a3.08,3.08,0,0,1-2.07,3.58,3.12,3.12,0,0,1-3.21-.84c-4.29-4.61-20-21.64-19.66-23.77l.49-5.67a2.9,2.9,0,0,1,2.09-2.52Z" fill="#a66d58"/>
      <g id="Grupo_60047" data-name="Grupo 60047" opacity="0.6">
        <path id="Trazado_112585" data-name="Trazado 112585" d="M426.07,489.51,403.9,462.8l-.08,1.24c-.22,1.34.34,1.92.93,2.83,1.75,2.69,6.71,8.8,18.58,21.67a3.15,3.15,0,0,0,2.74,1Z" fill="#fff"/>
      </g>
      <g id="Grupo_60048" data-name="Grupo 60048" opacity="0.6">
        <path id="Trazado_112586" data-name="Trazado 112586" d="M407.7,459.37a1.8,1.8,0,0,1,.34,2.41,1.83,1.83,0,0,1-2.45.34,1.74,1.74,0,1,1,2.24-2.63" fill="#fff"/>
      </g>
      <path id="Trazado_112587" data-name="Trazado 112587" d="M420.09,476.23c.17.09,1-1.39,2.8-2.09s3.46-.22,3.51-.4-.34-.33-1-.47a4.91,4.91,0,0,0-2.73.27,4.76,4.76,0,0,0-2.15,1.66C420.1,475.77,420,476.2,420.09,476.23Z" fill="#263238"/>
      <path id="Trazado_112588" data-name="Trazado 112588" d="M422,480.3c.14.14,1.17-.74,2.75-1.07a28.543,28.543,0,0,1,3-.16c.1-.16-1.31-.87-3.11-.47S421.81,480.21,422,480.3Z" fill="#263238"/>
      <path id="Trazado_112589" data-name="Trazado 112589" d="M416.46,470.92c.13.15,1.71-1.21,4.13-1.93s4.51-.5,4.53-.7-2.14-.72-4.73.08S416.32,470.83,416.46,470.92Z" fill="#263238"/>
      <path id="Trazado_112590" data-name="Trazado 112590" d="M416.45,463.84c.07.19,1.78-.37,3.94-.3s3.85.7,3.92.53-1.57-1.12-3.9-1.17S416.36,463.7,416.45,463.84Z" fill="#263238"/>
      <path id="Trazado_112591" data-name="Trazado 112591" d="M421.63,463.57a2.431,2.431,0,0,0-.09-1.11,7.551,7.551,0,0,0-1.24-2.79,3.48,3.48,0,0,0-1.68-1.47,1.25,1.25,0,0,0-1.36.42,1.93,1.93,0,0,0-.32,1.37,4.35,4.35,0,0,0,4.25,3.5,5,5,0,0,0,4.65-3.09,1.66,1.66,0,0,0-.08-1.42,1.23,1.23,0,0,0-1.34-.49,4.22,4.22,0,0,0-1.86,1.21,8.461,8.461,0,0,0-1.78,2.48,2.551,2.551,0,0,0-.34,1.06,13.621,13.621,0,0,1,2.45-3.21,4,4,0,0,1,1.64-1,.67.67,0,0,1,.73.26,1.17,1.17,0,0,1,0,.94,4.5,4.5,0,0,1-4.06,2.64,3.8,3.8,0,0,1-3.66-2.93,1.36,1.36,0,0,1,.19-1,.67.67,0,0,1,.74-.24,3.16,3.16,0,0,1,1.45,1.21,11.16,11.16,0,0,1,1.71,3.66Z" fill="#263238"/>
      <path id="Trazado_112592" data-name="Trazado 112592" d="M429.49,230.88c0,.74,7.72,26.84,7.72,26.84s12.5,24.94,8.46,40.38c-2.23,8.51-12.28,61.75-12.28,61.75s-3.82,40.59-6,58.09-3,26.89-3,26.89l-19.15-.77-4.5-78.28-1.42-61.47L373.87,381.7s-5.43,23.91-8.39,34-9.65,31.57-9.65,31.57l-20.67-3.06s2.23-37.63,4.2-46.75,8.5-41.87,8.5-41.87l5.79-31.83,6.2-51.81,5.39-19.92,6.7-22.53Z" fill="#263238"/>
      <path id="Trazado_112593" data-name="Trazado 112593" d="M326.84,199.2s-.74-2.62-2.43-3.53-9.21-.61-10.8-.61-6.67-1.91-9,0a1.55,1.55,0,0,0,1.18,2c2.75.55,7.84,1.62,7.61,2s-8.93-.59-10.73,0l-12.92-.31s-2.27,2.1-.17,2.93v1.71a5.859,5.859,0,0,0,2.23,1c1.69.51-.11,1.52,2.11,2a19.621,19.621,0,0,0,4.56.41l.21,1a7.4,7.4,0,0,0,2.22.7c1.8.41,21.91,0,21.91,0l10.27,3.26,1.48-10.12Z" fill="#ffcdb0"/>
      <path id="Trazado_112594" data-name="Trazado 112594" d="M322.7,198.7c0,.19-2.45.42-5,1.87a9.6,9.6,0,0,0-2.8,2.43,15.067,15.067,0,0,1-.9,1.3,3,3,0,0,1,.6-1.5,8.19,8.19,0,0,1,2.83-2.69,11.36,11.36,0,0,1,3.67-1.31A4.2,4.2,0,0,1,322.7,198.7Z" fill="#eb996e"/>
      <path id="Trazado_112595" data-name="Trazado 112595" d="M307.28,205.75a19.93,19.93,0,0,1-4.51.3,10.209,10.209,0,0,0-3.08.21,3,3,0,0,0-1,.75c-.08,0,0-.65.82-1.08a7.78,7.78,0,0,1,3.23-.4A19.65,19.65,0,0,1,307.28,205.75Z" fill="#eb996e"/>
      <path id="Trazado_112596" data-name="Trazado 112596" d="M306.63,202.89a8.61,8.61,0,0,1-2.08.43,23.74,23.74,0,0,1-5.16.23,13.32,13.32,0,0,0-5,.23,3.1,3.1,0,0,0-1.3.67c-.24.24-.21.46-.26.46s-.14-.24.1-.59a2.9,2.9,0,0,1,1.34-.89,7.55,7.55,0,0,1,2.31-.47,25.25,25.25,0,0,1,2.85.07,32.759,32.759,0,0,0,5.08-.08A8.9,8.9,0,0,1,306.63,202.89Z" fill="#eb996e"/>
      <path id="Trazado_112597" data-name="Trazado 112597" d="M304.83,200.68a10.279,10.279,0,0,1-2.25.18c-1.39,0-3.31.07-5.43.07-1.06,0-2.07-.09-3-.08a13.29,13.29,0,0,0-2.39.15,3.79,3.79,0,0,0-1.5.46c-.3.2-.38.41-.42.39s0-.26.3-.55a3.4,3.4,0,0,1,1.55-.67,11.75,11.75,0,0,1,2.46-.26c.93,0,1.94.06,3,0,2.11,0,4,0,5.41.08a9.35,9.35,0,0,1,2.27.23Z" fill="#eb996e"/>
      <path id="Trazado_112598" data-name="Trazado 112598" d="M399.61,159.12l-9.85,12.07,2.23,4.98,11.61.86,11.9-1.96,6.63-2.38,4.26-10.94-1.32-8.63-4.64.19Z" fill="#ffcdb0"/>
      <path id="Trazado_112599" data-name="Trazado 112599" d="M390.4,170.2s-.79,3.92,6.32,4.15,25.42-4.15,25.42-4.15l14.92,26.31-15.83,34.37-49.29-1.36v-8.59s-4.29-2.94-4.75-12a37.78,37.78,0,0,1,2.26-15.37Z" fill="#fff"/>
      <path id="Trazado_112600" data-name="Trazado 112600" d="M396.07,156.58s-13.6,2.33-15.3,3.18-8.5,8.5-10.62,13.81-4,18.27-4,18.27-5.31,7.65-5.31,8.92v3.4s-4,6.16-4,6.8v.64l-26.21-14.87-9.91,17.84s23,16.47,34,23.17a6.39,6.39,0,0,0,8.49-1.71h0l-8.66,54,5.42.85,12.09-61.32v-8.59s-8.73-9-1.37-21.23c2.56-4.24,10-15.72,14-21.45s14.16-18.09,14.16-18.09l.05-6.62Z" fill="#6595bf"/>
      <path id="Trazado_112601" data-name="Trazado 112601" d="M424,151.07l6.72,1.12,3.13,3.81s18.93,4.78,21.17,7.69-11.58,40-11.58,40l-7.13,30.17s10.94,29.88,11.81,44.63L397.38,293.6s-1.57-51,0-60.19,7.83-32.67,12.08-42.52,15-31.1,15-31.77S424,151.07,424,151.07Z" fill="#6595bf"/>
      <g id="Grupo_60049" data-name="Grupo 60049" opacity="0.3">
        <path id="Trazado_112602" data-name="Trazado 112602" d="M437.07,237a3.68,3.68,0,0,0-1.69-1.44c-5-2.62-10.89-2.93-16.2-4.87-5.05-1.84-10-5.2-15.29-4.31-2.07.35-3.1.34-5.17.72l-.38,1.7c3.22,1.69,8.76.09,11.79,2.1a31.938,31.938,0,0,1,2.8,2.54,17.371,17.371,0,0,0,4,2.33q4.27,2,8.62,3.78c2.75,1.14,5.73,2.24,8.63,1.56a4.45,4.45,0,0,0,2.48-1.4A2.53,2.53,0,0,0,437.07,237Z"/>
      </g>
      <path id="Trazado_112603" data-name="Trazado 112603" d="M448.19,160.49c-.76.3-9.11,16.09-11.05,24s7.37,32,7.37,32l-28.64-1.91-2.78,14.13s26.38,9.5,35.1,11.64,17.46,3.49,20,0a18.6,18.6,0,0,0,3.1-7.18l-3.88-29.67-3.68-18.81s-.39-8.34-2.33-13.19S451.1,159.32,448.19,160.49Z" fill="#6595bf"/>
      <path id="Trazado_112604" data-name="Trazado 112604" d="M373.73,230.84a3,3,0,0,1-.09-.66c0-.49-.08-1.12-.14-1.9-.11-1.71-.26-4.08-.44-7a7.471,7.471,0,0,0-.5-2.19,13.3,13.3,0,0,0-1.3-2.1,9.45,9.45,0,0,1-1.71-5.33,26,26,0,0,1,3.08-12.34,104.167,104.167,0,0,1,6.7-10.84c2.14-3.27,4-6.27,5.67-8.71a62.768,62.768,0,0,1,4.21-5.61c.54-.63,1-1.11,1.28-1.42a3.711,3.711,0,0,1,.48-.46,4.54,4.54,0,0,1-.4.53l-1.21,1.47c-1,1.3-2.44,3.22-4.06,5.69s-3.44,5.48-5.57,8.77a109.754,109.754,0,0,0-6.63,10.82,25.67,25.67,0,0,0-3.1,12.09,9.09,9.09,0,0,0,1.58,5.1,13.7,13.7,0,0,1,1.32,2.19,8,8,0,0,1,.5,2.32c.15,3,.22,5.35.27,7,0,.78,0,1.41.05,1.9a3.442,3.442,0,0,1,.01.68Z" fill="#263238"/>
      <path id="Trazado_112605" data-name="Trazado 112605" d="M396,174.32a2.568,2.568,0,0,1-.22.59,14.486,14.486,0,0,1-.82,1.62,31.279,31.279,0,0,1-4.07,5.26,58.27,58.27,0,0,0-6.27,7.52,44.181,44.181,0,0,0-5,10.83,59.463,59.463,0,0,0-1.57,6,21.129,21.129,0,0,0-.65,5.69c.08,1.82.89,3.4,1.36,5a14.451,14.451,0,0,1,.45,4.6c-.06,2.8,0,5.06.09,6.63q.06,1.09.09,1.8a4.3,4.3,0,0,1,0,.63,2.408,2.408,0,0,1-.11-.62c-.05-.41-.12-1-.19-1.8-.13-1.56-.27-3.83-.26-6.64a14.128,14.128,0,0,0-.49-4.48,20.2,20.2,0,0,1-1.42-5.1,21,21,0,0,1,.62-5.83A60.842,60.842,0,0,1,379,200a43.21,43.21,0,0,1,5.14-10.94,55.286,55.286,0,0,1,6.4-7.51,33.43,33.43,0,0,0,4.16-5.12C395.57,175.1,395.9,174.3,396,174.32Z" fill="#263238"/>
      <path id="Trazado_112606" data-name="Trazado 112606" d="M404.28,173.27a2.27,2.27,0,0,1-.18.6,17.674,17.674,0,0,1-.7,1.65,38.653,38.653,0,0,1-3.41,5.63c-1.59,2.28-3.63,4.88-5.54,8a51.4,51.4,0,0,0-5.09,10.69,41.609,41.609,0,0,0-2,11.65c-.16,3.65,0,7,0,9.73s0,5-.09,6.57a15.281,15.281,0,0,1-.14,1.79,2.389,2.389,0,0,1-.09.61,3.642,3.642,0,0,1,0-.62v-1.78c0-1.55,0-3.79-.08-6.57s-.22-6.07-.09-9.75a41.59,41.59,0,0,1,2-11.79A49.938,49.938,0,0,1,394,188.89c1.95-3.13,4-5.72,5.65-8a42.788,42.788,0,0,0,3.53-5.5c.36-.69.61-1.23.78-1.6a3.7,3.7,0,0,1,.32-.52Z" fill="#263238"/>
      <path id="Trazado_112607" data-name="Trazado 112607" d="M411.4,172.32a2.56,2.56,0,0,1-.08.61,16.621,16.621,0,0,1-.38,1.74,40.082,40.082,0,0,1-2.16,6.16c-1.09,2.54-2.61,5.46-4.28,8.69a74.454,74.454,0,0,0-4.74,10.79,124.52,124.52,0,0,0-5,20.85c-.39,2.73-.53,4.94-.66,6.48a4.22,4.22,0,0,1-.49,1.72,1.39,1.39,0,0,1-.41.47,2.672,2.672,0,0,0,.32-.52,4.54,4.54,0,0,0,.38-1.69c.06-1.53.15-3.77.49-6.5a113.442,113.442,0,0,1,4.87-21,69.944,69.944,0,0,1,4.81-10.85c1.69-3.23,3.24-6.11,4.36-8.62a45.375,45.375,0,0,0,2.31-6.07C411.19,173.14,411.35,172.31,411.4,172.32Z" fill="#263238"/>
      <path id="Trazado_112608" data-name="Trazado 112608" d="M360.89,230c-.08,0,.1-1.1.19-2.87a29.74,29.74,0,0,0-.4-6.87,17.63,17.63,0,0,0-2.2-6.46,9.349,9.349,0,0,0-1.94-2,1.8,1.8,0,0,1,.71.34,6,6,0,0,1,1.54,1.49,16.22,16.22,0,0,1,2.4,6.58,25.139,25.139,0,0,1,.26,7,10,10,0,0,1-.56,2.79Z" fill="#263238"/>
      <path id="Trazado_112609" data-name="Trazado 112609" d="M367.67,215.25a2.489,2.489,0,0,1-.4-.57,11.8,11.8,0,0,1-.83-1.82,14.88,14.88,0,0,1-.5-7.28,40.07,40.07,0,0,1,3.6-10.24c1.73-3.69,3.47-7.82,5.68-12a40.669,40.669,0,0,1,3.76-5.8,60.737,60.737,0,0,1,4.35-4.71c3-2.82,4.78-6,6.57-8.54s3.34-4.48,4.46-5.79c.56-.66,1-1.16,1.32-1.49a2.818,2.818,0,0,1,.49-.49,4.088,4.088,0,0,1-.41.55l-1.24,1.56c-1.07,1.35-2.59,3.32-4.31,5.87s-3.57,5.81-6.54,8.66a61.489,61.489,0,0,0-4.29,4.7,39.931,39.931,0,0,0-3.7,5.73c-2.2,4.14-3.95,8.27-5.7,11.95a40.83,40.83,0,0,0-3.68,10.1,15.29,15.29,0,0,0,.33,7.16,18.159,18.159,0,0,0,1.04,2.45Z" fill="#263238"/>
      <path id="Trazado_112610" data-name="Trazado 112610" d="M361.86,243.69a4.511,4.511,0,0,1,.12-1.13c.12-.72.31-1.76.56-3,.55-2.67,1.27-6.14,2.07-10A66.608,66.608,0,0,0,366,219.49c.12-2.59,0-4.2.09-4.21a5.349,5.349,0,0,1,.16,1.13c.05.36.07.81.09,1.33s0,1.11,0,1.76a55.56,55.56,0,0,1-1.21,10.15c-.77,3.91-1.64,7.4-2.22,9.94q-.42,1.785-.72,3a5.091,5.091,0,0,1-.33,1.1Z" fill="#263238"/>
      <path id="Trazado_112611" data-name="Trazado 112611" d="M433.25,156.43a4.58,4.58,0,0,1,0,.74,20.721,20.721,0,0,1-.19,2.12,71.21,71.21,0,0,1-1.3,7.73,74.912,74.912,0,0,1-3.43,11.11c-.81,2-1.75,4.14-2.82,6.26a14.6,14.6,0,0,1-.89,1.62,2.85,2.85,0,0,1-1.71,1l-3.62.91-1.17.29.09-.46,4.25,3.12.21.15-.16.21-13.05,17-3.89,5-1.07,1.32a2.619,2.619,0,0,1-.39.44,3.381,3.381,0,0,1,.32-.5l1-1.37,3.77-5.08,12.91-17.1.05.36-4.25-3.11-.45-.33.54-.13,1.17-.3,3.62-.91a2.29,2.29,0,0,0,1.43-.77,11.656,11.656,0,0,0,.84-1.53c1.08-2.11,2-4.19,2.83-6.21a77.167,77.167,0,0,0,3.52-11c.77-3.2,1.2-5.84,1.46-7.66.12-.88.22-1.58.29-2.11a3,3,0,0,1,.09-.81Z" fill="#263238"/>
      <path id="Trazado_112612" data-name="Trazado 112612" d="M449.52,160.88a9,9,0,0,0-2.19.36,10.1,10.1,0,0,0-4.71,3.66,20.45,20.45,0,0,0-2.17,3.59,34.688,34.688,0,0,0-1.84,4.47,36,36,0,0,0-1.86,10.88c-.09,3.93,1,7.58,1.67,10.94s1.42,6.36,2,8.88,1.17,4.54,1.59,5.92c.23.69.39,1.23.53,1.58a3.4,3.4,0,0,1,.18.56,2.289,2.289,0,0,1-.28-.52c-.17-.34-.36-.87-.62-1.56-.49-1.37-1.09-3.38-1.76-5.89s-1.39-5.52-2.15-8.86c-.36-1.68-.75-3.44-1.14-5.27a26,26,0,0,1-.58-5.79,35.591,35.591,0,0,1,1.93-11,31.668,31.668,0,0,1,1.9-4.51,20,20,0,0,1,2.27-3.62,9.94,9.94,0,0,1,4.94-3.63,5.7,5.7,0,0,1,1.67-.23,2.131,2.131,0,0,1,.62.04Z" fill="#263238"/>
      <path id="Trazado_112613" data-name="Trazado 112613" d="M437.82,237.28a2.29,2.29,0,0,1-.48-.13l-1.38-.43L430.83,235,413,229l-.2-.07v-.21c.89-4.31,1.87-9,2.89-14v-.41H416c11.12.22,21.17,1,28.4,1.86,3.61.41,6.53.81,8.54,1.11l2.32.36a7.232,7.232,0,0,1,.8.16,4.171,4.171,0,0,1-.82-.06L453,217.5c-2-.24-4.95-.58-8.56-.95-7.24-.74-17.26-1.48-28.37-1.7l.26-.2v.19l-2.92,14-.16-.28,17.76,6.22,5.09,1.83,1.34.51A2,2,0,0,1,437.82,237.28Z" fill="#263238"/>
      <path id="Trazado_112614" data-name="Trazado 112614" d="M455.38,215c0,.15-2.57.31-5.71.76s-5.66,1-5.7.85a20.609,20.609,0,0,1,5.63-1.36,20.109,20.109,0,0,1,5.78-.25Z" fill="#263238"/>
      <path id="Trazado_112615" data-name="Trazado 112615" d="M406.33,266.16a5.849,5.849,0,0,1-.18-.66,2.82,2.82,0,0,0-1-1.44,2.64,2.64,0,0,0-2.48-.33,2.6,2.6,0,0,0,0,4.87,2.67,2.67,0,0,0,2.48-.33,2.82,2.82,0,0,0,1-1.44,6.556,6.556,0,0,1,.18-.67,1.507,1.507,0,0,1,0,.72,2.77,2.77,0,0,1-1,1.68,3,3,0,0,1-2.88.49,3.06,3.06,0,0,1,0-5.77,3,3,0,0,1,2.88.49,2.74,2.74,0,0,1,1,1.68C406.42,265.91,406.36,266.17,406.33,266.16Z" fill="#263238"/>
      <path id="Trazado_112616" data-name="Trazado 112616" d="M405.78,240.11s-.06-.25-.19-.67a2.88,2.88,0,0,0-1-1.43,2.64,2.64,0,0,0-2.49-.33,2.59,2.59,0,0,0,0,4.86,2.64,2.64,0,0,0,2.49-.33,2.88,2.88,0,0,0,1-1.43c.13-.42.14-.67.19-.67a1.39,1.39,0,0,1,0,.72,2.87,2.87,0,0,1-1,1.68,3,3,0,0,1-2.87.49,3.06,3.06,0,0,1,0-5.78,3,3,0,0,1,2.87.49,2.87,2.87,0,0,1,1,1.68,1.39,1.39,0,0,1,0,.72Z" fill="#263238"/>
      <g id="Grupo_60050" data-name="Grupo 60050" opacity="0.3">
        <path id="Trazado_112617" data-name="Trazado 112617" d="M356.77,211.6a8.11,8.11,0,0,1,5.05,4.34,20.171,20.171,0,0,1,1.83,6.85,6.22,6.22,0,0,1-.5,4.16c-.36.58-1.26,1-1.67.47a1.21,1.21,0,0,1-.19-.55c-.5-2.8-.63-5.66-1.25-8.44s-1.19-5-3.37-6.82"/>
      </g>
      <g id="Grupo_60051" data-name="Grupo 60051" opacity="0.3">
        <path id="Trazado_112618" data-name="Trazado 112618" d="M404.28,214.52c7.31-3.06,12.76-9.77,17.06-16.42.93-1.44,1.84-2.89,2.75-4.34a6,6,0,0,0,1.09-2.6,2,2,0,0,0-1.43-2.17,2.81,2.81,0,0,0,3.13-1.22,8.25,8.25,0,0,0,1.13-3.41c.51-2.9,1.21-7.15,1.72-10-.8,2.08-2.54,5.55-3.34,7.63-.57,1.47-1.11,3.18-2.3,4.21-1.91,1.65-3.83,1.08-6.07,1.76,1.45.4,3.16,2.09,4.25,3.11-5.56,7.88-18,23.49-18,23.49"/>
      </g>
      <path id="Trazado_112619" data-name="Trazado 112619" d="M398.17,93.72c-2,.4-4.17.1-6.16.66-2.88.82-5,3.35-6.12,6.14a29.371,29.371,0,0,0-1.53,8.81l-.56,8a25,25,0,0,1-.72,5.11c-.53,1.85-2,6.78-2.06,9.18a25.93,25.93,0,0,0,6,18.15c1.85,2.09,5.7,3,8.43,3.56l5.68-5c.2-.18-4.25-5-4.14-5.28a1.9,1.9,0,0,0-.12-1.3,64,64,0,0,1,2.7-47.67" fill="#e0e0e0"/>
      <path id="Trazado_112620" data-name="Trazado 112620" d="M398.76,161.64c-.15-10.45,0-14.37,0-14.31s-9-1.51-10.81-13.23c-.91-5.82-.6-15.37-.09-23.18.46-7,5.14-15.64,12.14-14.88l21.85,5.57a4.13,4.13,0,0,1,3.68,4.19h0l-2.46,55.64" fill="#ffcdb0"/>
      <path id="Trazado_112621" data-name="Trazado 112621" d="M392.17,118a1.5,1.5,0,0,0,1.44,1.52,1.43,1.43,0,0,0,1.55-1.35,1.5,1.5,0,0,0-1.44-1.52,1.43,1.43,0,0,0-1.55,1.35Z" fill="#263238"/>
      <path id="Trazado_112622" data-name="Trazado 112622" d="M390.6,115.89c.18.2,1.32-.64,2.94-.63s2.8.82,3,.62-.1-.44-.61-.82a4.13,4.13,0,0,0-2.39-.74,3.94,3.94,0,0,0-2.34.75C390.67,115.45,390.51,115.8,390.6,115.89Z" fill="#263238"/>
      <path id="Trazado_112623" data-name="Trazado 112623" d="M408,118.23a1.5,1.5,0,0,0,1.44,1.52A1.44,1.44,0,0,0,411,118.4a1.49,1.49,0,0,0-1.44-1.52,1.43,1.43,0,0,0-1.56,1.35Z" fill="#263238"/>
      <path id="Trazado_112624" data-name="Trazado 112624" d="M406.49,116.23c.18.2,1.32-.64,2.94-.64s2.8.82,3,.62-.1-.44-.61-.81a4.06,4.06,0,0,0-2.39-.74,3.94,3.94,0,0,0-2.34.75C406.57,115.79,406.4,116.14,406.49,116.23Z" fill="#263238"/>
      <path id="Trazado_112625" data-name="Trazado 112625" d="M400.59,128.2a11.159,11.159,0,0,0-2.62-.48c-.41,0-.8-.12-.87-.4a2.08,2.08,0,0,1,.27-1.23L398.6,123c1.71-4.47,2.94-8.15,2.76-8.21s-1.71,3.5-3.41,8l-1.18,3.16a2.37,2.37,0,0,0-.22,1.62,1.07,1.07,0,0,0,.68.61,3.351,3.351,0,0,0,.7.1A9.809,9.809,0,0,0,400.59,128.2Z" fill="#263238"/>
      <path id="Trazado_112626" data-name="Trazado 112626" d="M398.76,147.33a31.55,31.55,0,0,0,16.37-4.15s-4.65,8.23-16.37,7.11Z" fill="#eb996e"/>
      <path id="Trazado_112627" data-name="Trazado 112627" d="M401.27,132.1a2.9,2.9,0,0,1,2.61-1.07,2.63,2.63,0,0,1,1.84,1,1.68,1.68,0,0,1,.12,1.92,1.94,1.94,0,0,1-2.12.53,6.2,6.2,0,0,1-2.06-1.23,1.61,1.61,0,0,1-.46-.48.53.53,0,0,1,0-.6" fill="#a66d58"/>
      <path id="Trazado_112628" data-name="Trazado 112628" d="M405.35,129.33c-.26,0-.27,1.74-1.78,3s-3.37,1.05-3.38,1.29.41.35,1.2.37a4.36,4.36,0,0,0,2.83-1,3.78,3.78,0,0,0,1.37-2.5C405.66,129.76,405.47,129.32,405.35,129.33Z" fill="#263238"/>
      <path id="Trazado_112629" data-name="Trazado 112629" d="M405.77,111.54c.15.44,1.77.23,3.66.46s3.43.76,3.69.36c.11-.18-.16-.6-.77-1a6.44,6.44,0,0,0-5.6-.63C406.05,111,405.7,111.33,405.77,111.54Z" fill="#263238"/>
      <path id="Trazado_112630" data-name="Trazado 112630" d="M391.2,113c.28.36,1.4,0,2.74,0s2.47.25,2.73-.13c.12-.19-.06-.56-.55-.9a3.77,3.77,0,0,0-2.23-.61,3.81,3.81,0,0,0-2.18.73C391.23,112.39,391.08,112.77,391.2,113Z" fill="#263238"/>
      <path id="Trazado_112631" data-name="Trazado 112631" d="M410.51,114.21a12.589,12.589,0,0,1,2.23.74,14,14,0,0,1,1.95,1.31,4.73,4.73,0,0,0-1.86-1.49A4.61,4.61,0,0,0,410.51,114.21Z" fill="#eb996e"/>
      <path id="Trazado_112632" data-name="Trazado 112632" d="M389.44,115.62a7.72,7.72,0,0,1,1.5-1.05,7.61,7.61,0,0,1,1.77-.48,2.83,2.83,0,0,0-1.85.29,2.9,2.9,0,0,0-1.42,1.24Z" fill="#eb996e"/>
      <path id="Trazado_112633" data-name="Trazado 112633" d="M406.46,130.12a.744.744,0,0,0,.06-.4,1.68,1.68,0,0,0-1.22-1.43h-.41s.15.06.36.14a1.89,1.89,0,0,1,.72.52,1.94,1.94,0,0,1,.41.79C406.43,130,406.43,130.12,406.46,130.12Z" fill="#eb996e"/>
      <path id="Trazado_112634" data-name="Trazado 112634" d="M408.43,130.9a1.453,1.453,0,0,0,.17-.63,2.51,2.51,0,0,0-.38-1.53,2.57,2.57,0,0,0-1.22-1,1.17,1.17,0,0,0-.64-.12,5.948,5.948,0,0,1,.58.25,2.69,2.69,0,0,1,1.52,2.4C408.47,130.65,408.4,130.89,408.43,130.9Z" fill="#eb996e"/>
      <path id="Trazado_112635" data-name="Trazado 112635" d="M396.71,95.25a2.79,2.79,0,0,1,1.2-1.64,16.67,16.67,0,0,1,12.72-2.9A29.7,29.7,0,0,1,422.83,96c3.2,2.22,6.22,4.93,7.84,8.47a28.25,28.25,0,0,1,1.9,8c.92,6.75,2.73,13.52,2.67,20.33,0,2.65.45,7.12,0,10.39-.48,3.5-3.87,7.76-7.32,8.54l-7.75.77s4.2-14.48,3.87-19.7c-.28-4.57-.24-9.59-.76-14.14a2.42,2.42,0,0,0-.27-1,2.48,2.48,0,0,0-1.06-.82l-4.85-2.47a48.32,48.32,0,0,1-4.56-2.55,46.192,46.192,0,0,1-4.62-3.64l-6.29-5.37A18.82,18.82,0,0,1,398,99.06a6.25,6.25,0,0,1-1-4.92" fill="#e0e0e0"/>
      <path id="Trazado_112636" data-name="Trazado 112636" d="M422.73,121.84a3.42,3.42,0,0,1,5-2.91c1.19.69,2.09,2.07,2,4.71-.29,7.06-7.32,5.31-7.32,5.11S422.59,124.76,422.73,121.84Z" fill="#ffcdb0"/>
      <path id="Trazado_112637" data-name="Trazado 112637" d="M424.66,126.17a2.117,2.117,0,0,0,.33.19,1.22,1.22,0,0,0,.91.06,3,3,0,0,0,1.52-2.67,4,4,0,0,0-.27-1.78,1.41,1.41,0,0,0-.88-1,.62.62,0,0,0-.74.31c-.11.19-.07.33-.1.34s-.15-.12-.08-.41a.75.75,0,0,1,.29-.43.94.94,0,0,1,.69-.15,1.74,1.74,0,0,1,1.24,1.14,4.16,4.16,0,0,1,.34,2,3.256,3.256,0,0,1-1.91,3,1.34,1.34,0,0,1-1.12-.23C424.67,126.34,424.64,126.18,424.66,126.17Z" fill="#eb996e"/>
      <path id="Trazado_112638" data-name="Trazado 112638" d="M424.84,151.05c-.17,0-.12-1.12.2-3s.95-4.66,1.75-8a98.716,98.716,0,0,0,2.29-11.74,41.521,41.521,0,0,0,.23-6.92,22.4,22.4,0,0,0-1.41-7.07,10,10,0,0,0-1.8-2.92,12.911,12.911,0,0,0-2.66-2.18,38.848,38.848,0,0,0-6.17-3.12c-4.14-1.7-8.09-3-11.28-4.44s-5.67-3.31-6.73-5.1-1-3-.83-3,.45,1,1.65,2.4a15.76,15.76,0,0,0,6.61,4c3.18,1.22,7.12,2.28,11.47,3.92a38,38,0,0,1,6.65,3.2A15.351,15.351,0,0,1,428,109.6a12.639,12.639,0,0,1,2.29,3.67,24.09,24.09,0,0,1,1.55,7.94,39.071,39.071,0,0,1-.41,7.36,75.4,75.4,0,0,1-2.88,11.92c-1,3.3-1.93,5.94-2.54,7.76S425,151.09,424.84,151.05Z" fill="#fafafa"/>
      <path id="Trazado_112639" data-name="Trazado 112639" d="M431.19,150a3.592,3.592,0,0,1,.17-.75c.12-.48.33-1.18.54-2.1a51.569,51.569,0,0,0,1.28-7.87,55.6,55.6,0,0,0-.29-11.8c-.28-2.21-.68-4.52-1.22-6.88a33.907,33.907,0,0,0-2.2-7.11,15.93,15.93,0,0,0-4.75-5.61,31.309,31.309,0,0,0-6-3.48c-4.06-1.82-7.91-3.09-10.92-4.67a23.069,23.069,0,0,1-6.53-4.65,10.343,10.343,0,0,1-.82-1,6,6,0,0,1-.55-.74,3.61,3.61,0,0,1-.4-.65,24.557,24.557,0,0,0,1.92,2.2A23.7,23.7,0,0,0,408,99.38c3,1.53,6.85,2.75,11,4.57a31.07,31.07,0,0,1,6.11,3.51,16.26,16.26,0,0,1,4.9,5.78,33.812,33.812,0,0,1,2.24,7.23,65.78,65.78,0,0,1,1.19,6.93,53.921,53.921,0,0,1,.19,11.89,45.744,45.744,0,0,1-1.46,7.89c-.23.92-.48,1.61-.63,2.08A4,4,0,0,1,431.19,150Z" fill="#fafafa"/>
      <path id="Trazado_112640" data-name="Trazado 112640" d="M396.08,152.33a5.087,5.087,0,0,1-.68,0,12.45,12.45,0,0,1-1.95-.1,4.8,4.8,0,0,1-2.81-1.33,14.871,14.871,0,0,1-2.05-3.56,35.26,35.26,0,0,1-3.53-10,48.124,48.124,0,0,1-.54-6.28c-.08-2.17-.11-4.43,0-6.74.21-9.24,1.8-17.61,4.33-23.17a12,12,0,0,1,2.4-3.34,8.41,8.41,0,0,1,2.59-1.72,6.52,6.52,0,0,1,1.9-.5h.68a8.53,8.53,0,0,0-2.5.68A8.81,8.81,0,0,0,391.41,98a11.791,11.791,0,0,0-2.28,3.29c-2.4,5.5-3.94,13.84-4.14,23-.06,2.3,0,4.55,0,6.72a50.712,50.712,0,0,0,.5,6.21,36.1,36.1,0,0,0,3.39,9.95,15.362,15.362,0,0,0,1.93,3.52,4.66,4.66,0,0,0,2.63,1.33C395.13,152.34,396.08,152.26,396.08,152.33Z" fill="#fafafa"/>
      <circle id="Elipse_4391" data-name="Elipse 4391" cx="1.39" cy="1.39" r="1.39" transform="translate(424.28 127.83)" fill="#263238"/>
      <path id="Trazado_112641" data-name="Trazado 112641" d="M333.61,452.13v1.33s-22.54,8.74-22.83,13l44.55.31-.5-14.83C348.16,455,341.23,455.25,333.61,452.13Z" fill="#a66d58"/>
      <g id="Grupo_60052" data-name="Grupo 60052" opacity="0.6">
        <path id="Trazado_112642" data-name="Trazado 112642" d="M350.26,456.64a1.82,1.82,0,0,1,1.25,2.08,1.75,1.75,0,0,1-2.06,1.25,1.9,1.9,0,0,1-1.3-2.21,1.81,1.81,0,0,1,2.28-1.06" fill="#fff"/>
      </g>
      <g id="Grupo_60053" data-name="Grupo 60053" opacity="0.6">
        <path id="Trazado_112643" data-name="Trazado 112643" d="M355.31,466.76l-.12-3.57-42.66,1s-2,.85-1.77,2.25Z" fill="#fff"/>
      </g>
      <path id="Trazado_112644" data-name="Trazado 112644" d="M333.43,453.58c0,.22,1.1.32,2.16,1s1.63,1.63,1.83,1.54-.11-1.34-1.42-2.18S333.39,453.38,333.43,453.58Z" fill="#263238"/>
      <path id="Trazado_112645" data-name="Trazado 112645" d="M328.75,455.48c-.05.21.89.59,1.62,1.51s.94,1.9,1.16,1.9.36-1.24-.57-2.38S328.75,455.27,328.75,455.48Z" fill="#263238"/>
      <path id="Trazado_112646" data-name="Trazado 112646" d="M326.06,461.06c.19,0,.5-1-.05-2.24s-1.56-1.67-1.66-1.49.54.82,1,1.81S325.84,461,326.06,461.06Z" fill="#263238"/>
      <path id="Trazado_112647" data-name="Trazado 112647" d="M405.53,216l-16.28-7.42L378,209.71,372.69,216s0,1.86,1.14,1.57a7.24,7.24,0,0,0,2.43-1.43l.14,4.72s1.71,2,2.86,0l1.14,3.57s1.28,1.57,2.28,0l1.72,4.14a3.12,3.12,0,0,0,2-1.43,3.18,3.18,0,0,0,.28-2.14s5.57,1,7.86,1.71,13.56.43,13.56.43l5,1.43,2.3-11.73Z" fill="#ffcdb0"/>
      <path id="Trazado_112648" data-name="Trazado 112648" d="M386.84,210.31a6.12,6.12,0,0,0-2,0c-.61.12-1.33.35-2.15.6s-1.7.51-2.6.85a15.111,15.111,0,0,0-2.45,1.16,1.34,1.34,0,0,0-.66.78c-.1.33-.17.69-.24,1a19.78,19.78,0,0,1-.41,2,4.85,4.85,0,0,1,.05-2.09,8,8,0,0,1,.19-1.06,1.74,1.74,0,0,1,.81-1.06,12.85,12.85,0,0,1,2.52-1.24c.93-.36,1.84-.61,2.66-.84a16.928,16.928,0,0,1,2.23-.49,2.66,2.66,0,0,1,2.05.39Z" fill="#eb996e"/>
      <path id="Trazado_112649" data-name="Trazado 112649" d="M387.78,213.58a5.05,5.05,0,0,1-1.83.78c-1.17.37-2.85.64-4.6,1.15a3.17,3.17,0,0,0-1.12.48,4.69,4.69,0,0,0-.57,1,4.38,4.38,0,0,0-.52,2,9.127,9.127,0,0,0,.2,1.4,1.9,1.9,0,0,1,0,.54,3.689,3.689,0,0,1-.19-.5,8.692,8.692,0,0,1-.37-1.42,4.46,4.46,0,0,1,.45-2.17,4.529,4.529,0,0,1,.65-1.18,3.34,3.34,0,0,1,1.33-.62c1.81-.53,3.48-.73,4.66-1a15.292,15.292,0,0,1,1.91-.46Z" fill="#eb996e"/>
      <path id="Trazado_112650" data-name="Trazado 112650" d="M382.82,224.7a3.119,3.119,0,0,1-.85-1.22,2.7,2.7,0,0,1-.19-1.67,2.2,2.2,0,0,1,1.45-1.5,5.29,5.29,0,0,1,2-.24l1.58.05a6.708,6.708,0,0,1,1.07.1c.28.07.37.25.33.26a1.769,1.769,0,0,0-.36-.06c-.23,0-.6.05-1,.07l-1.58.06a5.651,5.651,0,0,0-1.81.25,1.75,1.75,0,0,0-1.16,1.13,2.41,2.41,0,0,0,.07,1.42A11.473,11.473,0,0,1,382.82,224.7Z" fill="#eb996e"/>
    </g>
  </g>
</svg>
