<svg xmlns="http://www.w3.org/2000/svg" width="400.502" height="381.313" viewBox="0 0 400.502 381.313">
  <g id="Tax-bro" transform="translate(-12.231 -29.138)">
    <g id="freepik--background-simple--inject-21" transform="translate(15.653 29.138)">
      <path id="Trazado_112786" data-name="Trazado 112786" d="M353.029,93.429c-7.413-12.6-17.771-22.913-30.874-31.33C278.516,34.087,219.216,23.956,168.231,31.6,131.81,37.042,107.53,61.8,92,94.079,73.65,132.172,56.984,170.1,36.1,207.158c-23.985,42.449-34.741,86.6,17.366,123.261,45.083,31.727,101.631,23.5,153.316,22.482,17.121-.338,34.378.228,51.229,3.546,33.491,6.585,66.029,30,98.963,8.13,25.04-16.615,39.789-48.012,46.932-76.464,4.263-16.953,7.6-35.653,6.036-53.652-1.731-19.713-10.823-34.555-20.178-51.339a299.145,299.145,0,0,1-27.311-67.059A92.151,92.151,0,0,0,353.029,93.429Z" transform="translate(-16.192 -29.138)" fill="#6595bf"/>
      <path id="Trazado_112787" data-name="Trazado 112787" d="M353.029,93.429c-7.413-12.6-17.771-22.913-30.874-31.33C278.516,34.087,219.216,23.956,168.231,31.6,131.81,37.042,107.53,61.8,92,94.079,73.65,132.172,56.984,170.1,36.1,207.158c-23.985,42.449-34.741,86.6,17.366,123.261,45.083,31.727,101.631,23.5,153.316,22.482,17.121-.338,34.378.228,51.229,3.546,33.491,6.585,66.029,30,98.963,8.13,25.04-16.615,39.789-48.012,46.932-76.464,4.263-16.953,7.6-35.653,6.036-53.652-1.731-19.713-10.823-34.555-20.178-51.339a299.145,299.145,0,0,1-27.311-67.059A92.151,92.151,0,0,0,353.029,93.429Z" transform="translate(-16.192 -29.138)" fill="#fff" opacity="0.7"/>
    </g>
    <g id="freepik--Plants--inject-21" transform="translate(14.284 204.012)">
      <g id="Grupo_60056" data-name="Grupo 60056" transform="translate(298.983)" opacity="0.2">
        <path id="Trazado_112788" data-name="Trazado 112788" d="M405.465,248.081c1,2.339,5.217,6.146,5.217,6.146s1.689-3.546,1.739-3.782c.886-2.752.971-8.594-1.689-10.477a3.833,3.833,0,0,0-5.538,1.376C404.089,243.328,404.62,246.1,405.465,248.081Z" transform="translate(-374.295 -236.745)"/>
        <path id="Trazado_112789" data-name="Trazado 112789" d="M453.946,294.9c0,.051,3.377-2.043,3.537-2.2,2.254-1.807,5.555-6.636,4.4-9.658a3.833,3.833,0,0,0-5.378-1.9c-2.043,1.03-3.132,3.622-3.521,5.749C452.527,289.392,453.946,294.888,453.946,294.9Z" transform="translate(-381.821 -243.189)"/>
        <path id="Trazado_112790" data-name="Trazado 112790" d="M467.31,284.638c-2.1-2.457-7.919-1.874-10.587-.76-.228.093-3.664,2.018-3.622,2.06h.051c-.912.084-1.9.186-2.972.321-1.976.262-4.221.574-6.61,1.081a68.249,68.249,0,0,0-7.691,1.992,50.258,50.258,0,0,0-8.2,3.428l-.093.059c.667-.684,2.457-2.643,2.575-2.8,1.689-2.347,3.6-7.868,1.689-10.477a3.824,3.824,0,0,0-5.682-.414c-1.689,1.528-2.068,4.323-1.883,6.475.211,2.423,2.794,7.024,3.006,7.4a68.383,68.383,0,0,0-7.6,4.93c-1.41,1.055-2.8,2.153-4.221,3.267.557-.6,1.047-1.148,1.106-1.233,1.689-2.339,3.6-7.86,1.689-10.477a3.833,3.833,0,0,0-5.69-.405c-1.689,1.528-2.068,4.314-1.883,6.467s2.322,6.155,2.9,7.2l-1.579,1.3c-2.533,2.094-5.015,4.221-7.522,6.188-.844.7-1.79,1.359-2.685,2.018.49-.54.9-1,.962-1.072,1.689-2.339,3.6-7.86,1.689-10.469a3.825,3.825,0,0,0-5.69-.414c-1.689,1.528-2.06,4.323-1.883,6.467s2.111,5.766,2.794,7.007c-.937.65-1.874,1.309-2.811,1.891-.65.388-1.25.8-1.925,1.157l-1.908,1.114c-1.275.633-2.583,1.3-3.841,1.891-.844.422-1.688.8-2.533,1.19.895-.684,2.609-2.068,2.735-2.2a14.876,14.876,0,0,0,3.521-6.627,5.065,5.065,0,0,0,.54-.659,3.833,3.833,0,0,0-1.182-5.581c-2.845-1.537-8.054,1.089-10.131,3.09-.118.118-1.317,1.545-2.052,2.465.346-.608.7-1.19,1.055-1.815.709-1.233,1.385-2.482,2.111-3.824.329-.659.667-1.326,1-2s.633-1.4.954-2.111c.718-1.689,1.351-3.377,1.959-5.066,1.081.625,4.947,2.769,7.109,2.989s4.947-.093,6.5-1.773a3.824,3.824,0,0,0-.312-5.69c-2.583-1.959-8.139-.144-10.5,1.511-.152.11-1.689,1.486-2.533,2.263.355-1.047.718-2.094,1.038-3.166.946-3.09,1.8-6.256,2.668-9.4.27-.971.549-1.925.844-2.887.38.228,4.922,2.879,7.345,3.124,2.144.22,4.939-.093,6.5-1.773a3.824,3.824,0,0,0-.321-5.69c-2.575-1.959-8.13-.144-10.5,1.511-.177.127-2.423,2.119-2.972,2.651.6-2.111,1.224-4.221,1.916-6.264a68.033,68.033,0,0,1,3.3-8.1c.177.1,4.905,2.9,7.387,3.149,2.144.22,4.939-.1,6.5-1.773a3.824,3.824,0,0,0-.321-5.69c-2.575-1.959-8.13-.144-10.5,1.511-.152.11-1.866,1.629-2.668,2.364l-.144-.11a48.71,48.71,0,0,1,4.736-7.421c.971-1.292,1.976-2.474,2.972-3.6.844.608,4.635,3.377,6.838,3.833s4.93.447,6.661-1.047a3.833,3.833,0,0,0,.312-5.7c-2.355-2.229-8.071-1.03-10.6.355-.144.076-1.461,1-2.406,1.689.456-.507.92-1.03,1.376-1.5,1.689-1.781,3.335-3.3,4.8-4.643.844-.751,1.621-1.418,2.355-2.035,1.131.177,5.665.844,7.8.236s4.576-1.874,5.429-3.993a3.841,3.841,0,0,0-2.347-5.2c-3.115-.844-7.64,2.8-9.287,5.2-.135.211-1.942,3.706-1.883,3.715h.068c-.718.583-1.486,1.207-2.3,1.908-1.5,1.309-3.2,2.8-4.922,4.55a67.955,67.955,0,0,0-5.319,5.91,50.13,50.13,0,0,0-4.939,7.379l-.051.093c.186-.929.591-3.546.6-3.757.127-2.887-1.325-8.544-4.365-9.667a3.833,3.833,0,0,0-4.973,2.794c-.574,2.212.667,4.745,2,6.433,1.52,1.908,6.214,4.323,6.594,4.517a66.854,66.854,0,0,0-3.6,8.3c-.608,1.689-1.157,3.335-1.689,5.066.135-.844.245-1.537.245-1.638.127-2.887-1.334-8.544-4.365-9.667a3.824,3.824,0,0,0-4.973,2.794c-.574,2.212.659,4.736,2,6.433s5.327,3.858,6.383,4.407c-.194.65-.405,1.3-.6,1.959-.937,3.132-1.866,6.264-2.862,9.287-.355,1.072-.734,2.119-1.123,3.158.118-.718.2-1.325.211-1.418.127-2.887-1.334-8.544-4.373-9.667a3.824,3.824,0,0,0-4.964,2.794c-.574,2.212.659,4.736,2,6.433s4.939,3.647,6.188,4.306c-.422,1.055-.844,2.119-1.3,3.132-.329.675-.6,1.359-.971,2.018l-1.038,1.984c-.709,1.233-1.427,2.533-2.153,3.7-.5.844-.979,1.613-1.469,2.4.363-1.064,1.03-3.166,1.064-3.377.557-2.837,0-8.645-2.854-10.224a3.833,3.833,0,0,0-5.336,2.009c-.9,2.1-.068,4.787,1,6.67,1.174,2.06,5.277,5.065,5.792,5.428-.844,1.3-1.621,2.533-2.4,3.732-2.659,4.044-5.023,7.311-6.754,9.591l1.6,1.5.11-.152c1.689-2.347,4.01-5.724,6.627-9.9.844-1.317,1.688-2.744,2.533-4.221a40.769,40.769,0,0,0,4.652,1.528c0,2.44,1.621,6.881,1.832,7.455-1.393.633-2.761,1.241-4.052,1.79-4.449,1.908-8.223,3.326-10.9,4.289l1.756,1.689c2.583-1.013,5.994-2.406,9.911-4.221,1.427-.642,2.93-1.351,4.466-2.094.355.507,3.284,4.66,5.336,5.91,1.857,1.1,4.534,1.984,6.644,1.114a3.825,3.825,0,0,0,2.1-5.3c-1.528-2.854-7.328-3.537-10.173-3.022-.169,0-1.95.566-3.073.92.625-.312,1.241-.6,1.883-.929,1.275-.633,2.533-1.309,3.875-2.026l1.933-1.114c.659-.363,1.3-.844,1.959-1.241,1.5-.988,2.989-2.06,4.449-3.174.557,1.114,2.6,5.065,4.28,6.408s4.179,2.651,6.4,2.111a3.824,3.824,0,0,0,2.879-4.922c-1.072-3.056-6.7-4.6-9.6-4.525-.177,0-2.246.287-3.377.473.844-.684,1.756-1.351,2.617-2.068,2.533-2.06,4.956-4.221,7.413-6.374l2.271-1.95c.194.4,2.533,5.108,4.4,6.653,1.689,1.368,4.221,2.643,6.408,2.111a3.833,3.833,0,0,0,2.87-4.922c-1.072-3.056-6.7-4.61-9.591-4.534-.22,0-3.191.422-3.943.566,1.689-1.427,3.377-2.837,5.065-4.162A66.442,66.442,0,0,1,427.5,293.8c.084.186,2.533,5.116,4.415,6.695,1.688,1.368,4.179,2.651,6.4,2.111a3.833,3.833,0,0,0,2.879-4.922c-1.072-3.056-6.7-4.61-9.591-4.534-.194,0-2.457.321-3.537.5l-.059-.177a49.217,49.217,0,0,1,8.046-3.571c1.52-.54,3.014-.979,4.466-1.368.355.971,2.018,5.361,3.6,6.974s3.867,3.09,6.129,2.794a3.833,3.833,0,0,0,3.377-4.576c-.735-3.157-6.163-5.31-9.042-5.555-.152,0-1.764,0-2.938.076.667-.16,1.342-.346,1.976-.49,2.389-.557,4.61-.92,6.577-1.224,1.114-.16,2.136-.287,3.082-.388.844.76,4.272,3.808,6.374,4.5s4.854.962,6.754-.346a3.833,3.833,0,0,0,.9-5.656Z" transform="translate(-368.71 -236.273)"/>
      </g>
      <g id="Grupo_60057" data-name="Grupo 60057" transform="translate(0 69.376)" opacity="0.2">
        <path id="Trazado_112791" data-name="Trazado 112791" d="M67.634,405.33c.059-2.533-2.2-7.75-2.2-7.75s-2.989,2.533-3.158,2.719c-1.942,2.144-4.441,7.421-2.828,10.224a3.824,3.824,0,0,0,5.606,1.038C66.908,410.227,67.575,407.491,67.634,405.33Z" transform="translate(-21.479 -330.773)"/>
        <path id="Trazado_112792" data-name="Trazado 112792" d="M42.651,343.149c0-.059-3.884.464-4.128.532-2.8.709-7.8,3.732-8,6.965a3.841,3.841,0,0,0,4.111,3.96c2.279-.093,4.348-2,5.58-3.774C41.664,348.755,42.651,343.149,42.651,343.149Z" transform="translate(-17.054 -322.294)"/>
        <path id="Trazado_112793" data-name="Trazado 112793" d="M14.688,331.367c.895,3.115,6.425,4.99,9.287,5.065.245,0,4.171-.312,4.145-.371V336c.844.3,1.807.616,2.837.937,1.908.583,4.069,1.224,6.467,1.764a69.175,69.175,0,0,0,7.826,1.368,50.375,50.375,0,0,0,8.882.27h.1c-.844.338-3.326,1.385-3.5,1.486-2.533,1.427-6.534,5.656-5.91,8.831a3.833,3.833,0,0,0,5.006,2.735c2.178-.692,3.664-3.082,4.39-5.116.844-2.3.371-7.6.329-7.978a66.894,66.894,0,0,0,8.949-1.351c1.688-.363,3.445-.794,5.167-1.241-.751.321-1.427.616-1.52.667-2.533,1.427-6.534,5.665-5.91,8.839a3.833,3.833,0,0,0,5.006,2.727c2.178-.684,3.664-3.081,4.39-5.116s.447-6.56.346-7.742l1.976-.532c3.157-.844,6.307-1.748,9.413-2.533,1.1-.27,2.187-.5,3.276-.726-.667.287-1.233.532-1.309.574-2.533,1.427-6.534,5.665-5.91,8.839a3.833,3.833,0,0,0,5.006,2.727c2.187-.684,3.672-3.082,4.4-5.116s.464-6.121.363-7.531c1.123-.2,2.246-.405,3.377-.557.751-.076,1.469-.211,2.229-.253l2.229-.169c1.418-.051,2.887-.118,4.28-.135h2.811c-1.1.253-3.225.8-3.377.844a14.876,14.876,0,0,0-5.91,4.584,4.518,4.518,0,0,0-.76.371,3.824,3.824,0,0,0-1.241,5.564c1.95,2.583,7.784,2.347,10.519,1.393.16-.059,1.84-.844,2.887-1.385-.566.4-1.123.785-1.689,1.207-1.165.844-2.3,1.689-3.512,2.6l-1.739,1.41c-.591.464-1.157,1.022-1.739,1.528-1.334,1.216-2.626,2.533-3.9,3.841-.726-1.013-3.377-4.567-5.226-5.665s-4.542-1.959-6.653-1.081a3.833,3.833,0,0,0-2.077,5.31c1.545,2.854,7.345,3.5,10.19,2.972.177,0,2.178-.642,3.267-1-.76.8-1.52,1.6-2.263,2.448-2.144,2.423-4.221,4.947-6.332,7.455-.633.768-1.283,1.528-1.933,2.288-.253-.363-3.293-4.66-5.386-5.91-1.866-1.089-4.542-1.959-6.653-1.081a3.824,3.824,0,0,0-2.068,5.31c1.537,2.854,7.345,3.5,10.182,2.972.22,0,3.09-.92,3.808-1.174-1.427,1.689-2.862,3.326-4.339,4.905a67.262,67.262,0,0,1-6.366,6.011c-.118-.169-3.267-4.669-5.412-5.91-1.883-1.072-4.559-1.916-6.67-1.072a3.833,3.833,0,0,0-2.068,5.319c1.537,2.845,7.337,3.5,10.182,2.972.186-.042,2.381-.709,3.377-1.047l.093.16A49.214,49.214,0,0,1,62.92,382.6c-1.427.777-2.828,1.444-4.221,2.052-.5-.895-2.828-4.973-4.643-6.315s-4.3-2.448-6.492-1.807a3.824,3.824,0,0,0-2.642,5.065c1.224,3.006,6.914,4.289,9.8,4.078.16,0,1.739-.312,2.887-.54-.625.27-1.266.557-1.874.8-2.271.92-4.4,1.621-6.3,2.229-1.081.338-2.068.616-2.989.844-.946-.633-4.812-3.1-7-3.453s-4.939-.186-6.594,1.393a3.824,3.824,0,0,0,0,5.7c2.465,2.1,8.113.616,10.578-.9.211-.127,3.3-2.533,3.25-2.592l-.059-.042c.895-.228,1.849-.481,2.887-.777,1.916-.574,4.069-1.233,6.366-2.1a70.322,70.322,0,0,0,7.32-3.157,51.135,51.135,0,0,0,7.6-4.669l.084-.076c-.549.777-2.018,3-2.111,3.174-1.309,2.583-2.322,8.333,0,10.612a3.833,3.833,0,0,0,5.682-.481c1.435-1.781,1.359-4.593.844-6.686-.591-2.372-3.867-6.509-4.128-6.838a68.183,68.183,0,0,0,6.754-6.062c1.233-1.258,2.44-2.533,3.622-3.884-.447.684-.844,1.3-.895,1.393-1.309,2.575-2.33,8.324,0,10.612a3.833,3.833,0,0,0,5.682-.49c1.444-1.773,1.368-4.584.844-6.686s-3.25-5.716-3.985-6.653l1.359-1.528c2.153-2.465,4.289-4.939,6.459-7.294.768-.844,1.553-1.621,2.33-2.415-.4.608-.734,1.123-.777,1.207-1.309,2.575-2.322,8.333,0,10.612a3.833,3.833,0,0,0,5.682-.481c1.435-1.781,1.359-4.593.844-6.695s-2.989-5.361-3.858-6.484c.844-.785,1.689-1.579,2.533-2.3.574-.481,1.106-.988,1.688-1.444s1.182-.912,1.764-1.368c1.157-.844,2.347-1.688,3.5-2.474.794-.549,1.562-1.055,2.33-1.57-.768.844-2.246,2.448-2.355,2.6-1.689,2.347-3.563,7.877-1.638,10.486a3.833,3.833,0,0,0,5.69.38c1.688-1.537,2.043-4.331,1.849-6.484-.211-2.364-2.7-6.754-3.022-7.337,1.283-.844,2.533-1.689,3.732-2.415,4.086-2.533,7.6-4.567,10.089-5.91l-.844-2.035-.169.1c-2.491,1.435-6.02,3.546-10.131,6.256-1.309.844-2.676,1.8-4.086,2.778a41.239,41.239,0,0,0-3.757-3.352c1.038-2.212,1.376-6.931,1.418-7.548,1.537,0,3.022,0,4.432.051,4.838.11,8.865.38,11.693.616l-.912-2.237c-2.769-.152-6.45-.3-10.756-.3-1.562,0-3.225,0-4.93.059-.118-.608-1.055-5.606-2.423-7.6-1.233-1.764-3.3-3.681-5.589-3.765a3.824,3.824,0,0,0-4.1,3.96c.2,3.234,5.2,6.247,8,6.965.169,0,2.009.3,3.174.439l-2.094.059c-1.418.051-2.837.144-4.365.236l-2.22.22c-.751.051-1.528.211-2.3.312-1.781.279-3.571.642-5.369,1.047-.051-1.241-.279-5.656-1.241-7.6s-2.7-4.137-4.947-4.576a3.833,3.833,0,0,0-4.66,3.293c-.287,3.225,4.221,6.974,6.855,8.1.169.076,2.17.667,3.276.971-1.081.253-2.153.507-3.233.794-3.124.844-6.264,1.8-9.4,2.735-.954.287-1.916.557-2.879.844,0-.447-.169-5.7-1.241-7.877-.954-1.942-2.71-4.145-4.956-4.576a3.833,3.833,0,0,0-4.66,3.293c-.287,3.225,4.221,6.965,6.864,8.1.194.084,3.082.937,3.824,1.114-2.111.616-4.221,1.2-6.332,1.689a67.6,67.6,0,0,1-8.62,1.5c0-.2-.152-5.69-1.249-7.928-.954-1.933-2.71-4.137-4.956-4.567a3.824,3.824,0,0,0-4.652,3.284c-.3,3.225,4.221,6.974,6.855,8.1.169.076,2.364.726,3.377,1.013v.186a50.058,50.058,0,0,1-8.763-.017c-1.613-.144-3.141-.363-4.626-.616.076-1.022.38-5.707-.388-7.826s-2.237-4.415-4.424-5.065a3.833,3.833,0,0,0-4.99,2.761c-.642,3.174,3.377,7.387,5.91,8.8.135.076,1.621.709,2.7,1.148-.667-.127-1.359-.236-2-.371-2.4-.481-4.567-1.072-6.484-1.613-1.089-.312-2.06-.616-2.972-.912-.447-1.047-2.313-5.243-3.934-6.754s-4.019-2.887-6.273-2.482a3.833,3.833,0,0,0-3.157,4.736Z" transform="translate(-14.57 -318.448)"/>
      </g>
    </g>
    <g id="freepik--Floor--inject-21" transform="translate(40.827 409.951)">
      <line id="Línea_825" data-name="Línea 825" x2="367.232" fill="none" stroke="#a66d58" stroke-linecap="round" stroke-miterlimit="10" stroke-width="1"/>
    </g>
    <g id="freepik--Calendar--inject-21" transform="translate(255.748 54.239)">
      <rect id="Rectángulo_28755" data-name="Rectángulo 28755" width="128.25" height="133.256" transform="translate(0 10.013)" fill="#fff" stroke="#263238" stroke-linecap="round" stroke-miterlimit="10" stroke-width="1"/>
      <rect id="Rectángulo_28756" data-name="Rectángulo 28756" width="128.25" height="25.648" transform="translate(0 10.013)" fill="#6595bf" stroke="#263238" stroke-linecap="round" stroke-miterlimit="10" stroke-width="1"/>
      <rect id="Rectángulo_28757" data-name="Rectángulo 28757" width="14.682" height="14.682" transform="translate(7.505 51.93)" fill="#fff" stroke="#263238" stroke-linecap="round" stroke-miterlimit="10" stroke-width="1"/>
      <rect id="Rectángulo_28758" data-name="Rectángulo 28758" width="14.682" height="14.682" transform="translate(27.472 51.93)" fill="#fff" stroke="#263238" stroke-linecap="round" stroke-miterlimit="10" stroke-width="1"/>
      <rect id="Rectángulo_28759" data-name="Rectángulo 28759" width="14.682" height="14.682" transform="translate(47.43 51.93)" fill="#fff" stroke="#263238" stroke-linecap="round" stroke-miterlimit="10" stroke-width="1"/>
      <rect id="Rectángulo_28760" data-name="Rectángulo 28760" width="14.682" height="14.682" transform="translate(67.388 51.93)" fill="#fff" stroke="#263238" stroke-linecap="round" stroke-miterlimit="10" stroke-width="1"/>
      <rect id="Rectángulo_28761" data-name="Rectángulo 28761" width="14.682" height="14.682" transform="translate(87.355 51.93)" fill="#fff" stroke="#263238" stroke-linecap="round" stroke-miterlimit="10" stroke-width="1"/>
      <rect id="Rectángulo_28762" data-name="Rectángulo 28762" width="14.682" height="14.682" transform="translate(107.313 51.93)" fill="#fff" stroke="#263238" stroke-linecap="round" stroke-miterlimit="10" stroke-width="1"/>
      <rect id="Rectángulo_28763" data-name="Rectángulo 28763" width="14.682" height="14.682" transform="translate(7.505 72.116)" fill="#fff" stroke="#263238" stroke-linecap="round" stroke-miterlimit="10" stroke-width="1"/>
      <rect id="Rectángulo_28764" data-name="Rectángulo 28764" width="14.682" height="14.682" transform="translate(27.472 72.116)" fill="#fff" stroke="#263238" stroke-linecap="round" stroke-miterlimit="10" stroke-width="1"/>
      <rect id="Rectángulo_28765" data-name="Rectángulo 28765" width="14.682" height="14.682" transform="translate(47.43 72.116)" fill="#fff" stroke="#263238" stroke-linecap="round" stroke-miterlimit="10" stroke-width="1"/>
      <rect id="Rectángulo_28766" data-name="Rectángulo 28766" width="14.682" height="14.682" transform="translate(67.388 72.116)" fill="#fff" stroke="#263238" stroke-linecap="round" stroke-miterlimit="10" stroke-width="1"/>
      <rect id="Rectángulo_28767" data-name="Rectángulo 28767" width="14.682" height="14.682" transform="translate(87.355 72.116)" fill="#fff" stroke="#263238" stroke-linecap="round" stroke-miterlimit="10" stroke-width="1"/>
      <rect id="Rectángulo_28768" data-name="Rectángulo 28768" width="14.682" height="14.682" transform="translate(107.313 72.116)" fill="#fff" stroke="#263238" stroke-linecap="round" stroke-miterlimit="10" stroke-width="1"/>
      <rect id="Rectángulo_28769" data-name="Rectángulo 28769" width="14.682" height="14.682" transform="translate(7.505 92.302)" fill="#fff" stroke="#263238" stroke-linecap="round" stroke-miterlimit="10" stroke-width="1"/>
      <rect id="Rectángulo_28770" data-name="Rectángulo 28770" width="14.682" height="14.682" transform="translate(27.472 92.302)" fill="#fff" stroke="#263238" stroke-linecap="round" stroke-miterlimit="10" stroke-width="1"/>
      <rect id="Rectángulo_28771" data-name="Rectángulo 28771" width="14.682" height="14.682" transform="translate(47.43 92.302)" fill="#fff" stroke="#263238" stroke-linecap="round" stroke-miterlimit="10" stroke-width="1"/>
      <rect id="Rectángulo_28772" data-name="Rectángulo 28772" width="14.682" height="14.682" transform="translate(67.388 92.302)" fill="#fff" stroke="#263238" stroke-linecap="round" stroke-miterlimit="10" stroke-width="1"/>
      <rect id="Rectángulo_28773" data-name="Rectángulo 28773" width="14.682" height="14.682" transform="translate(87.355 92.302)" fill="#fff" stroke="#263238" stroke-linecap="round" stroke-miterlimit="10" stroke-width="1"/>
      <rect id="Rectángulo_28774" data-name="Rectángulo 28774" width="14.682" height="14.682" transform="translate(107.313 92.302)" fill="#fff" stroke="#263238" stroke-linecap="round" stroke-miterlimit="10" stroke-width="1"/>
      <rect id="Rectángulo_28775" data-name="Rectángulo 28775" width="14.682" height="14.682" transform="translate(7.505 112.497)" fill="#fff" stroke="#263238" stroke-linecap="round" stroke-miterlimit="10" stroke-width="1"/>
      <rect id="Rectángulo_28776" data-name="Rectángulo 28776" width="14.682" height="14.682" transform="translate(27.472 112.497)" fill="#fff" stroke="#263238" stroke-linecap="round" stroke-miterlimit="10" stroke-width="1"/>
      <rect id="Rectángulo_28777" data-name="Rectángulo 28777" width="14.682" height="14.682" transform="translate(47.43 112.497)" fill="#fff" stroke="#263238" stroke-linecap="round" stroke-miterlimit="10" stroke-width="1"/>
      <rect id="Rectángulo_28778" data-name="Rectángulo 28778" width="14.682" height="14.682" transform="translate(67.388 112.497)" fill="#fff" stroke="#263238" stroke-linecap="round" stroke-miterlimit="10" stroke-width="1"/>
      <rect id="Rectángulo_28779" data-name="Rectángulo 28779" width="14.682" height="14.682" transform="translate(87.355 112.497)" fill="#fff" stroke="#263238" stroke-linecap="round" stroke-miterlimit="10" stroke-width="1"/>
      <rect id="Rectángulo_28780" data-name="Rectángulo 28780" width="14.682" height="14.682" transform="translate(107.313 112.497)" fill="#fff" stroke="#263238" stroke-linecap="round" stroke-miterlimit="10" stroke-width="1"/>
      <path id="Trazado_112794" data-name="Trazado 112794" d="M313.573,75.763h0a1.874,1.874,0,0,1-1.883-1.874V60.753a1.883,1.883,0,0,1,1.883-1.883h0a1.874,1.874,0,0,1,1.874,1.883V73.889a1.866,1.866,0,0,1-1.874,1.874Z" transform="translate(-302.31 -58.87)" fill="#fff" stroke="#263238" stroke-linecap="round" stroke-miterlimit="10" stroke-width="1"/>
      <path id="Trazado_112795" data-name="Trazado 112795" d="M322.464,75.763h0a1.866,1.866,0,0,1-1.874-1.874V60.753a1.874,1.874,0,0,1,1.874-1.883h0a1.874,1.874,0,0,1,1.849,1.883V73.889A1.866,1.866,0,0,1,322.464,75.763Z" transform="translate(-303.697 -58.87)" fill="#fff" stroke="#263238" stroke-linecap="round" stroke-miterlimit="10" stroke-width="1"/>
      <path id="Trazado_112796" data-name="Trazado 112796" d="M331.354,75.763h0a1.866,1.866,0,0,1-1.874-1.874V60.753a1.874,1.874,0,0,1,1.874-1.883h0a1.874,1.874,0,0,1,1.874,1.883V73.889a1.866,1.866,0,0,1-1.874,1.874Z" transform="translate(-305.081 -58.87)" fill="#fff" stroke="#263238" stroke-linecap="round" stroke-miterlimit="10" stroke-width="1"/>
      <path id="Trazado_112797" data-name="Trazado 112797" d="M340.244,75.763h0a1.874,1.874,0,0,1-1.874-1.874V60.753a1.883,1.883,0,0,1,1.874-1.883h0a1.883,1.883,0,0,1,1.883,1.883V73.889a1.874,1.874,0,0,1-1.883,1.874Z" transform="translate(-306.466 -58.87)" fill="#fff" stroke="#263238" stroke-linecap="round" stroke-miterlimit="10" stroke-width="1"/>
      <path id="Trazado_112798" data-name="Trazado 112798" d="M349.143,75.763h0a1.874,1.874,0,0,1-1.883-1.874V60.753a1.883,1.883,0,0,1,1.883-1.883h0a1.883,1.883,0,0,1,1.874,1.883V73.889A1.874,1.874,0,0,1,349.143,75.763Z" transform="translate(-307.85 -58.87)" fill="#fff" stroke="#263238" stroke-linecap="round" stroke-miterlimit="10" stroke-width="1"/>
      <path id="Trazado_112799" data-name="Trazado 112799" d="M358.034,75.763h0a1.866,1.866,0,0,1-1.874-1.874V60.753a1.874,1.874,0,0,1,1.874-1.883h0a1.874,1.874,0,0,1,1.874,1.883V73.889a1.866,1.866,0,0,1-1.874,1.874Z" transform="translate(-309.237 -58.87)" fill="#fff" stroke="#263238" stroke-linecap="round" stroke-miterlimit="10" stroke-width="1"/>
      <path id="Trazado_112800" data-name="Trazado 112800" d="M366.924,75.763h0a1.866,1.866,0,0,1-1.874-1.874V60.753a1.874,1.874,0,0,1,1.874-1.883h0a1.874,1.874,0,0,1,1.874,1.883V73.889a1.866,1.866,0,0,1-1.874,1.874Z" transform="translate(-310.621 -58.87)" fill="#fff" stroke="#263238" stroke-linecap="round" stroke-miterlimit="10" stroke-width="1"/>
      <rect id="Rectángulo_28781" data-name="Rectángulo 28781" width="3.757" height="16.893" rx="1.878" transform="translate(61.934 0)" fill="#fff" stroke="#263238" stroke-linecap="round" stroke-miterlimit="10" stroke-width="1"/>
      <path id="Trazado_112801" data-name="Trazado 112801" d="M384.713,75.763h0a1.874,1.874,0,0,1-1.883-1.874V60.753a1.883,1.883,0,0,1,1.883-1.883h0a1.883,1.883,0,0,1,1.874,1.883V73.889a1.874,1.874,0,0,1-1.874,1.874Z" transform="translate(-313.39 -58.87)" fill="#fff" stroke="#263238" stroke-linecap="round" stroke-miterlimit="10" stroke-width="1"/>
      <path id="Trazado_112802" data-name="Trazado 112802" d="M393.654,75.763h0a1.866,1.866,0,0,1-1.874-1.874V60.753a1.874,1.874,0,0,1,1.874-1.883h0a1.874,1.874,0,0,1,1.874,1.883V73.889a1.866,1.866,0,0,1-1.874,1.874Z" transform="translate(-314.784 -58.87)" fill="#fff" stroke="#263238" stroke-linecap="round" stroke-miterlimit="10" stroke-width="1"/>
      <path id="Trazado_112803" data-name="Trazado 112803" d="M402.494,75.763h0a1.866,1.866,0,0,1-1.874-1.874V60.753a1.874,1.874,0,0,1,1.874-1.883h0a1.874,1.874,0,0,1,1.874,1.883V73.889a1.866,1.866,0,0,1-1.874,1.874Z" transform="translate(-316.161 -58.87)" fill="#fff" stroke="#263238" stroke-linecap="round" stroke-miterlimit="10" stroke-width="1"/>
      <path id="Trazado_112804" data-name="Trazado 112804" d="M411.384,75.763h0a1.866,1.866,0,0,1-1.874-1.874V60.753a1.874,1.874,0,0,1,1.874-1.883h0a1.883,1.883,0,0,1,1.916,1.883V73.889a1.874,1.874,0,0,1-1.916,1.874Z" transform="translate(-317.546 -58.87)" fill="#fff" stroke="#263238" stroke-linecap="round" stroke-miterlimit="10" stroke-width="1"/>
      <path id="Trazado_112805" data-name="Trazado 112805" d="M420.274,75.763h0a1.874,1.874,0,0,1-1.874-1.874V60.753a1.883,1.883,0,0,1,1.874-1.883h0a1.883,1.883,0,0,1,1.883,1.883V73.889a1.874,1.874,0,0,1-1.883,1.874Z" transform="translate(-318.93 -58.87)" fill="#fff" stroke="#263238" stroke-linecap="round" stroke-miterlimit="10" stroke-width="1"/>
      <path id="Trazado_112806" data-name="Trazado 112806" d="M429.173,75.763h0a1.874,1.874,0,0,1-1.883-1.874V60.753a1.883,1.883,0,0,1,1.883-1.883h0a1.874,1.874,0,0,1,1.874,1.883V73.889a1.866,1.866,0,0,1-1.874,1.874Z" transform="translate(-320.315 -58.87)" fill="#fff" stroke="#263238" stroke-linecap="round" stroke-miterlimit="10" stroke-width="1"/>
      <path id="Trazado_112807" data-name="Trazado 112807" d="M438.064,75.763h0a1.866,1.866,0,0,1-1.874-1.874V60.753a1.874,1.874,0,0,1,1.874-1.883h0a1.874,1.874,0,0,1,1.874,1.883V73.889a1.866,1.866,0,0,1-1.874,1.874Z" transform="translate(-321.701 -58.87)" fill="#fff" stroke="#263238" stroke-linecap="round" stroke-miterlimit="10" stroke-width="1"/>
    </g>
    <g id="freepik--Money--inject-21" transform="translate(13.138 38.182)">
      <rect id="Rectángulo_28782" data-name="Rectángulo 28782" width="100.854" height="188.842" transform="translate(96.597)" fill="#fff" stroke="#263238" stroke-linecap="round" stroke-miterlimit="10" stroke-width="1"/>
      <path id="Trazado_112808" data-name="Trazado 112808" d="M141.86,61.816a7.406,7.406,0,0,1-.76,0v147.49a5.575,5.575,0,0,1,.76,0A7.362,7.362,0,0,1,149,218.694h63.065a7.362,7.362,0,0,1,7.109-9.4V61.816a7.4,7.4,0,0,1-7.4-7.4H149.306a7.4,7.4,0,0,1-7.446,7.4ZM180.121,109.3a27.276,27.276,0,1,0,.034,0Z" transform="translate(-33.131 -42.119)" fill="#eaccb2" stroke="#263238" stroke-linecap="round" stroke-miterlimit="10" stroke-width="1"/>
      <rect id="Rectángulo_28783" data-name="Rectángulo 28783" width="100.854" height="188.842" transform="translate(49.856 32.69) rotate(-15.77)" fill="#fff" stroke="#263238" stroke-linecap="round" stroke-miterlimit="10" stroke-width="1"/>
      <path id="Trazado_112809" data-name="Trazado 112809" d="M92.343,92.289c-.253.068-.5.118-.743.169l40.093,141.969a6.672,6.672,0,0,1,.726-.245,7.4,7.4,0,0,1,9.126,5.066,7.6,7.6,0,0,1,.27,2.009l60.718-17.1a7.227,7.227,0,0,1-.844-1.857,7.4,7.4,0,0,1,5.108-9.126L166.721,71.276A7.387,7.387,0,0,1,157.6,66.21L97.442,83.163a7.4,7.4,0,0,1-5.1,9.126Zm49.726,35.3a27.235,27.235,0,1,1-18.81,33.61,27.235,27.235,0,0,1,18.81-33.61Z" transform="translate(-25.421 -43.956)" fill="#eaccb2" stroke="#263238" stroke-linecap="round" stroke-miterlimit="10" stroke-width="1"/>
      <rect id="Rectángulo_28784" data-name="Rectángulo 28784" width="100.854" height="188.842" transform="translate(24.68 60.69) rotate(-26.17)" fill="#fff" stroke="#263238" stroke-linecap="round" stroke-miterlimit="10" stroke-width="1"/>
      <path id="Trazado_112810" data-name="Trazado 112810" d="M65.531,119.417a7.317,7.317,0,0,1-.7.3l65.066,132.4c.211-.127.439-.253.667-.363a7.387,7.387,0,0,1,9.895,3.377,7.151,7.151,0,0,1,.633,1.925l56.565-27.81a7.843,7.843,0,0,1-1.14-1.689,7.4,7.4,0,0,1,3.377-9.895L134.9,85.377A7.4,7.4,0,0,1,125,82L68.908,109.523a7.379,7.379,0,0,1-3.377,9.895Zm55.29,25.75a27.235,27.235,0,1,1-12.436,36.455,27.235,27.235,0,0,1,12.436-36.455Z" transform="translate(-21.252 -46.415)" fill="#eaccb2" stroke="#263238" stroke-linecap="round" stroke-miterlimit="10" stroke-width="1"/>
      <rect id="Rectángulo_28785" data-name="Rectángulo 28785" width="100.854" height="188.842" transform="translate(0 103.592) rotate(-39.84)" fill="#fff" stroke="#263238" stroke-linecap="round" stroke-miterlimit="10" stroke-width="1"/>
      <path id="Trazado_112811" data-name="Trazado 112811" d="M39.108,161.911a5.183,5.183,0,0,1-.608.456L133.056,275.64a5.512,5.512,0,0,1,.557-.523,7.4,7.4,0,0,1,11.482,2.659l48.418-40.406a7.117,7.117,0,0,1-1.5-1.359,7.387,7.387,0,0,1,.946-10.41L98.45,112.4a7.4,7.4,0,0,1-10.418-.946L40.045,151.493A7.4,7.4,0,0,1,39.108,161.911Zm59.807,11.946a27.236,27.236,0,1,1-3.461,38.363,27.236,27.236,0,0,1,3.461-38.363Z" transform="translate(-17.151 -51.002)" fill="#eaccb2" stroke="#263238" stroke-linecap="round" stroke-miterlimit="10" stroke-width="1"/>
    </g>
    <g id="freepik--Calculator--inject-21" transform="translate(12.732 162.013)">
      <path id="Trazado_112812" data-name="Trazado 112812" d="M88.823,189.155,55.171,218.493l-5.065,4.424L16.42,252.254a11.744,11.744,0,0,0-.76,16.3l30.57,31.989,77.831,89.313a9.734,9.734,0,0,0,13.728.937l31.136-27.134,8.578-7.472,31.136-27.134a10.781,10.781,0,0,0,1-14.521l-77.84-89.313-27.514-34.614a10.73,10.73,0,0,0-15.458-1.452Z" transform="translate(-12.732 -186.526)" fill="#fff" stroke="#263238" stroke-miterlimit="10" stroke-width="1"/>
      <path id="Trazado_112813" data-name="Trazado 112813" d="M128.132,228.812l-25.691-32.267a6.585,6.585,0,0,0-9.472-.844L22.424,257.111a6.577,6.577,0,0,0-.431,9.506l28.493,29.861Z" transform="translate(-13.89 -187.702)" fill="#263238" stroke="#263238" stroke-miterlimit="10" stroke-width="1"/>
      <rect id="Rectángulo_28786" data-name="Rectángulo 28786" width="95.231" height="32.208" transform="matrix(0.754, -0.657, 0.657, 0.754, 14.779, 78.186)" fill="#696969"/>
      <rect id="Rectángulo_28787" data-name="Rectángulo 28787" width="85.835" height="22.812" transform="matrix(0.754, -0.657, 0.657, 0.754, 21.408, 78.635)" fill="#c2c2c2"/>
      <rect id="Rectángulo_28788" data-name="Rectángulo 28788" width="48.055" height="14.099" rx="4.97" transform="matrix(0.754, -0.657, 0.657, 0.754, 48.072, 116.132)" fill="#696969" stroke="#263238" stroke-miterlimit="10" stroke-width="1"/>
      <line id="Línea_826" data-name="Línea 826" x2="9.152" y2="10.502" transform="translate(55.811 109.612)" fill="none" stroke="#263238" stroke-miterlimit="10" stroke-width="1"/>
      <line id="Línea_827" data-name="Línea 827" x2="9.152" y2="10.502" transform="translate(63.114 103.247)" fill="none" stroke="#263238" stroke-miterlimit="10" stroke-width="1"/>
      <line id="Línea_828" data-name="Línea 828" x2="9.152" y2="10.502" transform="translate(70.425 96.881)" fill="none" stroke="#263238" stroke-miterlimit="10" stroke-width="1"/>
      <line id="Línea_829" data-name="Línea 829" x2="9.152" y2="10.502" transform="translate(77.728 90.516)" fill="none" stroke="#263238" stroke-miterlimit="10" stroke-width="1"/>
      <path id="Trazado_112814" data-name="Trazado 112814" d="M3.9,0h9.287A3.909,3.909,0,0,1,17.1,3.909V7.168a3.909,3.909,0,0,1-3.909,3.909H3.9A3.9,3.9,0,0,1,0,7.176V3.917A3.909,3.909,0,0,1,3.909.008Z" transform="matrix(0.754, -0.657, 0.657, 0.754, 98.621, 82.36)" fill="#c2c2c2" stroke="#263238" stroke-miterlimit="10" stroke-width="1"/>
      <rect id="Rectángulo_28789" data-name="Rectángulo 28789" width="17.096" height="13.035" rx="4.62" transform="matrix(0.754, -0.657, 0.657, 0.754, 63.418, 133.305)" fill="#c2c2c2" stroke="#263238" stroke-miterlimit="10" stroke-width="1"/>
      <path id="Trazado_112815" data-name="Trazado 112815" d="M3.9,0h9.287A3.909,3.909,0,0,1,17.1,3.909V9.135a3.909,3.909,0,0,1-3.909,3.909H3.9A3.9,3.9,0,0,1,0,9.143V3.917A3.9,3.9,0,0,1,3.9.017Z" transform="matrix(0.754, -0.657, 0.657, 0.754, 78.558, 120.118)" fill="#c2c2c2" stroke="#263238" stroke-miterlimit="10" stroke-width="1"/>
      <path id="Trazado_112816" data-name="Trazado 112816" d="M3.909,0H13.2A3.909,3.909,0,0,1,17.1,3.909V9.135A3.909,3.909,0,0,1,13.2,13.044H3.909A3.909,3.909,0,0,1,0,9.135V3.909A3.9,3.9,0,0,1,3.9.008Z" transform="matrix(0.754, -0.657, 0.657, 0.754, 93.635, 106.975)" fill="#c2c2c2" stroke="#263238" stroke-miterlimit="10" stroke-width="1"/>
      <path id="Trazado_112817" data-name="Trazado 112817" d="M3.909.017H13.2a3.9,3.9,0,0,1,3.9,3.9V9.143a3.9,3.9,0,0,1-3.9,3.9H3.909A3.909,3.909,0,0,1,0,9.135V3.909A3.909,3.909,0,0,1,3.909,0Z" transform="matrix(0.754, -0.657, 0.657, 0.754, 108.726, 93.796)" fill="#c2c2c2" stroke="#263238" stroke-miterlimit="10" stroke-width="1"/>
      <path id="Trazado_112818" data-name="Trazado 112818" d="M3.909,0H13.2a3.9,3.9,0,0,1,3.9,3.9V9.126a3.909,3.909,0,0,1-3.909,3.909H3.9A3.9,3.9,0,0,1,0,9.135V3.909A3.909,3.909,0,0,1,3.909,0Z" transform="matrix(0.754, -0.657, 0.657, 0.754, 123.852, 80.636)" fill="#c2c2c2" stroke="#263238" stroke-miterlimit="10" stroke-width="1"/>
      <path id="Trazado_112819" data-name="Trazado 112819" d="M3.909,0H13.2a3.9,3.9,0,0,1,3.9,3.9V9.126a3.909,3.909,0,0,1-3.909,3.909H3.9A3.9,3.9,0,0,1,0,9.135V3.909A3.909,3.909,0,0,1,3.909,0Z" transform="matrix(0.754, -0.657, 0.657, 0.754, 74.926, 146.515)" fill="#c2c2c2" stroke="#263238" stroke-miterlimit="10" stroke-width="1"/>
      <path id="Trazado_112820" data-name="Trazado 112820" d="M3.909,0H13.2a3.9,3.9,0,0,1,3.9,3.9V9.126a3.909,3.909,0,0,1-3.909,3.909H3.9A3.9,3.9,0,0,1,0,9.135V3.909A3.909,3.909,0,0,1,3.909,0Z" transform="matrix(0.754, -0.657, 0.657, 0.754, 90.041, 133.341)" fill="#696969" stroke="#263238" stroke-miterlimit="10" stroke-width="1"/>
      <path id="Trazado_112821" data-name="Trazado 112821" d="M3.9,0h9.287A3.909,3.909,0,0,1,17.1,3.909V9.135a3.9,3.9,0,0,1-3.9,3.9H3.909A3.909,3.909,0,0,1,0,9.126V3.9A3.9,3.9,0,0,1,3.9,0Z" transform="matrix(0.754, -0.657, 0.657, 0.754, 105.149, 120.17)" fill="#696969" stroke="#263238" stroke-miterlimit="10" stroke-width="1"/>
      <rect id="Rectángulo_28790" data-name="Rectángulo 28790" width="17.096" height="13.035" rx="4.62" transform="matrix(0.754, -0.657, 0.657, 0.754, 120.257, 107.011)" fill="#696969" stroke="#263238" stroke-miterlimit="10" stroke-width="1"/>
      <rect id="Rectángulo_28791" data-name="Rectángulo 28791" width="17.096" height="13.035" rx="4.63" transform="matrix(0.754, -0.657, 0.657, 0.754, 135.36, 93.846)" fill="#c2c2c2" stroke="#263238" stroke-miterlimit="10" stroke-width="1"/>
      <path id="Trazado_112822" data-name="Trazado 112822" d="M3.909.008H13.2a3.9,3.9,0,0,1,3.9,3.9V9.135a3.9,3.9,0,0,1-3.9,3.9H3.909A3.909,3.909,0,0,1,0,9.126V3.9A3.9,3.9,0,0,1,3.9,0Z" transform="matrix(0.754, -0.657, 0.657, 0.754, 86.429, 159.709)" fill="#c2c2c2" stroke="#263238" stroke-miterlimit="10" stroke-width="1"/>
      <path id="Trazado_112823" data-name="Trazado 112823" d="M3.909.008H13.2a3.9,3.9,0,0,1,3.9,3.9V9.135a3.9,3.9,0,0,1-3.9,3.9H3.909A3.909,3.909,0,0,1,0,9.126V3.9A3.9,3.9,0,0,1,3.9,0Z" transform="matrix(0.754, -0.657, 0.657, 0.754, 101.543, 146.545)" fill="#696969" stroke="#263238" stroke-miterlimit="10" stroke-width="1"/>
      <path id="Trazado_112824" data-name="Trazado 112824" d="M3.909.017H13.2a3.9,3.9,0,0,1,3.9,3.9V9.143a3.9,3.9,0,0,1-3.9,3.9H3.909A3.909,3.909,0,0,1,0,9.135V3.909A3.909,3.909,0,0,1,3.909,0Z" transform="matrix(0.754, -0.657, 0.657, 0.754, 116.64, 133.373)" fill="#696969" stroke="#263238" stroke-miterlimit="10" stroke-width="1"/>
      <path id="Trazado_112825" data-name="Trazado 112825" d="M3.9,0h9.287A3.909,3.909,0,0,1,17.1,3.909V9.135a3.909,3.909,0,0,1-3.909,3.909H3.9A3.9,3.9,0,0,1,0,9.143V3.926A3.9,3.9,0,0,1,3.9,0Z" transform="matrix(0.754, -0.657, 0.657, 0.754, 131.759, 120.226)" fill="#696969" stroke="#263238" stroke-miterlimit="10" stroke-width="1"/>
      <path id="Trazado_112826" data-name="Trazado 112826" d="M3.917,0H13.2a3.9,3.9,0,0,1,3.9,3.9V9.126A3.909,3.909,0,0,1,13.2,13.035H3.909A3.909,3.909,0,0,1,0,9.126V3.9A3.9,3.9,0,0,1,3.9,0Z" transform="matrix(0.754, -0.657, 0.657, 0.754, 146.861, 107.061)" fill="#c2c2c2" stroke="#263238" stroke-miterlimit="10" stroke-width="1"/>
      <path id="Trazado_112827" data-name="Trazado 112827" d="M3.909,0H13.2a3.9,3.9,0,0,1,3.9,3.9V9.126a3.909,3.909,0,0,1-3.909,3.909H3.909A3.909,3.909,0,0,1,0,9.126V3.9A3.9,3.9,0,0,1,3.909,0Z" transform="matrix(0.754, -0.657, 0.657, 0.754, 97.973, 172.909)" fill="#6595bf" stroke="#263238" stroke-linecap="round" stroke-miterlimit="10" stroke-width="1"/>
      <path id="Trazado_112828" data-name="Trazado 112828" d="M3.9,0h9.287A3.909,3.909,0,0,1,17.1,3.909V9.135a3.909,3.909,0,0,1-3.909,3.909H3.9A3.9,3.9,0,0,1,0,9.143V3.917A3.9,3.9,0,0,1,3.9,0Z" transform="matrix(0.754, -0.657, 0.657, 0.754, 113.063, 159.755)" fill="#696969" stroke="#263238" stroke-miterlimit="10" stroke-width="1"/>
      <rect id="Rectángulo_28792" data-name="Rectángulo 28792" width="17.096" height="13.035" rx="4.63" transform="matrix(0.75, -0.66, 0.66, 0.75, 128.516, 145.009)" fill="#696969" stroke="#263238" stroke-miterlimit="10" stroke-width="1"/>
      <rect id="Rectángulo_28793" data-name="Rectángulo 28793" width="17.096" height="13.035" rx="4.62" transform="matrix(0.754, -0.657, 0.657, 0.754, 143.273, 133.43)" fill="#696969" stroke="#263238" stroke-miterlimit="10" stroke-width="1"/>
      <path id="Trazado_112829" data-name="Trazado 112829" d="M3.909.042H13.2a3.9,3.9,0,0,1,3.9,3.9V9.169a3.9,3.9,0,0,1-3.9,3.9H3.909A3.909,3.909,0,0,1,0,9.16V3.909A3.909,3.909,0,0,1,3.909,0Z" transform="matrix(0.754, -0.657, 0.657, 0.754, 109.426, 186.104)" fill="#6595bf" stroke="#263238" stroke-linecap="round" stroke-miterlimit="10" stroke-width="1"/>
      <path id="Trazado_112830" data-name="Trazado 112830" d="M3.909,0H13.2A3.909,3.909,0,0,1,17.1,3.909V9.135A3.909,3.909,0,0,1,13.2,13.044H3.909A3.909,3.909,0,0,1,0,9.135V3.909A3.9,3.9,0,0,1,3.909,0Z" transform="matrix(0.754, -0.657, 0.657, 0.754, 124.556, 172.962)" fill="#696969" stroke="#263238" stroke-miterlimit="10" stroke-width="1"/>
      <path id="Trazado_112831" data-name="Trazado 112831" d="M3.909,0H13.2A3.909,3.909,0,0,1,17.1,3.909V9.093A3.909,3.909,0,0,1,13.2,13H3.909A3.909,3.909,0,0,1,0,9.093V3.867A3.9,3.9,0,0,1,3.909,0Z" transform="matrix(0.754, -0.657, 0.657, 0.754, 139.67, 159.797)" fill="#696969" stroke="#263238" stroke-miterlimit="10" stroke-width="1"/>
      <path id="Trazado_112832" data-name="Trazado 112832" d="M3.909,0H13.2a3.9,3.9,0,0,1,3.9,3.9V9.126a3.909,3.909,0,0,1-3.909,3.909H3.9A3.9,3.9,0,0,1,0,9.135V3.909A3.9,3.9,0,0,1,3.9.008Z" transform="matrix(0.754, -0.657, 0.657, 0.754, 154.781, 146.631)" fill="#c2c2c2" stroke="#263238" stroke-miterlimit="10" stroke-width="1"/>
      <path id="Trazado_112833" data-name="Trazado 112833" d="M211.47,317.545l-8.983,7.826a2.592,2.592,0,0,0-.245,3.656l2.389,2.752,2.761,3.166,11.516,13.2a2.592,2.592,0,0,0,3.656.253l8.983-7.826a2.592,2.592,0,0,0,.245-3.656l-11.507-13.179-2.761-3.166-2.4-2.744a2.592,2.592,0,0,0-3.656-.287Z" transform="translate(-42.149 -206.835)" fill="#c2c2c2" stroke="#263238" stroke-miterlimit="10" stroke-width="1"/>
      <path id="Trazado_112834" data-name="Trazado 112834" d="M3.9,0h9.287A3.909,3.909,0,0,1,17.1,3.909V7.168a3.9,3.9,0,0,1-3.9,3.9H3.9A3.9,3.9,0,0,1,0,7.168V3.909A3.909,3.909,0,0,1,3.9,0Z" transform="matrix(0.754, -0.657, 0.657, 0.754, 113.831, 69.12)" fill="#6595bf" stroke="#263238" stroke-linecap="round" stroke-miterlimit="10" stroke-width="1"/>
      <path id="Trazado_112835" data-name="Trazado 112835" d="M156.375,272.029a3.841,3.841,0,0,1-3.065-3.5,3.107,3.107,0,0,1,3.242-2.828,3.85,3.85,0,0,1,3.056,3.512A3.09,3.09,0,0,1,156.375,272.029Zm2.4-2.761a3.428,3.428,0,0,0-2.4-2.752,1.984,1.984,0,0,0-2.229,1.967,2.912,2.912,0,0,0,.8,1.688,2.845,2.845,0,0,0,1.6,1.03,1.8,1.8,0,0,0,1.553-.473,1.764,1.764,0,0,0,.675-1.461Z" transform="translate(-34.627 -198.855)" fill="#fff"/>
      <path id="Trazado_112836" data-name="Trazado 112836" d="M162.532,267.324a.338.338,0,0,1-.279-.135l-3.445-3.951a.608.608,0,0,1-.169-.405.507.507,0,0,1,.169-.346.641.641,0,0,1,.3-.135.726.726,0,0,1,.38,0l5.369,1.393-2.989-3.428a.346.346,0,0,1-.093-.287.388.388,0,0,1,.144-.27.5.5,0,0,1,.279-.11.346.346,0,0,1,.279.135l3.453,3.96a.557.557,0,0,1,.152.405.54.54,0,0,1-.186.363.726.726,0,0,1-.279.144.684.684,0,0,1-.321,0l-5.4-1.385,2.955,3.377a.372.372,0,0,1,.093.3.464.464,0,0,1-.152.27.439.439,0,0,1-.253.11Z" transform="translate(-35.457 -197.915)" fill="#fff"/>
      <path id="Trazado_112837" data-name="Trazado 112837" d="M99.374,348.059a.709.709,0,0,1-.363-.068l-4.5-2.094,3.1,3.563a.262.262,0,0,1,.068.245.541.541,0,0,1-.16.253.566.566,0,0,1-.27.127.287.287,0,0,1-.245-.1l-3.377-3.867a.532.532,0,0,1-.127-.447.692.692,0,0,1,.236-.431.709.709,0,0,1,.4-.169.844.844,0,0,1,.481.084l4.356,2-1.385-4.584a.8.8,0,0,1,.194-.844.768.768,0,0,1,.464-.177.54.54,0,0,1,.431.186l3.377,3.875a.245.245,0,0,1,.059.253.464.464,0,0,1-.16.245.566.566,0,0,1-.27.127.27.27,0,0,1-.236-.1l-3.1-3.554,1.452,4.745a.6.6,0,0,1,0,.363.507.507,0,0,1-.152.27.549.549,0,0,1-.27.1Z" transform="translate(-25.31 -210.671)" fill="#fff"/>
      <path id="Trazado_112838" data-name="Trazado 112838" d="M105.316,343.148a2.718,2.718,0,0,1-1.486-.211,3.706,3.706,0,0,1-1.309-1,3.9,3.9,0,0,1-.667-1.072,3.157,3.157,0,0,1-.245-1.148,2.533,2.533,0,0,1,.253-1.123,2.887,2.887,0,0,1,.768-1,3.09,3.09,0,0,1,1.444-.726.312.312,0,0,1,.338.1.321.321,0,0,1,.084.245.287.287,0,0,1-.1.228.445.445,0,0,1-.127.068h-.118l-.152.051-.177.059-.211.1-.236.144-.262.211a2.154,2.154,0,0,0-.49.6,1.562,1.562,0,0,0-.194.65,2.009,2.009,0,0,0,.059.667,2.533,2.533,0,0,0,.27.675,4.94,4.94,0,0,0,.456.633,4.15,4.15,0,0,0,.566.532,2.737,2.737,0,0,0,.625.363,2,2,0,0,0,.65.143,1.613,1.613,0,0,0,.675-.118,2.06,2.06,0,0,0,.675-.414,2.01,2.01,0,0,0,.439-.515,4.45,4.45,0,0,0,.279-.633.516.516,0,0,1,.093-.152.329.329,0,0,1,.464.042.38.38,0,0,1,.059.4,3.022,3.022,0,0,1-.971,1.477,2.812,2.812,0,0,1-1.452.726Z" transform="translate(-26.575 -209.939)" fill="#fff"/>
      <path id="Trazado_112839" data-name="Trazado 112839" d="M154.4,408.237l-2.246,1.959.481,1.325a.4.4,0,0,1-.118.481.481.481,0,0,1-.3.118.329.329,0,0,1-.279-.118.464.464,0,0,1-.084-.144l-1.807-5.209a1.081,1.081,0,0,1-.076-.574.684.684,0,0,1,.245-.371.76.76,0,0,1,.4-.194,1.156,1.156,0,0,1,.557.16l4.914,2.533a.626.626,0,0,1,.135.1.363.363,0,0,1,.076.3.515.515,0,0,1-.16.279.405.405,0,0,1-.49.051Zm-3.639-1.908,1.165,3.225,1.874-1.629Z" transform="translate(-34.107 -220.633)" fill="#fff"/>
      <path id="Trazado_112840" data-name="Trazado 112840" d="M158.595,406a2.668,2.668,0,0,1-1.494-.2,3.782,3.782,0,0,1-1.3-1,3.672,3.672,0,0,1-.675-1.081,3.251,3.251,0,0,1-.245-1.14,2.719,2.719,0,0,1,.253-1.131,2.963,2.963,0,0,1,.768-1,3.149,3.149,0,0,1,1.444-.718.321.321,0,0,1,.338.093.346.346,0,0,1,.093.253.329.329,0,0,1-.11.228.447.447,0,0,1-.127.068h-.118l-.152.042-.177.068-.211.1a1.934,1.934,0,0,0-.228.144l-.27.211a2.043,2.043,0,0,0-.49.6,1.689,1.689,0,0,0-.194.65,2.026,2.026,0,0,0,.059.667,2.837,2.837,0,0,0,.27.667,4.475,4.475,0,0,0,.456.642,4.713,4.713,0,0,0,.566.532,2.575,2.575,0,0,0,.625.355,1.866,1.866,0,0,0,.65.152,1.756,1.756,0,0,0,.675-.118,2.212,2.212,0,0,0,.675-.414,2.043,2.043,0,0,0,.439-.523,4.519,4.519,0,0,0,.287-.633.287.287,0,0,1,.093-.144.3.3,0,0,1,.236-.076.338.338,0,0,1,.228.118.422.422,0,0,1,.059.4,3.081,3.081,0,0,1-.979,1.477,2.8,2.8,0,0,1-1.444.718Z" transform="translate(-34.872 -219.73)" fill="#fff"/>
      <path id="Trazado_112841" data-name="Trazado 112841" d="M141.776,392.888a2.685,2.685,0,0,1-1.494-.211,3.681,3.681,0,0,1-1.3-1,3.816,3.816,0,0,1-.675-1.072,3.326,3.326,0,0,1-.236-1.148,2.533,2.533,0,0,1,.245-1.123,2.988,2.988,0,0,1,.768-1,3.166,3.166,0,0,1,1.444-.726.321.321,0,0,1,.346.1.363.363,0,0,1,.084.245.287.287,0,0,1-.1.228.4.4,0,0,1-.135.068h-.11a.627.627,0,0,0-.16,0l-.169.059-.219.1-.228.152a1.974,1.974,0,0,0-.262.2,2.127,2.127,0,0,0-.49.6,1.613,1.613,0,0,0-.2.65,2.338,2.338,0,0,0,.059.675,2.668,2.668,0,0,0,.279.667,3.705,3.705,0,0,0,.456.633,3.378,3.378,0,0,0,.566.532,2.685,2.685,0,0,0,.616.363,2.052,2.052,0,0,0,.659.144,1.63,1.63,0,0,0,.675-.118,2.026,2.026,0,0,0,.667-.414,2.061,2.061,0,0,0,.447-.515,3.728,3.728,0,0,0,.279-.633.3.3,0,0,1,.093-.143.312.312,0,0,1,.236-.076.329.329,0,0,1,.228.11.405.405,0,0,1,.059.4,3.039,3.039,0,0,1-.979,1.477,2.82,2.82,0,0,1-1.444.777Z" transform="translate(-32.254 -217.686)" fill="#fff"/>
      <path id="Trazado_112842" data-name="Trazado 112842" d="M110.937,361.166a2.043,2.043,0,0,1-1.587-1.832,1.342,1.342,0,0,1,.49-1.072,1.561,1.561,0,0,1,.6-.329,1.351,1.351,0,0,1,.608,0,1.865,1.865,0,0,1,.549.236,1.975,1.975,0,0,1,.473.405,1.79,1.79,0,0,1,.49,1.174,1.309,1.309,0,0,1-.5,1.072,1.351,1.351,0,0,1-1.123.346Zm1.055-1.173a.844.844,0,0,0-.084-.507,2.077,2.077,0,0,0-.329-.49,1.893,1.893,0,0,0-.439-.4,1.013,1.013,0,0,0-.49-.152.7.7,0,0,0-.481.186.692.692,0,0,0-.253.456.929.929,0,0,0,.084.5,2.077,2.077,0,0,0,.329.49,1.916,1.916,0,0,0,.447.4.844.844,0,0,0,.49.152.726.726,0,0,0,.726-.633Zm2.068,3.014a.219.219,0,0,1-.177-.076.321.321,0,0,1-.059-.152l-1.385-6.754a.3.3,0,0,1,.076-.3.27.27,0,0,1,.186-.059.262.262,0,0,1,.169.093.346.346,0,0,1,.076.169l1.368,6.712a.262.262,0,0,1-.068.279.279.279,0,0,1-.186.084Zm1.908-2.423a1.849,1.849,0,0,1-1.1-.659,1.8,1.8,0,0,1-.481-1.165,1.325,1.325,0,0,1,.49-1.072,1.528,1.528,0,0,1,.591-.329,1.241,1.241,0,0,1,.608,0,1.747,1.747,0,0,1,.549.236,1.941,1.941,0,0,1,.473.405,2.043,2.043,0,0,1,.431.751,1.494,1.494,0,0,1,0,.794,1.435,1.435,0,0,1-.447.7,1.342,1.342,0,0,1-1.114.338Zm1.055-1.174a.929.929,0,0,0-.084-.5,2.3,2.3,0,0,0-.329-.5,2.7,2.7,0,0,0-.329-.3,1.483,1.483,0,0,0-.355-.2.692.692,0,0,0-.371,0,.785.785,0,0,0-.355.177.659.659,0,0,0-.253.456.979.979,0,0,0,.084.507,2.262,2.262,0,0,0,.329.49,2.077,2.077,0,0,0,.447.388.912.912,0,0,0,.481.16.709.709,0,0,0,.49-.194.667.667,0,0,0,.245-.481Z" transform="translate(-27.78 -212.87)" fill="#fff"/>
      <path id="Trazado_112843" data-name="Trazado 112843" d="M133.129,346.05a.355.355,0,0,1-.3-.127.523.523,0,0,1-.084-.169l-1.6-5.066-2.153,1.883a.372.372,0,0,1-.262.093.346.346,0,0,1-.228-.127.329.329,0,0,1-.093-.245.321.321,0,0,1,.127-.245l2.533-2.187a.549.549,0,0,1,.346-.152.371.371,0,0,1,.287.144.921.921,0,0,1,.194.329l1.689,5.336a.371.371,0,0,1-.118.422.439.439,0,0,1-.338.11Z" transform="translate(-30.749 -210.384)" fill="#fff"/>
      <path id="Trazado_112844" data-name="Trazado 112844" d="M151,330.626a1.739,1.739,0,0,1-.971.051,1.721,1.721,0,0,1-1.258-1.5,1.461,1.461,0,0,1,.329-1.013,1.444,1.444,0,0,1-.979.177,1.5,1.5,0,0,1-.844-.507,1.486,1.486,0,0,1-.388-.844,1.688,1.688,0,0,1,.177-.912,2.9,2.9,0,0,1,.659-.844,3.183,3.183,0,0,1,.667-.447,2.441,2.441,0,0,1,.692-.194,1.443,1.443,0,0,1,.675.11,1.639,1.639,0,0,1,.6.439,1.435,1.435,0,0,1,.38.844,1.46,1.46,0,0,1-.3.929,1.621,1.621,0,0,1,1.055-.177,1.6,1.6,0,0,1,.886.54,1.689,1.689,0,0,1,.414.912,1.807,1.807,0,0,1-.186.954,2.862,2.862,0,0,1-.692.844A2.964,2.964,0,0,1,151,330.626Zm1.03-1.866a.971.971,0,0,0-.27-.844,1.064,1.064,0,0,0-.844-.422,1.486,1.486,0,0,0-1.368,1.19,1.1,1.1,0,0,0,.3.9,1.064,1.064,0,0,0,.54.346.98.98,0,0,0,.583,0,1.969,1.969,0,0,0,.557-.338,1.477,1.477,0,0,0,.523-.836Zm-2.009-2.279a.937.937,0,0,0-.27-.794.844.844,0,0,0-.76-.355,1.5,1.5,0,0,0-.844.388,1.9,1.9,0,0,0-.3.338,1.561,1.561,0,0,0-.177.38.9.9,0,0,0,0,.422,1.03,1.03,0,0,0,.236.414.92.92,0,0,0,.751.371,1.376,1.376,0,0,0,.844-.38,1.41,1.41,0,0,0,.523-.785Z" transform="translate(-33.626 -208.029)" fill="#fff"/>
      <path id="Trazado_112845" data-name="Trazado 112845" d="M167.887,315.769a.3.3,0,0,1-.3-.1.431.431,0,0,1-.11-.27.287.287,0,0,1,.084-.236l.1-.051a2.609,2.609,0,0,0,1-.523,2.178,2.178,0,0,0,.355-.4,1.477,1.477,0,0,0,.177-.4,1.165,1.165,0,0,0,0-.422,1.833,1.833,0,0,0-.11-.422,2.355,2.355,0,0,0-.22-.439c-.093-.152-.2-.3-.3-.447a5.377,5.377,0,0,0-.388-.456,1.148,1.148,0,0,1,0,.844,1.689,1.689,0,0,1-.566.844,1.874,1.874,0,0,1-1.435.523,1.942,1.942,0,0,1-1.334-.718,2,2,0,0,1-.54-1.486,2.027,2.027,0,0,1,.768-1.427,2.3,2.3,0,0,1,.785-.481,1.8,1.8,0,0,1,.768-.118,2,2,0,0,1,.726.2,2.928,2.928,0,0,1,.675.422,5.105,5.105,0,0,1,.616.6c.16.186.312.371.439.549a5.512,5.512,0,0,1,.388.591,4.222,4.222,0,0,1,.3.625,2.644,2.644,0,0,1,.152.642,2.178,2.178,0,0,1,0,.667,2.085,2.085,0,0,1-.279.642,2.888,2.888,0,0,1-.549.633A2.989,2.989,0,0,1,167.887,315.769Zm-.068-3.968a1.419,1.419,0,0,0-.4-1.022,1.4,1.4,0,0,0-.844-.5,1.173,1.173,0,0,0-.962.321,1.207,1.207,0,0,0-.473.9,1.41,1.41,0,0,0,.4.962,1.5,1.5,0,0,0,.844.54,1.081,1.081,0,0,0,.929-.3,1.317,1.317,0,0,0,.507-.9Z" transform="translate(-36.338 -205.692)" fill="#fff"/>
      <path id="Trazado_112846" data-name="Trazado 112846" d="M148.1,360.258a.371.371,0,0,1-.287-.135l-.625-.718-1.866,1.621a.414.414,0,0,1-.329.11.473.473,0,0,1-.3-.16.507.507,0,0,1-.118-.253l-.659-4.356a.844.844,0,0,1,.262-.777.633.633,0,0,1,.431-.169.582.582,0,0,1,.431.228l2.372,2.718.473-.414a.287.287,0,0,1,.236-.076.3.3,0,0,1,.211.11.329.329,0,0,1,.084.22.3.3,0,0,1-.118.228l-.473.414.625.726a.329.329,0,0,1,.093.3.439.439,0,0,1-.152.27A.49.49,0,0,1,148.1,360.258Zm-1.334-1.334-2.187-2.533.625,3.867Z" transform="translate(-33.162 -212.831)" fill="#fff"/>
      <path id="Trazado_112847" data-name="Trazado 112847" d="M164.43,345.766a3,3,0,0,1-.971.152.228.228,0,0,1-.186-.084.4.4,0,0,1-.093-.279.329.329,0,0,1,.11-.262.177.177,0,0,1,.144-.059,2.009,2.009,0,0,0,1.385-.515,1.258,1.258,0,0,0,.5-.9,1.545,1.545,0,0,0-1.249-1.444,1.114,1.114,0,0,0-.844.3,1.521,1.521,0,0,0-.414.574,1.469,1.469,0,0,0-.144.65.22.22,0,0,1-.093.152.752.752,0,0,1-.329.16.27.27,0,0,1-.287-.051l-1.857-2.128a.363.363,0,0,1,.059-.574l2.144-1.866a.312.312,0,0,1,.245-.084.38.38,0,0,1,.22.118.329.329,0,0,1,.084.228.3.3,0,0,1-.118.228l-1.933,1.689,1.368,1.587V343.3a.718.718,0,0,1,0-.2,2.9,2.9,0,0,1,.1-.279,1.817,1.817,0,0,1,.262-.363,2.271,2.271,0,0,1,.338-.363,1.815,1.815,0,0,1,1.351-.481,2.018,2.018,0,0,1,1.334.734,1.925,1.925,0,0,1,.515,1.486,2.11,2.11,0,0,1-.785,1.41A2.777,2.777,0,0,1,164.43,345.766Z" transform="translate(-35.667 -210.353)" fill="#fff"/>
      <path id="Trazado_112848" data-name="Trazado 112848" d="M182.046,330.514a1.748,1.748,0,0,1-.76.118,2.161,2.161,0,0,1-.726-.194,3.284,3.284,0,0,1-.675-.431,5.108,5.108,0,0,1-.616-.6c-.169-.186-.312-.371-.447-.549a5.978,5.978,0,0,1-.388-.591,3.445,3.445,0,0,1-.3-.625,2.643,2.643,0,0,1-.152-.642,2.179,2.179,0,0,1,0-.667,2.052,2.052,0,0,1,.27-.642,2.938,2.938,0,0,1,.557-.633,3.014,3.014,0,0,1,1.216-.642.3.3,0,0,1,.3.1.431.431,0,0,1,.11.27.262.262,0,0,1-.093.236.144.144,0,0,1-.093.051,2.659,2.659,0,0,0-1,.523,2.179,2.179,0,0,0-.355.4,1.478,1.478,0,0,0-.177.4,1.165,1.165,0,0,0,0,.422,1.816,1.816,0,0,0,.1.422,2.445,2.445,0,0,0,.228.439,5.215,5.215,0,0,0,.3.447c.11.135.236.3.388.456a1.123,1.123,0,0,1,0-.844,1.747,1.747,0,0,1,.566-.844,1.908,1.908,0,0,1,1.435-.523,2.043,2.043,0,0,1,1.106,3.639,2.406,2.406,0,0,1-.811.507Zm-1.925-2.128a1.4,1.4,0,0,0,.4.988,1.359,1.359,0,0,0,.844.5,1.157,1.157,0,0,0,.954-.321,1.233,1.233,0,0,0,.481-.9,1.41,1.41,0,0,0-.4-.962,1.5,1.5,0,0,0-.844-.54,1.072,1.072,0,0,0-.929.3,1.3,1.3,0,0,0-.507.937Z" transform="translate(-38.467 -208.001)" fill="#fff"/>
      <path id="Trazado_112849" data-name="Trazado 112849" d="M161.316,376.888a.4.4,0,0,1-.3-.144l-3.191-3.673-.312,1.072a.311.311,0,0,1-.321.22.312.312,0,0,1-.279-.4l.515-1.689a.4.4,0,0,1,.135-.2.372.372,0,0,1,.262-.076.38.38,0,0,1,.3.152l3.521,4.035a.338.338,0,0,1,.1.321.431.431,0,0,1-.16.279.439.439,0,0,1-.27.1Z" transform="translate(-35.187 -215.413)" fill="#fff"/>
      <path id="Trazado_112850" data-name="Trazado 112850" d="M178.142,357.51a3.926,3.926,0,0,1,0,1.241l-.228,2.761,1.967-1.689a.312.312,0,0,1,.473,0,.3.3,0,0,1,.084.228.321.321,0,0,1-.127.245l-2.246,1.959a.608.608,0,0,1-.4.169.38.38,0,0,1-.321-.135.566.566,0,0,1-.127-.456l.194-3.2a2.836,2.836,0,0,0,0-.844,1.309,1.309,0,0,0-.27-.566,1.064,1.064,0,0,0-.794-.405,1.106,1.106,0,0,0-.844.3,2.649,2.649,0,0,0-.371.388,2.035,2.035,0,0,0-.194.3,2.068,2.068,0,0,0-.127.321c-.042.144-.076.236-.084.262a.228.228,0,0,1-.076.1.372.372,0,0,1-.5-.042.312.312,0,0,1-.051-.312,3.834,3.834,0,0,1,.363-.844,2.727,2.727,0,0,1,.633-.734,1.857,1.857,0,0,1,1.359-.507,1.6,1.6,0,0,1,1.216.574A1.992,1.992,0,0,1,178.142,357.51Z" transform="translate(-37.863 -212.929)" fill="#fff"/>
      <path id="Trazado_112851" data-name="Trazado 112851" d="M195.285,346.991a.371.371,0,0,1-.388-.1.329.329,0,0,1-.084-.253.3.3,0,0,1,.1-.236l.093-.051a2.794,2.794,0,0,0,1.089-.574,1.579,1.579,0,0,0,.532-.844.912.912,0,0,0-.228-.844,1.131,1.131,0,0,0-.912-.414,1.689,1.689,0,0,0-1.013.439l-.236.2a.287.287,0,0,1-.228.084.321.321,0,0,1-.211-.118.312.312,0,0,1-.084-.22.262.262,0,0,1,.1-.22l.219-.186a1.562,1.562,0,0,0,.549-.844.937.937,0,0,0-.245-.844.844.844,0,0,0-.735-.329,1.309,1.309,0,0,0-.794.338,2.912,2.912,0,0,0-.76,1.055.194.194,0,0,1-.059.084.287.287,0,0,1-.253.059.413.413,0,0,1-.253-.135.278.278,0,0,1-.059-.287,2.465,2.465,0,0,1,.338-.625,3.631,3.631,0,0,1,.6-.684,2.533,2.533,0,0,1,.844-.532,1.562,1.562,0,0,1,.92-.051,1.528,1.528,0,0,1,.844.523,1.317,1.317,0,0,1,.355.844,1.621,1.621,0,0,1-.236.844,1.528,1.528,0,0,1,1.03-.152,1.689,1.689,0,0,1,.92.566,1.815,1.815,0,0,1,.38.709,1.511,1.511,0,0,1,0,.726,2.388,2.388,0,0,1-.312.667,2.692,2.692,0,0,1-.532.6,3.107,3.107,0,0,1-1.292.8Z" transform="translate(-40.561 -210.556)" fill="#fff"/>
      <path id="Trazado_112852" data-name="Trazado 112852" d="M173.707,392.481a1.689,1.689,0,0,1-.777.059,2.422,2.422,0,0,1-.768-.279,3.989,3.989,0,0,1-.726-.507,6.651,6.651,0,0,1-.684-.692q-2.1-2.406-.456-3.841c1.1-.954,2.339-.625,3.74.979a7.514,7.514,0,0,1,.591.768,4.316,4.316,0,0,1,.405.785,2.625,2.625,0,0,1,.169.794,1.8,1.8,0,0,1-.16.768,2.271,2.271,0,0,1-1.334,1.165Zm.591-1.325a1.064,1.064,0,0,0,.1-.38,1.772,1.772,0,0,0-.051-.405,2.213,2.213,0,0,0-.16-.414,3.6,3.6,0,0,0-.236-.414c-.1-.144-.194-.279-.287-.388l-.3-.363-.329-.371-.363-.338a2.7,2.7,0,0,0-.371-.3,2.121,2.121,0,0,0-.388-.2,1.148,1.148,0,0,0-.388-.1.9.9,0,0,0-.388.051,1.131,1.131,0,0,0-.371.22,1.106,1.106,0,0,0-.27.338.794.794,0,0,0-.1.371,1.148,1.148,0,0,0,.042.405,1.689,1.689,0,0,0,.152.405,2.779,2.779,0,0,0,.245.414,4.22,4.22,0,0,0,.287.405l.312.38.329.355.346.329a3.75,3.75,0,0,0,.38.3,2.712,2.712,0,0,0,.38.2,1.285,1.285,0,0,0,.4.11,1.046,1.046,0,0,0,.388-.051.971.971,0,0,0,.38-.219,1.046,1.046,0,0,0,.27-.329Z" transform="translate(-37.16 -217.701)" fill="#fff"/>
      <path id="Trazado_112853" data-name="Trazado 112853" d="M190.716,375.71a.946.946,0,0,1-.7-.338.971.971,0,0,1-.236-.726,1.039,1.039,0,0,1,.405-.751,1.055,1.055,0,0,1,.785-.3.988.988,0,0,1,.937,1.072,1.089,1.089,0,0,1-.4.751A1.055,1.055,0,0,1,190.716,375.71Z" transform="translate(-40.307 -215.662)" fill="#fff"/>
      <path id="Trazado_112854" data-name="Trazado 112854" d="M169.9,279.55a.954.954,0,0,1-.675-.338.929.929,0,0,1-.228-.7,1.064,1.064,0,0,1,.388-.735,1.1,1.1,0,0,1,.768-.287.954.954,0,0,1,.912,1.047,1.163,1.163,0,0,1-1.165,1.013Z" transform="translate(-37.07 -200.693)" fill="#fff"/>
      <path id="Trazado_112855" data-name="Trazado 112855" d="M174.392,284.7a.988.988,0,0,1-.684-.338.912.912,0,0,1-.22-.709,1.03,1.03,0,0,1,.431-.709,1.055,1.055,0,0,1,.768-.287.92.92,0,0,1,.675.321.963.963,0,0,1,.236.718,1.165,1.165,0,0,1-1.165,1.022Z" transform="translate(-37.769 -201.499)" fill="#fff"/>
      <path id="Trazado_112856" data-name="Trazado 112856" d="M205.362,360.544a.507.507,0,0,1-.355-.169.447.447,0,0,1-.118-.388.549.549,0,0,1,.211-.371l4.635-4.044a.583.583,0,0,1,.4-.152.439.439,0,0,1,.371.169.456.456,0,0,1,.11.388.566.566,0,0,1-.2.371l-4.66,4.061a.515.515,0,0,1-.388.135Zm1.866,2.136a.5.5,0,0,1-.355-.16.507.507,0,0,1-.118-.388.566.566,0,0,1,.211-.38l4.652-4.052a.5.5,0,0,1,.38-.144.473.473,0,0,1,.371.177.448.448,0,0,1,.11.38.549.549,0,0,1-.2.363l-4.669,4.069a.49.49,0,0,1-.38.118Z" transform="translate(-42.66 -212.831)" fill="#fff"/>
      <path id="Trazado_112857" data-name="Trazado 112857" d="M185.474,297.14l.219,2.887a.422.422,0,0,1-.127.38.4.4,0,0,1-.279.084.329.329,0,0,1-.253-.118.371.371,0,0,1-.093-.236l-.2-3.158-2.989-.675a.236.236,0,0,1-.169-.1.372.372,0,0,1-.093-.3.439.439,0,0,1,.152-.3.4.4,0,0,1,.371-.076l2.727.608-.211-2.786a.439.439,0,0,1,.144-.388.338.338,0,0,1,.253-.093.312.312,0,0,1,.236.11.388.388,0,0,1,.084.22l.236,3.107,3.056.692a.388.388,0,0,1,.211.11.38.38,0,0,1,.076.3.515.515,0,0,1-.16.287.363.363,0,0,1-.355.084Z" transform="translate(-39.016 -203.087)" fill="#fff"/>
      <path id="Trazado_112858" data-name="Trazado 112858" d="M222.546,339.86a.616.616,0,0,1-.422-.236l-1.883-2.153L218,339.43a.718.718,0,0,1-.464.169.583.583,0,0,1-.532-.633.7.7,0,0,1,.245-.431l2.254-1.959-1.9-2.178a.625.625,0,0,1-.169-.456.532.532,0,0,1,.211-.431.566.566,0,0,1,.447-.152.642.642,0,0,1,.431.228l1.9,2.178,2.254-1.959a.726.726,0,0,1,.456-.186.557.557,0,0,1,.422.194.524.524,0,0,1,.135.447.65.65,0,0,1-.236.439L221.2,336.66l1.883,2.161a.591.591,0,0,1,.16.447.582.582,0,0,1-.2.431.642.642,0,0,1-.49.16Z" transform="translate(-44.547 -209.395)" fill="#fff"/>
      <path id="Trazado_112859" data-name="Trazado 112859" d="M126.11,378.5a.465.465,0,0,1-.312-.169l-1.368-1.57-1.638,1.427a.473.473,0,0,1-.329.127.405.405,0,0,1-.312-.143.38.38,0,0,1-.1-.321.515.515,0,0,1,.177-.312l1.638-1.427-1.385-1.587a.431.431,0,0,1-.118-.329.414.414,0,0,1,.152-.312.439.439,0,0,1,.329-.11.447.447,0,0,1,.312.169l1.385,1.587,1.638-1.435a.473.473,0,0,1,.329-.127.388.388,0,0,1,.312.144.405.405,0,0,1,.093.321.431.431,0,0,1-.169.312l-1.638,1.435,1.368,1.57a.456.456,0,0,1,.118.321.447.447,0,0,1-.152.312A.422.422,0,0,1,126.11,378.5Z" transform="translate(-29.758 -215.689)" fill="#fff"/>
      <path id="Trazado_112860" data-name="Trazado 112860" d="M196.771,314.733a.287.287,0,0,1-.253-.093.3.3,0,0,1-.059-.262.633.633,0,0,1,.219-.321l4.483-3.909a.6.6,0,0,1,.346-.169.3.3,0,0,1,.262.093.279.279,0,0,1,.051.262.65.65,0,0,1-.22.312l-4.483,3.917A.633.633,0,0,1,196.771,314.733Z" transform="translate(-41.346 -205.753)" fill="#fff"/>
      <path id="Trazado_112861" data-name="Trazado 112861" d="M131.622,376.386a.347.347,0,0,1-.312-.355.3.3,0,0,1,.127-.236l3.031-2.642a.3.3,0,0,1,.253-.093.329.329,0,0,1,.219.118.363.363,0,0,1,.093.236.346.346,0,0,1-.127.236l-3.014,2.659a.321.321,0,0,1-.27.076Z" transform="translate(-31.201 -215.578)" fill="#fff"/>
      <path id="Trazado_112862" data-name="Trazado 112862" d="M130.1,378.056a.232.232,0,0,1-.194.236c-.093.017-.177,0-.262-.144a1.326,1.326,0,0,1-.211-.523l-1.688-8.7a1.426,1.426,0,0,1,0-.566.247.247,0,0,1,.194-.236c.084-.017.177,0,.27.152a1.41,1.41,0,0,1,.2.523l1.688,8.7A1.283,1.283,0,0,1,130.1,378.056Z" transform="translate(-30.641 -214.808)" fill="#fff"/>
      <path id="Trazado_112863" data-name="Trazado 112863" d="M169.472,283.413a.287.287,0,0,1-.253-.093.279.279,0,0,1-.051-.262.607.607,0,0,1,.211-.321l4.491-3.909a.574.574,0,0,1,.346-.169.287.287,0,0,1,.253.093.278.278,0,0,1,.051.262.624.624,0,0,1-.211.312l-4.491,3.917A.634.634,0,0,1,169.472,283.413Z" transform="translate(-37.095 -200.875)" fill="#fff"/>
      <path id="Trazado_112864" data-name="Trazado 112864" d="M117.456,332.3a.667.667,0,0,1-.355-.068l-4.5-2.094,3.1,3.563a.236.236,0,0,1,.059.245.515.515,0,0,1-.16.253.465.465,0,0,1-.262.118.245.245,0,0,1-.245-.093l-3.377-3.867a.532.532,0,0,1-.127-.447.709.709,0,0,1,.633-.6.844.844,0,0,1,.49.084l4.356,2-1.393-4.584a.92.92,0,0,1,0-.5.743.743,0,0,1,.228-.363.684.684,0,0,1,.464-.177.532.532,0,0,1,.422.186l3.377,3.867a.279.279,0,0,1,.068.253.54.54,0,0,1-.16.253.515.515,0,0,1-.27.118.253.253,0,0,1-.245-.093l-3.132-3.546,1.461,4.745a.76.76,0,0,1,0,.363.583.583,0,0,1-.16.27A.523.523,0,0,1,117.456,332.3Z" transform="translate(-28.128 -208.213)" fill="#fff"/>
      <path id="Trazado_112865" data-name="Trazado 112865" d="M122.689,328.218a.4.4,0,0,1-.3-.144l-3.512-4.036a.422.422,0,0,1-.1-.312.405.405,0,0,1,.152-.3l1.418-1.233a4.132,4.132,0,0,1,.515-.405,3.638,3.638,0,0,1,.54-.287,1.764,1.764,0,0,1,.557-.127,1.359,1.359,0,0,1,.549.127,1.468,1.468,0,0,1,.523.414,1.325,1.325,0,0,1,.355.9,1.688,1.688,0,0,1-.414,1.022h0a1.418,1.418,0,0,1,1.781.3l1.013.92v.042a.354.354,0,0,1,.093.3.447.447,0,0,1-.144.27.54.54,0,0,1-.312.127.363.363,0,0,1-.3-.11l-.895-.844a4.232,4.232,0,0,0-.481-.388.92.92,0,0,0-.4-.152.608.608,0,0,0-.38.076,1.968,1.968,0,0,0-.447.321l-1.1.954,1.587,1.815a.346.346,0,0,1,.1.321.431.431,0,0,1-.16.287.439.439,0,0,1-.245.144Zm-.709-3.875c.127-.118.236-.22.329-.321a2.089,2.089,0,0,0,.245-.329.988.988,0,0,0,.144-.363.844.844,0,0,0,0-.371,1.1,1.1,0,0,0-.228-.405,1.315,1.315,0,0,0-.3-.253.684.684,0,0,0-.3-.084,1.071,1.071,0,0,0-.287,0,1.2,1.2,0,0,0-.287.127l-.262.177-.245.211-1.038.9,1.309,1.5Z" transform="translate(-29.249 -207.529)" fill="#fff"/>
      <path id="Trazado_112866" data-name="Trazado 112866" d="M135.544,316.536a.844.844,0,0,1-.363-.068l-4.5-2.094,3.1,3.554a.279.279,0,0,1,.068.253.591.591,0,0,1-.16.253.489.489,0,0,1-.27.118.253.253,0,0,1-.245-.093l-3.377-3.867a.532.532,0,0,1-.127-.447.692.692,0,0,1,.236-.431.777.777,0,0,1,.4-.177.921.921,0,0,1,.481.093l4.356,2-1.385-4.584a.845.845,0,0,1,0-.5.794.794,0,0,1,.219-.363.684.684,0,0,1,.464-.177.54.54,0,0,1,.431.186l3.377,3.867a.253.253,0,0,1,.059.253.515.515,0,0,1-.16.253.489.489,0,0,1-.27.118.245.245,0,0,1-.236-.093l-3.1-3.554,1.452,4.745a.6.6,0,0,1,0,.363.456.456,0,0,1-.152.262A.557.557,0,0,1,135.544,316.536Z" transform="translate(-30.944 -205.758)" fill="#fff"/>
      <path id="Trazado_112867" data-name="Trazado 112867" d="M139.357,312.1a.287.287,0,0,1-.211-.093.321.321,0,0,1-.076-.236.405.405,0,0,1,.135-.228l1.452-1.266a.388.388,0,0,1,.245-.1.287.287,0,0,1,.219.1.253.253,0,0,1,.068.228.363.363,0,0,1-.135.228L139.6,312a.371.371,0,0,1-.245.1Z" transform="translate(-32.409 -205.785)" fill="#fff"/>
      <path id="Trazado_112868" data-name="Trazado 112868" d="M153.631,300.793a.6.6,0,0,1-.355-.068l-4.466-2.111,3.1,3.554a.253.253,0,0,1,.059.253.464.464,0,0,1-.16.245.422.422,0,0,1-.262.127.27.27,0,0,1-.245-.093l-3.377-3.867a.515.515,0,0,1-.135-.447.659.659,0,0,1,.245-.431.751.751,0,0,1,.388-.177.886.886,0,0,1,.49.093l4.356,2-1.393-4.593a.98.98,0,0,1,0-.49.743.743,0,0,1,.228-.363.684.684,0,0,1,.464-.177.532.532,0,0,1,.422.186l3.377,3.867a.3.3,0,0,1,.059.253.515.515,0,0,1-.16.245.473.473,0,0,1-.27.127.279.279,0,0,1-.245-.093l-3.1-3.563,1.461,4.745a.768.768,0,0,1,0,.363.54.54,0,0,1-.16.27.464.464,0,0,1-.321.143Z" transform="translate(-33.766 -203.304)" fill="#fff"/>
      <path id="Trazado_112869" data-name="Trazado 112869" d="M160.62,295.962a.38.38,0,0,1-.228-.118l-.979-1.131-1.182,1.022a.312.312,0,0,1-.236.093.27.27,0,0,1-.219-.1.245.245,0,0,1-.076-.228.329.329,0,0,1,.127-.228l1.182-1.021-1-1.148a.346.346,0,0,1-.093-.236.329.329,0,0,1,.346-.3.312.312,0,0,1,.228.127l1,1.14,1.182-1.03a.346.346,0,0,1,.236-.093.236.236,0,0,1,.219.1.253.253,0,0,1,.068.228.338.338,0,0,1-.118.228l-1.182,1.03.988,1.131a.338.338,0,0,1,.084.236.321.321,0,0,1-.11.22A.3.3,0,0,1,160.62,295.962Z" transform="translate(-35.31 -203.041)" fill="#fff"/>
      <path id="Trazado_112870" data-name="Trazado 112870" d="M138.64,283.1l4.052.861L141.51,278.4l2.085-1.815" transform="translate(-32.342 -200.552)" fill="none" stroke="#fff" stroke-miterlimit="10" stroke-width="1"/>
    </g>
    <g id="freepik--Tax--inject-21" transform="translate(148.266 138.411)">
      <rect id="Rectángulo_28794" data-name="Rectángulo 28794" width="177.791" height="244.689" fill="#fff" stroke="#263238" stroke-linecap="round" stroke-miterlimit="10" stroke-width="1"/>
      <rect id="Rectángulo_28795" data-name="Rectángulo 28795" width="108.081" height="71.035" fill="#e8e8e8" stroke="#263238" stroke-linecap="round" stroke-miterlimit="10" stroke-width="1"/>
      <line id="Línea_830" data-name="Línea 830" x2="15.484" transform="translate(152.472 99.182)" fill="none" stroke="#263238" stroke-linecap="round" stroke-miterlimit="10" stroke-width="1"/>
      <line id="Línea_831" data-name="Línea 831" x2="21.419" transform="translate(128.478 99.182)" fill="none" stroke="#263238" stroke-linecap="round" stroke-miterlimit="10" stroke-width="1"/>
      <line id="Línea_832" data-name="Línea 832" x2="40.76" transform="translate(84.104 99.182)" fill="none" stroke="#263238" stroke-linecap="round" stroke-miterlimit="10" stroke-width="1"/>
      <line id="Línea_833" data-name="Línea 833" x2="55.991" transform="translate(25.539 99.182)" fill="none" stroke="#263238" stroke-linecap="round" stroke-miterlimit="10" stroke-width="1"/>
      <line id="Línea_834" data-name="Línea 834" x2="11.693" transform="translate(10.756 99.182)" fill="none" stroke="#263238" stroke-linecap="round" stroke-miterlimit="10" stroke-width="1"/>
      <line id="Línea_835" data-name="Línea 835" x2="34.834" transform="translate(133.121 110.875)" fill="none" stroke="#263238" stroke-linecap="round" stroke-miterlimit="10" stroke-width="1"/>
      <line id="Línea_836" data-name="Línea 836" x2="61.402" transform="translate(68.629 110.875)" fill="none" stroke="#263238" stroke-linecap="round" stroke-miterlimit="10" stroke-width="1"/>
      <line id="Línea_837" data-name="Línea 837" x2="25.032" transform="translate(39.469 110.875)" fill="none" stroke="#263238" stroke-linecap="round" stroke-miterlimit="10" stroke-width="1"/>
      <line id="Línea_838" data-name="Línea 838" x2="24.593" transform="translate(10.756 110.875)" fill="none" stroke="#263238" stroke-linecap="round" stroke-miterlimit="10" stroke-width="1"/>
      <line id="Línea_839" data-name="Línea 839" x2="75.332" transform="translate(92.623 122.577)" fill="none" stroke="#263238" stroke-linecap="round" stroke-miterlimit="10" stroke-width="1"/>
      <line id="Línea_840" data-name="Línea 840" x2="25.167" transform="translate(63.724 122.577)" fill="none" stroke="#263238" stroke-linecap="round" stroke-miterlimit="10" stroke-width="1"/>
      <line id="Línea_841" data-name="Línea 841" x2="34.64" transform="translate(26.763 122.577)" fill="none" stroke="#263238" stroke-linecap="round" stroke-miterlimit="10" stroke-width="1"/>
      <line id="Línea_842" data-name="Línea 842" x2="13.753" transform="translate(10.756 122.577)" fill="none" stroke="#263238" stroke-linecap="round" stroke-miterlimit="10" stroke-width="1"/>
      <rect id="Rectángulo_28796" data-name="Rectángulo 28796" width="157.199" height="101.057" transform="translate(9.819 131.931)" fill="none" stroke="#263238" stroke-linecap="round" stroke-miterlimit="10" stroke-width="1"/>
      <line id="Línea_843" data-name="Línea 843" x2="114.438" transform="translate(52.116 151.112)" fill="none" stroke="#263238" stroke-linecap="round" stroke-miterlimit="10" stroke-width="1"/>
      <line id="Línea_844" data-name="Línea 844" x2="37.949" transform="translate(10.291 151.112)" fill="none" stroke="#263238" stroke-linecap="round" stroke-miterlimit="10" stroke-width="1"/>
      <line id="Línea_845" data-name="Línea 845" x2="156.262" transform="translate(10.291 164.679)" fill="none" stroke="#263238" stroke-linecap="round" stroke-miterlimit="10" stroke-width="1"/>
      <line id="Línea_846" data-name="Línea 846" x2="20.785" transform="translate(145.768 178.255)" fill="none" stroke="#263238" stroke-linecap="round" stroke-miterlimit="10" stroke-width="1"/>
      <line id="Línea_847" data-name="Línea 847" x2="133.67" transform="translate(10.291 178.255)" fill="none" stroke="#263238" stroke-linecap="round" stroke-miterlimit="10" stroke-width="1"/>
      <line id="Línea_848" data-name="Línea 848" x2="92.251" transform="translate(74.302 191.822)" fill="none" stroke="#263238" stroke-linecap="round" stroke-miterlimit="10" stroke-width="1"/>
      <line id="Línea_849" data-name="Línea 849" x2="61.689" transform="translate(10.291 191.822)" fill="none" stroke="#263238" stroke-linecap="round" stroke-miterlimit="10" stroke-width="1"/>
      <line id="Línea_850" data-name="Línea 850" x2="118.313" transform="translate(48.24 205.389)" fill="none" stroke="#263238" stroke-linecap="round" stroke-miterlimit="10" stroke-width="1"/>
      <line id="Línea_851" data-name="Línea 851" x2="33.052" transform="translate(10.291 205.389)" fill="none" stroke="#263238" stroke-linecap="round" stroke-miterlimit="10" stroke-width="1"/>
      <line id="Línea_852" data-name="Línea 852" x2="89.415" transform="translate(77.139 218.956)" fill="none" stroke="#263238" stroke-linecap="round" stroke-miterlimit="10" stroke-width="1"/>
      <line id="Línea_853" data-name="Línea 853" x2="63.749" transform="translate(10.291 218.956)" fill="none" stroke="#263238" stroke-linecap="round" stroke-miterlimit="10" stroke-width="1"/>
      <line id="Línea_854" data-name="Línea 854" y2="16.581" transform="translate(132.404 215.942)" fill="none" stroke="#263238" stroke-linecap="round" stroke-miterlimit="10" stroke-width="1"/>
      <line id="Línea_855" data-name="Línea 855" y2="68.882" transform="translate(132.404 144.223)" fill="none" stroke="#263238" stroke-linecap="round" stroke-miterlimit="10" stroke-width="1"/>
      <line id="Línea_856" data-name="Línea 856" y2="6.974" transform="translate(132.404 132.868)" fill="none" stroke="#263238" stroke-linecap="round" stroke-miterlimit="10" stroke-width="1"/>
    </g>
    <g id="freepik--Character--inject-21" transform="translate(229.115 162.654)">
      <path id="Trazado_112874" data-name="Trazado 112874" d="M377.276,450.05l-3.039,2.246s-5.285,2.144-6.079,2.592-2.136.566-1.8,1.579,2.592,1.013,5.293,1.233a21.332,21.332,0,0,0,6.416-.447c2.93-.447,5.175.338,6.3-.228s1.241,0,1.469-1.351a23.816,23.816,0,0,0,.22-3.149Z" transform="translate(-284.184 -228.211)" fill="#fff" stroke="#263238" stroke-linecap="round" stroke-miterlimit="10" stroke-width="1"/>
      <path id="Trazado_112875" data-name="Trazado 112875" d="M384.369,457.821c1.131-.557,1.241,0,1.469-1.351.068-.414.11-.844.144-1.3a13.778,13.778,0,0,1-4.534,1.19c-2.144,0-3.039.566-8,.9a30.513,30.513,0,0,1-7.134-.4.844.844,0,0,0,.042.4c.338,1.013,2.592,1.013,5.293,1.233a21.333,21.333,0,0,0,6.416-.447C381,457.6,383.246,458.4,384.369,457.821Z" transform="translate(-284.185 -229.008)" fill="#fff" stroke="#263238" stroke-linecap="round" stroke-miterlimit="10" stroke-width="1"/>
      <path id="Trazado_112876" data-name="Trazado 112876" d="M441.824,449.405s-.675,1.57-1.233,2.921-2.7,4.171-3.039,4.956.22,1.579,1.8,1.689a25.692,25.692,0,0,0,4.728-.228c.447-.11,5.4-5.96,5.631-9.456a2.838,2.838,0,0,0-2.9-3.377Z" transform="translate(-295.266 -227.566)" fill="#fff" stroke="#263238" stroke-linecap="round" stroke-miterlimit="10" stroke-width="1"/>
      <path id="Trazado_112877" data-name="Trazado 112877" d="M449.74,449.63a4.332,4.332,0,0,0-.16-1.52,2.76,2.76,0,0,1-.118.473,54.582,54.582,0,0,1-3.748,7.5c-.988,1.638-1.824,2.111-3.892,2.3a14.715,14.715,0,0,1-4.323-.447c-.093.675.515,1.283,1.883,1.385a25.69,25.69,0,0,0,4.728-.228C444.531,458.992,449.487,453.125,449.74,449.63Z" transform="translate(-295.271 -227.908)" fill="#fff" stroke="#263238" stroke-linecap="round" stroke-miterlimit="10" stroke-width="1"/>
      <path id="Trazado_112878" data-name="Trazado 112878" d="M394.559,368.45l-.228,8s-14.065,31.178-14.4,32.993,1.908,27.016,1.908,27.016H378.35l-.11,1.351,9.675,2.7s1.807-10.916,1.916-11.592,2.026-19.924,2.026-19.924l13.618-18.346s6.864,21.832,7.2,21.95,19.249,23.183,19.249,23.183l-.557,1.013s-.228.9,1.013,1.579,2.246,1.123,3.487-.118,2.533-2.93,2.651-4.162-1.072-3.149-1.976-4.838-2.592-4.39-2.592-4.39l-10.469-18.236-1.545-29.962-.456-5.623Z" transform="translate(-286.043 -215.501)" fill="#263238" stroke="#263238" stroke-linecap="round" stroke-miterlimit="10" stroke-width="1"/>
      <path id="Trazado_112879" data-name="Trazado 112879" d="M383.568,322.383a5.125,5.125,0,0,0-2.178,2.491c-.625,1.689.726,4.221.726,4.221s3.732,10.055,5.589,12.951,5.5,5.7,8.713,5.285,3.208-2.9,3.208-2.9,3.419-5.5.726-9.54S386.345,320.618,383.568,322.383Z" transform="translate(-286.508 -208.295)" fill="#fff" stroke="#263238" stroke-linecap="round" stroke-miterlimit="10" stroke-width="1"/>
      <path id="Trazado_112880" data-name="Trazado 112880" d="M407.082,320.015s-5.066,13.567-5.4,16.556-5.4,22.305-5.631,23.225,2.178,1.95,2.989,2.187,21.157,2.989,23.335,2.068,2.761-.844,2.761-1.84,4.027-34.724,2.068-38.979-4.086-8.67-5.26-8.822S407.082,320.015,407.082,320.015Z" transform="translate(-288.814 -207.084)" fill="#fff" stroke="#263238" stroke-linecap="round" stroke-miterlimit="10" stroke-width="1"/>
      <path id="Trazado_112881" data-name="Trazado 112881" d="M416.589,335.973c2.592-.895,10.916-2.583,10.916-2.583s-8.324,5.285-12.6,7.539" transform="translate(-291.753 -210.041)" fill="none" stroke="#263238" stroke-linecap="round" stroke-miterlimit="10" stroke-width="1"/>
      <line id="Línea_857" data-name="Línea 857" x1="6.754" y2="6.188" transform="translate(129.226 125.038)" fill="none" stroke="#263238" stroke-linecap="round" stroke-miterlimit="10" stroke-width="1"/>
      <path id="Trazado_112882" data-name="Trazado 112882" d="M407.331,285.576s-2.719,3.672-2.178,5.167a3.774,3.774,0,0,1,.27,2.313S402.046,297,402.7,297.4a5.42,5.42,0,0,1,1.359,1.773s.844,5.3,1.494,6.121,2.727.135,2.727.135l1.359-.135.946,6.661,10.334-5.437v-5.066s6.8-6.8,6.67-10.342.135-6.8-1.224-8.02-7.6-3.808-10.469-4.221-4.491-.844-5.31-.27-2.17,1.494-2.17,1.494,0-3.267-1.638-1.908S405.423,284.512,407.331,285.576Z" transform="translate(-289.84 -201.392)" fill="#fff" stroke="#263238" stroke-linecap="round" stroke-miterlimit="10" stroke-width="1"/>
      <path id="Trazado_112883" data-name="Trazado 112883" d="M426.939,283.164c-1.359-1.224-7.6-3.808-10.469-4.221s-4.491-.844-5.31-.27-2.17,1.494-2.17,1.494,0-3.267-1.638-1.908-1.359,6.256.549,7.345l6.391.549a8.934,8.934,0,0,0-.954,2.854c-.135,1.359,2.313,2.448,2.313,2.448s-.684,3.808-.684,4.483,1.5.844,1.773.27-.414-2.17,1.764-2.719,3.267,1.224,3.132,2.862a3.58,3.58,0,0,1-1.908,2.989l-.844.405a6.848,6.848,0,0,1,2.583,1.773s6.8-6.8,6.67-10.342S428.3,284.388,426.939,283.164Z" transform="translate(-290.41 -201.403)" fill="#263238" stroke="#263238" stroke-linecap="round" stroke-miterlimit="10" stroke-width="1"/>
      <path id="Trazado_112884" data-name="Trazado 112884" d="M408.961,296.237c0,.642-.236,1.157-.54,1.157s-.54-.515-.54-1.157.236-1.157.54-1.157S408.961,295.6,408.961,296.237Z" transform="translate(-290.659 -204.074)" fill="#263238"/>
      <path id="Trazado_112885" data-name="Trazado 112885" d="M408.04,317.945l.675,4.086,15.1-8.3-1.764-3.672Z" transform="translate(-290.684 -206.407)" fill="#fff" stroke="#263238" stroke-linecap="round" stroke-miterlimit="10" stroke-width="1"/>
      <path id="Trazado_112886" data-name="Trazado 112886" d="M450.2,384.12h0a10.249,10.249,0,0,1-14.715-1.3L359.13,288l8.2-7.142,83.581,88.5a10.258,10.258,0,0,1-.709,14.758Z" transform="translate(-283.067 -201.859)" fill="#263238" stroke="#263238" stroke-linecap="round" stroke-miterlimit="10" stroke-width="1"/>
      <path id="Trazado_112887" data-name="Trazado 112887" d="M377.192,289.185l-10.654,9.287a3.436,3.436,0,0,1-4.854-.329h0a3.453,3.453,0,0,1,.329-4.863l10.654-9.287a3.436,3.436,0,0,1,4.854.329h0a3.436,3.436,0,0,1-.329,4.863Z" transform="translate(-283.332 -202.215)" fill="#6595bf" stroke="#263238" stroke-linecap="round" stroke-miterlimit="10" stroke-width="1"/>
      <path id="Trazado_112888" data-name="Trazado 112888" d="M285.679,199.252a48.57,48.57,0,1,0,68.528,4.677,48.57,48.57,0,0,0-68.528-4.677Zm59.655,68.384a42.213,42.213,0,1,1,4.061-59.486,42.213,42.213,0,0,1-4.061,59.486Z" transform="translate(-269.034 -187.285)" fill="#6595bf" stroke="#263238" stroke-linecap="round" stroke-miterlimit="10" stroke-width="1"/>
      <path id="Trazado_112889" data-name="Trazado 112889" d="M418,325.607s3.225-7.007,4.145-7.818,2.533-.684,4.019-.574,12.942,10.232,12.942,10.232,9.2,6.9,9.084,8.392-11.819,22.077-11.819,22.077l-4.863-2.989,2.533-16.8-13.913-7.818" transform="translate(-292.236 -207.509)" fill="#fff" stroke="#263238" stroke-linecap="round" stroke-miterlimit="10" stroke-width="1"/>
      <path id="Trazado_112890" data-name="Trazado 112890" d="M432.45,361.9l-1.258,1.038a4.941,4.941,0,0,0-2.761-.118,15.407,15.407,0,0,0-1.689,1.038s-1.95,0-2.3.456-.692,1.038,0,1.494,4.483-.228,4.829,0-.456,1.385-1.148,3.225-1.689,3.217-1.148,3.791,1.494.92,1.95.464l.464-.464s2.533,2.068,3.445,1.84a7.019,7.019,0,0,0,3.681-4.221,26.338,26.338,0,0,0,.8-5.521Z" transform="translate(-293.177 -214.481)" fill="#fff" stroke="#263238" stroke-linecap="round" stroke-miterlimit="10" stroke-width="1"/>
      <path id="Trazado_112891" data-name="Trazado 112891" d="M378.663,315.472a10.93,10.93,0,0,0-.591-2.178c-.583-1.824-1.435-2.44-.481-2.82s1.756.532,2.035,1.351a13.419,13.419,0,0,0,.642,1.537L379,316.3Z" transform="translate(-285.875 -206.458)" fill="#fff" stroke="#263238" stroke-linecap="round" stroke-miterlimit="10" stroke-width="1"/>
      <path id="Trazado_112892" data-name="Trazado 112892" d="M380.705,310.926s-2.339,5.488-2.187,5.994,4.694,5,4.694,5l-.844,1.967a4.145,4.145,0,0,0,1.756,2.279c2.491,1.14,3.732-1.553,3.732-1.553l-1.545-2.229s1.6-3.841,1.689-4.221-5.15-6.56-5.15-6.56S382.444,309.727,380.705,310.926Z" transform="translate(-286.085 -206.48)" fill="#fff" stroke="#263238" stroke-linecap="round" stroke-miterlimit="10" stroke-width="1"/>
      <line id="Línea_858" data-name="Línea 858" x1="2.989" y2="6.931" transform="translate(93.835 105.105)" fill="none" stroke="#263238" stroke-linecap="round" stroke-miterlimit="10" stroke-width="1"/>
      <line id="Línea_859" data-name="Línea 859" x1="2.541" y2="6.712" transform="translate(95.895 107.216)" fill="none" stroke="#263238" stroke-linecap="round" stroke-miterlimit="10" stroke-width="1"/>
      <line id="Línea_860" data-name="Línea 860" x1="2.507" y2="5.049" transform="translate(97.879 109.799)" fill="none" stroke="#263238" stroke-linecap="round" stroke-miterlimit="10" stroke-width="1"/>
      <line id="Línea_861" data-name="Línea 861" x2="2.837" y2="1.545" transform="translate(97.127 115.438)" fill="none" stroke="#263238" stroke-linecap="round" stroke-miterlimit="10" stroke-width="1"/>
    </g>
  </g>
</svg>
