<svg xmlns="http://www.w3.org/2000/svg" width="400" height="362.641" viewBox="0 0 400 362.641">
  <g id="Grupo_60194" data-name="Grupo 60194" transform="translate(-240 -508.076)">
    <g id="Grupo_60102" data-name="Grupo 60102" transform="translate(25.697 -4323.794)">
      <rect id="Rectángulo_4912" data-name="Rectángulo 4912" width="400" height="317.767" rx="21" transform="translate(214.303 4876.745)" fill="#dfecf9" opacity="0.3"/>
      <g id="Grupo_59802" data-name="Grupo 59802">
        <circle id="Elipse_4133" data-name="Elipse 4133" cx="48" cy="48" r="48" transform="translate(366.303 4831.87)" fill="#d9a171"/>
        <g id="cash-flow" transform="translate(382.303 4847.87)">
          <g id="Grupo_59800" data-name="Grupo 59800">
            <g id="Grupo_59782" data-name="Grupo 59782">
              <path id="Trazado_110082" data-name="Trazado 110082" d="M32,16c0,1.1-3.58,2-8,2s-8-.9-8-2c0-.74,1.61-1.38,4-1.73A28.391,28.391,0,0,1,24,14C28.42,14,32,14.9,32,16Z" fill="#ffc729"/>
            </g>
            <g id="Grupo_59783" data-name="Grupo 59783">
              <path id="Trazado_110083" data-name="Trazado 110083" d="M16,22c0,1.1,3.58,2,8,2s8-.9,8-2v6c0,1.1-3.58,2-8,2s-8-.9-8-2V22Z" fill="#ffc729"/>
            </g>
            <g id="Grupo_59784" data-name="Grupo 59784">
              <path id="Trazado_110084" data-name="Trazado 110084" d="M16,29.73V34H4V28c0,1.1,3.58,2,8,2A28.391,28.391,0,0,0,16,29.73Z" fill="#ffc729"/>
            </g>
            <g id="Grupo_59785" data-name="Grupo 59785">
              <path id="Trazado_110085" data-name="Trazado 110085" d="M16,22v1.73A28.391,28.391,0,0,1,12,24c-4.42,0-8-.9-8-2V16c0,1.1,3.58,2,8,2a28.391,28.391,0,0,0,4-.27Z" fill="#ffc729"/>
            </g>
            <g id="Grupo_59786" data-name="Grupo 59786">
              <path id="Trazado_110086" data-name="Trazado 110086" d="M20,4v6c0,1.1-3.58,2-8,2s-8-.9-8-2V4c0,1.1,3.58,2,8,2S20,5.1,20,4Z" fill="#ffc729"/>
            </g>
            <g id="Grupo_59787" data-name="Grupo 59787">
              <ellipse id="Elipse_4303" data-name="Elipse 4303" cx="8" cy="2" rx="8" ry="2" transform="translate(4 2)" fill="#fcd770"/>
            </g>
            <g id="Grupo_59788" data-name="Grupo 59788">
              <path id="Trazado_110087" data-name="Trazado 110087" d="M16,16v1.73A28.391,28.391,0,0,1,12,18c-4.42,0-8-.9-8-2V10c0,1.1,3.58,2,8,2s8-.9,8-2v4.27C17.61,14.62,16,15.26,16,16Z" fill="#fcd770"/>
            </g>
            <g id="Grupo_59789" data-name="Grupo 59789">
              <path id="Trazado_110088" data-name="Trazado 110088" d="M16,28v1.73A28.391,28.391,0,0,1,12,30c-4.42,0-8-.9-8-2V22c0,1.1,3.58,2,8,2a28.391,28.391,0,0,0,4-.27Z" fill="#fcd770"/>
            </g>
            <g id="Grupo_59790" data-name="Grupo 59790">
              <path id="Trazado_110089" data-name="Trazado 110089" d="M32,16v6c0,1.1-3.58,2-8,2s-8-.9-8-2V16c0,1.1,3.58,2,8,2S32,17.1,32,16Z" fill="#fcd770"/>
            </g>
            <g id="Grupo_59791" data-name="Grupo 59791">
              <path id="Trazado_110090" data-name="Trazado 110090" d="M16,28c0,1.1,3.58,2,8,2s8-.9,8-2v6H16V28Z" fill="#fcd770"/>
            </g>
            <g id="Grupo_59792" data-name="Grupo 59792">
              <path id="Trazado_110091" data-name="Trazado 110091" d="M62,35V61a1,1,0,0,1-1,1H3a1,1,0,0,1-1-1V35a1,1,0,0,1,1-1H61A1,1,0,0,1,62,35Z" fill="#48cfad"/>
            </g>
            <g id="Grupo_59793" data-name="Grupo 59793">
              <path id="Trazado_110092" data-name="Trazado 110092" d="M12,38H32a10,10,0,0,0,0,20H12a6,6,0,0,0-6-6V44A6,6,0,0,0,12,38Z" fill="#5cd6b3"/>
            </g>
            <g id="Grupo_59794" data-name="Grupo 59794">
              <path id="Trazado_110093" data-name="Trazado 110093" d="M58,44v8a6,6,0,0,0-6,6H32a10,10,0,0,0,0-20H52A6,6,0,0,0,58,44Z" fill="#5cd6b3"/>
            </g>
            <g id="Grupo_59795" data-name="Grupo 59795">
              <path id="Trazado_110094" data-name="Trazado 110094" d="M6,38h6a6,6,0,0,1-6,6Z" fill="#e6e9ed"/>
            </g>
            <g id="Grupo_59796" data-name="Grupo 59796">
              <path id="Trazado_110095" data-name="Trazado 110095" d="M12,58H6V52A6,6,0,0,1,12,58Z" fill="#e6e9ed"/>
            </g>
            <g id="Grupo_59797" data-name="Grupo 59797">
              <path id="Trazado_110096" data-name="Trazado 110096" d="M58,52v6H52A6,6,0,0,1,58,52Z" fill="#e6e9ed"/>
            </g>
            <g id="Grupo_59798" data-name="Grupo 59798">
              <path id="Trazado_110097" data-name="Trazado 110097" d="M58,38v6a6,6,0,0,1-6-6Z" fill="#e6e9ed"/>
            </g>
            <g id="Grupo_59799" data-name="Grupo 59799">
              <circle id="Elipse_4304" data-name="Elipse 4304" cx="10" cy="10" r="10" transform="translate(22 38)" fill="#fcd770"/>
            </g>
          </g>
          <g id="Grupo_59801" data-name="Grupo 59801">
            <path id="Trazado_110098" data-name="Trazado 110098" d="M31,52.816V55h2V53h2V50a3,3,0,0,0-3-3,1,1,0,0,1-1-1V45h1a1,1,0,0,1,1,1v1h2V46a3,3,0,0,0-2-2.816V41H31v2H29v3a3,3,0,0,0,3,3,1,1,0,0,1,1,1v1H32a1,1,0,0,1-1-1V49H29v1A3,3,0,0,0,31,52.816Z"/>
            <path id="Trazado_110099" data-name="Trazado 110099" d="M61,33H33V16c0-2.855-7.5-3-9-3-.5,0-1.669.019-3,.145V4c0-2.855-7.5-3-9-3S3,1.145,3,4V33a2,2,0,0,0-2,2V61a2,2,0,0,0,2,2H61a2,2,0,0,0,2-2C63,33.9,62.1,33,61,33ZM17,33V30.04A23.285,23.285,0,0,0,24,31a23.285,23.285,0,0,0,7-.96V33ZM5,24.04A23.285,23.285,0,0,0,12,25c1.029,0,2.045-.05,3-.143v3.992A29.079,29.079,0,0,1,12,29c-4.085,0-6.53-.755-7-1.182Zm0-6A23.285,23.285,0,0,0,12,19c1.029,0,2.045-.05,3-.143v3.992A29.079,29.079,0,0,1,12,23c-4.085,0-6.53-.755-7-1.182Zm26,3.778C30.53,22.245,28.085,23,24,23s-6.53-.755-7-1.182V18.04A23.285,23.285,0,0,0,24,19a23.285,23.285,0,0,0,7-.96Zm0,6C30.53,28.245,28.085,29,24,29s-6.53-.755-7-1.182V24.04A23.285,23.285,0,0,0,24,25a23.285,23.285,0,0,0,7-.96ZM30.728,16A17.471,17.471,0,0,1,24,17a17.475,17.475,0,0,1-6.728-1A17.471,17.471,0,0,1,24,15,17.475,17.475,0,0,1,30.728,16ZM15,16v.848A28.8,28.8,0,0,1,12,17c-4.085,0-6.53-.755-7-1.182V12.04A23.285,23.285,0,0,0,12,13a23.285,23.285,0,0,0,7-.96v1.379c-2.087.389-4,1.139-4,2.581ZM5,6.04A23.285,23.285,0,0,0,12,7a23.285,23.285,0,0,0,7-.96V9.818C18.53,10.245,16.085,11,12,11s-6.53-.755-7-1.182ZM12,3a17.475,17.475,0,0,1,6.728,1A17.475,17.475,0,0,1,12,5,17.475,17.475,0,0,1,5.272,4,17.475,17.475,0,0,1,12,3ZM5,30.04A23.285,23.285,0,0,0,12,31c1.029,0,2.045-.05,3-.143V33H5ZM3,61V35H61l0,26Z"/>
            <path id="Trazado_110100" data-name="Trazado 110100" d="M5,37V59H59V37Zm5.9,2A5.016,5.016,0,0,1,7,42.9V39ZM7,53.1A5.016,5.016,0,0,1,10.9,57H7ZM12.92,57A7,7,0,0,0,7,51.08V44.92A7,7,0,0,0,12.92,39H25.695a10.974,10.974,0,0,0,0,18ZM32,39a9,9,0,1,1-9,9A9.01,9.01,0,0,1,32,39ZM53.1,57A5.016,5.016,0,0,1,57,53.1V57ZM57,42.9A5.016,5.016,0,0,1,53.1,39H57ZM51.08,39A7,7,0,0,0,57,44.92v6.16A7,7,0,0,0,51.08,57H38.3a10.974,10.974,0,0,0,0-18Z"/>
          </g>
        </g>
      </g>
    </g>
    <g id="Grupo_60074" data-name="Grupo 60074" transform="translate(10233.8 6713.158)">
      <rect id="Rectángulo_28436" data-name="Rectángulo 28436" width="301.558" height="46.32" transform="translate(-9944.8 -6028.967)" fill="#dfecf9"/>
      <rect id="Rectángulo_28438" data-name="Rectángulo 28438" width="301.558" height="46.32" transform="translate(-9944.8 -5936.26)" fill="#dfecf9"/>
      <rect id="Rectángulo_28437" data-name="Rectángulo 28437" width="301.558" height="46.32" transform="translate(-9944.8 -5982.613)" fill="#e8e8e8"/>
      <path id="Trazado_111560" data-name="Trazado 111560" d="M0,0H301.559V42.566H0Z" transform="translate(-9944.8 -6071.4)" fill="#6595bf"/>
      <path id="Trazado_113445" data-name="Trazado 113445" d="M71.179,17H68.542V4.2h2.637Zm4.614-9.51.079,1.1a3.32,3.32,0,0,1,2.733-1.274,2.759,2.759,0,0,1,2.25.888,4.142,4.142,0,0,1,.756,2.654V17h-2.54V10.9a1.654,1.654,0,0,0-.352-1.176,1.572,1.572,0,0,0-1.169-.366,1.747,1.747,0,0,0-1.608.916V17H73.4V7.49ZM87.1,13.9,88.863,7.49h2.654L88.309,17H85.883L82.675,7.49H85.33Zm9.8,3.278a4.668,4.668,0,0,1-3.406-1.283,4.561,4.561,0,0,1-1.314-3.419v-.246a5.745,5.745,0,0,1,.554-2.562A4.064,4.064,0,0,1,94.3,7.925a4.4,4.4,0,0,1,2.316-.611,3.947,3.947,0,0,1,3.072,1.23,5,5,0,0,1,1.121,3.489v1.037H94.751a2.36,2.36,0,0,0,.743,1.494,2.245,2.245,0,0,0,1.569.563,2.742,2.742,0,0,0,2.294-1.063l1.248,1.4a3.813,3.813,0,0,1-1.547,1.261A5.075,5.075,0,0,1,96.9,17.176Zm-.29-7.813a1.587,1.587,0,0,0-1.226.512,2.651,2.651,0,0,0-.6,1.466h3.533v-.2a1.891,1.891,0,0,0-.457-1.311A1.638,1.638,0,0,0,96.606,9.362Zm7.98-1.872.079,1.1A3.32,3.32,0,0,1,107.4,7.314a2.759,2.759,0,0,1,2.25.888,4.142,4.142,0,0,1,.756,2.654V17h-2.54V10.9a1.654,1.654,0,0,0-.352-1.176,1.572,1.572,0,0,0-1.169-.366,1.747,1.747,0,0,0-1.608.916V17H102.2V7.49Zm10.784-2.338V7.49H117V9.354h-1.626V14.1a1.133,1.133,0,0,0,.2.756,1.015,1.015,0,0,0,.773.229,4.051,4.051,0,0,0,.747-.062v1.925a5.229,5.229,0,0,1-1.538.229,2.425,2.425,0,0,1-2.725-2.7V9.354h-1.389V7.49h1.389V5.152ZM123.922,17a2.821,2.821,0,0,1-.255-.853,3.073,3.073,0,0,1-2.4,1.028,3.376,3.376,0,0,1-2.316-.809,2.6,2.6,0,0,1-.918-2.039,2.687,2.687,0,0,1,1.121-2.32,5.529,5.529,0,0,1,3.239-.817h1.169v-.545a1.567,1.567,0,0,0-.338-1.055,1.331,1.331,0,0,0-1.068-.4,1.513,1.513,0,0,0-1.006.308,1.045,1.045,0,0,0-.365.844h-2.54a2.551,2.551,0,0,1,.51-1.529,3.37,3.37,0,0,1,1.441-1.1,5.253,5.253,0,0,1,2.092-.4,4.15,4.15,0,0,1,2.791.883,3.09,3.09,0,0,1,1.033,2.483V14.8a4.546,4.546,0,0,0,.378,2.048V17Zm-2.1-1.767a2.188,2.188,0,0,0,1.037-.25,1.645,1.645,0,0,0,.7-.672V12.676h-.949q-1.907,0-2.03,1.318l-.009.149a1.017,1.017,0,0,0,.334.782A1.3,1.3,0,0,0,121.822,15.233Zm11.584-5.361a6.9,6.9,0,0,0-.914-.07,1.86,1.86,0,0,0-1.89.976V17h-2.54V7.49h2.4l.07,1.134a2.354,2.354,0,0,1,2.118-1.31,2.662,2.662,0,0,1,.791.114Zm3.9,7.128h-2.549V7.49h2.549Zm-2.7-11.971a1.251,1.251,0,0,1,.382-.94,1.648,1.648,0,0,1,2.079,0,1.244,1.244,0,0,1,.387.94,1.247,1.247,0,0,1-.391.949,1.629,1.629,0,0,1-2.065,0A1.247,1.247,0,0,1,134.61,5.029ZM139,12.157a5.64,5.64,0,0,1,.545-2.522,3.989,3.989,0,0,1,1.569-1.714,4.577,4.577,0,0,1,2.377-.606,4.33,4.33,0,0,1,3.142,1.178,4.727,4.727,0,0,1,1.358,3.2l.018.65a4.97,4.97,0,0,1-1.222,3.511,4.735,4.735,0,0,1-6.561,0A5.058,5.058,0,0,1,139,12.271Zm2.54.18a3.555,3.555,0,0,0,.51,2.073,1.831,1.831,0,0,0,2.9.009,3.89,3.89,0,0,0,.519-2.267,3.519,3.519,0,0,0-.519-2.06,1.686,1.686,0,0,0-1.459-.731,1.658,1.658,0,0,0-1.441.726A3.955,3.955,0,0,0,141.544,12.338ZM157.031,17h-2.637V4.2h2.637Zm4.614-9.51.079,1.1a3.32,3.32,0,0,1,2.733-1.274,2.759,2.759,0,0,1,2.25.888,4.142,4.142,0,0,1,.756,2.654V17h-2.54V10.9a1.654,1.654,0,0,0-.352-1.176,1.572,1.572,0,0,0-1.169-.366,1.747,1.747,0,0,0-1.608.916V17h-2.54V7.49ZM172.069,17H169.52V7.49h2.549Zm-2.7-11.971a1.251,1.251,0,0,1,.382-.94,1.648,1.648,0,0,1,2.079,0,1.244,1.244,0,0,1,.387.94,1.247,1.247,0,0,1-.391.949,1.629,1.629,0,0,1-2.065,0A1.247,1.247,0,0,1,169.371,5.029Zm8.745,10.1a1.666,1.666,0,0,0,1.143-.387,1.355,1.355,0,0,0,.457-1.028H182.1a3.258,3.258,0,0,1-.527,1.771,3.48,3.48,0,0,1-1.419,1.248,4.442,4.442,0,0,1-1.991.444,4.129,4.129,0,0,1-3.217-1.3,5.13,5.13,0,0,1-1.178-3.582v-.167a5.071,5.071,0,0,1,1.169-3.507,4.08,4.08,0,0,1,3.208-1.31A4,4,0,0,1,181,8.33a3.594,3.594,0,0,1,1.094,2.7h-2.382a1.745,1.745,0,0,0-.457-1.206,1.7,1.7,0,0,0-2.5.183,3.749,3.749,0,0,0-.453,2.1v.264a3.8,3.8,0,0,0,.448,2.113A1.549,1.549,0,0,0,178.116,15.128ZM186.228,17h-2.549V7.49h2.549Zm-2.7-11.971a1.251,1.251,0,0,1,.382-.94,1.648,1.648,0,0,1,2.079,0,1.244,1.244,0,0,1,.387.94,1.247,1.247,0,0,1-.391.949,1.629,1.629,0,0,1-2.065,0A1.247,1.247,0,0,1,183.53,5.029ZM193.831,17a2.821,2.821,0,0,1-.255-.853,3.073,3.073,0,0,1-2.4,1.028,3.376,3.376,0,0,1-2.316-.809,2.6,2.6,0,0,1-.918-2.039,2.687,2.687,0,0,1,1.121-2.32,5.529,5.529,0,0,1,3.239-.817h1.169v-.545a1.567,1.567,0,0,0-.338-1.055,1.331,1.331,0,0,0-1.068-.4,1.513,1.513,0,0,0-1.006.308,1.045,1.045,0,0,0-.365.844h-2.54a2.551,2.551,0,0,1,.51-1.529,3.37,3.37,0,0,1,1.441-1.1,5.253,5.253,0,0,1,2.092-.4,4.15,4.15,0,0,1,2.791.883,3.09,3.09,0,0,1,1.033,2.483V14.8a4.546,4.546,0,0,0,.378,2.048V17Zm-2.1-1.767a2.188,2.188,0,0,0,1.037-.25,1.645,1.645,0,0,0,.7-.672V12.676h-.949q-1.907,0-2.03,1.318l-.009.149a1.017,1.017,0,0,0,.334.782A1.3,1.3,0,0,0,191.73,15.233ZM200.651,17H198.1V3.5h2.549Z" transform="translate(-9935 -6063.833)" fill="#fff"/>
      <path id="Trazado_113446" data-name="Trazado 113446" d="M42.224,11.806a13.589,13.589,0,0,1,.532-3.814,11.081,11.081,0,0,1,1.586-3.322A6.749,6.749,0,0,1,46.53,2.56l.334,1.072a7,7,0,0,0-2.1,3.006,13.031,13.031,0,0,0-.9,4.526l-.009.747A13.1,13.1,0,0,0,45.089,17.8a7.033,7.033,0,0,0,1.775,2.338l-.334.993a6.966,6.966,0,0,1-2.232-2.18A12.217,12.217,0,0,1,42.224,11.806ZM53.1,10.136h3.568v1.538H53.1v4.043H51.461V11.674H47.893V10.136h3.568V6.4H53.1Zm9.3,1.758a13.6,13.6,0,0,1-.514,3.757,11.11,11.11,0,0,1-1.573,3.318,6.893,6.893,0,0,1-2.219,2.162l-.343-.993a7.066,7.066,0,0,0,2.175-3.221,13.935,13.935,0,0,0,.839-4.847v-.281a14.469,14.469,0,0,0-.387-3.432A11.583,11.583,0,0,0,59.3,5.513a6.567,6.567,0,0,0-1.551-1.96l.343-.993A6.866,6.866,0,0,1,60.3,4.7a11.134,11.134,0,0,1,1.573,3.313A13.909,13.909,0,0,1,62.395,11.894ZM78.619,4.2v8.7a4.082,4.082,0,0,1-1.138,2.962,4.586,4.586,0,0,1-3.063,1.292l-.448.018a4.79,4.79,0,0,1-3.349-1.134,4.055,4.055,0,0,1-1.266-3.12V4.2h1.67v8.666a2.927,2.927,0,0,0,.765,2.158,3.5,3.5,0,0,0,4.373,0,2.921,2.921,0,0,0,.76-2.153V4.2ZM82.565,7.49l.053,1.2a3.465,3.465,0,0,1,2.848-1.371q3.015,0,3.041,3.4V17H86.881V10.707a2.189,2.189,0,0,0-.47-1.521,1.884,1.884,0,0,0-1.437-.492,2.347,2.347,0,0,0-1.389.422,2.865,2.865,0,0,0-.932,1.107V17H81.027V7.49ZM92.726,17H91.1V7.49h1.626ZM90.968,4.968a.971.971,0,0,1,.242-.668.907.907,0,0,1,.716-.272.922.922,0,0,1,.721.272.96.96,0,0,1,.246.668.929.929,0,0,1-.246.659.938.938,0,0,1-.721.264.924.924,0,0,1-.716-.264A.938.938,0,0,1,90.968,4.968Zm3.964,7.2a5.571,5.571,0,0,1,1.037-3.52,3.529,3.529,0,0,1,5.361-.189V3.5h1.626V17h-1.494l-.079-1.02a3.311,3.311,0,0,1-2.716,1.2,3.248,3.248,0,0,1-2.694-1.354,5.634,5.634,0,0,1-1.042-3.533Zm1.626.185a4.218,4.218,0,0,0,.668,2.531,2.159,2.159,0,0,0,1.846.914,2.372,2.372,0,0,0,2.259-1.389V10.039a2.39,2.39,0,0,0-2.241-1.345,2.17,2.17,0,0,0-1.863.923A4.644,4.644,0,0,0,96.558,12.351ZM111.35,17a3.416,3.416,0,0,1-.229-1,3.628,3.628,0,0,1-2.707,1.178,3.357,3.357,0,0,1-2.307-.8,2.573,2.573,0,0,1-.9-2.017,2.688,2.688,0,0,1,1.129-2.307,5.325,5.325,0,0,1,3.177-.822h1.582v-.747a1.826,1.826,0,0,0-.51-1.358,2.049,2.049,0,0,0-1.5-.505,2.371,2.371,0,0,0-1.459.439,1.3,1.3,0,0,0-.589,1.063H105.4a2.244,2.244,0,0,1,.505-1.375,3.449,3.449,0,0,1,1.371-1.05,4.613,4.613,0,0,1,1.9-.387,3.759,3.759,0,0,1,2.575.822,2.964,2.964,0,0,1,.967,2.263v4.377a5.351,5.351,0,0,0,.334,2.083V17Zm-2.7-1.239a2.858,2.858,0,0,0,1.45-.4,2.392,2.392,0,0,0,.993-1.028V12.386H109.82q-2.988,0-2.988,1.749a1.48,1.48,0,0,0,.51,1.2A1.959,1.959,0,0,0,108.651,15.761Zm6.223-3.595a5.571,5.571,0,0,1,1.037-3.52,3.529,3.529,0,0,1,5.361-.189V3.5H122.9V17H121.4l-.079-1.02a3.311,3.311,0,0,1-2.716,1.2,3.248,3.248,0,0,1-2.694-1.354,5.634,5.634,0,0,1-1.042-3.533Zm1.626.185a4.218,4.218,0,0,0,.668,2.531,2.159,2.159,0,0,0,1.846.914,2.372,2.372,0,0,0,2.259-1.389V10.039a2.39,2.39,0,0,0-2.241-1.345,2.17,2.17,0,0,0-1.863.923A4.644,4.644,0,0,0,116.5,12.351Zm12.867,4.825a4.155,4.155,0,0,1-3.146-1.27,4.714,4.714,0,0,1-1.213-3.4v-.3a5.707,5.707,0,0,1,.541-2.527,4.217,4.217,0,0,1,1.512-1.74,3.8,3.8,0,0,1,2.1-.628,3.562,3.562,0,0,1,2.883,1.222,5.289,5.289,0,0,1,1.028,3.5v.677h-6.442a3.38,3.38,0,0,0,.822,2.272,2.583,2.583,0,0,0,2,.866,2.832,2.832,0,0,0,1.459-.352,3.666,3.666,0,0,0,1.046-.932l.993.773A3.993,3.993,0,0,1,129.367,17.176Zm-.2-8.525a2.169,2.169,0,0,0-1.652.716,3.482,3.482,0,0,0-.826,2.008h4.764v-.123a3.1,3.1,0,0,0-.668-1.92A2.042,2.042,0,0,0,129.165,8.65Zm11.329,5.827a1.2,1.2,0,0,0-.5-1.024,4.78,4.78,0,0,0-1.731-.628,8.186,8.186,0,0,1-1.96-.633,2.788,2.788,0,0,1-1.072-.879,2.1,2.1,0,0,1-.347-1.213,2.467,2.467,0,0,1,.989-1.978,3.861,3.861,0,0,1,2.527-.809,3.974,3.974,0,0,1,2.624.835,2.652,2.652,0,0,1,1.006,2.136H140.4a1.468,1.468,0,0,0-.567-1.151A2.124,2.124,0,0,0,138.4,8.65a2.223,2.223,0,0,0-1.389.387,1.217,1.217,0,0,0-.5,1.011.986.986,0,0,0,.466.888,5.731,5.731,0,0,0,1.683.571,8.77,8.77,0,0,1,1.973.65,2.878,2.878,0,0,1,1.121.91,2.237,2.237,0,0,1,.365,1.3,2.434,2.434,0,0,1-1.02,2.043,4.277,4.277,0,0,1-2.646.769,4.789,4.789,0,0,1-2.021-.4,3.288,3.288,0,0,1-1.375-1.129,2.722,2.722,0,0,1-.5-1.569h1.626a1.683,1.683,0,0,0,.655,1.3,2.54,2.54,0,0,0,1.613.479,2.622,2.622,0,0,0,1.481-.374A1.148,1.148,0,0,0,140.494,14.478ZM154.565,17a3.416,3.416,0,0,1-.229-1,3.628,3.628,0,0,1-2.707,1.178,3.357,3.357,0,0,1-2.307-.8,2.573,2.573,0,0,1-.9-2.017,2.688,2.688,0,0,1,1.129-2.307,5.325,5.325,0,0,1,3.177-.822h1.582v-.747a1.826,1.826,0,0,0-.51-1.358,2.049,2.049,0,0,0-1.5-.505,2.371,2.371,0,0,0-1.459.439,1.3,1.3,0,0,0-.589,1.063h-1.635a2.244,2.244,0,0,1,.505-1.375,3.449,3.449,0,0,1,1.371-1.05,4.613,4.613,0,0,1,1.9-.387,3.759,3.759,0,0,1,2.575.822,2.964,2.964,0,0,1,.967,2.263v4.377a5.351,5.351,0,0,0,.334,2.083V17Zm-2.7-1.239a2.858,2.858,0,0,0,1.45-.4,2.392,2.392,0,0,0,.993-1.028V12.386h-1.274q-2.988,0-2.988,1.749a1.48,1.48,0,0,0,.51,1.2A1.959,1.959,0,0,0,151.867,15.761Zm19.107-3.41a5.694,5.694,0,0,1-.993,3.5,3.183,3.183,0,0,1-2.689,1.327,3.488,3.488,0,0,1-2.725-1.1v4.579h-1.626V7.49h1.485l.079,1.055a3.35,3.35,0,0,1,2.76-1.23,3.243,3.243,0,0,1,2.711,1.292,5.756,5.756,0,0,1,1,3.595Zm-1.626-.185a4.2,4.2,0,0,0-.686-2.54,2.208,2.208,0,0,0-1.881-.932A2.39,2.39,0,0,0,164.567,10v4.544a2.4,2.4,0,0,0,2.232,1.3,2.2,2.2,0,0,0,1.859-.927A4.587,4.587,0,0,0,169.349,12.166Zm8.288-3.217a4.873,4.873,0,0,0-.8-.062,2.143,2.143,0,0,0-2.171,1.362V17H173.04V7.49h1.582l.026,1.1a2.532,2.532,0,0,1,2.268-1.274,1.661,1.661,0,0,1,.721.123Zm.888,3.208a5.617,5.617,0,0,1,.549-2.514A4.1,4.1,0,0,1,180.6,7.921a4.163,4.163,0,0,1,2.237-.606,4.01,4.01,0,0,1,3.142,1.345,5.174,5.174,0,0,1,1.2,3.577v.114a5.666,5.666,0,0,1-.532,2.492,4.038,4.038,0,0,1-1.521,1.718,4.211,4.211,0,0,1-2.272.615,4,4,0,0,1-3.133-1.345,5.147,5.147,0,0,1-1.2-3.56Zm1.635.193a4.068,4.068,0,0,0,.734,2.54,2.487,2.487,0,0,0,3.933-.013,4.449,4.449,0,0,0,.729-2.72,4.061,4.061,0,0,0-.743-2.536,2.361,2.361,0,0,0-1.973-.971,2.335,2.335,0,0,0-1.942.958A4.416,4.416,0,0,0,180.159,12.351Zm8.666-.185a5.571,5.571,0,0,1,1.037-3.52,3.529,3.529,0,0,1,5.361-.189V3.5h1.626V17h-1.494l-.079-1.02a3.311,3.311,0,0,1-2.716,1.2,3.248,3.248,0,0,1-2.694-1.354,5.634,5.634,0,0,1-1.042-3.533Zm1.626.185a4.218,4.218,0,0,0,.668,2.531,2.159,2.159,0,0,0,1.846.914,2.372,2.372,0,0,0,2.259-1.389V10.039a2.39,2.39,0,0,0-2.241-1.345,2.17,2.17,0,0,0-1.863.923A4.644,4.644,0,0,0,190.451,12.351Zm14.792,3.709a3.454,3.454,0,0,1-2.786,1.116,2.956,2.956,0,0,1-2.316-.883,3.823,3.823,0,0,1-.8-2.615V7.49h1.626v6.144q0,2.162,1.758,2.162a2.434,2.434,0,0,0,2.479-1.389V7.49h1.626V17h-1.547Zm7.866-.211a2.342,2.342,0,0,0,1.521-.527A1.855,1.855,0,0,0,215.351,14h1.538a2.949,2.949,0,0,1-.562,1.556,3.7,3.7,0,0,1-1.384,1.178,3.994,3.994,0,0,1-1.833.439,3.918,3.918,0,0,1-3.089-1.3,5.163,5.163,0,0,1-1.147-3.546v-.272a5.725,5.725,0,0,1,.51-2.47,3.883,3.883,0,0,1,1.463-1.679,4.157,4.157,0,0,1,2.254-.6,3.814,3.814,0,0,1,2.659.958,3.424,3.424,0,0,1,1.129,2.487h-1.538a2.241,2.241,0,0,0-.7-1.516A2.174,2.174,0,0,0,213.1,8.65a2.276,2.276,0,0,0-1.92.892,4.19,4.19,0,0,0-.681,2.58v.308a4.106,4.106,0,0,0,.677,2.531A2.287,2.287,0,0,0,213.109,15.849ZM220.483,17h-1.626V7.49h1.626ZM218.726,4.968a.971.971,0,0,1,.242-.668.907.907,0,0,1,.716-.272.922.922,0,0,1,.721.272.96.96,0,0,1,.246.668.929.929,0,0,1-.246.659.938.938,0,0,1-.721.264.924.924,0,0,1-.716-.264A.938.938,0,0,1,218.726,4.968Zm8.956,3.981a4.873,4.873,0,0,0-.8-.062,2.143,2.143,0,0,0-2.171,1.362V17h-1.626V7.49h1.582l.026,1.1a2.532,2.532,0,0,1,2.268-1.274,1.661,1.661,0,0,1,.721.123ZM65.849,58.806a13.589,13.589,0,0,1,.532-3.814,11.081,11.081,0,0,1,1.586-3.322,6.749,6.749,0,0,1,2.188-2.109l.334,1.072a7,7,0,0,0-2.1,3.006,13.031,13.031,0,0,0-.9,4.526l-.009.747A13.1,13.1,0,0,0,68.714,64.8a7.033,7.033,0,0,0,1.775,2.338l-.334.993a6.966,6.966,0,0,1-2.232-2.18A12.217,12.217,0,0,1,65.849,58.806Zm9.6.422H71.157V57.9h4.289Zm5.335-.334a13.6,13.6,0,0,1-.514,3.757,11.11,11.11,0,0,1-1.573,3.318,6.893,6.893,0,0,1-2.219,2.162l-.343-.993a7.066,7.066,0,0,0,2.175-3.221,13.935,13.935,0,0,0,.839-4.847v-.281a14.469,14.469,0,0,0-.387-3.432,11.583,11.583,0,0,0-1.077-2.843,6.567,6.567,0,0,0-1.551-1.96l.343-.993a6.866,6.866,0,0,1,2.21,2.145,11.134,11.134,0,0,1,1.573,3.313A13.909,13.909,0,0,1,80.781,58.894ZM89.808,64H88.12V51.2h1.688Zm4.368-9.51.053,1.2a3.465,3.465,0,0,1,2.848-1.371q3.015,0,3.041,3.4V64H98.491V57.707a2.189,2.189,0,0,0-.47-1.521,1.884,1.884,0,0,0-1.437-.492,2.347,2.347,0,0,0-1.389.422,2.865,2.865,0,0,0-.932,1.107V64H92.638V54.49Zm11.531,7.3,2.355-7.3h1.661L106.313,64h-1.239l-3.445-9.51h1.661Zm9.413,2.382a4.155,4.155,0,0,1-3.146-1.27,4.714,4.714,0,0,1-1.213-3.4v-.3a5.707,5.707,0,0,1,.541-2.527,4.217,4.217,0,0,1,1.512-1.74,3.8,3.8,0,0,1,2.1-.628,3.562,3.562,0,0,1,2.883,1.222,5.289,5.289,0,0,1,1.028,3.5v.677h-6.442a3.38,3.38,0,0,0,.822,2.272,2.583,2.583,0,0,0,2,.866,2.832,2.832,0,0,0,1.459-.352,3.666,3.666,0,0,0,1.046-.932l.993.773A3.993,3.993,0,0,1,115.12,64.176Zm-.2-8.525a2.169,2.169,0,0,0-1.652.716,3.482,3.482,0,0,0-.826,2.008H117.2v-.123a3.1,3.1,0,0,0-.668-1.92A2.042,2.042,0,0,0,114.918,55.65Zm7.33-1.16.053,1.2a3.465,3.465,0,0,1,2.848-1.371q3.015,0,3.041,3.4V64h-1.626V57.707a2.189,2.189,0,0,0-.47-1.521,1.884,1.884,0,0,0-1.437-.492,2.347,2.347,0,0,0-1.389.422,2.865,2.865,0,0,0-.932,1.107V64H120.71V54.49Zm10.6-2.3v2.3h1.775v1.257h-1.775v5.9a1.32,1.32,0,0,0,.237.858,1,1,0,0,0,.809.286,3.937,3.937,0,0,0,.773-.105V64a4.742,4.742,0,0,1-1.248.175,2.025,2.025,0,0,1-1.644-.659,2.832,2.832,0,0,1-.554-1.872v-5.9H129.49V54.49h1.731v-2.3ZM142.393,64a3.416,3.416,0,0,1-.229-1,3.628,3.628,0,0,1-2.707,1.178,3.357,3.357,0,0,1-2.307-.8,2.573,2.573,0,0,1-.9-2.017,2.688,2.688,0,0,1,1.129-2.307,5.325,5.325,0,0,1,3.177-.822h1.582v-.747a1.826,1.826,0,0,0-.51-1.358,2.049,2.049,0,0,0-1.5-.505,2.371,2.371,0,0,0-1.459.439,1.3,1.3,0,0,0-.589,1.063h-1.635a2.244,2.244,0,0,1,.505-1.375,3.449,3.449,0,0,1,1.371-1.05,4.613,4.613,0,0,1,1.9-.387,3.759,3.759,0,0,1,2.575.822,2.964,2.964,0,0,1,.967,2.263v4.377a5.351,5.351,0,0,0,.334,2.083V64Zm-2.7-1.239a2.858,2.858,0,0,0,1.45-.4,2.392,2.392,0,0,0,.993-1.028V59.386h-1.274q-2.988,0-2.988,1.749a1.48,1.48,0,0,0,.51,1.2A1.959,1.959,0,0,0,139.694,62.761Zm11.215-6.812a4.873,4.873,0,0,0-.8-.062,2.143,2.143,0,0,0-2.171,1.362V64h-1.626V54.49h1.582l.026,1.1a2.532,2.532,0,0,1,2.268-1.274,1.661,1.661,0,0,1,.721.123ZM154.17,64h-1.626V54.49h1.626Zm-1.758-12.032a.971.971,0,0,1,.242-.668.907.907,0,0,1,.716-.272.922.922,0,0,1,.721.272.96.96,0,0,1,.246.668.929.929,0,0,1-.246.659.938.938,0,0,1-.721.264.924.924,0,0,1-.716-.264A.938.938,0,0,1,152.412,51.968Zm3.929,7.189a5.617,5.617,0,0,1,.549-2.514,4.1,4.1,0,0,1,1.529-1.723,4.163,4.163,0,0,1,2.237-.606,4.01,4.01,0,0,1,3.142,1.345,5.174,5.174,0,0,1,1.2,3.577v.114a5.666,5.666,0,0,1-.532,2.492,4.038,4.038,0,0,1-1.521,1.718,4.211,4.211,0,0,1-2.272.615,4,4,0,0,1-3.133-1.345,5.147,5.147,0,0,1-1.2-3.56Zm1.635.193a4.068,4.068,0,0,0,.734,2.54,2.487,2.487,0,0,0,3.933-.013,4.449,4.449,0,0,0,.729-2.72,4.061,4.061,0,0,0-.743-2.536,2.361,2.361,0,0,0-1.973-.971,2.335,2.335,0,0,0-1.942.958A4.416,4.416,0,0,0,157.976,59.351ZM172.038,64V55.747h-1.5V54.49h1.5v-.809a3.3,3.3,0,0,1,.91-2.479,3.528,3.528,0,0,1,2.571-.888,7.741,7.741,0,0,1,2.487.536l-.272,1.371a5.633,5.633,0,0,0-2.092-.439,2.047,2.047,0,0,0-1.507.47,1.938,1.938,0,0,0-.461,1.411v.826h1.942v1.257h-1.942V64Zm6.776,0H177.18V54.49h1.635ZM183,54.49l.053,1.2a3.465,3.465,0,0,1,2.848-1.371q3.015,0,3.041,3.4V64h-1.626V57.707a2.189,2.189,0,0,0-.47-1.521,1.884,1.884,0,0,0-1.437-.492,2.347,2.347,0,0,0-1.389.422,2.865,2.865,0,0,0-.932,1.107V64H181.46V54.49ZM197.263,64a3.416,3.416,0,0,1-.229-1,3.628,3.628,0,0,1-2.707,1.178,3.357,3.357,0,0,1-2.307-.8,2.573,2.573,0,0,1-.9-2.017,2.688,2.688,0,0,1,1.129-2.307,5.325,5.325,0,0,1,3.177-.822h1.582v-.747a1.826,1.826,0,0,0-.51-1.358,2.049,2.049,0,0,0-1.5-.505,2.371,2.371,0,0,0-1.459.439,1.3,1.3,0,0,0-.589,1.063h-1.635a2.244,2.244,0,0,1,.505-1.375,3.449,3.449,0,0,1,1.371-1.05,4.613,4.613,0,0,1,1.9-.387,3.759,3.759,0,0,1,2.575.822,2.964,2.964,0,0,1,.967,2.263v4.377a5.351,5.351,0,0,0,.334,2.083V64Zm-2.7-1.239a2.858,2.858,0,0,0,1.45-.4,2.392,2.392,0,0,0,.993-1.028V59.386h-1.274q-2.988,0-2.988,1.749a1.48,1.48,0,0,0,.51,1.2A1.959,1.959,0,0,0,194.564,62.761ZM202.949,64h-1.626V50.5h1.626ZM48.578,105.806a13.589,13.589,0,0,1,.532-3.814A11.081,11.081,0,0,1,50.7,98.669a6.749,6.749,0,0,1,2.188-2.109l.334,1.072a7,7,0,0,0-2.1,3.006,13.031,13.031,0,0,0-.9,4.526l-.009.747a13.1,13.1,0,0,0,1.239,5.889,7.033,7.033,0,0,0,1.775,2.338l-.334.993a6.966,6.966,0,0,1-2.232-2.18A12.217,12.217,0,0,1,48.578,105.806Zm13.649-1.96H54.9v-1.415h7.33Zm0,3.647H54.9v-1.406h7.33Zm6.2-1.6a13.6,13.6,0,0,1-.514,3.757,11.11,11.11,0,0,1-1.573,3.318,6.893,6.893,0,0,1-2.219,2.162l-.343-.993a7.066,7.066,0,0,0,2.175-3.221,13.935,13.935,0,0,0,.839-4.847v-.281a14.469,14.469,0,0,0-.387-3.432,11.583,11.583,0,0,0-1.077-2.843,6.567,6.567,0,0,0-1.551-1.96l.343-.993a6.866,6.866,0,0,1,2.21,2.145,11.134,11.134,0,0,1,1.573,3.313A13.909,13.909,0,0,1,68.424,105.894ZM84.648,98.2v8.7a4.082,4.082,0,0,1-1.138,2.962,4.586,4.586,0,0,1-3.063,1.292l-.448.018a4.79,4.79,0,0,1-3.349-1.134,4.055,4.055,0,0,1-1.266-3.12V98.2h1.67v8.666A2.669,2.669,0,0,0,80,109.8a2.959,2.959,0,0,0,2.193-.765,2.921,2.921,0,0,0,.76-2.153V98.2Zm3.946,3.287.053,1.2a3.465,3.465,0,0,1,2.848-1.371q3.015,0,3.041,3.4V111H92.91v-6.293a2.189,2.189,0,0,0-.47-1.521A1.884,1.884,0,0,0,91,102.694a2.347,2.347,0,0,0-1.389.422,2.865,2.865,0,0,0-.932,1.107V111H87.057v-9.51ZM98.755,111H97.129v-9.51h1.626ZM97,98.968a.971.971,0,0,1,.242-.668.907.907,0,0,1,.716-.272.922.922,0,0,1,.721.272.96.96,0,0,1,.246.668.929.929,0,0,1-.246.659.938.938,0,0,1-.721.264.924.924,0,0,1-.716-.264A.938.938,0,0,1,97,98.968Zm3.964,7.2a5.571,5.571,0,0,1,1.037-3.52,3.529,3.529,0,0,1,5.361-.189V97.5h1.626V111h-1.494l-.079-1.02a3.311,3.311,0,0,1-2.716,1.2A3.248,3.248,0,0,1,102,109.822a5.634,5.634,0,0,1-1.042-3.533Zm1.626.185a4.218,4.218,0,0,0,.668,2.531,2.159,2.159,0,0,0,1.846.914,2.372,2.372,0,0,0,2.259-1.389v-4.368a2.39,2.39,0,0,0-2.241-1.345,2.17,2.17,0,0,0-1.863.923A4.644,4.644,0,0,0,102.587,106.351ZM117.379,111a3.416,3.416,0,0,1-.229-1,3.628,3.628,0,0,1-2.707,1.178,3.357,3.357,0,0,1-2.307-.8,2.573,2.573,0,0,1-.9-2.017,2.688,2.688,0,0,1,1.129-2.307,5.325,5.325,0,0,1,3.177-.822h1.582v-.747a1.826,1.826,0,0,0-.51-1.358,2.049,2.049,0,0,0-1.5-.505,2.371,2.371,0,0,0-1.459.439,1.3,1.3,0,0,0-.589,1.063h-1.635a2.244,2.244,0,0,1,.505-1.375,3.449,3.449,0,0,1,1.371-1.05,4.613,4.613,0,0,1,1.9-.387,3.759,3.759,0,0,1,2.575.822,2.964,2.964,0,0,1,.967,2.263v4.377a5.351,5.351,0,0,0,.334,2.083V111Zm-2.7-1.239a2.858,2.858,0,0,0,1.45-.4,2.392,2.392,0,0,0,.993-1.028v-1.951H115.85q-2.988,0-2.988,1.749a1.48,1.48,0,0,0,.51,1.2A1.959,1.959,0,0,0,114.681,109.761Zm6.223-3.595a5.571,5.571,0,0,1,1.037-3.52,3.529,3.529,0,0,1,5.361-.189V97.5h1.626V111h-1.494l-.079-1.02a3.311,3.311,0,0,1-2.716,1.2,3.248,3.248,0,0,1-2.694-1.354,5.634,5.634,0,0,1-1.042-3.533Zm1.626.185a4.218,4.218,0,0,0,.668,2.531,2.159,2.159,0,0,0,1.846.914,2.372,2.372,0,0,0,2.259-1.389v-4.368a2.39,2.39,0,0,0-2.241-1.345,2.17,2.17,0,0,0-1.863.923A4.644,4.644,0,0,0,122.529,106.351Zm12.867,4.825a4.155,4.155,0,0,1-3.146-1.27,4.714,4.714,0,0,1-1.213-3.4v-.3a5.707,5.707,0,0,1,.541-2.527,4.217,4.217,0,0,1,1.512-1.74,3.8,3.8,0,0,1,2.1-.628,3.562,3.562,0,0,1,2.883,1.222,5.289,5.289,0,0,1,1.028,3.5v.677h-6.442a3.38,3.38,0,0,0,.822,2.272,2.583,2.583,0,0,0,2,.866,2.832,2.832,0,0,0,1.459-.352,3.666,3.666,0,0,0,1.046-.932l.993.773A3.993,3.993,0,0,1,135.4,111.176Zm-.2-8.525a2.169,2.169,0,0,0-1.652.716,3.482,3.482,0,0,0-.826,2.008h4.764v-.123a3.1,3.1,0,0,0-.668-1.92A2.042,2.042,0,0,0,135.194,102.65Zm11.329,5.827a1.2,1.2,0,0,0-.5-1.024,4.78,4.78,0,0,0-1.731-.628,8.186,8.186,0,0,1-1.96-.633,2.788,2.788,0,0,1-1.072-.879,2.1,2.1,0,0,1-.347-1.213,2.467,2.467,0,0,1,.989-1.978,3.861,3.861,0,0,1,2.527-.809,3.974,3.974,0,0,1,2.624.835,2.652,2.652,0,0,1,1.006,2.136h-1.635a1.468,1.468,0,0,0-.567-1.151,2.124,2.124,0,0,0-1.428-.483,2.223,2.223,0,0,0-1.389.387,1.217,1.217,0,0,0-.5,1.011.986.986,0,0,0,.466.888,5.731,5.731,0,0,0,1.683.571,8.77,8.77,0,0,1,1.973.65,2.878,2.878,0,0,1,1.121.91,2.237,2.237,0,0,1,.365,1.3,2.434,2.434,0,0,1-1.02,2.043,4.277,4.277,0,0,1-2.646.769,4.789,4.789,0,0,1-2.021-.4,3.288,3.288,0,0,1-1.375-1.129,2.722,2.722,0,0,1-.5-1.569h1.626a1.683,1.683,0,0,0,.655,1.3,2.54,2.54,0,0,0,1.613.479,2.622,2.622,0,0,0,1.481-.374A1.148,1.148,0,0,0,146.523,108.478ZM160.595,111a3.416,3.416,0,0,1-.229-1,3.628,3.628,0,0,1-2.707,1.178,3.357,3.357,0,0,1-2.307-.8,2.573,2.573,0,0,1-.9-2.017,2.688,2.688,0,0,1,1.129-2.307,5.325,5.325,0,0,1,3.177-.822h1.582v-.747a1.826,1.826,0,0,0-.51-1.358,2.049,2.049,0,0,0-1.5-.505,2.371,2.371,0,0,0-1.459.439,1.3,1.3,0,0,0-.589,1.063h-1.635a2.244,2.244,0,0,1,.505-1.375,3.449,3.449,0,0,1,1.371-1.05,4.613,4.613,0,0,1,1.9-.387,3.759,3.759,0,0,1,2.575.822,2.964,2.964,0,0,1,.967,2.263v4.377a5.351,5.351,0,0,0,.334,2.083V111Zm-2.7-1.239a2.858,2.858,0,0,0,1.45-.4,2.392,2.392,0,0,0,.993-1.028v-1.951h-1.274q-2.988,0-2.988,1.749a1.48,1.48,0,0,0,.51,1.2A1.959,1.959,0,0,0,157.9,109.761Zm14.212-.967,2.355-7.3h1.661l-3.41,9.51h-1.239l-3.445-9.51h1.661Zm9.413,2.382a4.155,4.155,0,0,1-3.146-1.27,4.714,4.714,0,0,1-1.213-3.4v-.3a5.707,5.707,0,0,1,.541-2.527,4.217,4.217,0,0,1,1.512-1.74,3.8,3.8,0,0,1,2.1-.628,3.562,3.562,0,0,1,2.883,1.222,5.289,5.289,0,0,1,1.028,3.5v.677h-6.442a3.38,3.38,0,0,0,.822,2.272,2.583,2.583,0,0,0,2,.866,2.832,2.832,0,0,0,1.459-.352,3.666,3.666,0,0,0,1.046-.932l.993.773A3.993,3.993,0,0,1,181.521,111.176Zm-.2-8.525a2.169,2.169,0,0,0-1.652.716,3.482,3.482,0,0,0-.826,2.008H183.6v-.123a3.1,3.1,0,0,0-.668-1.92A2.042,2.042,0,0,0,181.319,102.65Zm7.33-1.16.053,1.2a3.465,3.465,0,0,1,2.848-1.371q3.015,0,3.041,3.4V111h-1.626v-6.293a2.189,2.189,0,0,0-.47-1.521,1.884,1.884,0,0,0-1.437-.492,2.347,2.347,0,0,0-1.389.422,2.865,2.865,0,0,0-.932,1.107V111h-1.626v-9.51Zm8,4.676a5.571,5.571,0,0,1,1.037-3.52,3.529,3.529,0,0,1,5.361-.189V97.5h1.626V111h-1.494l-.079-1.02a3.311,3.311,0,0,1-2.716,1.2,3.248,3.248,0,0,1-2.694-1.354,5.634,5.634,0,0,1-1.042-3.533Zm1.626.185a4.218,4.218,0,0,0,.668,2.531,2.159,2.159,0,0,0,1.846.914,2.372,2.372,0,0,0,2.259-1.389v-4.368a2.39,2.39,0,0,0-2.241-1.345,2.17,2.17,0,0,0-1.863.923A4.644,4.644,0,0,0,198.273,106.351Zm12.867,4.825a4.155,4.155,0,0,1-3.146-1.27,4.714,4.714,0,0,1-1.213-3.4v-.3a5.707,5.707,0,0,1,.541-2.527,4.217,4.217,0,0,1,1.512-1.74,3.8,3.8,0,0,1,2.1-.628,3.562,3.562,0,0,1,2.883,1.222,5.289,5.289,0,0,1,1.028,3.5v.677h-6.442a3.38,3.38,0,0,0,.822,2.272,2.583,2.583,0,0,0,2,.866,2.832,2.832,0,0,0,1.459-.352,3.666,3.666,0,0,0,1.046-.932l.993.773A3.993,3.993,0,0,1,211.141,111.176Zm-.2-8.525a2.169,2.169,0,0,0-1.652.716,3.482,3.482,0,0,0-.826,2.008h4.764v-.123a3.1,3.1,0,0,0-.668-1.92A2.042,2.042,0,0,0,210.938,102.65Zm10.389.3a4.873,4.873,0,0,0-.8-.062,2.143,2.143,0,0,0-2.171,1.362V111H216.73v-9.51h1.582l.026,1.1a2.532,2.532,0,0,1,2.268-1.274,1.661,1.661,0,0,1,.721.123Z" transform="translate(-9935 -6018.467)" fill="#00223d"/>
    </g>
  </g>
</svg>
