<svg xmlns="http://www.w3.org/2000/svg" width="267.552" height="239.489" viewBox="0 0 267.552 239.489">
  <g id="Delivery-amico_1_" data-name="Delivery-amico (1)" transform="translate(-49.172 -62.943)">
    <g id="freepik--Boxes--inject-27" transform="translate(49.172 94.737)">
      <path id="Trazado_112911" data-name="Trazado 112911" d="M269.431,124.084,251.792,113.9,234.16,124.084l17.632,10.184Z" transform="translate(-104.788 -108.812)" fill="#f5f5f5"/>
      <path id="Trazado_112912" data-name="Trazado 112912" d="M258.52,158.529l17.639-10.184V127.97L258.52,138.154Z" transform="translate(-111.516 -112.698)" fill="#ebebeb"/>
      <path id="Trazado_112913" data-name="Trazado 112913" d="M262.99,159.281a.543.543,0,0,1-.268-.065.818.818,0,0,1-.333-.724v-2.171h0v-.159h.109l1.694-.992v2.41a1.94,1.94,0,0,1-.832,1.578A.724.724,0,0,1,262.99,159.281Zm-.326-2.8v2a.557.557,0,0,0,.2.5.355.355,0,0,0,.362-.043,1.694,1.694,0,0,0,.724-1.339v-.174h-.63l-.123-.847Zm.869.666h.391v-1.484l-1.013.586.5.094Z" transform="translate(-112.584 -120.211)" fill="#fff"/>
      <path id="Trazado_112914" data-name="Trazado 112914" d="M263.587,162.434a.138.138,0,0,1-.138-.138v-1.81a.13.13,0,0,1,.138-.138.138.138,0,0,1,.138.138v1.781a.145.145,0,0,1-.138.166Z" transform="translate(-112.878 -121.641)" fill="#fff"/>
      <path id="Trazado_112915" data-name="Trazado 112915" d="M262.5,163.408a.13.13,0,0,1-.116-.072.123.123,0,0,1,.051-.181l1.571-.912a.138.138,0,0,1,.188.051.145.145,0,0,1-.051.188l-1.578.9Z" transform="translate(-112.577 -122.159)" fill="#fff"/>
      <path id="Trazado_112916" data-name="Trazado 112916" d="M270.191,158.236a.261.261,0,0,1-.152,0,.362.362,0,0,1-.159-.326v-.369a.134.134,0,1,1,.268,0v.391h.087a.774.774,0,0,0,.253-.608V154.95a.134.134,0,0,1,.268,0v2.417a1.049,1.049,0,0,1-.384.847A.485.485,0,0,1,270.191,158.236Z" transform="translate(-114.654 -120.114)" fill="#fff"/>
      <path id="Trazado_112917" data-name="Trazado 112917" d="M268.33,155.289v-.232a3.858,3.858,0,0,1,1.737-3.011,1.151,1.151,0,0,1,1.875,1.078v.08Zm2.548-3.214a1.317,1.317,0,0,0-.673.21,3.619,3.619,0,0,0-1.592,2.526l3.054-1.759a1,1,0,0,0-.42-.883A.724.724,0,0,0,270.878,152.076Z" transform="translate(-114.226 -119.273)" fill="#fff"/>
      <path id="Trazado_112918" data-name="Trazado 112918" d="M276.948,153.836a.138.138,0,0,1-.138-.13v-4.618a.138.138,0,0,1,.275,0v4.618A.138.138,0,0,1,276.948,153.836Z" transform="translate(-116.568 -118.493)" fill="#fff"/>
      <path id="Trazado_112919" data-name="Trazado 112919" d="M276.439,150.1h-.051a.138.138,0,0,1-.072-.181l.485-1.115.536.622a.133.133,0,1,1-.2.174l-.261-.29-.311.724a.13.13,0,0,1-.123.065Z" transform="translate(-116.428 -118.451)" fill="#fff"/>
      <path id="Trazado_112920" data-name="Trazado 112920" d="M278.719,152.841a.137.137,0,0,1-.13-.138v-4.618a.138.138,0,1,1,.268,0V152.7A.138.138,0,0,1,278.719,152.841Z" transform="translate(-117.058 -118.207)" fill="#fff"/>
      <path id="Trazado_112921" data-name="Trazado 112921" d="M278.169,149.106h-.051a.138.138,0,0,1-.072-.181l.485-1.115.536.622a.137.137,0,0,1,0,.188.145.145,0,0,1-.2,0l-.253-.3-.311.724A.138.138,0,0,1,278.169,149.106Z" transform="translate(-116.906 -118.178)" fill="#fff"/>
      <path id="Trazado_112922" data-name="Trazado 112922" d="M251.789,158.529,234.15,148.345l.007-20.375,17.632,10.184Z" transform="translate(-104.785 -112.698)" fill="#e0e0e0"/>
      <path id="Trazado_112923" data-name="Trazado 112923" d="M246.9,131.442l17.625-10.191-1.99-1.151L244.9,130.291Z" transform="translate(-107.755 -110.524)" fill="#fff"/>
      <path id="Trazado_112924" data-name="Trazado 112924" d="M237.372,144.045l6.319,3.619a2.794,2.794,0,0,1,1.252,2.171v3.894c0,.8-.565,1.129-1.252.724l-6.319-3.619a2.787,2.787,0,0,1-1.252-2.171v-3.894C236.12,143.965,236.685,143.647,237.372,144.045Z" transform="translate(-105.33 -117.09)" fill="#6595bf"/>
      <path id="Trazado_112925" data-name="Trazado 112925" d="M237.18,145.45l.239.145v4.321l-.239-.138Z" transform="translate(-105.622 -117.526)" fill="#6595bf"/>
      <path id="Trazado_112926" data-name="Trazado 112926" d="M238.53,146.23l.413.246V150.8l-.413-.239Z" transform="translate(-105.995 -117.741)" fill="#6595bf"/>
      <path id="Trazado_112927" data-name="Trazado 112927" d="M239.88,147.01l.239.138v4.328l-.239-.138Z" transform="translate(-106.368 -117.957)" fill="#6595bf"/>
      <path id="Trazado_112928" data-name="Trazado 112928" d="M240.89,147.59l.485.282V152.2l-.485-.29Z" transform="translate(-106.647 -118.117)" fill="#6595bf"/>
      <path id="Trazado_112929" data-name="Trazado 112929" d="M242.57,148.57l.246.138v4.328l-.246-.145Z" transform="translate(-107.111 -118.388)" fill="#6595bf"/>
      <path id="Trazado_112930" data-name="Trazado 112930" d="M243.547,149.12l.507.3v4.321l-.514-.3Z" transform="translate(-107.379 -118.539)" fill="#6595bf"/>
      <path id="Trazado_112931" data-name="Trazado 112931" d="M245.27,150.13l.239.138v4.321l-.239-.138Z" transform="translate(-107.857 -118.818)" fill="#6595bf"/>
      <path id="Trazado_112932" data-name="Trazado 112932" d="M246.04,150.56l.123.072v4.321l-.123-.065Z" transform="translate(-108.069 -118.937)" fill="#6595bf"/>
      <path id="Trazado_112933" data-name="Trazado 112933" d="M244.66,149.8l.116.072v4.321l-.116-.065Z" transform="translate(-107.688 -118.727)" fill="#6595bf"/>
      <path id="Trazado_112934" data-name="Trazado 112934" d="M241.94,148.21l.116.065V152.6l-.116-.072Z" transform="translate(-106.937 -118.288)" fill="#6595bf"/>
      <path id="Trazado_112935" data-name="Trazado 112935" d="M240.45,147.35l.123.072v4.328l-.123-.072Z" transform="translate(-106.525 -118.051)" fill="#6595bf"/>
      <path id="Trazado_112936" data-name="Trazado 112936" d="M239.38,146.76l.123.072v4.328l-.123-.072Z" transform="translate(-106.23 -117.888)" fill="#6595bf"/>
      <path id="Trazado_112937" data-name="Trazado 112937" d="M237.93,145.88l.123.072v4.328l-.123-.072Z" transform="translate(-105.829 -117.645)" fill="#6595bf"/>
      <path id="Trazado_112938" data-name="Trazado 112938" d="M246.62,150.9l.239.138v4.328l-.239-.138Z" transform="translate(-108.23 -119.031)" fill="#6595bf"/>
      <path id="Trazado_112939" data-name="Trazado 112939" d="M234.692,118.748,214.108,106.87,193.53,118.748l20.578,11.885Z" transform="translate(-93.566 -106.87)" fill="#f5f5f5"/>
      <path id="Trazado_112940" data-name="Trazado 112940" d="M209.01,127.688,229.6,115.811l-2-1.151L207.02,126.538Z" transform="translate(-97.292 -109.022)" fill="#fff"/>
      <path id="Trazado_112941" data-name="Trazado 112941" d="M221.96,172.506l20.585-11.878V123.28L221.96,135.165Z" transform="translate(-101.419 -111.402)" fill="#ebebeb"/>
      <path id="Trazado_112942" data-name="Trazado 112942" d="M226.429,180.428a.5.5,0,0,1-.268-.072.8.8,0,0,1-.333-.724v-2.171h0V177.3h.116l1.686-.992v2.41a1.954,1.954,0,0,1-.832,1.578.724.724,0,0,1-.369.13Zm-.326-2.8v2a.557.557,0,0,0,.2.5.355.355,0,0,0,.362-.043,1.694,1.694,0,0,0,.724-1.339v-.174h-.63l-.123-.847Zm.869.666h.427v-1.484l-1.013.594.5.087Z" transform="translate(-102.486 -126.049)" fill="#fff"/>
      <path id="Trazado_112943" data-name="Trazado 112943" d="M227.028,183.544a.138.138,0,0,1-.138-.138V181.59a.13.13,0,0,1,.138-.13.138.138,0,0,1,.138.13v1.817A.145.145,0,0,1,227.028,183.544Z" transform="translate(-102.78 -127.472)" fill="#fff"/>
      <path id="Trazado_112944" data-name="Trazado 112944" d="M225.95,184.551a.13.13,0,0,1-.116-.065.145.145,0,0,1,.051-.188l1.571-.9a.137.137,0,0,1,.188.051.13.13,0,0,1-.051.181l-1.578.912A.108.108,0,0,1,225.95,184.551Z" transform="translate(-102.484 -128.001)" fill="#fff"/>
      <path id="Trazado_112945" data-name="Trazado 112945" d="M233.631,179.338a.333.333,0,0,1-.152-.036.362.362,0,0,1-.159-.326V178.6a.134.134,0,0,1,.268,0v.463c0,.007.043,0,.087,0a.789.789,0,0,0,.253-.615v-2.41a.138.138,0,0,1,.138-.138.145.145,0,0,1,.138.138v2.41a1.021,1.021,0,0,1-.391.847A.413.413,0,0,1,233.631,179.338Z" transform="translate(-104.556 -125.936)" fill="#fff"/>
      <path id="Trazado_112946" data-name="Trazado 112946" d="M231.77,176.4v-.239a3.851,3.851,0,0,1,1.737-3,1.151,1.151,0,0,1,1.875,1.078v.08Zm2.548-3.221a1.39,1.39,0,0,0-.673.21,3.619,3.619,0,0,0-1.592,2.533l3.054-1.759a1.021,1.021,0,0,0-.42-.89.775.775,0,0,0-.369-.094Z" transform="translate(-104.128 -125.104)" fill="#fff"/>
      <path id="Trazado_112947" data-name="Trazado 112947" d="M240.428,174.943a.138.138,0,0,1-.138-.138v-4.618a.138.138,0,0,1,.275,0v4.618A.138.138,0,0,1,240.428,174.943Z" transform="translate(-106.481 -124.32)" fill="#fff"/>
      <path id="Trazado_112948" data-name="Trazado 112948" d="M239.879,171.208h-.051a.13.13,0,0,1-.072-.174l.485-1.115.536.622a.133.133,0,0,1-.2.174l-.261-.3-.311.724A.13.13,0,0,1,239.879,171.208Z" transform="translate(-106.331 -124.284)" fill="#fff"/>
      <path id="Trazado_112949" data-name="Trazado 112949" d="M242.16,173.956a.13.13,0,0,1-.13-.13v-4.618a.134.134,0,1,1,.268,0v4.618a.13.13,0,0,1-.138.13Z" transform="translate(-106.962 -124.05)" fill="#fff"/>
      <path id="Trazado_112950" data-name="Trazado 112950" d="M241.617,170.216h-.058a.145.145,0,0,1-.072-.181l.485-1.115.543.622a.145.145,0,0,1,0,.188.138.138,0,0,1-.2,0l-.253-.3-.311.724a.13.13,0,0,1-.138.058Z" transform="translate(-106.809 -124.008)" fill="#fff"/>
      <path id="Trazado_112951" data-name="Trazado 112951" d="M214.108,172.506,193.53,160.628V123.28l20.578,11.885Z" transform="translate(-93.566 -111.402)" fill="#e0e0e0"/>
      <path id="Trazado_112952" data-name="Trazado 112952" d="M198.832,164.083l6.312,3.619a2.787,2.787,0,0,1,1.259,2.171v3.9c0,.8-.565,1.122-1.259.724l-6.312-3.619a2.765,2.765,0,0,1-1.252-2.171v-3.894C197.58,163.974,198.145,163.685,198.832,164.083Z" transform="translate(-94.685 -122.623)" fill="#f5f5f5"/>
      <path id="Trazado_112953" data-name="Trazado 112953" d="M198.64,165.49l.239.145v4.321l-.239-.138Z" transform="translate(-94.977 -123.061)" fill="#e0e0e0"/>
      <path id="Trazado_112954" data-name="Trazado 112954" d="M199.99,166.27l.413.246v4.328l-.413-.246Z" transform="translate(-95.35 -123.276)" fill="#e0e0e0"/>
      <path id="Trazado_112955" data-name="Trazado 112955" d="M201.33,167.05l.246.138-.007,4.328-.239-.138Z" transform="translate(-95.72 -123.492)" fill="#e0e0e0"/>
      <path id="Trazado_112956" data-name="Trazado 112956" d="M202.35,167.63l.478.282v4.328l-.478-.29Z" transform="translate(-96.002 -123.652)" fill="#e0e0e0"/>
      <path id="Trazado_112957" data-name="Trazado 112957" d="M204.03,168.61l.239.138v4.328l-.239-.145Z" transform="translate(-96.466 -123.923)" fill="#e0e0e0"/>
      <path id="Trazado_112958" data-name="Trazado 112958" d="M205,169.16l.514.3v4.321l-.514-.3Z" transform="translate(-96.734 -124.075)" fill="#e0e0e0"/>
      <path id="Trazado_112959" data-name="Trazado 112959" d="M206.73,170.16l.239.145v4.321l-.239-.138Z" transform="translate(-97.212 -124.351)" fill="#e0e0e0"/>
      <path id="Trazado_112960" data-name="Trazado 112960" d="M207.5,170.6l.123.072V175l-.123-.072Z" transform="translate(-97.425 -124.472)" fill="#e0e0e0"/>
      <path id="Trazado_112961" data-name="Trazado 112961" d="M206.12,169.84l.116.072v4.321l-.116-.065Z" transform="translate(-97.043 -124.262)" fill="#e0e0e0"/>
      <path id="Trazado_112962" data-name="Trazado 112962" d="M203.4,168.25l.116.065v4.328l-.116-.072Z" transform="translate(-96.292 -123.823)" fill="#e0e0e0"/>
      <path id="Trazado_112963" data-name="Trazado 112963" d="M201.91,167.39l.116.072v4.328l-.116-.072Z" transform="translate(-95.881 -123.586)" fill="#e0e0e0"/>
      <path id="Trazado_112964" data-name="Trazado 112964" d="M200.84,166.8l.123.072V171.2l-.123-.072Z" transform="translate(-95.585 -123.423)" fill="#e0e0e0"/>
      <path id="Trazado_112965" data-name="Trazado 112965" d="M199.39,165.92l.123.072v4.328l-.123-.072Z" transform="translate(-95.185 -123.18)" fill="#e0e0e0"/>
      <path id="Trazado_112966" data-name="Trazado 112966" d="M208.08,170.94l.239.138v4.328l-.239-.138Z" transform="translate(-97.585 -124.566)" fill="#e0e0e0"/>
      <path id="Trazado_112967" data-name="Trazado 112967" d="M207.02,135.891l1.99,1.151v-4.821l-1.99-1.151Z" transform="translate(-97.292 -113.554)" fill="#f0f0f0"/>
      <path id="Trazado_112968" data-name="Trazado 112968" d="M151.628,173.983l-14.7-8.483L116.35,177.378l14.7,8.49Z" transform="translate(-72.249 -123.064)" fill="#f5f5f5"/>
      <path id="Trazado_112969" data-name="Trazado 112969" d="M136.66,223.051l20.578-11.878V177.22L136.66,189.1Z" transform="translate(-77.859 -126.301)" fill="#ebebeb"/>
      <path id="Trazado_112970" data-name="Trazado 112970" d="M141.122,229.638a.471.471,0,0,1-.261-.072.8.8,0,0,1-.333-.724v-2.171h0v-.159h.109l1.694-.992v2.41a1.954,1.954,0,0,1-.832,1.578.767.767,0,0,1-.376.13Zm-.318-2.8v2a.543.543,0,0,0,.2.5.384.384,0,0,0,.362-.043,1.694,1.694,0,0,0,.724-1.339v-.174h-.63l-.123-.847Zm.869.666h.391v-1.491l-1.013.594.5.087Z" transform="translate(-78.926 -139.641)" fill="#fff"/>
      <path id="Trazado_112971" data-name="Trazado 112971" d="M141.728,232.794a.138.138,0,0,1-.138-.138V230.84a.134.134,0,0,1,.268,0v1.817A.138.138,0,0,1,141.728,232.794Z" transform="translate(-79.22 -141.075)" fill="#fff"/>
      <path id="Trazado_112972" data-name="Trazado 112972" d="M140.637,233.761a.123.123,0,0,1-.116-.065.13.13,0,0,1,.043-.188l1.578-.9a.137.137,0,0,1,.188.051.13.13,0,0,1-.051.181l-1.578.912A.109.109,0,0,1,140.637,233.761Z" transform="translate(-78.919 -141.592)" fill="#fff"/>
      <path id="Trazado_112973" data-name="Trazado 112973" d="M148.331,228.576a.333.333,0,0,1-.152-.036.362.362,0,0,1-.159-.326v-.376a.134.134,0,0,1,.268,0v.463c0,.007.043,0,.087,0a.818.818,0,0,0,.253-.615v-2.41a.138.138,0,1,1,.268,0v2.41a1.042,1.042,0,0,1-.384.847.412.412,0,0,1-.181.043Z" transform="translate(-80.996 -139.527)" fill="#fff"/>
      <path id="Trazado_112974" data-name="Trazado 112974" d="M146.47,225.658v-.239a3.851,3.851,0,0,1,1.737-3,1.144,1.144,0,0,1,1.867,1.078v.08Zm2.548-3.221a1.389,1.389,0,0,0-.673.21,3.619,3.619,0,0,0-1.592,2.533l3.054-1.766a1.013,1.013,0,0,0-.42-.883.774.774,0,0,0-.362-.1Z" transform="translate(-80.568 -138.708)" fill="#fff"/>
      <path id="Trazado_112975" data-name="Trazado 112975" d="M155.128,224.193a.138.138,0,0,1-.138-.138v-4.618a.138.138,0,1,1,.275,0v4.618A.138.138,0,0,1,155.128,224.193Z" transform="translate(-82.921 -137.923)" fill="#fff"/>
      <path id="Trazado_112976" data-name="Trazado 112976" d="M154.579,220.508h-.051a.13.13,0,0,1-.072-.174l.485-1.115.536.622a.133.133,0,1,1-.2.174l-.261-.3-.311.724A.13.13,0,0,1,154.579,220.508Z" transform="translate(-82.771 -137.901)" fill="#fff"/>
      <path id="Trazado_112977" data-name="Trazado 112977" d="M156.858,223.206a.138.138,0,0,1-.138-.13v-4.618a.138.138,0,0,1,.138-.138.13.13,0,0,1,.138.138v4.618a.13.13,0,0,1-.138.13Z" transform="translate(-83.399 -137.653)" fill="#fff"/>
      <path id="Trazado_112978" data-name="Trazado 112978" d="M156.309,219.508a.072.072,0,0,1-.051,0,.13.13,0,0,1-.072-.174l.485-1.115.536.622a.136.136,0,0,1-.2.188l-.253-.3-.311.724a.137.137,0,0,1-.137.051Z" transform="translate(-83.249 -137.625)" fill="#fff"/>
      <path id="Trazado_112979" data-name="Trazado 112979" d="M131.05,224.346l-14.7-8.483V181.91l14.7,8.49Z" transform="translate(-72.249 -127.596)" fill="#e0e0e0"/>
      <path id="Trazado_112980" data-name="Trazado 112980" d="M125.78,192.18l1.99,1.151v-4.821l-1.99-1.151Z" transform="translate(-74.853 -129.101)" fill="#f5f5f5"/>
      <path id="Trazado_112981" data-name="Trazado 112981" d="M127.77,183.976l20.585-11.885-2-1.151L125.78,182.825Z" transform="translate(-74.853 -124.566)" fill="#fff"/>
      <path id="Trazado_112982" data-name="Trazado 112982" d="M108.337,211.262,81.882,195.99,55.42,211.262l26.462,15.279Z" transform="translate(-55.42 -131.485)" fill="#f5f5f5"/>
      <path id="Trazado_112983" data-name="Trazado 112983" d="M91.98,252.737l26.455-15.272V217.09L91.98,232.369Z" transform="translate(-65.518 -137.313)" fill="#ebebeb"/>
      <path id="Trazado_112984" data-name="Trazado 112984" d="M96.442,255.426a.543.543,0,0,1-.261-.072.811.811,0,0,1-.333-.724v-2.171h0V252.3h.109l1.694-1v2.417a1.954,1.954,0,0,1-.832,1.571A.781.781,0,0,1,96.442,255.426Zm-.326-2.8v2a.536.536,0,0,0,.2.492.369.369,0,0,0,.369-.036,1.708,1.708,0,0,0,.724-1.339v-.181h-.651l-.123-.847Zm.869.666h.42v-1.484L96.4,252.4l.5.087Z" transform="translate(-66.586 -146.762)" fill="#fff"/>
      <path id="Trazado_112985" data-name="Trazado 112985" d="M97.039,258.573a.13.13,0,0,1-.13-.13v-1.817a.138.138,0,1,1,.268,0v1.817a.13.13,0,0,1-.138.13Z" transform="translate(-66.878 -148.186)" fill="#fff"/>
      <path id="Trazado_112986" data-name="Trazado 112986" d="M95.951,259.549a.138.138,0,0,1-.065-.253l1.578-.9a.123.123,0,0,1,.181.043.13.13,0,0,1-.043.188l-1.578.926Z" transform="translate(-66.579 -148.714)" fill="#fff"/>
      <path id="Trazado_112987" data-name="Trazado 112987" d="M103.641,254.4a.332.332,0,0,1-.145,0,.362.362,0,0,1-.166-.333V253.7a.138.138,0,0,1,.275,0v.369a.152.152,0,0,0,0,.094h.094a.818.818,0,0,0,.246-.615v-2.41a.145.145,0,0,1,.138-.138.138.138,0,0,1,.138.138v2.41a1.042,1.042,0,0,1-.384.847A.42.42,0,0,1,103.641,254.4Z" transform="translate(-68.652 -146.679)" fill="#fff"/>
      <path id="Trazado_112988" data-name="Trazado 112988" d="M101.79,251.448v-.239a3.814,3.814,0,0,1,1.737-3,1.144,1.144,0,0,1,1.867,1.078v.08Zm2.548-3.221a1.448,1.448,0,0,0-.68.21,3.619,3.619,0,0,0-1.585,2.533l3.047-1.766a1.006,1.006,0,0,0-.413-.883A.724.724,0,0,0,104.338,248.227Z" transform="translate(-68.227 -145.831)" fill="#fff"/>
      <path id="Trazado_112989" data-name="Trazado 112989" d="M110.446,249.981a.13.13,0,0,1-.138-.138v-4.618a.138.138,0,1,1,.268,0v4.618a.13.13,0,0,1-.13.138Z" transform="translate(-70.579 -145.037)" fill="#fff"/>
      <path id="Trazado_112990" data-name="Trazado 112990" d="M109.947,246.256h-.058a.13.13,0,0,1-.065-.181l.478-1.115.543.622a.139.139,0,0,1-.21.181l-.253-.3-.311.724A.137.137,0,0,1,109.947,246.256Z" transform="translate(-70.442 -145.011)" fill="#fff"/>
      <path id="Trazado_112991" data-name="Trazado 112991" d="M112.178,249a.138.138,0,0,1-.138-.138v-4.618a.138.138,0,1,1,.275,0v4.618a.138.138,0,0,1-.138.138Z" transform="translate(-71.058 -144.776)" fill="#fff"/>
      <path id="Trazado_112992" data-name="Trazado 112992" d="M111.629,245.266h-.051a.13.13,0,0,1-.072-.174l.485-1.122.536.622a.137.137,0,0,1,0,.2.13.13,0,0,1-.188,0l-.261-.3-.311.724a.13.13,0,0,1-.138.051Z" transform="translate(-70.908 -144.737)" fill="#fff"/>
      <path id="Trazado_112993" data-name="Trazado 112993" d="M81.882,252.737,55.42,237.465V217.09l26.462,15.279Z" transform="translate(-55.42 -137.313)" fill="#e0e0e0"/>
      <path id="Trazado_112994" data-name="Trazado 112994" d="M72.32,231.671l1.99,1.151V228l-1.99-1.151Z" transform="translate(-60.088 -140.009)" fill="#f5f5f5"/>
      <path id="Trazado_112995" data-name="Trazado 112995" d="M74.31,222.17,100.773,206.9l-1.99-1.158L72.32,221.019Z" transform="translate(-60.088 -134.178)" fill="#fff"/>
      <path id="Trazado_112996" data-name="Trazado 112996" d="M60.732,234.45l6.312,3.619A2.787,2.787,0,0,1,68.3,240.24v3.9c0,.8-.565,1.122-1.259.724l-6.312-3.619a2.765,2.765,0,0,1-1.252-2.171v-3.894C59.48,234.37,60.045,234.08,60.732,234.45Z" transform="translate(-56.541 -142.064)" fill="#f5f5f5"/>
      <path id="Trazado_112997" data-name="Trazado 112997" d="M60.54,235.85l.239.138v4.328l-.239-.138Z" transform="translate(-56.834 -142.494)" fill="#e0e0e0"/>
      <path id="Trazado_112998" data-name="Trazado 112998" d="M61.88,236.63l.42.246V241.2l-.42-.239Z" transform="translate(-57.204 -142.71)" fill="#e0e0e0"/>
      <path id="Trazado_112999" data-name="Trazado 112999" d="M63.23,237.41l.246.138-.007,4.328-.239-.138Z" transform="translate(-57.577 -142.925)" fill="#e0e0e0"/>
      <path id="Trazado_113000" data-name="Trazado 113000" d="M64.25,237.99l.485.282-.007,4.328-.478-.29Z" transform="translate(-57.859 -143.085)" fill="#e0e0e0"/>
      <path id="Trazado_113001" data-name="Trazado 113001" d="M65.93,238.97l.239.138v4.328l-.239-.145Z" transform="translate(-58.323 -143.356)" fill="#e0e0e0"/>
      <path id="Trazado_113002" data-name="Trazado 113002" d="M66.9,239.52l.514.3v4.321l-.514-.3Z" transform="translate(-58.591 -143.508)" fill="#e0e0e0"/>
      <path id="Trazado_113003" data-name="Trazado 113003" d="M68.63,240.53l.239.138v4.321l-.239-.138Z" transform="translate(-59.069 -143.787)" fill="#e0e0e0"/>
      <path id="Trazado_113004" data-name="Trazado 113004" d="M69.4,240.96l.123.072v4.321l-.123-.065Z" transform="translate(-59.281 -143.906)" fill="#e0e0e0"/>
      <path id="Trazado_113005" data-name="Trazado 113005" d="M68.02,240.2l.116.065v4.328l-.116-.065Z" transform="translate(-58.9 -143.696)" fill="#e0e0e0"/>
      <path id="Trazado_113006" data-name="Trazado 113006" d="M65.3,238.61l.116.065V243l-.116-.072Z" transform="translate(-58.149 -143.257)" fill="#e0e0e0"/>
      <path id="Trazado_113007" data-name="Trazado 113007" d="M63.81,237.75l.123.072v4.321l-.123-.065Z" transform="translate(-57.737 -143.019)" fill="#e0e0e0"/>
      <path id="Trazado_113008" data-name="Trazado 113008" d="M62.74,237.16l.123.072v4.328l-.123-.072Z" transform="translate(-57.442 -142.856)" fill="#e0e0e0"/>
      <path id="Trazado_113009" data-name="Trazado 113009" d="M61.29,236.28l.123.072v4.321l-.123-.065Z" transform="translate(-57.041 -142.613)" fill="#e0e0e0"/>
      <path id="Trazado_113010" data-name="Trazado 113010" d="M69.98,241.3l.239.145v4.321l-.239-.138Z" transform="translate(-59.441 -144)" fill="#e0e0e0"/>
      <path id="Trazado_113011" data-name="Trazado 113011" d="M104.7,156.275,84.125,144.39,63.54,156.275l20.585,11.878Z" transform="translate(-57.663 -117.233)" fill="#f5f5f5"/>
      <path id="Trazado_113012" data-name="Trazado 113012" d="M91.98,213.43l20.578-11.885V160.81L91.98,172.688Z" transform="translate(-65.518 -121.768)" fill="#ebebeb"/>
      <path id="Trazado_113013" data-name="Trazado 113013" d="M96.442,222.6a.535.535,0,0,1-.261-.065.811.811,0,0,1-.333-.724v-2.171h0v-.159h.109l1.694-.992v2.41a1.962,1.962,0,0,1-.832,1.578.767.767,0,0,1-.376.123Zm-.326-2.8v2a.55.55,0,0,0,.2.492.369.369,0,0,0,.369-.036,1.723,1.723,0,0,0,.724-1.346v-.174h-.651l-.123-.847Zm.869.666h.42v-1.484l-1.006.594.5.087Z" transform="translate(-66.586 -137.7)" fill="#fff"/>
      <path id="Trazado_113014" data-name="Trazado 113014" d="M97.04,225.754a.13.13,0,0,1-.13-.138v-1.809a.134.134,0,1,1,.268,0v1.809a.13.13,0,0,1-.138.138Z" transform="translate(-66.88 -139.13)" fill="#fff"/>
      <path id="Trazado_113015" data-name="Trazado 113015" d="M95.951,226.728a.138.138,0,0,1-.065-.253l1.578-.912a.138.138,0,1,1,.138.239l-1.578.9a.123.123,0,0,1-.072.022Z" transform="translate(-66.579 -139.648)" fill="#fff"/>
      <path id="Trazado_113016" data-name="Trazado 113016" d="M103.641,221.561a.26.26,0,0,1-.145-.043.347.347,0,0,1-.166-.326v-.369a.138.138,0,1,1,.275,0v.369a.152.152,0,0,0,0,.094.174.174,0,0,0,.094,0,.782.782,0,0,0,.246-.608v-2.41a.138.138,0,0,1,.138-.138.13.13,0,0,1,.138.138v2.41a1.042,1.042,0,0,1-.384.847A.42.42,0,0,1,103.641,221.561Z" transform="translate(-68.652 -137.6)" fill="#fff"/>
      <path id="Trazado_113017" data-name="Trazado 113017" d="M101.79,218.662v-.232a3.843,3.843,0,0,1,1.737-3.011,1.151,1.151,0,0,1,1.867,1.086v.072Zm2.548-3.214a1.448,1.448,0,0,0-.68.21,3.619,3.619,0,0,0-1.585,2.526l3.047-1.759a.992.992,0,0,0-.413-.883.724.724,0,0,0-.369-.13Z" transform="translate(-68.227 -136.778)" fill="#fff"/>
      <path id="Trazado_113018" data-name="Trazado 113018" d="M110.446,217.121a.138.138,0,0,1-.138-.138v-4.618a.138.138,0,1,1,.268,0v4.618a.138.138,0,0,1-.13.138Z" transform="translate(-70.579 -135.961)" fill="#fff"/>
      <path id="Trazado_113019" data-name="Trazado 113019" d="M109.947,213.416h-.058a.13.13,0,0,1-.065-.181l.478-1.115.543.622a.138.138,0,0,1,0,.188.145.145,0,0,1-.2,0l-.253-.3-.311.724a.13.13,0,0,1-.138.058Z" transform="translate(-70.442 -135.94)" fill="#fff"/>
      <path id="Trazado_113020" data-name="Trazado 113020" d="M112.178,216.133a.145.145,0,0,1-.138-.138v-4.618a.138.138,0,0,1,.275,0V216a.145.145,0,0,1-.138.138Z" transform="translate(-71.058 -135.697)" fill="#fff"/>
      <path id="Trazado_113021" data-name="Trazado 113021" d="M111.629,212.436h-.051a.138.138,0,0,1-.072-.181l.485-1.115.536.622a.138.138,0,0,1,0,.2.145.145,0,0,1-.188,0l-.261-.3-.311.724A.138.138,0,0,1,111.629,212.436Z" transform="translate(-70.908 -135.669)" fill="#fff"/>
      <path id="Trazado_113022" data-name="Trazado 113022" d="M84.125,213.43,63.54,201.545V160.81l20.585,11.878Z" transform="translate(-57.663 -121.768)" fill="#e0e0e0"/>
      <path id="Trazado_113023" data-name="Trazado 113023" d="M77.03,173.41l2,1.151v-4.813l-2-1.158Z" transform="translate(-61.389 -123.917)" fill="#f5f5f5"/>
      <path id="Trazado_113024" data-name="Trazado 113024" d="M79.028,165.216l20.578-11.885-1.99-1.151L77.03,164.058Z" transform="translate(-61.389 -119.385)" fill="#fff"/>
      <path id="Trazado_113025" data-name="Trazado 113025" d="M68.849,206.3l6.312,3.619a2.758,2.758,0,0,1,1.252,2.171v3.894c0,.8-.557,1.122-1.252.724l-6.312-3.619a2.765,2.765,0,0,1-1.259-2.171v-3.894C67.6,206.223,68.155,205.9,68.849,206.3Z" transform="translate(-58.781 -134.284)" fill="#f5f5f5"/>
      <path id="Trazado_113026" data-name="Trazado 113026" d="M68.65,207.71l.239.138v4.328l-.239-.145Z" transform="translate(-59.074 -134.722)" fill="#e0e0e0"/>
      <path id="Trazado_113027" data-name="Trazado 113027" d="M70,208.49l.413.239v4.328L70,212.811Z" transform="translate(-59.447 -134.938)" fill="#e0e0e0"/>
      <path id="Trazado_113028" data-name="Trazado 113028" d="M71.35,209.26l.239.145v4.321l-.239-.138Z" transform="translate(-59.82 -135.15)" fill="#e0e0e0"/>
      <path id="Trazado_113029" data-name="Trazado 113029" d="M72.37,209.84l.478.29v4.321l-.478-.282Z" transform="translate(-60.102 -135.31)" fill="#e0e0e0"/>
      <path id="Trazado_113030" data-name="Trazado 113030" d="M74.05,210.82l.239.138v4.328l-.239-.138Z" transform="translate(-60.566 -135.581)" fill="#e0e0e0"/>
      <path id="Trazado_113031" data-name="Trazado 113031" d="M75.02,211.37l.514.3V216l-.514-.3Z" transform="translate(-60.834 -135.733)" fill="#e0e0e0"/>
      <path id="Trazado_113032" data-name="Trazado 113032" d="M76.75,212.38l.239.138v4.328l-.239-.145Z" transform="translate(-61.311 -136.012)" fill="#e0e0e0"/>
      <path id="Trazado_113033" data-name="Trazado 113033" d="M77.52,212.82l.116.065v4.328l-.116-.072Z" transform="translate(-61.524 -136.133)" fill="#e0e0e0"/>
      <path id="Trazado_113034" data-name="Trazado 113034" d="M76.13,212.05l.123.072v4.328l-.123-.072Z" transform="translate(-61.14 -135.921)" fill="#e0e0e0"/>
      <path id="Trazado_113035" data-name="Trazado 113035" d="M73.41,210.46l.123.072v4.321l-.123-.065Z" transform="translate(-60.389 -135.482)" fill="#e0e0e0"/>
      <path id="Trazado_113036" data-name="Trazado 113036" d="M71.92,209.61l.123.065V214l-.123-.072Z" transform="translate(-59.977 -135.247)" fill="#e0e0e0"/>
      <path id="Trazado_113037" data-name="Trazado 113037" d="M70.86,209.02l.116.065v4.328l-.116-.072Z" transform="translate(-59.685 -135.084)" fill="#e0e0e0"/>
      <path id="Trazado_113038" data-name="Trazado 113038" d="M69.41,208.14l.116.065v4.328l-.116-.072Z" transform="translate(-59.284 -134.841)" fill="#e0e0e0"/>
      <path id="Trazado_113039" data-name="Trazado 113039" d="M78.09,213.16l.246.138v4.321l-.246-.138Z" transform="translate(-61.681 -136.227)" fill="#e0e0e0"/>
    </g>
    <g id="freepik--Device--inject-27" transform="translate(53.594 141.666)">
      <path id="Trazado_113040" data-name="Trazado 113040" d="M63.315,275.965l79,45.6a6.927,6.927,0,0,0,6.268,0L321.661,221.68c1.73-1,1.73-2.62,0-3.619l-79-45.6a6.883,6.883,0,0,0-6.268,0L63.315,272.346C61.585,273.345,61.585,274.966,63.315,275.965Z" transform="translate(-61.665 -171.707)" fill="#455a64"/>
      <path id="Trazado_113041" data-name="Trazado 113041" d="M122.11,342.684a9.641,9.641,0,0,0,8.686,0c2.41-1.39,2.41-3.619,0-5.03a9.6,9.6,0,0,0-8.686,0C119.7,339.065,119.7,341.309,122.11,342.684Z" transform="translate(-77.763 -217.255)" fill="#263238"/>
      <path id="Trazado_113042" data-name="Trazado 113042" d="M143.659,360.1l-79-45.6c-1.549-.9-1.708-2.287-.485-3.286a7.014,7.014,0,0,0-2.649,5.067v2.946a6.934,6.934,0,0,0,3.134,5.428l79,45.6a6.392,6.392,0,0,0,3.134.724V360.848A6.391,6.391,0,0,1,143.659,360.1Z" transform="translate(-61.53 -210.238)" fill="#37474f"/>
      <path id="Trazado_113043" data-name="Trazado 113043" d="M353.489,249.641a6.92,6.92,0,0,0,3.141-5.428v-2.946a6.963,6.963,0,0,0-2.656-5.067c1.23,1,1.071,2.389-.478,3.279l-173.082,99.9a6.435,6.435,0,0,1-3.134.724v10.184a6.435,6.435,0,0,0,3.134-.724Z" transform="translate(-93.5 -189.52)" fill="#263238"/>
      <path id="Trazado_113044" data-name="Trazado 113044" d="M161.78,315.826,86.172,272.152a1.145,1.145,0,0,1,0-2.171l146.15-84.4a4.155,4.155,0,0,1,3.764,0l75.637,43.667a1.147,1.147,0,0,1,0,2.171L165.515,315.826a4.155,4.155,0,0,1-3.735,0Z" transform="translate(-68.12 -175.414)" fill="#fff"/>
      <path id="Trazado_113045" data-name="Trazado 113045" d="M147.719,329.419l8.823-5.1L153.6,322.63l-8.823,5.088Z" transform="translate(-84.524 -213.392)" fill="#afafaf"/>
      <path id="Trazado_113046" data-name="Trazado 113046" d="M293.959,244.989l8.823-5.1-2.946-1.694-8.816,5.1Z" transform="translate(-124.915 -190.072)" fill="#afafaf"/>
      <path id="Trazado_113047" data-name="Trazado 113047" d="M318.329,230.919l8.823-5.1-2.939-1.694-8.823,5.088Z" transform="translate(-131.646 -186.186)" fill="#afafaf"/>
      <path id="Trazado_113048" data-name="Trazado 113048" d="M358.4,208.272a2.468,2.468,0,0,0,2.208,0,.673.673,0,0,0,0-1.274,2.425,2.425,0,0,0-2.208,0,.673.673,0,0,0,0,1.274Z" transform="translate(-143.399 -181.381)" fill="#263238"/>
      <path id="Trazado_113049" data-name="Trazado 113049" d="M363.092,221.5a4.878,4.878,0,0,0,4.408,0c1.216-.724,1.216-1.846,0-2.548a4.878,4.878,0,0,0-4.408,0A1.346,1.346,0,0,0,363.092,221.5Z" transform="translate(-144.57 -184.61)" fill="#263238"/>
      <path id="Trazado_113050" data-name="Trazado 113050" d="M352.2,212.535c.811-.47.767-1.252-.094-1.752l-14.476-8.374a3.337,3.337,0,0,0-3.04-.058c-.811.47-.767,1.252.094,1.752l14.519,8.374A3.344,3.344,0,0,0,352.2,212.535Z" transform="translate(-136.788 -180.078)" fill="#263238"/>
    </g>
    <g id="freepik--Locator--inject-27" transform="translate(239.594 134.733)">
      <path id="Trazado_113051" data-name="Trazado 113051" d="M324.6,167.558l.492-.29a13.753,13.753,0,0,0-.492,3.793v1.766c0,6.34,7.607,22.539,10.408,28.272.289.6-3.554,4.69-3.554,4.69l4.567-2.635s11.414-9.409,11.414-17.14v-1.766c0-7.766-5.11-17.009-11.414-20.65-3.185-1.831-6.058-1.9-8.128-.507h0l-4.343,2.49Zm5.711,5.928c0-3.619,2.555-5.117,5.711-3.293-.261,2.338,4.01,9.619,5.7,9.887,0,3.619-2.555,5.117-5.7,3.293a12.609,12.609,0,0,1-5.682-9.887Z" transform="translate(-319.9 -162.128)" fill="#a66d58"/>
      <path id="Trazado_113052" data-name="Trazado 113052" d="M318.509,176.7c.13,7.759,11.914,30.132,11.914,30.132s11.262-9.569,11.139-17.328v-1.766c-.13-7.759-5.392-16.922-11.762-20.455s-11.422-.116-11.291,7.651Zm5.718.565c-.058-3.619,2.475-5.161,5.653-3.395a12.616,12.616,0,0,1,5.87,9.793c.065,3.619-2.468,5.161-5.653,3.395a12.652,12.652,0,0,1-5.87-9.793Z" transform="translate(-318.507 -163.166)" fill="#eaccb2"/>
      <path id="Trazado_113053" data-name="Trazado 113053" d="M318.509,176.7c.13,7.759,11.914,30.132,11.914,30.132s11.262-9.569,11.139-17.328v-1.766c-.13-7.759-5.392-16.922-11.762-20.455s-11.422-.116-11.291,7.651Zm5.718.565c-.058-3.619,2.475-5.161,5.653-3.395a12.616,12.616,0,0,1,5.87,9.793c.065,3.619-2.468,5.161-5.653,3.395a12.652,12.652,0,0,1-5.87-9.793Z" transform="translate(-318.507 -163.166)" opacity="0.1"/>
    </g>
    <g id="freepik--Shadow--inject-27" transform="translate(125.924 198.971)">
      <path id="Trazado_113054" data-name="Trazado 113054" d="M164.746,303.652c7.318,4.212,24.472,1.151,38.318-6.847L241.1,274.852c13.846-8,19.13-17.885,11.8-22.09s-24.5-1.129-38.361,6.862l-37.963,21.924C162.734,289.538,157.436,299.461,164.746,303.652Z" transform="translate(-161.461 -250.879)" fill="#f0f0f0"/>
    </g>
    <g id="freepik--Chronometer--inject-27" transform="translate(233.054 62.943)">
      <g id="freepik--Clock--inject-27">
        <path id="Trazado_113055" data-name="Trazado 113055" d="M316.368,67.7h.036l6.261-3.619h.051c3.945-2,9.214-1.448,14.889,2.244,11.407,7.339,20.114,24.276,19.456,37.819-.333,6.753-2.9,11.385-6.854,13.426h-.036l-6.268,3.619h-.043c-3.945,2-9.221,1.448-14.9-2.237-11.4-7.347-20.107-24.276-19.448-37.819C309.854,74.377,312.452,69.745,316.368,67.7Z" transform="translate(-309.472 -62.943)" fill="#37474f"/>
        <path id="Trazado_113056" data-name="Trazado 113056" d="M357.48,129.469l5.971-3.474h.043c3.923-2.048,6.514-6.681,6.847-13.426a42.226,42.226,0,0,0-4.118-18.978l-6.268,3.619a42.043,42.043,0,0,1,4.118,18.985C363.763,122.781,361.273,127.362,357.48,129.469Z" transform="translate(-322.732 -71.408)" fill="#263238"/>
        <path id="Trazado_113057" data-name="Trazado 113057" d="M329,120.314c-11.4-7.347-20.107-24.276-19.448-37.818S320,63.923,331.376,71.262s20.114,24.276,19.456,37.818S340.395,127.654,329,120.314Z" transform="translate(-309.483 -64.309)" fill="#455a64"/>
        <path id="Trazado_113058" data-name="Trazado 113058" d="M340.186,121c6.724.326,7.817-7.238,7.962-10.5.579-11.943-7.426-27.5-17.48-33.982a15.2,15.2,0,0,0-7.238-2.678c-6.717-.326-7.81,7.238-7.962,10.5-.579,11.943,7.419,27.5,17.48,34.019a15.2,15.2,0,0,0,7.238,2.678Z" transform="translate(-311.12 -65.952)" fill="#fafafa"/>
        <path id="Trazado_113059" data-name="Trazado 113059" d="M332.412,102.379a.63.63,0,0,0,.232-.043.724.724,0,0,0,.5-.724V84.364a.724.724,0,1,0-1.448,0V99.513l-8.056-10.35a.733.733,0,1,0-1.158.9l9.373,12.037A.724.724,0,0,0,332.412,102.379Z" transform="translate(-313.023 -68.66)" fill="#37474f"/>
        <path id="Trazado_113060" data-name="Trazado 113060" d="M340.341,121.715a.26.26,0,0,0,.1,0,.311.311,0,0,0,.21-.376l-4.06-13.673a.306.306,0,0,0-.586.174l4.053,13.673A.3.3,0,0,0,340.341,121.715Z" transform="translate(-316.797 -75.235)" fill="#eaccb2"/>
        <path id="Trazado_113061" data-name="Trazado 113061" d="M335.6,103.589c-1.346-.861-2.5-.268-2.569,1.325a5.515,5.515,0,0,0,2.287,4.444c1.339.869,2.49.275,2.569-1.317a5.551,5.551,0,0,0-2.287-4.451Z" transform="translate(-315.978 -74.061)" fill="#eaccb2"/>
      </g>
    </g>
    <g id="freepik--Character--inject-27" transform="translate(116.811 140.751)">
      <path id="Trazado_113062" data-name="Trazado 113062" d="M172.1,315.349l8.816-5.1-2.939-1.694-8.816,5.088Z" transform="translate(-154.474 -208.59)" fill="#6595bf"/>
      <path id="Trazado_113063" data-name="Trazado 113063" d="M196.469,301.279l8.823-5.1-2.946-1.694-8.816,5.088Z" transform="translate(-161.205 -204.704)" fill="#6595bf"/>
      <path id="Trazado_113064" data-name="Trazado 113064" d="M187.512,299.19a14.854,14.854,0,0,1-6.666,11.581c-1.962,1.136-3.728,1.173-4.944.318h0a4.393,4.393,0,0,1-1.672-3.206,8.115,8.115,0,0,0,.724-.384,14.731,14.731,0,0,0,6.666-11.581,6.609,6.609,0,0,0-.058-.948,4.5,4.5,0,0,1,3.619-.261C186.629,295.318,187.512,296.889,187.512,299.19Z" transform="translate(-155.874 -204.693)" fill="#263238"/>
      <path id="Trazado_113065" data-name="Trazado 113065" d="M186.709,288.661l-.123-.072c-1.853-.984-4.343-.8-7.144.8-5.682,3.279-10.292,11.255-10.292,17.82,0,3.3,1.165,5.609,3.047,6.681s4.422.89,7.238-.724c5.682-3.279,10.285-11.262,10.285-17.827C189.728,292.042,188.584,289.733,186.709,288.661Zm-7.238,20.31c-1.969,1.136-3.735,1.173-4.951.311-1.071-.724-1.723-2.171-1.723-4.162a14.873,14.873,0,0,1,6.673-11.581,4.86,4.86,0,0,1,4.343-.637c1.4.6,2.287,2.171,2.287,4.488a14.753,14.753,0,0,1-6.659,11.6Z" transform="translate(-154.471 -202.907)" fill="#37474f"/>
      <path id="Trazado_113066" data-name="Trazado 113066" d="M185.535,294.882l-.08-.043c-1.2-.644-2.83-.521-4.632.514a14.761,14.761,0,0,0-6.673,11.581c0,2.171.724,3.619,1.976,4.343s2.9.579,4.7-.478a14.753,14.753,0,0,0,6.666-11.581C187.49,297.076,186.744,295.57,185.535,294.882Zm-4.712,14.367c-1.578.912-3,.941-3.981.246a3.906,3.906,0,0,1-1.382-3.344,11.856,11.856,0,0,1,5.363-9.286,3.974,3.974,0,0,1,3.525-.514c1.129.485,1.838,1.744,1.838,3.619A11.834,11.834,0,0,1,180.823,309.25Z" transform="translate(-155.852 -204.692)" fill="#6595bf"/>
      <path id="Trazado_113067" data-name="Trazado 113067" d="M220.839,287.2l8.823-5.088-2.939-1.7-8.823,5.1Z" transform="translate(-167.936 -200.815)" fill="#6595bf"/>
      <path id="Trazado_113068" data-name="Trazado 113068" d="M245.216,273.129l8.816-5.088-2.939-1.7-8.823,5.1Z" transform="translate(-174.667 -196.929)" fill="#6595bf"/>
      <path id="Trazado_113069" data-name="Trazado 113069" d="M269.586,259.059l8.816-5.088-2.939-1.7-8.823,5.1Z" transform="translate(-181.398 -193.043)" fill="#6595bf"/>
      <path id="Trazado_113070" data-name="Trazado 113070" d="M209.75,196.109a.724.724,0,0,1,1.3.456,2.627,2.627,0,0,1-.789,2.258c-.579.5-1.165.3-1.3-.456a2.635,2.635,0,0,1,.789-2.258Z" transform="translate(-165.46 -177.451)" fill="#6595bf"/>
      <path id="Trazado_113071" data-name="Trazado 113071" d="M216.695,199.339l-5.9-3.409-1.3,3.12,5.921,3.416Z" transform="translate(-165.616 -177.482)" fill="#6595bf"/>
      <path id="Trazado_113072" data-name="Trazado 113072" d="M217.878,200.808c.579-.492,1.158-.29,1.3.463a2.642,2.642,0,0,1-.8,2.251c-.579.5-1.165.3-1.3-.456A2.664,2.664,0,0,1,217.878,200.808Z" transform="translate(-167.704 -178.755)" fill="#6595bf"/>
      <path id="Trazado_113073" data-name="Trazado 113073" d="M272.989,237.721v1.3a4.923,4.923,0,0,0-4.379.637,14.761,14.761,0,0,0-6.673,11.581,4.835,4.835,0,0,0,1.723,4.162,10.662,10.662,0,0,1-.934.593l-.34.174-1.021,3.843-5.906-3.293c-1.867-1.078-3.018-3.38-3.018-6.666,0-6.565,4.6-14.541,10.285-17.827,2.808-1.621,5.349-1.788,7.238-.724h0l5.79,3.243.123.072Z" transform="translate(-177.476 -187.122)" fill="#455a64"/>
      <path id="Trazado_113074" data-name="Trazado 113074" d="M278.109,235.991l-.123-.072c-1.853-.984-4.343-.8-7.144.8-5.682,3.279-10.292,11.255-10.292,17.82,0,3.3,1.165,5.609,3.047,6.681s4.422.89,7.238-.724c5.682-3.279,10.285-11.262,10.285-17.827C281.142,239.372,279.977,237.063,278.109,235.991Zm-7.238,20.31c-1.969,1.136-3.735,1.173-4.951.311-1.071-.724-1.723-2.171-1.723-4.162a14.873,14.873,0,0,1,6.673-11.581,4.923,4.923,0,0,1,4.379-.637c1.4.6,2.287,2.171,2.287,4.488a14.8,14.8,0,0,1-6.7,11.581Z" transform="translate(-179.716 -188.36)" fill="#37474f"/>
      <path id="Trazado_113075" data-name="Trazado 113075" d="M278.932,246.54a14.854,14.854,0,0,1-6.666,11.581c-1.961,1.136-3.728,1.173-4.944.318h0a4.393,4.393,0,0,1-1.672-3.206,8.12,8.12,0,0,0,.724-.384,14.731,14.731,0,0,0,6.666-11.581,6.611,6.611,0,0,0-.058-.948,4.5,4.5,0,0,1,3.619-.261C278.034,242.668,278.932,244.224,278.932,246.54Z" transform="translate(-181.125 -190.151)" fill="#263238"/>
      <path id="Trazado_113076" data-name="Trazado 113076" d="M276.935,242.211l-.08-.051c-1.2-.637-2.837-.521-4.632.521a14.75,14.75,0,0,0-6.673,11.581c0,2.171.724,3.619,1.976,4.343s2.9.572,4.7-.485a14.731,14.731,0,0,0,6.666-11.581C278.9,244.4,278.18,242.906,276.935,242.211Zm-4.712,14.36c-1.585.919-3,.948-3.981.253a3.886,3.886,0,0,1-1.382-3.344,11.856,11.856,0,0,1,5.363-9.286,3.935,3.935,0,0,1,3.518-.514c1.129.485,1.838,1.744,1.838,3.619a11.827,11.827,0,0,1-5.356,9.272Z" transform="translate(-181.097 -190.143)" fill="#6595bf"/>
      <path id="Trazado_113077" data-name="Trazado 113077" d="M266.637,244.526l16.647-9.612c1.933-1.122-4.343-7.672-9.011-8.114a18.023,18.023,0,0,0-7.643.724s3.554,4.553,2.946,7.137S266.637,244.526,266.637,244.526Z" transform="translate(-181.395 -185.972)" fill="#6595bf"/>
      <path id="Trazado_113078" data-name="Trazado 113078" d="M220.133,213.81s24.131,12.174,25.174,12.905,0,9.221-1.658,14.259-4.205,12.782-5.226,14.954-2.352,2.982-4.8,4.393L216.253,270.36l-23.516,2.866L183.4,268.16l2.432-15.279s24.993-13.3,28.416-15.272S227.8,226.361,220.133,213.81Z" transform="translate(-158.407 -182.42)" fill="#6595bf"/>
      <path id="Trazado_113079" data-name="Trazado 113079" d="M220.133,213.81s24.131,12.174,25.174,12.905,0,9.221-1.658,14.259-4.205,12.782-5.226,14.954-2.352,2.982-4.8,4.393L216.253,270.36l-23.516,2.866L183.4,268.16l2.432-15.279s24.993-13.3,28.416-15.272S227.8,226.361,220.133,213.81Z" transform="translate(-158.407 -182.42)" opacity="0.2"/>
      <path id="Trazado_113080" data-name="Trazado 113080" d="M260.919,238.124c2.171-5.834,3.793-10.669,3.518-13.933-.333-3.872-1.781-7.035-8.164-8.628S240.964,214,240.964,214l-2.714,1.571s18.356,10.64,20.44,11.8c1.274.724,2.635,3.916.138,13.665l.427.246C259.465,241.41,260.225,240,260.919,238.124Z" transform="translate(-173.557 -182.473)" fill="#6595bf"/>
      <path id="Trazado_113081" data-name="Trazado 113081" d="M260.919,238.124c2.171-5.834,3.793-10.669,3.518-13.933-.333-3.872-1.781-7.035-8.164-8.628S240.964,214,240.964,214l-2.714,1.571s18.356,10.64,20.44,11.8c1.274.724,2.635,3.916.138,13.665l.427.246C259.465,241.41,260.225,240,260.919,238.124Z" transform="translate(-173.557 -182.473)" fill="#fff" opacity="0.3"/>
      <path id="Trazado_113082" data-name="Trazado 113082" d="M241.395,217.146l2.968-1.694s-.174-10.285-4.5-12.782-19.021-.8-19.021-.8l-2.939,1.694Z" transform="translate(-167.936 -178.968)" fill="#6595bf"/>
      <path id="Trazado_113083" data-name="Trazado 113083" d="M236.656,206.208c-1.411.818-1.411,2.135,0,2.946a5.631,5.631,0,0,0,5.11,0c1.4-.811,1.4-2.135,0-2.946a5.675,5.675,0,0,0-5.11,0Z" transform="translate(-172.824 -180.153)" fill="#f0f0f0"/>
      <path id="Trazado_113084" data-name="Trazado 113084" d="M243.016,213.066a1.1,1.1,0,0,0,0,2.085,3.974,3.974,0,0,0,3.619,0,1.1,1.1,0,0,0,0-2.085A4.017,4.017,0,0,0,243.016,213.066Z" transform="translate(-174.668 -182.096)" fill="#f0f0f0"/>
      <path id="Trazado_113085" data-name="Trazado 113085" d="M227.3,204.464a1.1,1.1,0,0,0,0,2.085,4.017,4.017,0,0,0,3.619,0,1.1,1.1,0,0,0,0-2.085,3.974,3.974,0,0,0-3.619,0Z" transform="translate(-170.327 -179.719)" fill="#f0f0f0"/>
      <path id="Trazado_113086" data-name="Trazado 113086" d="M250.687,218.966c.579-.5,1.158-.3,1.3.456a2.656,2.656,0,0,1-.8,2.258.724.724,0,0,1-1.3-.456A2.627,2.627,0,0,1,250.687,218.966Z" transform="translate(-176.766 -183.769)" fill="#6595bf"/>
      <path id="Trazado_113087" data-name="Trazado 113087" d="M257.585,222.189l-5.906-3.409-1.288,3.12,5.913,3.409Z" transform="translate(-176.91 -183.793)" fill="#6595bf"/>
      <path id="Trazado_113088" data-name="Trazado 113088" d="M258.758,223.649a.724.724,0,0,1,1.3.456,2.635,2.635,0,0,1-.8,2.258c-.579.5-1.158.29-1.3-.456A2.649,2.649,0,0,1,258.758,223.649Z" transform="translate(-178.995 -185.058)" fill="#6595bf"/>
      <path id="Trazado_113089" data-name="Trazado 113089" d="M258.758,223.649a.724.724,0,0,1,1.3.456,2.635,2.635,0,0,1-.8,2.258c-.579.5-1.158.29-1.3-.456A2.649,2.649,0,0,1,258.758,223.649Z" transform="translate(-178.995 -185.058)"/>
      <path id="Trazado_113090" data-name="Trazado 113090" d="M181.6,290.371v1.3a4.839,4.839,0,0,0-4.343.637,14.761,14.761,0,0,0-6.673,11.581,4.835,4.835,0,0,0,1.723,4.162,10.658,10.658,0,0,1-.934.594l-.34.174-1.021,3.843-5.906-3.293c-1.867-1.078-3.018-3.38-3.018-6.666,0-6.565,4.6-14.541,10.285-17.827,2.808-1.621,5.349-1.788,7.238-.724h0l5.79,3.243.123.072Z" transform="translate(-152.245 -201.663)" fill="#455a64"/>
      <path id="Trazado_113091" data-name="Trazado 113091" d="M163.408,277.13,159,292.409l8.823,5.1,4.567-15.185Z" transform="translate(-151.668 -199.91)" fill="#6595bf"/>
      <path id="Trazado_113092" data-name="Trazado 113092" d="M163.408,277.13,159,292.409l8.823,5.1,4.567-15.185Z" transform="translate(-151.668 -199.91)" opacity="0.2"/>
      <path id="Trazado_113093" data-name="Trazado 113093" d="M165.09,273.244s5,4.249,8.982,5.19c5.226,1.267,13.535,1.4,16.481,1.607,4.5.311,7.9.3,9.5-.268a91.914,91.914,0,0,0,9.142-4.828c2.939-1.694,4.191-8.36-3.909-10.184a81.789,81.789,0,0,0-16.647-1.7Z" transform="translate(-153.35 -196.023)" fill="#6595bf"/>
      <path id="Trazado_113094" data-name="Trazado 113094" d="M233.72,273.066a7.962,7.962,0,0,0-.507,1.961,4.422,4.422,0,0,0-.159,2.171,4.343,4.343,0,0,0,2.439,1.9,5.479,5.479,0,0,0,4.292-.832c1.5-.9,2.627-1.983,4.755-2.591a10.7,10.7,0,0,0,4.2-1.9c1.18-.948,2.758-3.568.5-4.176s-7.166,1.534-11.639,1.73Z" transform="translate(-172.103 -197.799)" fill="#37474f"/>
      <path id="Trazado_113095" data-name="Trazado 113095" d="M234,270.57v3.344a2.229,2.229,0,0,0,2.852,1.3,2.975,2.975,0,0,0,1.911-2.649l.13-1.99Z" transform="translate(-172.383 -198.098)" fill="#ffa8a7"/>
      <path id="Trazado_113096" data-name="Trazado 113096" d="M239.817,242c0,4.162-1.173,22.155-1.173,22.155s-1.7,2.171-5.4,0L232,244.048Z" transform="translate(-171.831 -190.207)" fill="#37474f"/>
      <path id="Trazado_113097" data-name="Trazado 113097" d="M210.915,259.924l11.581-6.673a2.939,2.939,0,0,0,0-5.2l-8.628-4.98a3.467,3.467,0,0,0-3.134,0l-11.581,6.673a2.946,2.946,0,0,0,0,5.2l8.628,4.98A3.467,3.467,0,0,0,210.915,259.924Z" transform="translate(-162.326 -190.398)" fill="#6595bf"/>
      <path id="Trazado_113098" data-name="Trazado 113098" d="M210.915,259.924l11.581-6.673a2.939,2.939,0,0,0,0-5.2l-8.628-4.98a3.467,3.467,0,0,0-3.134,0l-11.581,6.673a2.946,2.946,0,0,0,0,5.2l8.628,4.98A3.467,3.467,0,0,0,210.915,259.924Z" transform="translate(-162.326 -190.398)" fill="#fff"/>
      <path id="Trazado_113099" data-name="Trazado 113099" d="M199.5,251.55l8.628,4.98a3.467,3.467,0,0,0,3.134,0l11.581-6.673a.955.955,0,0,0,0-1.809l-8.628-4.98a3.467,3.467,0,0,0-3.134,0L199.5,249.741a.955.955,0,0,0,0,1.81Z" transform="translate(-162.676 -190.398)" fill="#6595bf"/>
      <path id="Trazado_113100" data-name="Trazado 113100" d="M206.531,192.984l-1.469,6.058-6.312.384,1.361-8.4Z" transform="translate(-162.647 -176.129)" fill="#ffa8a7"/>
      <path id="Trazado_113101" data-name="Trazado 113101" d="M217.638,187.43s.724,2.562.427,2.707a4.561,4.561,0,0,1-1.375,0Z" transform="translate(-167.602 -175.134)" fill="#f28f8f"/>
      <path id="Trazado_113102" data-name="Trazado 113102" d="M211.852,175.247c1.013,1.194,1.94,3.156,1.223,7.962-.782,5.255-1.752,5.863-2.533,6.369-1.021.666-5.1.311-6.254-.528a13.139,13.139,0,0,1-4.024-7.347c-.594-3.7.644-7.8,3.366-8.5A9.128,9.128,0,0,1,211.852,175.247Z" transform="translate(-163.025 -171.13)" fill="#ffa8a7"/>
      <path id="Trazado_113103" data-name="Trazado 113103" d="M198.631,187.045c.977,1.013,2.982,1.288,4.241,1.52s5.132.485,6.275-2.273.362-4.741,1.766-5.407a27.655,27.655,0,0,0,3.177-1.448c.369-.347.376-4.886-3.395-7.238s-9.547-2.9-13.347,1.875C194.469,177.758,195.649,183.932,198.631,187.045Z" transform="translate(-161.804 -170.442)" fill="#455a64"/>
      <path id="Trazado_113104" data-name="Trazado 113104" d="M205,191.6c.977.087,4.068-.4,5-1.672a11.239,11.239,0,0,0,1.448-4.748,2.07,2.07,0,0,1,1.672-1.976c.934-.3,3-1.31,3-1.31v-.565a15.93,15.93,0,0,1,2,0c.434.08.2.724-.9,1.281s-4.118,1.636-4.582,2-.68,1.925-1.05,3.583S210.067,192.33,205,191.6Z" transform="translate(-164.373 -173.44)" fill="#37474f"/>
      <path id="Trazado_113105" data-name="Trazado 113105" d="M215.13,202.817l3.619-2.077c.347-1.049-.21-1.578-1.194-1.513s-.68-.89-1.281-1.158c-.789-.362-1.238-.159-1.592-.326s-.507-.586-.97-.637c-2.07-.2-3.481,2.758-3.481,2.758Z" transform="translate(-165.818 -177.804)" fill="#f28f8f"/>
      <path id="Trazado_113106" data-name="Trazado 113106" d="M183.06,237.008s15.989-7.926,18.775-9.207,7.158-3.141,9.482-3.141a3.785,3.785,0,0,1,3.467,3.547,26.614,26.614,0,0,1-.239,4.176,98.34,98.34,0,0,1-13.434,3.38C194.46,236.921,183.06,237.008,183.06,237.008Z" transform="translate(-158.313 -185.417)" fill="#37474f"/>
      <path id="Trazado_113107" data-name="Trazado 113107" d="M185.448,234.946c0,3.286-.311,6.7,1.057,9.105s8.78,7.962,15.757,6.8c4.56-.767,18.095-7,18.095-7s6.565-2.41,6.594-4.126c.043-2.526-.13-6.087-5.856-5.935-5.219.138-20.614,3.351-20.614,3.351Z" transform="translate(-158.965 -187.937)" fill="#455a64"/>
      <path id="Trazado_113108" data-name="Trazado 113108" d="M189.922,198.43c2.475-2.584,4.147-2.8,5.334-2.483a41.662,41.662,0,0,1,7.882,3.156h0s-.955,9.25,3.568,11.914v14.418a5.021,5.021,0,0,1-2.106,3.12c-1.737,1.368-5.667,2.75-10.358,2.36-5.573-.463-8.787-6.449-8.787-6.449s-.145-11.791.644-16.474C187.027,202.526,189.068,199.327,189.922,198.43Z" transform="translate(-158.972 -177.455)" fill="#455a64"/>
      <path id="Trazado_113109" data-name="Trazado 113109" d="M213.458,215.874a11.753,11.753,0,0,1-3.568-4.994s.326,4.43,3.568,6.673Z" transform="translate(-165.724 -181.611)" fill="#37474f"/>
      <path id="Trazado_113110" data-name="Trazado 113110" d="M249.324,224.56a5.653,5.653,0,0,0,3.619-1.122s1.259-2.446,2.808-2.237c0,0,.275-1.042-.362-1.382s-.912-.246-1.173-.608-.29-1.035-1.448-1.035c-.478,0-.413-.34-1.571-.478s-2.3,2.533-3.149,2.533Z" transform="translate(-176.264 -183.493)" fill="#ffa8a7"/>
      <path id="Trazado_113111" data-name="Trazado 113111" d="M209.751,200.35c3.974.615,5.414,1.8,6.862,3.134s10.307,10.227,10.307,10.227l10.727,1.542a3.619,3.619,0,0,1,1.187,1.766,3.165,3.165,0,0,1-.369,2.96s-10.64.637-12.732.239-12.449-7.274-12.449-7.274a9.279,9.279,0,0,1-3.619-6.246C208.991,202.333,209.751,200.35,209.751,200.35Z" transform="translate(-165.584 -178.703)" fill="#455a64"/>
      <path id="Trazado_113112" data-name="Trazado 113112" d="M183.5,244.889l-16.437,20.064a4.585,4.585,0,0,1-.55.036,3.937,3.937,0,0,1-1.875-.441l-13.882-8.02-.941-.543a3.561,3.561,0,0,1-.941-2.714v-3.38a19.783,19.783,0,0,1,9.89-17.134l16.572-9.567,17.639,10.184Z" transform="translate(-148.87 -185.011)" fill="#6595bf"/>
      <g id="Grupo_60071" data-name="Grupo 60071" transform="translate(0 38.179)" opacity="0.1">
        <path id="Trazado_113113" data-name="Trazado 113113" d="M183.5,244.889l-16.437,20.064a4.585,4.585,0,0,1-.55.036,3.937,3.937,0,0,1-1.875-.441l-13.882-8.02-.941-.543a3.561,3.561,0,0,1-.941-2.714v-3.38a19.783,19.783,0,0,1,9.89-17.134l16.572-9.567,17.639,10.184Z" transform="translate(-148.87 -223.19)"/>
      </g>
      <path id="Trazado_113114" data-name="Trazado 113114" d="M179.47,251.812l15.12-18.428L176.951,223.2l-16.568,9.561a19.745,19.745,0,0,0-5.573,4.813Z" transform="translate(-150.511 -185.014)" fill="#6595bf"/>
      <path id="Trazado_113115" data-name="Trazado 113115" d="M199.672,252.062a3.534,3.534,0,0,1-.941,2.714l-.941.543-22.7,13.108a3.618,3.618,0,0,1-1.332.413,4.586,4.586,0,0,1-.55.036v-4.915a19.775,19.775,0,0,1,9.9-17.134l1.872-1.077,14.693-8.49Z" transform="translate(-155.593 -188.897)" fill="#6595bf"/>
      <g id="Grupo_60072" data-name="Grupo 60072" transform="translate(17.617 48.363)" opacity="0.2">
        <path id="Trazado_113116" data-name="Trazado 113116" d="M199.672,252.062a3.534,3.534,0,0,1-.941,2.714l-.941.543-22.7,13.108a3.618,3.618,0,0,1-1.332.413,4.586,4.586,0,0,1-.55.036v-4.915a19.775,19.775,0,0,1,9.9-17.134l1.872-1.077,14.693-8.49Z" transform="translate(-173.21 -237.26)"/>
      </g>
      <path id="Trazado_113117" data-name="Trazado 113117" d="M216.412,289.2l8.881-.029L238,281.83h0l-12.449,9-9.373.13Z" transform="translate(-167.461 -201.208)" fill="#e0e0e0"/>
      <path id="Trazado_113118" data-name="Trazado 113118" d="M185.746,304.615s16.01-6.036,17.371-6.746a34.746,34.746,0,0,0,4.531-3.308,1.925,1.925,0,0,0-.239-2.584s-6.514-.3-8.186.217c-.934.282-16,5.117-16,5.117Z" transform="translate(-158.357 -203.987)" fill="#e0e0e0"/>
      <path id="Trazado_113119" data-name="Trazado 113119" d="M184.562,299.913c-1.325-1.136-2.656-.666-2.982,1.042a6.044,6.044,0,0,0,1.817,5.161c1.325,1.136,2.656.673,2.982-1.042a6.051,6.051,0,0,0-1.817-5.161Z" transform="translate(-157.89 -206.031)" fill="#455a64"/>
    </g>
  </g>
</svg>
