<svg xmlns="http://www.w3.org/2000/svg" width="520.66" height="403.991" viewBox="0 0 520.66 403.991">
  <g id="Delivery-pana" transform="translate(-122.49 -43.21)">
    <g id="freepik--background-complete--inject-31" transform="translate(34.16)">
      <path id="Trazado_113284" data-name="Trazado 113284" d="M222.95,349.21l-1.34,74.84-117.45.28-.17-75.85Z" fill="#ebebeb"/>
      <path id="Trazado_113285" data-name="Trazado 113285" d="M153.76,424.12c-.16,0,0-16.71.39-37.32s.79-37.31.94-37.3,0,16.7-.39,37.31S153.91,424.12,153.76,424.12Z" fill="#e0e0e0"/>
      <path id="Trazado_113286" data-name="Trazado 113286" d="M104.16,424.33a7,7,0,0,1,.48-.79l1.45-2.19,5.45-8L129.67,387c7.08-10.27,13.45-19.59,18-26.39,2.28-3.39,4.08-6.17,5.32-8.08.59-.93,1.06-1.68,1.41-2.22a5.061,5.061,0,0,1,.53-.76,8.326,8.326,0,0,1-.43.81l-1.33,2.28c-1.18,2-2.94,4.76-5.17,8.19-4.46,6.85-10.78,16.21-17.87,26.49s-13.55,19.52-18.26,26.2l-5.59,7.91-1.54,2.13a5.49,5.49,0,0,1-.58.77Z" fill="#e0e0e0"/>
      <path id="Trazado_113287" data-name="Trazado 113287" d="M153.76,424.12a4.869,4.869,0,0,1-.54-.74l-1.46-2.17-5.31-8-17.62-26.32c-6.91-10.27-13.11-19.6-17.51-26.41-2.19-3.41-4-6.18-5.15-8.1l-1.37-2.23a5.32,5.32,0,0,1-.45-.79,5.228,5.228,0,0,1,.54.73l1.46,2.17c1.28,1.93,3.08,4.66,5.3,8l17.63,26.32c6.91,10.27,13.1,19.6,17.5,26.42,2.2,3.4,4,6.17,5.16,8.1l1.37,2.22a6.376,6.376,0,0,1,.45.8Z" fill="#e0e0e0"/>
      <rect id="Rectángulo_28903" data-name="Rectángulo 28903" width="18.86" height="3.86" transform="translate(184.743 415.963) rotate(-178.97)" fill="#e0e0e0"/>
      <path id="Trazado_113288" data-name="Trazado 113288" d="M166.84,408.65a75.51,75.51,0,0,1,9.22-.33,78.194,78.194,0,0,1,9.23.22,78,78,0,0,1-9.22.33,78.194,78.194,0,0,1-9.23-.22Z" fill="#e0e0e0"/>
      <path id="Trazado_113289" data-name="Trazado 113289" d="M191.91,348.78l-.52,28.89-4.07-3.23-5.28,3.06.52-28.89Z" fill="#e0e0e0"/>
      <path id="Trazado_113290" data-name="Trazado 113290" d="M208.86,292.52l-1.02,57.12-89.63.21-.14-57.89Z" fill="#f5f5f5"/>
      <path id="Trazado_113291" data-name="Trazado 113291" d="M156.06,349.69c-.12,0,0-12.75.3-28.48s.6-28.47.72-28.47,0,12.75-.3,28.48S156.17,349.69,156.06,349.69Z" fill="#e0e0e0"/>
      <path id="Trazado_113292" data-name="Trazado 113292" d="M118.21,349.85a4.512,4.512,0,0,1,.36-.6q.42-.62,1.11-1.68c1-1.47,2.42-3.55,4.16-6.1,3.56-5.17,8.44-12.25,13.84-20.07s10.26-15,13.73-20.14c1.73-2.6,3.11-4.71,4.06-6.17l1.07-1.7a7,7,0,0,1,.4-.58,4.75,4.75,0,0,1-.33.63l-1,1.73c-.9,1.49-2.24,3.64-3.94,6.25-3.41,5.23-8.23,12.38-13.64,20.22s-10.35,14.89-13.94,20l-4.26,6c-.5.68-.89,1.23-1.18,1.63a4.207,4.207,0,0,1-.44.58Z" fill="#e0e0e0"/>
      <path id="Trazado_113293" data-name="Trazado 113293" d="M156.06,349.69a3.5,3.5,0,0,1-.42-.56l-1.11-1.66c-1-1.47-2.35-3.55-4.05-6.1L137,321.28c-5.27-7.83-10-15-13.36-20.16-1.67-2.6-3-4.71-3.93-6.18l-1-1.7c-.23-.39-.35-.6-.34-.6a3.321,3.321,0,0,1,.41.56l1.12,1.65c1,1.48,2.35,3.55,4,6.11l13.46,20.09c5.27,7.83,10,14.95,13.35,20.15,1.68,2.6,3,4.72,3.94,6.19l1.05,1.69a5.068,5.068,0,0,1,.36.61Z" fill="#e0e0e0"/>
      <rect id="Rectángulo_28904" data-name="Rectángulo 28904" width="14.39" height="2.95" transform="translate(180.368 343.084) rotate(-178.854)" fill="#e0e0e0"/>
      <path id="Trazado_113294" data-name="Trazado 113294" d="M166,337.88a60.2,60.2,0,0,1,7-.25,61.242,61.242,0,0,1,7,.17,57.676,57.676,0,0,1-7,.25,56.356,56.356,0,0,1-7-.17Z" fill="#ebebeb"/>
      <path id="Trazado_113295" data-name="Trazado 113295" d="M190.74,292.2l-.4,22.05-3.1-2.47-4.03,2.34.39-22.05Z" fill="#e0e0e0"/>
      <path id="Trazado_113296" data-name="Trazado 113296" d="M218.58,418.93a16.31,16.31,0,0,0-14.71-11.08L201.12,256.5h13.24v2.26h2.49v-5.42H196.28S198.73,365,200.51,408a17.683,17.683,0,0,0-2.61.63,16.32,16.32,0,0,0-11.11,15.78l-46.9-.62,1.34,6.16,46.23-1.27c.06.21.11.42.18.64a16.33,16.33,0,1,0,30.94-10.43Z" fill="#e0e0e0"/>
      <path id="Trazado_113297" data-name="Trazado 113297" d="M148.88,438.96h2.48l4.78-9.38-3.95.11Z" fill="#e0e0e0"/>
      <rect id="Rectángulo_28905" data-name="Rectángulo 28905" width="46.96" height="12.98" transform="translate(459.971 43.21)" fill="#ebebeb"/>
      <rect id="Rectángulo_28906" data-name="Rectángulo 28906" width="46.96" height="12.98" transform="translate(492.51 317.97)" fill="#ebebeb"/>
      <rect id="Rectángulo_28907" data-name="Rectángulo 28907" width="46.96" height="12.98" transform="translate(448.879 56.18)" fill="#f5f5f5"/>
      <rect id="Rectángulo_28908" data-name="Rectángulo 28908" width="33.74" height="12.98" transform="translate(482.559 331.36)" fill="#f5f5f5"/>
      <rect id="Rectángulo_28909" data-name="Rectángulo 28909" width="101.16" height="206.87" transform="translate(233.505 86.4)" fill="#ebebeb"/>
      <path id="Trazado_113298" data-name="Trazado 113298" d="M295,86.4s-20.74,93.84-50.58,100.25c0,0,12,65.83,13.15,106.62H244.46V86.4Z" transform="translate(-9.818)" fill="#e0e0e0"/>
      <path id="Trazado_113299" data-name="Trazado 113299" d="M295.38,86.4S316.12,180.24,346,186.65c0,0-12,65.83-13.14,106.62H346V86.4Z" transform="translate(-13.383)" fill="#e0e0e0"/>
      <rect id="Rectángulo_28910" data-name="Rectángulo 28910" width="3.69" height="207.27" transform="translate(281.129 86)" fill="#fafafa"/>
      <rect id="Rectángulo_28911" data-name="Rectángulo 28911" width="0.91" height="207.27" transform="translate(257.46 86)" fill="#fafafa"/>
      <rect id="Rectángulo_28912" data-name="Rectángulo 28912" width="0.91" height="207.27" transform="translate(308.604 86)" fill="#fafafa"/>
      <path id="Trazado_113300" data-name="Trazado 113300" d="M345.62,137.4v.83l-101.16.41v-.83Z" transform="translate(-10.955)" fill="#fafafa"/>
      <path id="Trazado_113301" data-name="Trazado 113301" d="M345.62,240.32v.81l-101.16.41v-.81Z" transform="translate(-10.955)" fill="#fafafa"/>
      <rect id="Rectángulo_28913" data-name="Rectángulo 28913" width="101.16" height="3.45" transform="translate(233.505 187.76)" fill="#fafafa"/>
      <path id="Trazado_113302" data-name="Trazado 113302" d="M347.12,294.77H243V84.9H347.12Zm-101.16-3h98.16V87.9H246Z" transform="translate(-10.915)" fill="#f5f5f5"/>
      <rect id="Rectángulo_28914" data-name="Rectángulo 28914" width="101.16" height="206.87" transform="translate(506.33 86.4)" fill="#ebebeb"/>
      <path id="Trazado_113303" data-name="Trazado 113303" d="M591.07,86.4s-20.74,93.84-50.58,100.25c0,0,12,65.83,13.14,106.62H540.49V86.4Z" transform="translate(-34.16)" fill="#e0e0e0"/>
      <path id="Trazado_113304" data-name="Trazado 113304" d="M591.41,86.4S612.15,180.24,642,186.65c0,0-12,65.83-13.15,106.62H642V86.4Z" transform="translate(-34.16)" fill="#e0e0e0"/>
      <rect id="Rectángulo_28915" data-name="Rectángulo 28915" width="3.69" height="207.27" transform="translate(555.06 86)" fill="#fafafa"/>
      <rect id="Rectángulo_28916" data-name="Rectángulo 28916" width="0.91" height="207.27" transform="translate(529.72 86)" fill="#fafafa"/>
      <rect id="Rectángulo_28917" data-name="Rectángulo 28917" width="0.91" height="207.27" transform="translate(584.33 86)" fill="#fafafa"/>
      <path id="Trazado_113305" data-name="Trazado 113305" d="M641.65,137.4v.83l-101.16.41v-.83Z" transform="translate(-34.16)" fill="#fafafa"/>
      <path id="Trazado_113306" data-name="Trazado 113306" d="M641.65,240.32v.81l-101.16.41v-.81Z" transform="translate(-34.16)" fill="#fafafa"/>
      <rect id="Rectángulo_28918" data-name="Rectángulo 28918" width="101.16" height="3.45" transform="translate(506.33 187.76)" fill="#fafafa"/>
      <path id="Trazado_113307" data-name="Trazado 113307" d="M643.15,294.77H539V84.9H643.15Zm-101.16-3h98.16V87.9H542Z" transform="translate(-34.16)" fill="#f5f5f5"/>
      <path id="Trazado_113308" data-name="Trazado 113308" d="M327.09,409.32a18.711,18.711,0,0,0-11.61-1.41c-2.11.35-4.31,1-5.74,2.56s-1.71,4.37-.06,5.73a5.46,5.46,0,0,0,3.62.92c3.07,0,6.47-.58,8.93,1.27,1.4,1.06,2.33,2.81,4,3.33a4,4,0,0,0,4.36-1.94,6.83,6.83,0,0,0,.49-5,7.64,7.64,0,0,0-3.99-5.46Z" transform="translate(-13.533)" fill="#ebebeb"/>
      <path id="Trazado_113309" data-name="Trazado 113309" d="M335.19,393.69c-2.16,3.09-6.36,2.07-8.31.18s-2.77-4.61-3.52-7.21c-1.71-6-3.44-12.19-2.16-18.25a10.06,10.06,0,0,1,2.33-5,5.31,5.31,0,0,1,5-1.67c2.11.56,3.43,2.63,4.38,4.61a43.35,43.35,0,0,1,4.3,18.66c0,3-.34,6.16-2,8.64" transform="translate(-14.166)" fill="#ebebeb"/>
      <path id="Trazado_113310" data-name="Trazado 113310" d="M341.12,398.12a11.22,11.22,0,0,1-1.74-10.33,19.85,19.85,0,0,1,6.12-8.88,32.94,32.94,0,0,1,11-6.47,11.759,11.759,0,0,1,4.93-.83,5.16,5.16,0,0,1,4.13,2.5c1.16,2.2.05,4.87-1.15,7a81.923,81.923,0,0,1-7.2,11c-2.15,2.78-4.62,5.52-7.91,6.78s-6.71,1.11-8.45-1.17" transform="translate(-15.67)" fill="#ebebeb"/>
      <path id="Trazado_113311" data-name="Trazado 113311" d="M335.34,440.25a5.907,5.907,0,0,1-.2-1.4c-.1-1-.22-2.31-.37-3.83a53.453,53.453,0,0,0-.86-5.62,44.61,44.61,0,0,0-2-6.62,24.32,24.32,0,0,0-3.39-6,12.59,12.59,0,0,0-4.27-3.55,11.74,11.74,0,0,0-3.61-1.12,6.138,6.138,0,0,1-1.39-.21,7.07,7.07,0,0,1,1.42,0,10.749,10.749,0,0,1,3.75,1,12.54,12.54,0,0,1,4.52,3.59,23.761,23.761,0,0,1,3.5,6.11,41.12,41.12,0,0,1,2,6.74,49.076,49.076,0,0,1,.75,5.68c.12,1.63.16,2.94.18,3.85a7.125,7.125,0,0,1-.03,1.38Z" transform="translate(-14.059)" fill="#e0e0e0"/>
      <path id="Trazado_113312" data-name="Trazado 113312" d="M335.07,437.3a3,3,0,0,1,0-.65v-1.86c0-1.61,0-4-.08-6.84-.15-5.77-.64-13.73-1.6-22.49s-2.25-16.64-3.42-22.29c-.28-1.42-.55-2.7-.82-3.81s-.46-2.09-.66-2.87-.32-1.33-.44-1.81a2.68,2.68,0,0,1-.11-.64,3.361,3.361,0,0,1,.22.61c.15.47.32,1.06.54,1.79s.49,1.73.77,2.84.6,2.39.9,3.8a212.921,212.921,0,0,1,3.59,22.31,219.8,219.8,0,0,1,1.44,22.56c0,2.89,0,5.23-.11,6.85,0,.75-.08,1.37-.11,1.86a2.52,2.52,0,0,1-.11.64Z" transform="translate(-14.388)" fill="#e0e0e0"/>
      <path id="Trazado_113313" data-name="Trazado 113313" d="M335,421.89a12.487,12.487,0,0,1,0-1.94c.07-1.25.24-3.06.59-5.27a71.189,71.189,0,0,1,1.71-7.67,68.169,68.169,0,0,1,3.21-9.08A48.319,48.319,0,0,1,350,383.26a23.658,23.658,0,0,1,2.21-2.06c.34-.29.64-.58.95-.8l.86-.6a10.857,10.857,0,0,1,1.64-1,56.006,56.006,0,0,0-5.37,4.78,51,51,0,0,0-9.19,14.62,73.528,73.528,0,0,0-3.22,9,78,78,0,0,0-1.82,7.59c-.41,2.19-.64,4-.78,5.22a11.406,11.406,0,0,1-.28,1.88Z" transform="translate(-15.218)" fill="#e0e0e0"/>
    </g>
    <g id="freepik--Floor--inject-31">
      <path id="Trazado_113314" data-name="Trazado 113314" d="M627.51,441c0,.14-113.06.26-252.5.26s-252.52-.12-252.52-.26,113-.26,252.52-.26S627.51,440.86,627.51,441Z" fill="#263238"/>
    </g>
    <g id="freepik--character-1--inject-31">
      <path id="Trazado_113337" data-name="Trazado 113337" d="M225.23,437.54l1.63-10.18-18.23-3-2.58,15.2,1.11.26c5,1.13,25.46,5.06,29,4.55C240.11,443.77,225.23,437.54,225.23,437.54Z" fill="#caaa88"/>
      <path id="Trazado_113338" data-name="Trazado 113338" d="M236.74,443.47c0,.17-6.87-.78-15.29-2.13s-15.22-2.58-15.19-2.75,6.87.78,15.29,2.13S236.77,443.3,236.74,443.47Z" fill="#263238"/>
      <path id="Trazado_113339" data-name="Trazado 113339" d="M225.22,439.67c-.14-.1.07-.62.55-1.09s1-.67,1.1-.53-.22.55-.66,1S225.36,439.78,225.22,439.67Z" fill="#263238"/>
      <path id="Trazado_113340" data-name="Trazado 113340" d="M226.27,440.53c-.15-.09,0-.68.49-1.25s1-.89,1.11-.76-.19.61-.62,1.15S226.43,440.62,226.27,440.53Z" fill="#263238"/>
      <path id="Trazado_113341" data-name="Trazado 113341" d="M211.77,439.4c-.08,0-.31-.27-.64-.78a11.518,11.518,0,0,0-1.34-1.86,4.2,4.2,0,0,0-1.84-1.18c-.54-.16-.92-.13-.93-.23s.36-.27,1-.2a3.7,3.7,0,0,1,2.21,1.18,6.719,6.719,0,0,1,1.28,2.09C211.76,439,211.84,439.37,211.77,439.4Z" fill="#263238"/>
      <path id="Trazado_113342" data-name="Trazado 113342" d="M225.58,437.77c.06.15-.3.46-.86.56s-1,0-1-.2.4-.31.88-.41S225.51,437.6,225.58,437.77Z" fill="#263238"/>
      <path id="Trazado_113343" data-name="Trazado 113343" d="M225.45,436.73c0,.18-.52.25-1.14.16s-1.08-.3-1-.47.54-.24,1.13-.15S225.46,436.56,225.45,436.73Z" fill="#263238"/>
      <path id="Trazado_113344" data-name="Trazado 113344" d="M289.72,435.34l-.38-10.3-18.47.56.41,15.41h1.15c5.11.14,26,0,29.33-1.17C305.52,438.56,289.72,435.34,289.72,435.34Z" fill="#caaa88"/>
      <path id="Trazado_113345" data-name="Trazado 113345" d="M302.16,438.92c0,.18-6.89.57-15.41.89s-15.43.42-15.44.25,6.9-.57,15.42-.88S302.15,438.75,302.16,438.92Z" fill="#263238"/>
      <path id="Trazado_113346" data-name="Trazado 113346" d="M290.12,437.43c-.16-.07-.05-.62.33-1.17s.85-.86,1-.74-.1.58-.45,1.09S290.28,437.51,290.12,437.43Z" fill="#263238"/>
      <path id="Trazado_113347" data-name="Trazado 113347" d="M291.32,438.07c-.16-.05-.1-.67.24-1.32s.8-1.06.94-1-.07.63-.38,1.24S291.49,438.13,291.32,438.07Z" fill="#263238"/>
      <path id="Trazado_113348" data-name="Trazado 113348" d="M276.87,439.79a2.577,2.577,0,0,1-.77-.65,12.564,12.564,0,0,0-1.68-1.56,4.24,4.24,0,0,0-2-.8,5.78,5.78,0,0,1-1,0c-.07-.05.3-.34,1-.4a3.66,3.66,0,0,1,2.4.73,6.7,6.7,0,0,1,1.66,1.8C276.78,439.38,276.94,439.74,276.87,439.79Z" fill="#263238"/>
      <path id="Trazado_113349" data-name="Trazado 113349" d="M290.1,435.5c.1.14-.2.51-.72.72s-1,.16-1,0,.33-.39.79-.58S290,435.35,290.1,435.5Z" fill="#263238"/>
      <path id="Trazado_113350" data-name="Trazado 113350" d="M289.78,434.51c0,.17-.47.34-1.09.37s-1.12-.08-1.12-.26.49-.34,1.09-.37S289.75,434.34,289.78,434.51Z" fill="#263238"/>
      <path id="Trazado_113351" data-name="Trazado 113351" d="M314.76,178.93l-1-3.36a30.09,30.09,0,0,0-1.63-5.67,8.76,8.76,0,0,0-1.48-2.54,13.6,13.6,0,0,0-2.59-2.57,1.118,1.118,0,0,1,.25-2.11c1-.11,3.69,1.46,5.75,4.45s2.44-2.64,2.62-4.69,1-8.36,1.69-8.78c1-.63,1.86.33,1.64,2.37s-.47,8.22.61,8.29,1.83-10.38,1.83-10.38-.2-2.27,1.06-2.23c2.26.07.63,11.1.45,12.14-.12.73,1.05.84,1.15.06s.51-10.45,2.81-10.4c1.77,0-1.25,9.08-.23,11.16s1.59-7.12,3.28-7c.62,0,1.09.15,0,5.36s-6.47,19.24-6.47,19.24l-9.82-3.51" fill="#ffbe9d"/>
      <path id="Trazado_113352" data-name="Trazado 113352" d="M247.2,176.17l16.62,1.23c.22-1.92.55-9.39.55-9.39s6.94-.65,7.44-7.52.3-22.72.3-22.72h0a23.93,23.93,0,0,0-24.19,1.54l-1.07.72Z" fill="#ffbe9d"/>
      <path id="Trazado_113353" data-name="Trazado 113353" d="M269.79,149.49a1,1,0,1,1,1.42.02A1,1,0,0,1,269.79,149.49Z" fill="#263238"/>
      <path id="Trazado_113354" data-name="Trazado 113354" d="M271.56,148c-.12.11-.76-.45-1.71-.51s-1.66.38-1.76.25.08-.26.39-.47a2.27,2.27,0,0,1,1.42-.35,2.31,2.31,0,0,1,1.35.55C271.52,147.75,271.61,148,271.56,148Z" fill="#263238"/>
      <path id="Trazado_113355" data-name="Trazado 113355" d="M260.6,148.17a1,1,0,1,1-1.39.24,1,1,0,0,1,1.39-.24Z" fill="#263238"/>
      <path id="Trazado_113356" data-name="Trazado 113356" d="M261.22,148.22c-.11.11-.75-.45-1.7-.51s-1.66.38-1.76.25.07-.26.39-.47a2.22,2.22,0,0,1,1.41-.35,2.28,2.28,0,0,1,1.35.55C261.19,148,261.28,148.17,261.22,148.22Z" fill="#263238"/>
      <path id="Trazado_113357" data-name="Trazado 113357" d="M264.54,156.26a4.84,4.84,0,0,1,1.55-.22c.25,0,.45-.06.48-.19a1.38,1.38,0,0,0-.13-.73c-.21-.64-.41-1.29-.63-2a26.751,26.751,0,0,1-1.32-5.15,27.181,27.181,0,0,1,1.82,5c.2.68.39,1.34.59,2a1.61,1.61,0,0,1,.07,1,.66.66,0,0,1-.45.37,1.589,1.589,0,0,1-.42,0,5,5,0,0,1-1.56-.08Z" fill="#263238"/>
      <path id="Trazado_113358" data-name="Trazado 113358" d="M261.4,157.12c-.95-.65,2.63,1.61,4.56,1.63a2.62,2.62,0,0,1-3.15.85C260.8,158.72,261.4,157.12,261.4,157.12Z" fill="#fff"/>
      <path id="Trazado_113359" data-name="Trazado 113359" d="M264.38,167.91a16.06,16.06,0,0,1-8.8-3.1s1.81,5.08,8.71,4.88Z" fill="#eb996e"/>
      <path id="Trazado_113360" data-name="Trazado 113360" d="M247,147l.83,4.93,3.06-.06-.2-10.27s12.14.94,13.53-3.92c0,0,3.57,5.37,8,5.35,0,0,3.88-.4.19-5.81-5.7-8.32-26-1.63-26-1.63a14,14,0,0,0-.73,4.72C245.6,145.63,247,147,247,147Z" fill="#263238"/>
      <path id="Trazado_113361" data-name="Trazado 113361" d="M245.33,142l27-5.36s-1.92-10.82-16.51-7.67C241.66,132.06,245.33,142,245.33,142Z" fill="#caaa88"/>
      <path id="Trazado_113362" data-name="Trazado 113362" d="M245.33,142c.38-.07,33.06.7,35.39-3.82,1.11-2.16-8.56-2.22-8.56-2.22l.22.68Z" fill="#caaa88"/>
      <path id="Trazado_113363" data-name="Trazado 113363" d="M245.33,142c.38-.07,33.06.7,35.39-3.82,1.11-2.16-8.56-2.22-8.56-2.22l.22.68Z" opacity="0.2"/>
      <path id="Trazado_113364" data-name="Trazado 113364" d="M248.17,146.13c-.15-.06-5.1-.7-4.63,5.14s6.21,3.44,6.21,3.27S248.17,146.13,248.17,146.13Z" fill="#ffbe9d"/>
      <path id="Trazado_113365" data-name="Trazado 113365" d="M247.8,152.63a2.511,2.511,0,0,1-.27.18,1,1,0,0,1-.76.07,2.51,2.51,0,0,1-1.34-2.16,3.26,3.26,0,0,1,.17-1.48,1.16,1.16,0,0,1,.7-.85.52.52,0,0,1,.62.23c.09.16.07.28.1.29s.12-.11,0-.35a.67.67,0,0,0-.26-.35.78.78,0,0,0-.57-.1,1.46,1.46,0,0,0-1,1,3.59,3.59,0,0,0-.22,1.66,2.66,2.66,0,0,0,1.69,2.41,1.12,1.12,0,0,0,.92-.23C247.8,152.78,247.82,152.64,247.8,152.63Z" fill="#eb996e"/>
      <rect id="Rectángulo_28919" data-name="Rectángulo 28919" width="3.31" height="3.31" transform="translate(260.791 133.768) rotate(-1.1)" fill="#263238"/>
      <rect id="Rectángulo_28920" data-name="Rectángulo 28920" width="1.66" height="1.66" transform="matrix(1, -0.019, 0.019, 1, 262.405, 131.942)" fill="#263238"/>
      <path id="Trazado_113366" data-name="Trazado 113366" d="M313.54,174.63s-5.11,32.52-8.71,32.69c-4.11.2-16.75-17.73-16.75-17.73h0c-8.09-12.48-18.76-14.5-22.65-14.81v-1.54l-19.12-1.57v3.09h-8.47s-15.16-.7-17.44,19.67l10.91,8.62,4.47,16.63c1.36,5.08-.72,11.56-3,22.94l-1.37-.32-.58,11.47c-.08.54-.16,1.09-.23,1.64h.15L226.13,347l-23.62,88.71,26.59,1,24.52-86.55s2.13-69.2,4.29-69.24c3.63-.07,5.95,153.94,7.34,153.59s28.7-.07,28.7-.07S284.91,255,285,255h0l-2.34-34-.89-9.82h0c5.19,7.3,15,18.7,25.48,18.5,17.07-.33,19.47-53.25,19.47-53.25Z" fill="#455a64"/>
      <path id="Trazado_113367" data-name="Trazado 113367" d="M256.93,280.23a23.613,23.613,0,0,0,1.58-3,22.3,22.3,0,0,0,1.29-7.93c0-3.12,0-5.93,0-8.17a20,20,0,0,1,.13-3.38,23.55,23.55,0,0,1,.24,3.38c.06,2.09.19,5,.16,8.18a28.658,28.658,0,0,1-.4,4.51,15.338,15.338,0,0,1-1.07,3.56,11.29,11.29,0,0,1-1.28,2.15C257.18,280,257,280.26,256.93,280.23Z" fill="#263238"/>
      <path id="Trazado_113368" data-name="Trazado 113368" d="M241.24,265.7a2.931,2.931,0,0,1,.14.94c.05.61.11,1.48.14,2.58a17.16,17.16,0,0,1-1.67,8.35,9.38,9.38,0,0,1-3.18,3.54,7.56,7.56,0,0,1-3.7,1.16,6,6,0,0,1-2.58-.44,2.27,2.27,0,0,1-.82-.5,7.74,7.74,0,0,0,3.38.58,7.59,7.59,0,0,0,3.46-1.21,9.23,9.23,0,0,0,3-3.38,18.18,18.18,0,0,0,1.76-8.1,34.08,34.08,0,0,1,.07-3.52Z" fill="#263238"/>
      <path id="Trazado_113369" data-name="Trazado 113369" d="M286.89,281.63a2.1,2.1,0,0,1-.65.62,4.23,4.23,0,0,1-2.39.62,5.93,5.93,0,0,1-3.44-1.28,13.15,13.15,0,0,1-3-3.3,17,17,0,0,1-2.77-7.53,15.476,15.476,0,0,1-.07-2.45,2.519,2.519,0,0,1,.14-.88c.09,0,0,1.27.3,3.28a18.12,18.12,0,0,0,2.83,7.29,13.42,13.42,0,0,0,2.86,3.21,5.7,5.7,0,0,0,3.16,1.29,4.42,4.42,0,0,0,2.28-.43C286.63,281.82,286.86,281.59,286.89,281.63Z" fill="#263238"/>
      <path id="Trazado_113370" data-name="Trazado 113370" d="M230.32,430.82c0,.15-5.9.05-13.16-.21S204,430,204,429.87s5.9-.05,13.17.22S230.33,430.68,230.32,430.82Z" fill="#263238"/>
      <path id="Trazado_113371" data-name="Trazado 113371" d="M293,426.82a4.228,4.228,0,0,1-1.11.15l-3,.23c-2.56.16-6.09.35-10,.53s-7.45.31-10,.39l-3,.05a4.5,4.5,0,0,1-1.12-.05,4.839,4.839,0,0,1,1.11-.15l3-.22c2.56-.17,6.09-.36,10-.54s7.45-.31,10-.38l3-.06A5.292,5.292,0,0,1,293,426.82Z" fill="#263238"/>
      <path id="Trazado_113372" data-name="Trazado 113372" d="M243.94,282.35a1.65,1.65,0,0,1,0,.39v1.15c0,1-.05,2.52-.08,4.42-.09,3.83-.26,9.38-.54,16.24s-.66,15-1.2,24.07c-.27,4.53-.57,9.28-1,14.2-.21,2.46-.4,5-.83,7.5s-1,5.05-1.52,7.62c-4.56,20.45-9.68,38.71-13.68,51.84-2,6.57-3.8,11.82-5.06,15.45l-1.53,4.14c-.18.45-.31.81-.42,1.07a1.42,1.42,0,0,1-.15.36,1.52,1.52,0,0,1,.1-.37c.09-.27.21-.63.37-1.09l1.44-4.18c1.2-3.64,3-8.91,4.9-15.48,3.9-13.15,9-31.43,13.52-51.86.55-2.55,1.1-5.08,1.52-7.58s.62-5,.83-7.46c.41-4.92.72-9.67,1-14.19.56-9,1-17.21,1.31-24.06s.54-12.37.71-16.23c.07-1.9.13-3.38.17-4.42a8.475,8.475,0,0,1,.06-1.14,3.839,3.839,0,0,1,.08-.39Z" fill="#263238"/>
      <path id="Trazado_113373" data-name="Trazado 113373" d="M280.64,427.49a1.45,1.45,0,0,1-.05-.36,5.654,5.654,0,0,0-.08-1.06c-.07-1-.16-2.33-.28-4.08-.21-3.57-.51-8.69-.89-15-.71-12.67-1.6-30.19-2.42-49.53s-1.42-36.89-1.81-49.57c-.17-6.32-.32-11.45-.41-15,0-1.75-.07-3.12-.09-4.08v-1.07a2,2,0,0,1,0-.36,2,2,0,0,1,0,.36,7.369,7.369,0,0,0,.06,1.06c0,1,.1,2.34.18,4.09.14,3.57.33,8.7.58,15,.5,12.7,1.2,30.21,2,49.55s1.65,36.86,2.27,49.54c.31,6.32.55,11.44.73,15,.07,1.75.13,3.12.17,4.09v1.06A2,2,0,0,1,280.64,427.49Z" fill="#263238"/>
      <path id="Trazado_113374" data-name="Trazado 113374" d="M258.68,172.68a16,16,0,0,1,0,2.69,38.995,38.995,0,0,1-.66,6.69l-.06.33-.3-.16c-.64-.33-1.3-.68-1.95-1.07-2.78-1.62-5.14-3.31-6.89-4.47a27.97,27.97,0,0,1-2.79-1.93,16.35,16.35,0,0,1,3,1.62c1.8,1.09,4.2,2.73,6.95,4.33.65.38,1.3.74,1.92,1.07l-.37.17a49.509,49.509,0,0,0,.82-6.6A16.71,16.71,0,0,1,258.68,172.68Z" fill="#263238"/>
      <path id="Trazado_113375" data-name="Trazado 113375" d="M265.48,174.91a18.888,18.888,0,0,1-.54,2.49c-.19.76-.39,1.68-.72,2.69a12.711,12.711,0,0,1-.61,1.55,1,1,0,0,1-.36.43.55.55,0,0,1-.71-.08,3.191,3.191,0,0,1-.45-.88c-.93-2.22-1.75-4.23-2.31-5.7A12.124,12.124,0,0,1,259,173a12.668,12.668,0,0,1,1.16,2.28c.65,1.44,1.52,3.43,2.45,5.65a4.64,4.64,0,0,0,.33.72h.08a.6.6,0,0,0,.17-.22,14.286,14.286,0,0,0,.62-1.49c.34-1,.58-1.87.81-2.63a9.649,9.649,0,0,1,.86-2.4Z" fill="#263238"/>
      <path id="Trazado_113376" data-name="Trazado 113376" d="M261.89,243.24a3.2,3.2,0,0,1-.08-.72c0-.52-.08-1.2-.14-2.05-.09-1.84-.23-4.41-.39-7.56-.29-6.43-.68-15.22-1.12-24.93s-.71-18.5-1-24.94c-.1-3.15-.17-5.71-.23-7.56v-2a5.714,5.714,0,0,1,0-.72,3.31,3.31,0,0,1,.09.71c0,.52.08,1.2.13,2.05.1,1.85.23,4.41.4,7.56.29,6.43.68,15.22,1.11,24.93s.72,18.51,1,24.94c.1,3.15.18,5.72.24,7.56v2.06A3.07,3.07,0,0,1,261.89,243.24Z" fill="#263238"/>
      <rect id="Rectángulo_28921" data-name="Rectángulo 28921" width="9.19" height="1.9" transform="matrix(1, -0.019, 0.019, 1, 264.888, 193.572)" fill="#fff"/>
      <path id="Trazado_113377" data-name="Trazado 113377" d="M282.81,224.44c-.15,0-.73-6.94-1.3-15.53s-.92-15.54-.78-15.55.72,6.94,1.3,15.52S283,224.43,282.81,224.44Z" fill="#263238"/>
      <path id="Trazado_113378" data-name="Trazado 113378" d="M326.42,183.09a48,48,0,0,1-6.9-1.31,48.737,48.737,0,0,1-6.78-1.82,48,48,0,0,1,6.9,1.31,47.137,47.137,0,0,1,6.78,1.82Z" fill="#263238"/>
      <path id="Trazado_113379" data-name="Trazado 113379" d="M315.53,176.94a.94.94,0,1,1-.92.95.93.93,0,0,1,.92-.95Z" fill="#263238"/>
      <rect id="Rectángulo_28922" data-name="Rectángulo 28922" width="3.31" height="3.31" transform="translate(270.674 189.219) rotate(-1.1)" fill="#caaa88"/>
      <rect id="Rectángulo_28923" data-name="Rectángulo 28923" width="1.66" height="1.66" transform="matrix(1, -0.019, 0.019, 1, 272.277, 187.38)" fill="#caaa88"/>
      <path id="Trazado_113380" data-name="Trazado 113380" d="M323.53,206.12l-1.36,53.4-83.79-.43.27-54.11Z" fill="#caaa88"/>
      <path id="Trazado_113381" data-name="Trazado 113381" d="M273.76,259.21c-.14,0,0-11.93.42-26.63S275,206,275.11,206s0,11.92-.41,26.63S273.9,259.21,273.76,259.21Z" fill="#263238"/>
      <path id="Trazado_113382" data-name="Trazado 113382" d="M238.38,259.09a2.829,2.829,0,0,1,.33-.56l1-1.57,3.91-5.69,13.06-18.68c5.11-7.29,9.71-13.9,13-18.72,1.65-2.41,3-4.37,3.86-5.73l1-1.57A3.209,3.209,0,0,1,275,206a2.26,2.26,0,0,1-.3.58l-.94,1.63c-.85,1.39-2.12,3.39-3.72,5.82-3.21,4.88-7.77,11.53-12.87,18.82s-9.79,13.85-13.19,18.59l-4,5.6c-.46.62-.84,1.12-1.12,1.51a2.66,2.66,0,0,1-.48.54Z" fill="#263238"/>
      <path id="Trazado_113383" data-name="Trazado 113383" d="M272.93,259.63c-.12.08-7.84-11.95-17.23-26.87s-16.92-27.08-16.79-27.15,7.83,11.95,17.23,26.87S273.05,259.56,272.93,259.63Z" fill="#263238"/>
      <rect id="Rectángulo_28924" data-name="Rectángulo 28924" width="13.45" height="2.76" transform="translate(296.969 252.156) rotate(-178.282)" fill="#263238"/>
      <path id="Trazado_113384" data-name="Trazado 113384" d="M283.18,248.24a40.371,40.371,0,0,1,6.58-.25,40.151,40.151,0,0,1,6.58.27,43.152,43.152,0,0,1-6.58.25A43.122,43.122,0,0,1,283.18,248.24Z" fill="#263238"/>
      <path id="Trazado_113385" data-name="Trazado 113385" d="M306.58,205.69l-.52,20.62-2.88-2.33-3.79,2.16.53-20.61Z" fill="#263238"/>
      <path id="Trazado_113386" data-name="Trazado 113386" d="M237,200.25s-4.06,28.34-2.14,30c10.64,8.95,25.43,13.64,30.72,15.12.77-.19,1.68-.43,2.71-.76a8.12,8.12,0,0,0,2.49-1.3,12.731,12.731,0,0,0,2.57-2.38,1.09,1.09,0,0,1,2,.37c.05,1-1.52,3.5-4.47,5.33,0,0,6.78,10.91,8.94,11.89s8.35,3.77,7.3,4.31-8.57-1.66-8.57-1.66l-15.26-4.08s-50.49-7.91-47.12-31.07c2.06-14.19,4.31-27,5.12-30.22Z" fill="#ffbe9d"/>
      <path id="Trazado_113387" data-name="Trazado 113387" d="M220.42,194.44l-4.53,30.92c-1,9.53,5.33,17.08,13.91,21.34,13.06,6.47,32.45,11.08,32.29,11.05S263.4,244,263.4,244s-27.18-11.77-28-16.83,3.45-26.21,3.45-26.21Z" fill="#455a64"/>
      <path id="Trazado_113388" data-name="Trazado 113388" d="M262.09,257.75a.731.731,0,0,1,0-.24q0-.285,0-.72c.05-.67.12-1.59.21-2.75.21-2.43.51-5.87.88-10.1l.11.18-13.68-6.62-4-1.93c-1.33-.71-2.66-1.48-4-2.33a38.12,38.12,0,0,1-3.86-2.83c-.62-.52-1.23-1.06-1.82-1.64a3.489,3.489,0,0,1-.79-1,2.559,2.559,0,0,1-.22-.62,4.559,4.559,0,0,1-.14-.64c-.44-3.37.47-6.57.93-9.61s1-6,1.53-8.82c1-5.61,1.86-10.66,2.61-14.92a32.048,32.048,0,0,0,.69-5.74,10.09,10.09,0,0,0-.88-4.22,7.06,7.06,0,0,0-1.6-2.21c-.47-.43-.76-.59-.75-.62a3.64,3.64,0,0,1,.82.54,6.68,6.68,0,0,1,1.71,2.2,10,10,0,0,1,1,4.3,31,31,0,0,1-.62,5.81c-.71,4.27-1.56,9.33-2.5,14.95l-1.5,8.83c-.13.76-.26,1.54-.4,2.32s-.28,1.54-.39,2.33a17.4,17.4,0,0,0-.12,4.78,3.732,3.732,0,0,0,.12.58,2.47,2.47,0,0,0,.19.54,2.72,2.72,0,0,0,.69.89c.57.57,1.17,1.1,1.78,1.62a39.754,39.754,0,0,0,3.8,2.79c1.3.85,2.62,1.62,3.93,2.32l3.94,1.94,13.61,6.72.12.06V244c-.44,4.23-.8,7.67-1,10.09-.13,1.16-.23,2.07-.3,2.74a3.9,3.9,0,0,1-.1.71C262.06,257.73,262.1,257.76,262.09,257.75Z" fill="#263238"/>
      <path id="Trazado_113389" data-name="Trazado 113389" d="M259.57,242.06a8.31,8.31,0,0,1-.16,2.11c-.17,1.3-.44,3.08-.8,5s-.77,3.72-1.11,5a8.511,8.511,0,0,1-.67,2c-.14,0,.54-3.18,1.27-7.08a59.34,59.34,0,0,1,1.47-7.03Z" fill="#263238"/>
      <path id="Trazado_113390" data-name="Trazado 113390" d="M262.09,257.75a1.649,1.649,0,0,1-.47-.07l-1.35-.33-4.92-1.28c-4.13-1.12-9.89-2.58-16-4.85a67.469,67.469,0,0,1-8.46-3.76,48.629,48.629,0,0,1-6.36-4.09,36.157,36.157,0,0,1-3.81-3.39c-.41-.43-.73-.78-.93-1a1.67,1.67,0,0,1-.29-.39s.49.45,1.37,1.27a41.153,41.153,0,0,0,3.89,3.23,48.608,48.608,0,0,0,6.36,4,69.731,69.731,0,0,0,8.41,3.7c6.12,2.25,11.86,3.77,16,5l4.87,1.45,1.32.41A2.632,2.632,0,0,1,262.09,257.75Z" fill="#263238"/>
      <path id="Trazado_113391" data-name="Trazado 113391" d="M262.43,245.37a.88.88,0,0,1-.86.9.89.89,0,0,1-.89-.86.88.88,0,0,1,.86-.9A.89.89,0,0,1,262.43,245.37Z" fill="#263238"/>
    </g>
    <g id="freepik--character-2--inject-31">
      <rect id="Rectángulo_28925" data-name="Rectángulo 28925" width="110.36" height="340.89" transform="translate(387.72 100.11)" fill="#e0e0e0"/>
      <path id="Trazado_113392" data-name="Trazado 113392" d="M460.13,102.72V425.76l52.8,15.25.17-338.29H460.13" fill="#455a64"/>
      <path id="Trazado_113393" data-name="Trazado 113393" d="M466.64,259.33c.1,2.53-.87,4.62-2.17,4.68s-2.44-2-2.54-4.49.87-4.62,2.17-4.67S466.54,256.8,466.64,259.33Z" fill="#fff"/>
      <path id="Trazado_113394" data-name="Trazado 113394" d="M464.2,257.45l10.4,1.39a1.15,1.15,0,0,1,1,1.1h0a1.15,1.15,0,0,1-1.35,1.18l-10-1.69Z" fill="#fff"/>
      <path id="Trazado_113395" data-name="Trazado 113395" d="M374.83,88.06V441.01h17.33V102.72h101.7V441.01h19.07V88.06Z" fill="#263238"/>
      <rect id="Rectángulo_28926" data-name="Rectángulo 28926" width="8.66" height="338.28" transform="translate(383.5 102.72)" fill="#263238"/>
      <rect id="Rectángulo_28927" data-name="Rectángulo 28927" width="8.66" height="338.28" transform="translate(383.5 102.72)" opacity="0.5"/>
      <rect id="Rectángulo_28928" data-name="Rectángulo 28928" width="8.66" height="352.95" transform="translate(504.44 88.06)" fill="#263238"/>
      <rect id="Rectángulo_28929" data-name="Rectángulo 28929" width="8.66" height="352.95" transform="translate(504.44 88.06)" opacity="0.5"/>
      <rect id="Rectángulo_28930" data-name="Rectángulo 28930" width="28.46" height="6.35" transform="translate(427.3 67.46)" fill="#455a64"/>
      <path id="Trazado_113396" data-name="Trazado 113396" d="M444.81,155.8a14.39,14.39,0,0,0,10.9,13.2c3.09.75,6.65.4,9.1,2.47,4.2,3.57,1.74,11,4.58,15.73,1.74,2.94,5.2,4.38,7.16,7.17,3.26,4.63,1.07,11.64-3.37,15.09s-10.37,4.11-15.93,4c-12.25-.32-24.8-4.21-33.65-12.89-4.16-4.08-17.65-19.59-11.52-41.94" fill="#263238"/>
      <path id="Trazado_113397" data-name="Trazado 113397" d="M400.57,188.68s-21.43,18.63-22,16.36c-3-12.33-2.16-28.08-1.67-34.11.33-.51.72-1.08,1.18-1.71a7.71,7.71,0,0,1,1.91-1.87,12.479,12.479,0,0,1,2.92-1.64,1,1,0,0,0,.28-1.91c-.86-.32-3.6.39-6.14,2.51s-1.5-2.92-1.16-4.76,1.14-7.6.65-8.14c-.71-.8-1.71-.16-2,1.69s-1.6,7.34-2.57,7.14.93-9.58.93-9.58.72-1.95-.39-2.22c-2-.49-3.26,9.61-3.36,10.57-.07.67-1.13.49-1-.23s2.09-9.31.06-9.83c-1.56-.4-1.12,8.29-2.52,9.87s.34-6.64-1.17-7c-.56-.12-1-.13-1.31,4.72a106.644,106.644,0,0,0,.42,11.7c-1.33,13.3-3.94,54.05,14.47,52.65,21.72-1.66,26.72-18.78,26.72-18.78Z" fill="#b78876"/>
      <path id="Trazado_113398" data-name="Trazado 113398" d="M417.69,182.62c.31-1.72-.24-8.94-.24-8.94s-6.41-.81-6.68-7.34.37-21.59.37-21.59l11.79-5.66,12.68,10.22-2.2,33.2Z" fill="#b78876"/>
      <path id="Trazado_113399" data-name="Trazado 113399" d="M412.23,155.75a.82.82,0,1,0,.83-.82.83.83,0,0,0-.83.82Z" fill="#263238"/>
      <path id="Trazado_113400" data-name="Trazado 113400" d="M411.46,154.82c.1.11.71-.4,1.59-.43s1.53.41,1.62.29-.06-.26-.35-.46a2.07,2.07,0,0,0-1.3-.38,2.15,2.15,0,0,0-1.26.49C411.49,154.56,411.41,154.77,411.46,154.82Z" fill="#263238"/>
      <path id="Trazado_113401" data-name="Trazado 113401" d="M421.66,155.91a.82.82,0,1,0,.83-.82.83.83,0,0,0-.83.82Z" fill="#263238"/>
      <path id="Trazado_113402" data-name="Trazado 113402" d="M421.17,155c.11.11.72-.4,1.6-.44s1.52.42,1.62.3-.06-.26-.35-.47a2.12,2.12,0,0,0-2.56.12C421.21,154.73,421.12,154.94,421.17,155Z" fill="#263238"/>
      <path id="Trazado_113403" data-name="Trazado 113403" d="M417.88,162.54a4.81,4.81,0,0,0-1.43-.22c-.22,0-.44-.06-.48-.22a1.43,1.43,0,0,1,.14-.72l.63-1.85a33.835,33.835,0,0,0,1.42-4.84,34.137,34.137,0,0,0-1.77,4.71c-.21.66-.42,1.27-.61,1.87a1.47,1.47,0,0,0-.1.94.54.54,0,0,0,.37.34,1.361,1.361,0,0,0,.38,0,5.54,5.54,0,0,0,1.45-.01Z" fill="#263238"/>
      <path id="Trazado_113404" data-name="Trazado 113404" d="M420.76,163.44c.9-.59-2.48,1.45-4.26,1.42a2.39,2.39,0,0,0,2.89.9,1.9,1.9,0,0,0,1.37-2.32Z" fill="#fff"/>
      <path id="Trazado_113405" data-name="Trazado 113405" d="M417.45,173.68a15.62,15.62,0,0,0,8.48-2.78s-2,4.77-8.37,4.38Z" fill="#a36957"/>
      <path id="Trazado_113406" data-name="Trazado 113406" d="M444.81,155.9c-.06-.46-.13-1.16-.2-1.89h0c-.1-1-.21-2.08-.34-2.66-3.24-13.67-14.86-16.41-17.16-16.45-2.48-.05-6.78-1.52-13.21,5.1a12.86,12.86,0,0,0-3.09,13.91l1.08-1,9.35-2.3c-.7-2.59.44-5.77,1.08-7.25l.06-.06c1.69,9.81,12.16,11,12.16,11l-1,26c10.31-2.08,11.13-18.8,11.11-24.46Z" fill="#263238"/>
      <path id="Trazado_113407" data-name="Trazado 113407" d="M448.86,272.6v-.34A1.3,1.3,0,0,1,448.86,272.6Z" fill="#b78876"/>
      <path id="Trazado_113408" data-name="Trazado 113408" d="M448.82,272.9v0Z" fill="#b78876"/>
      <path id="Trazado_113409" data-name="Trazado 113409" d="M461,431.13s-24.14-81.37-24.6-84c-.42-2.35,10.76-59.44,12.38-74.25l-33.94.32v.25l-16.4.45,8.21,162.6,18,.47-.27-53.45c8.9,26.1,20.16,55.59,20.16,55.59Z" fill="#b78876"/>
      <path id="Trazado_113410" data-name="Trazado 113410" d="M448.9,272.22Z" fill="#b78876"/>
      <path id="Trazado_113411" data-name="Trazado 113411" d="M448.89,272.26Z" fill="#b78876"/>
      <path id="Trazado_113412" data-name="Trazado 113412" d="M413.59,343.49a9.127,9.127,0,0,1-.11,1.78,35.648,35.648,0,0,0,.09,4.82,44.055,44.055,0,0,0,1.2,7.05,68.753,68.753,0,0,0,2.88,8.3c2.23,5.84,4.23,11.13,5.65,15L425,385a11.749,11.749,0,0,1,.54,1.7,13.005,13.005,0,0,1-.73-1.63l-1.81-4.5c-1.51-3.81-3.56-9.09-5.8-14.93-.55-1.46-1.09-2.89-1.62-4.27a37.591,37.591,0,0,1-1.23-4.09,41.143,41.143,0,0,1-1.11-7.14,30.43,30.43,0,0,1,.08-4.87c.06-.57.13-1,.19-1.31A1.45,1.45,0,0,1,413.59,343.49Z" fill="#a36957"/>
      <path id="Trazado_113413" data-name="Trazado 113413" d="M424.47,402.94c0-.49.32-18.12.32-18.12s-5.92-16.34-6.07-15.85S424.47,402.94,424.47,402.94Z" fill="#a36957"/>
      <path id="Trazado_113414" data-name="Trazado 113414" d="M445.16,438.83h0l15.88-7.7,1.83,3.41-5.61,3.17c-3.83,2.09-16.85,8.91-19.93,9.46C433.9,447.79,445.16,438.83,445.16,438.83Z" fill="#caaa88"/>
      <path id="Trazado_113415" data-name="Trazado 113415" d="M436.62,446.71c-.08-.12,5.72-3,12.95-6.41s13.14-6.08,13.21-6-5.72,3-12.95,6.4S436.69,446.83,436.62,446.71Z" fill="#263238"/>
      <path id="Trazado_113416" data-name="Trazado 113416" d="M458.74,436.37c-.08,0-.11-.3-.08-.78a4.59,4.59,0,0,1,.51-1.83,3.1,3.1,0,0,1,1.51-1.39c.53-.21.9-.16.9-.11a6.155,6.155,0,0,1-.7.41,3.66,3.66,0,0,0-1.21,1.3,9.368,9.368,0,0,0-.62,1.68C458.92,436.1,458.81,436.38,458.74,436.37Z" fill="#263238"/>
      <path id="Trazado_113417" data-name="Trazado 113417" d="M444.3,439.56c0,.14.49.33,1.12.54s1.16.35,1.25.23-.36-.5-1.05-.73S444.32,439.41,444.3,439.56Z" fill="#263238"/>
      <path id="Trazado_113418" data-name="Trazado 113418" d="M443.21,440.41c0,.15.42.42,1,.61s1.16.25,1.23.11-.4-.4-1-.6S443.25,440.27,443.21,440.41Z" fill="#263238"/>
      <path id="Trazado_113419" data-name="Trazado 113419" d="M442.31,441.2c-.06.13.28.38.72.61s.87.36,1,.25-.19-.45-.67-.7S442.38,441.06,442.31,441.2Z" fill="#263238"/>
      <path id="Trazado_113420" data-name="Trazado 113420" d="M444.37,439.69a3.33,3.33,0,0,0-.17-1.67,4.779,4.779,0,0,0-.82-1.7,4.26,4.26,0,0,0-.86-.83,2.691,2.691,0,0,0-.61-.33,1.19,1.19,0,0,0-.87,0,.9.9,0,0,0-.3,1.35,6.344,6.344,0,0,0,.74.9,11.079,11.079,0,0,0,1.48,1.26,5,5,0,0,0,1.58.9c.06-.06-.49-.47-1.3-1.17a15.909,15.909,0,0,1-1.34-1.3,6.065,6.065,0,0,1-.64-.82c-.18-.26-.13-.58.05-.65a.983.983,0,0,1,.85.25,3.72,3.72,0,0,1,.77.7,5.239,5.239,0,0,1,.87,1.53A9.051,9.051,0,0,0,444.37,439.69Z" fill="#263238"/>
      <path id="Trazado_113421" data-name="Trazado 113421" d="M444.37,439.38a4.38,4.38,0,0,0-1.57-1,8.78,8.78,0,0,0-2-.61,7.091,7.091,0,0,0-1.25-.11,3.074,3.074,0,0,0-.71.09,1,1,0,0,0-.4.19.55.55,0,0,0-.21.47,1.63,1.63,0,0,0,1,1.06,4.439,4.439,0,0,0,1.22.39,9.439,9.439,0,0,0,2.09.06c1.21-.07,1.87-.49,1.81-.54a17.325,17.325,0,0,1-1.83.17,11,11,0,0,1-2-.17,3.872,3.872,0,0,1-1-.35c-.3-.16-.64-.46-.66-.65s.37-.22.75-.2a6.094,6.094,0,0,1,1.14.06,10.928,10.928,0,0,1,1.9.48,12,12,0,0,0,1.72.66Z" fill="#263238"/>
      <path id="Trazado_113422" data-name="Trazado 113422" d="M445.47,438.66c.09.15,3.78-1.26,8.07-3.37s7.6-4,7.49-4.16-3.61,1.53-7.89,3.63S445.37,438.51,445.47,438.66Z" fill="#263238"/>
      <path id="Trazado_113423" data-name="Trazado 113423" d="M408.71,436.32h0l15.93.12-.27,4.61h-1c-4.62,0-23.51-.34-26.54-1.31C393.41,438.68,408.71,436.32,408.71,436.32Z" fill="#caaa88"/>
      <path id="Trazado_113424" data-name="Trazado 113424" d="M396.44,439c0-.13,6.27.11,14,.54s13.95.9,13.94,1-6.26-.1-14-.53S396.43,439.16,396.44,439Z" fill="#263238"/>
      <path id="Trazado_113425" data-name="Trazado 113425" d="M419.32,440.26c-.06-.05.09-.31.41-.7a5.56,5.56,0,0,1,1.56-1.32,3.85,3.85,0,0,1,2.17-.47c.58.07.88.28.85.33a4.2,4.2,0,0,1-.87,0,4.33,4.33,0,0,0-1.84.54,9.75,9.75,0,0,0-1.56,1.13C419.65,440.11,419.38,440.3,419.32,440.26Z" fill="#263238"/>
      <path id="Trazado_113426" data-name="Trazado 113426" d="M407.51,436.54c-.11.11.23.52.66,1s.8.85.95.78,0-.59-.48-1.1S407.62,436.43,407.51,436.54Z" fill="#263238"/>
      <path id="Trazado_113427" data-name="Trazado 113427" d="M406,436.76c-.12.1.12.55.54,1s.87.75,1,.67-.1-.53-.54-1S406.16,436.66,406,436.76Z" fill="#263238"/>
      <path id="Trazado_113428" data-name="Trazado 113428" d="M404.78,437c-.14.08,0,.45.26.85s.53.71.69.66.11-.47-.16-.9S404.91,436.92,404.78,437Z" fill="#263238"/>
      <path id="Trazado_113429" data-name="Trazado 113429" d="M407.5,436.69a3.74,3.74,0,0,0,.86-1.49,4.409,4.409,0,0,0,.31-1.83,3.23,3.23,0,0,0-.25-1.11,2.21,2.21,0,0,0-.33-.56,1.18,1.18,0,0,0-.77-.4,1,1,0,0,0-1.09,1,5.321,5.321,0,0,0,.11,1.1,9,9,0,0,0,.52,1.76,3.94,3.94,0,0,0,.85,1.5,6.812,6.812,0,0,0-.44-1.6,12.222,12.222,0,0,1-.38-1.73,5.544,5.544,0,0,1-.06-1c0-.3.23-.54.44-.52s.46.28.59.61a3,3,0,0,1,.25,1,4.83,4.83,0,0,1-.16,1.7,7.806,7.806,0,0,0-.45,1.57Z" fill="#263238"/>
      <path id="Trazado_113430" data-name="Trazado 113430" d="M407.69,436.43a3.7,3.7,0,0,0-.79-1.56,7.41,7.41,0,0,0-1.36-1.44,6.227,6.227,0,0,0-1-.68,2.92,2.92,0,0,0-.67-.26,1.2,1.2,0,0,0-.47,0,.66.66,0,0,0-.47.3,1.36,1.36,0,0,0,.2,1.34,3.269,3.269,0,0,0,.83.9,9,9,0,0,0,1.8,1,3,3,0,0,0,1.92.38,13.645,13.645,0,0,1-1.71-.71,10.19,10.19,0,0,1-1.63-1.06,3.42,3.42,0,0,1-.69-.78,1.09,1.09,0,0,1-.18-.86c0-.09.45,0,.77.18a5,5,0,0,1,1,.59,8.777,8.777,0,0,1,1.38,1.29C407.24,435.9,407.6,436.46,407.69,436.43Z" fill="#263238"/>
      <path id="Trazado_113431" data-name="Trazado 113431" d="M409.08,436.32a41.466,41.466,0,0,0,7.65.51,47.921,47.921,0,0,0,7.66-.27,66.652,66.652,0,0,0-7.65-.26C412.52,436.26,409.09,436.18,409.08,436.32Z" fill="#263238"/>
      <path id="Trazado_113432" data-name="Trazado 113432" d="M457.43,216.75s.65-2.44-1.2-17.39c-.8-6.51-5.23-10.55-10-13v-.08l-.41-.12a39,39,0,0,0-12.43-3.62l-16.79-.27s-12.29-1.53-20.12,7-13.17,13.54-13.17,13.54l12.51,15,3.35-3.31s-.35,6.91,1.93,10.94l5.41,9.52L403,251.73c-2.22,6.39-9.54,29.76-6.67,52.91,3.55,28.67,4.12,37.05,4.12,37.05l40.54,5.54s16.2-60.7,10.65-84.81c-3.81-16.57-6.72-15.8-7.66-19.39L445,217.24Z" fill="#6595bf"/>
      <path id="Trazado_113433" data-name="Trazado 113433" d="M402.38,208.92a10.558,10.558,0,0,1-1.46,3,10.19,10.19,0,0,1-1.91,2.7,10.9,10.9,0,0,1,1.46-3,10.462,10.462,0,0,1,1.91-2.7Z" fill="#263238"/>
      <path id="Trazado_113434" data-name="Trazado 113434" d="M438.72,240.27a7.191,7.191,0,0,1-1.29.25c-.84.14-2.06.3-3.56.45a99.388,99.388,0,0,1-11.83.49,102,102,0,0,1-11.81-.91c-1.5-.21-2.71-.41-3.54-.57a6.491,6.491,0,0,1-1.29-.31,7.489,7.489,0,0,1,1.32.11l3.55.41c3,.32,7.17.66,11.78.75s8.77-.12,11.78-.34l3.57-.28a5.75,5.75,0,0,1,1.32-.05Z" fill="#263238"/>
      <path id="Trazado_113435" data-name="Trazado 113435" d="M452.38,285.7a3.869,3.869,0,0,1-.15.79c-.14.57-.32,1.33-.55,2.28-.13.49-.26,1-.41,1.63s-.4,1.23-.62,1.92c-.46,1.36-.91,2.95-1.64,4.61l-1.08,2.64c-.38.91-.87,1.82-1.33,2.79-.89,1.94-2.07,3.9-3.26,6a78.631,78.631,0,0,1-21,22.86c-2,1.36-3.83,2.7-5.7,3.74-.92.54-1.79,1.1-2.67,1.56l-2.54,1.29a46.082,46.082,0,0,1-4.46,2c-.66.28-1.28.55-1.85.77l-1.6.54-2.22.74a4.735,4.735,0,0,1-.78.22,3.848,3.848,0,0,1,.75-.32l2.18-.83,1.58-.58c.57-.23,1.17-.52,1.83-.81,1.3-.6,2.83-1.19,4.41-2.08l2.51-1.32c.87-.46,1.73-1,2.64-1.57,1.85-1.05,3.68-2.4,5.64-3.76a80,80,0,0,0,20.91-22.72c1.2-2.06,2.39-4,3.28-5.93.47-1,1-1.85,1.35-2.76s.76-1.78,1.11-2.61c.75-1.65,1.22-3.21,1.71-4.56.23-.68.47-1.31.65-1.9s.32-1.13.45-1.62l.65-2.24a6,6,0,0,1,.21-.77Z" fill="#263238"/>
      <path id="Trazado_113436" data-name="Trazado 113436" d="M456.79,208a3,3,0,0,1-.64.37c-.42.22-1,.55-1.87.94a25.511,25.511,0,0,1-7.33,2.42,13.681,13.681,0,0,1-5.35-.29,9.939,9.939,0,0,1-2.77-1.21,10.671,10.671,0,0,1-2.37-2.15,46.537,46.537,0,0,1-3.59-5.74c-1.17-2-2.69-4-5-4.76s-4.74-.19-6.95.44a27.32,27.32,0,0,1-6.64,1.43,9.67,9.67,0,0,1-10-10.28,10.11,10.11,0,0,1,.75-3.25,7.091,7.091,0,0,1,1.51-2.39,13.64,13.64,0,0,0-1.32,2.47,10,10,0,0,0-.65,3.19,9.48,9.48,0,0,0,9.73,9.78,26.79,26.79,0,0,0,6.51-1.45,22,22,0,0,1,3.52-.77,8.53,8.53,0,0,1,3.74.34,7.91,7.91,0,0,1,3.14,2.07,16.5,16.5,0,0,1,2.13,2.92,49.057,49.057,0,0,0,3.52,5.7,9.35,9.35,0,0,0,4.89,3.24,13.29,13.29,0,0,0,5.19.35,26.64,26.64,0,0,0,7.29-2.25l1.91-.85a5,5,0,0,1,.65-.27Z" fill="#fff"/>
      <path id="Trazado_113437" data-name="Trazado 113437" d="M433,243.43a4.79,4.79,0,0,0,.71-1.69,5.53,5.53,0,0,0-1.56-4.55,7.25,7.25,0,0,0-2.89-1.81,18.151,18.151,0,0,0-3.9-.85c-1.41-.19-2.92-.3-4.46-.63a10.87,10.87,0,0,1-4.49-1.93,6.94,6.94,0,0,1-1.65-1.9,12.7,12.7,0,0,1-1-2.21,23.311,23.311,0,0,0-1.63-4.11,7.37,7.37,0,0,0-6.08-3.6,7.57,7.57,0,0,0-4.69,1.52,15.006,15.006,0,0,0-1.37,1.25,2.791,2.791,0,0,1,.26-.41,6.92,6.92,0,0,1,1-1,7.54,7.54,0,0,1,4.82-1.73,7.73,7.73,0,0,1,6.48,3.72,23.55,23.55,0,0,1,1.7,4.19,8,8,0,0,0,2.49,3.87A10.54,10.54,0,0,0,421,233.4c1.5.33,3,.45,4.41.66,2.82.35,5.5,1.16,7,2.88a5.64,5.64,0,0,1,1.49,4.84,3.47,3.47,0,0,1-.58,1.29,2.11,2.11,0,0,1-.32.36Z" fill="#fff"/>
      <path id="Trazado_113438" data-name="Trazado 113438" d="M448.69,314.45a14.191,14.191,0,0,0-4,.17,45.6,45.6,0,0,0-4.57,1.19,22.06,22.06,0,0,1-6.19,1.12,18,18,0,0,1-7.48-1.47,15.5,15.5,0,0,1-6.78-5.5,14.06,14.06,0,0,1-2.17-9.37,13.57,13.57,0,0,1,1.55-4.93,11.939,11.939,0,0,1,3.53-4c1.42-1.06,3-2,3.71-3.47a3.79,3.79,0,0,0,.34-2.34,9,9,0,0,0-.8-2.32,13.549,13.549,0,0,1-1.68-4.68,10,10,0,0,1,.7-4.74A11.54,11.54,0,0,1,431,268a17.11,17.11,0,0,1,7.5-1.35,38.619,38.619,0,0,0,6.23-.18,10.1,10.1,0,0,0,4.32-1.68,6.44,6.44,0,0,0,2-2.17c.32-.6.39-.95.43-.94a3.5,3.5,0,0,1-.34,1,6.31,6.31,0,0,1-1.94,2.28,10.28,10.28,0,0,1-4.39,1.81,37.67,37.67,0,0,1-6.28.26,16.85,16.85,0,0,0-7.33,1.37,11.13,11.13,0,0,0-5.86,5.92,9.41,9.41,0,0,0-.65,4.51,13.15,13.15,0,0,0,1.64,4.52,9,9,0,0,1,.84,2.45,4.22,4.22,0,0,1-.38,2.65c-.85,1.66-2.47,2.61-3.86,3.65a12,12,0,0,0-4.88,8.54,13.63,13.63,0,0,0,2.06,9,15.24,15.24,0,0,0,6.55,5.38,17.94,17.94,0,0,0,7.31,1.49,21.779,21.779,0,0,0,6.12-1,41,41,0,0,1,4.61-1.11,11.651,11.651,0,0,1,3-.14,5.4,5.4,0,0,1,.99.19Z" fill="#fff"/>
      <path id="Trazado_113439" data-name="Trazado 113439" d="M434.54,346.34a13,13,0,0,1,.07-1.95,11.35,11.35,0,0,0-.91-5.12,5,5,0,0,0-2.43-2.46,9.35,9.35,0,0,0-4-.61,11.71,11.71,0,0,1-4.69-.58,5.56,5.56,0,0,1-2-1.57,12.8,12.8,0,0,1-1.38-2.19,18.111,18.111,0,0,0-2.56-4.21,12.7,12.7,0,0,0-3.56-2.84,12.2,12.2,0,0,0-7.51-1.34,13.32,13.32,0,0,0-4.93,1.74c-1.06.65-1.58,1.12-1.61,1.09s.11-.14.35-.37a11.83,11.83,0,0,1,6.14-2.82,12.3,12.3,0,0,1,7.78,1.28,12.84,12.84,0,0,1,3.72,2.92,13.067,13.067,0,0,1,1.47,2c.42.74.78,1.51,1.17,2.27a7,7,0,0,0,3.15,3.53,11.49,11.49,0,0,0,4.49.57,9.87,9.87,0,0,1,4.23.69,5.43,5.43,0,0,1,2.58,2.7,11.28,11.28,0,0,1,.78,5.29c-.05.63-.11,1.12-.17,1.44a3,3,0,0,1-.18.54Z" fill="#fff"/>
      <path id="Trazado_113440" data-name="Trazado 113440" d="M410.55,263.64a15.831,15.831,0,0,1-.82,1.72,13.229,13.229,0,0,0-1.49,4.86,6.4,6.4,0,0,0,.73,3.35,27.451,27.451,0,0,0,2.28,3.37A12.08,12.08,0,0,1,413.5,286a10.19,10.19,0,0,1-5.5,7.49,9.149,9.149,0,0,1-4.05,1,8.8,8.8,0,0,1-7.43-4.24,7.412,7.412,0,0,1-.58-1.29,1.64,1.64,0,0,1-.11-.49,18.422,18.422,0,0,0,.87,1.68,8.57,8.57,0,0,0,3.85,3.21,8.14,8.14,0,0,0,3.39.69,8.72,8.72,0,0,0,3.85-1,9.79,9.79,0,0,0,5.2-7.14,11.76,11.76,0,0,0-2.14-8.72,26.911,26.911,0,0,1-2.27-3.45,6.76,6.76,0,0,1-.71-3.57,12.58,12.58,0,0,1,1.68-4.92c.3-.54.54-.95.72-1.22a2.441,2.441,0,0,1,.28-.39Z" fill="#fff"/>
      <path id="Trazado_113441" data-name="Trazado 113441" d="M440.68,230.09a5.588,5.588,0,0,1-.12-1.19c0-.88-.1-2-.16-3.26-.14-2.86-.32-6.59-.52-10.72s-.34-8-.37-10.74v-3.26a5.252,5.252,0,0,1,.08-1.2,4.909,4.909,0,0,1,.12,1.2c.05.87.1,2,.17,3.25.13,2.86.31,6.59.52,10.72s.33,8,.36,10.74v3.26a5.249,5.249,0,0,1-.08,1.2Z" fill="#263238"/>
      <path id="Trazado_113442" data-name="Trazado 113442" d="M440.33,217.42S442,237.6,440.08,239c-10.69,7.47-24.9,10.47-30,11.36-.71-.26-1.53-.57-2.48-1a7.92,7.92,0,0,1-2.23-1.49,12.66,12.66,0,0,1-2.2-2.52,1,1,0,0,0-1.92.14c-.13.93,1.13,3.49,3.74,5.53s-2.52,2.16-4.39,2.23-7.63.58-8.05,1.19c-.62.88.2,1.74,2.07,1.62s7.47-.07,7.48.94-9.51,1.24-9.51,1.24-2-.28-2.07.88c-.06,2.1,10,1.08,11,1,.67-.08.71,1,0,1.07s-9.49,0-9.57,2.15c-.06,1.64,8.3-.76,10.13.28s-6.53,1.16-6.52,2.73c0,.59.08,1,4.86.25a94.874,94.874,0,0,0,10.12-2.7v.05s49.71-4.26,48.46-26.67c-.84-15.17-.56-12.37-1.49-20.34" fill="#b78876"/>
    </g>
  </g>
</svg>
