<svg xmlns="http://www.w3.org/2000/svg" width="209.781" height="35.617" viewBox="0 0 209.781 35.617">
  <g id="Grupo_60132" data-name="Grupo 60132" transform="translate(-866 -1590.469)">
    <path id="Trazado_113462" data-name="Trazado 113462" d="M19.531,8.641H13.2l.219-1.258h6.336Zm-.562,3.242H12.641l.219-1.25H19.2ZM37.156,4.516,30.977,15H29.43L35.578,4.813H29.641l.188-1.187H37.3ZM43.7,11.18h1.531l-.211,1.18H43.492L43.031,15H41.609l.461-2.641H37.039l.164-.93,6.25-7.8H45Zm-4.8,0h3.375l1.016-5.594-.227.328Zm8.18,2.18a.846.846,0,0,1,.633.234.807.807,0,0,1,.242.625.844.844,0,0,1-.258.621.929.929,0,0,1-.625.254.788.788,0,0,1-.859-.828.874.874,0,0,1,.867-.906Zm10.344-9.75L57.3,4.836h-.273a4.137,4.137,0,0,0-2.672.969A6,6,0,0,0,52.633,8.57a3.294,3.294,0,0,1,2.484-1.031,2.57,2.57,0,0,1,1.539.5A2.765,2.765,0,0,1,57.6,9.363a4.353,4.353,0,0,1,.207,1.871,4.554,4.554,0,0,1-1.238,2.848,3.4,3.4,0,0,1-2.66,1.074,2.775,2.775,0,0,1-2.078-.93,3.927,3.927,0,0,1-.93-2.406,9.107,9.107,0,0,1,.2-2.219,8.049,8.049,0,0,1,2.129-4.453,5.574,5.574,0,0,1,4.043-1.539ZM54.813,8.734a2.386,2.386,0,0,0-1.422.438,3.076,3.076,0,0,0-1.023,1.156l-.055.523-.016.633a4,4,0,0,0,.2,1.242,1.9,1.9,0,0,0,.578.914,1.413,1.413,0,0,0,.9.32,2,2,0,0,0,1.621-.7A3.357,3.357,0,0,0,56.4,11.3a3.372,3.372,0,0,0-.086-1.289,1.894,1.894,0,0,0-.543-.926A1.441,1.441,0,0,0,54.813,8.734ZM63.477,15H62.055l1.672-9.594L60.7,6.469l.242-1.375L65.164,3.57h.25ZM74.25,11.18h1.531l-.211,1.18H74.047L73.586,15H72.164l.461-2.641H67.594l.164-.93,6.25-7.8h1.547Zm-4.8,0h3.375l1.016-5.594-.227.328Z" transform="translate(1000 1599)" fill="#12263f"/>
    <path id="Trazado_113461" data-name="Trazado 113461" d="M22.309,11.18h1.578v1.18H22.309V15H20.855V12.359h-5.18v-.852L20.77,3.625h1.539Zm-4.992,0h3.539V5.6l-.172.313Zm8.055,3.063a.905.905,0,0,1,.223-.625.848.848,0,0,1,.668-.25.874.874,0,0,1,.676.25.887.887,0,0,1,.23.625.839.839,0,0,1-.23.6.89.89,0,0,1-.676.242.8.8,0,0,1-.891-.844Zm11.375-9.8L32.035,15H30.52l4.7-10.187H29.059V3.625h7.688Zm7.742,6.742h1.578v1.18H44.488V15H43.035V12.359h-5.18v-.852l5.094-7.883h1.539Zm-4.992,0h3.539V5.6l-.172.313ZM54.27,6.594a2.641,2.641,0,0,1-.449,1.516,3.057,3.057,0,0,1-1.215,1.039,3.26,3.26,0,0,1,1.41,1.117,2.811,2.811,0,0,1,.52,1.664,2.972,2.972,0,0,1-1,2.352,4.367,4.367,0,0,1-5.25,0A2.986,2.986,0,0,1,47.3,11.93a2.9,2.9,0,0,1,.5-1.664A3.136,3.136,0,0,1,49.2,9.141,2.981,2.981,0,0,1,48,8.1a2.679,2.679,0,0,1-.437-1.508,2.94,2.94,0,0,1,.922-2.281,3.915,3.915,0,0,1,4.855,0A2.934,2.934,0,0,1,54.27,6.594Zm-1.18,5.3a2.1,2.1,0,0,0-.605-1.555,2.147,2.147,0,0,0-1.582-.6A2.034,2.034,0,0,0,48.746,11.9a2.019,2.019,0,0,0,.574,1.523,2.565,2.565,0,0,0,3.191,0A2.014,2.014,0,0,0,53.09,11.9ZM50.918,4.656a1.865,1.865,0,0,0-1.379.527,1.937,1.937,0,0,0-.527,1.434,1.928,1.928,0,0,0,.52,1.4,2.064,2.064,0,0,0,2.773,0,1.928,1.928,0,0,0,.52-1.4A1.929,1.929,0,0,0,52.285,5.2,1.839,1.839,0,0,0,50.918,4.656Zm5.617,9.586a.905.905,0,0,1,.223-.625.848.848,0,0,1,.668-.25.874.874,0,0,1,.676.25.887.887,0,0,1,.23.625.839.839,0,0,1-.23.6.89.89,0,0,1-.676.242.8.8,0,0,1-.891-.844Zm6.133-5.633h1.086a2.387,2.387,0,0,0,1.609-.539,1.8,1.8,0,0,0,.586-1.414,1.764,1.764,0,0,0-1.992-2,2.072,2.072,0,0,0-1.5.535A1.873,1.873,0,0,0,61.9,6.609H60.457a2.9,2.9,0,0,1,.988-2.246,3.6,3.6,0,0,1,2.512-.895,3.558,3.558,0,0,1,2.523.852,3.076,3.076,0,0,1,.914,2.367,2.5,2.5,0,0,1-.48,1.438,2.9,2.9,0,0,1-1.309,1.039,2.8,2.8,0,0,1,1.449.984,2.734,2.734,0,0,1,.512,1.68,3.1,3.1,0,0,1-1,2.43,3.745,3.745,0,0,1-2.6.9,3.844,3.844,0,0,1-2.605-.867,2.877,2.877,0,0,1-1-2.289h1.453a1.859,1.859,0,0,0,.586,1.438,2.229,2.229,0,0,0,1.57.539,2.187,2.187,0,0,0,1.6-.547,2.108,2.108,0,0,0,.555-1.57,1.912,1.912,0,0,0-.609-1.523,2.655,2.655,0,0,0-1.758-.547H62.668Zm12.984,2.57H77.23v1.18H75.652V15H74.2V12.359H69.02v-.852l5.094-7.883h1.539Zm-4.992,0H74.2V5.6l-.172.313Zm15.008-1.031a6.61,6.61,0,0,1-.867,3.773,3.6,3.6,0,0,1-5.406.027,6.274,6.274,0,0,1-.906-3.605V8.414a6.463,6.463,0,0,1,.867-3.727,3.668,3.668,0,0,1,5.422-.043,6.237,6.237,0,0,1,.891,3.629ZM84.223,8.172A5.3,5.3,0,0,0,83.707,5.5a1.775,1.775,0,0,0-1.633-.84,1.751,1.751,0,0,0-1.617.836,5.171,5.171,0,0,0-.523,2.57v2.313a5.381,5.381,0,0,0,.535,2.723,1.771,1.771,0,0,0,1.621.879,1.747,1.747,0,0,0,1.59-.828,5.186,5.186,0,0,0,.543-2.609Zm3.477,6.07a.905.905,0,0,1,.223-.625.848.848,0,0,1,.668-.25.874.874,0,0,1,.676.25.887.887,0,0,1,.23.625.839.839,0,0,1-.23.6.89.89,0,0,1-.676.242.8.8,0,0,1-.891-.844Zm11.164-4.094A6.61,6.61,0,0,1,98,13.922a3.6,3.6,0,0,1-5.406.027,6.274,6.274,0,0,1-.906-3.605V8.414a6.463,6.463,0,0,1,.867-3.727,3.668,3.668,0,0,1,5.422-.043,6.237,6.237,0,0,1,.891,3.629ZM97.418,8.172A5.3,5.3,0,0,0,96.9,5.5a1.775,1.775,0,0,0-1.633-.84,1.751,1.751,0,0,0-1.617.836,5.171,5.171,0,0,0-.523,2.57v2.313a5.381,5.381,0,0,0,.535,2.723,1.771,1.771,0,0,0,1.621.879,1.747,1.747,0,0,0,1.59-.828,5.186,5.186,0,0,0,.543-2.609Zm10.43,1.977a6.61,6.61,0,0,1-.867,3.773,3.6,3.6,0,0,1-5.406.027,6.274,6.274,0,0,1-.906-3.605V8.414a6.463,6.463,0,0,1,.867-3.727,3.668,3.668,0,0,1,5.422-.043,6.237,6.237,0,0,1,.891,3.629ZM106.4,8.172a5.3,5.3,0,0,0-.516-2.676,1.775,1.775,0,0,0-1.633-.84,1.751,1.751,0,0,0-1.617.836,5.171,5.171,0,0,0-.523,2.57v2.313a5.381,5.381,0,0,0,.535,2.723,1.771,1.771,0,0,0,1.621.879,1.747,1.747,0,0,0,1.59-.828,5.186,5.186,0,0,0,.543-2.609Zm10.43,1.977a6.61,6.61,0,0,1-.867,3.773,3.6,3.6,0,0,1-5.406.027,6.274,6.274,0,0,1-.906-3.605V8.414a6.463,6.463,0,0,1,.867-3.727,3.668,3.668,0,0,1,5.422-.043,6.237,6.237,0,0,1,.891,3.629Zm-1.445-1.977a5.3,5.3,0,0,0-.516-2.676,1.775,1.775,0,0,0-1.633-.84,1.751,1.751,0,0,0-1.617.836,5.171,5.171,0,0,0-.523,2.57v2.313a5.381,5.381,0,0,0,.535,2.723,1.771,1.771,0,0,0,1.621.879,1.747,1.747,0,0,0,1.59-.828,5.186,5.186,0,0,0,.543-2.609ZM54.824,39H47.371V37.961l3.938-4.375a9.355,9.355,0,0,0,1.207-1.613,2.693,2.693,0,0,0,.332-1.285,2.041,2.041,0,0,0-.539-1.461,1.885,1.885,0,0,0-1.437-.57,2.232,2.232,0,0,0-1.676.613,2.343,2.343,0,0,0-.6,1.707H47.152a3.355,3.355,0,0,1,1.012-2.539,3.751,3.751,0,0,1,2.707-.969,3.6,3.6,0,0,1,2.508.832,2.838,2.838,0,0,1,.922,2.215q0,1.68-2.141,4l-3.047,3.3h5.711Zm1.711-.758a.905.905,0,0,1,.223-.625.848.848,0,0,1,.668-.25.874.874,0,0,1,.676.25.887.887,0,0,1,.23.625.839.839,0,0,1-.23.6.89.89,0,0,1-.676.242.8.8,0,0,1-.891-.844ZM66.668,35.18h1.578v1.18H66.668V39H65.215V36.359h-5.18v-.852l5.094-7.883h1.539Zm-4.992,0h3.539V29.6l-.172.313ZM74.3,39H72.848V29.367l-2.914,1.07V29.125l4.141-1.555H74.3ZM85.879,28.438,81.168,39H79.652l4.7-10.187H78.191V27.625h7.688Z" transform="translate(867 1587)" fill="#12263f"/>
    <line id="Línea_866" data-name="Línea 866" x1="134" transform="translate(866 1609.5)" fill="none" stroke="#707070" stroke-width="3"/>
  </g>
</svg>
