<svg xmlns="http://www.w3.org/2000/svg" width="249.191" height="35.688" viewBox="0 0 249.191 35.688">
  <g id="Grupo_60137" data-name="Grupo 60137" transform="translate(-866 -1590.469)">
    <path id="Trazado_113466" data-name="Trazado 113466" d="M19.531,8.641H13.2l.219-1.258h6.336Zm-.562,3.242H12.641l.219-1.25H19.2ZM34.633,10a4.055,4.055,0,0,1-1.227.91,2.873,2.873,0,0,1-1.289.285,2.51,2.51,0,0,1-1.535-.508,2.8,2.8,0,0,1-.93-1.352,4.479,4.479,0,0,1-.2-1.875A5.054,5.054,0,0,1,30.086,5.4a3.87,3.87,0,0,1,1.387-1.449,3.4,3.4,0,0,1,1.887-.48,2.682,2.682,0,0,1,2.133.984,4.206,4.206,0,0,1,.836,2.555,10.639,10.639,0,0,1-.2,2.078,7.885,7.885,0,0,1-2.035,4.4,5.523,5.523,0,0,1-3.9,1.527h-.352l.125-1.227h.289a4.246,4.246,0,0,0,2.754-.939A5.616,5.616,0,0,0,34.633,10Zm-2.219,0a2.257,2.257,0,0,0,1.367-.4A3.4,3.4,0,0,0,34.859,8.43l.063-.57.023-.633A3.661,3.661,0,0,0,34.5,5.359a1.412,1.412,0,0,0-1.2-.687,2,2,0,0,0-1.652.746,3.381,3.381,0,0,0-.793,1.965,3.778,3.778,0,0,0,.016.969,2.464,2.464,0,0,0,.281.867A1.412,1.412,0,0,0,32.414,10ZM45.953,4.516,39.773,15H38.227L44.375,4.813H38.438l.188-1.187h7.469Zm8.156,2.008A2.818,2.818,0,0,1,53.5,8.059a4.041,4.041,0,0,1-1.457,1.129,2.674,2.674,0,0,1,1.09,1.129,2.891,2.891,0,0,1,.293,1.543A3.315,3.315,0,0,1,52.2,14.277a4,4,0,0,1-2.7.879,3.21,3.21,0,0,1-2.336-.914,2.733,2.733,0,0,1-.742-2.25,3.041,3.041,0,0,1,.688-1.707A4.306,4.306,0,0,1,48.75,9.1a2.586,2.586,0,0,1-.9-1.062,2.7,2.7,0,0,1-.23-1.375A3.3,3.3,0,0,1,48.75,4.328a3.577,3.577,0,0,1,2.516-.859,2.908,2.908,0,0,1,2.156.883A2.7,2.7,0,0,1,54.109,6.523Zm-2.078,5.3a1.943,1.943,0,0,0-.375-1.473A1.716,1.716,0,0,0,50.3,9.734a2.309,2.309,0,0,0-1.656.613,2.486,2.486,0,0,0-.8,1.621,1.838,1.838,0,0,0,.379,1.453,1.719,1.719,0,0,0,1.34.563,2.323,2.323,0,0,0,1.672-.574A2.381,2.381,0,0,0,52.031,11.828Zm.656-5.281a1.791,1.791,0,0,0-.324-1.328,1.462,1.462,0,0,0-1.168-.57,2,2,0,0,0-1.477.559,2.334,2.334,0,0,0-.7,1.48,1.76,1.76,0,0,0,.332,1.336,1.46,1.46,0,0,0,1.176.539,2,2,0,0,0,1.457-.551A2.285,2.285,0,0,0,52.688,6.547Zm3.188,6.813a.846.846,0,0,1,.633.234.807.807,0,0,1,.242.625.844.844,0,0,1-.258.621.929.929,0,0,1-.625.254.788.788,0,0,1-.859-.828.874.874,0,0,1,.867-.906ZM67.711,4.516,61.531,15H59.984L66.133,4.813H60.2l.188-1.187h7.469Zm1.555,4.758,1.445-5.648h5.672l-.211,1.336H71.719L70.844,8.07A3.481,3.481,0,0,1,72.7,7.578a2.553,2.553,0,0,1,2.172,1.066,3.864,3.864,0,0,1,.617,2.676,4.274,4.274,0,0,1-1.242,2.813,3.651,3.651,0,0,1-2.727,1.031,2.975,2.975,0,0,1-2.2-.875A3.307,3.307,0,0,1,68.445,12h1.32a2.266,2.266,0,0,0,.531,1.453,1.718,1.718,0,0,0,1.289.531,2.1,2.1,0,0,0,1.684-.711,3.282,3.282,0,0,0,.809-1.945,2.5,2.5,0,0,0-.367-1.738,1.671,1.671,0,0,0-1.4-.715,2.4,2.4,0,0,0-1.012.172,3.758,3.758,0,0,0-.879.539Zm10.773,5.883a2.567,2.567,0,0,1-2.156-1.02,4.526,4.526,0,0,1-.656-2.848q.016-.578.086-1.141l.281-1.9a7.043,7.043,0,0,1,1.43-3.625A3.418,3.418,0,0,1,81.8,3.469a2.6,2.6,0,0,1,2.168,1,4.426,4.426,0,0,1,.66,2.8q-.023.586-.094,1.148l-.273,1.836A7.463,7.463,0,0,1,82.8,14.008,3.4,3.4,0,0,1,80.039,15.156Zm3.133-7a12.092,12.092,0,0,0,.1-1.469Q83.234,4.7,81.734,4.648a2.053,2.053,0,0,0-1.77.809,5.606,5.606,0,0,0-.941,2.66l-.336,2.266a11.525,11.525,0,0,0-.1,1.477q.039,2.07,1.531,2.125a2.007,2.007,0,0,0,1.715-.766,5.429,5.429,0,0,0,.965-2.578Zm3.258,5.2a.846.846,0,0,1,.633.234.807.807,0,0,1,.242.625.844.844,0,0,1-.258.621.929.929,0,0,1-.625.254.788.788,0,0,1-.859-.828.874.874,0,0,1,.867-.906Zm6.57,1.8a2.567,2.567,0,0,1-2.156-1.02,4.526,4.526,0,0,1-.656-2.848q.016-.578.086-1.141l.281-1.9a7.043,7.043,0,0,1,1.43-3.625,3.418,3.418,0,0,1,2.781-1.156,2.6,2.6,0,0,1,2.168,1,4.426,4.426,0,0,1,.66,2.8q-.023.586-.094,1.148l-.273,1.836a7.463,7.463,0,0,1-1.461,3.758A3.4,3.4,0,0,1,93,15.156Zm3.133-7a12.092,12.092,0,0,0,.1-1.469Q96.2,4.7,94.7,4.648a2.053,2.053,0,0,0-1.77.809,5.606,5.606,0,0,0-.941,2.66l-.336,2.266a11.525,11.525,0,0,0-.1,1.477q.039,2.07,1.531,2.125a2.007,2.007,0,0,0,1.715-.766,5.429,5.429,0,0,0,.965-2.578Zm5.664,7a2.567,2.567,0,0,1-2.156-1.02,4.526,4.526,0,0,1-.656-2.848q.016-.578.086-1.141l.281-1.9a7.043,7.043,0,0,1,1.43-3.625,3.418,3.418,0,0,1,2.781-1.156,2.6,2.6,0,0,1,2.168,1,4.426,4.426,0,0,1,.66,2.8q-.023.586-.094,1.148l-.273,1.836a7.463,7.463,0,0,1-1.461,3.758A3.4,3.4,0,0,1,101.8,15.156Zm3.133-7a12.092,12.092,0,0,0,.1-1.469q-.039-1.984-1.539-2.039a2.053,2.053,0,0,0-1.77.809,5.606,5.606,0,0,0-.941,2.66l-.336,2.266a11.525,11.525,0,0,0-.1,1.477q.039,2.07,1.531,2.125a2.007,2.007,0,0,0,1.715-.766,5.429,5.429,0,0,0,.965-2.578Zm5.664,7a2.567,2.567,0,0,1-2.156-1.02,4.526,4.526,0,0,1-.656-2.848q.016-.578.086-1.141l.281-1.9a7.043,7.043,0,0,1,1.43-3.625,3.418,3.418,0,0,1,2.781-1.156,2.6,2.6,0,0,1,2.168,1,4.426,4.426,0,0,1,.66,2.8q-.023.586-.094,1.148l-.273,1.836a7.463,7.463,0,0,1-1.461,3.758A3.4,3.4,0,0,1,110.594,15.156Zm3.133-7a12.092,12.092,0,0,0,.1-1.469q-.039-1.984-1.539-2.039a2.053,2.053,0,0,0-1.77.809,5.606,5.606,0,0,0-.941,2.66l-.336,2.266a11.525,11.525,0,0,0-.1,1.477q.039,2.07,1.531,2.125a2.007,2.007,0,0,0,1.715-.766,5.429,5.429,0,0,0,.965-2.578Z" transform="translate(1000 1599)" fill="#12263f"/>
    <path id="Trazado_113465" data-name="Trazado 113465" d="M23.551,4.438,18.84,15H17.324l4.7-10.187H15.863V3.625h7.688Zm1.82,9.8a.905.905,0,0,1,.223-.625.848.848,0,0,1,.668-.25.874.874,0,0,1,.676.25.887.887,0,0,1,.23.625.839.839,0,0,1-.23.6.89.89,0,0,1-.676.242.8.8,0,0,1-.891-.844ZM36.3,6.594a2.641,2.641,0,0,1-.449,1.516,3.057,3.057,0,0,1-1.215,1.039,3.26,3.26,0,0,1,1.41,1.117,2.811,2.811,0,0,1,.52,1.664,2.972,2.972,0,0,1-1,2.352,3.827,3.827,0,0,1-2.621.875,3.81,3.81,0,0,1-2.629-.879,2.986,2.986,0,0,1-.988-2.348,2.9,2.9,0,0,1,.5-1.664A3.136,3.136,0,0,1,31.23,9.141a2.981,2.981,0,0,1-1.2-1.039A2.679,2.679,0,0,1,29.6,6.594a2.94,2.94,0,0,1,.922-2.281,3.915,3.915,0,0,1,4.855,0A2.934,2.934,0,0,1,36.3,6.594Zm-1.18,5.3a2.1,2.1,0,0,0-.605-1.555,2.147,2.147,0,0,0-1.582-.6A2.034,2.034,0,0,0,30.777,11.9a2.019,2.019,0,0,0,.574,1.523,2.565,2.565,0,0,0,3.191,0A2.014,2.014,0,0,0,35.121,11.9ZM32.949,4.656a1.865,1.865,0,0,0-1.379.527,1.937,1.937,0,0,0-.527,1.434,1.928,1.928,0,0,0,.52,1.4,2.064,2.064,0,0,0,2.773,0,1.928,1.928,0,0,0,.52-1.4A1.929,1.929,0,0,0,34.316,5.2,1.839,1.839,0,0,0,32.949,4.656Zm7.539,3.953h1.086a2.387,2.387,0,0,0,1.609-.539,1.8,1.8,0,0,0,.586-1.414,1.764,1.764,0,0,0-1.992-2,2.072,2.072,0,0,0-1.5.535,1.873,1.873,0,0,0-.559,1.418H38.277a2.9,2.9,0,0,1,.988-2.246,3.6,3.6,0,0,1,2.512-.895A3.558,3.558,0,0,1,44.3,4.32a3.076,3.076,0,0,1,.914,2.367,2.5,2.5,0,0,1-.48,1.438,2.9,2.9,0,0,1-1.309,1.039,2.8,2.8,0,0,1,1.449.984,2.734,2.734,0,0,1,.512,1.68,3.1,3.1,0,0,1-1,2.43,3.745,3.745,0,0,1-2.6.9,3.844,3.844,0,0,1-2.605-.867,2.877,2.877,0,0,1-1-2.289h1.453a1.859,1.859,0,0,0,.586,1.438,2.229,2.229,0,0,0,1.57.539,2.187,2.187,0,0,0,1.6-.547,2.108,2.108,0,0,0,.555-1.57,1.912,1.912,0,0,0-.609-1.523,2.655,2.655,0,0,0-1.758-.547H40.488ZM54.5,10.148a6.61,6.61,0,0,1-.867,3.773,3.6,3.6,0,0,1-5.406.027,6.274,6.274,0,0,1-.906-3.605V8.414a6.463,6.463,0,0,1,.867-3.727,3.668,3.668,0,0,1,5.422-.043A6.237,6.237,0,0,1,54.5,8.273ZM53.059,8.172A5.3,5.3,0,0,0,52.543,5.5a1.775,1.775,0,0,0-1.633-.84,1.751,1.751,0,0,0-1.617.836,5.171,5.171,0,0,0-.523,2.57v2.313A5.381,5.381,0,0,0,49.3,13.1a1.771,1.771,0,0,0,1.621.879,1.747,1.747,0,0,0,1.59-.828,5.186,5.186,0,0,0,.543-2.609Zm3.477,6.07a.905.905,0,0,1,.223-.625.848.848,0,0,1,.668-.25.874.874,0,0,1,.676.25.887.887,0,0,1,.23.625.839.839,0,0,1-.23.6.89.89,0,0,1-.676.242.8.8,0,0,1-.891-.844ZM67.7,10.148a6.61,6.61,0,0,1-.867,3.773,3.6,3.6,0,0,1-5.406.027,6.274,6.274,0,0,1-.906-3.605V8.414a6.463,6.463,0,0,1,.867-3.727,3.668,3.668,0,0,1,5.422-.043A6.237,6.237,0,0,1,67.7,8.273ZM66.254,8.172A5.3,5.3,0,0,0,65.738,5.5a1.775,1.775,0,0,0-1.633-.84,1.751,1.751,0,0,0-1.617.836,5.171,5.171,0,0,0-.523,2.57v2.313A5.381,5.381,0,0,0,62.5,13.1a1.771,1.771,0,0,0,1.621.879,1.747,1.747,0,0,0,1.59-.828,5.186,5.186,0,0,0,.543-2.609Zm10.43,1.977a6.61,6.61,0,0,1-.867,3.773,3.6,3.6,0,0,1-5.406.027,6.274,6.274,0,0,1-.906-3.605V8.414a6.463,6.463,0,0,1,.867-3.727,3.668,3.668,0,0,1,5.422-.043,6.237,6.237,0,0,1,.891,3.629ZM75.238,8.172A5.3,5.3,0,0,0,74.723,5.5a1.775,1.775,0,0,0-1.633-.84,1.751,1.751,0,0,0-1.617.836,5.171,5.171,0,0,0-.523,2.57v2.313a5.381,5.381,0,0,0,.535,2.723,1.771,1.771,0,0,0,1.621.879,1.747,1.747,0,0,0,1.59-.828,5.186,5.186,0,0,0,.543-2.609Zm10.43,1.977a6.61,6.61,0,0,1-.867,3.773,3.6,3.6,0,0,1-5.406.027,6.274,6.274,0,0,1-.906-3.605V8.414a6.463,6.463,0,0,1,.867-3.727,3.668,3.668,0,0,1,5.422-.043,6.237,6.237,0,0,1,.891,3.629ZM84.223,8.172A5.3,5.3,0,0,0,83.707,5.5a1.775,1.775,0,0,0-1.633-.84,1.751,1.751,0,0,0-1.617.836,5.171,5.171,0,0,0-.523,2.57v2.313a5.381,5.381,0,0,0,.535,2.723,1.771,1.771,0,0,0,1.621.879,1.747,1.747,0,0,0,1.59-.828,5.186,5.186,0,0,0,.543-2.609Zm3.477,6.07a.905.905,0,0,1,.223-.625.848.848,0,0,1,.668-.25.874.874,0,0,1,.676.25.887.887,0,0,1,.23.625.839.839,0,0,1-.23.6.89.89,0,0,1-.676.242.8.8,0,0,1-.891-.844Zm11.164-4.094A6.61,6.61,0,0,1,98,13.922a3.6,3.6,0,0,1-5.406.027,6.274,6.274,0,0,1-.906-3.605V8.414a6.463,6.463,0,0,1,.867-3.727,3.668,3.668,0,0,1,5.422-.043,6.237,6.237,0,0,1,.891,3.629ZM97.418,8.172A5.3,5.3,0,0,0,96.9,5.5a1.775,1.775,0,0,0-1.633-.84,1.751,1.751,0,0,0-1.617.836,5.171,5.171,0,0,0-.523,2.57v2.313a5.381,5.381,0,0,0,.535,2.723,1.771,1.771,0,0,0,1.621.879,1.747,1.747,0,0,0,1.59-.828,5.186,5.186,0,0,0,.543-2.609Zm10.43,1.977a6.61,6.61,0,0,1-.867,3.773,3.6,3.6,0,0,1-5.406.027,6.274,6.274,0,0,1-.906-3.605V8.414a6.463,6.463,0,0,1,.867-3.727,3.668,3.668,0,0,1,5.422-.043,6.237,6.237,0,0,1,.891,3.629ZM106.4,8.172a5.3,5.3,0,0,0-.516-2.676,1.775,1.775,0,0,0-1.633-.84,1.751,1.751,0,0,0-1.617.836,5.171,5.171,0,0,0-.523,2.57v2.313a5.381,5.381,0,0,0,.535,2.723,1.771,1.771,0,0,0,1.621.879,1.747,1.747,0,0,0,1.59-.828,5.186,5.186,0,0,0,.543-2.609Zm10.43,1.977a6.61,6.61,0,0,1-.867,3.773,3.6,3.6,0,0,1-5.406.027,6.274,6.274,0,0,1-.906-3.605V8.414a6.463,6.463,0,0,1,.867-3.727,3.668,3.668,0,0,1,5.422-.043,6.237,6.237,0,0,1,.891,3.629Zm-1.445-1.977a5.3,5.3,0,0,0-.516-2.676,1.775,1.775,0,0,0-1.633-.84,1.751,1.751,0,0,0-1.617.836,5.171,5.171,0,0,0-.523,2.57v2.313a5.381,5.381,0,0,0,.535,2.723,1.771,1.771,0,0,0,1.621.879,1.747,1.747,0,0,0,1.59-.828,5.186,5.186,0,0,0,.543-2.609ZM69.852,30.594a2.641,2.641,0,0,1-.449,1.516,3.057,3.057,0,0,1-1.215,1.039,3.26,3.26,0,0,1,1.41,1.117,2.811,2.811,0,0,1,.52,1.664,2.972,2.972,0,0,1-1,2.352,4.367,4.367,0,0,1-5.25,0,2.986,2.986,0,0,1-.988-2.348,2.9,2.9,0,0,1,.5-1.664,3.136,3.136,0,0,1,1.395-1.125,2.981,2.981,0,0,1-1.2-1.039,2.679,2.679,0,0,1-.437-1.508,2.94,2.94,0,0,1,.922-2.281,3.915,3.915,0,0,1,4.855,0A2.934,2.934,0,0,1,69.852,30.594Zm-1.18,5.3a2.1,2.1,0,0,0-.605-1.555,2.147,2.147,0,0,0-1.582-.6A2.034,2.034,0,0,0,64.328,35.9a2.019,2.019,0,0,0,.574,1.523,2.565,2.565,0,0,0,3.191,0A2.014,2.014,0,0,0,68.672,35.9ZM66.5,28.656a1.865,1.865,0,0,0-1.379.527,2.182,2.182,0,0,0-.008,2.836,2.064,2.064,0,0,0,2.773,0,2.138,2.138,0,0,0-.02-2.816A1.839,1.839,0,0,0,66.5,28.656Z" transform="translate(867 1587)" fill="#12263f"/>
    <line id="Línea_866" data-name="Línea 866" x1="134" transform="translate(866 1609.5)" fill="none" stroke="#707070" stroke-width="3"/>
  </g>
</svg>
