<svg xmlns="http://www.w3.org/2000/svg" width="428.734" height="421.12" viewBox="0 0 428.734 421.12">
  <g id="Revenue-bro" transform="translate(-34.414 -43.43)">
    <g id="freepik--background-simple--inject-92">
      <path id="Trazado_112663" data-name="Trazado 112663" d="M332.51,63.83c-21.82,12.48-37.21,33.47-55.86,50.32a179.7,179.7,0,0,1-81.92,42c-25,5.41-51.12,5.49-75.21,14-47,16.49-79.19,65.43-80,115.19s27.5,98,69.11,125.28a165.639,165.639,0,0,0,46,20.95c30.6,8.61,63.05,8.23,94.67,4.94,54.62-5.69,111.88-36.71,146.31-80.44a313.74,313.74,0,0,0,38.64-63.45,316.452,316.452,0,0,0,28.52-118.15c1.45-35,0-73.8-27.77-99.31S365.06,45.2,332.51,63.83Z" fill="#eaccb2"/>
      <path id="Trazado_112664" data-name="Trazado 112664" d="M332.51,63.83c-21.82,12.48-37.21,33.47-55.86,50.32a179.7,179.7,0,0,1-81.92,42c-25,5.41-51.12,5.49-75.21,14-47,16.49-79.19,65.43-80,115.19s27.5,98,69.11,125.28a165.639,165.639,0,0,0,46,20.95c30.6,8.61,63.05,8.23,94.67,4.94,54.62-5.69,111.88-36.71,146.31-80.44a313.74,313.74,0,0,0,38.64-63.45,316.452,316.452,0,0,0,28.52-118.15c1.45-35,0-73.8-27.77-99.31S365.06,45.2,332.51,63.83Z" fill="#fff" opacity="0.7"/>
    </g>
    <g id="freepik--Shadow--inject-92">
      <ellipse id="Elipse_4392" data-name="Elipse 4392" cx="179.33" cy="48.3" rx="179.33" ry="48.3" transform="translate(95.77 367.95)" fill="#eaccb2"/>
      <ellipse id="Elipse_4393" data-name="Elipse 4393" cx="179.33" cy="48.3" rx="179.33" ry="48.3" transform="translate(95.77 367.95)" fill="#fff" opacity="0.5"/>
    </g>
    <g id="freepik--Window--inject-92">
      <rect id="Rectángulo_28747" data-name="Rectángulo 28747" width="228.73" height="136.09" rx="8.95" transform="translate(77.18 68.3)" fill="#fff"/>
      <path id="Trazado_112665" data-name="Trazado 112665" d="M305.91,77.25v3.54H77.18V77.25a9,9,0,0,1,8.95-9H297a8.94,8.94,0,0,1,8.91,9Z" fill="#eaccb2"/>
      <rect id="Rectángulo_28748" data-name="Rectángulo 28748" width="228.73" height="136.09" rx="8.95" transform="translate(77.18 68.3)" fill="none" stroke="#263238" stroke-linecap="round" stroke-linejoin="round" stroke-width="1"/>
      <path id="Trazado_112666" data-name="Trazado 112666" d="M305.91,77.25v3.54H77.18V77.25a9,9,0,0,1,8.95-9H297a8.94,8.94,0,0,1,8.91,9Z" fill="none" stroke="#263238" stroke-linecap="round" stroke-linejoin="round" stroke-width="1"/>
      <path id="Trazado_112667" data-name="Trazado 112667" d="M102.87,74.54a2.29,2.29,0,1,1-2.29-2.28,2.29,2.29,0,0,1,2.29,2.28Z" fill="#263238"/>
      <path id="Trazado_112668" data-name="Trazado 112668" d="M114.82,74.54a2.29,2.29,0,1,1-2.29-2.28,2.29,2.29,0,0,1,2.29,2.28Z" fill="#263238"/>
      <circle id="Elipse_4394" data-name="Elipse 4394" cx="2.29" cy="2.29" r="2.29" transform="translate(122.19 72.25)" fill="#263238"/>
      <rect id="Rectángulo_28749" data-name="Rectángulo 28749" width="72.05" height="38.49" rx="3.69" transform="translate(90.74 90.7)" fill="none" stroke="#263238" stroke-linecap="round" stroke-linejoin="round" stroke-width="1"/>
      <line id="Línea_790" data-name="Línea 790" x2="62.47" transform="translate(94.98 124.35)" fill="none" stroke="#263238" stroke-linecap="round" stroke-linejoin="round" stroke-width="1"/>
      <rect id="Rectángulo_28750" data-name="Rectángulo 28750" width="7.25" height="7.25" transform="translate(99.62 117)" fill="#aed3f2" stroke="#263238" stroke-miterlimit="10" stroke-width="1"/>
      <rect id="Rectángulo_28751" data-name="Rectángulo 28751" width="7.25" height="16.88" transform="translate(110.23 107.47)" fill="#aed3f2" stroke="#263238" stroke-miterlimit="10" stroke-width="1"/>
      <rect id="Rectángulo_28752" data-name="Rectángulo 28752" width="7.25" height="14.15" transform="translate(122.18 110.37)" fill="#aed3f2" stroke="#263238" stroke-miterlimit="10" stroke-width="1"/>
      <rect id="Rectángulo_28753" data-name="Rectángulo 28753" width="7.25" height="27.75" transform="translate(134.74 96.28)" fill="#aed3f2" stroke="#263238" stroke-miterlimit="10" stroke-width="1"/>
      <rect id="Rectángulo_28754" data-name="Rectángulo 28754" width="7.25" height="27.75" transform="translate(147.29 96.5)" fill="#aed3f2" stroke="#263238" stroke-miterlimit="10" stroke-width="1"/>
      <circle id="Elipse_4395" data-name="Elipse 4395" cx="20.27" cy="20.27" r="20.27" transform="translate(231.85 90.64)" fill="#eaccb2" stroke="#263238" stroke-miterlimit="10" stroke-width="1"/>
      <path id="Trazado_112669" data-name="Trazado 112669" d="M253.78,123.55v2.08h-3.4v-2.08a6.18,6.18,0,0,1-4.72-6.3v-.94l3.85-.42v1c0,1.93,1,3.1,2.57,3.1a2.37,2.37,0,0,0,2.56-2.53c0-1.85-1.73-3.44-3.77-5.13-2.42-2-4.83-4.38-4.83-7.74s1.58-5.63,4.34-6.31V96.19h3.4v2.07c2.79.65,4.41,3,4.41,6.35v.68l-3.85.41V105c0-2-.79-3.1-2.19-3.1s-2.19.87-2.19,2.53c0,1.85,1.78,3.4,3.78,5.13,2.38,2,4.83,4.38,4.83,7.74a6.15,6.15,0,0,1-4.79,6.25Z" fill="#263238"/>
      <line id="Línea_791" data-name="Línea 791" x2="5.92" transform="translate(89.06 148.85)" fill="none" stroke="#263238" stroke-linecap="round" stroke-linejoin="round" stroke-width="1"/>
      <line id="Línea_792" data-name="Línea 792" x2="5.92" transform="translate(89.06 160.29)" fill="none" stroke="#263238" stroke-linecap="round" stroke-linejoin="round" stroke-width="1"/>
      <line id="Línea_793" data-name="Línea 793" x2="5.92" transform="translate(89.06 171.74)" fill="none" stroke="#263238" stroke-linecap="round" stroke-linejoin="round" stroke-width="1"/>
      <line id="Línea_794" data-name="Línea 794" x2="5.92" transform="translate(89.06 183.18)" fill="none" stroke="#263238" stroke-linecap="round" stroke-linejoin="round" stroke-width="1"/>
      <line id="Línea_795" data-name="Línea 795" y1="4.6" transform="translate(108.03 187.22)" fill="none" stroke="#263238" stroke-linecap="round" stroke-linejoin="round" stroke-width="1"/>
      <line id="Línea_796" data-name="Línea 796" y1="4.6" transform="translate(117.41 187.22)" fill="none" stroke="#263238" stroke-linecap="round" stroke-linejoin="round" stroke-width="1"/>
      <line id="Línea_797" data-name="Línea 797" y1="4.6" transform="translate(126.79 187.22)" fill="none" stroke="#263238" stroke-linecap="round" stroke-linejoin="round" stroke-width="1"/>
      <line id="Línea_798" data-name="Línea 798" y1="4.6" transform="translate(136.18 187.22)" fill="none" stroke="#263238" stroke-linecap="round" stroke-linejoin="round" stroke-width="1"/>
      <line id="Línea_799" data-name="Línea 799" y1="4.6" transform="translate(145.56 187.22)" fill="none" stroke="#263238" stroke-linecap="round" stroke-linejoin="round" stroke-width="1"/>
      <line id="Línea_800" data-name="Línea 800" y1="4.6" transform="translate(154.94 187.22)" fill="none" stroke="#263238" stroke-linecap="round" stroke-linejoin="round" stroke-width="1"/>
      <line id="Línea_801" data-name="Línea 801" y1="4.6" transform="translate(164.32 187.22)" fill="none" stroke="#263238" stroke-linecap="round" stroke-linejoin="round" stroke-width="1"/>
      <line id="Línea_802" data-name="Línea 802" y1="4.6" transform="translate(173.71 187.22)" fill="none" stroke="#263238" stroke-linecap="round" stroke-linejoin="round" stroke-width="1"/>
      <line id="Línea_803" data-name="Línea 803" y1="4.6" transform="translate(183.09 187.22)" fill="none" stroke="#263238" stroke-linecap="round" stroke-linejoin="round" stroke-width="1"/>
      <line id="Línea_804" data-name="Línea 804" y1="4.6" transform="translate(192.47 187.22)" fill="none" stroke="#263238" stroke-linecap="round" stroke-linejoin="round" stroke-width="1"/>
      <line id="Línea_805" data-name="Línea 805" y1="4.6" transform="translate(201.85 187.22)" fill="none" stroke="#263238" stroke-linecap="round" stroke-linejoin="round" stroke-width="1"/>
      <line id="Línea_806" data-name="Línea 806" y1="4.6" transform="translate(211.24 187.22)" fill="none" stroke="#263238" stroke-linecap="round" stroke-linejoin="round" stroke-width="1"/>
      <line id="Línea_807" data-name="Línea 807" y1="4.6" transform="translate(220.62 187.22)" fill="none" stroke="#263238" stroke-linecap="round" stroke-linejoin="round" stroke-width="1"/>
      <line id="Línea_808" data-name="Línea 808" y1="4.6" transform="translate(230 187.22)" fill="none" stroke="#263238" stroke-linecap="round" stroke-linejoin="round" stroke-width="1"/>
      <line id="Línea_809" data-name="Línea 809" y1="4.6" transform="translate(239.38 187.22)" fill="none" stroke="#263238" stroke-linecap="round" stroke-linejoin="round" stroke-width="1"/>
      <line id="Línea_810" data-name="Línea 810" y1="4.6" transform="translate(248.41 187.22)" fill="none" stroke="#263238" stroke-linecap="round" stroke-linejoin="round" stroke-width="1"/>
      <line id="Línea_811" data-name="Línea 811" y1="4.6" transform="translate(257.44 187.22)" fill="none" stroke="#263238" stroke-linecap="round" stroke-linejoin="round" stroke-width="1"/>
      <line id="Línea_812" data-name="Línea 812" y1="4.6" transform="translate(266.46 187.22)" fill="none" stroke="#263238" stroke-linecap="round" stroke-linejoin="round" stroke-width="1"/>
      <path id="Trazado_112670" data-name="Trazado 112670" d="M290.34,141.85v44.46c0,3.05-3.1,5.51-6.92,5.51H96a7.42,7.42,0,0,1-6-2.71,4.73,4.73,0,0,1-1-2.8V141.85c0-3,3.1-5.51,6.92-5.51h187.5C287.24,136.34,290.34,138.8,290.34,141.85Z" fill="none" stroke="#eaccb2" stroke-linecap="round" stroke-linejoin="round" stroke-width="1"/>
      <path id="Trazado_112671" data-name="Trazado 112671" d="M233.3,55.74l-59.83,80.6-22.88,30.82-25-15.92L95,191.82h-.44a5.51,5.51,0,0,1-4.75-2.71l34.37-45.61,25,15.89,17.11-23,62.39-84Z" fill="#263238"/>
      <path id="Trazado_112672" data-name="Trazado 112672" d="M218.12,56.76l21.99-13.33-6.08,23.06-3.88-10.67Z" fill="#263238"/>
    </g>
    <g id="freepik--Floor--inject-92">
      <path id="Trazado_112673" data-name="Trazado 112673" d="M426.23,310.52H74.54L35.12,345.57" fill="none" stroke="#263238" stroke-linecap="round" stroke-linejoin="round" stroke-width="1"/>
      <line id="Línea_813" data-name="Línea 813" y1="68.15" transform="translate(74.76 217.83)" fill="none" stroke="#263238" stroke-linecap="round" stroke-linejoin="round" stroke-width="1"/>
      <line id="Línea_814" data-name="Línea 814" y1="13.18" transform="translate(74.76 293.38)" fill="none" stroke="#263238" stroke-linecap="round" stroke-linejoin="round" stroke-width="1"/>
      <g id="freepik--freepik--Plants--inject-120--inject-92">
        <path id="Trazado_112674" data-name="Trazado 112674" d="M405.06,144.72s0-4.12-5.77-9.88-9.47-9.06-9.47-9.06-2.89,9.47,2.47,15.24a101,101,0,0,0,12.77,11.14Z" fill="#aed3f2"/>
        <path id="Trazado_112675" data-name="Trazado 112675" d="M396.69,170.45s0-4.12-5.77-9.89-9.47-9.06-9.47-9.06-2.88,9.47,2.47,15.24a102.633,102.633,0,0,0,12.77,11.15Z" fill="#aed3f2"/>
        <path id="Trazado_112676" data-name="Trazado 112676" d="M404.69,151.74s.44-4.1,6.78-9.23,10.38-8,10.38-8,1.86,9.75-4.07,14.89a101.508,101.508,0,0,1-13.87,9.71Z" fill="#aed3f2"/>
        <path id="Trazado_112677" data-name="Trazado 112677" d="M394.58,182.12s.87-4,7.71-8.46,11.15-6.88,11.15-6.88.83,9.87-5.58,14.39a100.791,100.791,0,0,1-14.81,8.19Z" fill="#aed3f2"/>
        <path id="Trazado_112678" data-name="Trazado 112678" d="M396.49,215.23s0-4.12,5.76-9.88,9.47-9.06,9.47-9.06,2.89,9.48-2.47,15.24a100.217,100.217,0,0,1-12.76,11.15Z" fill="#aed3f2"/>
        <path id="Trazado_112679" data-name="Trazado 112679" d="M396.39,223.32s.58-4.08-4.31-10.6S384,202.4,384,202.4s-4.18,9,.29,15.44a101.436,101.436,0,0,0,11.06,12.82Z" fill="#aed3f2"/>
        <path id="Trazado_112680" data-name="Trazado 112680" d="M390.7,247.27s0-4.11,5.77-9.88,9.47-9,9.47-9,2.89,9.47-2.47,15.23a101,101,0,0,1-12.77,11.15Z" fill="#aed3f2"/>
        <path id="Trazado_112681" data-name="Trazado 112681" d="M394.55,269s-1-4,3.09-11,6.87-11.15,6.87-11.15,5.18,8.44,1.47,15.37a101.209,101.209,0,0,1-9.54,14Z" fill="#aed3f2"/>
        <path id="Trazado_112682" data-name="Trazado 112682" d="M405.58,143.7A116.753,116.753,0,0,1,404,156.48c-2.28,11.78-8,19.38-10.26,30s4.27,24.35,2.52,38-7.08,21.26-5.58,30.38,9.5,33.8,9.5,33.8" fill="none" stroke="#263238" stroke-linecap="round" stroke-linejoin="round" stroke-width="1.177"/>
        <line id="Línea_815" data-name="Línea 815" y1="4.78" x2="6.21" transform="translate(404.64 149.7)" fill="none" stroke="#263238" stroke-linecap="round" stroke-linejoin="round" stroke-width="1.177"/>
        <line id="Línea_816" data-name="Línea 816" x1="2.59" y1="4.63" transform="translate(402.33 144.36)" fill="none" stroke="#263238" stroke-linecap="round" stroke-linejoin="round" stroke-width="1.177"/>
        <path id="Trazado_112683" data-name="Trazado 112683" d="M394.09,186s5.2-3.91,10.55-7.81" fill="none" stroke="#263238" stroke-linecap="round" stroke-linejoin="round" stroke-width="1.177"/>
        <path id="Trazado_112684" data-name="Trazado 112684" d="M396.69,177.84s-4.34-8.5-9.25-14.14" fill="none" stroke="#263238" stroke-linecap="round" stroke-linejoin="round" stroke-width="1.177"/>
        <path id="Trazado_112685" data-name="Trazado 112685" d="M396.69,221.09a64.581,64.581,0,0,1,11.15-14.88" fill="none" stroke="#263238" stroke-linecap="round" stroke-linejoin="round" stroke-width="1.177"/>
        <path id="Trazado_112686" data-name="Trazado 112686" d="M395.68,226.87A73.4,73.4,0,0,0,390,216.16c-3-4.48-3.48-5.06-3.48-5.06" fill="none" stroke="#263238" stroke-linecap="round" stroke-linejoin="round" stroke-width="1.177"/>
        <path id="Trazado_112687" data-name="Trazado 112687" d="M390.7,254.85a69.58,69.58,0,0,1,4.69-9.48,61.552,61.552,0,0,1,6.06-8" fill="none" stroke="#263238" stroke-linecap="round" stroke-linejoin="round" stroke-width="1.177"/>
        <path id="Trazado_112688" data-name="Trazado 112688" d="M396.43,276.17a17.62,17.62,0,0,1,1.56-9.12c2.17-4.19,4.62-9.69,5.64-11.85" fill="none" stroke="#263238" stroke-linecap="round" stroke-linejoin="round" stroke-width="1.177"/>
        <path id="Trazado_112689" data-name="Trazado 112689" d="M367.3,199.74s-.45-2.57,2.54-6.82,5-6.72,5-6.72,2.83,5.62.1,9.82a64.16,64.16,0,0,1-6.8,8.36Z" fill="#aed3f2"/>
        <path id="Trazado_112690" data-name="Trazado 112690" d="M375.34,215s-.45-2.59,2.54-6.83,5-6.71,5-6.71,2.83,5.63.1,9.82a63.5,63.5,0,0,1-6.8,8.36Z" fill="#aed3f2"/>
        <path id="Trazado_112691" data-name="Trazado 112691" d="M368.29,204.1s-.7-2.52-5.25-5-7.38-3.9-7.38-3.9-.11,6.27,4.18,8.9a64.141,64.141,0,0,0,9.75,4.58Z" fill="#aed3f2"/>
        <path id="Trazado_112692" data-name="Trazado 112692" d="M377.93,222.05s-1-2.43-5.76-4.46-7.75-3.1-7.75-3.1.55,6.27,5.08,8.41a64.52,64.52,0,0,0,10.18,3.53Z" fill="#aed3f2"/>
        <path id="Trazado_112693" data-name="Trazado 112693" d="M380.33,243s-.45-2.58-4.69-5.57-6.93-4.66-6.93-4.66-.78,6.27,3.21,9.29a63.9,63.9,0,0,0,9.21,5.57Z" fill="#aed3f2"/>
        <path id="Trazado_112694" data-name="Trazado 112694" d="M381.26,248.09s-.81-2.49,1.55-7.11,4-7.35,4-7.35,3.6,5.16,1.5,9.71a65.2,65.2,0,0,1-5.58,9.24Z" fill="#aed3f2"/>
        <path id="Trazado_112695" data-name="Trazado 112695" d="M388.5,268.92s.3-2.6,4.36-5.83,6.65-5,6.65-5,1.14,6.2-2.67,9.46a64.879,64.879,0,0,1-8.87,6.1Z" fill="#aed3f2"/>
        <path id="Trazado_112696" data-name="Trazado 112696" d="M387.43,262.5s-.45-2.59-4.69-5.58-6.92-4.65-6.92-4.65-.78,6.27,3.2,9.29a64.361,64.361,0,0,0,9.22,5.57Z" fill="#aed3f2"/>
        <path id="Trazado_112697" data-name="Trazado 112697" d="M387.37,276.54s.23-2.62-3.12-6.58-5.52-6.27-5.52-6.27-2.34,5.85.75,9.8a65.37,65.37,0,0,0,7.5,7.75Z" fill="#aed3f2"/>
        <path id="Trazado_112698" data-name="Trazado 112698" d="M366.85,199.14a74,74,0,0,0,2.39,7.85c2.7,7.13,7.1,11.28,9.68,17.7s0,15.73,2.55,24.1,6.75,12.54,6.78,18.45S386,289.48,386,289.48" fill="none" stroke="#263238" stroke-linecap="round" stroke-linejoin="round" stroke-width="1.177"/>
        <line id="Línea_817" data-name="Línea 817" x1="4.41" y1="2.31" transform="translate(364.21 203.5)" fill="none" stroke="#263238" stroke-linecap="round" stroke-linejoin="round" stroke-width="1.177"/>
        <line id="Línea_818" data-name="Línea 818" y1="3.18" x2="1.13" transform="translate(367.84 199.22)" fill="none" stroke="#263238" stroke-linecap="round" stroke-linejoin="round" stroke-width="1.177"/>
        <path id="Trazado_112699" data-name="Trazado 112699" d="M378.66,224.42s-3.69-1.88-7.46-3.75" fill="none" stroke="#263238" stroke-linecap="round" stroke-linejoin="round" stroke-width="1.177"/>
        <path id="Trazado_112700" data-name="Trazado 112700" d="M376.14,219.64a52.847,52.847,0,0,1,4.27-9.86" fill="none" stroke="#263238" stroke-linecap="round" stroke-linejoin="round" stroke-width="1.177"/>
        <path id="Trazado_112701" data-name="Trazado 112701" d="M380.84,246.72a41.15,41.15,0,0,0-8.6-8.12" fill="none" stroke="#263238" stroke-linecap="round" stroke-linejoin="round" stroke-width="1.177"/>
        <path id="Trazado_112702" data-name="Trazado 112702" d="M382.1,250.24a45.852,45.852,0,0,1,2.37-7.31c1.39-3.15,1.63-3.56,1.63-3.56" fill="none" stroke="#263238" stroke-linecap="round" stroke-linejoin="round" stroke-width="1.177"/>
        <path id="Trazado_112703" data-name="Trazado 112703" d="M388.06,271.7a38.47,38.47,0,0,1,4.74-4.92,25.472,25.472,0,0,0,3.08-2.69" fill="none" stroke="#263238" stroke-linecap="round" stroke-linejoin="round" stroke-width="1.177"/>
        <path id="Trazado_112704" data-name="Trazado 112704" d="M388.25,267.24a44.871,44.871,0,0,0-4-5.43,39,39,0,0,0-4.67-4.33" fill="none" stroke="#263238" stroke-linecap="round" stroke-linejoin="round" stroke-width="1.177"/>
        <path id="Trazado_112705" data-name="Trazado 112705" d="M387,281.24a11.281,11.281,0,0,0-2-5.57c-1.82-2.4-4-5.58-4.82-6.83" fill="none" stroke="#263238" stroke-linecap="round" stroke-linejoin="round" stroke-width="1.177"/>
        <path id="Trazado_112706" data-name="Trazado 112706" d="M406.18,317.64H379.92a2,2,0,0,1-2-1.95l-3.77-29.06h37.72l-3.77,29.06A2,2,0,0,1,406.18,317.64Z" fill="#263238"/>
        <path id="Trazado_112707" data-name="Trazado 112707" d="M411.57,291.54H374.19a2.94,2.94,0,0,1-2.95-2.92h0a3,3,0,0,1,2.94-2.95h37.39a2.94,2.94,0,0,1,2.95,2.94h0a2.94,2.94,0,0,1-2.95,2.93Z" fill="#263238"/>
      </g>
    </g>
    <g id="freepik--Coins--inject-92">
      <path id="Trazado_112708" data-name="Trazado 112708" d="M327.3,175.31a36.308,36.308,0,0,1-28.124,35.368h-.116c-.95.21-1.9.4-2.88.54a37.078,37.078,0,0,1-5.19.37,36.306,36.306,0,1,1-1.34-72.6c.33.009.68.009,1,.009a1.719,1.719,0,0,1,.32,0,2.3,2.3,0,0,1,.37,0,35.75,35.75,0,0,1,14.22,3.05,36.31,36.31,0,0,1,21.74,33.26Z" fill="#eaccb2"/>
      <path id="Trazado_112709" data-name="Trazado 112709" d="M305.58,142.06c-41.93-2.18-42.13,44.37-42.13,44.37s-6.4-15.19,4.05-32c5.84-9.41,16-13.56,23.86-15.4a35.75,35.75,0,0,1,14.22,3.03Z" fill="#fff" opacity="0.4"/>
      <path id="Trazado_112710" data-name="Trazado 112710" d="M327.3,175.31a36.309,36.309,0,0,1-28.238,35.4,35.709,35.709,0,0,1-8.072.91A36.316,36.316,0,1,1,289.65,139h1.34a36.32,36.32,0,0,1,36.31,36.31Z" fill="none" stroke="#263238" stroke-linecap="round" stroke-linejoin="round" stroke-width="1"/>
      <path id="Trazado_112711" data-name="Trazado 112711" d="M327.3,175.31a36.309,36.309,0,0,1-28.238,35.4H297.72A36.32,36.32,0,0,1,289.65,139h1.34a36.32,36.32,0,0,1,36.31,36.31Z" fill="none" stroke="#263238" stroke-linecap="round" stroke-linejoin="round" stroke-width="1"/>
      <path id="Trazado_112712" data-name="Trazado 112712" d="M303.5,198l.94,3.84-6.28,1.53-.94-3.83c-5.62,0-10.13-3.65-11.57-9.51l-.43-1.74,6.93-2.51.44,1.81c.87,3.56,3.22,5.27,6.15,4.55a4.5,4.5,0,0,0,3.59-5.83c-.84-3.42-4.76-5.56-9.3-7.77-5.37-2.6-10.91-5.9-12.43-12.11-1.48-6.06.38-11.11,5.17-13.61l-.94-3.84,6.27-1.53.94,3.83c5.45-.08,9.51,3.51,11,9.71l.31,1.26-6.92,2.51-.35-1.39c-.92-3.77-2.86-5.36-5.44-4.73s-3.65,2.6-2.9,5.66c.84,3.42,4.81,5.48,9.3,7.78,5.31,2.69,10.91,5.9,12.43,12.1C311,190.15,308.56,195.47,303.5,198Z" fill="none" stroke="#263238" stroke-miterlimit="10" stroke-width="1"/>
      <path id="Trazado_112713" data-name="Trazado 112713" d="M303.5,198l.94,3.84-6.28,1.53-.94-3.83c-5.62,0-10.13-3.65-11.57-9.51l-.43-1.74,6.93-2.51.44,1.81c.87,3.56,3.22,5.27,6.15,4.55a4.5,4.5,0,0,0,3.59-5.83c-.84-3.42-4.76-5.56-9.3-7.77-5.37-2.6-10.91-5.9-12.43-12.11-1.48-6.06.38-11.11,5.17-13.61l-.94-3.84,6.27-1.53.94,3.83c5.45-.08,9.51,3.51,11,9.71l.31,1.26-6.92,2.51-.35-1.39c-.92-3.77-2.86-5.36-5.44-4.73s-3.65,2.6-2.9,5.66c.84,3.42,4.81,5.48,9.3,7.78,5.31,2.69,10.91,5.9,12.43,12.1C311,190.15,308.56,195.47,303.5,198Z" opacity="0.3"/>
      <line id="Línea_819" data-name="Línea 819" y1="0.35" x2="7.67" transform="translate(272.43 206.18)" fill="none" stroke="#263238" stroke-linecap="round" stroke-linejoin="round" stroke-width="1"/>
      <line id="Línea_820" data-name="Línea 820" y1="0.57" x2="6.69" transform="translate(268.74 203.41)" fill="none" stroke="#263238" stroke-linecap="round" stroke-linejoin="round" stroke-width="1"/>
      <line id="Línea_821" data-name="Línea 821" y1="0.57" x2="6.69" transform="translate(265.74 200.72)" fill="none" stroke="#263238" stroke-linecap="round" stroke-linejoin="round" stroke-width="1"/>
      <line id="Línea_822" data-name="Línea 822" x2="5.73" transform="translate(264.82 150.13)" fill="none" stroke="#263238" stroke-linecap="round" stroke-linejoin="round" stroke-width="1"/>
      <line id="Línea_823" data-name="Línea 823" y1="0.26" x2="5.71" transform="translate(267.65 147.23)" fill="none" stroke="#263238" stroke-linecap="round" stroke-linejoin="round" stroke-width="1"/>
      <line id="Línea_824" data-name="Línea 824" y1="0.57" x2="6.02" transform="translate(271.23 144.27)" fill="none" stroke="#263238" stroke-linecap="round" stroke-linejoin="round" stroke-width="1"/>
      <path id="Trazado_112714" data-name="Trazado 112714" d="M299.17,210.68h-.11a35.71,35.71,0,0,1-8.07.91,36.306,36.306,0,1,1-1.34-72.6c.33.009.68.009,1,.009-8.85,2.79-23.7,9.92-27.67,24.79C257.37,184.92,270,208.91,299.17,210.68Z" opacity="0.3"/>
      <path id="Trazado_112715" data-name="Trazado 112715" d="M327.3,175.31a36.308,36.308,0,0,1-28.124,35.368h-.116c-.95.21-1.9.4-2.88.54l9.4-69.19a36.31,36.31,0,0,1,21.72,33.28Z" opacity="0.1"/>
      <path id="Trazado_112716" data-name="Trazado 112716" d="M347.9,118.15a22,22,0,0,1-26.31,7.64l-.13-.06q-1.024-.45-2-1a19.632,19.632,0,0,1-2.12-1.32,22,22,0,0,1,24.19-36.63l.49.31c.23.13.45.29.68.45s.67.49,1,.75a22,22,0,0,1,4.2,29.86Z" fill="#eaccb2"/>
      <path id="Trazado_112717" data-name="Trazado 112717" d="M314.76,118.45s-3.59-10.57,1.18-18.35c6-9.75,15.19-14.2,27.7-11.8,0,0-6.78-4.58-18.13-1.33S308.07,105.84,314.76,118.45Z" fill="#fff" opacity="0.4"/>
      <path id="Trazado_112718" data-name="Trazado 112718" d="M347.9,118.16a22,22,0,0,1-26.31,7.62,21.55,21.55,0,0,1-4.3-2.36A22,22,0,0,1,342,87.1c.22.13.45.28.67.44a22,22,0,0,1,5.23,30.62Z" fill="none" stroke="#263238" stroke-linecap="round" stroke-linejoin="round" stroke-width="1"/>
      <path id="Trazado_112719" data-name="Trazado 112719" d="M347.9,118.16a22,22,0,0,1-26.31,7.62l-.67-.44A22,22,0,0,1,342,87.1c.22.13.45.28.67.44a22,22,0,0,1,5.23,30.62Z" fill="none" stroke="#263238" stroke-linecap="round" stroke-linejoin="round" stroke-width="1"/>
      <path id="Trazado_112720" data-name="Trazado 112720" d="M328.21,121.08l-.87,2.22-3.64-1.43.87-2.23a7.12,7.12,0,0,1-2.4-8.73l.4-1,4.3,1.17-.41,1.06c-.81,2.06-.26,3.72,1.44,4.39a2.72,2.72,0,0,0,3.81-1.63c.78-2-.41-4.41-1.88-7.08-1.74-3.16-3.32-6.72-1.91-10.32s4.07-5.36,7.3-4.92l.88-2.22,3.63,1.43L338.86,94c2.72,1.86,3.47,5,2.06,8.65l-.29.72-4.3-1.17.32-.81c.86-2.18.46-3.65-1-4.24s-2.71,0-3.41,1.79c-.78,2,.47,4.38,1.88,7.08,1.69,3.19,3.33,6.73,1.92,10.32a7.09,7.09,0,0,1-7.83,4.74Z" fill="none" stroke="#263238" stroke-miterlimit="10" stroke-width="1"/>
      <path id="Trazado_112721" data-name="Trazado 112721" d="M328.21,121.08l-.87,2.22-3.64-1.43.87-2.23a7.12,7.12,0,0,1-2.4-8.73l.4-1,4.3,1.17-.41,1.06c-.81,2.06-.26,3.72,1.44,4.39a2.72,2.72,0,0,0,3.81-1.63c.78-2-.41-4.41-1.88-7.08-1.74-3.16-3.32-6.72-1.91-10.32s4.07-5.36,7.3-4.92l.88-2.22,3.63,1.43L338.86,94c2.72,1.86,3.47,5,2.06,8.65l-.29.72-4.3-1.17.32-.81c.86-2.18.46-3.65-1-4.24s-2.71,0-3.41,1.79c-.78,2,.47,4.38,1.88,7.08,1.69,3.19,3.33,6.73,1.92,10.32a7.09,7.09,0,0,1-7.83,4.74Z" opacity="0.3"/>
      <path id="Trazado_112722" data-name="Trazado 112722" d="M341.48,86.79c-6-1.07-13.6-1.66-17.7,1-7.53,4.83-12.22,10.92-12.15,20.79s9.29,16.79,9.29,16.79l.54.39a21.659,21.659,0,0,1-4.17-2.31,22,22,0,0,1,24.19-36.63Z" opacity="0.3"/>
      <path id="Trazado_112723" data-name="Trazado 112723" d="M347.9,118.15a22,22,0,0,1-26.31,7.64l-.13-.06q-1.024-.45-2-1L343.64,88.3a22,22,0,0,1,4.26,29.85Z" opacity="0.1"/>
    </g>
    <g id="freepik--Character--inject-92">
      <path id="Trazado_112724" data-name="Trazado 112724" d="M336.58,399.76a132,132,0,0,1-32.84,28.35,116.058,116.058,0,0,1-12,6.26c-28.41,12.77-60.79,13.6-91.07,6.26C137,425.2,103.22,369,98.93,306.61c-1.15-16.86-3.73-35.07,3.1-51.11s20.64-26,36.26-32.92c11.34-5.05,23.59-8.44,34.72-11.21a89.31,89.31,0,0,1,60.09,6.2c13.09,6.21,22.41,17,33.42,26.09q1.75,1.44,3.52,2.87a329.9,329.9,0,0,0,35,24.61c18.51,11.29,37.46,21.94,49.29,40.9C373.2,342.26,357.28,375.16,336.58,399.76Z" fill="#eaccb2"/>
      <path id="Trazado_112725" data-name="Trazado 112725" d="M336.58,399.76a132,132,0,0,1-32.84,28.35,116.058,116.058,0,0,1-12,6.26c-28.41,12.77-60.79,13.6-91.07,6.26C137,425.2,103.22,369,98.93,306.61c-1.15-16.86-3.73-35.07,3.1-51.11s20.64-26,36.26-32.92c11.34-5.05,23.59-8.44,34.72-11.21a89.31,89.31,0,0,1,60.09,6.2c13.09,6.21,22.41,17,33.42,26.09q1.75,1.44,3.52,2.87a329.9,329.9,0,0,0,35,24.61c18.51,11.29,37.46,21.94,49.29,40.9C373.2,342.26,357.28,375.16,336.58,399.76Z" fill="#fff" opacity="0.4"/>
      <path id="Trazado_112726" data-name="Trazado 112726" d="M270,246.53q-1.77-1.42-3.52-2.88c-11-9.11-20.34-19.87-33.42-26.08a89.37,89.37,0,0,0-60.09-6.2c-26.47,6.57-59.3,16.69-71,44.14-6.83,16-4.25,34.24-3.09,51.1C103.22,369,137,425.2,200.67,440.63c34.64,8.4,72,6.1,103.07-12.52a132,132,0,0,0,32.84-28.35c20.7-24.6,36.62-57.5,17.77-87.72-11.82-19-30.77-29.61-49.29-40.9A329.9,329.9,0,0,1,270,246.53Z" fill="none" stroke="#263238" stroke-miterlimit="10" stroke-width="1"/>
      <path id="Trazado_112727" data-name="Trazado 112727" d="M173.55,357.78A91.571,91.571,0,0,0,158.18,364" fill="none" stroke="#263238" stroke-linecap="round" stroke-linejoin="round" stroke-width="1"/>
      <path id="Trazado_112728" data-name="Trazado 112728" d="M206,351.6a163.992,163.992,0,0,0-23,3.65" fill="none" stroke="#263238" stroke-linecap="round" stroke-linejoin="round" stroke-width="1"/>
      <path id="Trazado_112729" data-name="Trazado 112729" d="M199.25,350s-29.88-17.38-65.94-3.45" fill="none" stroke="#263238" stroke-linecap="round" stroke-linejoin="round" stroke-width="1"/>
      <path id="Trazado_112730" data-name="Trazado 112730" d="M336.58,399.76a132,132,0,0,1-32.84,28.35,116.058,116.058,0,0,1-12,6.26,93.707,93.707,0,0,1-9.57-3.51c-18.66-8-34.32-21.53-49.62-34.87-9.23-8-18.61-16.2-29.66-21.47a68.22,68.22,0,0,0-47.84-3.94,53.73,53.73,0,0,1,31.64-17.41c-7.9-7.19-18.89-10.21-29.57-10.4s-16.56,1.12-27,3.46c3.49-6.42,12.75-12.23,20.06-12.06a181.671,181.671,0,0,1-20.78-1.47c-9.43-1.52-13.65-12.62-15.06-22.06-3.9-26,.05-53.69,14.24-75.79a77.151,77.151,0,0,1,9.7-12.27c11.34-5.05,23.59-8.44,34.72-11.21a89.31,89.31,0,0,1,60.09,6.2c13.09,6.21,22.41,17,33.42,26.09q1.75,1.44,3.52,2.87a329.9,329.9,0,0,0,35,24.61c18.51,11.29,37.46,21.94,49.29,40.9C373.2,342.26,357.28,375.16,336.58,399.76Z" opacity="0.1"/>
      <path id="Trazado_112731" data-name="Trazado 112731" d="M347,399a193.355,193.355,0,0,0,17.57,13c11.89.8,6.56,15.17,6.56,15.17l-10.18,6.55S343.52,419.87,334,415.38,347,399,347,399Z" fill="#fff"/>
      <path id="Trazado_112732" data-name="Trazado 112732" d="M262.51,247.7s-1.63-16.13-4.23-20.66L218.8,219v-3.06s.91-5.32-7.89-8.65-27.14,1-31.87,4.58-3,9.74-3,9.74-15.9,8.03-23.04,11.09a182.442,182.442,0,0,0-17.07,9s-3.24,37.08-2.6,45.69-.52,16.71.22,21.48,1.32,7.48,6.32,11.54,9.55,10,22.66,4.11l-1.83-1.45L247,294Z" opacity="0.3"/>
      <path id="Trazado_112733" data-name="Trazado 112733" d="M262.51,247.7s-1.63-16.13-4.23-20.66L218.8,219v-3.06s.91-5.32-7.89-8.65-27.14,1-31.87,4.58-3,9.74-3,9.74-15.9,8.03-23.04,11.09a182.442,182.442,0,0,0-17.07,9s-3.24,37.08-2.6,45.69-.52,16.71.22,21.48,1.32,7.48,6.32,11.54,9.55,10,22.66,4.11l-1.83-1.45L247,294Z" fill="#6595bf"/>
      <path id="Trazado_112735" data-name="Trazado 112735" d="M258.8,229H242.28a6.57,6.57,0,0,0-6.47,5.49l-8.14,49s-11.21.93-19.15,6.72-27.47-35.52-58.33-35.54c0,0,8.88,20.3,10.85,36.5,0,0-19.29-2.1-22.49,5.45s1.45,21.7,9.61,16.22S164,298.22,169.45,304s29.8,8.89,29.8,8.89L236.72,294l14.53-6.83Z" opacity="0.1"/>
      <path id="Trazado_112736" data-name="Trazado 112736" d="M206.35,204.71s9.38,2.6,10.9,5.75,1.36,11.12,1.36,11.12a38.5,38.5,0,0,1-10.09,13.88l-7-13.88.63,15.74s-13.28-2.21-18.92-6.45l-5.63-4.25s-2.43-8-2.08-10.71S186,207.7,186,207.7Z" fill="#fff" opacity="0.4"/>
      <path id="Trazado_112737" data-name="Trazado 112737" d="M362.59,447.42c-.26-.57,3.85-7.83.63-15.22s-8.35-4.54-8.35-4.54-14.61-9.3-20.75-12.24a104.7,104.7,0,0,1-12.75-7.58l-6.49,8.74,6,18.56Z" fill="#6595bf"/>
      <path id="Trazado_112738" data-name="Trazado 112738" d="M354.34,427.21l18.76,11.46s13.19-8.46,19.48-14.3S413,406.09,413,406.09l9-12.11s-6.24-7.72-16.64-1.52c-13.44,8-29.83,19.62-40.76,19.51,0,0,2.15,13.43-10.19,15.24" fill="#6595bf"/>
      <path id="Trazado_112739" data-name="Trazado 112739" d="M203.17,156.23s8.51,12.88,10.06,17.05,2.8,10.34,2.49,13.31-3.43,18.88-5,19.34l-1.51,1.71,1,6.74s-6.66,11.51-26.24,3.07c0,0-.76-13.44-3.14-17.66s-5.94.8-9.51-11.39,7.8-25,7.8-25Z" fill="#fff"/>
      <path id="Trazado_112740" data-name="Trazado 112740" d="M413.83,390.22s-9.65,1.68-12.78,7.39-9.14,16.32-11.19,21.45-19,17.52-19,17.52l2.25,2.09s13.8-8.53,22.13-16.64,26.7-28.51,26.7-28.51S420.62,392.21,413.83,390.22Z" fill="#fff" opacity="0.5"/>
      <path id="Trazado_112741" data-name="Trazado 112741" d="M317.27,413.37l-2.39,3.21,7.34,15.22,40.37,14.51,1.87-5.91s.62-6-13.55-10.56-22.81-7.57-26.84-10.7S317.27,413.37,317.27,413.37Z" fill="#fff" opacity="0.5"/>
      <path id="Trazado_112742" data-name="Trazado 112742" d="M184,300.33s-12.36-1.86-18.13,8.25-5.18,14.49-5.18,14.49,8.17,7.42,19.4,7S207.67,316.79,213,312.6s18.77-16.18,27.94-13.7l1-8.67s-.9-3.89-8.74-2.84-10.92,5.52-13.45,5.52-4.92-2.43-10,6.25C209.74,299.16,191.91,302.32,184,300.33Z" fill="#fff"/>
      <path id="Trazado_112743" data-name="Trazado 112743" d="M200.06,174.75a35.8,35.8,0,0,0,1.12,4.79,5.58,5.58,0,0,0,1,2.11c.94,1,2.46,1.26,3.85,1.47a1.05,1.05,0,0,1,.62.26,1,1,0,0,1,.15.6,8,8,0,0,1-1.36,4.42" fill="none" stroke="#263238" stroke-linecap="round" stroke-linejoin="round" stroke-width="1"/>
      <path id="Trazado_112746" data-name="Trazado 112746" d="M194.24,190.67s6.49,5.09,13.23,3.18C207.47,193.85,201.11,206.45,194.24,190.67Z" fill="#fff" stroke="#263238" stroke-linecap="round" stroke-linejoin="round" stroke-width="1"/>
      <path id="Trazado_112747" data-name="Trazado 112747" d="M194,179.67c.19,1.4-.24,2.61-.94,2.71s-1.43-1-1.62-2.37.23-2.61.94-2.71S193.85,178.27,194,179.67Z" fill="#263238"/>
      <path id="Trazado_112748" data-name="Trazado 112748" d="M208.13,177.12c.18,1.41-.24,2.62-.94,2.71s-1.44-1-1.62-2.36.23-2.62.94-2.71S207.94,175.72,208.13,177.12Z" fill="#263238"/>
      <path id="Trazado_112749" data-name="Trazado 112749" d="M193,173.73s-3.78-1.95-6.47,2.23" fill="none" stroke="#263238" stroke-linecap="round" stroke-linejoin="round" stroke-width="1"/>
      <path id="Trazado_112750" data-name="Trazado 112750" d="M202.69,171.13s4-3.43,6.31,0" fill="none" stroke="#263238" stroke-linecap="round" stroke-linejoin="round" stroke-width="1"/>
      <path id="Trazado_112751" data-name="Trazado 112751" d="M180.16,186.6s-2.43-3.59-5-3.48-3.59,3.71-2.67,7.19,4.75,8.34,7.65,7.88a6.44,6.44,0,0,0,4.17-2.32" fill="none" stroke="#263238" stroke-linecap="round" stroke-linejoin="round" stroke-width="1"/>
      <path id="Trazado_112752" data-name="Trazado 112752" d="M203.46,159.13c2.73,2.27,5.62,4.74,7,8.08,1.22,2.84,1.49,6,2.61,8.87,1.19,3.07,2.49,6.28,2.59,9.63a40.791,40.791,0,0,1-1.21,9.19,50.652,50.652,0,0,1-1.85,7.69c-1.35,3.59-3.84,5.8-7.18,7.5-2.43,1.24-6.48,3-9.11,1.34-1.53-1-3.83-3.86-5.74-6.49" fill="none" stroke="#263238" stroke-linecap="round" stroke-linejoin="round" stroke-width="1"/>
      <path id="Trazado_112753" data-name="Trazado 112753" d="M180.16,198.19s4.3,10.54,3.26,17.95" fill="none" stroke="#263238" stroke-linecap="round" stroke-linejoin="round" stroke-width="1"/>
      <path id="Trazado_112754" data-name="Trazado 112754" d="M179.06,184.83a4.14,4.14,0,0,0,1.66-3.71c-.16-1.62-1.28-3.12-1.06-4.74a8.73,8.73,0,0,1,.86-2.22,9.31,9.31,0,0,0-.52-8.42s13.66.64,20.06-3.43,11.28-14.48,7.41-19.45-11.41,1.81-17,2.56S165,149.34,161.83,157s1.66,10.41,1.81,17.72.15,21.16,11.08,19.89c0,0-4.09-5.29-1.25-10.74C175.4,181.58,179.06,184.83,179.06,184.83Z" fill="#263238"/>
      <path id="Trazado_112755" data-name="Trazado 112755" d="M205.85,151.5a17.14,17.14,0,0,1,6.54,12c.61,5.48,10.33,16.13,3.32,22.2,0,0-1.63-6.45-2.59-9.63s-2.19-9-3.8-11-10.15-9-10.15-9Z" fill="#263238"/>
      <path id="Trazado_112756" data-name="Trazado 112756" d="M181.42,215.91s6.74,4.44,19.26,4.62l1.47,16.79s-14.08-1.07-24.55-10.7c0,0-2.83-7.49-2.08-10.71S183,209.5,183,209.5" fill="none" stroke="#263238" stroke-linecap="round" stroke-linejoin="round" stroke-width="1"/>
      <path id="Trazado_112757" data-name="Trazado 112757" d="M209.74,208.4l.4,6a24.82,24.82,0,0,1-9.46,6.15l7.84,14.93s9.35-7.28,10.28-14.93c0,0,.08-7.83-1.55-10.07s-7.57-3.29-7.57-3.29" fill="none" stroke="#263238" stroke-linecap="round" stroke-linejoin="round" stroke-width="1"/>
      <path id="Trazado_112758" data-name="Trazado 112758" d="M171.8,162c1-2.51,3.74-4,6.41-4.4a66.414,66.414,0,0,1,8.11-.19,20.82,20.82,0,0,0,10.6-3,14.17,14.17,0,0,0,6.4-8.76" fill="none" stroke="#fff" stroke-linecap="round" stroke-linejoin="round" stroke-width="1" opacity="0.8"/>
      <path id="Trazado_112759" data-name="Trazado 112759" d="M165.35,161.51c1.69-5.13,7.17-8.3,12.56-8.75,2.67-.23,5.37.08,8-.23s5.43-1.41,6.82-3.7" fill="none" stroke="#fff" stroke-linecap="round" stroke-linejoin="round" stroke-width="1" opacity="0.8"/>
      <path id="Trazado_112760" data-name="Trazado 112760" d="M162.51,324.52c-13,6.74-17.62-.2-24.86-5.94s-2.49-16-4-32.45,2.25-44.43,2.25-44.43,3.24-.74,12.23-6.24,27.91-13.88,27.91-13.88" fill="none" stroke="#263238" stroke-linecap="round" stroke-linejoin="round" stroke-width="1"/>
      <path id="Trazado_112761" data-name="Trazado 112761" d="M175.39,299.62s-2.06-6.53-7.88-6.7-15,2.45-21.54,14.82" fill="none" stroke="#263238" stroke-linecap="round" stroke-linejoin="round" stroke-width="1"/>
      <path id="Trazado_112762" data-name="Trazado 112762" d="M166.18,292.53a3.22,3.22,0,0,1-1.05-.25,25.31,25.31,0,0,0-14.94-.68" fill="none" stroke="#263238" stroke-linecap="round" stroke-linejoin="round" stroke-width="1"/>
      <path id="Trazado_112763" data-name="Trazado 112763" d="M146.84,250.63c10.59,11.7,15.75,27.18,20.64,42.18" fill="none" stroke="#263238" stroke-linecap="round" stroke-linejoin="round" stroke-width="1"/>
      <path id="Trazado_112764" data-name="Trazado 112764" d="M218.8,219s19.2,4.58,28.58,5.67,10.9,2.4,10.9,2.4l1.75,6.54" fill="none" stroke="#263238" stroke-linecap="round" stroke-linejoin="round" stroke-width="1"/>
      <path id="Trazado_112765" data-name="Trazado 112765" d="M308.27,230.38l-65.39,2.51-5.34,67.25h11.2l56.78-12.71,7.14-55.44Z" fill="#fff"/>
      <path id="Trazado_112766" data-name="Trazado 112766" d="M240.94,302.13l71.52-68.55-6.94,53.85Z" fill="#eaccb2"/>
      <path id="Trazado_112767" data-name="Trazado 112767" d="M240.94,302.13l71.52-68.55-6.94,53.85Z" fill="#fff" opacity="0.7"/>
      <path id="Trazado_112768" data-name="Trazado 112768" d="M240.94,300.33l5.72-64.87,66-3.47-7.14,55.44Z" fill="none" stroke="#263238" stroke-linecap="round" stroke-linejoin="round" stroke-width="1"/>
      <path id="Trazado_112769" data-name="Trazado 112769" d="M284.84,263.42c-.44,3.95-2.55,6.95-4.71,6.71s-3.54-3.65-3.1-7.6,2.56-6.95,4.72-6.71S285.29,259.47,284.84,263.42Z" fill="#263238"/>
      <path id="Trazado_112770" data-name="Trazado 112770" d="M305.52,287.43s30.22-.86,39.67,5.38,15,37.53,13.69,54.15-12.71,54.76-12.71,54.76L324.33,377s-10.76-39.12-4.89-54.44c0,0-29,1.63-40.42-1.95,0,0-10.23-16.75-27.77-22.29Z" fill="#263238"/>
      <path id="Trazado_112771" data-name="Trazado 112771" d="M350.78,402.37a149.817,149.817,0,0,1-20.78-24c-10.57-16.33-25.18-32-40.21-44.23-12.11-9.82-14.85-25.82-29.79-33.85-24.75-13.27-46.15,13.1-54.15,18.44S184,330.12,184,330.12s5.06,19,19.92,21.25,29.89-8,37-3.05,12.37,27.05,35.85,40c19.19,10.58,45.34,20.9,58.83,27.86,3,1.56,5.24,3.2,6.94,4.13,4.66,2.54,9.64,5.53,14.34,8.49l16.19,9.86s16.25-9.61,22.49-18.47c.83-1.19,2.56-4.36,4.18-7.42,3.53-6.69,8-12.69,14.19-16,4.28-2.31,8.09-3,8-3.24-.41-.76-8.17-4.73-13.44-2.56-11.16,4.61-33.47,22.32-44,21A78.828,78.828,0,0,1,350.78,402.37Z" transform="translate(-0.69 0.531)" fill="none" stroke="#263238" stroke-miterlimit="10" stroke-width="1"/>
      <path id="Trazado_112772" data-name="Trazado 112772" d="M350.78,402.37c-9.73,3.93-13.65,10-15.15,13.82-13.49-7-39.64-17.28-58.83-27.86-23.48-13-28.7-35.06-35.85-40s-22.19,5.34-37,3.05S184,330.11,184,330.11s13.86-6,21.86-11.34,26.45-31.72,54.14-18.44c15.29,7.33,17.68,24,29.79,33.85,15,12.19,29.64,27.9,40.21,44.23a147,147,0,0,0,20.78,23.96Z" fill="#263238"/>
      <path id="Trazado_112773" data-name="Trazado 112773" d="M277.66,317.59s-7.49-15.22-19.5-18.17" fill="none" stroke="#fff" stroke-linecap="round" stroke-linejoin="round" stroke-width="1"/>
      <path id="Trazado_112774" data-name="Trazado 112774" d="M238.4,287.29c-8.26-1.8-17.33,7.33-21.15,5.62-2.84-1.27-7.51,6.25-7.51,6.25a125.112,125.112,0,0,1-23.22,1.17c-11.13-.71-16.4,1.46-20.34,7.41l-5.5,14.57s14.51,13,30,5.43,36.07-30.41,50.25-30.33" fill="none" stroke="#263238" stroke-linecap="round" stroke-linejoin="round" stroke-width="1"/>
      <path id="Trazado_112775" data-name="Trazado 112775" d="M353.71,426.82s13.56,1.11,10.38-15.09" fill="none" stroke="#263238" stroke-miterlimit="10" stroke-width="1"/>
      <path id="Trazado_112776" data-name="Trazado 112776" d="M417.61,401.72c-1,2-13.43,12.58-24.14,21.83,0-.14,3-5.79,4.24-8.2,2.85-5.32,10.21-19.91,24.22-21.83C423.92,394.72,417.61,401.72,417.61,401.72Z" fill="#263238"/>
      <path id="Trazado_112777" data-name="Trazado 112777" d="M412.28,390.33c-14.17,2.82-17.39,21-22.42,28.73s-19,18.24-19,18.24" fill="none" stroke="#263238" stroke-miterlimit="10" stroke-width="1"/>
      <path id="Trazado_112778" data-name="Trazado 112778" d="M363.22,432.66c2.31,4.22,1.22,9.12,0,12.19a25.446,25.446,0,0,1-2.22,4.37c-20.06-3.3-40.12-14.08-40.12-14.08l-5.17-16-.83-2.56,7.79-10.49" fill="none" stroke="#263238" stroke-miterlimit="10" stroke-width="1"/>
      <path id="Trazado_112779" data-name="Trazado 112779" d="M363.22,444.85a25.446,25.446,0,0,1-2.22,4.37c-20.06-3.3-40.12-14.08-40.12-14.08l-5.17-16c2.59,3.38,7.39,8.33,14.59,10.36C340.07,432.27,358.1,435.51,363.22,444.85Z" fill="#263238"/>
      <path id="Trazado_112780" data-name="Trazado 112780" d="M237.54,297.8l5.34-64.91,65.39-2.51,4.39,1.61" fill="none" stroke="#263238" stroke-linecap="round" stroke-linejoin="round" stroke-width="1"/>
      <path id="Trazado_112781" data-name="Trazado 112781" d="M364,419.06s8.94,1.6,15.81-4,17.94-18.27,17.94-18.27" fill="none" stroke="#263238" stroke-miterlimit="10" stroke-width="1"/>
      <path id="Trazado_112782" data-name="Trazado 112782" d="M373.1,411s-2.16,3.25,0,9.77" fill="none" stroke="#263238" stroke-linecap="round" stroke-linejoin="round" stroke-width="1"/>
      <path id="Trazado_112783" data-name="Trazado 112783" d="M379.44,407.89a13.31,13.31,0,0,0,.81,9.77" fill="none" stroke="#263238" stroke-linecap="round" stroke-linejoin="round" stroke-width="1"/>
      <path id="Trazado_112784" data-name="Trazado 112784" d="M387,403.51s-1.81,5.43,0,10.22" fill="none" stroke="#263238" stroke-linecap="round" stroke-linejoin="round" stroke-width="1"/>
      <path id="Trazado_112785" data-name="Trazado 112785" d="M324.44,404.74l-7.17,8.63s7.22,7.89,17.41,11.17,28.39,8.85,29.9,14.78" fill="none" stroke="#263238" stroke-miterlimit="10" stroke-width="1"/>
    </g>
  </g>
</svg>
