<svg xmlns="http://www.w3.org/2000/svg" width="400" height="363.233" viewBox="0 0 400 363.233">
  <g id="Finance-pana" transform="translate(-100.174 -30.347)">
    <g id="freepik--background-complete--inject-122" transform="translate(101.466 30.347)">
      <path id="Trazado_108074" data-name="Trazado 108074" d="M595.832,90.586a19.205,19.205,0,1,1-21.75-16.2,19.205,19.205,0,0,1,21.75,16.2Z" transform="translate(-257.548 -39.106)" fill="#f5f5f5"/>
      <path id="Trazado_108075" data-name="Trazado 108075" d="M592.461,92.38a14.636,14.636,0,1,1-16.589-12.339A14.636,14.636,0,0,1,592.461,92.38Z" transform="translate(-258.69 -40.244)" fill="#ebebeb"/>
      <path id="Trazado_108076" data-name="Trazado 108076" d="M592.328,91.785a8.777,8.777,0,0,1-.64-1.68,15.012,15.012,0,0,0-4.609-6.554,14.51,14.51,0,0,0-3.2-1.968,13.171,13.171,0,0,0-1.9-.712,14.4,14.4,0,0,0-2.073-.44,15.112,15.112,0,0,0-2.185-.128,16.589,16.589,0,0,0-2.249.224,15.079,15.079,0,0,0-2.184.568,13.336,13.336,0,0,0-2.016.872,13.6,13.6,0,0,0-1.793,1.128,12.988,12.988,0,0,0-1.545,1.312,14.552,14.552,0,0,0-2.32,2.961,15.075,15.075,0,0,0-1.353,3,15.677,15.677,0,0,0-.728,4.729,8.568,8.568,0,0,1,0,1.8,4.276,4.276,0,0,1-.416-1.776,13.6,13.6,0,0,1,.4-4.977,14.846,14.846,0,0,1,3.7-6.466,14.4,14.4,0,0,1,1.6-1.44,14.688,14.688,0,0,1,4.081-2.2,17.508,17.508,0,0,1,2.353-.616,16.8,16.8,0,0,1,2.4-.232,14.331,14.331,0,0,1,2.361.16,13.52,13.52,0,0,1,2.233.5,13.736,13.736,0,0,1,2.032.8,14.8,14.8,0,0,1,3.361,2.2,15.037,15.037,0,0,1,2.385,2.585,13.6,13.6,0,0,1,2.1,4.537A4.33,4.33,0,0,1,592.328,91.785Z" transform="translate(-258.628 -40.105)" fill="#e0e0e0"/>
      <path id="Trazado_108077" data-name="Trazado 108077" d="M582.9,103.969l.4,2.521-2.249.36-.392-2.449a10.843,10.843,0,0,1-5.882-.928l.8-2.937a9.194,9.194,0,0,0,4.609.9l-.6-3.753c-2.593-.208-5.506-.592-6.026-3.809-.376-2.4,1.024-4.7,4.505-5.674l-.392-2.5,2.241-.36.392,2.457a10.243,10.243,0,0,1,4.8.64l-.68,2.937a9.5,9.5,0,0,0-3.625-.616l.608,3.825c2.593.184,5.465.576,5.97,3.745C587.745,100.688,586.361,102.985,582.9,103.969Zm-3.841-9.6-.512-3.2c-1.144.456-1.513,1.184-1.393,1.928s.864,1.152,1.9,1.3Zm4.729,4.8c-.12-.8-.84-1.112-1.865-1.3l.5,3.1c1.08-.4,1.488-1.056,1.368-1.776Z" transform="translate(-260.72 -41.334)" fill="#e0e0e0"/>
      <path id="Trazado_108078" data-name="Trazado 108078" d="M514.056,91.823a33.329,33.329,0,1,1-37.762-28.112A33.329,33.329,0,0,1,514.056,91.823Z" transform="translate(-235.596 -36.941)" fill="#f5f5f5"/>
      <path id="Trazado_108079" data-name="Trazado 108079" d="M508.185,94.934a25.367,25.367,0,1,1-9.963-16.683A25.4,25.4,0,0,1,508.185,94.934Z" transform="translate(-237.575 -38.916)" fill="#ebebeb"/>
      <path id="Trazado_108080" data-name="Trazado 108080" d="M507.967,93.917a16.156,16.156,0,0,1-1.1-2.929,27.062,27.062,0,0,0-4-7.282,26.133,26.133,0,0,0-4-4.081,25.7,25.7,0,0,0-5.545-3.433A23.941,23.941,0,0,0,490,74.968a23.639,23.639,0,0,0-3.593-.8,24.878,24.878,0,0,0-3.8-.224,24.56,24.56,0,0,0-7.7,1.368,23.91,23.91,0,0,0-3.473,1.552,24.372,24.372,0,0,0-3.113,1.953,25.126,25.126,0,0,0-2.689,2.289,25.445,25.445,0,0,0-4,5.137,26.406,26.406,0,0,0-2.345,5.209,27.2,27.2,0,0,0-1.264,8.218,19.754,19.754,0,0,1,0,3.121c-.128.024-.488-1.048-.728-3.081a23.521,23.521,0,0,1,.7-8.65,25.479,25.479,0,0,1,6.4-11.2,23.336,23.336,0,0,1,2.841-2.513,25.6,25.6,0,0,1,3.273-2.129,24.805,24.805,0,0,1,3.761-1.664,28.409,28.409,0,0,1,4.089-1.08,27.92,27.92,0,0,1,4.209-.392,25.607,25.607,0,0,1,4.1.264,25.133,25.133,0,0,1,3.865.872,25.439,25.439,0,0,1,3.529,1.376,25.974,25.974,0,0,1,5.841,3.825,25.668,25.668,0,0,1,4.049,4.5,23.456,23.456,0,0,1,3.641,7.874C508.071,92.765,508.079,93.9,507.967,93.917Z" transform="translate(-237.477 -38.684)" fill="#e0e0e0"/>
      <path id="Trazado_108081" data-name="Trazado 108081" d="M491.594,115.077l.7,4.369-3.9.616-.68-4.249c-3.9.384-7.8-.232-10.211-1.6l1.377-5.105a16,16,0,0,0,8,1.6l-1.048-6.514c-4.5-.36-9.562-1.032-10.459-6.61-.656-4.137,1.776-8.162,7.826-9.851l-.7-4.329,3.905-.624.68,4.249a17.877,17.877,0,0,1,8.3,1.112l-1.128,5.113a16.213,16.213,0,0,0-6.29-1.08l1.056,6.634c4.5.32,9.483,1,10.363,6.5C500,109.363,497.6,113.364,491.594,115.077Zm-6.666-16.62-.88-5.537c-1.993.8-2.633,2.065-2.4,3.353s1.481,1.889,3.281,2.185Zm8.218,8.33c-.216-1.368-1.472-1.929-3.241-2.249l.864,5.385C492.659,109.187,493.347,108.035,493.147,106.786Z" transform="translate(-241.094 -40.822)" fill="#e0e0e0"/>
      <path id="Trazado_108082" data-name="Trazado 108082" d="M152.832,236.668a19.205,19.205,0,1,1-21.758-16.188A19.205,19.205,0,0,1,152.832,236.668Z" transform="translate(-100.75 28.017)" fill="#f5f5f5"/>
      <path id="Trazado_108083" data-name="Trazado 108083" d="M149.451,238.461a14.636,14.636,0,1,1-16.58-12.339A14.636,14.636,0,0,1,149.451,238.461Z" transform="translate(-101.891 26.881)" fill="#ebebeb"/>
      <path id="Trazado_108084" data-name="Trazado 108084" d="M149.317,237.869a8.49,8.49,0,0,1-.632-1.688,15.542,15.542,0,0,0-2.321-4.193,15.047,15.047,0,0,0-2.3-2.353,14.53,14.53,0,0,0-3.2-1.977,12.794,12.794,0,0,0-1.9-.7,13.216,13.216,0,0,0-2.073-.44,14.054,14.054,0,0,0-2.185-.128,15.368,15.368,0,0,0-2.249.216,14.212,14.212,0,0,0-5.994,2.569,13.812,13.812,0,0,0-1.544,1.32,14.514,14.514,0,0,0-2.321,2.953,15.3,15.3,0,0,0-1.352,3,15.692,15.692,0,0,0-.728,4.737,8,8,0,0,1,0,1.8,4.329,4.329,0,0,1-.416-1.776,13.6,13.6,0,0,1,.4-4.985,14.793,14.793,0,0,1,1.3-3.2,15.2,15.2,0,0,1,2.4-3.2,13.6,13.6,0,0,1,1.6-1.448,15.266,15.266,0,0,1,4.081-2.193,16.217,16.217,0,0,1,2.361-.624,16.554,16.554,0,0,1,2.4-.224,15.337,15.337,0,0,1,2.4.152,14.281,14.281,0,0,1,2.225.5,14.941,14.941,0,0,1,7.73,5.6,13.6,13.6,0,0,1,2.1,4.537,4.37,4.37,0,0,1,.216,1.744Z" transform="translate(-101.829 27.008)" fill="#e0e0e0"/>
      <path id="Trazado_108085" data-name="Trazado 108085" d="M139.9,250.065l.4,2.513-2.249.36-.392-2.449a10.771,10.771,0,0,1-5.882-.9l.8-2.945a9.122,9.122,0,0,0,4.617.9l-.608-3.753c-2.585-.2-5.505-.584-6.018-3.8-.384-2.4,1.016-4.705,4.505-5.674l-.4-2.5,2.249-.36.392,2.449a10.22,10.22,0,0,1,4.8.64l-.68,2.945a9.18,9.18,0,0,0-3.625-.616l.608,3.817c2.593.184,5.465.576,5.97,3.745C144.736,246.776,143.352,249.073,139.9,250.065Zm-3.841-9.6-.512-3.2c-1.144.464-1.512,1.184-1.392,1.928s.864,1.144,1.9,1.3Zm4.737,4.8c-.128-.8-.848-1.1-1.872-1.288l.5,3.1c1.088-.4,1.488-1.064,1.376-1.784Z" transform="translate(-103.922 25.783)" fill="#e0e0e0"/>
      <path id="Trazado_108086" data-name="Trazado 108086" d="M116.47,182.188a12.491,12.491,0,1,1,3.873-17.213A12.491,12.491,0,0,1,116.47,182.188Z" transform="translate(-97.286 40.23)" fill="#f5f5f5"/>
      <path id="Trazado_108087" data-name="Trazado 108087" d="M115.62,180.414a9.523,9.523,0,1,1,2.961-13.124A9.523,9.523,0,0,1,115.62,180.414Z" transform="translate(-98.028 39.492)" fill="#ebebeb"/>
      <path id="Trazado_108088" data-name="Trazado 108088" d="M116.919,180.173a8.646,8.646,0,0,1,.8-.8,9.986,9.986,0,0,0,1.88-2.489,9.362,9.362,0,0,0,1.12-4.409,8.234,8.234,0,0,0-.08-1.32,8.962,8.962,0,0,0-.288-1.344,9.323,9.323,0,0,0-.5-1.336,9.124,9.124,0,0,0-1.64-2.4,8.479,8.479,0,0,0-1.048-.96,8.67,8.67,0,0,0-1.144-.8,8.161,8.161,0,0,0-1.168-.624,9.605,9.605,0,0,0-2.4-.6,10.606,10.606,0,0,0-2.137,0,9.972,9.972,0,0,0-3.009.8,5.994,5.994,0,0,1-1.08.464,4.179,4.179,0,0,1,.952-.72,8.754,8.754,0,0,1,3.065-1.072,9.482,9.482,0,0,1,2.265-.088,9.6,9.6,0,0,1,2.553.576,8.909,8.909,0,0,1,1.3.592,9.133,9.133,0,0,1,1.24.8,9.859,9.859,0,0,1,2.129,2.273,10.315,10.315,0,0,1,.8,1.384,10.135,10.135,0,0,1,.536,1.44,9.6,9.6,0,0,1,.288,1.456,8.571,8.571,0,0,1,.064,1.424,9.7,9.7,0,0,1-.416,2.577,9.531,9.531,0,0,1-.928,2.073,8.8,8.8,0,0,1-2.145,2.449,2.905,2.905,0,0,1-1,.656Z" transform="translate(-99.071 39.572)" fill="#e0e0e0"/>
      <path id="Trazado_108089" data-name="Trazado 108089" d="M107.1,177.49l-1.392.9-.8-1.24,1.352-.88a6.93,6.93,0,0,1-1.016-3.737l1.953-.3a5.986,5.986,0,0,0,.688,2.985l2.073-1.352c-.56-1.6-1.1-3.433.672-4.585,1.312-.856,3.065-.64,4.561,1.176l1.376-.9.8,1.24-1.352.88a6.722,6.722,0,0,1,.888,3.009l-1.937.376a6.042,6.042,0,0,0-.584-2.321l-2.113,1.376c.576,1.6,1.1,3.4-.648,4.537C110.335,179.5,108.6,179.282,107.1,177.49Zm4.673-4.8,1.76-1.152c-.576-.56-1.1-.584-1.512-.32s-.432.8-.248,1.464Zm-1.6,4.081c.432-.288.432-.8.272-1.456l-1.712,1.12c.544.528,1.048.584,1.44.328Z" transform="translate(-98.809 38.303)" fill="#e0e0e0"/>
      <path id="Trazado_108090" data-name="Trazado 108090" d="M535.21,53.388a12.467,12.467,0,1,1,5.5-7.8A12.491,12.491,0,0,1,535.21,53.388Z" transform="translate(-249.236 -30.347)" fill="#f5f5f5"/>
      <path id="Trazado_108091" data-name="Trazado 108091" d="M534.348,51.615A9.523,9.523,0,1,1,537.3,38.5,9.523,9.523,0,0,1,534.348,51.615Z" transform="translate(-249.974 -31.087)" fill="#ebebeb"/>
      <path id="Trazado_108092" data-name="Trazado 108092" d="M535.639,51.384a8.639,8.639,0,0,1,.8-.8,9.993,9.993,0,0,0,1.88-2.489,9.168,9.168,0,0,0,.8-1.985,9.683,9.683,0,0,0,.336-2.4,9.275,9.275,0,0,0-.056-1.368A8.954,8.954,0,0,0,539.112,41a8.809,8.809,0,0,0-.5-1.336,9.683,9.683,0,0,0-.72-1.28A9.87,9.87,0,0,0,537,37.236a8.552,8.552,0,0,0-1.056-.968,8.172,8.172,0,0,0-1.144-.8,9.072,9.072,0,0,0-1.192-.576,9.259,9.259,0,0,0-2.4-.592,9.548,9.548,0,0,0-2.137,0,9.994,9.994,0,0,0-3.009.8,5.337,5.337,0,0,1-1.08.464,4.18,4.18,0,0,1,.952-.72A8.755,8.755,0,0,1,529,33.811a9.108,9.108,0,0,1,2.265-.08,9.557,9.557,0,0,1,2.553.568,8.894,8.894,0,0,1,1.3.592,9.715,9.715,0,0,1,3.369,3.049,10.383,10.383,0,0,1,.8,1.384,10.112,10.112,0,0,1,.528,1.44,8.7,8.7,0,0,1,.288,1.456,8.593,8.593,0,0,1,.064,1.424,9.707,9.707,0,0,1-.416,2.577,9.545,9.545,0,0,1-.944,2.121,8.8,8.8,0,0,1-2.137,2.4,2.969,2.969,0,0,1-1.024.64Z" transform="translate(-251.025 -31.016)" fill="#e0e0e0"/>
      <path id="Trazado_108093" data-name="Trazado 108093" d="M525.813,48.69l-1.392.912-.8-1.24,1.352-.88a7,7,0,0,1-1.048-3.745l1.953-.3a6.065,6.065,0,0,0,.688,2.985l2.073-1.352c-.56-1.6-1.1-3.433.672-4.585,1.312-.856,3.065-.64,4.561,1.176l1.408-.856.8,1.24-1.352.88a6.736,6.736,0,0,1,.88,3.017l-1.929.368a6.107,6.107,0,0,0-.592-2.313l-2.112,1.368c.576,1.6,1.1,3.4-.648,4.537C529.045,50.7,527.317,50.482,525.813,48.69Zm4.673-4.8,1.76-1.144c-.576-.568-1.1-.592-1.512-.328s-.408.784-.248,1.464Zm-1.6,4.081c.432-.288.432-.8.272-1.448l-1.712,1.112a1.191,1.191,0,0,0,1.44.368Z" transform="translate(-250.753 -32.275)" fill="#e0e0e0"/>
    </g>
    <g id="freepik--Device--inject-122" transform="translate(114.151 59.253)">
      <path id="Trazado_108095" data-name="Trazado 108095" d="M590.564,134.64H285.906a9.507,9.507,0,0,0-9.507,9.515V359.34a9.507,9.507,0,0,0,9.507,9.507H402.834s7.442,23-15.62,34.905H496.547s-26.015-8.93-19.341-34.905H590.564a9.507,9.507,0,0,0,9.507-9.507V144.155A9.506,9.506,0,0,0,590.564,134.64Z" transform="translate(-214.047 -80.089)" fill="#263238"/>
      <path id="Trazado_108096" data-name="Trazado 108096" d="M481.2,398.547c4.145,5.922-2.337,12.411-8.266,8.266a2.044,2.044,0,0,1-.5-.512c-4.137-5.922,2.345-12.4,8.266-8.258A2.148,2.148,0,0,1,481.2,398.547Z" transform="translate(-252.951 -132.452)" fill="#455a64"/>
      <path id="Trazado_108097" data-name="Trazado 108097" d="M290.722,139.57H588.4a7.762,7.762,0,0,1,7.762,7.762V330.469H283V147.332a7.762,7.762,0,0,1,7.722-7.762Z" transform="translate(-215.366 -81.074)" fill="#fff"/>
      <rect id="Rectángulo_26914" data-name="Rectángulo 26914" width="10.275" height="114.719" transform="translate(94.129 101.587)" fill="#d9a171"/>
      <rect id="Rectángulo_26915" data-name="Rectángulo 26915" width="10.275" height="75.756" transform="translate(113.958 140.55)" fill="#d9a171"/>
      <rect id="Rectángulo_26916" data-name="Rectángulo 26916" width="10.275" height="101.043" transform="translate(133.788 115.847)" fill="#d9a171"/>
      <rect id="Rectángulo_26917" data-name="Rectángulo 26917" width="10.275" height="110.286" transform="translate(153.625 106.02)" fill="#d9a171"/>
      <rect id="Rectángulo_26918" data-name="Rectángulo 26918" width="10.275" height="73.42" transform="translate(173.454 142.886)" fill="#d9a171"/>
      <rect id="Rectángulo_26919" data-name="Rectángulo 26919" width="10.275" height="59.024" transform="translate(193.284 157.282)" fill="#d9a171"/>
      <rect id="Rectángulo_26920" data-name="Rectángulo 26920" width="10.275" height="102.94" transform="translate(213.113 113.366)" fill="#d9a171"/>
      <rect id="Rectángulo_26921" data-name="Rectángulo 26921" width="10.275" height="84.383" transform="translate(232.942 131.923)" fill="#d9a171"/>
      <rect id="Rectángulo_26922" data-name="Rectángulo 26922" width="10.275" height="99.211" transform="translate(252.78 117.095)" fill="#d9a171"/>
      <rect id="Rectángulo_26923" data-name="Rectángulo 26923" width="10.275" height="67.594" transform="translate(272.609 148.712)" fill="#d9a171"/>
      <rect id="Rectángulo_26924" data-name="Rectángulo 26924" width="10.275" height="102.94" transform="translate(312.164 113.366)" fill="#d9a171"/>
      <rect id="Rectángulo_26925" data-name="Rectángulo 26925" width="10.275" height="35.225" transform="translate(354.279 179.6)" fill="#d9a171"/>
      <rect id="Rectángulo_26926" data-name="Rectángulo 26926" width="10.275" height="67.594" transform="translate(333.745 148.712)" fill="#d9a171"/>
      <rect id="Rectángulo_26927" data-name="Rectángulo 26927" width="10.275" height="80.454" transform="translate(292.438 135.852)" fill="#d9a171"/>
      <path id="Trazado_108098" data-name="Trazado 108098" d="M590.832,211.107a6.4,6.4,0,0,1-.9-.144l-2.617-.536a40.915,40.915,0,0,0-4.273-.68,52.8,52.8,0,0,0-5.881-.488,68.1,68.1,0,0,0-16.084,1.376,71,71,0,0,0-19.941,7.554,81.411,81.411,0,0,0-20.205,16.084c-6.29,6.9-11.6,15.42-17.021,24.439s-11.059,18.7-19.133,27.055a50.079,50.079,0,0,1-14.092,10.539,29.368,29.368,0,0,1-8.69,2.657,27.846,27.846,0,0,1-9.211-.312,37.587,37.587,0,0,1-16.044-8.41,74.687,74.687,0,0,1-11.883-12.971c-6.9-9.283-11.8-19.285-17.037-28.4s-10.5-17.693-17.02-24.375a46.294,46.294,0,0,0-10.523-8.274,44.253,44.253,0,0,0-5.689-2.761,46.275,46.275,0,0,0-5.8-1.72,42.211,42.211,0,0,0-21.086.592,47.564,47.564,0,0,0-14.476,6.962,52.719,52.719,0,0,0-7.6,6.818l-1.785,1.976a5.6,5.6,0,0,1-.64.656,4.573,4.573,0,0,1,.544-.728l1.688-2.081a49.452,49.452,0,0,1,7.514-7.018,47.213,47.213,0,0,1,14.564-7.2,42.612,42.612,0,0,1,21.438-.8c7.9,1.6,15.948,6.114,22.518,12.883s12.043,15.356,17.261,24.511,10.195,19.1,17.021,28.264a74.107,74.107,0,0,0,11.715,12.8A36.474,36.474,0,0,0,453,297.538a26.787,26.787,0,0,0,8.8.3,28.539,28.539,0,0,0,8.362-2.553,49.084,49.084,0,0,0,13.8-10.315c7.962-8.186,13.532-17.853,19.037-26.807s10.819-17.6,17.221-24.535a82.3,82.3,0,0,1,20.51-16.148,70.846,70.846,0,0,1,20.213-7.466,66.6,66.6,0,0,1,16.228-1.2,49.485,49.485,0,0,1,5.914.6,36.132,36.132,0,0,1,4.273.8l2.593.648A5.7,5.7,0,0,1,590.832,211.107Z" transform="translate(-223.397 -94.892)" fill="#263238"/>
      <path id="Trazado_108099" data-name="Trazado 108099" d="M301.894,310.289c-.232,0-.424-32.713-.424-73.06s.192-73.06.424-73.06.424,32.7.424,73.06S302.11,310.289,301.894,310.289Z" transform="translate(-219.056 -85.989)" fill="#263238"/>
      <path id="Trazado_108100" data-name="Trazado 108100" d="M585.274,346.664c0,.232-61.616.416-137.637.416S310,346.9,310,346.664s61.617-.424,137.637-.424S585.274,346.432,585.274,346.664Z" transform="translate(-220.76 -122.364)" fill="#263238"/>
      <path id="Trazado_108101" data-name="Trazado 108101" d="M330.614,357.944c0,.232-3.409.424-7.618.424s-7.626-.192-7.626-.424,3.409-.424,7.626-.424S330.614,357.712,330.614,357.944Z" transform="translate(-221.833 -124.618)" fill="#263238"/>
      <path id="Trazado_108102" data-name="Trazado 108102" d="M361.451,358.516c0,.24-4.081.424-9.107.424s-9.114-.184-9.114-.424,4.081-.416,9.114-.416S361.451,358.284,361.451,358.516Z" transform="translate(-227.399 -124.734)" fill="#263238"/>
      <path id="Trazado_108103" data-name="Trazado 108103" d="M388.451,358.516c0,.24-4.081.424-9.107.424s-9.114-.184-9.114-.424,4.081-.416,9.114-.416S388.451,358.284,388.451,358.516Z" transform="translate(-232.793 -124.734)" fill="#263238"/>
      <path id="Trazado_108104" data-name="Trazado 108104" d="M415.371,358.516c0,.24-4.081.424-9.106.424s-9.114-.184-9.114-.424,4.081-.416,9.114-.416S415.371,358.284,415.371,358.516Z" transform="translate(-238.172 -124.734)" fill="#263238"/>
      <path id="Trazado_108105" data-name="Trazado 108105" d="M442.321,358.516c0,.24-4.073.424-9.106.424s-9.114-.184-9.114-.424,4.081-.416,9.114-.416S442.321,358.284,442.321,358.516Z" transform="translate(-243.556 -124.734)" fill="#263238"/>
      <path id="Trazado_108106" data-name="Trazado 108106" d="M469.281,358.516c0,.24-4.081.424-9.115.424s-9.107-.184-9.107-.424,4.073-.416,9.107-.416S469.281,358.284,469.281,358.516Z" transform="translate(-248.942 -124.734)" fill="#263238"/>
      <path id="Trazado_108107" data-name="Trazado 108107" d="M496.231,358.516c0,.24-4.081.424-9.115.424s-9.106-.184-9.106-.424,4.073-.416,9.106-.416S496.231,358.284,496.231,358.516Z" transform="translate(-254.326 -124.734)" fill="#263238"/>
      <path id="Trazado_108108" data-name="Trazado 108108" d="M523.181,358.516c0,.24-4.081.424-9.114.424s-9.106-.184-9.106-.424,4.081-.416,9.106-.416S523.181,358.284,523.181,358.516Z" transform="translate(-259.71 -124.734)" fill="#263238"/>
      <path id="Trazado_108109" data-name="Trazado 108109" d="M550.131,358.516c0,.24-4.081.424-9.107.424s-9.114-.184-9.114-.424,4.081-.416,9.114-.416S550.131,358.284,550.131,358.516Z" transform="translate(-265.095 -124.734)" fill="#263238"/>
      <path id="Trazado_108110" data-name="Trazado 108110" d="M577.081,358.516c0,.24-4.081.424-9.106.424s-9.114-.184-9.114-.424,4.081-.416,9.114-.416S577.081,358.284,577.081,358.516Z" transform="translate(-270.479 -124.734)" fill="#263238"/>
      <path id="Trazado_108111" data-name="Trazado 108111" d="M602.151,358.526c0,.24-4.081.424-9.115.424s-9.106-.184-9.106-.424,4.081-.416,9.106-.416S602.151,358.294,602.151,358.526Z" transform="translate(-275.488 -124.736)" fill="#263238"/>
      <path id="Trazado_108112" data-name="Trazado 108112" d="M627.221,358.536c0,.232-4.081.424-9.115.424s-9.106-.192-9.106-.424,4.073-.416,9.106-.416S627.221,358.3,627.221,358.536Z" transform="translate(-280.496 -124.738)" fill="#263238"/>
      <path id="Trazado_108113" data-name="Trazado 108113" d="M652.281,358.544c0,.232-4.081.424-9.107.424s-9.114-.192-9.114-.424,4.081-.424,9.114-.424S652.281,358.312,652.281,358.544Z" transform="translate(-285.503 -124.738)" fill="#263238"/>
      <path id="Trazado_108114" data-name="Trazado 108114" d="M431.993,260.048c0-.176,1.264.264,1.664,1.985a4.224,4.224,0,0,1-.32,2.961,2.56,2.56,0,0,1-1.5,1.264,2.753,2.753,0,0,1-2.089-.248,3.5,3.5,0,0,1-1.785-3.273,3.665,3.665,0,0,1,1.432-2.649,2.345,2.345,0,0,1,1.961-.48c.48.144.64.376.608.424a2.29,2.29,0,0,0-2.048.68,3.017,3.017,0,0,0-.9,2.064A2.545,2.545,0,0,0,430.3,265a1.521,1.521,0,0,0,2.129-.544,3.744,3.744,0,0,0,.432-2.281A4.993,4.993,0,0,0,431.993,260.048Z" transform="translate(-244.327 -105.046)" fill="#263238"/>
      <path id="Trazado_108115" data-name="Trazado 108115" d="M601.028,212.907c0-.064.328-.168.9,0a3.457,3.457,0,0,1,1.832,1.6,4.553,4.553,0,0,1,.448,3.6,3.785,3.785,0,0,1-3.513,2.809,2.993,2.993,0,0,1-2.233-1.16,4.8,4.8,0,0,1-.944-2,4.561,4.561,0,0,1,.576-3.577c1.264-1.784,2.825-1.7,2.769-1.6.072.168-1.232.416-2.073,1.977a4,4,0,0,0-.248,2.9c.272,1.056,1.088,2.265,2.193,2.273a2.825,2.825,0,0,0,2.473-1.992,3.938,3.938,0,0,0-.168-2.889A4.145,4.145,0,0,0,601.028,212.907Z" transform="translate(-278.174 -95.652)" fill="#263238"/>
      <rect id="Rectángulo_26928" data-name="Rectángulo 26928" width="206.143" height="160.435" transform="translate(0.16 0.272)" fill="#fff"/>
      <path id="Trazado_108116" data-name="Trazado 108116" d="M404.783,227.177c0-1.6-.072-63.617-.192-160.435l.192.192H198.664l.232-.232V227.137l-.208-.208,206.143.208-206.143.208h-.208V66.47H405.047v.192C404.863,163.56,404.791,225.577,404.783,227.177Z" transform="translate(-198.48 -66.47)" fill="#263238"/>
      <rect id="Rectángulo_26929" data-name="Rectángulo 26929" width="33.369" height="1.856" transform="translate(10.219 21.35)" fill="#263238"/>
      <rect id="Rectángulo_26930" data-name="Rectángulo 26930" width="16.492" height="1.856" transform="translate(10.219 25.695)" fill="#263238"/>
      <rect id="Rectángulo_26931" data-name="Rectángulo 26931" width="6.042" height="1.744" transform="translate(29.24 137.653)" fill="#263238"/>
      <rect id="Rectángulo_26932" data-name="Rectángulo 26932" width="7.73" height="1.744" transform="translate(42.915 146.967)" fill="#263238"/>
      <rect id="Rectángulo_26933" data-name="Rectángulo 26933" width="7.73" height="1.744" transform="translate(69.827 146.967)" fill="#263238"/>
      <rect id="Rectángulo_26934" data-name="Rectángulo 26934" width="7.73" height="1.744" transform="translate(96.738 146.967)" fill="#263238"/>
      <rect id="Rectángulo_26935" data-name="Rectángulo 26935" width="7.73" height="1.744" transform="translate(123.649 146.967)" fill="#263238"/>
      <rect id="Rectángulo_26936" data-name="Rectángulo 26936" width="7.73" height="1.744" transform="translate(150.56 146.967)" fill="#263238"/>
      <rect id="Rectángulo_26937" data-name="Rectángulo 26937" width="7.73" height="1.744" transform="translate(177.471 146.967)" fill="#263238"/>
      <rect id="Rectángulo_26938" data-name="Rectángulo 26938" width="6.042" height="1.744" transform="translate(29.24 114.391)" fill="#263238"/>
      <rect id="Rectángulo_26939" data-name="Rectángulo 26939" width="6.042" height="1.744" transform="translate(29.24 70.603)" fill="#263238"/>
      <rect id="Rectángulo_26940" data-name="Rectángulo 26940" width="6.042" height="1.744" transform="translate(29.24 48.597)" fill="#263238"/>
      <rect id="Rectángulo_26941" data-name="Rectángulo 26941" width="6.042" height="1.744" transform="translate(29.552 92.497)" fill="#263238"/>
      <path id="Trazado_108117" data-name="Trazado 108117" d="M393.011,214.572h-2.553l-7.314.04-26.9.072-88.752.056H246.26v-.208c0-29.68.056-55.8.072-74.508,0-9.347.048-16.8.064-22.006v0c0,5.169,0,12.659.064,22.006,0,18.709.04,44.812.072,74.508l-.208-.208H267.5l88.752.064,26.9.064,7.314.04h1.9Z" transform="translate(-208.026 -75.175)" fill="#263238"/>
      <path id="Trazado_108118" data-name="Trazado 108118" d="M396.218,183.1c0,.112-31.881.208-71.219.208s-71.219-.1-71.219-.208,31.873-.208,71.219-.208S396.218,182.978,396.218,183.1Z" transform="translate(-209.528 -89.729)" fill="#263238"/>
      <path id="Trazado_108119" data-name="Trazado 108119" d="M396.218,155.738c0,.112-31.881.208-71.219.208s-71.219-.1-71.219-.208,31.873-.208,71.219-.208S396.218,155.626,396.218,155.738Z" transform="translate(-209.528 -84.263)" fill="#263238"/>
      <path id="Trazado_108120" data-name="Trazado 108120" d="M396.218,128.238c0,.12-31.881.208-71.219.208s-71.219-.088-71.219-.208,31.873-.208,71.219-.208S396.218,128.126,396.218,128.238Z" transform="translate(-209.528 -78.769)" fill="#263238"/>
      <path id="Trazado_108121" data-name="Trazado 108121" d="M396.218,210.458c0,.112-31.881.208-71.219.208s-71.219-.1-71.219-.208,31.873-.208,71.219-.208S396.218,210.346,396.218,210.458Z" transform="translate(-209.528 -95.195)" fill="#263238"/>
      <path id="Trazado_108122" data-name="Trazado 108122" d="M255.66,210.272V190.851l12.107-18.813,8.218,6.306,16.86-26.191,9.947,7,13.836-24.167,11.2,9.162,16.924-32.041,18.165,35.826,14.644-17.925,17.293-4.953v85.215Z" transform="translate(-209.904 -75.588)" fill="#455a64"/>
      <path id="Trazado_108123" data-name="Trazado 108123" d="M396.6,119.642a2.227,2.227,0,0,1-.3,0h-4.409l-13.276.056.088-.048-14.228,18.661-.056.064H328.728l.176-.1L313.932,163.2c-5.1,8.482-10.035,16.685-14.7,24.431l-.152.264-.176-.248-19.3-26.511h.28l-17.541,27.431-4.889,7.586c-.56.864-.992,1.528-1.3,1.985s-.456.672-.456.672.136-.24.416-.7l1.248-2.009c1.112-1.768,2.737-4.353,4.8-7.642l17.445-27.5.136-.208.152.2,19.341,26.479H298.9l14.652-24.423,14.988-24.919.056-.1h.16l35.609.04-.128.064,14.316-18.517v-.048h.056l13.276.056H396.3Z" transform="translate(-209.912 -77.071)" fill="#263238"/>
      <path id="Trazado_108124" data-name="Trazado 108124" d="M292.317,178.862a1.368,1.368,0,1,1-1.368-1.312,1.344,1.344,0,0,1,1.368,1.312Z" transform="translate(-216.681 -88.662)" fill="#263238"/>
      <path id="Trazado_108125" data-name="Trazado 108125" d="M343.677,149.672a1.368,1.368,0,1,1-1.36-1.312A1.336,1.336,0,0,1,343.677,149.672Z" transform="translate(-226.942 -82.83)" fill="#263238"/>
      <ellipse id="Elipse_4249" data-name="Elipse 4249" cx="1.368" cy="1.312" rx="1.368" ry="1.312" transform="translate(145.935 59.808)" fill="#263238"/>
      <path id="Trazado_108126" data-name="Trazado 108126" d="M208.651,74.66a1.6,1.6,0,1,1-1.6-1.6A1.6,1.6,0,0,1,208.651,74.66Z" transform="translate(-199.873 -67.787)" fill="#263238"/>
      <path id="Trazado_108127" data-name="Trazado 108127" d="M214.411,74.66a1.6,1.6,0,1,1-1.6-1.6A1.6,1.6,0,0,1,214.411,74.66Z" transform="translate(-201.023 -67.787)" fill="#263238"/>
      <path id="Trazado_108128" data-name="Trazado 108128" d="M220.2,74.66a1.6,1.6,0,1,1-1.6-1.6A1.6,1.6,0,0,1,220.2,74.66Z" transform="translate(-202.18 -67.787)" fill="#263238"/>
      <path id="Trazado_108129" data-name="Trazado 108129" d="M404.719,82.818c0,.112-46.06.208-102.867.208S199,82.922,199,82.818s46.052-.208,102.876-.208S404.719,82.7,404.719,82.818Z" transform="translate(-198.584 -69.695)" fill="#263238"/>
    </g>
    <g id="freepik--Character--inject-122" transform="translate(141.23 125.437)">
      <path id="Trazado_108144" data-name="Trazado 108144" d="M248.658,462.37l-1.376,5.794s-9.483,12.315-12.4,11.707c-1.921-.392.44-3.6,4-12.955l.8-3.857Z" transform="translate(-232.694 -211.749)" fill="#455a64"/>
      <path id="Trazado_108145" data-name="Trazado 108145" d="M234.569,479.183a1.169,1.169,0,0,0,.5.488,1.761,1.761,0,0,0,1.816-.256,54.294,54.294,0,0,0,4.713-4.465c1.753-1.841,3.2-3.617,4.265-4.921l1.208-1.56c.12-.152.232-.288.328-.424a.976.976,0,0,1,.128-.144.976.976,0,0,1-.128.144l-.3.448c-.264.384-.664.928-1.168,1.6a60.421,60.421,0,0,1-4.241,4.961,46.73,46.73,0,0,1-4.8,4.457,2.2,2.2,0,0,1-1.072.392,1.6,1.6,0,0,1-.84-.184,1.009,1.009,0,0,1-.4-.368.535.535,0,0,1-.008-.168Z" transform="translate(-232.769 -212.854)" fill="#263238"/>
      <path id="Trazado_108146" data-name="Trazado 108146" d="M236.24,476.973a1.5,1.5,0,0,1,.8-.088,4.062,4.062,0,0,1,1.784.616,3.256,3.256,0,0,1,1.3,1.376,1.663,1.663,0,0,1,.208.76,4.314,4.314,0,0,0-.312-.7,3.474,3.474,0,0,0-1.28-1.28,4.419,4.419,0,0,0-1.712-.648A7.476,7.476,0,0,0,236.24,476.973Z" transform="translate(-233.103 -214.645)" fill="#263238"/>
      <path id="Trazado_108147" data-name="Trazado 108147" d="M247.372,471.965a.865.865,0,0,1-.12-.28,6.277,6.277,0,0,1-.184-.8,4.36,4.36,0,0,1,.44-2.641,4.1,4.1,0,0,1,1.921-1.857,2.774,2.774,0,0,1,.8-.24.923.923,0,0,1,.3,0,6.406,6.406,0,0,0-1.032.368,4.2,4.2,0,0,0-1.816,1.832,4.537,4.537,0,0,0-.472,2.545C247.268,471.548,247.4,471.957,247.372,471.965Z" transform="translate(-235.257 -212.501)" fill="#263238"/>
      <path id="Trazado_108148" data-name="Trazado 108148" d="M251.308,463.6s-.176.8-.352,1.849a6.346,6.346,0,0,1-.5,1.824s.152-.8.328-1.856a6,6,0,0,1,.52-1.816Z" transform="translate(-235.944 -211.994)" fill="#263238"/>
      <path id="Trazado_108149" data-name="Trazado 108149" d="M239.89,469.049a2.273,2.273,0,0,1,1.216,0,2.129,2.129,0,0,1,1.1.52c0,.048-.5-.208-1.136-.352S239.9,469.105,239.89,469.049Z" transform="translate(-233.832 -213.067)" fill="#263238"/>
      <path id="Trazado_108150" data-name="Trazado 108150" d="M239.65,470.288a1.529,1.529,0,0,1,1.024,0,1.447,1.447,0,0,1,.9.5c0,.04-.408-.208-.936-.328S239.658,470.344,239.65,470.288Z" transform="translate(-233.784 -213.313)" fill="#263238"/>
      <path id="Trazado_108151" data-name="Trazado 108151" d="M238.7,471.822a1.3,1.3,0,0,1,1.064-.136,1.273,1.273,0,0,1,.9.584,4.112,4.112,0,0,0-.936-.416,4.179,4.179,0,0,0-1.024-.032Z" transform="translate(-233.595 -213.599)" fill="#263238"/>
      <path id="Trazado_108152" data-name="Trazado 108152" d="M240.71,467.954a11.185,11.185,0,0,0,1.112-.376,9.078,9.078,0,0,0,1.144-.552c.2-.12.416-.256.624-.4a.775.775,0,0,0,.4-.576c-.008-.224-.288-.352-.5-.3a1.376,1.376,0,0,0-.584.392c-.352.328-.648.64-.888.912a7.954,7.954,0,0,1-.8.888,1.162,1.162,0,0,1,.16-.272c.112-.168.288-.408.52-.7a12.371,12.371,0,0,1,.872-.944,1.489,1.489,0,0,1,.656-.44.552.552,0,0,1,.712.448.953.953,0,0,1-.464.72,6.544,6.544,0,0,1-.656.4,7.186,7.186,0,0,1-1.176.528,6.408,6.408,0,0,1-.84.232C240.822,467.962,240.71,467.97,240.71,467.954Z" transform="translate(-233.996 -212.388)" fill="#263238"/>
      <path id="Trazado_108153" data-name="Trazado 108153" d="M240.9,467.626a10.4,10.4,0,0,1-.176-1.056,4.57,4.57,0,0,0-.32-1.1,2.4,2.4,0,0,0-.352-.56c-.144-.16-.368-.3-.544-.2s-.2.368-.176.584a2.743,2.743,0,0,0,.184.632,3.842,3.842,0,0,0,.616.952,8,8,0,0,0,.8.744c0,.024-.1,0-.248-.144a4.362,4.362,0,0,1-.608-.512,3.659,3.659,0,0,1-.672-.976,2.94,2.94,0,0,1-.208-.68.72.72,0,0,1,.264-.744.624.624,0,0,1,.744.232,2.459,2.459,0,0,1,.376.608,4.242,4.242,0,0,1,.3,1.144c.04.328.056.6.064.8A1.017,1.017,0,0,1,240.9,467.626Z" transform="translate(-233.689 -212.18)" fill="#263238"/>
      <path id="Trazado_108154" data-name="Trazado 108154" d="M305.354,463.756l.04-7.73-14.444-.176-.2,11.323.9.072c4,.272,20.318,1.088,23,.312C317.637,466.677,305.354,463.756,305.354,463.756Z" transform="translate(-243.993 -210.446)" fill="#455a64"/>
      <path id="Trazado_108155" data-name="Trazado 108155" d="M290.5,469.57h.248l.72.056,2.625.144c2.225.112,5.3.216,8.69.264s6.466,0,8.69,0l2.633-.072H302.791c-3.393,0-6.458-.136-8.682-.208l-2.633-.1h-.712Z" transform="translate(-243.943 -213.187)" fill="#263238"/>
      <path id="Trazado_108156" data-name="Trazado 108156" d="M314.867,469.811a6.4,6.4,0,0,1,.5-1.248,6.14,6.14,0,0,1,.912-.992,1.9,1.9,0,0,0-1.056.9A1.937,1.937,0,0,0,314.867,469.811Z" transform="translate(-248.81 -212.788)" fill="#263238"/>
      <path id="Trazado_108157" data-name="Trazado 108157" d="M309.568,467.3a1.866,1.866,0,0,0,.456-.552c.208-.328.36-.616.32-.648s-.248.224-.464.552S309.52,467.268,309.568,467.3Z" transform="translate(-247.751 -212.493)" fill="#263238"/>
      <path id="Trazado_108158" data-name="Trazado 108158" d="M308.109,466.6c0,.04.264-.112.512-.328s.432-.432.4-.472-.264.12-.512.336S308.077,466.567,308.109,466.6Z" transform="translate(-247.461 -212.433)" fill="#263238"/>
      <path id="Trazado_108159" data-name="Trazado 108159" d="M307.21,465.06a1.726,1.726,0,0,0,.752.112,1.77,1.77,0,0,0,.8-.072,1.712,1.712,0,0,0-.8-.1A1.764,1.764,0,0,0,307.21,465.06Z" transform="translate(-247.282 -212.27)" fill="#263238"/>
      <path id="Trazado_108160" data-name="Trazado 108160" d="M306.9,463.88a1.6,1.6,0,0,0,.84.256,1.449,1.449,0,0,0,.872-.112,4.936,4.936,0,0,0-.832-.048A4.535,4.535,0,0,0,306.9,463.88Z" transform="translate(-247.22 -212.051)" fill="#263238"/>
      <path id="Trazado_108161" data-name="Trazado 108161" d="M310.2,465.682a2.824,2.824,0,0,0,.928,0,4.8,4.8,0,0,0,.992-.2,2.569,2.569,0,0,0,.568-.232.5.5,0,0,0,.24-.28.368.368,0,0,0-.136-.376,1.713,1.713,0,0,0-2.121.472,1.645,1.645,0,0,0-.312.616.5.5,0,0,0,0,.248,2.6,2.6,0,0,1,.432-.8,1.68,1.68,0,0,1,.8-.5,1.416,1.416,0,0,1,1.112.088c.144.112.088.28-.08.376a2.39,2.39,0,0,1-.528.216,6.221,6.221,0,0,1-.96.24A4.584,4.584,0,0,1,310.2,465.682Z" transform="translate(-247.879 -212.156)" fill="#263238"/>
      <path id="Trazado_108162" data-name="Trazado 108162" d="M310.193,465.637a.9.9,0,0,0,.112-.648,1.487,1.487,0,0,0-.24-.68.944.944,0,0,0-.8-.488.384.384,0,0,0-.3.432,1.074,1.074,0,0,0,.152.416,2.856,2.856,0,0,0,.432.568,1.394,1.394,0,0,0,.528.384,4.837,4.837,0,0,1-.432-.472,2.959,2.959,0,0,1-.384-.56c-.128-.2-.208-.552,0-.592s.472.216.608.4a1.552,1.552,0,0,1,.256.608A3.917,3.917,0,0,1,310.193,465.637Z" transform="translate(-247.632 -212.038)" fill="#263238"/>
      <path id="Trazado_108163" data-name="Trazado 108163" d="M290.94,464.593s.408,0,1.064.048a4.537,4.537,0,0,1,3.753,3.073c.216.624.232,1.04.264,1.04a.934.934,0,0,0,0-.3,3.431,3.431,0,0,0-.144-.8,4.393,4.393,0,0,0-3.857-3.153,4.242,4.242,0,0,0-.8,0A.8.8,0,0,0,290.94,464.593Z" transform="translate(-244.032 -212.172)" fill="#263238"/>
      <path id="Trazado_108164" data-name="Trazado 108164" d="M292.857,457.12a24.139,24.139,0,0,0-.168,2.969,25.293,25.293,0,0,0,0,2.977,25.463,25.463,0,0,0,.16-2.977A26.352,26.352,0,0,0,292.857,457.12Z" transform="translate(-244.372 -210.7)" fill="#263238"/>
      <path id="Trazado_108165" data-name="Trazado 108165" d="M299.61,468.187a8.622,8.622,0,0,0,2.113.232,7.828,7.828,0,0,0,2.12-.144c0-.048-.952,0-2.113,0S299.618,468.131,299.61,468.187Z" transform="translate(-245.764 -212.908)" fill="#263238"/>
      <path id="Trazado_108166" data-name="Trazado 108166" d="M296.068,468.138c-.04,0,.072.2.168.416s.144.408.192.408.08-.224,0-.48S296.1,468.1,296.068,468.138Z" transform="translate(-245.054 -212.9)" fill="#263238"/>
      <path id="Trazado_108167" data-name="Trazado 108167" d="M294.75,466.458a.9.9,0,0,0,.208.336c.152.152.3.248.328.216s-.056-.184-.2-.336S294.79,466.418,294.75,466.458Z" transform="translate(-244.793 -212.564)" fill="#263238"/>
      <path id="Trazado_108168" data-name="Trazado 108168" d="M292.85,465.65c0,.048.2.048.416.128s.36.192.4.16-.08-.232-.344-.328S292.834,465.61,292.85,465.65Z" transform="translate(-244.413 -212.388)" fill="#263238"/>
      <path id="Trazado_108169" data-name="Trazado 108169" d="M291.49,465.291c0,.04.064.12.184.168s.232.048.248,0-.064-.12-.176-.168S291.514,465.243,291.49,465.291Z" transform="translate(-244.141 -212.325)" fill="#263238"/>
      <path id="Trazado_108170" data-name="Trazado 108170" d="M303.467,280.76l-5.553,145.087-22.55.472,3.745-125.706L253.758,427.279H232.32l27.615-146.223Z" transform="translate(-232.32 -175.466)" fill="#263238"/>
      <path id="Trazado_108171" data-name="Trazado 108171" d="M295.889,287.36a14.239,14.239,0,0,1-.256,2.4c-.208,1.464-.528,3.5-.9,5.721a24.635,24.635,0,0,1-.64,3.153,4.5,4.5,0,0,1-1.472,2.217,3.456,3.456,0,0,1-1.64.728,1.319,1.319,0,0,1-.656,0,4.3,4.3,0,0,0,2.113-.936,4.369,4.369,0,0,0,1.3-2.113,28.2,28.2,0,0,0,.6-3.1c.376-2.233.736-4.249,1.016-5.706a15.2,15.2,0,0,1,.536-2.361Z" transform="translate(-243.908 -176.784)" fill="#455a64"/>
      <path id="Trazado_108172" data-name="Trazado 108172" d="M291.348,288.131a1.314,1.314,0,0,0,0,.648.8.8,0,0,0,.376.488.68.68,0,0,0,.888-.8.745.745,0,0,0-.432-.432c-.368-.16-.624,0-.648-.056s.208-.328.736-.216a1.016,1.016,0,0,1,.688.576,1.027,1.027,0,0,1-1.408,1.24,1.008,1.008,0,0,1-.48-.76C291.012,288.292,291.332,288.083,291.348,288.131Z" transform="translate(-244.056 -176.86)" fill="#455a64"/>
      <path id="Trazado_108173" data-name="Trazado 108173" d="M276.212,289.821a4.249,4.249,0,0,1,.432-4c.1.048-.224.9-.328,2A17.821,17.821,0,0,1,276.212,289.821Z" transform="translate(-241.027 -176.477)" fill="#455a64"/>
      <path id="Trazado_108174" data-name="Trazado 108174" d="M279.587,289.551a3.5,3.5,0,0,1-.328-2.129,3.586,3.586,0,0,1,.624-2.072c.1,0-.152.952-.224,2.1A19.967,19.967,0,0,1,279.587,289.551Z" transform="translate(-241.689 -176.383)" fill="#455a64"/>
      <path id="Trazado_108175" data-name="Trazado 108175" d="M308.8,290.251a12.353,12.353,0,0,1,.128-2.177,13.444,13.444,0,0,1,.1-2.185,4.072,4.072,0,0,1,.3,2.2A4.136,4.136,0,0,1,308.8,290.251Z" transform="translate(-247.598 -176.491)" fill="#455a64"/>
      <path id="Trazado_108176" data-name="Trazado 108176" d="M312.475,290.029c-.112-.048.24-1,.32-2.217s-.128-2.2,0-2.233a4.706,4.706,0,0,1-.3,4.449Z" transform="translate(-248.329 -176.429)" fill="#455a64"/>
      <path id="Trazado_108177" data-name="Trazado 108177" d="M281.431,196.229l13.924-1.112c.088-1.6,0-7.906,0-7.906s5.794-.9,5.866-6.69-.936-19.085-.936-19.085h0a20.125,20.125,0,0,0-20.277,2.521l-.856.664Z" transform="translate(-241.676 -151.295)" fill="#ffbe9d"/>
      <path id="Trazado_108178" data-name="Trazado 108178" d="M297.456,193.465a13.4,13.4,0,0,1-7.546-2.145s1.784,4.169,7.562,3.649Z" transform="translate(-243.826 -157.597)" fill="#eb996e"/>
      <path id="Trazado_108179" data-name="Trazado 108179" d="M302.257,173a.8.8,0,1,1-.273-.55.8.8,0,0,1,.273.55Z" transform="translate(-245.961 -153.788)" fill="#263238"/>
      <path id="Trazado_108180" data-name="Trazado 108180" d="M303.3,171.782c-.1.1-.728-.36-1.6-.36s-1.544.448-1.641.344.056-.248.344-.456a2.32,2.32,0,0,1,1.312-.4,2.176,2.176,0,0,1,1.288.416C303.264,171.558,303.352,171.782,303.3,171.782Z" transform="translate(-245.848 -153.519)" fill="#263238"/>
      <path id="Trazado_108181" data-name="Trazado 108181" d="M291.026,173.264a.8.8,0,1,1-.273-.55.8.8,0,0,1,.273.55Z" transform="translate(-243.718 -153.84)" fill="#263238"/>
      <path id="Trazado_108182" data-name="Trazado 108182" d="M292.374,172.014c-.1.112-.728-.352-1.6-.352s-1.544.448-1.64.336.056-.24.344-.448a2.2,2.2,0,0,1,1.312-.4,2.176,2.176,0,0,1,1.288.416C292.334,171.774,292.43,171.966,292.374,172.014Z" transform="translate(-243.665 -153.567)" fill="#263238"/>
      <path id="Trazado_108183" data-name="Trazado 108183" d="M297.128,178.63a6.124,6.124,0,0,1,1.44-.264c.232,0,.448-.064.48-.224a1.129,1.129,0,0,0-.152-.672q-.312-.8-.672-1.728a29.678,29.678,0,0,1-1.5-4.521,30.181,30.181,0,0,1,1.873,4.393c.224.6.432,1.184.64,1.736a1.319,1.319,0,0,1,.112.9.576.576,0,0,1-.376.336,1.432,1.432,0,0,1-.384.056,5.871,5.871,0,0,1-1.456-.008Z" transform="translate(-245.186 -153.581)" fill="#263238"/>
      <path id="Trazado_108184" data-name="Trazado 108184" d="M293.953,181.25c.144,0,.144.952.968,1.64s1.856.584,1.864.712-.232.192-.664.2a2.4,2.4,0,0,1-1.552-.536,2.153,2.153,0,0,1-.8-1.384C293.745,181.482,293.849,181.242,293.953,181.25Z" transform="translate(-244.596 -155.585)" fill="#263238"/>
      <path id="Trazado_108185" data-name="Trazado 108185" d="M292.466,167.713c-.088.24-.976.12-2.016.248s-1.888.416-2.033.192c-.056-.1.088-.328.424-.56a3.545,3.545,0,0,1,3.089-.344C292.314,167.4,292.506,167.593,292.466,167.713Z" transform="translate(-243.525 -152.746)" fill="#263238"/>
      <path id="Trazado_108186" data-name="Trazado 108186" d="M302.945,168.584c-.152.2-.8,0-1.5,0s-1.36.136-1.5-.08,0-.3.312-.5a2.049,2.049,0,0,1,1.224-.328,2.137,2.137,0,0,1,1.2.4C302.929,168.271,303.017,168.48,302.945,168.584Z" transform="translate(-245.818 -152.873)" fill="#263238"/>
      <path id="Trazado_108187" data-name="Trazado 108187" d="M279.038,173.295c-.1-.04-4-1.176-3.849,2.785s4.073,3.017,4.081,2.9S279.038,173.295,279.038,173.295Z" transform="translate(-240.884 -153.96)" fill="#ffbe9d"/>
      <path id="Trazado_108188" data-name="Trazado 108188" d="M278.305,177.836a1.268,1.268,0,0,1-.176.1.688.688,0,0,1-.52,0,1.7,1.7,0,0,1-.8-1.5,2.256,2.256,0,0,1,.16-1,.8.8,0,0,1,.5-.544.36.36,0,0,1,.416.176c.056.112,0,.192.056.2s.08-.072.048-.232a.473.473,0,0,0-.168-.248.553.553,0,0,0-.384-.088.961.961,0,0,0-.7.64,2.287,2.287,0,0,0-.208,1.112,1.776,1.776,0,0,0,1.064,1.672.736.736,0,0,0,.624-.12C278.305,177.932,278.321,177.843,278.305,177.836Z" transform="translate(-241.151 -154.275)" fill="#eb996e"/>
      <path id="Trazado_108189" data-name="Trazado 108189" d="M301.328,154.317a6.122,6.122,0,0,0-9.507-1.832,5.994,5.994,0,0,0-9.851-1.28c-1.112,1.264-1.688,2.969-2.985,4-1.128.92-2.649,1.224-3.785,2.129a4.369,4.369,0,0,0,1.56,7.618,4.7,4.7,0,0,0,2.313,6.4l.576-.24a8.242,8.242,0,0,0,1.2-9.09,1.793,1.793,0,0,0,.208,0,4.609,4.609,0,0,0,6.018-1.376,5.129,5.129,0,0,0,5.521.232,2.112,2.112,0,0,1,.8-.376,1.969,1.969,0,0,1,1.032.312,4.865,4.865,0,0,0,2.809.56,2.689,2.689,0,0,0,2.1-1.5h.072a3.1,3.1,0,0,0,2.313-2.241,4.6,4.6,0,0,0-.392-3.313Z" transform="translate(-240.56 -149.177)" fill="#263238"/>
      <path id="Trazado_108190" data-name="Trazado 108190" d="M304.979,232.914l.512-26.087c-4.633-4.553-7.106-5.914-13.556-6.674l-1.753-.2-.552-4.3-15.812-.9.8,5.105h0a38.325,38.325,0,0,0-6.138,1.176c-6.146,1.176-10.571,5.649-11.8,9.787-1.016,3.4-7.506,28.616-7.506,28.616l-1.32,7.61,14.516-5.265V267.4h44.012C306.54,262.6,304.979,232.914,304.979,232.914Z" transform="translate(-235.425 -158.284)" fill="#d9a171"/>
      <g id="Grupo_59710" data-name="Grupo 59710" transform="translate(12.435 36.476)" opacity="0.2">
        <path id="Trazado_108191" data-name="Trazado 108191" d="M304.979,232.914l.512-26.087c-4.633-4.553-7.106-5.914-13.556-6.674l-1.753-.2-.552-4.3-15.812-.9.8,5.105h0a38.325,38.325,0,0,0-6.138,1.176c-6.146,1.176-10.571,5.649-11.8,9.787-1.016,3.4-7.506,28.616-7.506,28.616l-1.32,7.61,14.516-5.265V267.4h44.012C306.54,262.6,304.979,232.914,304.979,232.914Z" transform="translate(-247.86 -194.76)"/>
      </g>
      <path id="Trazado_108192" data-name="Trazado 108192" d="M254.462,250.281l21.71-3.081,4.129,7.394-20.181,9.1a8.8,8.8,0,0,1-3.585.8h0a8.714,8.714,0,0,1-8.058-5.449l-.656-1.6Z" transform="translate(-235.417 -168.761)" fill="#d9a171"/>
      <g id="Grupo_59711" data-name="Grupo 59711" transform="translate(12.403 78.439)" opacity="0.2">
        <path id="Trazado_108193" data-name="Trazado 108193" d="M254.462,250.281l21.71-3.081,4.129,7.394-20.181,9.1a8.8,8.8,0,0,1-3.585.8h0a8.714,8.714,0,0,1-8.058-5.449l-.656-1.6Z" transform="translate(-247.82 -247.2)"/>
      </g>
      <path id="Trazado_108194" data-name="Trazado 108194" d="M310.727,203.49s6.138,2.089,8.714,8c1.68,3.857,4.153,22.406,4.153,22.406l3.113,6.01a10.092,10.092,0,0,1,1.136,4.665v.92a10.123,10.123,0,0,1-2.273,6.4h0a10.123,10.123,0,0,1-6.962,3.7c-3.113.28-6.874.4-7.674-.512a38.076,38.076,0,0,1-3.545-5.978l9.066-4.8-3.905-7.2Z" transform="translate(-247.318 -160.028)" fill="#d9a171"/>
      <g id="Grupo_59712" data-name="Grupo 59712" transform="translate(60.072 43.462)" opacity="0.2">
        <path id="Trazado_108195" data-name="Trazado 108195" d="M310.727,203.49s6.138,2.089,8.714,8c1.68,3.857,4.153,22.406,4.153,22.406l3.113,6.01a10.092,10.092,0,0,1,1.136,4.665v.92a10.123,10.123,0,0,1-2.273,6.4h0a10.123,10.123,0,0,1-6.962,3.7c-3.113.28-6.874.4-7.674-.512a38.076,38.076,0,0,1-3.545-5.978l9.066-4.8-3.905-7.2Z" transform="translate(-307.39 -203.49)"/>
      </g>
      <path id="Trazado_108196" data-name="Trazado 108196" d="M263.13,263a2.909,2.909,0,0,1,.352-.2l1.04-.5,3.9-1.825,13.3-6.074-.088.28-2.545-4.561-1.6-2.833.192.1-15.908,1.561-4.721.424-1.28.1a1.465,1.465,0,0,1-.448,0,2.555,2.555,0,0,1,.44-.08l1.272-.16,4.713-.544L277.654,247h.128l.064.112,1.6,2.833,2.537,4.561.1.184-.192.088-13.356,5.946-3.945,1.713-1.072.448A2.193,2.193,0,0,1,263.13,263Z" transform="translate(-236.915 -168.721)" fill="#263238"/>
      <path id="Trazado_108197" data-name="Trazado 108197" d="M269.85,244.043c-.112,0-.2-3.881-.2-8.666s.088-8.666.2-8.666.2,3.881.2,8.666S269.93,244.043,269.85,244.043Z" transform="translate(-239.778 -164.667)" fill="#263238"/>
      <path id="Trazado_108198" data-name="Trazado 108198" d="M315.279,255.587a3.274,3.274,0,0,1,.656-.1,6.145,6.145,0,0,1,1.833.1,2.161,2.161,0,0,1,1.144.656,2.905,2.905,0,0,1,.6,1.376,3.2,3.2,0,0,1-.144,1.656,3.089,3.089,0,0,1-1.1,1.408,8.164,8.164,0,0,1-3.145,1.12,14.487,14.487,0,0,1-2.7.264,4.866,4.866,0,0,1-2.441-.424,13.056,13.056,0,0,0,2.441.144,16,16,0,0,0,2.625-.344,8.116,8.116,0,0,0,2.985-1.08,2.745,2.745,0,0,0,1.112-2.681,2.7,2.7,0,0,0-.488-1.232,1.961,1.961,0,0,0-.968-.592,7.491,7.491,0,0,0-1.76-.224A2.854,2.854,0,0,1,315.279,255.587Z" transform="translate(-247.837 -170.41)" fill="#263238"/>
      <path id="Trazado_108199" data-name="Trazado 108199" d="M318.87,267.679a4.523,4.523,0,0,1-1.6.184,9.843,9.843,0,0,1-3.753-.616,8.082,8.082,0,0,1-1.865-1,4.372,4.372,0,0,1-1.152-1.3,3.435,3.435,0,0,1-.56-1.48c.064,0,.272.544.8,1.328a4.683,4.683,0,0,0,1.136,1.16,8.528,8.528,0,0,0,1.793.912,11.424,11.424,0,0,0,3.609.712A11.211,11.211,0,0,1,318.87,267.679Z" transform="translate(-247.827 -172.011)" fill="#263238"/>
      <path id="Trazado_108200" data-name="Trazado 108200" d="M324.526,245.23a8.19,8.19,0,0,1-1.072,1.288c-.7.76-1.68,1.8-2.785,2.929s-2.113,2.145-2.865,2.857a7.117,7.117,0,0,1-1.264,1.1,6.939,6.939,0,0,1,1.064-1.3c.7-.8,1.68-1.808,2.777-2.937a37.3,37.3,0,0,1,4.145-3.945Z" transform="translate(-249.146 -168.367)" fill="#263238"/>
      <path id="Trazado_108201" data-name="Trazado 108201" d="M314.1,237.695a30.619,30.619,0,0,1-.2-4.953,30.76,30.76,0,0,1,.2-4.961,30.739,30.739,0,0,1,.2,4.961,30.6,30.6,0,0,1-.2,4.953Z" transform="translate(-248.614 -164.881)" fill="#263238"/>
      <path id="Trazado_108202" data-name="Trazado 108202" d="M307.3,207.638c0,.112-9.771.208-21.822.208s-21.822-.1-21.822-.208,9.771-.208,21.822-.208S307.3,207.518,307.3,207.638Z" transform="translate(-238.581 -160.815)" fill="#fafafa"/>
      <path id="Trazado_108203" data-name="Trazado 108203" d="M296.452,201.369a68.639,68.639,0,0,1-7.53.168,66.041,66.041,0,0,1-7.522-.256,69.772,69.772,0,0,1,7.522-.16,69.77,69.77,0,0,1,7.53.248Z" transform="translate(-242.125 -159.547)" fill="#263238"/>
      <path id="Trazado_108204" data-name="Trazado 108204" d="M310.9,218.656c0,.112-11.859.208-26.495.208s-26.5-.1-26.5-.208,11.867-.216,26.5-.216S310.9,218.536,310.9,218.656Z" transform="translate(-237.43 -163.015)" fill="#fafafa"/>
      <path id="Trazado_108205" data-name="Trazado 108205" d="M311.879,229.948c0,.12-12.8.208-28.64.208s-28.64-.088-28.64-.208,12.8-.208,28.64-.208S311.879,229.86,311.879,229.948Z" transform="translate(-236.771 -165.273)" fill="#fafafa"/>
      <path id="Trazado_108206" data-name="Trazado 108206" d="M312.368,241c0,.112-13.532.208-30.224.208s-30.224-.1-30.224-.208,13.532-.208,30.224-.208S312.368,240.878,312.368,241Z" transform="translate(-236.236 -167.48)" fill="#fafafa"/>
      <path id="Trazado_108207" data-name="Trazado 108207" d="M315.788,258.948c0,.112-15.036.208-33.609.208s-33.609-.1-33.609-.208,15.036-.208,33.609-.208S315.788,258.82,315.788,258.948Z" transform="translate(-235.567 -171.066)" fill="#fafafa"/>
      <path id="Trazado_108208" data-name="Trazado 108208" d="M309.456,271.518c0,.112-9.923.208-22.158.208s-22.158-.1-22.158-.208,9.915-.208,22.158-.208S309.456,271.4,309.456,271.518Z" transform="translate(-238.877 -173.578)" fill="#fafafa"/>
      <path id="Trazado_108209" data-name="Trazado 108209" d="M302.859,242.13l-.472-.352a10.835,10.835,0,0,0-8.546-1.976h0a14.876,14.876,0,0,0-6.65,3.121l-3.721,3.065,3.953,7.09,2.7-3.769s2.513,3.409,2.961,3.049a5.777,5.777,0,0,0,.984-1.432l-1.792-2.513,4.305.9,6.282-2.873-2.7-3.409,2.7.9Z" transform="translate(-242.539 -167.244)" fill="#ffbe9d"/>
      <path id="Trazado_108210" data-name="Trazado 108210" d="M295.96,241.151l-13.82,16.733,1.064,1.144,22.422-3.417,11.123-16.733-1.032-.928Z" transform="translate(-242.273 -166.913)" fill="#263238"/>
      <path id="Trazado_108211" data-name="Trazado 108211" d="M312.38,247.47h0a2.129,2.129,0,0,0-1.993,1.36,4.665,4.665,0,0,1-1.36,2.169c-1,.544-2.721.976-3.625.536s-4.529-3.705-5.161-3.345-1.176,1.176-.544,1.9,4,2.9,3.353,3.625-7.706-2.465-8.8-2.185-1.72.944-1.088,1.384,5.433,2.249,5.706,2.881c0,0-7.25-1.9-7.522-1.448s-.72,1.176,0,1.448,6.978,1.9,7.522,2.177a13.168,13.168,0,0,0,2.793.8,29.968,29.968,0,0,1,2.921.92,6.337,6.337,0,0,0,4.505-.12l.736-.3a2.881,2.881,0,0,0,1.785-2.841l-.144-2.465.8-2.041Z" transform="translate(-244.034 -168.815)" fill="#ffbe9d"/>
      <path id="Trazado_108212" data-name="Trazado 108212" d="M317.073,239.3a1.743,1.743,0,0,1-.416.1l-1.2.208-4.417.712-6.562,1-3.873.584a7.443,7.443,0,0,0-3.753,1.52,24.625,24.625,0,0,0-2.729,3.145c-.856,1.056-1.672,2.081-2.457,3.057L287.5,254.79l-2.841,3.473-.8.928a1.862,1.862,0,0,1-.3.3,2.624,2.624,0,0,1,.232-.352l.728-.976,2.737-3.537,4.105-5.225,2.4-3.073a24.91,24.91,0,0,1,2.785-3.2,7.818,7.818,0,0,1,3.945-1.6l3.881-.56,6.578-.92,4.441-.584,1.208-.136A1.424,1.424,0,0,1,317.073,239.3Z" transform="translate(-242.557 -167.181)" fill="#455a64"/>
      <path id="Trazado_108213" data-name="Trazado 108213" d="M312.144,243.88a2.015,2.015,0,0,0-.624.5.648.648,0,0,0,0,.752.7.7,0,0,0,.928,0,.88.88,0,0,0,.352-.536.64.64,0,0,0-.184-.6.5.5,0,0,0-.608,0" transform="translate(-248.119 -168.098)" fill="#fafafa"/>
    </g>
    <g id="freepik--speech-bubble--inject-122" transform="translate(100.174 127.115)">
      <path id="Trazado_108214" data-name="Trazado 108214" d="M220.637,187.753l-4.065-7.2a19.205,19.205,0,1,0-4.593,5.113h0Z" transform="translate(-181.014 -151.275)" fill="#d9a171"/>
      <path id="Trazado_108215" data-name="Trazado 108215" d="M196.73,171.755a2.531,2.531,0,1,1,2.521,2.833A2.536,2.536,0,0,1,196.73,171.755Zm3.577,0c0-1.1-.424-1.6-1.056-1.6s-1.056.544-1.056,1.6.432,1.6,1.056,1.6S200.307,172.859,200.307,171.755Zm4.977-2.713H207l-6.914,10.267h-1.72ZM203.62,176.6a2.527,2.527,0,1,1,2.5,2.833A2.54,2.54,0,0,1,203.62,176.6Zm3.561,0c0-1.088-.424-1.6-1.056-1.6s-1.056.528-1.056,1.6.432,1.6,1.056,1.6S207.181,177.684,207.181,176.6Z" transform="translate(-184.154 -154.802)" fill="#fff"/>
    </g>
  </g>
</svg>
